<?xml version="1.0" encoding="utf-8" standalone="no"?>
<!DOCTYPE svg PUBLIC "-//W3C//DTD SVG 1.1//EN"
  "http://www.w3.org/Graphics/SVG/1.1/DTD/svg11.dtd">
<svg height="432pt" version="1.1" viewBox="0 0 648 432" width="648pt" xmlns="http://www.w3.org/2000/svg" xmlns:xlink="http://www.w3.org/1999/xlink">
 <metadata>
  <rdf:RDF xmlns:cc="http://creativecommons.org/ns#" xmlns:dc="http://purl.org/dc/elements/1.1/" xmlns:rdf="http://www.w3.org/1999/02/22-rdf-syntax-ns#">
   <cc:Work>
    <dc:type rdf:resource="http://purl.org/dc/dcmitype/StillImage"/>
    <dc:date>2021-10-08T16:35:07.314230</dc:date>
    <dc:format>image/svg+xml</dc:format>
    <dc:creator>
     <cc:Agent>
      <dc:title>Matplotlib v3.4.2, https://matplotlib.org/</dc:title>
     </cc:Agent>
    </dc:creator>
   </cc:Work>
  </rdf:RDF>
 </metadata>
 <defs>
  <style type="text/css">*{stroke-linecap:butt;stroke-linejoin:round;}</style>
 </defs>
 <g id="figure_1">
  <g id="patch_1">
   <path d="M 0 432 
L 648 432 
L 648 0 
L 0 0 
z
" style="fill:#ffffff;"/>
  </g>
  <g id="axes_1">
   <g id="patch_2">
    <path d="M 72.54 373.86 
L 627.255 373.86 
L 627.255 12.96 
L 72.54 12.96 
z
" style="fill:#eaeaf2;"/>
   </g>
   <g id="matplotlib.axis_1">
    <g id="xtick_1">
     <g id="line2d_1">
      <path clip-path="url(#p3aa0ba2e05)" d="M 72.54 373.86 
L 72.54 12.96 
" style="fill:none;stroke:#ffffff;stroke-linecap:round;"/>
     </g>
     <g id="text_1">
      <!-- 0 -->
      <g style="fill:#262626;" transform="translate(68.647344 393.380938)scale(0.14 -0.14)">
       <defs>
        <path d="M 266 2259 
Q 266 3072 433 3567 
Q 600 4063 929 4331 
Q 1259 4600 1759 4600 
Q 2128 4600 2406 4451 
Q 2684 4303 2865 4023 
Q 3047 3744 3150 3342 
Q 3253 2941 3253 2259 
Q 3253 1453 3087 958 
Q 2922 463 2592 192 
Q 2263 -78 1759 -78 
Q 1097 -78 719 397 
Q 266 969 266 2259 
z
M 844 2259 
Q 844 1131 1108 757 
Q 1372 384 1759 384 
Q 2147 384 2411 759 
Q 2675 1134 2675 2259 
Q 2675 3391 2411 3762 
Q 2147 4134 1753 4134 
Q 1366 4134 1134 3806 
Q 844 3388 844 2259 
z
" id="ArialMT-30" transform="scale(0.015625)"/>
       </defs>
       <use xlink:href="#ArialMT-30"/>
      </g>
     </g>
    </g>
    <g id="xtick_2">
     <g id="line2d_2">
      <path clip-path="url(#p3aa0ba2e05)" d="M 141.879375 373.86 
L 141.879375 12.96 
" style="fill:none;stroke:#ffffff;stroke-linecap:round;"/>
     </g>
     <g id="text_2">
      <!-- 5 -->
      <g style="fill:#262626;" transform="translate(137.986719 393.380938)scale(0.14 -0.14)">
       <defs>
        <path d="M 266 1200 
L 856 1250 
Q 922 819 1161 601 
Q 1400 384 1738 384 
Q 2144 384 2425 690 
Q 2706 997 2706 1503 
Q 2706 1984 2436 2262 
Q 2166 2541 1728 2541 
Q 1456 2541 1237 2417 
Q 1019 2294 894 2097 
L 366 2166 
L 809 4519 
L 3088 4519 
L 3088 3981 
L 1259 3981 
L 1013 2750 
Q 1425 3038 1878 3038 
Q 2478 3038 2890 2622 
Q 3303 2206 3303 1553 
Q 3303 931 2941 478 
Q 2500 -78 1738 -78 
Q 1113 -78 717 272 
Q 322 622 266 1200 
z
" id="ArialMT-35" transform="scale(0.015625)"/>
       </defs>
       <use xlink:href="#ArialMT-35"/>
      </g>
     </g>
    </g>
    <g id="xtick_3">
     <g id="line2d_3">
      <path clip-path="url(#p3aa0ba2e05)" d="M 211.21875 373.86 
L 211.21875 12.96 
" style="fill:none;stroke:#ffffff;stroke-linecap:round;"/>
     </g>
     <g id="text_3">
      <!-- 10 -->
      <g style="fill:#262626;" transform="translate(203.433437 393.380938)scale(0.14 -0.14)">
       <defs>
        <path d="M 2384 0 
L 1822 0 
L 1822 3584 
Q 1619 3391 1289 3197 
Q 959 3003 697 2906 
L 697 3450 
Q 1169 3672 1522 3987 
Q 1875 4303 2022 4600 
L 2384 4600 
L 2384 0 
z
" id="ArialMT-31" transform="scale(0.015625)"/>
       </defs>
       <use xlink:href="#ArialMT-31"/>
       <use x="55.615234" xlink:href="#ArialMT-30"/>
      </g>
     </g>
    </g>
    <g id="xtick_4">
     <g id="line2d_4">
      <path clip-path="url(#p3aa0ba2e05)" d="M 280.558125 373.86 
L 280.558125 12.96 
" style="fill:none;stroke:#ffffff;stroke-linecap:round;"/>
     </g>
     <g id="text_4">
      <!-- 15 -->
      <g style="fill:#262626;" transform="translate(272.772813 393.380938)scale(0.14 -0.14)">
       <use xlink:href="#ArialMT-31"/>
       <use x="55.615234" xlink:href="#ArialMT-35"/>
      </g>
     </g>
    </g>
    <g id="xtick_5">
     <g id="line2d_5">
      <path clip-path="url(#p3aa0ba2e05)" d="M 349.8975 373.86 
L 349.8975 12.96 
" style="fill:none;stroke:#ffffff;stroke-linecap:round;"/>
     </g>
     <g id="text_5">
      <!-- 20 -->
      <g style="fill:#262626;" transform="translate(342.112188 393.380938)scale(0.14 -0.14)">
       <defs>
        <path d="M 3222 541 
L 3222 0 
L 194 0 
Q 188 203 259 391 
Q 375 700 629 1000 
Q 884 1300 1366 1694 
Q 2113 2306 2375 2664 
Q 2638 3022 2638 3341 
Q 2638 3675 2398 3904 
Q 2159 4134 1775 4134 
Q 1369 4134 1125 3890 
Q 881 3647 878 3216 
L 300 3275 
Q 359 3922 746 4261 
Q 1134 4600 1788 4600 
Q 2447 4600 2831 4234 
Q 3216 3869 3216 3328 
Q 3216 3053 3103 2787 
Q 2991 2522 2730 2228 
Q 2469 1934 1863 1422 
Q 1356 997 1212 845 
Q 1069 694 975 541 
L 3222 541 
z
" id="ArialMT-32" transform="scale(0.015625)"/>
       </defs>
       <use xlink:href="#ArialMT-32"/>
       <use x="55.615234" xlink:href="#ArialMT-30"/>
      </g>
     </g>
    </g>
    <g id="xtick_6">
     <g id="line2d_6">
      <path clip-path="url(#p3aa0ba2e05)" d="M 419.236875 373.86 
L 419.236875 12.96 
" style="fill:none;stroke:#ffffff;stroke-linecap:round;"/>
     </g>
     <g id="text_6">
      <!-- 25 -->
      <g style="fill:#262626;" transform="translate(411.451563 393.380938)scale(0.14 -0.14)">
       <use xlink:href="#ArialMT-32"/>
       <use x="55.615234" xlink:href="#ArialMT-35"/>
      </g>
     </g>
    </g>
    <g id="xtick_7">
     <g id="line2d_7">
      <path clip-path="url(#p3aa0ba2e05)" d="M 488.57625 373.86 
L 488.57625 12.96 
" style="fill:none;stroke:#ffffff;stroke-linecap:round;"/>
     </g>
     <g id="text_7">
      <!-- 30 -->
      <g style="fill:#262626;" transform="translate(480.790938 393.380938)scale(0.14 -0.14)">
       <defs>
        <path d="M 269 1209 
L 831 1284 
Q 928 806 1161 595 
Q 1394 384 1728 384 
Q 2125 384 2398 659 
Q 2672 934 2672 1341 
Q 2672 1728 2419 1979 
Q 2166 2231 1775 2231 
Q 1616 2231 1378 2169 
L 1441 2663 
Q 1497 2656 1531 2656 
Q 1891 2656 2178 2843 
Q 2466 3031 2466 3422 
Q 2466 3731 2256 3934 
Q 2047 4138 1716 4138 
Q 1388 4138 1169 3931 
Q 950 3725 888 3313 
L 325 3413 
Q 428 3978 793 4289 
Q 1159 4600 1703 4600 
Q 2078 4600 2393 4439 
Q 2709 4278 2876 4000 
Q 3044 3722 3044 3409 
Q 3044 3113 2884 2869 
Q 2725 2625 2413 2481 
Q 2819 2388 3044 2092 
Q 3269 1797 3269 1353 
Q 3269 753 2831 336 
Q 2394 -81 1725 -81 
Q 1122 -81 723 278 
Q 325 638 269 1209 
z
" id="ArialMT-33" transform="scale(0.015625)"/>
       </defs>
       <use xlink:href="#ArialMT-33"/>
       <use x="55.615234" xlink:href="#ArialMT-30"/>
      </g>
     </g>
    </g>
    <g id="xtick_8">
     <g id="line2d_8">
      <path clip-path="url(#p3aa0ba2e05)" d="M 557.915625 373.86 
L 557.915625 12.96 
" style="fill:none;stroke:#ffffff;stroke-linecap:round;"/>
     </g>
     <g id="text_8">
      <!-- 35 -->
      <g style="fill:#262626;" transform="translate(550.130313 393.380938)scale(0.14 -0.14)">
       <use xlink:href="#ArialMT-33"/>
       <use x="55.615234" xlink:href="#ArialMT-35"/>
      </g>
     </g>
    </g>
    <g id="xtick_9">
     <g id="line2d_9">
      <path clip-path="url(#p3aa0ba2e05)" d="M 627.255 373.86 
L 627.255 12.96 
" style="fill:none;stroke:#ffffff;stroke-linecap:round;"/>
     </g>
     <g id="text_9">
      <!-- 40 -->
      <g style="fill:#262626;" transform="translate(619.469687 393.380938)scale(0.14 -0.14)">
       <defs>
        <path d="M 2069 0 
L 2069 1097 
L 81 1097 
L 81 1613 
L 2172 4581 
L 2631 4581 
L 2631 1613 
L 3250 1613 
L 3250 1097 
L 2631 1097 
L 2631 0 
L 2069 0 
z
M 2069 1613 
L 2069 3678 
L 634 1613 
L 2069 1613 
z
" id="ArialMT-34" transform="scale(0.015625)"/>
       </defs>
       <use xlink:href="#ArialMT-34"/>
       <use x="55.615234" xlink:href="#ArialMT-30"/>
      </g>
     </g>
    </g>
    <g id="text_10">
     <!-- Epochs -->
     <g style="fill:#262626;" transform="translate(316.544375 414.479063)scale(0.2 -0.2)">
      <defs>
       <path d="M 506 0 
L 506 4581 
L 3819 4581 
L 3819 4041 
L 1113 4041 
L 1113 2638 
L 3647 2638 
L 3647 2100 
L 1113 2100 
L 1113 541 
L 3925 541 
L 3925 0 
L 506 0 
z
" id="ArialMT-45" transform="scale(0.015625)"/>
       <path d="M 422 -1272 
L 422 3319 
L 934 3319 
L 934 2888 
Q 1116 3141 1344 3267 
Q 1572 3394 1897 3394 
Q 2322 3394 2647 3175 
Q 2972 2956 3137 2557 
Q 3303 2159 3303 1684 
Q 3303 1175 3120 767 
Q 2938 359 2589 142 
Q 2241 -75 1856 -75 
Q 1575 -75 1351 44 
Q 1128 163 984 344 
L 984 -1272 
L 422 -1272 
z
M 931 1641 
Q 931 1000 1190 694 
Q 1450 388 1819 388 
Q 2194 388 2461 705 
Q 2728 1022 2728 1688 
Q 2728 2322 2467 2637 
Q 2206 2953 1844 2953 
Q 1484 2953 1207 2617 
Q 931 2281 931 1641 
z
" id="ArialMT-70" transform="scale(0.015625)"/>
       <path d="M 213 1659 
Q 213 2581 725 3025 
Q 1153 3394 1769 3394 
Q 2453 3394 2887 2945 
Q 3322 2497 3322 1706 
Q 3322 1066 3130 698 
Q 2938 331 2570 128 
Q 2203 -75 1769 -75 
Q 1072 -75 642 372 
Q 213 819 213 1659 
z
M 791 1659 
Q 791 1022 1069 705 
Q 1347 388 1769 388 
Q 2188 388 2466 706 
Q 2744 1025 2744 1678 
Q 2744 2294 2464 2611 
Q 2184 2928 1769 2928 
Q 1347 2928 1069 2612 
Q 791 2297 791 1659 
z
" id="ArialMT-6f" transform="scale(0.015625)"/>
       <path d="M 2588 1216 
L 3141 1144 
Q 3050 572 2676 248 
Q 2303 -75 1759 -75 
Q 1078 -75 664 370 
Q 250 816 250 1647 
Q 250 2184 428 2587 
Q 606 2991 970 3192 
Q 1334 3394 1763 3394 
Q 2303 3394 2647 3120 
Q 2991 2847 3088 2344 
L 2541 2259 
Q 2463 2594 2264 2762 
Q 2066 2931 1784 2931 
Q 1359 2931 1093 2626 
Q 828 2322 828 1663 
Q 828 994 1084 691 
Q 1341 388 1753 388 
Q 2084 388 2306 591 
Q 2528 794 2588 1216 
z
" id="ArialMT-63" transform="scale(0.015625)"/>
       <path d="M 422 0 
L 422 4581 
L 984 4581 
L 984 2938 
Q 1378 3394 1978 3394 
Q 2347 3394 2619 3248 
Q 2891 3103 3008 2847 
Q 3125 2591 3125 2103 
L 3125 0 
L 2563 0 
L 2563 2103 
Q 2563 2525 2380 2717 
Q 2197 2909 1863 2909 
Q 1613 2909 1392 2779 
Q 1172 2650 1078 2428 
Q 984 2206 984 1816 
L 984 0 
L 422 0 
z
" id="ArialMT-68" transform="scale(0.015625)"/>
       <path d="M 197 991 
L 753 1078 
Q 800 744 1014 566 
Q 1228 388 1613 388 
Q 2000 388 2187 545 
Q 2375 703 2375 916 
Q 2375 1106 2209 1216 
Q 2094 1291 1634 1406 
Q 1016 1563 777 1677 
Q 538 1791 414 1992 
Q 291 2194 291 2438 
Q 291 2659 392 2848 
Q 494 3038 669 3163 
Q 800 3259 1026 3326 
Q 1253 3394 1513 3394 
Q 1903 3394 2198 3281 
Q 2494 3169 2634 2976 
Q 2775 2784 2828 2463 
L 2278 2388 
Q 2241 2644 2061 2787 
Q 1881 2931 1553 2931 
Q 1166 2931 1000 2803 
Q 834 2675 834 2503 
Q 834 2394 903 2306 
Q 972 2216 1119 2156 
Q 1203 2125 1616 2013 
Q 2213 1853 2448 1751 
Q 2684 1650 2818 1456 
Q 2953 1263 2953 975 
Q 2953 694 2789 445 
Q 2625 197 2315 61 
Q 2006 -75 1616 -75 
Q 969 -75 630 194 
Q 291 463 197 991 
z
" id="ArialMT-73" transform="scale(0.015625)"/>
      </defs>
      <use xlink:href="#ArialMT-45"/>
      <use x="66.699219" xlink:href="#ArialMT-70"/>
      <use x="122.314453" xlink:href="#ArialMT-6f"/>
      <use x="177.929688" xlink:href="#ArialMT-63"/>
      <use x="227.929688" xlink:href="#ArialMT-68"/>
      <use x="283.544922" xlink:href="#ArialMT-73"/>
     </g>
    </g>
   </g>
   <g id="matplotlib.axis_2">
    <g id="ytick_1">
     <g id="line2d_10">
      <path clip-path="url(#p3aa0ba2e05)" d="M 72.54 373.86 
L 627.255 373.86 
" style="fill:none;stroke:#ffffff;stroke-linecap:round;"/>
     </g>
     <g id="text_11">
      <!-- 0.40 -->
      <g style="fill:#262626;" transform="translate(35.794688 378.870469)scale(0.14 -0.14)">
       <defs>
        <path d="M 581 0 
L 581 641 
L 1222 641 
L 1222 0 
L 581 0 
z
" id="ArialMT-2e" transform="scale(0.015625)"/>
       </defs>
       <use xlink:href="#ArialMT-30"/>
       <use x="55.615234" xlink:href="#ArialMT-2e"/>
       <use x="83.398438" xlink:href="#ArialMT-34"/>
       <use x="139.013672" xlink:href="#ArialMT-30"/>
      </g>
     </g>
    </g>
    <g id="ytick_2">
     <g id="line2d_11">
      <path clip-path="url(#p3aa0ba2e05)" d="M 72.54 325.74 
L 627.255 325.74 
" style="fill:none;stroke:#ffffff;stroke-linecap:round;"/>
     </g>
     <g id="text_12">
      <!-- 0.42 -->
      <g style="fill:#262626;" transform="translate(35.794688 330.750469)scale(0.14 -0.14)">
       <use xlink:href="#ArialMT-30"/>
       <use x="55.615234" xlink:href="#ArialMT-2e"/>
       <use x="83.398438" xlink:href="#ArialMT-34"/>
       <use x="139.013672" xlink:href="#ArialMT-32"/>
      </g>
     </g>
    </g>
    <g id="ytick_3">
     <g id="line2d_12">
      <path clip-path="url(#p3aa0ba2e05)" d="M 72.54 277.62 
L 627.255 277.62 
" style="fill:none;stroke:#ffffff;stroke-linecap:round;"/>
     </g>
     <g id="text_13">
      <!-- 0.44 -->
      <g style="fill:#262626;" transform="translate(35.794688 282.630469)scale(0.14 -0.14)">
       <use xlink:href="#ArialMT-30"/>
       <use x="55.615234" xlink:href="#ArialMT-2e"/>
       <use x="83.398438" xlink:href="#ArialMT-34"/>
       <use x="139.013672" xlink:href="#ArialMT-34"/>
      </g>
     </g>
    </g>
    <g id="ytick_4">
     <g id="line2d_13">
      <path clip-path="url(#p3aa0ba2e05)" d="M 72.54 229.5 
L 627.255 229.5 
" style="fill:none;stroke:#ffffff;stroke-linecap:round;"/>
     </g>
     <g id="text_14">
      <!-- 0.46 -->
      <g style="fill:#262626;" transform="translate(35.794688 234.510469)scale(0.14 -0.14)">
       <defs>
        <path d="M 3184 3459 
L 2625 3416 
Q 2550 3747 2413 3897 
Q 2184 4138 1850 4138 
Q 1581 4138 1378 3988 
Q 1113 3794 959 3422 
Q 806 3050 800 2363 
Q 1003 2672 1297 2822 
Q 1591 2972 1913 2972 
Q 2475 2972 2870 2558 
Q 3266 2144 3266 1488 
Q 3266 1056 3080 686 
Q 2894 316 2569 119 
Q 2244 -78 1831 -78 
Q 1128 -78 684 439 
Q 241 956 241 2144 
Q 241 3472 731 4075 
Q 1159 4600 1884 4600 
Q 2425 4600 2770 4297 
Q 3116 3994 3184 3459 
z
M 888 1484 
Q 888 1194 1011 928 
Q 1134 663 1356 523 
Q 1578 384 1822 384 
Q 2178 384 2434 671 
Q 2691 959 2691 1453 
Q 2691 1928 2437 2201 
Q 2184 2475 1800 2475 
Q 1419 2475 1153 2201 
Q 888 1928 888 1484 
z
" id="ArialMT-36" transform="scale(0.015625)"/>
       </defs>
       <use xlink:href="#ArialMT-30"/>
       <use x="55.615234" xlink:href="#ArialMT-2e"/>
       <use x="83.398438" xlink:href="#ArialMT-34"/>
       <use x="139.013672" xlink:href="#ArialMT-36"/>
      </g>
     </g>
    </g>
    <g id="ytick_5">
     <g id="line2d_14">
      <path clip-path="url(#p3aa0ba2e05)" d="M 72.54 181.38 
L 627.255 181.38 
" style="fill:none;stroke:#ffffff;stroke-linecap:round;"/>
     </g>
     <g id="text_15">
      <!-- 0.48 -->
      <g style="fill:#262626;" transform="translate(35.794688 186.390469)scale(0.14 -0.14)">
       <defs>
        <path d="M 1131 2484 
Q 781 2613 612 2850 
Q 444 3088 444 3419 
Q 444 3919 803 4259 
Q 1163 4600 1759 4600 
Q 2359 4600 2725 4251 
Q 3091 3903 3091 3403 
Q 3091 3084 2923 2848 
Q 2756 2613 2416 2484 
Q 2838 2347 3058 2040 
Q 3278 1734 3278 1309 
Q 3278 722 2862 322 
Q 2447 -78 1769 -78 
Q 1091 -78 675 323 
Q 259 725 259 1325 
Q 259 1772 486 2073 
Q 713 2375 1131 2484 
z
M 1019 3438 
Q 1019 3113 1228 2906 
Q 1438 2700 1772 2700 
Q 2097 2700 2305 2904 
Q 2513 3109 2513 3406 
Q 2513 3716 2298 3927 
Q 2084 4138 1766 4138 
Q 1444 4138 1231 3931 
Q 1019 3725 1019 3438 
z
M 838 1322 
Q 838 1081 952 856 
Q 1066 631 1291 507 
Q 1516 384 1775 384 
Q 2178 384 2440 643 
Q 2703 903 2703 1303 
Q 2703 1709 2433 1975 
Q 2163 2241 1756 2241 
Q 1359 2241 1098 1978 
Q 838 1716 838 1322 
z
" id="ArialMT-38" transform="scale(0.015625)"/>
       </defs>
       <use xlink:href="#ArialMT-30"/>
       <use x="55.615234" xlink:href="#ArialMT-2e"/>
       <use x="83.398438" xlink:href="#ArialMT-34"/>
       <use x="139.013672" xlink:href="#ArialMT-38"/>
      </g>
     </g>
    </g>
    <g id="ytick_6">
     <g id="line2d_15">
      <path clip-path="url(#p3aa0ba2e05)" d="M 72.54 133.26 
L 627.255 133.26 
" style="fill:none;stroke:#ffffff;stroke-linecap:round;"/>
     </g>
     <g id="text_16">
      <!-- 0.50 -->
      <g style="fill:#262626;" transform="translate(35.794688 138.270469)scale(0.14 -0.14)">
       <use xlink:href="#ArialMT-30"/>
       <use x="55.615234" xlink:href="#ArialMT-2e"/>
       <use x="83.398438" xlink:href="#ArialMT-35"/>
       <use x="139.013672" xlink:href="#ArialMT-30"/>
      </g>
     </g>
    </g>
    <g id="ytick_7">
     <g id="line2d_16">
      <path clip-path="url(#p3aa0ba2e05)" d="M 72.54 85.14 
L 627.255 85.14 
" style="fill:none;stroke:#ffffff;stroke-linecap:round;"/>
     </g>
     <g id="text_17">
      <!-- 0.52 -->
      <g style="fill:#262626;" transform="translate(35.794688 90.150469)scale(0.14 -0.14)">
       <use xlink:href="#ArialMT-30"/>
       <use x="55.615234" xlink:href="#ArialMT-2e"/>
       <use x="83.398438" xlink:href="#ArialMT-35"/>
       <use x="139.013672" xlink:href="#ArialMT-32"/>
      </g>
     </g>
    </g>
    <g id="ytick_8">
     <g id="line2d_17">
      <path clip-path="url(#p3aa0ba2e05)" d="M 72.54 37.02 
L 627.255 37.02 
" style="fill:none;stroke:#ffffff;stroke-linecap:round;"/>
     </g>
     <g id="text_18">
      <!-- 0.54 -->
      <g style="fill:#262626;" transform="translate(35.794688 42.030469)scale(0.14 -0.14)">
       <use xlink:href="#ArialMT-30"/>
       <use x="55.615234" xlink:href="#ArialMT-2e"/>
       <use x="83.398438" xlink:href="#ArialMT-35"/>
       <use x="139.013672" xlink:href="#ArialMT-34"/>
      </g>
     </g>
    </g>
    <g id="text_19">
     <!-- Loss -->
     <g style="fill:#262626;" transform="translate(27.819688 214.531875)rotate(-90)scale(0.2 -0.2)">
      <defs>
       <path d="M 469 0 
L 469 4581 
L 1075 4581 
L 1075 541 
L 3331 541 
L 3331 0 
L 469 0 
z
" id="ArialMT-4c" transform="scale(0.015625)"/>
      </defs>
      <use xlink:href="#ArialMT-4c"/>
      <use x="55.615234" xlink:href="#ArialMT-6f"/>
      <use x="111.230469" xlink:href="#ArialMT-73"/>
      <use x="161.230469" xlink:href="#ArialMT-73"/>
     </g>
    </g>
   </g>
   <g id="line2d_18">
    <path clip-path="url(#p3aa0ba2e05)" d="M 86.407875 106.922978 
L 100.27575 110.850228 
L 114.143625 111.803179 
L 128.0115 113.52896 
L 141.879375 113.305243 
L 155.74725 114.422397 
L 169.615125 114.14232 
L 183.483 114.533826 
L 197.350875 114.654145 
L 211.21875 115.007074 
L 225.086625 114.830825 
L 238.9545 114.619441 
L 252.822375 115.262629 
L 266.69025 114.694587 
L 280.558125 114.793969 
L 294.426 115.174576 
L 308.293875 114.949998 
L 322.16175 115.003776 
L 336.029625 114.771024 
L 349.8975 114.792248 
L 363.765375 114.826953 
L 377.63325 114.904394 
L 391.501125 114.831972 
L 405.369 114.652998 
" style="fill:none;stroke:#4c72b0;stroke-dasharray:9,3;stroke-dashoffset:0;stroke-width:1.5;"/>
   </g>
   <g id="line2d_19">
    <path clip-path="url(#p3aa0ba2e05)" d="M 86.407875 96.340701 
L 100.27575 106.364975 
L 114.143625 112.397035 
L 128.0115 104.72696 
L 141.879375 102.871537 
L 155.74725 111.778943 
L 169.615125 104.954119 
L 183.483 112.123841 
L 197.350875 112.608419 
L 211.21875 111.194409 
L 225.086625 110.022616 
L 238.9545 110.53229 
L 252.822375 112.139473 
L 266.69025 111.348573 
L 280.558125 110.696494 
L 294.426 111.171607 
L 308.293875 110.148242 
L 322.16175 111.514067 
L 336.029625 112.270692 
L 349.8975 109.739957 
L 363.765375 112.44436 
L 377.63325 110.065208 
L 391.501125 112.53313 
L 405.369 112.321315 
" style="fill:none;stroke:#dd8452;stroke-dasharray:9,3;stroke-dashoffset:0;stroke-width:1.5;"/>
   </g>
   <g id="line2d_20">
    <path clip-path="url(#p3aa0ba2e05)" d="M 86.407875 109.988484 
L 100.27575 111.625496 
L 114.143625 112.370791 
L 128.0115 113.487945 
L 141.879375 113.002937 
L 155.74725 113.926346 
L 169.615125 113.614575 
L 183.483 114.235535 
L 197.350875 114.561647 
L 211.21875 114.791675 
L 225.086625 114.689281 
L 238.9545 114.621592 
L 252.822375 115.398437 
L 266.69025 115.084228 
L 280.558125 115.270803 
L 294.426 115.618283 
L 308.293875 115.336198 
L 322.16175 115.681096 
L 336.029625 115.520908 
L 349.8975 115.309093 
L 363.765375 115.577555 
L 377.63325 115.663313 
L 391.501125 115.668906 
L 405.369 115.553892 
" style="fill:none;stroke:#55a868;stroke-dasharray:3,1.5;stroke-dashoffset:0;stroke-width:1.5;"/>
   </g>
   <g id="line2d_21">
    <path clip-path="url(#p3aa0ba2e05)" d="M 86.407875 106.629851 
L 100.27575 103.526485 
L 114.143625 107.62898 
L 128.0115 108.602439 
L 141.879375 101.202833 
L 155.74725 109.001689 
L 169.615125 105.105989 
L 183.483 112.349997 
L 197.350875 112.640543 
L 211.21875 110.359626 
L 225.086625 110.400498 
L 238.9545 112.50918 
L 252.822375 112.001513 
L 266.69025 111.712832 
L 280.558125 111.15282 
L 294.426 109.630679 
L 308.293875 110.276449 
L 322.16175 110.991772 
L 336.029625 112.300807 
L 349.8975 111.814795 
L 363.765375 111.863841 
L 377.63325 110.11956 
L 391.501125 112.585761 
L 405.369 112.186941 
" style="fill:none;stroke:#c44e52;stroke-dasharray:3,1.5;stroke-dashoffset:0;stroke-width:1.5;"/>
   </g>
   <g id="line2d_22">
    <path clip-path="url(#p3aa0ba2e05)" d="M 86.407875 111.494994 
L 100.27575 112.430592 
L 114.143625 113.05901 
L 128.0115 113.685276 
L 141.879375 113.646699 
L 155.74725 113.693163 
L 169.615125 113.610273 
L 183.483 114.499407 
L 197.350875 114.510737 
L 211.21875 114.74521 
L 225.086625 114.720257 
L 238.9545 114.938812 
L 252.822375 115.342508 
L 266.69025 115.441746 
L 280.558125 117.116761 
L 294.426 119.114302 
" style="fill:none;stroke:#8172b3;stroke-dasharray:12,7.5;stroke-dashoffset:0;stroke-width:1.5;"/>
   </g>
   <g id="line2d_23">
    <path clip-path="url(#p3aa0ba2e05)" d="M 86.407875 112.643268 
L 100.27575 106.359525 
L 114.143625 105.436977 
L 128.0115 105.354803 
L 141.879375 95.235307 
L 155.74725 108.252521 
L 169.615125 111.117398 
L 183.483 111.503168 
L 197.350875 112.55335 
L 211.21875 110.39763 
L 225.086625 111.573151 
L 238.9545 111.50073 
L 252.822375 110.236008 
L 266.69025 111.422429 
L 280.558125 111.619186 
L 294.426 109.168473 
" style="fill:none;stroke:#937860;stroke-dasharray:12,7.5;stroke-dashoffset:0;stroke-width:1.5;"/>
   </g>
   <g id="line2d_24">
    <path clip-path="url(#p3aa0ba2e05)" d="M 86.407875 112.662198 
L 100.27575 113.469015 
L 114.143625 114.472303 
L 128.0115 114.263213 
L 141.879375 114.591476 
L 155.74725 114.162684 
L 169.615125 114.944548 
L 183.483 114.983842 
L 197.350875 114.495392 
L 211.21875 115.243125 
L 225.086625 114.786655 
L 238.9545 115.145894 
L 252.822375 115.261912 
L 266.69025 115.312392 
L 280.558125 115.205265 
L 294.426 115.060709 
L 308.293875 115.254455 
L 322.16175 115.076484 
L 336.029625 115.468994 
L 349.8975 115.346093 
L 363.765375 115.49194 
L 377.63325 115.558768 
L 391.501125 115.814609 
L 405.369 115.849027 
" style="fill:none;stroke:#da8bc3;stroke-dasharray:1.5,0;stroke-dashoffset:0;stroke-width:1.5;"/>
   </g>
   <g id="line2d_25">
    <path clip-path="url(#p3aa0ba2e05)" d="M 86.407875 109.232864 
L 100.27575 102.698012 
L 114.143625 105.082614 
L 128.0115 104.9491 
L 141.879375 98.948016 
L 155.74725 112.79399 
L 169.615125 111.372666 
L 183.483 108.304579 
L 197.350875 113.192093 
L 211.21875 107.654937 
L 225.086625 111.900554 
L 238.9545 104.303617 
L 252.822375 101.41264 
L 266.69025 110.782969 
L 280.558125 108.354198 
L 294.426 106.783442 
L 308.293875 110.571584 
L 322.16175 112.01399 
L 336.029625 111.567989 
L 349.8975 112.605981 
L 363.765375 112.450813 
L 377.63325 112.595513 
L 391.501125 112.170019 
L 405.369 111.913604 
" style="fill:none;stroke:#8c8c8c;stroke-dasharray:1.5,0;stroke-dashoffset:0;stroke-width:1.5;"/>
   </g>
   <g id="line2d_26">
    <path clip-path="url(#p3aa0ba2e05)" d="M 86.407875 26.349045 
L 100.27575 116.110462 
L 114.143625 116.409325 
L 128.0115 117.035878 
L 141.879375 118.801671 
L 155.74725 118.546116 
L 169.615125 123.722313 
L 183.483 138.00934 
L 197.350875 162.212152 
L 211.21875 185.98904 
L 225.086625 201.23576 
L 238.9545 228.367768 
L 252.822375 242.893069 
L 266.69025 258.64387 
L 280.558125 266.248192 
L 294.426 273.175481 
L 308.293875 279.394904 
L 322.16175 285.976578 
L 336.029625 295.597515 
L 349.8975 300.532497 
L 363.765375 302.246017 
L 377.63325 309.447647 
L 391.501125 311.133489 
L 405.369 314.88327 
L 419.236875 316.544589 
L 433.10475 317.297127 
L 446.972625 319.686747 
L 460.8405 326.041405 
L 474.708375 323.146914 
L 488.57625 326.682801 
L 502.444125 328.109216 
L 516.312 330.019206 
L 530.179875 333.836748 
L 544.04775 337.038492 
L 557.915625 336.952949 
L 571.7835 338.054543 
L 585.651375 341.482873 
L 599.51925 343.636443 
L 613.387125 343.277204 
L 627.255 346.230062 
L 641.122875 345.800194 
L 649 348.413692 
L 649 348.413692 
" style="fill:none;stroke:#ccb974;stroke-dasharray:4.5,4.5;stroke-dashoffset:0;stroke-width:1.5;"/>
   </g>
   <g id="line2d_27">
    <path clip-path="url(#p3aa0ba2e05)" d="M 86.407875 112.127426 
L 100.27575 107.586961 
L 114.143625 113.561944 
L 128.0115 115.307946 
L 141.879375 116.322707 
L 169.615125 125.575871 
L 183.483 147.628914 
L 197.350875 163.99838 
L 211.21875 177.878199 
L 225.086625 213.977988 
L 238.9545 236.818488 
L 252.822375 244.937146 
L 266.69025 256.756682 
L 280.558125 211.494936 
L 294.426 248.015487 
L 308.293875 238.71005 
L 322.16175 292.367447 
L 336.029625 299.610809 
L 349.8975 305.04213 
L 363.765375 297.644101 
L 377.63325 294.598027 
L 391.501125 309.144911 
L 405.369 310.247366 
L 419.236875 306.851877 
L 433.10475 322.745943 
L 446.972625 311.327593 
L 460.8405 312.912045 
L 474.708375 321.584619 
L 488.57625 312.909033 
L 502.444125 321.662131 
L 516.312 334.29078 
L 530.179875 332.962384 
L 544.04775 335.623262 
L 557.915625 332.976438 
L 571.7835 329.354937 
L 585.651375 333.738441 
L 599.51925 320.661999 
L 613.387125 334.743019 
L 627.255 334.85746 
L 641.122875 346.007922 
L 649 349.098804 
L 649 349.098804 
" style="fill:none;stroke:#64b5cd;stroke-dasharray:4.5,4.5;stroke-dashoffset:0;stroke-width:1.5;"/>
   </g>
   <g id="line2d_28">
    <path clip-path="url(#p3aa0ba2e05)" d="M 86.407875 85.496417 
L 100.27575 116.93836 
L 114.143625 118.248256 
L 128.0115 119.746017 
L 141.879375 117.863777 
L 155.74725 116.656132 
L 169.615125 128.318277 
L 183.483 144.438642 
L 197.350875 156.360716 
L 211.21875 169.055261 
L 225.086625 195.075349 
L 252.822375 236.28974 
L 280.558125 262.975819 
L 294.426 271.738884 
L 308.293875 282.520929 
L 322.16175 294.742225 
L 336.029625 296.103246 
L 349.8975 306.000029 
L 363.765375 301.938262 
L 377.63325 319.918783 
L 391.501125 321.456053 
L 405.369 323.484212 
L 419.236875 327.582476 
L 433.10475 333.807994 
L 446.972625 343.124115 
L 460.8405 341.351081 
L 474.708375 346.659572 
L 488.57625 348.960565 
L 502.444125 351.68232 
L 516.312 351.230726 
L 530.179875 355.661412 
L 544.04775 360.831514 
L 557.915625 364.986639 
L 571.7835 365.516463 
L 585.651375 363.525089 
L 599.51925 368.338102 
L 613.387125 370.872351 
L 627.255 373.529213 
L 641.122875 378.555261 
L 649 379.247572 
L 649 379.247572 
" style="fill:none;stroke:#4c72b0;stroke-dasharray:1.5,1.5;stroke-dashoffset:0;stroke-width:1.5;"/>
   </g>
   <g id="line2d_29">
    <path clip-path="url(#p3aa0ba2e05)" d="M 86.407875 112.160841 
L 114.143625 110.670967 
L 128.0115 118.154037 
L 141.879375 106.282228 
L 155.74725 114.169137 
L 169.615125 117.905079 
L 183.483 141.997682 
L 197.350875 150.315032 
L 211.21875 177.125876 
L 225.086625 196.896425 
L 238.9545 212.188605 
L 252.822375 242.132787 
L 266.69025 251.729631 
L 280.558125 265.389102 
L 294.426 276.852052 
L 308.293875 283.563869 
L 322.16175 296.020714 
L 336.029625 294.010195 
L 349.8975 306.7241 
L 363.765375 308.534564 
L 377.63325 293.919919 
L 391.501125 303.46069 
L 405.369 328.78754 
L 419.236875 320.572081 
L 433.10475 338.418873 
L 446.972625 329.453458 
L 460.8405 328.794782 
L 474.708375 321.078601 
L 488.57625 336.402761 
L 502.444125 347.429175 
L 516.312 329.536779 
L 530.179875 318.342505 
L 544.04775 357.607397 
L 557.915625 357.279565 
L 571.7835 323.229446 
L 585.651375 343.666128 
L 599.51925 322.781939 
L 613.387125 364.912282 
L 627.255 352.54894 
L 641.122875 372.635992 
L 649 363.614115 
L 649 363.614115 
" style="fill:none;stroke:#dd8452;stroke-dasharray:1.5,1.5;stroke-dashoffset:0;stroke-width:1.5;"/>
   </g>
   <g id="line2d_30">
    <path clip-path="url(#p3aa0ba2e05)" d="M 86.407875 59.142473 
L 100.27575 117.111885 
L 114.143625 117.331874 
L 128.0115 117.848863 
L 141.879375 117.827925 
L 155.74725 119.131367 
L 169.615125 118.404142 
L 183.483 116.308939 
L 197.350875 118.938913 
L 211.21875 120.256983 
L 225.086625 132.939338 
L 238.9545 148.024292 
L 252.822375 154.211305 
L 266.69025 173.332571 
L 280.558125 187.625765 
L 294.426 201.958253 
L 308.293875 220.843539 
L 322.16175 230.725551 
L 336.029625 246.450037 
L 349.8975 253.784248 
L 363.765375 259.004184 
L 377.63325 263.388477 
L 391.501125 275.467727 
L 405.369 280.28031 
L 419.236875 283.308745 
L 433.10475 292.808429 
L 446.972625 295.660113 
L 460.8405 300.527622 
L 474.708375 308.54324 
L 488.57625 299.620633 
L 502.444125 314.238289 
L 516.312 312.761609 
L 530.179875 315.903265 
L 544.04775 323.988508 
L 557.915625 331.030955 
L 571.7835 332.294028 
L 585.651375 332.239246 
L 599.51925 335.074724 
L 613.387125 344.73438 
L 627.255 342.456762 
L 641.122875 350.254256 
L 649 353.014907 
" style="fill:none;stroke:#55a868;stroke-dasharray:7.5,7.5;stroke-dashoffset:0;stroke-width:1.5;"/>
   </g>
   <g id="line2d_31">
    <path clip-path="url(#p3aa0ba2e05)" d="M 86.407875 112.222076 
L 100.27575 107.074848 
L 114.143625 113.665772 
L 128.0115 112.402915 
L 141.879375 108.058776 
L 155.74725 118.223877 
L 169.615125 106.042449 
L 183.483 112.851354 
L 197.350875 113.260212 
L 211.21875 117.673761 
L 225.086625 135.571606 
L 238.9545 124.741089 
L 252.822375 140.459622 
L 266.69025 176.901657 
L 280.558125 180.029474 
L 294.426 153.243798 
L 308.293875 221.46787 
L 322.16175 241.135953 
L 336.029625 232.716209 
L 349.8975 202.070399 
L 363.765375 172.558665 
L 377.63325 264.010011 
L 391.501125 277.147546 
L 405.369 188.546951 
L 419.236875 275.815923 
L 433.10475 282.441265 
L 446.972625 295.159544 
L 460.8405 288.433458 
L 474.708375 287.811709 
L 488.57625 309.846754 
L 502.444125 307.976345 
L 516.312 273.385503 
L 530.179875 295.8388 
L 544.04775 292.793945 
L 557.915625 320.354315 
L 571.7835 303.990226 
L 585.651375 290.271384 
L 599.51925 309.475684 
L 613.387125 299.3113 
L 627.255 318.383233 
L 641.122875 340.937059 
L 649 348.197734 
" style="fill:none;stroke:#c44e52;stroke-dasharray:7.5,7.5;stroke-dashoffset:0;stroke-width:1.5;"/>
   </g>
   <g id="patch_3">
    <path d="M 72.54 373.86 
L 72.54 12.96 
" style="fill:none;stroke:#ffffff;stroke-linecap:square;stroke-linejoin:miter;stroke-width:1.25;"/>
   </g>
   <g id="patch_4">
    <path d="M 627.255 373.86 
L 627.255 12.96 
" style="fill:none;stroke:#ffffff;stroke-linecap:square;stroke-linejoin:miter;stroke-width:1.25;"/>
   </g>
   <g id="patch_5">
    <path d="M 72.54 373.86 
L 627.255 373.86 
" style="fill:none;stroke:#ffffff;stroke-linecap:square;stroke-linejoin:miter;stroke-width:1.25;"/>
   </g>
   <g id="patch_6">
    <path d="M 72.54 12.96 
L 627.255 12.96 
" style="fill:none;stroke:#ffffff;stroke-linecap:square;stroke-linejoin:miter;stroke-width:1.25;"/>
   </g>
   <g id="legend_1">
    <g id="patch_7">
     <path d="M 517.01625 205.590938 
L 614.655 205.590938 
Q 618.255 205.590938 618.255 201.990938 
L 618.255 25.56 
Q 618.255 21.96 614.655 21.96 
L 517.01625 21.96 
Q 513.41625 21.96 513.41625 25.56 
L 513.41625 201.990938 
Q 513.41625 205.590938 517.01625 205.590938 
z
" style="fill:#eaeaf2;opacity:0.8;stroke:#cccccc;stroke-linejoin:miter;"/>
    </g>
    <g id="line2d_32">
     <path d="M 520.61625 35.744063 
L 556.61625 35.744063 
" style="fill:none;stroke:#4c72b0;stroke-dasharray:9,3;stroke-dashoffset:0;stroke-width:1.5;"/>
    </g>
    <g id="line2d_33"/>
    <g id="text_20">
     <!-- 32 -->
     <g style="fill:#262626;" transform="translate(571.01625 42.044063)scale(0.18 -0.18)">
      <use xlink:href="#ArialMT-33"/>
      <use x="55.615234" xlink:href="#ArialMT-32"/>
     </g>
    </g>
    <g id="line2d_34">
     <path d="M 520.61625 61.205625 
L 556.61625 61.205625 
" style="fill:none;stroke:#55a868;stroke-dasharray:3,1.5;stroke-dashoffset:0;stroke-width:1.5;"/>
    </g>
    <g id="line2d_35"/>
    <g id="text_21">
     <!-- 64 -->
     <g style="fill:#262626;" transform="translate(571.01625 67.505625)scale(0.18 -0.18)">
      <use xlink:href="#ArialMT-36"/>
      <use x="55.615234" xlink:href="#ArialMT-34"/>
     </g>
    </g>
    <g id="line2d_36">
     <path d="M 520.61625 86.667188 
L 556.61625 86.667188 
" style="fill:none;stroke:#8172b3;stroke-dasharray:12,7.5;stroke-dashoffset:0;stroke-width:1.5;"/>
    </g>
    <g id="line2d_37"/>
    <g id="text_22">
     <!-- 128 -->
     <g style="fill:#262626;" transform="translate(571.01625 92.967188)scale(0.18 -0.18)">
      <use xlink:href="#ArialMT-31"/>
      <use x="55.615234" xlink:href="#ArialMT-32"/>
      <use x="111.230469" xlink:href="#ArialMT-38"/>
     </g>
    </g>
    <g id="line2d_38">
     <path d="M 520.61625 112.12875 
L 556.61625 112.12875 
" style="fill:none;stroke:#da8bc3;stroke-dasharray:1.5,0;stroke-dashoffset:0;stroke-width:1.5;"/>
    </g>
    <g id="line2d_39"/>
    <g id="text_23">
     <!-- 256 -->
     <g style="fill:#262626;" transform="translate(571.01625 118.42875)scale(0.18 -0.18)">
      <use xlink:href="#ArialMT-32"/>
      <use x="55.615234" xlink:href="#ArialMT-35"/>
      <use x="111.230469" xlink:href="#ArialMT-36"/>
     </g>
    </g>
    <g id="line2d_40">
     <path d="M 520.61625 137.590313 
L 556.61625 137.590313 
" style="fill:none;stroke:#ccb974;stroke-dasharray:4.5,4.5;stroke-dashoffset:0;stroke-width:1.5;"/>
    </g>
    <g id="line2d_41"/>
    <g id="text_24">
     <!-- 512 -->
     <g style="fill:#262626;" transform="translate(571.01625 143.890313)scale(0.18 -0.18)">
      <use xlink:href="#ArialMT-35"/>
      <use x="55.615234" xlink:href="#ArialMT-31"/>
      <use x="111.230469" xlink:href="#ArialMT-32"/>
     </g>
    </g>
    <g id="line2d_42">
     <path d="M 520.61625 163.051875 
L 556.61625 163.051875 
" style="fill:none;stroke:#4c72b0;stroke-dasharray:1.5,1.5;stroke-dashoffset:0;stroke-width:1.5;"/>
    </g>
    <g id="line2d_43"/>
    <g id="text_25">
     <!-- 1024 -->
     <g style="fill:#262626;" transform="translate(571.01625 169.351875)scale(0.18 -0.18)">
      <use xlink:href="#ArialMT-31"/>
      <use x="55.615234" xlink:href="#ArialMT-30"/>
      <use x="111.230469" xlink:href="#ArialMT-32"/>
      <use x="166.845703" xlink:href="#ArialMT-34"/>
     </g>
    </g>
    <g id="line2d_44">
     <path d="M 520.61625 188.513438 
L 556.61625 188.513438 
" style="fill:none;stroke:#55a868;stroke-dasharray:7.5,7.5;stroke-dashoffset:0;stroke-width:1.5;"/>
    </g>
    <g id="line2d_45"/>
    <g id="text_26">
     <!-- 2048 -->
     <g style="fill:#262626;" transform="translate(571.01625 194.813438)scale(0.18 -0.18)">
      <use xlink:href="#ArialMT-32"/>
      <use x="55.615234" xlink:href="#ArialMT-30"/>
      <use x="111.230469" xlink:href="#ArialMT-34"/>
      <use x="166.845703" xlink:href="#ArialMT-38"/>
     </g>
    </g>
   </g>
  </g>
 </g>
 <defs>
  <clipPath id="p3aa0ba2e05">
   <rect height="360.9" width="554.715" x="72.54" y="12.96"/>
  </clipPath>
 </defs>
</svg>
