<?xml version="1.0" encoding="utf-8" standalone="no"?>
<!DOCTYPE svg PUBLIC "-//W3C//DTD SVG 1.1//EN"
  "http://www.w3.org/Graphics/SVG/1.1/DTD/svg11.dtd">
<svg height="576pt" version="1.1" viewBox="0 0 864 576" width="864pt" xmlns="http://www.w3.org/2000/svg" xmlns:xlink="http://www.w3.org/1999/xlink">
 <metadata>
  <rdf:RDF xmlns:cc="http://creativecommons.org/ns#" xmlns:dc="http://purl.org/dc/elements/1.1/" xmlns:rdf="http://www.w3.org/1999/02/22-rdf-syntax-ns#">
   <cc:Work>
    <dc:type rdf:resource="http://purl.org/dc/dcmitype/StillImage"/>
    <dc:date>2021-10-08T01:08:52.272124</dc:date>
    <dc:format>image/svg+xml</dc:format>
    <dc:creator>
     <cc:Agent>
      <dc:title>Matplotlib v3.4.2, https://matplotlib.org/</dc:title>
     </cc:Agent>
    </dc:creator>
   </cc:Work>
  </rdf:RDF>
 </metadata>
 <defs>
  <style type="text/css">*{stroke-linecap:butt;stroke-linejoin:round;}</style>
 </defs>
 <g id="figure_1">
  <g id="patch_1">
   <path d="M 0 576 
L 864 576 
L 864 0 
L 0 0 
z
" style="fill:none;"/>
  </g>
  <g id="axes_1">
   <g id="patch_2">
    <path d="M 74.475 255.35 
L 297.933333 255.35 
L 297.933333 21.6 
L 74.475 21.6 
z
" style="fill:#eaeaf2;"/>
   </g>
   <g id="matplotlib.axis_1">
    <g id="xtick_1">
     <g id="line2d_1">
      <path clip-path="url(#p79a440c1c1)" d="M 84.496677 255.35 
L 84.496677 21.6 
" style="fill:none;stroke:#ffffff;stroke-linecap:round;"/>
     </g>
     <g id="text_1">
      <!-- 0.0 -->
      <g style="fill:#262626;" transform="translate(76.851677 272.723594)scale(0.11 -0.11)">
       <defs>
        <path d="M 266 2259 
Q 266 3072 433 3567 
Q 600 4063 929 4331 
Q 1259 4600 1759 4600 
Q 2128 4600 2406 4451 
Q 2684 4303 2865 4023 
Q 3047 3744 3150 3342 
Q 3253 2941 3253 2259 
Q 3253 1453 3087 958 
Q 2922 463 2592 192 
Q 2263 -78 1759 -78 
Q 1097 -78 719 397 
Q 266 969 266 2259 
z
M 844 2259 
Q 844 1131 1108 757 
Q 1372 384 1759 384 
Q 2147 384 2411 759 
Q 2675 1134 2675 2259 
Q 2675 3391 2411 3762 
Q 2147 4134 1753 4134 
Q 1366 4134 1134 3806 
Q 844 3388 844 2259 
z
" id="ArialMT-30" transform="scale(0.015625)"/>
        <path d="M 581 0 
L 581 641 
L 1222 641 
L 1222 0 
L 581 0 
z
" id="ArialMT-2e" transform="scale(0.015625)"/>
       </defs>
       <use xlink:href="#ArialMT-30"/>
       <use x="55.615234" xlink:href="#ArialMT-2e"/>
       <use x="83.398438" xlink:href="#ArialMT-30"/>
      </g>
     </g>
    </g>
    <g id="xtick_2">
     <g id="line2d_2">
      <path clip-path="url(#p79a440c1c1)" d="M 152.256497 255.35 
L 152.256497 21.6 
" style="fill:none;stroke:#ffffff;stroke-linecap:round;"/>
     </g>
     <g id="text_2">
      <!-- 0.5 -->
      <g style="fill:#262626;" transform="translate(144.611497 272.723594)scale(0.11 -0.11)">
       <defs>
        <path d="M 266 1200 
L 856 1250 
Q 922 819 1161 601 
Q 1400 384 1738 384 
Q 2144 384 2425 690 
Q 2706 997 2706 1503 
Q 2706 1984 2436 2262 
Q 2166 2541 1728 2541 
Q 1456 2541 1237 2417 
Q 1019 2294 894 2097 
L 366 2166 
L 809 4519 
L 3088 4519 
L 3088 3981 
L 1259 3981 
L 1013 2750 
Q 1425 3038 1878 3038 
Q 2478 3038 2890 2622 
Q 3303 2206 3303 1553 
Q 3303 931 2941 478 
Q 2500 -78 1738 -78 
Q 1113 -78 717 272 
Q 322 622 266 1200 
z
" id="ArialMT-35" transform="scale(0.015625)"/>
       </defs>
       <use xlink:href="#ArialMT-30"/>
       <use x="55.615234" xlink:href="#ArialMT-2e"/>
       <use x="83.398438" xlink:href="#ArialMT-35"/>
      </g>
     </g>
    </g>
    <g id="xtick_3">
     <g id="line2d_3">
      <path clip-path="url(#p79a440c1c1)" d="M 220.016317 255.35 
L 220.016317 21.6 
" style="fill:none;stroke:#ffffff;stroke-linecap:round;"/>
     </g>
     <g id="text_3">
      <!-- 1.0 -->
      <g style="fill:#262626;" transform="translate(212.371317 272.723594)scale(0.11 -0.11)">
       <defs>
        <path d="M 2384 0 
L 1822 0 
L 1822 3584 
Q 1619 3391 1289 3197 
Q 959 3003 697 2906 
L 697 3450 
Q 1169 3672 1522 3987 
Q 1875 4303 2022 4600 
L 2384 4600 
L 2384 0 
z
" id="ArialMT-31" transform="scale(0.015625)"/>
       </defs>
       <use xlink:href="#ArialMT-31"/>
       <use x="55.615234" xlink:href="#ArialMT-2e"/>
       <use x="83.398438" xlink:href="#ArialMT-30"/>
      </g>
     </g>
    </g>
    <g id="xtick_4">
     <g id="line2d_4">
      <path clip-path="url(#p79a440c1c1)" d="M 287.776136 255.35 
L 287.776136 21.6 
" style="fill:none;stroke:#ffffff;stroke-linecap:round;"/>
     </g>
     <g id="text_4">
      <!-- 1.5 -->
      <g style="fill:#262626;" transform="translate(280.131136 272.723594)scale(0.11 -0.11)">
       <use xlink:href="#ArialMT-31"/>
       <use x="55.615234" xlink:href="#ArialMT-2e"/>
       <use x="83.398438" xlink:href="#ArialMT-35"/>
      </g>
     </g>
    </g>
   </g>
   <g id="matplotlib.axis_2">
    <g id="ytick_1">
     <g id="line2d_5">
      <path clip-path="url(#p79a440c1c1)" d="M 74.475 243.446084 
L 297.933333 243.446084 
" style="fill:none;stroke:#ffffff;stroke-linecap:round;"/>
     </g>
     <g id="text_5">
      <!-- −1.5 -->
      <g style="fill:#262626;" transform="translate(43.260313 247.382881)scale(0.11 -0.11)">
       <defs>
        <path d="M 3381 1997 
L 356 1997 
L 356 2522 
L 3381 2522 
L 3381 1997 
z
" id="ArialMT-2212" transform="scale(0.015625)"/>
       </defs>
       <use xlink:href="#ArialMT-2212"/>
       <use x="58.398438" xlink:href="#ArialMT-31"/>
       <use x="114.013672" xlink:href="#ArialMT-2e"/>
       <use x="141.796875" xlink:href="#ArialMT-35"/>
      </g>
     </g>
    </g>
    <g id="ytick_2">
     <g id="line2d_6">
      <path clip-path="url(#p79a440c1c1)" d="M 74.475 215.179643 
L 297.933333 215.179643 
" style="fill:none;stroke:#ffffff;stroke-linecap:round;"/>
     </g>
     <g id="text_6">
      <!-- −1.0 -->
      <g style="fill:#262626;" transform="translate(43.260313 219.11644)scale(0.11 -0.11)">
       <use xlink:href="#ArialMT-2212"/>
       <use x="58.398438" xlink:href="#ArialMT-31"/>
       <use x="114.013672" xlink:href="#ArialMT-2e"/>
       <use x="141.796875" xlink:href="#ArialMT-30"/>
      </g>
     </g>
    </g>
    <g id="ytick_3">
     <g id="line2d_7">
      <path clip-path="url(#p79a440c1c1)" d="M 74.475 186.913203 
L 297.933333 186.913203 
" style="fill:none;stroke:#ffffff;stroke-linecap:round;"/>
     </g>
     <g id="text_7">
      <!-- −0.5 -->
      <g style="fill:#262626;" transform="translate(43.260313 190.849999)scale(0.11 -0.11)">
       <use xlink:href="#ArialMT-2212"/>
       <use x="58.398438" xlink:href="#ArialMT-30"/>
       <use x="114.013672" xlink:href="#ArialMT-2e"/>
       <use x="141.796875" xlink:href="#ArialMT-35"/>
      </g>
     </g>
    </g>
    <g id="ytick_4">
     <g id="line2d_8">
      <path clip-path="url(#p79a440c1c1)" d="M 74.475 158.646762 
L 297.933333 158.646762 
" style="fill:none;stroke:#ffffff;stroke-linecap:round;"/>
     </g>
     <g id="text_8">
      <!-- 0.0 -->
      <g style="fill:#262626;" transform="translate(49.685 162.583559)scale(0.11 -0.11)">
       <use xlink:href="#ArialMT-30"/>
       <use x="55.615234" xlink:href="#ArialMT-2e"/>
       <use x="83.398438" xlink:href="#ArialMT-30"/>
      </g>
     </g>
    </g>
    <g id="ytick_5">
     <g id="line2d_9">
      <path clip-path="url(#p79a440c1c1)" d="M 74.475 130.380321 
L 297.933333 130.380321 
" style="fill:none;stroke:#ffffff;stroke-linecap:round;"/>
     </g>
     <g id="text_9">
      <!-- 0.5 -->
      <g style="fill:#262626;" transform="translate(49.685 134.317118)scale(0.11 -0.11)">
       <use xlink:href="#ArialMT-30"/>
       <use x="55.615234" xlink:href="#ArialMT-2e"/>
       <use x="83.398438" xlink:href="#ArialMT-35"/>
      </g>
     </g>
    </g>
    <g id="ytick_6">
     <g id="line2d_10">
      <path clip-path="url(#p79a440c1c1)" d="M 74.475 102.11388 
L 297.933333 102.11388 
" style="fill:none;stroke:#ffffff;stroke-linecap:round;"/>
     </g>
     <g id="text_10">
      <!-- 1.0 -->
      <g style="fill:#262626;" transform="translate(49.685 106.050677)scale(0.11 -0.11)">
       <use xlink:href="#ArialMT-31"/>
       <use x="55.615234" xlink:href="#ArialMT-2e"/>
       <use x="83.398438" xlink:href="#ArialMT-30"/>
      </g>
     </g>
    </g>
    <g id="ytick_7">
     <g id="line2d_11">
      <path clip-path="url(#p79a440c1c1)" d="M 74.475 73.847439 
L 297.933333 73.847439 
" style="fill:none;stroke:#ffffff;stroke-linecap:round;"/>
     </g>
     <g id="text_11">
      <!-- 1.5 -->
      <g style="fill:#262626;" transform="translate(49.685 77.784236)scale(0.11 -0.11)">
       <use xlink:href="#ArialMT-31"/>
       <use x="55.615234" xlink:href="#ArialMT-2e"/>
       <use x="83.398438" xlink:href="#ArialMT-35"/>
      </g>
     </g>
    </g>
    <g id="ytick_8">
     <g id="line2d_12">
      <path clip-path="url(#p79a440c1c1)" d="M 74.475 45.580999 
L 297.933333 45.580999 
" style="fill:none;stroke:#ffffff;stroke-linecap:round;"/>
     </g>
     <g id="text_12">
      <!-- 2.0 -->
      <g style="fill:#262626;" transform="translate(49.685 49.517795)scale(0.11 -0.11)">
       <defs>
        <path d="M 3222 541 
L 3222 0 
L 194 0 
Q 188 203 259 391 
Q 375 700 629 1000 
Q 884 1300 1366 1694 
Q 2113 2306 2375 2664 
Q 2638 3022 2638 3341 
Q 2638 3675 2398 3904 
Q 2159 4134 1775 4134 
Q 1369 4134 1125 3890 
Q 881 3647 878 3216 
L 300 3275 
Q 359 3922 746 4261 
Q 1134 4600 1788 4600 
Q 2447 4600 2831 4234 
Q 3216 3869 3216 3328 
Q 3216 3053 3103 2787 
Q 2991 2522 2730 2228 
Q 2469 1934 1863 1422 
Q 1356 997 1212 845 
Q 1069 694 975 541 
L 3222 541 
z
" id="ArialMT-32" transform="scale(0.015625)"/>
       </defs>
       <use xlink:href="#ArialMT-32"/>
       <use x="55.615234" xlink:href="#ArialMT-2e"/>
       <use x="83.398438" xlink:href="#ArialMT-30"/>
      </g>
     </g>
    </g>
    <g id="text_13">
     <!-- Contribution to $x_t$ -->
     <g style="fill:#262626;" transform="translate(35.285313 215.275)rotate(-90)scale(0.2 -0.2)">
      <defs>
       <path d="M 3763 1606 
L 4369 1453 
Q 4178 706 3683 314 
Q 3188 -78 2472 -78 
Q 1731 -78 1267 223 
Q 803 525 561 1097 
Q 319 1669 319 2325 
Q 319 3041 592 3573 
Q 866 4106 1370 4382 
Q 1875 4659 2481 4659 
Q 3169 4659 3637 4309 
Q 4106 3959 4291 3325 
L 3694 3184 
Q 3534 3684 3231 3912 
Q 2928 4141 2469 4141 
Q 1941 4141 1586 3887 
Q 1231 3634 1087 3207 
Q 944 2781 944 2328 
Q 944 1744 1114 1308 
Q 1284 872 1643 656 
Q 2003 441 2422 441 
Q 2931 441 3284 734 
Q 3638 1028 3763 1606 
z
" id="ArialMT-43" transform="scale(0.015625)"/>
       <path d="M 213 1659 
Q 213 2581 725 3025 
Q 1153 3394 1769 3394 
Q 2453 3394 2887 2945 
Q 3322 2497 3322 1706 
Q 3322 1066 3130 698 
Q 2938 331 2570 128 
Q 2203 -75 1769 -75 
Q 1072 -75 642 372 
Q 213 819 213 1659 
z
M 791 1659 
Q 791 1022 1069 705 
Q 1347 388 1769 388 
Q 2188 388 2466 706 
Q 2744 1025 2744 1678 
Q 2744 2294 2464 2611 
Q 2184 2928 1769 2928 
Q 1347 2928 1069 2612 
Q 791 2297 791 1659 
z
" id="ArialMT-6f" transform="scale(0.015625)"/>
       <path d="M 422 0 
L 422 3319 
L 928 3319 
L 928 2847 
Q 1294 3394 1984 3394 
Q 2284 3394 2536 3286 
Q 2788 3178 2913 3003 
Q 3038 2828 3088 2588 
Q 3119 2431 3119 2041 
L 3119 0 
L 2556 0 
L 2556 2019 
Q 2556 2363 2490 2533 
Q 2425 2703 2258 2804 
Q 2091 2906 1866 2906 
Q 1506 2906 1245 2678 
Q 984 2450 984 1813 
L 984 0 
L 422 0 
z
" id="ArialMT-6e" transform="scale(0.015625)"/>
       <path d="M 1650 503 
L 1731 6 
Q 1494 -44 1306 -44 
Q 1000 -44 831 53 
Q 663 150 594 308 
Q 525 466 525 972 
L 525 2881 
L 113 2881 
L 113 3319 
L 525 3319 
L 525 4141 
L 1084 4478 
L 1084 3319 
L 1650 3319 
L 1650 2881 
L 1084 2881 
L 1084 941 
Q 1084 700 1114 631 
Q 1144 563 1211 522 
Q 1278 481 1403 481 
Q 1497 481 1650 503 
z
" id="ArialMT-74" transform="scale(0.015625)"/>
       <path d="M 416 0 
L 416 3319 
L 922 3319 
L 922 2816 
Q 1116 3169 1280 3281 
Q 1444 3394 1641 3394 
Q 1925 3394 2219 3213 
L 2025 2691 
Q 1819 2813 1613 2813 
Q 1428 2813 1281 2702 
Q 1134 2591 1072 2394 
Q 978 2094 978 1738 
L 978 0 
L 416 0 
z
" id="ArialMT-72" transform="scale(0.015625)"/>
       <path d="M 425 3934 
L 425 4581 
L 988 4581 
L 988 3934 
L 425 3934 
z
M 425 0 
L 425 3319 
L 988 3319 
L 988 0 
L 425 0 
z
" id="ArialMT-69" transform="scale(0.015625)"/>
       <path d="M 941 0 
L 419 0 
L 419 4581 
L 981 4581 
L 981 2947 
Q 1338 3394 1891 3394 
Q 2197 3394 2470 3270 
Q 2744 3147 2920 2923 
Q 3097 2700 3197 2384 
Q 3297 2069 3297 1709 
Q 3297 856 2875 390 
Q 2453 -75 1863 -75 
Q 1275 -75 941 416 
L 941 0 
z
M 934 1684 
Q 934 1088 1097 822 
Q 1363 388 1816 388 
Q 2184 388 2453 708 
Q 2722 1028 2722 1663 
Q 2722 2313 2464 2622 
Q 2206 2931 1841 2931 
Q 1472 2931 1203 2611 
Q 934 2291 934 1684 
z
" id="ArialMT-62" transform="scale(0.015625)"/>
       <path d="M 2597 0 
L 2597 488 
Q 2209 -75 1544 -75 
Q 1250 -75 995 37 
Q 741 150 617 320 
Q 494 491 444 738 
Q 409 903 409 1263 
L 409 3319 
L 972 3319 
L 972 1478 
Q 972 1038 1006 884 
Q 1059 663 1231 536 
Q 1403 409 1656 409 
Q 1909 409 2131 539 
Q 2353 669 2445 892 
Q 2538 1116 2538 1541 
L 2538 3319 
L 3100 3319 
L 3100 0 
L 2597 0 
z
" id="ArialMT-75" transform="scale(0.015625)"/>
       <path id="ArialMT-20" transform="scale(0.015625)"/>
       <path d="M 3841 3500 
L 2234 1784 
L 3219 0 
L 2559 0 
L 1819 1388 
L 531 0 
L -166 0 
L 1556 1844 
L 641 3500 
L 1300 3500 
L 1972 2234 
L 3144 3500 
L 3841 3500 
z
" id="DejaVuSans-Oblique-78" transform="scale(0.015625)"/>
       <path d="M 2706 3500 
L 2619 3053 
L 1472 3053 
L 1100 1153 
Q 1081 1047 1072 975 
Q 1063 903 1063 863 
Q 1063 663 1183 572 
Q 1303 481 1569 481 
L 2150 481 
L 2053 0 
L 1503 0 
Q 991 0 739 200 
Q 488 400 488 806 
Q 488 878 497 964 
Q 506 1050 525 1153 
L 897 3053 
L 409 3053 
L 500 3500 
L 978 3500 
L 1172 4494 
L 1747 4494 
L 1556 3500 
L 2706 3500 
z
" id="DejaVuSans-Oblique-74" transform="scale(0.015625)"/>
      </defs>
      <use transform="translate(0 0.203125)" xlink:href="#ArialMT-43"/>
      <use transform="translate(72.216797 0.203125)" xlink:href="#ArialMT-6f"/>
      <use transform="translate(127.832031 0.203125)" xlink:href="#ArialMT-6e"/>
      <use transform="translate(183.447266 0.203125)" xlink:href="#ArialMT-74"/>
      <use transform="translate(211.230469 0.203125)" xlink:href="#ArialMT-72"/>
      <use transform="translate(244.53125 0.203125)" xlink:href="#ArialMT-69"/>
      <use transform="translate(266.748047 0.203125)" xlink:href="#ArialMT-62"/>
      <use transform="translate(322.363281 0.203125)" xlink:href="#ArialMT-75"/>
      <use transform="translate(377.978516 0.203125)" xlink:href="#ArialMT-74"/>
      <use transform="translate(405.761719 0.203125)" xlink:href="#ArialMT-69"/>
      <use transform="translate(427.978516 0.203125)" xlink:href="#ArialMT-6f"/>
      <use transform="translate(483.59375 0.203125)" xlink:href="#ArialMT-6e"/>
      <use transform="translate(539.208984 0.203125)" xlink:href="#ArialMT-20"/>
      <use transform="translate(566.992188 0.203125)" xlink:href="#ArialMT-74"/>
      <use transform="translate(594.775391 0.203125)" xlink:href="#ArialMT-6f"/>
      <use transform="translate(650.390625 0.203125)" xlink:href="#ArialMT-20"/>
      <use transform="translate(678.173828 0.203125)" xlink:href="#DejaVuSans-Oblique-78"/>
      <use transform="translate(737.353516 -16.203125)scale(0.7)" xlink:href="#DejaVuSans-Oblique-74"/>
     </g>
    </g>
   </g>
   <g id="line2d_13">
    <path clip-path="url(#p79a440c1c1)" d="M 84.632197 158.646762 
L 88.777992 158.646762 
L 92.923786 158.646762 
L 97.069581 158.646762 
L 101.215376 158.646762 
L 105.36117 158.646722 
L 109.506965 158.621353 
L 113.65276 157.473867 
L 117.798554 143.700791 
L 121.944349 103.198183 
L 126.090144 71.492485 
L 130.235938 38.10579 
L 134.381733 36.867271 
L 138.527528 33.735546 
L 142.673323 32.225 
L 146.819117 39.372974 
L 150.964912 38.219563 
L 155.110707 45.145599 
L 159.256501 38.588959 
L 163.402296 44.976512 
L 167.548091 47.061457 
L 171.693885 50.925314 
L 175.83968 50.818382 
L 179.985475 55.232591 
L 184.131269 52.169488 
L 188.277064 53.622146 
L 192.422859 52.378959 
L 196.568653 52.745317 
L 200.714448 54.986561 
L 204.860243 55.495645 
L 209.006037 55.875277 
L 213.151832 55.554411 
L 217.297627 58.458864 
L 221.443421 56.690493 
L 225.589216 58.97018 
L 229.735011 55.336535 
L 233.880806 58.951781 
L 238.0266 57.064545 
L 242.172395 60.709226 
L 246.31819 58.43929 
L 250.463984 58.638971 
L 254.609779 61.228519 
L 258.755574 59.258503 
L 262.901368 58.623261 
L 267.047163 59.076696 
L 271.192958 60.661652 
L 275.338752 59.038017 
L 279.484547 59.127873 
L 283.630342 59.436967 
L 287.776136 60.115971 
" style="fill:none;stroke:#4c72b0;stroke-dasharray:9,3;stroke-dashoffset:0;stroke-width:1.5;"/>
   </g>
   <g id="line2d_14">
    <path clip-path="url(#p79a440c1c1)" d="M 84.632197 158.646762 
L 88.777992 158.646762 
L 92.923786 158.646762 
L 97.069581 158.646762 
L 101.215376 158.646762 
L 105.36117 158.646794 
L 109.506965 158.66616 
L 113.65276 159.57837 
L 117.798554 168.930098 
L 121.944349 199.185588 
L 126.090144 225.919901 
L 130.235938 237.347139 
L 134.381733 241.921866 
L 138.527528 241.887726 
L 142.673323 242.418422 
L 146.819117 244.725 
L 150.964912 236.329841 
L 155.110707 238.118447 
L 159.256501 233.391387 
L 163.402296 235.237124 
L 167.548091 233.738109 
L 171.693885 234.984734 
L 175.83968 230.508172 
L 179.985475 230.551679 
L 184.131269 226.458316 
L 188.277064 225.305594 
L 192.422859 226.127344 
L 196.568653 224.133355 
L 200.714448 227.475103 
L 204.860243 224.136476 
L 209.006037 223.505355 
L 213.151832 225.028361 
L 217.297627 224.602285 
L 221.443421 225.119742 
L 225.589216 221.384048 
L 229.735011 220.585849 
L 233.880806 220.006902 
L 238.0266 222.887757 
L 242.172395 218.061747 
L 246.31819 222.473312 
L 250.463984 221.709016 
L 254.609779 224.067232 
L 258.755574 221.89745 
L 262.901368 221.276848 
L 267.047163 220.691157 
L 271.192958 222.812561 
L 275.338752 219.636573 
L 279.484547 221.380798 
L 283.630342 222.779912 
L 287.776136 219.174329 
" style="fill:none;stroke:#dd8452;stroke-dasharray:12,7.5;stroke-dashoffset:0;stroke-width:1.5;"/>
   </g>
   <g id="line2d_15">
    <path clip-path="url(#p79a440c1c1)" d="M 84.632197 158.646762 
L 88.777992 158.646762 
L 92.923786 158.646762 
L 97.069581 158.646762 
L 101.215376 158.646762 
L 105.36117 158.646728 
L 109.506965 158.624594 
L 113.65276 157.70577 
L 117.798554 146.627242 
L 121.944349 113.791037 
L 126.090144 80.938867 
L 130.235938 60.606589 
L 134.381733 50.219843 
L 138.527528 48.332113 
L 142.673323 50.159945 
L 146.819117 50.506008 
L 150.964912 51.847854 
L 155.110707 51.620671 
L 159.256501 53.467221 
L 163.402296 53.68317 
L 167.548091 54.196267 
L 171.693885 54.325349 
L 175.83968 56.326419 
L 179.985475 56.844203 
L 184.131269 57.355272 
L 188.277064 59.90587 
L 192.422859 58.318304 
L 196.568653 59.705026 
L 200.714448 59.277163 
L 204.860243 59.954822 
L 209.006037 61.831548 
L 213.151832 59.096711 
L 217.297627 58.252936 
L 221.443421 60.52551 
L 225.589216 61.166018 
L 229.735011 57.375748 
L 233.880806 60.742639 
L 238.0266 59.727407 
L 242.172395 60.622594 
L 246.31819 61.854506 
L 250.463984 62.052808 
L 254.609779 58.757991 
L 258.755574 61.681182 
L 262.901368 60.911062 
L 267.047163 62.084922 
L 271.192958 58.472334 
L 275.338752 59.534832 
L 279.484547 61.01783 
L 283.630342 62.777357 
L 287.776136 61.475966 
" style="fill:none;stroke:#55a868;stroke-dasharray:1.5,0;stroke-dashoffset:0;stroke-width:1.5;"/>
   </g>
   <g id="patch_3">
    <path d="M 74.475 255.35 
L 74.475 21.6 
" style="fill:none;stroke:#ffffff;stroke-linecap:square;stroke-linejoin:miter;stroke-width:1.25;"/>
   </g>
   <g id="patch_4">
    <path d="M 297.933333 255.35 
L 297.933333 21.6 
" style="fill:none;stroke:#ffffff;stroke-linecap:square;stroke-linejoin:miter;stroke-width:1.25;"/>
   </g>
   <g id="patch_5">
    <path d="M 74.475 255.35 
L 297.933333 255.35 
" style="fill:none;stroke:#ffffff;stroke-linecap:square;stroke-linejoin:miter;stroke-width:1.25;"/>
   </g>
   <g id="patch_6">
    <path d="M 74.475 21.6 
L 297.933333 21.6 
" style="fill:none;stroke:#ffffff;stroke-linecap:square;stroke-linejoin:miter;stroke-width:1.25;"/>
   </g>
  </g>
  <g id="axes_2">
   <g id="patch_7">
    <path d="M 352.108333 255.35 
L 575.566667 255.35 
L 575.566667 21.6 
L 352.108333 21.6 
z
" style="fill:#eaeaf2;"/>
   </g>
   <g id="matplotlib.axis_3">
    <g id="xtick_5">
     <g id="line2d_16">
      <path clip-path="url(#pf00a926818)" d="M 362.130011 255.35 
L 362.130011 21.6 
" style="fill:none;stroke:#ffffff;stroke-linecap:round;"/>
     </g>
     <g id="text_14">
      <!-- 0.0 -->
      <g style="fill:#262626;" transform="translate(354.485011 272.723594)scale(0.11 -0.11)">
       <use xlink:href="#ArialMT-30"/>
       <use x="55.615234" xlink:href="#ArialMT-2e"/>
       <use x="83.398438" xlink:href="#ArialMT-30"/>
      </g>
     </g>
    </g>
    <g id="xtick_6">
     <g id="line2d_17">
      <path clip-path="url(#pf00a926818)" d="M 429.88983 255.35 
L 429.88983 21.6 
" style="fill:none;stroke:#ffffff;stroke-linecap:round;"/>
     </g>
     <g id="text_15">
      <!-- 0.5 -->
      <g style="fill:#262626;" transform="translate(422.24483 272.723594)scale(0.11 -0.11)">
       <use xlink:href="#ArialMT-30"/>
       <use x="55.615234" xlink:href="#ArialMT-2e"/>
       <use x="83.398438" xlink:href="#ArialMT-35"/>
      </g>
     </g>
    </g>
    <g id="xtick_7">
     <g id="line2d_18">
      <path clip-path="url(#pf00a926818)" d="M 497.64965 255.35 
L 497.64965 21.6 
" style="fill:none;stroke:#ffffff;stroke-linecap:round;"/>
     </g>
     <g id="text_16">
      <!-- 1.0 -->
      <g style="fill:#262626;" transform="translate(490.00465 272.723594)scale(0.11 -0.11)">
       <use xlink:href="#ArialMT-31"/>
       <use x="55.615234" xlink:href="#ArialMT-2e"/>
       <use x="83.398438" xlink:href="#ArialMT-30"/>
      </g>
     </g>
    </g>
    <g id="xtick_8">
     <g id="line2d_19">
      <path clip-path="url(#pf00a926818)" d="M 565.40947 255.35 
L 565.40947 21.6 
" style="fill:none;stroke:#ffffff;stroke-linecap:round;"/>
     </g>
     <g id="text_17">
      <!-- 1.5 -->
      <g style="fill:#262626;" transform="translate(557.76447 272.723594)scale(0.11 -0.11)">
       <use xlink:href="#ArialMT-31"/>
       <use x="55.615234" xlink:href="#ArialMT-2e"/>
       <use x="83.398438" xlink:href="#ArialMT-35"/>
      </g>
     </g>
    </g>
   </g>
   <g id="matplotlib.axis_4">
    <g id="ytick_9">
     <g id="line2d_20">
      <path clip-path="url(#pf00a926818)" d="M 352.108333 226.233459 
L 575.566667 226.233459 
" style="fill:none;stroke:#ffffff;stroke-linecap:round;"/>
     </g>
     <g id="text_18">
      <!-- −0.6 -->
      <g style="fill:#262626;" transform="translate(320.893646 230.170256)scale(0.11 -0.11)">
       <defs>
        <path d="M 3184 3459 
L 2625 3416 
Q 2550 3747 2413 3897 
Q 2184 4138 1850 4138 
Q 1581 4138 1378 3988 
Q 1113 3794 959 3422 
Q 806 3050 800 2363 
Q 1003 2672 1297 2822 
Q 1591 2972 1913 2972 
Q 2475 2972 2870 2558 
Q 3266 2144 3266 1488 
Q 3266 1056 3080 686 
Q 2894 316 2569 119 
Q 2244 -78 1831 -78 
Q 1128 -78 684 439 
Q 241 956 241 2144 
Q 241 3472 731 4075 
Q 1159 4600 1884 4600 
Q 2425 4600 2770 4297 
Q 3116 3994 3184 3459 
z
M 888 1484 
Q 888 1194 1011 928 
Q 1134 663 1356 523 
Q 1578 384 1822 384 
Q 2178 384 2434 671 
Q 2691 959 2691 1453 
Q 2691 1928 2437 2201 
Q 2184 2475 1800 2475 
Q 1419 2475 1153 2201 
Q 888 1928 888 1484 
z
" id="ArialMT-36" transform="scale(0.015625)"/>
       </defs>
       <use xlink:href="#ArialMT-2212"/>
       <use x="58.398438" xlink:href="#ArialMT-30"/>
       <use x="114.013672" xlink:href="#ArialMT-2e"/>
       <use x="141.796875" xlink:href="#ArialMT-36"/>
      </g>
     </g>
    </g>
    <g id="ytick_10">
     <g id="line2d_21">
      <path clip-path="url(#pf00a926818)" d="M 352.108333 185.220262 
L 575.566667 185.220262 
" style="fill:none;stroke:#ffffff;stroke-linecap:round;"/>
     </g>
     <g id="text_19">
      <!-- −0.4 -->
      <g style="fill:#262626;" transform="translate(320.893646 189.157059)scale(0.11 -0.11)">
       <defs>
        <path d="M 2069 0 
L 2069 1097 
L 81 1097 
L 81 1613 
L 2172 4581 
L 2631 4581 
L 2631 1613 
L 3250 1613 
L 3250 1097 
L 2631 1097 
L 2631 0 
L 2069 0 
z
M 2069 1613 
L 2069 3678 
L 634 1613 
L 2069 1613 
z
" id="ArialMT-34" transform="scale(0.015625)"/>
       </defs>
       <use xlink:href="#ArialMT-2212"/>
       <use x="58.398438" xlink:href="#ArialMT-30"/>
       <use x="114.013672" xlink:href="#ArialMT-2e"/>
       <use x="141.796875" xlink:href="#ArialMT-34"/>
      </g>
     </g>
    </g>
    <g id="ytick_11">
     <g id="line2d_22">
      <path clip-path="url(#pf00a926818)" d="M 352.108333 144.207065 
L 575.566667 144.207065 
" style="fill:none;stroke:#ffffff;stroke-linecap:round;"/>
     </g>
     <g id="text_20">
      <!-- −0.2 -->
      <g style="fill:#262626;" transform="translate(320.893646 148.143862)scale(0.11 -0.11)">
       <use xlink:href="#ArialMT-2212"/>
       <use x="58.398438" xlink:href="#ArialMT-30"/>
       <use x="114.013672" xlink:href="#ArialMT-2e"/>
       <use x="141.796875" xlink:href="#ArialMT-32"/>
      </g>
     </g>
    </g>
    <g id="ytick_12">
     <g id="line2d_23">
      <path clip-path="url(#pf00a926818)" d="M 352.108333 103.193868 
L 575.566667 103.193868 
" style="fill:none;stroke:#ffffff;stroke-linecap:round;"/>
     </g>
     <g id="text_21">
      <!-- 0.0 -->
      <g style="fill:#262626;" transform="translate(327.318333 107.130665)scale(0.11 -0.11)">
       <use xlink:href="#ArialMT-30"/>
       <use x="55.615234" xlink:href="#ArialMT-2e"/>
       <use x="83.398438" xlink:href="#ArialMT-30"/>
      </g>
     </g>
    </g>
    <g id="ytick_13">
     <g id="line2d_24">
      <path clip-path="url(#pf00a926818)" d="M 352.108333 62.180671 
L 575.566667 62.180671 
" style="fill:none;stroke:#ffffff;stroke-linecap:round;"/>
     </g>
     <g id="text_22">
      <!-- 0.2 -->
      <g style="fill:#262626;" transform="translate(327.318333 66.117468)scale(0.11 -0.11)">
       <use xlink:href="#ArialMT-30"/>
       <use x="55.615234" xlink:href="#ArialMT-2e"/>
       <use x="83.398438" xlink:href="#ArialMT-32"/>
      </g>
     </g>
    </g>
   </g>
   <g id="line2d_25">
    <path clip-path="url(#pf00a926818)" d="M 362.26553 103.193868 
L 366.411325 103.193868 
L 370.55712 103.193868 
L 374.702914 103.193868 
L 378.848709 103.193868 
L 382.994504 103.193871 
L 387.140298 103.198877 
L 391.286093 103.199674 
L 395.431888 102.050395 
L 399.577682 101.563969 
L 403.723477 129.551228 
L 407.869272 118.455106 
L 412.015066 125.658218 
L 416.160861 124.802095 
L 420.306656 122.618837 
L 424.452451 159.924085 
L 428.598245 152.586474 
L 432.74404 184.835676 
L 436.889835 170.873905 
L 441.035629 201.604416 
L 445.181424 191.58966 
L 449.327219 204.30897 
L 453.473013 201.491037 
L 457.618808 213.962143 
L 461.764603 209.051675 
L 465.910397 214.327125 
L 470.056192 207.196811 
L 474.201987 218.792149 
L 478.347781 223.127183 
L 482.493576 223.892792 
L 486.639371 223.620839 
L 490.785165 228.930409 
L 494.93096 222.978448 
L 499.076755 228.510129 
L 503.222549 233.005532 
L 507.368344 225.52743 
L 511.514139 240.537262 
L 515.659934 234.062341 
L 519.805728 239.89863 
L 523.951523 239.76069 
L 528.097318 238.296583 
L 532.243112 242.24044 
L 536.388907 235.938641 
L 540.534702 244.13233 
L 544.680496 240.49144 
L 548.826291 244.725 
L 552.972086 241.027767 
L 557.11788 239.02581 
L 561.263675 239.935103 
L 565.40947 244.612097 
" style="fill:none;stroke:#4c72b0;stroke-dasharray:9,3;stroke-dashoffset:0;stroke-width:1.5;"/>
   </g>
   <g id="line2d_26">
    <path clip-path="url(#pf00a926818)" d="M 362.26553 103.193868 
L 366.411325 103.193868 
L 370.55712 103.193868 
L 374.702914 103.193868 
L 378.848709 103.193868 
L 382.994504 103.193913 
L 387.140298 103.219597 
L 391.286093 104.745779 
L 395.431888 117.567019 
L 399.577682 156.186434 
L 403.723477 186.692208 
L 407.869272 214.026522 
L 412.015066 223.309131 
L 416.160861 214.895085 
L 420.306656 194.369754 
L 424.452451 188.486493 
L 428.598245 195.118014 
L 432.74404 174.374332 
L 436.889835 170.387518 
L 441.035629 148.397896 
L 445.181424 149.236555 
L 449.327219 135.458178 
L 453.473013 144.30804 
L 457.618808 133.881289 
L 461.764603 138.202108 
L 465.910397 131.061973 
L 470.056192 132.569172 
L 474.201987 133.028078 
L 478.347781 116.563338 
L 482.493576 119.876492 
L 486.639371 121.340952 
L 490.785165 112.676561 
L 494.93096 120.205346 
L 499.076755 109.579801 
L 503.222549 117.802135 
L 507.368344 121.830537 
L 511.514139 119.175086 
L 515.659934 108.394788 
L 519.805728 115.170036 
L 523.951523 107.113943 
L 528.097318 99.688419 
L 532.243112 106.569665 
L 536.388907 109.904822 
L 540.534702 106.06607 
L 544.680496 107.842263 
L 548.826291 118.693407 
L 552.972086 112.337757 
L 557.11788 114.274619 
L 561.263675 99.822751 
L 565.40947 100.464011 
" style="fill:none;stroke:#dd8452;stroke-dasharray:12,7.5;stroke-dashoffset:0;stroke-width:1.5;"/>
   </g>
   <g id="line2d_27">
    <path clip-path="url(#pf00a926818)" d="M 362.26553 103.193868 
L 366.411325 103.193868 
L 370.55712 103.193868 
L 374.702914 103.193868 
L 378.848709 103.193868 
L 382.994504 103.193846 
L 387.140298 103.18357 
L 391.286093 102.449531 
L 395.431888 95.073729 
L 399.577682 70.903889 
L 403.723477 58.144258 
L 407.869272 36.186497 
L 412.015066 32.225 
L 416.160861 36.7865 
L 420.306656 45.688691 
L 424.452451 50.511251 
L 428.598245 66.26109 
L 432.74404 59.384636 
L 436.889835 57.178614 
L 441.035629 61.935709 
L 445.181424 68.205287 
L 449.327219 67.98011 
L 453.473013 79.825562 
L 457.618808 73.683209 
L 461.764603 81.011679 
L 465.910397 77.210541 
L 470.056192 82.311343 
L 474.201987 78.507934 
L 478.347781 78.678394 
L 482.493576 93.663308 
L 486.639371 83.692153 
L 490.785165 85.422787 
L 494.93096 86.601995 
L 499.076755 86.458906 
L 503.222549 80.606597 
L 507.368344 103.06419 
L 511.514139 93.629857 
L 515.659934 89.415229 
L 519.805728 86.329593 
L 523.951523 84.806516 
L 528.097318 86.123732 
L 532.243112 96.607462 
L 536.388907 93.162194 
L 540.534702 90.973382 
L 544.680496 83.17744 
L 548.826291 102.81372 
L 552.972086 102.161361 
L 557.11788 94.608187 
L 561.263675 93.290283 
L 565.40947 89.606072 
" style="fill:none;stroke:#55a868;stroke-dasharray:1.5,0;stroke-dashoffset:0;stroke-width:1.5;"/>
   </g>
   <g id="patch_8">
    <path d="M 352.108333 255.35 
L 352.108333 21.6 
" style="fill:none;stroke:#ffffff;stroke-linecap:square;stroke-linejoin:miter;stroke-width:1.25;"/>
   </g>
   <g id="patch_9">
    <path d="M 575.566667 255.35 
L 575.566667 21.6 
" style="fill:none;stroke:#ffffff;stroke-linecap:square;stroke-linejoin:miter;stroke-width:1.25;"/>
   </g>
   <g id="patch_10">
    <path d="M 352.108333 255.35 
L 575.566667 255.35 
" style="fill:none;stroke:#ffffff;stroke-linecap:square;stroke-linejoin:miter;stroke-width:1.25;"/>
   </g>
   <g id="patch_11">
    <path d="M 352.108333 21.6 
L 575.566667 21.6 
" style="fill:none;stroke:#ffffff;stroke-linecap:square;stroke-linejoin:miter;stroke-width:1.25;"/>
   </g>
  </g>
  <g id="axes_3">
   <g id="patch_12">
    <path d="M 629.741667 255.35 
L 853.2 255.35 
L 853.2 21.6 
L 629.741667 21.6 
z
" style="fill:#eaeaf2;"/>
   </g>
   <g id="matplotlib.axis_5">
    <g id="xtick_9">
     <g id="line2d_28">
      <path clip-path="url(#p5d8bd01eda)" d="M 639.763344 255.35 
L 639.763344 21.6 
" style="fill:none;stroke:#ffffff;stroke-linecap:round;"/>
     </g>
     <g id="text_23">
      <!-- 0.0 -->
      <g style="fill:#262626;" transform="translate(632.118344 272.723594)scale(0.11 -0.11)">
       <use xlink:href="#ArialMT-30"/>
       <use x="55.615234" xlink:href="#ArialMT-2e"/>
       <use x="83.398438" xlink:href="#ArialMT-30"/>
      </g>
     </g>
    </g>
    <g id="xtick_10">
     <g id="line2d_29">
      <path clip-path="url(#p5d8bd01eda)" d="M 707.523164 255.35 
L 707.523164 21.6 
" style="fill:none;stroke:#ffffff;stroke-linecap:round;"/>
     </g>
     <g id="text_24">
      <!-- 0.5 -->
      <g style="fill:#262626;" transform="translate(699.878164 272.723594)scale(0.11 -0.11)">
       <use xlink:href="#ArialMT-30"/>
       <use x="55.615234" xlink:href="#ArialMT-2e"/>
       <use x="83.398438" xlink:href="#ArialMT-35"/>
      </g>
     </g>
    </g>
    <g id="xtick_11">
     <g id="line2d_30">
      <path clip-path="url(#p5d8bd01eda)" d="M 775.282983 255.35 
L 775.282983 21.6 
" style="fill:none;stroke:#ffffff;stroke-linecap:round;"/>
     </g>
     <g id="text_25">
      <!-- 1.0 -->
      <g style="fill:#262626;" transform="translate(767.637983 272.723594)scale(0.11 -0.11)">
       <use xlink:href="#ArialMT-31"/>
       <use x="55.615234" xlink:href="#ArialMT-2e"/>
       <use x="83.398438" xlink:href="#ArialMT-30"/>
      </g>
     </g>
    </g>
    <g id="xtick_12">
     <g id="line2d_31">
      <path clip-path="url(#p5d8bd01eda)" d="M 843.042803 255.35 
L 843.042803 21.6 
" style="fill:none;stroke:#ffffff;stroke-linecap:round;"/>
     </g>
     <g id="text_26">
      <!-- 1.5 -->
      <g style="fill:#262626;" transform="translate(835.397803 272.723594)scale(0.11 -0.11)">
       <use xlink:href="#ArialMT-31"/>
       <use x="55.615234" xlink:href="#ArialMT-2e"/>
       <use x="83.398438" xlink:href="#ArialMT-35"/>
      </g>
     </g>
    </g>
   </g>
   <g id="matplotlib.axis_6">
    <g id="ytick_14">
     <g id="line2d_32">
      <path clip-path="url(#p5d8bd01eda)" d="M 629.741667 238.891046 
L 853.2 238.891046 
" style="fill:none;stroke:#ffffff;stroke-linecap:round;"/>
     </g>
     <g id="text_27">
      <!-- −0.075 -->
      <g style="fill:#262626;" transform="translate(586.292917 242.827843)scale(0.11 -0.11)">
       <defs>
        <path d="M 303 3981 
L 303 4522 
L 3269 4522 
L 3269 4084 
Q 2831 3619 2401 2847 
Q 1972 2075 1738 1259 
Q 1569 684 1522 0 
L 944 0 
Q 953 541 1156 1306 
Q 1359 2072 1739 2783 
Q 2119 3494 2547 3981 
L 303 3981 
z
" id="ArialMT-37" transform="scale(0.015625)"/>
       </defs>
       <use xlink:href="#ArialMT-2212"/>
       <use x="58.398438" xlink:href="#ArialMT-30"/>
       <use x="114.013672" xlink:href="#ArialMT-2e"/>
       <use x="141.796875" xlink:href="#ArialMT-30"/>
       <use x="197.412109" xlink:href="#ArialMT-37"/>
       <use x="253.027344" xlink:href="#ArialMT-35"/>
      </g>
     </g>
    </g>
    <g id="ytick_15">
     <g id="line2d_33">
      <path clip-path="url(#p5d8bd01eda)" d="M 629.741667 206.902972 
L 853.2 206.902972 
" style="fill:none;stroke:#ffffff;stroke-linecap:round;"/>
     </g>
     <g id="text_28">
      <!-- −0.050 -->
      <g style="fill:#262626;" transform="translate(586.292917 210.839769)scale(0.11 -0.11)">
       <use xlink:href="#ArialMT-2212"/>
       <use x="58.398438" xlink:href="#ArialMT-30"/>
       <use x="114.013672" xlink:href="#ArialMT-2e"/>
       <use x="141.796875" xlink:href="#ArialMT-30"/>
       <use x="197.412109" xlink:href="#ArialMT-35"/>
       <use x="253.027344" xlink:href="#ArialMT-30"/>
      </g>
     </g>
    </g>
    <g id="ytick_16">
     <g id="line2d_34">
      <path clip-path="url(#p5d8bd01eda)" d="M 629.741667 174.914899 
L 853.2 174.914899 
" style="fill:none;stroke:#ffffff;stroke-linecap:round;"/>
     </g>
     <g id="text_29">
      <!-- −0.025 -->
      <g style="fill:#262626;" transform="translate(586.292917 178.851695)scale(0.11 -0.11)">
       <use xlink:href="#ArialMT-2212"/>
       <use x="58.398438" xlink:href="#ArialMT-30"/>
       <use x="114.013672" xlink:href="#ArialMT-2e"/>
       <use x="141.796875" xlink:href="#ArialMT-30"/>
       <use x="197.412109" xlink:href="#ArialMT-32"/>
       <use x="253.027344" xlink:href="#ArialMT-35"/>
      </g>
     </g>
    </g>
    <g id="ytick_17">
     <g id="line2d_35">
      <path clip-path="url(#p5d8bd01eda)" d="M 629.741667 142.926825 
L 853.2 142.926825 
" style="fill:none;stroke:#ffffff;stroke-linecap:round;"/>
     </g>
     <g id="text_30">
      <!-- 0.000 -->
      <g style="fill:#262626;" transform="translate(592.717604 146.863622)scale(0.11 -0.11)">
       <use xlink:href="#ArialMT-30"/>
       <use x="55.615234" xlink:href="#ArialMT-2e"/>
       <use x="83.398438" xlink:href="#ArialMT-30"/>
       <use x="139.013672" xlink:href="#ArialMT-30"/>
       <use x="194.628906" xlink:href="#ArialMT-30"/>
      </g>
     </g>
    </g>
    <g id="ytick_18">
     <g id="line2d_36">
      <path clip-path="url(#p5d8bd01eda)" d="M 629.741667 110.938751 
L 853.2 110.938751 
" style="fill:none;stroke:#ffffff;stroke-linecap:round;"/>
     </g>
     <g id="text_31">
      <!-- 0.025 -->
      <g style="fill:#262626;" transform="translate(592.717604 114.875548)scale(0.11 -0.11)">
       <use xlink:href="#ArialMT-30"/>
       <use x="55.615234" xlink:href="#ArialMT-2e"/>
       <use x="83.398438" xlink:href="#ArialMT-30"/>
       <use x="139.013672" xlink:href="#ArialMT-32"/>
       <use x="194.628906" xlink:href="#ArialMT-35"/>
      </g>
     </g>
    </g>
    <g id="ytick_19">
     <g id="line2d_37">
      <path clip-path="url(#p5d8bd01eda)" d="M 629.741667 78.950678 
L 853.2 78.950678 
" style="fill:none;stroke:#ffffff;stroke-linecap:round;"/>
     </g>
     <g id="text_32">
      <!-- 0.050 -->
      <g style="fill:#262626;" transform="translate(592.717604 82.887475)scale(0.11 -0.11)">
       <use xlink:href="#ArialMT-30"/>
       <use x="55.615234" xlink:href="#ArialMT-2e"/>
       <use x="83.398438" xlink:href="#ArialMT-30"/>
       <use x="139.013672" xlink:href="#ArialMT-35"/>
       <use x="194.628906" xlink:href="#ArialMT-30"/>
      </g>
     </g>
    </g>
    <g id="ytick_20">
     <g id="line2d_38">
      <path clip-path="url(#p5d8bd01eda)" d="M 629.741667 46.962604 
L 853.2 46.962604 
" style="fill:none;stroke:#ffffff;stroke-linecap:round;"/>
     </g>
     <g id="text_33">
      <!-- 0.075 -->
      <g style="fill:#262626;" transform="translate(592.717604 50.899401)scale(0.11 -0.11)">
       <use xlink:href="#ArialMT-30"/>
       <use x="55.615234" xlink:href="#ArialMT-2e"/>
       <use x="83.398438" xlink:href="#ArialMT-30"/>
       <use x="139.013672" xlink:href="#ArialMT-37"/>
       <use x="194.628906" xlink:href="#ArialMT-35"/>
      </g>
     </g>
    </g>
   </g>
   <g id="line2d_39">
    <path clip-path="url(#p5d8bd01eda)" d="M 639.898864 142.926825 
L 644.044658 142.926825 
L 648.190453 142.926825 
L 652.336248 142.926825 
L 656.482042 142.926825 
L 660.627837 142.926824 
L 664.773632 142.940967 
L 668.919426 142.586935 
L 673.065221 121.904063 
L 677.211016 77.516186 
L 681.35681 229.37264 
L 685.502605 65.511589 
L 689.6484 151.233167 
L 693.794194 108.966878 
L 697.939989 141.154993 
L 702.085784 244.725 
L 706.231579 103.362173 
L 710.377373 208.575761 
L 714.523168 102.469809 
L 718.668963 236.501473 
L 722.814757 109.049291 
L 726.960552 151.75031 
L 731.106347 170.100203 
L 735.252141 158.531694 
L 739.397936 186.095567 
L 743.543731 170.457021 
L 747.689525 93.726757 
L 751.83532 135.425721 
L 755.981115 179.875287 
L 760.126909 105.346413 
L 764.272704 190.3893 
L 768.418499 131.422224 
L 772.564293 199.071729 
L 776.710088 123.323888 
L 780.855883 89.964607 
L 785.001677 166.733571 
L 789.147472 118.257025 
L 793.293267 171.810568 
L 797.439062 134.541929 
L 801.584856 150.508115 
L 805.730651 187.955188 
L 809.876446 160.254588 
L 814.02224 194.438954 
L 818.168035 199.705012 
L 822.31383 214.390239 
L 826.459624 151.893077 
L 830.605419 136.123954 
L 834.751214 163.812 
L 838.897008 156.791196 
L 843.042803 143.939548 
" style="fill:none;stroke:#4c72b0;stroke-dasharray:9,3;stroke-dashoffset:0;stroke-width:1.5;"/>
   </g>
   <g id="line2d_40">
    <path clip-path="url(#p5d8bd01eda)" d="M 639.898864 142.926825 
L 644.044658 142.926825 
L 648.190453 142.926825 
L 652.336248 142.926825 
L 656.482042 142.926825 
L 660.627837 142.926829 
L 664.773632 142.925702 
L 668.919426 143.132978 
L 673.065221 144.21827 
L 677.211016 138.172712 
L 681.35681 100.405381 
L 685.502605 111.380265 
L 689.6484 116.15172 
L 693.794194 153.944081 
L 697.939989 140.949754 
L 702.085784 113.488175 
L 706.231579 167.605235 
L 710.377373 127.640743 
L 714.523168 168.186314 
L 718.668963 175.742322 
L 722.814757 89.816357 
L 726.960552 114.764112 
L 731.106347 135.319276 
L 735.252141 116.079583 
L 739.397936 142.574003 
L 743.543731 162.963986 
L 747.689525 134.552805 
L 751.83532 41.442983 
L 755.981115 129.016377 
L 760.126909 68.661031 
L 764.272704 112.750389 
L 768.418499 97.355731 
L 772.564293 101.974443 
L 776.710088 143.894863 
L 780.855883 65.751139 
L 785.001677 113.256517 
L 789.147472 32.225 
L 793.293267 88.520392 
L 797.439062 155.352563 
L 801.584856 89.475446 
L 805.730651 148.298394 
L 809.876446 67.354683 
L 814.02224 107.332132 
L 818.168035 120.853415 
L 822.31383 136.40888 
L 826.459624 66.367334 
L 830.605419 67.04637 
L 834.751214 109.578667 
L 838.897008 144.647798 
L 843.042803 73.787312 
" style="fill:none;stroke:#dd8452;stroke-dasharray:12,7.5;stroke-dashoffset:0;stroke-width:1.5;"/>
   </g>
   <g id="line2d_41">
    <path clip-path="url(#p5d8bd01eda)" d="M 639.898864 142.926825 
L 644.044658 142.926825 
L 648.190453 142.926825 
L 652.336248 142.926825 
L 656.482042 142.926825 
L 660.627837 142.926818 
L 664.773632 142.926329 
L 668.919426 143.037811 
L 673.065221 142.370997 
L 677.211016 139.477691 
L 681.35681 147.448968 
L 685.502605 138.212234 
L 689.6484 152.851374 
L 693.794194 145.493517 
L 697.939989 124.921067 
L 702.085784 122.065662 
L 706.231579 156.738295 
L 710.377373 160.801628 
L 714.523168 171.052908 
L 718.668963 154.279 
L 722.814757 174.116585 
L 726.960552 173.719021 
L 731.106347 87.46551 
L 735.252141 124.200032 
L 739.397936 152.346236 
L 743.543731 115.23659 
L 747.689525 127.010277 
L 751.83532 195.193419 
L 755.981115 159.595373 
L 760.126909 107.871239 
L 764.272704 143.607076 
L 768.418499 182.08941 
L 772.564293 132.365652 
L 776.710088 116.551085 
L 780.855883 148.03615 
L 785.001677 130.417712 
L 789.147472 132.11493 
L 793.293267 153.376296 
L 797.439062 136.782205 
L 801.584856 174.4956 
L 805.730651 61.159325 
L 809.876446 160.740517 
L 814.02224 206.688093 
L 818.168035 182.287621 
L 822.31383 70.790041 
L 826.459624 178.657677 
L 830.605419 109.255762 
L 834.751214 177.695067 
L 838.897008 156.870508 
L 843.042803 154.859812 
" style="fill:none;stroke:#55a868;stroke-dasharray:1.5,0;stroke-dashoffset:0;stroke-width:1.5;"/>
   </g>
   <g id="patch_13">
    <path d="M 629.741667 255.35 
L 629.741667 21.6 
" style="fill:none;stroke:#ffffff;stroke-linecap:square;stroke-linejoin:miter;stroke-width:1.25;"/>
   </g>
   <g id="patch_14">
    <path d="M 853.2 255.35 
L 853.2 21.6 
" style="fill:none;stroke:#ffffff;stroke-linecap:square;stroke-linejoin:miter;stroke-width:1.25;"/>
   </g>
   <g id="patch_15">
    <path d="M 629.741667 255.35 
L 853.2 255.35 
" style="fill:none;stroke:#ffffff;stroke-linecap:square;stroke-linejoin:miter;stroke-width:1.25;"/>
   </g>
   <g id="patch_16">
    <path d="M 629.741667 21.6 
L 853.2 21.6 
" style="fill:none;stroke:#ffffff;stroke-linecap:square;stroke-linejoin:miter;stroke-width:1.25;"/>
   </g>
  </g>
  <g id="axes_4">
   <g id="patch_17">
    <path d="M 74.475 519.4 
L 297.933333 519.4 
L 297.933333 285.65 
L 74.475 285.65 
z
" style="fill:#eaeaf2;"/>
   </g>
   <g id="matplotlib.axis_7">
    <g id="xtick_13">
     <g id="line2d_42">
      <path clip-path="url(#pc4b13650b4)" d="M 84.496677 519.4 
L 84.496677 285.65 
" style="fill:none;stroke:#ffffff;stroke-linecap:round;"/>
     </g>
     <g id="text_34">
      <!-- 0.0 -->
      <g style="fill:#262626;" transform="translate(76.851677 536.773594)scale(0.11 -0.11)">
       <use xlink:href="#ArialMT-30"/>
       <use x="55.615234" xlink:href="#ArialMT-2e"/>
       <use x="83.398438" xlink:href="#ArialMT-30"/>
      </g>
     </g>
    </g>
    <g id="xtick_14">
     <g id="line2d_43">
      <path clip-path="url(#pc4b13650b4)" d="M 152.256497 519.4 
L 152.256497 285.65 
" style="fill:none;stroke:#ffffff;stroke-linecap:round;"/>
     </g>
     <g id="text_35">
      <!-- 0.5 -->
      <g style="fill:#262626;" transform="translate(144.611497 536.773594)scale(0.11 -0.11)">
       <use xlink:href="#ArialMT-30"/>
       <use x="55.615234" xlink:href="#ArialMT-2e"/>
       <use x="83.398438" xlink:href="#ArialMT-35"/>
      </g>
     </g>
    </g>
    <g id="xtick_15">
     <g id="line2d_44">
      <path clip-path="url(#pc4b13650b4)" d="M 220.016317 519.4 
L 220.016317 285.65 
" style="fill:none;stroke:#ffffff;stroke-linecap:round;"/>
     </g>
     <g id="text_36">
      <!-- 1.0 -->
      <g style="fill:#262626;" transform="translate(212.371317 536.773594)scale(0.11 -0.11)">
       <use xlink:href="#ArialMT-31"/>
       <use x="55.615234" xlink:href="#ArialMT-2e"/>
       <use x="83.398438" xlink:href="#ArialMT-30"/>
      </g>
     </g>
    </g>
    <g id="xtick_16">
     <g id="line2d_45">
      <path clip-path="url(#pc4b13650b4)" d="M 287.776136 519.4 
L 287.776136 285.65 
" style="fill:none;stroke:#ffffff;stroke-linecap:round;"/>
     </g>
     <g id="text_37">
      <!-- 1.5 -->
      <g style="fill:#262626;" transform="translate(280.131136 536.773594)scale(0.11 -0.11)">
       <use xlink:href="#ArialMT-31"/>
       <use x="55.615234" xlink:href="#ArialMT-2e"/>
       <use x="83.398438" xlink:href="#ArialMT-35"/>
      </g>
     </g>
    </g>
    <g id="text_38">
     <!-- $x_0$ Kernel Width -->
     <g style="fill:#262626;" transform="translate(115.504167 557.275469)scale(0.2 -0.2)">
      <defs>
       <path d="M 2034 4250 
Q 1547 4250 1301 3770 
Q 1056 3291 1056 2328 
Q 1056 1369 1301 889 
Q 1547 409 2034 409 
Q 2525 409 2770 889 
Q 3016 1369 3016 2328 
Q 3016 3291 2770 3770 
Q 2525 4250 2034 4250 
z
M 2034 4750 
Q 2819 4750 3233 4129 
Q 3647 3509 3647 2328 
Q 3647 1150 3233 529 
Q 2819 -91 2034 -91 
Q 1250 -91 836 529 
Q 422 1150 422 2328 
Q 422 3509 836 4129 
Q 1250 4750 2034 4750 
z
" id="DejaVuSans-30" transform="scale(0.015625)"/>
       <path d="M 469 0 
L 469 4581 
L 1075 4581 
L 1075 2309 
L 3350 4581 
L 4172 4581 
L 2250 2725 
L 4256 0 
L 3456 0 
L 1825 2319 
L 1075 1588 
L 1075 0 
L 469 0 
z
" id="ArialMT-4b" transform="scale(0.015625)"/>
       <path d="M 2694 1069 
L 3275 997 
Q 3138 488 2766 206 
Q 2394 -75 1816 -75 
Q 1088 -75 661 373 
Q 234 822 234 1631 
Q 234 2469 665 2931 
Q 1097 3394 1784 3394 
Q 2450 3394 2872 2941 
Q 3294 2488 3294 1666 
Q 3294 1616 3291 1516 
L 816 1516 
Q 847 969 1125 678 
Q 1403 388 1819 388 
Q 2128 388 2347 550 
Q 2566 713 2694 1069 
z
M 847 1978 
L 2700 1978 
Q 2663 2397 2488 2606 
Q 2219 2931 1791 2931 
Q 1403 2931 1139 2672 
Q 875 2413 847 1978 
z
" id="ArialMT-65" transform="scale(0.015625)"/>
       <path d="M 409 0 
L 409 4581 
L 972 4581 
L 972 0 
L 409 0 
z
" id="ArialMT-6c" transform="scale(0.015625)"/>
       <path d="M 1294 0 
L 78 4581 
L 700 4581 
L 1397 1578 
Q 1509 1106 1591 641 
Q 1766 1375 1797 1488 
L 2669 4581 
L 3400 4581 
L 4056 2263 
Q 4303 1400 4413 641 
Q 4500 1075 4641 1638 
L 5359 4581 
L 5969 4581 
L 4713 0 
L 4128 0 
L 3163 3491 
Q 3041 3928 3019 4028 
Q 2947 3713 2884 3491 
L 1913 0 
L 1294 0 
z
" id="ArialMT-57" transform="scale(0.015625)"/>
       <path d="M 2575 0 
L 2575 419 
Q 2259 -75 1647 -75 
Q 1250 -75 917 144 
Q 584 363 401 755 
Q 219 1147 219 1656 
Q 219 2153 384 2558 
Q 550 2963 881 3178 
Q 1213 3394 1622 3394 
Q 1922 3394 2156 3267 
Q 2391 3141 2538 2938 
L 2538 4581 
L 3097 4581 
L 3097 0 
L 2575 0 
z
M 797 1656 
Q 797 1019 1065 703 
Q 1334 388 1700 388 
Q 2069 388 2326 689 
Q 2584 991 2584 1609 
Q 2584 2291 2321 2609 
Q 2059 2928 1675 2928 
Q 1300 2928 1048 2622 
Q 797 2316 797 1656 
z
" id="ArialMT-64" transform="scale(0.015625)"/>
       <path d="M 422 0 
L 422 4581 
L 984 4581 
L 984 2938 
Q 1378 3394 1978 3394 
Q 2347 3394 2619 3248 
Q 2891 3103 3008 2847 
Q 3125 2591 3125 2103 
L 3125 0 
L 2563 0 
L 2563 2103 
Q 2563 2525 2380 2717 
Q 2197 2909 1863 2909 
Q 1613 2909 1392 2779 
Q 1172 2650 1078 2428 
Q 984 2206 984 1816 
L 984 0 
L 422 0 
z
" id="ArialMT-68" transform="scale(0.015625)"/>
      </defs>
      <use transform="translate(0 0.421875)" xlink:href="#DejaVuSans-Oblique-78"/>
      <use transform="translate(59.179688 -15.984375)scale(0.7)" xlink:href="#DejaVuSans-30"/>
      <use transform="translate(106.450195 0.421875)" xlink:href="#ArialMT-20"/>
      <use transform="translate(134.233398 0.421875)" xlink:href="#ArialMT-4b"/>
      <use transform="translate(200.932617 0.421875)" xlink:href="#ArialMT-65"/>
      <use transform="translate(256.547852 0.421875)" xlink:href="#ArialMT-72"/>
      <use transform="translate(289.848633 0.421875)" xlink:href="#ArialMT-6e"/>
      <use transform="translate(345.463867 0.421875)" xlink:href="#ArialMT-65"/>
      <use transform="translate(401.079102 0.421875)" xlink:href="#ArialMT-6c"/>
      <use transform="translate(423.295898 0.421875)" xlink:href="#ArialMT-20"/>
      <use transform="translate(451.079102 0.421875)" xlink:href="#ArialMT-57"/>
      <use transform="translate(545.463867 0.421875)" xlink:href="#ArialMT-69"/>
      <use transform="translate(567.680664 0.421875)" xlink:href="#ArialMT-64"/>
      <use transform="translate(623.295898 0.421875)" xlink:href="#ArialMT-74"/>
      <use transform="translate(651.079102 0.421875)" xlink:href="#ArialMT-68"/>
     </g>
    </g>
   </g>
   <g id="matplotlib.axis_8">
    <g id="ytick_21">
     <g id="line2d_46">
      <path clip-path="url(#pc4b13650b4)" d="M 74.475 504.399765 
L 297.933333 504.399765 
" style="fill:none;stroke:#ffffff;stroke-linecap:round;"/>
     </g>
     <g id="text_39">
      <!-- −0.02 -->
      <g style="fill:#262626;" transform="translate(37.143281 508.336562)scale(0.11 -0.11)">
       <use xlink:href="#ArialMT-2212"/>
       <use x="58.398438" xlink:href="#ArialMT-30"/>
       <use x="114.013672" xlink:href="#ArialMT-2e"/>
       <use x="141.796875" xlink:href="#ArialMT-30"/>
       <use x="197.412109" xlink:href="#ArialMT-32"/>
      </g>
     </g>
    </g>
    <g id="ytick_22">
     <g id="line2d_47">
      <path clip-path="url(#pc4b13650b4)" d="M 74.475 457.563062 
L 297.933333 457.563062 
" style="fill:none;stroke:#ffffff;stroke-linecap:round;"/>
     </g>
     <g id="text_40">
      <!-- −0.01 -->
      <g style="fill:#262626;" transform="translate(37.143281 461.499859)scale(0.11 -0.11)">
       <use xlink:href="#ArialMT-2212"/>
       <use x="58.398438" xlink:href="#ArialMT-30"/>
       <use x="114.013672" xlink:href="#ArialMT-2e"/>
       <use x="141.796875" xlink:href="#ArialMT-30"/>
       <use x="197.412109" xlink:href="#ArialMT-31"/>
      </g>
     </g>
    </g>
    <g id="ytick_23">
     <g id="line2d_48">
      <path clip-path="url(#pc4b13650b4)" d="M 74.475 410.726358 
L 297.933333 410.726358 
" style="fill:none;stroke:#ffffff;stroke-linecap:round;"/>
     </g>
     <g id="text_41">
      <!-- 0.00 -->
      <g style="fill:#262626;" transform="translate(43.567969 414.663155)scale(0.11 -0.11)">
       <use xlink:href="#ArialMT-30"/>
       <use x="55.615234" xlink:href="#ArialMT-2e"/>
       <use x="83.398438" xlink:href="#ArialMT-30"/>
       <use x="139.013672" xlink:href="#ArialMT-30"/>
      </g>
     </g>
    </g>
    <g id="ytick_24">
     <g id="line2d_49">
      <path clip-path="url(#pc4b13650b4)" d="M 74.475 363.889655 
L 297.933333 363.889655 
" style="fill:none;stroke:#ffffff;stroke-linecap:round;"/>
     </g>
     <g id="text_42">
      <!-- 0.01 -->
      <g style="fill:#262626;" transform="translate(43.567969 367.826452)scale(0.11 -0.11)">
       <use xlink:href="#ArialMT-30"/>
       <use x="55.615234" xlink:href="#ArialMT-2e"/>
       <use x="83.398438" xlink:href="#ArialMT-30"/>
       <use x="139.013672" xlink:href="#ArialMT-31"/>
      </g>
     </g>
    </g>
    <g id="ytick_25">
     <g id="line2d_50">
      <path clip-path="url(#pc4b13650b4)" d="M 74.475 317.052952 
L 297.933333 317.052952 
" style="fill:none;stroke:#ffffff;stroke-linecap:round;"/>
     </g>
     <g id="text_43">
      <!-- 0.02 -->
      <g style="fill:#262626;" transform="translate(43.567969 320.989749)scale(0.11 -0.11)">
       <use xlink:href="#ArialMT-30"/>
       <use x="55.615234" xlink:href="#ArialMT-2e"/>
       <use x="83.398438" xlink:href="#ArialMT-30"/>
       <use x="139.013672" xlink:href="#ArialMT-32"/>
      </g>
     </g>
    </g>
    <g id="text_44">
     <!-- Contribution to $v_t$ -->
     <g style="fill:#262626;" transform="translate(29.168281 479.325)rotate(-90)scale(0.2 -0.2)">
      <defs>
       <path d="M 459 3500 
L 1069 3500 
L 1581 525 
L 3256 3500 
L 3866 3500 
L 1875 0 
L 1100 0 
L 459 3500 
z
" id="DejaVuSans-Oblique-76" transform="scale(0.015625)"/>
      </defs>
      <use transform="translate(0 0.203125)" xlink:href="#ArialMT-43"/>
      <use transform="translate(72.216797 0.203125)" xlink:href="#ArialMT-6f"/>
      <use transform="translate(127.832031 0.203125)" xlink:href="#ArialMT-6e"/>
      <use transform="translate(183.447266 0.203125)" xlink:href="#ArialMT-74"/>
      <use transform="translate(211.230469 0.203125)" xlink:href="#ArialMT-72"/>
      <use transform="translate(244.53125 0.203125)" xlink:href="#ArialMT-69"/>
      <use transform="translate(266.748047 0.203125)" xlink:href="#ArialMT-62"/>
      <use transform="translate(322.363281 0.203125)" xlink:href="#ArialMT-75"/>
      <use transform="translate(377.978516 0.203125)" xlink:href="#ArialMT-74"/>
      <use transform="translate(405.761719 0.203125)" xlink:href="#ArialMT-69"/>
      <use transform="translate(427.978516 0.203125)" xlink:href="#ArialMT-6f"/>
      <use transform="translate(483.59375 0.203125)" xlink:href="#ArialMT-6e"/>
      <use transform="translate(539.208984 0.203125)" xlink:href="#ArialMT-20"/>
      <use transform="translate(566.992188 0.203125)" xlink:href="#ArialMT-74"/>
      <use transform="translate(594.775391 0.203125)" xlink:href="#ArialMT-6f"/>
      <use transform="translate(650.390625 0.203125)" xlink:href="#ArialMT-20"/>
      <use transform="translate(678.173828 0.203125)" xlink:href="#DejaVuSans-Oblique-76"/>
      <use transform="translate(737.353516 -16.203125)scale(0.7)" xlink:href="#DejaVuSans-Oblique-74"/>
     </g>
    </g>
   </g>
   <g id="line2d_51">
    <path clip-path="url(#pc4b13650b4)" d="M 84.632197 410.726358 
L 88.777992 410.726358 
L 92.923786 410.726358 
L 97.069581 410.726358 
L 101.215376 410.726358 
L 105.36117 410.726369 
L 109.506965 410.705521 
L 113.65276 411.128448 
L 117.798554 409.671341 
L 121.944349 397.11298 
L 126.090144 463.859586 
L 130.235938 402.972157 
L 134.381733 351.859081 
L 138.527528 382.645574 
L 142.673323 398.434537 
L 146.819117 388.226562 
L 150.964912 418.092839 
L 155.110707 391.323482 
L 159.256501 431.548906 
L 163.402296 438.061634 
L 167.548091 419.072161 
L 171.693885 403.64848 
L 175.83968 414.690226 
L 179.985475 389.998831 
L 184.131269 391.268154 
L 188.277064 382.610459 
L 192.422859 392.075981 
L 196.568653 428.152874 
L 200.714448 444.10434 
L 204.860243 386.480507 
L 209.006037 406.778191 
L 213.151832 397.569098 
L 217.297627 410.776553 
L 221.443421 389.428547 
L 225.589216 419.371063 
L 229.735011 372.632912 
L 233.880806 372.079552 
L 238.0266 398.118474 
L 242.172395 416.193358 
L 246.31819 402.485301 
L 250.463984 379.233495 
L 254.609779 402.096877 
L 258.755574 431.123688 
L 262.901368 411.05716 
L 267.047163 413.256698 
L 271.192958 401.470817 
L 275.338752 426.226001 
L 279.484547 362.726481 
L 283.630342 365.697446 
L 287.776136 409.637716 
" style="fill:none;stroke:#4c72b0;stroke-dasharray:9,3;stroke-dashoffset:0;stroke-width:1.5;"/>
   </g>
   <g id="line2d_52">
    <path clip-path="url(#pc4b13650b4)" d="M 84.632197 410.726358 
L 88.777992 410.726358 
L 92.923786 410.726358 
L 97.069581 410.726358 
L 101.215376 410.726358 
L 105.36117 410.72635 
L 109.506965 410.712564 
L 113.65276 412.7346 
L 117.798554 400.627648 
L 121.944349 387.416981 
L 126.090144 329.071035 
L 130.235938 416.598435 
L 134.381733 296.275 
L 138.527528 445.562211 
L 142.673323 364.417289 
L 146.819117 347.172082 
L 150.964912 508.775 
L 155.110707 432.486 
L 159.256501 351.360556 
L 163.402296 400.333064 
L 167.548091 507.999821 
L 171.693885 405.509103 
L 175.83968 412.445692 
L 179.985475 370.54822 
L 184.131269 381.076159 
L 188.277064 422.484612 
L 192.422859 391.60696 
L 196.568653 405.880497 
L 200.714448 444.886664 
L 204.860243 384.925753 
L 209.006037 361.305227 
L 213.151832 363.520402 
L 217.297627 393.20208 
L 221.443421 375.931254 
L 225.589216 400.683844 
L 229.735011 382.635589 
L 233.880806 422.346212 
L 238.0266 343.545431 
L 242.172395 398.580734 
L 246.31819 405.486459 
L 250.463984 376.170777 
L 254.609779 368.243684 
L 258.755574 383.714184 
L 262.901368 394.572904 
L 267.047163 381.196125 
L 271.192958 388.35128 
L 275.338752 351.720453 
L 279.484547 379.011115 
L 283.630342 378.720077 
L 287.776136 372.156556 
" style="fill:none;stroke:#dd8452;stroke-dasharray:12,7.5;stroke-dashoffset:0;stroke-width:1.5;"/>
   </g>
   <g id="line2d_53">
    <path clip-path="url(#pc4b13650b4)" d="M 84.632197 410.726358 
L 88.777992 410.726358 
L 92.923786 410.726358 
L 97.069581 410.726358 
L 101.215376 410.726358 
L 105.36117 410.726384 
L 109.506965 410.712301 
L 113.65276 410.402967 
L 117.798554 409.210666 
L 121.944349 415.457634 
L 126.090144 377.009374 
L 130.235938 417.762712 
L 134.381733 354.387098 
L 138.527528 448.631279 
L 142.673323 441.946432 
L 146.819117 478.582592 
L 150.964912 406.215716 
L 155.110707 428.294341 
L 159.256501 390.629712 
L 163.402296 418.497789 
L 167.548091 366.477777 
L 171.693885 407.338629 
L 175.83968 390.843469 
L 179.985475 419.369966 
L 184.131269 440.918974 
L 188.277064 430.038036 
L 192.422859 419.546882 
L 196.568653 400.192461 
L 200.714448 424.286925 
L 204.860243 375.19581 
L 209.006037 374.925456 
L 213.151832 418.044331 
L 217.297627 394.629175 
L 221.443421 440.890064 
L 225.589216 383.399546 
L 229.735011 359.152611 
L 233.880806 366.202228 
L 238.0266 392.135924 
L 242.172395 356.02434 
L 246.31819 425.087323 
L 250.463984 386.673276 
L 254.609779 398.576373 
L 258.755574 411.441678 
L 262.901368 428.815815 
L 267.047163 444.73911 
L 271.192958 439.927453 
L 275.338752 451.076638 
L 279.484547 447.917857 
L 283.630342 406.317421 
L 287.776136 437.307629 
" style="fill:none;stroke:#55a868;stroke-dasharray:1.5,0;stroke-dashoffset:0;stroke-width:1.5;"/>
   </g>
   <g id="patch_18">
    <path d="M 74.475 519.4 
L 74.475 285.65 
" style="fill:none;stroke:#ffffff;stroke-linecap:square;stroke-linejoin:miter;stroke-width:1.25;"/>
   </g>
   <g id="patch_19">
    <path d="M 297.933333 519.4 
L 297.933333 285.65 
" style="fill:none;stroke:#ffffff;stroke-linecap:square;stroke-linejoin:miter;stroke-width:1.25;"/>
   </g>
   <g id="patch_20">
    <path d="M 74.475 519.4 
L 297.933333 519.4 
" style="fill:none;stroke:#ffffff;stroke-linecap:square;stroke-linejoin:miter;stroke-width:1.25;"/>
   </g>
   <g id="patch_21">
    <path d="M 74.475 285.65 
L 297.933333 285.65 
" style="fill:none;stroke:#ffffff;stroke-linecap:square;stroke-linejoin:miter;stroke-width:1.25;"/>
   </g>
  </g>
  <g id="axes_5">
   <g id="patch_22">
    <path d="M 352.108333 519.4 
L 575.566667 519.4 
L 575.566667 285.65 
L 352.108333 285.65 
z
" style="fill:#eaeaf2;"/>
   </g>
   <g id="matplotlib.axis_9">
    <g id="xtick_17">
     <g id="line2d_54">
      <path clip-path="url(#p27ca5d5f36)" d="M 362.130011 519.4 
L 362.130011 285.65 
" style="fill:none;stroke:#ffffff;stroke-linecap:round;"/>
     </g>
     <g id="text_45">
      <!-- 0.0 -->
      <g style="fill:#262626;" transform="translate(354.485011 536.773594)scale(0.11 -0.11)">
       <use xlink:href="#ArialMT-30"/>
       <use x="55.615234" xlink:href="#ArialMT-2e"/>
       <use x="83.398438" xlink:href="#ArialMT-30"/>
      </g>
     </g>
    </g>
    <g id="xtick_18">
     <g id="line2d_55">
      <path clip-path="url(#p27ca5d5f36)" d="M 429.88983 519.4 
L 429.88983 285.65 
" style="fill:none;stroke:#ffffff;stroke-linecap:round;"/>
     </g>
     <g id="text_46">
      <!-- 0.5 -->
      <g style="fill:#262626;" transform="translate(422.24483 536.773594)scale(0.11 -0.11)">
       <use xlink:href="#ArialMT-30"/>
       <use x="55.615234" xlink:href="#ArialMT-2e"/>
       <use x="83.398438" xlink:href="#ArialMT-35"/>
      </g>
     </g>
    </g>
    <g id="xtick_19">
     <g id="line2d_56">
      <path clip-path="url(#p27ca5d5f36)" d="M 497.64965 519.4 
L 497.64965 285.65 
" style="fill:none;stroke:#ffffff;stroke-linecap:round;"/>
     </g>
     <g id="text_47">
      <!-- 1.0 -->
      <g style="fill:#262626;" transform="translate(490.00465 536.773594)scale(0.11 -0.11)">
       <use xlink:href="#ArialMT-31"/>
       <use x="55.615234" xlink:href="#ArialMT-2e"/>
       <use x="83.398438" xlink:href="#ArialMT-30"/>
      </g>
     </g>
    </g>
    <g id="xtick_20">
     <g id="line2d_57">
      <path clip-path="url(#p27ca5d5f36)" d="M 565.40947 519.4 
L 565.40947 285.65 
" style="fill:none;stroke:#ffffff;stroke-linecap:round;"/>
     </g>
     <g id="text_48">
      <!-- 1.5 -->
      <g style="fill:#262626;" transform="translate(557.76447 536.773594)scale(0.11 -0.11)">
       <use xlink:href="#ArialMT-31"/>
       <use x="55.615234" xlink:href="#ArialMT-2e"/>
       <use x="83.398438" xlink:href="#ArialMT-35"/>
      </g>
     </g>
    </g>
    <g id="text_49">
     <!-- $v_0$ Kernel Width -->
     <g style="fill:#262626;" transform="translate(393.1375 557.275469)scale(0.2 -0.2)">
      <use transform="translate(0 0.421875)" xlink:href="#DejaVuSans-Oblique-76"/>
      <use transform="translate(59.179688 -15.984375)scale(0.7)" xlink:href="#DejaVuSans-30"/>
      <use transform="translate(106.450195 0.421875)" xlink:href="#ArialMT-20"/>
      <use transform="translate(134.233398 0.421875)" xlink:href="#ArialMT-4b"/>
      <use transform="translate(200.932617 0.421875)" xlink:href="#ArialMT-65"/>
      <use transform="translate(256.547852 0.421875)" xlink:href="#ArialMT-72"/>
      <use transform="translate(289.848633 0.421875)" xlink:href="#ArialMT-6e"/>
      <use transform="translate(345.463867 0.421875)" xlink:href="#ArialMT-65"/>
      <use transform="translate(401.079102 0.421875)" xlink:href="#ArialMT-6c"/>
      <use transform="translate(423.295898 0.421875)" xlink:href="#ArialMT-20"/>
      <use transform="translate(451.079102 0.421875)" xlink:href="#ArialMT-57"/>
      <use transform="translate(545.463867 0.421875)" xlink:href="#ArialMT-69"/>
      <use transform="translate(567.680664 0.421875)" xlink:href="#ArialMT-64"/>
      <use transform="translate(623.295898 0.421875)" xlink:href="#ArialMT-74"/>
      <use transform="translate(651.079102 0.421875)" xlink:href="#ArialMT-68"/>
     </g>
    </g>
   </g>
   <g id="matplotlib.axis_10">
    <g id="ytick_26">
     <g id="line2d_58">
      <path clip-path="url(#p27ca5d5f36)" d="M 352.108333 487.118088 
L 575.566667 487.118088 
" style="fill:none;stroke:#ffffff;stroke-linecap:round;"/>
     </g>
     <g id="text_50">
      <!-- −0.02 -->
      <g style="fill:#262626;" transform="translate(314.776615 491.054885)scale(0.11 -0.11)">
       <use xlink:href="#ArialMT-2212"/>
       <use x="58.398438" xlink:href="#ArialMT-30"/>
       <use x="114.013672" xlink:href="#ArialMT-2e"/>
       <use x="141.796875" xlink:href="#ArialMT-30"/>
       <use x="197.412109" xlink:href="#ArialMT-32"/>
      </g>
     </g>
    </g>
    <g id="ytick_27">
     <g id="line2d_59">
      <path clip-path="url(#p27ca5d5f36)" d="M 352.108333 442.223852 
L 575.566667 442.223852 
" style="fill:none;stroke:#ffffff;stroke-linecap:round;"/>
     </g>
     <g id="text_51">
      <!-- −0.01 -->
      <g style="fill:#262626;" transform="translate(314.776615 446.160649)scale(0.11 -0.11)">
       <use xlink:href="#ArialMT-2212"/>
       <use x="58.398438" xlink:href="#ArialMT-30"/>
       <use x="114.013672" xlink:href="#ArialMT-2e"/>
       <use x="141.796875" xlink:href="#ArialMT-30"/>
       <use x="197.412109" xlink:href="#ArialMT-31"/>
      </g>
     </g>
    </g>
    <g id="ytick_28">
     <g id="line2d_60">
      <path clip-path="url(#p27ca5d5f36)" d="M 352.108333 397.329615 
L 575.566667 397.329615 
" style="fill:none;stroke:#ffffff;stroke-linecap:round;"/>
     </g>
     <g id="text_52">
      <!-- 0.00 -->
      <g style="fill:#262626;" transform="translate(321.201302 401.266412)scale(0.11 -0.11)">
       <use xlink:href="#ArialMT-30"/>
       <use x="55.615234" xlink:href="#ArialMT-2e"/>
       <use x="83.398438" xlink:href="#ArialMT-30"/>
       <use x="139.013672" xlink:href="#ArialMT-30"/>
      </g>
     </g>
    </g>
    <g id="ytick_29">
     <g id="line2d_61">
      <path clip-path="url(#p27ca5d5f36)" d="M 352.108333 352.435379 
L 575.566667 352.435379 
" style="fill:none;stroke:#ffffff;stroke-linecap:round;"/>
     </g>
     <g id="text_53">
      <!-- 0.01 -->
      <g style="fill:#262626;" transform="translate(321.201302 356.372176)scale(0.11 -0.11)">
       <use xlink:href="#ArialMT-30"/>
       <use x="55.615234" xlink:href="#ArialMT-2e"/>
       <use x="83.398438" xlink:href="#ArialMT-30"/>
       <use x="139.013672" xlink:href="#ArialMT-31"/>
      </g>
     </g>
    </g>
    <g id="ytick_30">
     <g id="line2d_62">
      <path clip-path="url(#p27ca5d5f36)" d="M 352.108333 307.541142 
L 575.566667 307.541142 
" style="fill:none;stroke:#ffffff;stroke-linecap:round;"/>
     </g>
     <g id="text_54">
      <!-- 0.02 -->
      <g style="fill:#262626;" transform="translate(321.201302 311.477939)scale(0.11 -0.11)">
       <use xlink:href="#ArialMT-30"/>
       <use x="55.615234" xlink:href="#ArialMT-2e"/>
       <use x="83.398438" xlink:href="#ArialMT-30"/>
       <use x="139.013672" xlink:href="#ArialMT-32"/>
      </g>
     </g>
    </g>
   </g>
   <g id="line2d_63">
    <path clip-path="url(#p27ca5d5f36)" d="M 362.26553 397.329615 
L 366.411325 397.329615 
L 370.55712 397.329615 
L 374.702914 397.329615 
L 378.848709 397.329615 
L 382.994504 397.329623 
L 387.140298 397.315318 
L 391.286093 397.718019 
L 395.431888 398.023918 
L 399.577682 402.2409 
L 403.723477 428.337189 
L 407.869272 365.652108 
L 412.015066 409.455975 
L 416.160861 418.856429 
L 420.306656 374.77631 
L 424.452451 427.185535 
L 428.598245 392.76234 
L 432.74404 408.512544 
L 436.889835 447.683973 
L 441.035629 425.867783 
L 445.181424 403.02101 
L 449.327219 415.07427 
L 453.473013 361.530468 
L 457.618808 396.548714 
L 461.764603 421.124823 
L 465.910397 391.332936 
L 470.056192 423.809403 
L 474.201987 403.254618 
L 478.347781 408.20238 
L 482.493576 456.266202 
L 486.639371 388.680123 
L 490.785165 437.114896 
L 494.93096 372.466836 
L 499.076755 380.267594 
L 503.222549 399.558003 
L 507.368344 419.910696 
L 511.514139 438.059004 
L 515.659934 409.32137 
L 519.805728 432.12028 
L 523.951523 387.718337 
L 528.097318 406.413492 
L 532.243112 431.81045 
L 536.388907 375.300316 
L 540.534702 406.632851 
L 544.680496 373.511096 
L 548.826291 384.836376 
L 552.972086 410.676177 
L 557.11788 373.292469 
L 561.263675 367.266001 
L 565.40947 384.078171 
" style="fill:none;stroke:#4c72b0;stroke-dasharray:9,3;stroke-dashoffset:0;stroke-width:1.5;"/>
   </g>
   <g id="line2d_64">
    <path clip-path="url(#p27ca5d5f36)" d="M 362.26553 397.329615 
L 366.411325 397.329615 
L 370.55712 397.329615 
L 374.702914 397.329615 
L 378.848709 397.329615 
L 382.994504 397.329634 
L 387.140298 397.35509 
L 391.286093 397.611539 
L 395.431888 404.591118 
L 399.577682 387.357665 
L 403.723477 349.984634 
L 407.869272 473.70204 
L 412.015066 485.250992 
L 416.160861 406.860041 
L 420.306656 411.888457 
L 424.452451 508.628625 
L 428.598245 486.254233 
L 432.74404 508.775 
L 436.889835 296.275 
L 441.035629 386.455278 
L 445.181424 383.381654 
L 449.327219 383.038889 
L 453.473013 393.258976 
L 457.618808 356.512108 
L 461.764603 366.204731 
L 465.910397 378.085512 
L 470.056192 450.004341 
L 474.201987 403.207565 
L 478.347781 428.830116 
L 482.493576 380.674987 
L 486.639371 431.832394 
L 490.785165 397.45061 
L 494.93096 373.198949 
L 499.076755 411.867464 
L 503.222549 394.130826 
L 507.368344 347.840368 
L 511.514139 344.508987 
L 515.659934 428.970395 
L 519.805728 346.453729 
L 523.951523 365.521047 
L 528.097318 366.165496 
L 532.243112 364.44993 
L 536.388907 352.207335 
L 540.534702 386.526092 
L 544.680496 388.369621 
L 548.826291 391.214295 
L 552.972086 419.13545 
L 557.11788 396.560181 
L 561.263675 323.92906 
L 565.40947 362.469255 
" style="fill:none;stroke:#dd8452;stroke-dasharray:12,7.5;stroke-dashoffset:0;stroke-width:1.5;"/>
   </g>
   <g id="line2d_65">
    <path clip-path="url(#p27ca5d5f36)" d="M 362.26553 397.329615 
L 366.411325 397.329615 
L 370.55712 397.329615 
L 374.702914 397.329615 
L 378.848709 397.329615 
L 382.994504 397.329641 
L 387.140298 397.32163 
L 391.286093 397.631775 
L 395.431888 397.160464 
L 399.577682 398.119089 
L 403.723477 365.638563 
L 407.869272 386.952439 
L 412.015066 366.256513 
L 416.160861 427.306767 
L 420.306656 400.810009 
L 424.452451 433.559085 
L 428.598245 374.913338 
L 432.74404 422.610479 
L 436.889835 373.025746 
L 441.035629 379.903488 
L 445.181424 353.289405 
L 449.327219 422.986424 
L 453.473013 380.74295 
L 457.618808 415.153509 
L 461.764603 377.407918 
L 465.910397 401.13225 
L 470.056192 342.815392 
L 474.201987 390.897388 
L 478.347781 380.358106 
L 482.493576 420.996687 
L 486.639371 345.717292 
L 490.785165 377.82811 
L 494.93096 411.925644 
L 499.076755 364.46279 
L 503.222549 399.573976 
L 507.368344 395.871029 
L 511.514139 412.878053 
L 515.659934 366.436104 
L 519.805728 408.627698 
L 523.951523 431.897597 
L 528.097318 434.544618 
L 532.243112 422.88817 
L 536.388907 428.650505 
L 540.534702 399.876847 
L 544.680496 377.316569 
L 548.826291 410.992244 
L 552.972086 377.258845 
L 557.11788 363.415423 
L 561.263675 389.465663 
L 565.40947 397.217547 
" style="fill:none;stroke:#55a868;stroke-dasharray:1.5,0;stroke-dashoffset:0;stroke-width:1.5;"/>
   </g>
   <g id="patch_23">
    <path d="M 352.108333 519.4 
L 352.108333 285.65 
" style="fill:none;stroke:#ffffff;stroke-linecap:square;stroke-linejoin:miter;stroke-width:1.25;"/>
   </g>
   <g id="patch_24">
    <path d="M 575.566667 519.4 
L 575.566667 285.65 
" style="fill:none;stroke:#ffffff;stroke-linecap:square;stroke-linejoin:miter;stroke-width:1.25;"/>
   </g>
   <g id="patch_25">
    <path d="M 352.108333 519.4 
L 575.566667 519.4 
" style="fill:none;stroke:#ffffff;stroke-linecap:square;stroke-linejoin:miter;stroke-width:1.25;"/>
   </g>
   <g id="patch_26">
    <path d="M 352.108333 285.65 
L 575.566667 285.65 
" style="fill:none;stroke:#ffffff;stroke-linecap:square;stroke-linejoin:miter;stroke-width:1.25;"/>
   </g>
  </g>
  <g id="axes_6">
   <g id="patch_27">
    <path d="M 629.741667 519.4 
L 853.2 519.4 
L 853.2 285.65 
L 629.741667 285.65 
z
" style="fill:#eaeaf2;"/>
   </g>
   <g id="matplotlib.axis_11">
    <g id="xtick_21">
     <g id="line2d_66">
      <path clip-path="url(#p0b41c82873)" d="M 639.763344 519.4 
L 639.763344 285.65 
" style="fill:none;stroke:#ffffff;stroke-linecap:round;"/>
     </g>
     <g id="text_55">
      <!-- 0.0 -->
      <g style="fill:#262626;" transform="translate(632.118344 536.773594)scale(0.11 -0.11)">
       <use xlink:href="#ArialMT-30"/>
       <use x="55.615234" xlink:href="#ArialMT-2e"/>
       <use x="83.398438" xlink:href="#ArialMT-30"/>
      </g>
     </g>
    </g>
    <g id="xtick_22">
     <g id="line2d_67">
      <path clip-path="url(#p0b41c82873)" d="M 707.523164 519.4 
L 707.523164 285.65 
" style="fill:none;stroke:#ffffff;stroke-linecap:round;"/>
     </g>
     <g id="text_56">
      <!-- 0.5 -->
      <g style="fill:#262626;" transform="translate(699.878164 536.773594)scale(0.11 -0.11)">
       <use xlink:href="#ArialMT-30"/>
       <use x="55.615234" xlink:href="#ArialMT-2e"/>
       <use x="83.398438" xlink:href="#ArialMT-35"/>
      </g>
     </g>
    </g>
    <g id="xtick_23">
     <g id="line2d_68">
      <path clip-path="url(#p0b41c82873)" d="M 775.282983 519.4 
L 775.282983 285.65 
" style="fill:none;stroke:#ffffff;stroke-linecap:round;"/>
     </g>
     <g id="text_57">
      <!-- 1.0 -->
      <g style="fill:#262626;" transform="translate(767.637983 536.773594)scale(0.11 -0.11)">
       <use xlink:href="#ArialMT-31"/>
       <use x="55.615234" xlink:href="#ArialMT-2e"/>
       <use x="83.398438" xlink:href="#ArialMT-30"/>
      </g>
     </g>
    </g>
    <g id="xtick_24">
     <g id="line2d_69">
      <path clip-path="url(#p0b41c82873)" d="M 843.042803 519.4 
L 843.042803 285.65 
" style="fill:none;stroke:#ffffff;stroke-linecap:round;"/>
     </g>
     <g id="text_58">
      <!-- 1.5 -->
      <g style="fill:#262626;" transform="translate(835.397803 536.773594)scale(0.11 -0.11)">
       <use xlink:href="#ArialMT-31"/>
       <use x="55.615234" xlink:href="#ArialMT-2e"/>
       <use x="83.398438" xlink:href="#ArialMT-35"/>
      </g>
     </g>
    </g>
    <g id="text_59">
     <!-- $t$ Kernel Width -->
     <g style="fill:#262626;" transform="translate(677.470833 557.275469)scale(0.2 -0.2)">
      <use transform="translate(0 0.421875)" xlink:href="#DejaVuSans-Oblique-74"/>
      <use transform="translate(39.208984 0.421875)" xlink:href="#ArialMT-20"/>
      <use transform="translate(66.992188 0.421875)" xlink:href="#ArialMT-4b"/>
      <use transform="translate(133.691406 0.421875)" xlink:href="#ArialMT-65"/>
      <use transform="translate(189.306641 0.421875)" xlink:href="#ArialMT-72"/>
      <use transform="translate(222.607422 0.421875)" xlink:href="#ArialMT-6e"/>
      <use transform="translate(278.222656 0.421875)" xlink:href="#ArialMT-65"/>
      <use transform="translate(333.837891 0.421875)" xlink:href="#ArialMT-6c"/>
      <use transform="translate(356.054688 0.421875)" xlink:href="#ArialMT-20"/>
      <use transform="translate(383.837891 0.421875)" xlink:href="#ArialMT-57"/>
      <use transform="translate(478.222656 0.421875)" xlink:href="#ArialMT-69"/>
      <use transform="translate(500.439453 0.421875)" xlink:href="#ArialMT-64"/>
      <use transform="translate(556.054688 0.421875)" xlink:href="#ArialMT-74"/>
      <use transform="translate(583.837891 0.421875)" xlink:href="#ArialMT-68"/>
     </g>
    </g>
   </g>
   <g id="matplotlib.axis_12">
    <g id="ytick_31">
     <g id="line2d_70">
      <path clip-path="url(#p0b41c82873)" d="M 629.741667 518.399187 
L 853.2 518.399187 
" style="fill:none;stroke:#ffffff;stroke-linecap:round;"/>
     </g>
     <g id="text_60">
      <!-- −0.04 -->
      <g style="fill:#262626;" transform="translate(592.409948 522.335984)scale(0.11 -0.11)">
       <use xlink:href="#ArialMT-2212"/>
       <use x="58.398438" xlink:href="#ArialMT-30"/>
       <use x="114.013672" xlink:href="#ArialMT-2e"/>
       <use x="141.796875" xlink:href="#ArialMT-30"/>
       <use x="197.412109" xlink:href="#ArialMT-34"/>
      </g>
     </g>
    </g>
    <g id="ytick_32">
     <g id="line2d_71">
      <path clip-path="url(#p0b41c82873)" d="M 629.741667 481.27079 
L 853.2 481.27079 
" style="fill:none;stroke:#ffffff;stroke-linecap:round;"/>
     </g>
     <g id="text_61">
      <!-- −0.03 -->
      <g style="fill:#262626;" transform="translate(592.409948 485.207587)scale(0.11 -0.11)">
       <defs>
        <path d="M 269 1209 
L 831 1284 
Q 928 806 1161 595 
Q 1394 384 1728 384 
Q 2125 384 2398 659 
Q 2672 934 2672 1341 
Q 2672 1728 2419 1979 
Q 2166 2231 1775 2231 
Q 1616 2231 1378 2169 
L 1441 2663 
Q 1497 2656 1531 2656 
Q 1891 2656 2178 2843 
Q 2466 3031 2466 3422 
Q 2466 3731 2256 3934 
Q 2047 4138 1716 4138 
Q 1388 4138 1169 3931 
Q 950 3725 888 3313 
L 325 3413 
Q 428 3978 793 4289 
Q 1159 4600 1703 4600 
Q 2078 4600 2393 4439 
Q 2709 4278 2876 4000 
Q 3044 3722 3044 3409 
Q 3044 3113 2884 2869 
Q 2725 2625 2413 2481 
Q 2819 2388 3044 2092 
Q 3269 1797 3269 1353 
Q 3269 753 2831 336 
Q 2394 -81 1725 -81 
Q 1122 -81 723 278 
Q 325 638 269 1209 
z
" id="ArialMT-33" transform="scale(0.015625)"/>
       </defs>
       <use xlink:href="#ArialMT-2212"/>
       <use x="58.398438" xlink:href="#ArialMT-30"/>
       <use x="114.013672" xlink:href="#ArialMT-2e"/>
       <use x="141.796875" xlink:href="#ArialMT-30"/>
       <use x="197.412109" xlink:href="#ArialMT-33"/>
      </g>
     </g>
    </g>
    <g id="ytick_33">
     <g id="line2d_72">
      <path clip-path="url(#p0b41c82873)" d="M 629.741667 444.142393 
L 853.2 444.142393 
" style="fill:none;stroke:#ffffff;stroke-linecap:round;"/>
     </g>
     <g id="text_62">
      <!-- −0.02 -->
      <g style="fill:#262626;" transform="translate(592.409948 448.07919)scale(0.11 -0.11)">
       <use xlink:href="#ArialMT-2212"/>
       <use x="58.398438" xlink:href="#ArialMT-30"/>
       <use x="114.013672" xlink:href="#ArialMT-2e"/>
       <use x="141.796875" xlink:href="#ArialMT-30"/>
       <use x="197.412109" xlink:href="#ArialMT-32"/>
      </g>
     </g>
    </g>
    <g id="ytick_34">
     <g id="line2d_73">
      <path clip-path="url(#p0b41c82873)" d="M 629.741667 407.013996 
L 853.2 407.013996 
" style="fill:none;stroke:#ffffff;stroke-linecap:round;"/>
     </g>
     <g id="text_63">
      <!-- −0.01 -->
      <g style="fill:#262626;" transform="translate(592.409948 410.950793)scale(0.11 -0.11)">
       <use xlink:href="#ArialMT-2212"/>
       <use x="58.398438" xlink:href="#ArialMT-30"/>
       <use x="114.013672" xlink:href="#ArialMT-2e"/>
       <use x="141.796875" xlink:href="#ArialMT-30"/>
       <use x="197.412109" xlink:href="#ArialMT-31"/>
      </g>
     </g>
    </g>
    <g id="ytick_35">
     <g id="line2d_74">
      <path clip-path="url(#p0b41c82873)" d="M 629.741667 369.885599 
L 853.2 369.885599 
" style="fill:none;stroke:#ffffff;stroke-linecap:round;"/>
     </g>
     <g id="text_64">
      <!-- 0.00 -->
      <g style="fill:#262626;" transform="translate(598.834635 373.822396)scale(0.11 -0.11)">
       <use xlink:href="#ArialMT-30"/>
       <use x="55.615234" xlink:href="#ArialMT-2e"/>
       <use x="83.398438" xlink:href="#ArialMT-30"/>
       <use x="139.013672" xlink:href="#ArialMT-30"/>
      </g>
     </g>
    </g>
    <g id="ytick_36">
     <g id="line2d_75">
      <path clip-path="url(#p0b41c82873)" d="M 629.741667 332.757202 
L 853.2 332.757202 
" style="fill:none;stroke:#ffffff;stroke-linecap:round;"/>
     </g>
     <g id="text_65">
      <!-- 0.01 -->
      <g style="fill:#262626;" transform="translate(598.834635 336.693999)scale(0.11 -0.11)">
       <use xlink:href="#ArialMT-30"/>
       <use x="55.615234" xlink:href="#ArialMT-2e"/>
       <use x="83.398438" xlink:href="#ArialMT-30"/>
       <use x="139.013672" xlink:href="#ArialMT-31"/>
      </g>
     </g>
    </g>
    <g id="ytick_37">
     <g id="line2d_76">
      <path clip-path="url(#p0b41c82873)" d="M 629.741667 295.628805 
L 853.2 295.628805 
" style="fill:none;stroke:#ffffff;stroke-linecap:round;"/>
     </g>
     <g id="text_66">
      <!-- 0.02 -->
      <g style="fill:#262626;" transform="translate(598.834635 299.565602)scale(0.11 -0.11)">
       <use xlink:href="#ArialMT-30"/>
       <use x="55.615234" xlink:href="#ArialMT-2e"/>
       <use x="83.398438" xlink:href="#ArialMT-30"/>
       <use x="139.013672" xlink:href="#ArialMT-32"/>
      </g>
     </g>
    </g>
   </g>
   <g id="line2d_77">
    <path clip-path="url(#p0b41c82873)" d="M 639.898864 369.885599 
L 644.044658 369.885599 
L 648.190453 369.885599 
L 652.336248 369.885599 
L 656.482042 369.885599 
L 660.627837 369.885607 
L 664.773632 369.860707 
L 668.919426 370.273157 
L 673.065221 372.46569 
L 677.211016 347.529863 
L 681.35681 421.865941 
L 685.502605 379.730068 
L 689.6484 360.896119 
L 693.794194 314.036752 
L 697.939989 296.275 
L 702.085784 339.148304 
L 706.231579 361.86224 
L 710.377373 380.81397 
L 714.523168 378.21279 
L 718.668963 390.8067 
L 722.814757 344.135925 
L 726.960552 331.741061 
L 731.106347 344.4848 
L 735.252141 355.434103 
L 739.397936 354.829147 
L 743.543731 339.971699 
L 747.689525 326.31744 
L 751.83532 324.985306 
L 755.981115 348.942205 
L 760.126909 348.912637 
L 764.272704 328.937291 
L 768.418499 307.798391 
L 772.564293 340.464392 
L 776.710088 347.894183 
L 780.855883 341.749948 
L 785.001677 315.423186 
L 789.147472 333.228804 
L 793.293267 365.901364 
L 797.439062 341.466355 
L 801.584856 332.032535 
L 805.730651 362.506641 
L 809.876446 362.73965 
L 814.02224 377.70753 
L 818.168035 366.200541 
L 822.31383 369.903692 
L 826.459624 343.487992 
L 830.605419 313.655215 
L 834.751214 337.250548 
L 838.897008 330.469398 
L 843.042803 367.604172 
" style="fill:none;stroke:#4c72b0;stroke-dasharray:9,3;stroke-dashoffset:0;stroke-width:1.5;"/>
   </g>
   <g id="line2d_78">
    <path clip-path="url(#p0b41c82873)" d="M 639.898864 369.885599 
L 644.044658 369.885599 
L 648.190453 369.885599 
L 652.336248 369.885599 
L 656.482042 369.885599 
L 660.627837 369.88557 
L 664.773632 369.877588 
L 668.919426 370.671818 
L 673.065221 368.51634 
L 677.211016 357.244593 
L 681.35681 344.696433 
L 685.502605 460.739697 
L 689.6484 406.888653 
L 693.794194 399.787148 
L 697.939989 366.786155 
L 702.085784 354.749267 
L 706.231579 508.775 
L 710.377373 387.262236 
L 714.523168 418.861813 
L 718.668963 394.910691 
L 722.814757 446.276147 
L 726.960552 431.004362 
L 731.106347 414.127954 
L 735.252141 382.870971 
L 739.397936 378.046175 
L 743.543731 423.303434 
L 747.689525 368.750405 
L 751.83532 424.154362 
L 755.981115 367.870325 
L 760.126909 400.14006 
L 764.272704 388.13228 
L 768.418499 438.727388 
L 772.564293 347.791573 
L 776.710088 356.838447 
L 780.855883 393.613397 
L 785.001677 386.368526 
L 789.147472 471.967639 
L 793.293267 379.929125 
L 797.439062 431.397162 
L 801.584856 411.236891 
L 805.730651 469.004424 
L 809.876446 402.998522 
L 814.02224 442.779806 
L 818.168035 385.224496 
L 822.31383 409.281394 
L 826.459624 367.955351 
L 830.605419 404.335998 
L 834.751214 392.387363 
L 838.897008 452.053421 
L 843.042803 415.524701 
" style="fill:none;stroke:#dd8452;stroke-dasharray:12,7.5;stroke-dashoffset:0;stroke-width:1.5;"/>
   </g>
   <g id="line2d_79">
    <path clip-path="url(#p0b41c82873)" d="M 639.898864 369.885599 
L 644.044658 369.885599 
L 648.190453 369.885599 
L 652.336248 369.885599 
L 656.482042 369.885599 
L 660.627837 369.885604 
L 664.773632 369.880954 
L 668.919426 370.326617 
L 673.065221 369.47001 
L 677.211016 389.864498 
L 681.35681 353.629692 
L 685.502605 377.803035 
L 689.6484 374.73696 
L 693.794194 372.10829 
L 697.939989 365.227164 
L 702.085784 461.92548 
L 706.231579 368.471199 
L 710.377373 358.289881 
L 714.523168 375.104422 
L 718.668963 362.006535 
L 722.814757 358.328109 
L 726.960552 344.640409 
L 731.106347 380.348399 
L 735.252141 373.006642 
L 739.397936 367.056575 
L 743.543731 334.11297 
L 747.689525 336.846001 
L 751.83532 356.13521 
L 755.981115 373.337189 
L 760.126909 374.619376 
L 764.272704 349.562776 
L 768.418499 347.898559 
L 772.564293 360.618068 
L 776.710088 353.981076 
L 780.855883 336.736498 
L 785.001677 360.458666 
L 789.147472 359.705736 
L 793.293267 341.63476 
L 797.439062 368.150339 
L 801.584856 372.117985 
L 805.730651 354.394722 
L 809.876446 386.600085 
L 814.02224 353.784527 
L 818.168035 385.327979 
L 822.31383 337.390817 
L 826.459624 372.370203 
L 830.605419 346.490085 
L 834.751214 355.595045 
L 838.897008 344.476821 
L 843.042803 376.433176 
" style="fill:none;stroke:#55a868;stroke-dasharray:1.5,0;stroke-dashoffset:0;stroke-width:1.5;"/>
   </g>
   <g id="patch_28">
    <path d="M 629.741667 519.4 
L 629.741667 285.65 
" style="fill:none;stroke:#ffffff;stroke-linecap:square;stroke-linejoin:miter;stroke-width:1.25;"/>
   </g>
   <g id="patch_29">
    <path d="M 853.2 519.4 
L 853.2 285.65 
" style="fill:none;stroke:#ffffff;stroke-linecap:square;stroke-linejoin:miter;stroke-width:1.25;"/>
   </g>
   <g id="patch_30">
    <path d="M 629.741667 519.4 
L 853.2 519.4 
" style="fill:none;stroke:#ffffff;stroke-linecap:square;stroke-linejoin:miter;stroke-width:1.25;"/>
   </g>
   <g id="patch_31">
    <path d="M 629.741667 285.65 
L 853.2 285.65 
" style="fill:none;stroke:#ffffff;stroke-linecap:square;stroke-linejoin:miter;stroke-width:1.25;"/>
   </g>
  </g>
 </g>
 <defs>
  <clipPath id="p79a440c1c1">
   <rect height="233.75" width="223.458333" x="74.475" y="21.6"/>
  </clipPath>
  <clipPath id="pf00a926818">
   <rect height="233.75" width="223.458333" x="352.108333" y="21.6"/>
  </clipPath>
  <clipPath id="p5d8bd01eda">
   <rect height="233.75" width="223.458333" x="629.741667" y="21.6"/>
  </clipPath>
  <clipPath id="pc4b13650b4">
   <rect height="233.75" width="223.458333" x="74.475" y="285.65"/>
  </clipPath>
  <clipPath id="p27ca5d5f36">
   <rect height="233.75" width="223.458333" x="352.108333" y="285.65"/>
  </clipPath>
  <clipPath id="p0b41c82873">
   <rect height="233.75" width="223.458333" x="629.741667" y="285.65"/>
  </clipPath>
 </defs>
</svg>
