<?xml version="1.0" encoding="utf-8" standalone="no"?>
<!DOCTYPE svg PUBLIC "-//W3C//DTD SVG 1.1//EN"
  "http://www.w3.org/Graphics/SVG/1.1/DTD/svg11.dtd">
<svg height="482.932187pt" version="1.1" viewBox="0 0 1288.000938 482.932187" width="1288.000938pt" xmlns="http://www.w3.org/2000/svg" xmlns:xlink="http://www.w3.org/1999/xlink">
 <metadata>
  <rdf:RDF xmlns:cc="http://creativecommons.org/ns#" xmlns:dc="http://purl.org/dc/elements/1.1/" xmlns:rdf="http://www.w3.org/1999/02/22-rdf-syntax-ns#">
   <cc:Work>
    <dc:type rdf:resource="http://purl.org/dc/dcmitype/StillImage"/>
    <dc:date>2021-10-08T21:31:17.651212</dc:date>
    <dc:format>image/svg+xml</dc:format>
    <dc:creator>
     <cc:Agent>
      <dc:title>Matplotlib v3.4.2, https://matplotlib.org/</dc:title>
     </cc:Agent>
    </dc:creator>
   </cc:Work>
  </rdf:RDF>
 </metadata>
 <defs>
  <style type="text/css">*{stroke-linecap:butt;stroke-linejoin:round;}</style>
 </defs>
 <g id="figure_1">
  <g id="patch_1">
   <path d="M 0 482.932187 
L 1288.000938 482.932187 
L 1288.000938 0 
L 0 0 
z
" style="fill:none;"/>
  </g>
  <g id="axes_1">
   <g id="patch_2">
    <path d="M 46.775938 414.02875 
L 416.250938 414.02875 
L 416.250938 71.14875 
L 46.775938 71.14875 
z
" style="fill:#eaeaf2;"/>
   </g>
   <g id="matplotlib.axis_1">
    <g id="xtick_1">
     <g id="line2d_1">
      <path clip-path="url(#p848113af05)" d="M 63.570256 414.02875 
L 63.570256 71.14875 
" style="fill:none;stroke:#ffffff;stroke-linecap:round;"/>
     </g>
     <g id="text_1">
      <!-- −2 -->
      <g style="fill:#262626;" transform="translate(55.589162 433.549688)scale(0.14 -0.14)">
       <defs>
        <path d="M 3381 1997 
L 356 1997 
L 356 2522 
L 3381 2522 
L 3381 1997 
z
" id="ArialMT-2212" transform="scale(0.015625)"/>
        <path d="M 3222 541 
L 3222 0 
L 194 0 
Q 188 203 259 391 
Q 375 700 629 1000 
Q 884 1300 1366 1694 
Q 2113 2306 2375 2664 
Q 2638 3022 2638 3341 
Q 2638 3675 2398 3904 
Q 2159 4134 1775 4134 
Q 1369 4134 1125 3890 
Q 881 3647 878 3216 
L 300 3275 
Q 359 3922 746 4261 
Q 1134 4600 1788 4600 
Q 2447 4600 2831 4234 
Q 3216 3869 3216 3328 
Q 3216 3053 3103 2787 
Q 2991 2522 2730 2228 
Q 2469 1934 1863 1422 
Q 1356 997 1212 845 
Q 1069 694 975 541 
L 3222 541 
z
" id="ArialMT-32" transform="scale(0.015625)"/>
       </defs>
       <use xlink:href="#ArialMT-2212"/>
       <use x="58.398438" xlink:href="#ArialMT-32"/>
      </g>
     </g>
    </g>
    <g id="xtick_2">
     <g id="line2d_2">
      <path clip-path="url(#p848113af05)" d="M 147.541847 414.02875 
L 147.541847 71.14875 
" style="fill:none;stroke:#ffffff;stroke-linecap:round;"/>
     </g>
     <g id="text_2">
      <!-- −1 -->
      <g style="fill:#262626;" transform="translate(139.560753 433.549688)scale(0.14 -0.14)">
       <defs>
        <path d="M 2384 0 
L 1822 0 
L 1822 3584 
Q 1619 3391 1289 3197 
Q 959 3003 697 2906 
L 697 3450 
Q 1169 3672 1522 3987 
Q 1875 4303 2022 4600 
L 2384 4600 
L 2384 0 
z
" id="ArialMT-31" transform="scale(0.015625)"/>
       </defs>
       <use xlink:href="#ArialMT-2212"/>
       <use x="58.398438" xlink:href="#ArialMT-31"/>
      </g>
     </g>
    </g>
    <g id="xtick_3">
     <g id="line2d_3">
      <path clip-path="url(#p848113af05)" d="M 231.513438 414.02875 
L 231.513438 71.14875 
" style="fill:none;stroke:#ffffff;stroke-linecap:round;"/>
     </g>
     <g id="text_3">
      <!-- 0 -->
      <g style="fill:#262626;" transform="translate(227.620781 433.549688)scale(0.14 -0.14)">
       <defs>
        <path d="M 266 2259 
Q 266 3072 433 3567 
Q 600 4063 929 4331 
Q 1259 4600 1759 4600 
Q 2128 4600 2406 4451 
Q 2684 4303 2865 4023 
Q 3047 3744 3150 3342 
Q 3253 2941 3253 2259 
Q 3253 1453 3087 958 
Q 2922 463 2592 192 
Q 2263 -78 1759 -78 
Q 1097 -78 719 397 
Q 266 969 266 2259 
z
M 844 2259 
Q 844 1131 1108 757 
Q 1372 384 1759 384 
Q 2147 384 2411 759 
Q 2675 1134 2675 2259 
Q 2675 3391 2411 3762 
Q 2147 4134 1753 4134 
Q 1366 4134 1134 3806 
Q 844 3388 844 2259 
z
" id="ArialMT-30" transform="scale(0.015625)"/>
       </defs>
       <use xlink:href="#ArialMT-30"/>
      </g>
     </g>
    </g>
    <g id="xtick_4">
     <g id="line2d_4">
      <path clip-path="url(#p848113af05)" d="M 315.485028 414.02875 
L 315.485028 71.14875 
" style="fill:none;stroke:#ffffff;stroke-linecap:round;"/>
     </g>
     <g id="text_4">
      <!-- 1 -->
      <g style="fill:#262626;" transform="translate(311.592372 433.549688)scale(0.14 -0.14)">
       <use xlink:href="#ArialMT-31"/>
      </g>
     </g>
    </g>
    <g id="xtick_5">
     <g id="line2d_5">
      <path clip-path="url(#p848113af05)" d="M 399.456619 414.02875 
L 399.456619 71.14875 
" style="fill:none;stroke:#ffffff;stroke-linecap:round;"/>
     </g>
     <g id="text_5">
      <!-- 2 -->
      <g style="fill:#262626;" transform="translate(395.563963 433.549688)scale(0.14 -0.14)">
       <use xlink:href="#ArialMT-32"/>
      </g>
     </g>
    </g>
    <g id="text_6">
     <!-- Position -->
     <g style="fill:#262626;" transform="translate(195.938438 454.647812)scale(0.2 -0.2)">
      <defs>
       <path d="M 494 0 
L 494 4581 
L 2222 4581 
Q 2678 4581 2919 4538 
Q 3256 4481 3484 4323 
Q 3713 4166 3852 3881 
Q 3991 3597 3991 3256 
Q 3991 2672 3619 2267 
Q 3247 1863 2275 1863 
L 1100 1863 
L 1100 0 
L 494 0 
z
M 1100 2403 
L 2284 2403 
Q 2872 2403 3119 2622 
Q 3366 2841 3366 3238 
Q 3366 3525 3220 3729 
Q 3075 3934 2838 4000 
Q 2684 4041 2272 4041 
L 1100 4041 
L 1100 2403 
z
" id="ArialMT-50" transform="scale(0.015625)"/>
       <path d="M 213 1659 
Q 213 2581 725 3025 
Q 1153 3394 1769 3394 
Q 2453 3394 2887 2945 
Q 3322 2497 3322 1706 
Q 3322 1066 3130 698 
Q 2938 331 2570 128 
Q 2203 -75 1769 -75 
Q 1072 -75 642 372 
Q 213 819 213 1659 
z
M 791 1659 
Q 791 1022 1069 705 
Q 1347 388 1769 388 
Q 2188 388 2466 706 
Q 2744 1025 2744 1678 
Q 2744 2294 2464 2611 
Q 2184 2928 1769 2928 
Q 1347 2928 1069 2612 
Q 791 2297 791 1659 
z
" id="ArialMT-6f" transform="scale(0.015625)"/>
       <path d="M 197 991 
L 753 1078 
Q 800 744 1014 566 
Q 1228 388 1613 388 
Q 2000 388 2187 545 
Q 2375 703 2375 916 
Q 2375 1106 2209 1216 
Q 2094 1291 1634 1406 
Q 1016 1563 777 1677 
Q 538 1791 414 1992 
Q 291 2194 291 2438 
Q 291 2659 392 2848 
Q 494 3038 669 3163 
Q 800 3259 1026 3326 
Q 1253 3394 1513 3394 
Q 1903 3394 2198 3281 
Q 2494 3169 2634 2976 
Q 2775 2784 2828 2463 
L 2278 2388 
Q 2241 2644 2061 2787 
Q 1881 2931 1553 2931 
Q 1166 2931 1000 2803 
Q 834 2675 834 2503 
Q 834 2394 903 2306 
Q 972 2216 1119 2156 
Q 1203 2125 1616 2013 
Q 2213 1853 2448 1751 
Q 2684 1650 2818 1456 
Q 2953 1263 2953 975 
Q 2953 694 2789 445 
Q 2625 197 2315 61 
Q 2006 -75 1616 -75 
Q 969 -75 630 194 
Q 291 463 197 991 
z
" id="ArialMT-73" transform="scale(0.015625)"/>
       <path d="M 425 3934 
L 425 4581 
L 988 4581 
L 988 3934 
L 425 3934 
z
M 425 0 
L 425 3319 
L 988 3319 
L 988 0 
L 425 0 
z
" id="ArialMT-69" transform="scale(0.015625)"/>
       <path d="M 1650 503 
L 1731 6 
Q 1494 -44 1306 -44 
Q 1000 -44 831 53 
Q 663 150 594 308 
Q 525 466 525 972 
L 525 2881 
L 113 2881 
L 113 3319 
L 525 3319 
L 525 4141 
L 1084 4478 
L 1084 3319 
L 1650 3319 
L 1650 2881 
L 1084 2881 
L 1084 941 
Q 1084 700 1114 631 
Q 1144 563 1211 522 
Q 1278 481 1403 481 
Q 1497 481 1650 503 
z
" id="ArialMT-74" transform="scale(0.015625)"/>
       <path d="M 422 0 
L 422 3319 
L 928 3319 
L 928 2847 
Q 1294 3394 1984 3394 
Q 2284 3394 2536 3286 
Q 2788 3178 2913 3003 
Q 3038 2828 3088 2588 
Q 3119 2431 3119 2041 
L 3119 0 
L 2556 0 
L 2556 2019 
Q 2556 2363 2490 2533 
Q 2425 2703 2258 2804 
Q 2091 2906 1866 2906 
Q 1506 2906 1245 2678 
Q 984 2450 984 1813 
L 984 0 
L 422 0 
z
" id="ArialMT-6e" transform="scale(0.015625)"/>
      </defs>
      <use xlink:href="#ArialMT-50"/>
      <use x="66.699219" xlink:href="#ArialMT-6f"/>
      <use x="122.314453" xlink:href="#ArialMT-73"/>
      <use x="172.314453" xlink:href="#ArialMT-69"/>
      <use x="194.53125" xlink:href="#ArialMT-74"/>
      <use x="222.314453" xlink:href="#ArialMT-69"/>
      <use x="244.53125" xlink:href="#ArialMT-6f"/>
      <use x="300.146484" xlink:href="#ArialMT-6e"/>
     </g>
    </g>
   </g>
   <g id="matplotlib.axis_2">
    <g id="ytick_1">
     <g id="line2d_6">
      <path clip-path="url(#p848113af05)" d="M 46.775938 398.453899 
L 416.250938 398.453899 
" style="fill:none;stroke:#ffffff;stroke-linecap:round;"/>
     </g>
     <g id="text_7">
      <!-- 0 -->
      <g style="fill:#262626;" transform="translate(29.490625 403.464368)scale(0.14 -0.14)">
       <use xlink:href="#ArialMT-30"/>
      </g>
     </g>
    </g>
    <g id="ytick_2">
     <g id="line2d_7">
      <path clip-path="url(#p848113af05)" d="M 46.775938 346.500617 
L 416.250938 346.500617 
" style="fill:none;stroke:#ffffff;stroke-linecap:round;"/>
     </g>
     <g id="text_8">
      <!-- 1 -->
      <g style="fill:#262626;" transform="translate(29.490625 351.511086)scale(0.14 -0.14)">
       <use xlink:href="#ArialMT-31"/>
      </g>
     </g>
    </g>
    <g id="ytick_3">
     <g id="line2d_8">
      <path clip-path="url(#p848113af05)" d="M 46.775938 294.547334 
L 416.250938 294.547334 
" style="fill:none;stroke:#ffffff;stroke-linecap:round;"/>
     </g>
     <g id="text_9">
      <!-- 2 -->
      <g style="fill:#262626;" transform="translate(29.490625 299.557803)scale(0.14 -0.14)">
       <use xlink:href="#ArialMT-32"/>
      </g>
     </g>
    </g>
    <g id="ytick_4">
     <g id="line2d_9">
      <path clip-path="url(#p848113af05)" d="M 46.775938 242.594052 
L 416.250938 242.594052 
" style="fill:none;stroke:#ffffff;stroke-linecap:round;"/>
     </g>
     <g id="text_10">
      <!-- 3 -->
      <g style="fill:#262626;" transform="translate(29.490625 247.604521)scale(0.14 -0.14)">
       <defs>
        <path d="M 269 1209 
L 831 1284 
Q 928 806 1161 595 
Q 1394 384 1728 384 
Q 2125 384 2398 659 
Q 2672 934 2672 1341 
Q 2672 1728 2419 1979 
Q 2166 2231 1775 2231 
Q 1616 2231 1378 2169 
L 1441 2663 
Q 1497 2656 1531 2656 
Q 1891 2656 2178 2843 
Q 2466 3031 2466 3422 
Q 2466 3731 2256 3934 
Q 2047 4138 1716 4138 
Q 1388 4138 1169 3931 
Q 950 3725 888 3313 
L 325 3413 
Q 428 3978 793 4289 
Q 1159 4600 1703 4600 
Q 2078 4600 2393 4439 
Q 2709 4278 2876 4000 
Q 3044 3722 3044 3409 
Q 3044 3113 2884 2869 
Q 2725 2625 2413 2481 
Q 2819 2388 3044 2092 
Q 3269 1797 3269 1353 
Q 3269 753 2831 336 
Q 2394 -81 1725 -81 
Q 1122 -81 723 278 
Q 325 638 269 1209 
z
" id="ArialMT-33" transform="scale(0.015625)"/>
       </defs>
       <use xlink:href="#ArialMT-33"/>
      </g>
     </g>
    </g>
    <g id="ytick_5">
     <g id="line2d_10">
      <path clip-path="url(#p848113af05)" d="M 46.775938 190.640769 
L 416.250938 190.640769 
" style="fill:none;stroke:#ffffff;stroke-linecap:round;"/>
     </g>
     <g id="text_11">
      <!-- 4 -->
      <g style="fill:#262626;" transform="translate(29.490625 195.651238)scale(0.14 -0.14)">
       <defs>
        <path d="M 2069 0 
L 2069 1097 
L 81 1097 
L 81 1613 
L 2172 4581 
L 2631 4581 
L 2631 1613 
L 3250 1613 
L 3250 1097 
L 2631 1097 
L 2631 0 
L 2069 0 
z
M 2069 1613 
L 2069 3678 
L 634 1613 
L 2069 1613 
z
" id="ArialMT-34" transform="scale(0.015625)"/>
       </defs>
       <use xlink:href="#ArialMT-34"/>
      </g>
     </g>
    </g>
    <g id="ytick_6">
     <g id="line2d_11">
      <path clip-path="url(#p848113af05)" d="M 46.775938 138.687487 
L 416.250938 138.687487 
" style="fill:none;stroke:#ffffff;stroke-linecap:round;"/>
     </g>
     <g id="text_12">
      <!-- 5 -->
      <g style="fill:#262626;" transform="translate(29.490625 143.697956)scale(0.14 -0.14)">
       <defs>
        <path d="M 266 1200 
L 856 1250 
Q 922 819 1161 601 
Q 1400 384 1738 384 
Q 2144 384 2425 690 
Q 2706 997 2706 1503 
Q 2706 1984 2436 2262 
Q 2166 2541 1728 2541 
Q 1456 2541 1237 2417 
Q 1019 2294 894 2097 
L 366 2166 
L 809 4519 
L 3088 4519 
L 3088 3981 
L 1259 3981 
L 1013 2750 
Q 1425 3038 1878 3038 
Q 2478 3038 2890 2622 
Q 3303 2206 3303 1553 
Q 3303 931 2941 478 
Q 2500 -78 1738 -78 
Q 1113 -78 717 272 
Q 322 622 266 1200 
z
" id="ArialMT-35" transform="scale(0.015625)"/>
       </defs>
       <use xlink:href="#ArialMT-35"/>
      </g>
     </g>
    </g>
    <g id="ytick_7">
     <g id="line2d_12">
      <path clip-path="url(#p848113af05)" d="M 46.775938 86.734205 
L 416.250938 86.734205 
" style="fill:none;stroke:#ffffff;stroke-linecap:round;"/>
     </g>
     <g id="text_13">
      <!-- 6 -->
      <g style="fill:#262626;" transform="translate(29.490625 91.744673)scale(0.14 -0.14)">
       <defs>
        <path d="M 3184 3459 
L 2625 3416 
Q 2550 3747 2413 3897 
Q 2184 4138 1850 4138 
Q 1581 4138 1378 3988 
Q 1113 3794 959 3422 
Q 806 3050 800 2363 
Q 1003 2672 1297 2822 
Q 1591 2972 1913 2972 
Q 2475 2972 2870 2558 
Q 3266 2144 3266 1488 
Q 3266 1056 3080 686 
Q 2894 316 2569 119 
Q 2244 -78 1831 -78 
Q 1128 -78 684 439 
Q 241 956 241 2144 
Q 241 3472 731 4075 
Q 1159 4600 1884 4600 
Q 2425 4600 2770 4297 
Q 3116 3994 3184 3459 
z
M 888 1484 
Q 888 1194 1011 928 
Q 1134 663 1356 523 
Q 1578 384 1822 384 
Q 2178 384 2434 671 
Q 2691 959 2691 1453 
Q 2691 1928 2437 2201 
Q 2184 2475 1800 2475 
Q 1419 2475 1153 2201 
Q 888 1928 888 1484 
z
" id="ArialMT-36" transform="scale(0.015625)"/>
       </defs>
       <use xlink:href="#ArialMT-36"/>
      </g>
     </g>
    </g>
    <g id="text_14">
     <!-- Potential -->
     <g style="fill:#262626;" transform="translate(21.515625 281.502813)rotate(-90)scale(0.2 -0.2)">
      <defs>
       <path d="M 2694 1069 
L 3275 997 
Q 3138 488 2766 206 
Q 2394 -75 1816 -75 
Q 1088 -75 661 373 
Q 234 822 234 1631 
Q 234 2469 665 2931 
Q 1097 3394 1784 3394 
Q 2450 3394 2872 2941 
Q 3294 2488 3294 1666 
Q 3294 1616 3291 1516 
L 816 1516 
Q 847 969 1125 678 
Q 1403 388 1819 388 
Q 2128 388 2347 550 
Q 2566 713 2694 1069 
z
M 847 1978 
L 2700 1978 
Q 2663 2397 2488 2606 
Q 2219 2931 1791 2931 
Q 1403 2931 1139 2672 
Q 875 2413 847 1978 
z
" id="ArialMT-65" transform="scale(0.015625)"/>
       <path d="M 2588 409 
Q 2275 144 1986 34 
Q 1697 -75 1366 -75 
Q 819 -75 525 192 
Q 231 459 231 875 
Q 231 1119 342 1320 
Q 453 1522 633 1644 
Q 813 1766 1038 1828 
Q 1203 1872 1538 1913 
Q 2219 1994 2541 2106 
Q 2544 2222 2544 2253 
Q 2544 2597 2384 2738 
Q 2169 2928 1744 2928 
Q 1347 2928 1158 2789 
Q 969 2650 878 2297 
L 328 2372 
Q 403 2725 575 2942 
Q 747 3159 1072 3276 
Q 1397 3394 1825 3394 
Q 2250 3394 2515 3294 
Q 2781 3194 2906 3042 
Q 3031 2891 3081 2659 
Q 3109 2516 3109 2141 
L 3109 1391 
Q 3109 606 3145 398 
Q 3181 191 3288 0 
L 2700 0 
Q 2613 175 2588 409 
z
M 2541 1666 
Q 2234 1541 1622 1453 
Q 1275 1403 1131 1340 
Q 988 1278 909 1158 
Q 831 1038 831 891 
Q 831 666 1001 516 
Q 1172 366 1500 366 
Q 1825 366 2078 508 
Q 2331 650 2450 897 
Q 2541 1088 2541 1459 
L 2541 1666 
z
" id="ArialMT-61" transform="scale(0.015625)"/>
       <path d="M 409 0 
L 409 4581 
L 972 4581 
L 972 0 
L 409 0 
z
" id="ArialMT-6c" transform="scale(0.015625)"/>
      </defs>
      <use xlink:href="#ArialMT-50"/>
      <use x="66.699219" xlink:href="#ArialMT-6f"/>
      <use x="122.314453" xlink:href="#ArialMT-74"/>
      <use x="150.097656" xlink:href="#ArialMT-65"/>
      <use x="205.712891" xlink:href="#ArialMT-6e"/>
      <use x="261.328125" xlink:href="#ArialMT-74"/>
      <use x="289.111328" xlink:href="#ArialMT-69"/>
      <use x="311.328125" xlink:href="#ArialMT-61"/>
      <use x="366.943359" xlink:href="#ArialMT-6c"/>
     </g>
    </g>
   </g>
   <g id="line2d_13">
    <path clip-path="url(#p848113af05)" d="M 63.570256 86.734205 
L 66.963047 107.180964 
L 70.355839 126.565791 
L 73.74863 144.928561 
L 77.141422 162.308318 
L 80.534213 178.743277 
L 83.927005 194.27082 
L 87.319797 208.9275 
L 90.712588 222.749038 
L 94.10538 235.770327 
L 97.498171 248.025425 
L 100.890963 259.547562 
L 104.283754 270.369137 
L 107.676546 280.521718 
L 111.069337 290.036042 
L 114.462129 298.942016 
L 117.854921 307.268716 
L 121.247712 315.044386 
L 124.640504 322.296441 
L 128.033295 329.051464 
L 131.426087 335.335209 
L 134.818878 341.172597 
L 138.21167 346.58772 
L 141.604461 351.603839 
L 144.997253 356.243382 
L 148.390044 360.52795 
L 151.782836 364.478311 
L 155.175628 368.114403 
L 158.568419 371.455332 
L 161.961211 374.519375 
L 165.354002 377.323977 
L 168.746794 379.885753 
L 172.139585 382.220486 
L 175.532377 384.343131 
L 178.925168 386.26781 
L 182.31796 388.007814 
L 185.710752 389.575605 
L 189.103543 390.982812 
L 192.496335 392.240236 
L 195.889126 393.357845 
L 199.281918 394.344778 
L 202.674709 395.209341 
L 206.067501 395.959012 
L 209.460292 396.600436 
L 212.853084 397.139428 
L 216.245876 397.580973 
L 219.638667 397.929225 
L 223.031459 398.187506 
L 226.42425 398.358309 
L 229.817042 398.443295 
L 233.209833 398.443295 
L 236.602625 398.358309 
L 239.995416 398.187506 
L 243.388208 397.929225 
L 246.780999 397.580973 
L 250.173791 397.139428 
L 253.566583 396.600436 
L 256.959374 395.959012 
L 260.352166 395.209341 
L 263.744957 394.344778 
L 267.137749 393.357845 
L 270.53054 392.240236 
L 273.923332 390.982812 
L 277.316123 389.575605 
L 280.708915 388.007814 
L 284.101707 386.26781 
L 287.494498 384.343131 
L 290.88729 382.220486 
L 294.280081 379.885753 
L 297.672873 377.323977 
L 301.065664 374.519375 
L 304.458456 371.455332 
L 307.851247 368.114403 
L 311.244039 364.478311 
L 314.636831 360.52795 
L 318.029622 356.243382 
L 321.422414 351.603839 
L 324.815205 346.58772 
L 328.207997 341.172597 
L 331.600788 335.335209 
L 334.99358 329.051464 
L 338.386371 322.296441 
L 341.779163 315.044386 
L 345.171954 307.268716 
L 348.564746 298.942016 
L 351.957538 290.036042 
L 355.350329 280.521718 
L 358.743121 270.369137 
L 362.135912 259.547562 
L 365.528704 248.025425 
L 368.921495 235.770327 
L 372.314287 222.749038 
L 375.707078 208.9275 
L 379.09987 194.27082 
L 382.492662 178.743277 
L 385.885453 162.308318 
L 389.278245 144.928561 
L 392.671036 126.565791 
L 396.063828 107.180964 
L 399.456619 86.734205 
" style="fill:none;stroke:#4c72b0;stroke-linecap:round;stroke-width:1.5;"/>
   </g>
   <g id="patch_3">
    <path d="M 46.775938 414.02875 
L 46.775938 71.14875 
" style="fill:none;stroke:#ffffff;stroke-linecap:square;stroke-linejoin:miter;stroke-width:1.25;"/>
   </g>
   <g id="patch_4">
    <path d="M 416.250938 414.02875 
L 416.250938 71.14875 
" style="fill:none;stroke:#ffffff;stroke-linecap:square;stroke-linejoin:miter;stroke-width:1.25;"/>
   </g>
   <g id="patch_5">
    <path d="M 46.775937 414.02875 
L 416.250938 414.02875 
" style="fill:none;stroke:#ffffff;stroke-linecap:square;stroke-linejoin:miter;stroke-width:1.25;"/>
   </g>
   <g id="patch_6">
    <path d="M 46.775937 71.14875 
L 416.250938 71.14875 
" style="fill:none;stroke:#ffffff;stroke-linecap:square;stroke-linejoin:miter;stroke-width:1.25;"/>
   </g>
  </g>
  <g id="axes_2">
   <g id="patch_7">
    <path d="M 479.050938 414.02875 
L 848.525938 414.02875 
L 848.525938 71.14875 
L 479.050938 71.14875 
z
" style="fill:#eaeaf2;"/>
   </g>
   <g id="matplotlib.axis_3">
    <g id="xtick_6">
     <g id="line2d_14">
      <path clip-path="url(#pf6e67a39f1)" d="M 485.010212 414.02875 
L 485.010212 71.14875 
" style="fill:none;stroke:#ffffff;stroke-linecap:round;"/>
     </g>
     <g id="text_15">
      <!-- 0 -->
      <g style="fill:#262626;" transform="translate(481.117555 433.549688)scale(0.14 -0.14)">
       <use xlink:href="#ArialMT-30"/>
      </g>
     </g>
    </g>
    <g id="xtick_7">
     <g id="line2d_15">
      <path clip-path="url(#pf6e67a39f1)" d="M 539.185432 414.02875 
L 539.185432 71.14875 
" style="fill:none;stroke:#ffffff;stroke-linecap:round;"/>
     </g>
     <g id="text_16">
      <!-- 5 -->
      <g style="fill:#262626;" transform="translate(535.292775 433.549688)scale(0.14 -0.14)">
       <use xlink:href="#ArialMT-35"/>
      </g>
     </g>
    </g>
    <g id="xtick_8">
     <g id="line2d_16">
      <path clip-path="url(#pf6e67a39f1)" d="M 593.360652 414.02875 
L 593.360652 71.14875 
" style="fill:none;stroke:#ffffff;stroke-linecap:round;"/>
     </g>
     <g id="text_17">
      <!-- 10 -->
      <g style="fill:#262626;" transform="translate(585.575339 433.549688)scale(0.14 -0.14)">
       <use xlink:href="#ArialMT-31"/>
       <use x="55.615234" xlink:href="#ArialMT-30"/>
      </g>
     </g>
    </g>
    <g id="xtick_9">
     <g id="line2d_17">
      <path clip-path="url(#pf6e67a39f1)" d="M 647.535872 414.02875 
L 647.535872 71.14875 
" style="fill:none;stroke:#ffffff;stroke-linecap:round;"/>
     </g>
     <g id="text_18">
      <!-- 15 -->
      <g style="fill:#262626;" transform="translate(639.750559 433.549688)scale(0.14 -0.14)">
       <use xlink:href="#ArialMT-31"/>
       <use x="55.615234" xlink:href="#ArialMT-35"/>
      </g>
     </g>
    </g>
    <g id="xtick_10">
     <g id="line2d_18">
      <path clip-path="url(#pf6e67a39f1)" d="M 701.711091 414.02875 
L 701.711091 71.14875 
" style="fill:none;stroke:#ffffff;stroke-linecap:round;"/>
     </g>
     <g id="text_19">
      <!-- 20 -->
      <g style="fill:#262626;" transform="translate(693.925779 433.549688)scale(0.14 -0.14)">
       <use xlink:href="#ArialMT-32"/>
       <use x="55.615234" xlink:href="#ArialMT-30"/>
      </g>
     </g>
    </g>
    <g id="xtick_11">
     <g id="line2d_19">
      <path clip-path="url(#pf6e67a39f1)" d="M 755.886311 414.02875 
L 755.886311 71.14875 
" style="fill:none;stroke:#ffffff;stroke-linecap:round;"/>
     </g>
     <g id="text_20">
      <!-- 25 -->
      <g style="fill:#262626;" transform="translate(748.100999 433.549688)scale(0.14 -0.14)">
       <use xlink:href="#ArialMT-32"/>
       <use x="55.615234" xlink:href="#ArialMT-35"/>
      </g>
     </g>
    </g>
    <g id="xtick_12">
     <g id="line2d_20">
      <path clip-path="url(#pf6e67a39f1)" d="M 810.061531 414.02875 
L 810.061531 71.14875 
" style="fill:none;stroke:#ffffff;stroke-linecap:round;"/>
     </g>
     <g id="text_21">
      <!-- 30 -->
      <g style="fill:#262626;" transform="translate(802.276219 433.549688)scale(0.14 -0.14)">
       <use xlink:href="#ArialMT-33"/>
       <use x="55.615234" xlink:href="#ArialMT-30"/>
      </g>
     </g>
    </g>
    <g id="text_22">
     <!-- Epochs -->
     <g style="fill:#262626;" transform="translate(630.435313 454.647812)scale(0.2 -0.2)">
      <defs>
       <path d="M 506 0 
L 506 4581 
L 3819 4581 
L 3819 4041 
L 1113 4041 
L 1113 2638 
L 3647 2638 
L 3647 2100 
L 1113 2100 
L 1113 541 
L 3925 541 
L 3925 0 
L 506 0 
z
" id="ArialMT-45" transform="scale(0.015625)"/>
       <path d="M 422 -1272 
L 422 3319 
L 934 3319 
L 934 2888 
Q 1116 3141 1344 3267 
Q 1572 3394 1897 3394 
Q 2322 3394 2647 3175 
Q 2972 2956 3137 2557 
Q 3303 2159 3303 1684 
Q 3303 1175 3120 767 
Q 2938 359 2589 142 
Q 2241 -75 1856 -75 
Q 1575 -75 1351 44 
Q 1128 163 984 344 
L 984 -1272 
L 422 -1272 
z
M 931 1641 
Q 931 1000 1190 694 
Q 1450 388 1819 388 
Q 2194 388 2461 705 
Q 2728 1022 2728 1688 
Q 2728 2322 2467 2637 
Q 2206 2953 1844 2953 
Q 1484 2953 1207 2617 
Q 931 2281 931 1641 
z
" id="ArialMT-70" transform="scale(0.015625)"/>
       <path d="M 2588 1216 
L 3141 1144 
Q 3050 572 2676 248 
Q 2303 -75 1759 -75 
Q 1078 -75 664 370 
Q 250 816 250 1647 
Q 250 2184 428 2587 
Q 606 2991 970 3192 
Q 1334 3394 1763 3394 
Q 2303 3394 2647 3120 
Q 2991 2847 3088 2344 
L 2541 2259 
Q 2463 2594 2264 2762 
Q 2066 2931 1784 2931 
Q 1359 2931 1093 2626 
Q 828 2322 828 1663 
Q 828 994 1084 691 
Q 1341 388 1753 388 
Q 2084 388 2306 591 
Q 2528 794 2588 1216 
z
" id="ArialMT-63" transform="scale(0.015625)"/>
       <path d="M 422 0 
L 422 4581 
L 984 4581 
L 984 2938 
Q 1378 3394 1978 3394 
Q 2347 3394 2619 3248 
Q 2891 3103 3008 2847 
Q 3125 2591 3125 2103 
L 3125 0 
L 2563 0 
L 2563 2103 
Q 2563 2525 2380 2717 
Q 2197 2909 1863 2909 
Q 1613 2909 1392 2779 
Q 1172 2650 1078 2428 
Q 984 2206 984 1816 
L 984 0 
L 422 0 
z
" id="ArialMT-68" transform="scale(0.015625)"/>
      </defs>
      <use xlink:href="#ArialMT-45"/>
      <use x="66.699219" xlink:href="#ArialMT-70"/>
      <use x="122.314453" xlink:href="#ArialMT-6f"/>
      <use x="177.929688" xlink:href="#ArialMT-63"/>
      <use x="227.929688" xlink:href="#ArialMT-68"/>
      <use x="283.544922" xlink:href="#ArialMT-73"/>
     </g>
    </g>
   </g>
   <g id="matplotlib.axis_4">
    <g id="ytick_8">
     <g id="line2d_21">
      <path clip-path="url(#pf6e67a39f1)" d="M 479.050938 398.553 
L 848.525938 398.553 
" style="fill:none;stroke:#ffffff;stroke-linecap:round;"/>
     </g>
     <g id="text_23">
      <!-- 0.0 -->
      <g style="fill:#262626;" transform="translate(450.090938 403.563469)scale(0.14 -0.14)">
       <defs>
        <path d="M 581 0 
L 581 641 
L 1222 641 
L 1222 0 
L 581 0 
z
" id="ArialMT-2e" transform="scale(0.015625)"/>
       </defs>
       <use xlink:href="#ArialMT-30"/>
       <use x="55.615234" xlink:href="#ArialMT-2e"/>
       <use x="83.398438" xlink:href="#ArialMT-30"/>
      </g>
     </g>
    </g>
    <g id="ytick_9">
     <g id="line2d_22">
      <path clip-path="url(#pf6e67a39f1)" d="M 479.050938 336.701587 
L 848.525938 336.701587 
" style="fill:none;stroke:#ffffff;stroke-linecap:round;"/>
     </g>
     <g id="text_24">
      <!-- 0.1 -->
      <g style="fill:#262626;" transform="translate(450.090938 341.712056)scale(0.14 -0.14)">
       <use xlink:href="#ArialMT-30"/>
       <use x="55.615234" xlink:href="#ArialMT-2e"/>
       <use x="83.398438" xlink:href="#ArialMT-31"/>
      </g>
     </g>
    </g>
    <g id="ytick_10">
     <g id="line2d_23">
      <path clip-path="url(#pf6e67a39f1)" d="M 479.050938 274.850174 
L 848.525938 274.850174 
" style="fill:none;stroke:#ffffff;stroke-linecap:round;"/>
     </g>
     <g id="text_25">
      <!-- 0.2 -->
      <g style="fill:#262626;" transform="translate(450.090938 279.860642)scale(0.14 -0.14)">
       <use xlink:href="#ArialMT-30"/>
       <use x="55.615234" xlink:href="#ArialMT-2e"/>
       <use x="83.398438" xlink:href="#ArialMT-32"/>
      </g>
     </g>
    </g>
    <g id="ytick_11">
     <g id="line2d_24">
      <path clip-path="url(#pf6e67a39f1)" d="M 479.050938 212.998761 
L 848.525938 212.998761 
" style="fill:none;stroke:#ffffff;stroke-linecap:round;"/>
     </g>
     <g id="text_26">
      <!-- 0.3 -->
      <g style="fill:#262626;" transform="translate(450.090938 218.009229)scale(0.14 -0.14)">
       <use xlink:href="#ArialMT-30"/>
       <use x="55.615234" xlink:href="#ArialMT-2e"/>
       <use x="83.398438" xlink:href="#ArialMT-33"/>
      </g>
     </g>
    </g>
    <g id="ytick_12">
     <g id="line2d_25">
      <path clip-path="url(#pf6e67a39f1)" d="M 479.050938 151.147347 
L 848.525938 151.147347 
" style="fill:none;stroke:#ffffff;stroke-linecap:round;"/>
     </g>
     <g id="text_27">
      <!-- 0.4 -->
      <g style="fill:#262626;" transform="translate(450.090938 156.157816)scale(0.14 -0.14)">
       <use xlink:href="#ArialMT-30"/>
       <use x="55.615234" xlink:href="#ArialMT-2e"/>
       <use x="83.398438" xlink:href="#ArialMT-34"/>
      </g>
     </g>
    </g>
    <g id="ytick_13">
     <g id="line2d_26">
      <path clip-path="url(#pf6e67a39f1)" d="M 479.050938 89.295934 
L 848.525938 89.295934 
" style="fill:none;stroke:#ffffff;stroke-linecap:round;"/>
     </g>
     <g id="text_28">
      <!-- 0.5 -->
      <g style="fill:#262626;" transform="translate(450.090938 94.306403)scale(0.14 -0.14)">
       <use xlink:href="#ArialMT-30"/>
       <use x="55.615234" xlink:href="#ArialMT-2e"/>
       <use x="83.398438" xlink:href="#ArialMT-35"/>
      </g>
     </g>
    </g>
    <g id="text_29">
     <!-- Model Loss -->
     <g style="fill:#262626;" transform="translate(442.115938 293.723125)rotate(-90)scale(0.2 -0.2)">
      <defs>
       <path d="M 475 0 
L 475 4581 
L 1388 4581 
L 2472 1338 
Q 2622 884 2691 659 
Q 2769 909 2934 1394 
L 4031 4581 
L 4847 4581 
L 4847 0 
L 4263 0 
L 4263 3834 
L 2931 0 
L 2384 0 
L 1059 3900 
L 1059 0 
L 475 0 
z
" id="ArialMT-4d" transform="scale(0.015625)"/>
       <path d="M 2575 0 
L 2575 419 
Q 2259 -75 1647 -75 
Q 1250 -75 917 144 
Q 584 363 401 755 
Q 219 1147 219 1656 
Q 219 2153 384 2558 
Q 550 2963 881 3178 
Q 1213 3394 1622 3394 
Q 1922 3394 2156 3267 
Q 2391 3141 2538 2938 
L 2538 4581 
L 3097 4581 
L 3097 0 
L 2575 0 
z
M 797 1656 
Q 797 1019 1065 703 
Q 1334 388 1700 388 
Q 2069 388 2326 689 
Q 2584 991 2584 1609 
Q 2584 2291 2321 2609 
Q 2059 2928 1675 2928 
Q 1300 2928 1048 2622 
Q 797 2316 797 1656 
z
" id="ArialMT-64" transform="scale(0.015625)"/>
       <path id="ArialMT-20" transform="scale(0.015625)"/>
       <path d="M 469 0 
L 469 4581 
L 1075 4581 
L 1075 541 
L 3331 541 
L 3331 0 
L 469 0 
z
" id="ArialMT-4c" transform="scale(0.015625)"/>
      </defs>
      <use xlink:href="#ArialMT-4d"/>
      <use x="83.300781" xlink:href="#ArialMT-6f"/>
      <use x="138.916016" xlink:href="#ArialMT-64"/>
      <use x="194.53125" xlink:href="#ArialMT-65"/>
      <use x="250.146484" xlink:href="#ArialMT-6c"/>
      <use x="272.363281" xlink:href="#ArialMT-20"/>
      <use x="300.146484" xlink:href="#ArialMT-4c"/>
      <use x="355.761719" xlink:href="#ArialMT-6f"/>
      <use x="411.376953" xlink:href="#ArialMT-73"/>
      <use x="461.376953" xlink:href="#ArialMT-73"/>
     </g>
    </g>
   </g>
   <g id="line2d_27">
    <path clip-path="url(#pf6e67a39f1)" d="M 495.845256 113.130541 
L 506.6803 200.598565 
L 517.515344 234.943833 
L 528.350388 268.791893 
L 539.185432 297.644181 
L 550.020476 353.894644 
L 560.85552 383.374761 
L 571.690564 385.87779 
L 582.525608 387.290536 
L 593.360652 384.957667 
L 604.195696 388.207301 
L 615.03074 391.234128 
L 625.865784 391.096072 
L 636.700828 391.737218 
L 647.535872 389.383189 
" style="fill:none;stroke:#b1400d;stroke-dasharray:6,0;stroke-dashoffset:0;stroke-width:1.5;"/>
   </g>
   <g id="line2d_28">
    <path clip-path="url(#pf6e67a39f1)" d="M 495.845256 174.256256 
L 506.6803 212.30845 
L 517.515344 255.090592 
L 528.350388 278.276933 
L 539.185432 346.556404 
L 550.020476 390.489935 
L 560.85552 398.092514 
L 571.690564 329.833359 
L 582.525608 398.289911 
L 593.360652 398.169146 
L 604.195696 398.256377 
L 615.03074 398.443295 
L 625.865784 398.436968 
L 636.700828 398.429249 
L 647.535872 396.853045 
" style="fill:none;stroke:#ffb482;stroke-dasharray:6,3;stroke-dashoffset:0;stroke-width:1.5;"/>
   </g>
   <g id="line2d_29">
    <path clip-path="url(#pf6e67a39f1)" d="M 495.845256 86.734205 
L 506.6803 116.27028 
L 517.515344 127.447391 
L 528.350388 135.425777 
L 539.185432 143.229768 
L 550.020476 149.061521 
L 560.85552 152.561701 
L 571.690564 157.747631 
L 582.525608 161.345064 
L 593.360652 162.923348 
L 604.195696 163.878222 
L 615.03074 164.654406 
L 625.865784 166.064081 
L 636.700828 168.039508 
L 647.535872 170.230454 
L 658.370916 172.61624 
L 669.205959 174.253067 
L 680.041003 176.29841 
L 690.876047 178.775126 
L 701.711091 181.38987 
L 712.546135 184.004613 
L 723.381179 185.924445 
L 734.216223 187.238729 
L 745.051267 188.269161 
L 755.886311 189.106008 
L 766.721355 189.709841 
L 777.556399 190.287592 
L 788.391443 190.747702 
L 799.226487 191.106392 
L 810.061531 191.488751 
L 820.896575 191.835866 
L 831.731619 192.142465 
" style="fill:none;stroke:#12711c;stroke-dasharray:6,0;stroke-dashoffset:0;stroke-width:1.5;"/>
   </g>
   <g id="line2d_30">
    <path clip-path="url(#pf6e67a39f1)" d="M 495.845256 104.191179 
L 506.6803 123.396317 
L 517.515344 131.035589 
L 528.350388 138.134087 
L 539.185432 146.726907 
L 550.020476 149.819585 
L 560.85552 154.337146 
L 571.690564 159.134873 
L 582.525608 162.622132 
L 593.360652 164.081946 
L 604.195696 164.148803 
L 615.03074 164.310406 
L 625.865784 168.00924 
L 636.700828 168.136208 
L 647.535872 171.372997 
L 658.370916 172.979981 
L 669.205959 175.900051 
L 680.041003 176.985285 
L 690.876047 177.787054 
L 701.711091 181.31645 
L 712.546135 185.579505 
L 723.381179 185.687837 
L 734.216223 188.945934 
L 745.051267 189.363943 
L 755.886311 188.152073 
L 766.721355 190.259297 
L 777.556399 190.467942 
L 788.391443 190.882135 
L 799.226487 192.296105 
L 810.061531 189.61832 
L 820.896575 188.578561 
L 831.731619 189.120736 
" style="fill:none;stroke:#8de5a1;stroke-dasharray:6,3;stroke-dashoffset:0;stroke-width:1.5;"/>
   </g>
   <g id="patch_8">
    <path d="M 479.050938 414.02875 
L 479.050938 71.14875 
" style="fill:none;stroke:#ffffff;stroke-linecap:square;stroke-linejoin:miter;stroke-width:1.25;"/>
   </g>
   <g id="patch_9">
    <path d="M 848.525938 414.02875 
L 848.525938 71.14875 
" style="fill:none;stroke:#ffffff;stroke-linecap:square;stroke-linejoin:miter;stroke-width:1.25;"/>
   </g>
   <g id="patch_10">
    <path d="M 479.050938 414.02875 
L 848.525938 414.02875 
" style="fill:none;stroke:#ffffff;stroke-linecap:square;stroke-linejoin:miter;stroke-width:1.25;"/>
   </g>
   <g id="patch_11">
    <path d="M 479.050938 71.14875 
L 848.525938 71.14875 
" style="fill:none;stroke:#ffffff;stroke-linecap:square;stroke-linejoin:miter;stroke-width:1.25;"/>
   </g>
  </g>
  <g id="axes_3">
   <g id="patch_12">
    <path d="M 911.325938 414.02875 
L 1280.800938 414.02875 
L 1280.800938 71.14875 
L 911.325938 71.14875 
z
" style="fill:#eaeaf2;"/>
   </g>
   <g id="matplotlib.axis_5">
    <g id="xtick_13">
     <g id="line2d_31">
      <path clip-path="url(#p21e98a927a)" d="M 928.00685 414.02875 
L 928.00685 71.14875 
" style="fill:none;stroke:#ffffff;stroke-linecap:round;"/>
     </g>
     <g id="text_30">
      <!-- 0.0 -->
      <g style="fill:#262626;" transform="translate(918.27685 433.549688)scale(0.14 -0.14)">
       <use xlink:href="#ArialMT-30"/>
       <use x="55.615234" xlink:href="#ArialMT-2e"/>
       <use x="83.398438" xlink:href="#ArialMT-30"/>
      </g>
     </g>
    </g>
    <g id="xtick_14">
     <g id="line2d_32">
      <path clip-path="url(#p21e98a927a)" d="M 994.948019 414.02875 
L 994.948019 71.14875 
" style="fill:none;stroke:#ffffff;stroke-linecap:round;"/>
     </g>
     <g id="text_31">
      <!-- 0.2 -->
      <g style="fill:#262626;" transform="translate(985.218019 433.549688)scale(0.14 -0.14)">
       <use xlink:href="#ArialMT-30"/>
       <use x="55.615234" xlink:href="#ArialMT-2e"/>
       <use x="83.398438" xlink:href="#ArialMT-32"/>
      </g>
     </g>
    </g>
    <g id="xtick_15">
     <g id="line2d_33">
      <path clip-path="url(#p21e98a927a)" d="M 1061.889187 414.02875 
L 1061.889187 71.14875 
" style="fill:none;stroke:#ffffff;stroke-linecap:round;"/>
     </g>
     <g id="text_32">
      <!-- 0.4 -->
      <g style="fill:#262626;" transform="translate(1052.159187 433.549688)scale(0.14 -0.14)">
       <use xlink:href="#ArialMT-30"/>
       <use x="55.615234" xlink:href="#ArialMT-2e"/>
       <use x="83.398438" xlink:href="#ArialMT-34"/>
      </g>
     </g>
    </g>
    <g id="xtick_16">
     <g id="line2d_34">
      <path clip-path="url(#p21e98a927a)" d="M 1128.830356 414.02875 
L 1128.830356 71.14875 
" style="fill:none;stroke:#ffffff;stroke-linecap:round;"/>
     </g>
     <g id="text_33">
      <!-- 0.6 -->
      <g style="fill:#262626;" transform="translate(1119.100356 433.549688)scale(0.14 -0.14)">
       <use xlink:href="#ArialMT-30"/>
       <use x="55.615234" xlink:href="#ArialMT-2e"/>
       <use x="83.398438" xlink:href="#ArialMT-36"/>
      </g>
     </g>
    </g>
    <g id="xtick_17">
     <g id="line2d_35">
      <path clip-path="url(#p21e98a927a)" d="M 1195.771525 414.02875 
L 1195.771525 71.14875 
" style="fill:none;stroke:#ffffff;stroke-linecap:round;"/>
     </g>
     <g id="text_34">
      <!-- 0.8 -->
      <g style="fill:#262626;" transform="translate(1186.041525 433.549688)scale(0.14 -0.14)">
       <defs>
        <path d="M 1131 2484 
Q 781 2613 612 2850 
Q 444 3088 444 3419 
Q 444 3919 803 4259 
Q 1163 4600 1759 4600 
Q 2359 4600 2725 4251 
Q 3091 3903 3091 3403 
Q 3091 3084 2923 2848 
Q 2756 2613 2416 2484 
Q 2838 2347 3058 2040 
Q 3278 1734 3278 1309 
Q 3278 722 2862 322 
Q 2447 -78 1769 -78 
Q 1091 -78 675 323 
Q 259 725 259 1325 
Q 259 1772 486 2073 
Q 713 2375 1131 2484 
z
M 1019 3438 
Q 1019 3113 1228 2906 
Q 1438 2700 1772 2700 
Q 2097 2700 2305 2904 
Q 2513 3109 2513 3406 
Q 2513 3716 2298 3927 
Q 2084 4138 1766 4138 
Q 1444 4138 1231 3931 
Q 1019 3725 1019 3438 
z
M 838 1322 
Q 838 1081 952 856 
Q 1066 631 1291 507 
Q 1516 384 1775 384 
Q 2178 384 2440 643 
Q 2703 903 2703 1303 
Q 2703 1709 2433 1975 
Q 2163 2241 1756 2241 
Q 1359 2241 1098 1978 
Q 838 1716 838 1322 
z
" id="ArialMT-38" transform="scale(0.015625)"/>
       </defs>
       <use xlink:href="#ArialMT-30"/>
       <use x="55.615234" xlink:href="#ArialMT-2e"/>
       <use x="83.398438" xlink:href="#ArialMT-38"/>
      </g>
     </g>
    </g>
    <g id="xtick_18">
     <g id="line2d_36">
      <path clip-path="url(#p21e98a927a)" d="M 1262.712694 414.02875 
L 1262.712694 71.14875 
" style="fill:none;stroke:#ffffff;stroke-linecap:round;"/>
     </g>
     <g id="text_35">
      <!-- 1.0 -->
      <g style="fill:#262626;" transform="translate(1252.982694 433.549688)scale(0.14 -0.14)">
       <use xlink:href="#ArialMT-31"/>
       <use x="55.615234" xlink:href="#ArialMT-2e"/>
       <use x="83.398438" xlink:href="#ArialMT-30"/>
      </g>
     </g>
    </g>
    <g id="text_36">
     <!-- Error   $\frac{||y_{pred}-y_{true}||}{||y_{true}||}$ -->
     <g style="fill:#262626;" transform="translate(1016.163438 464.132187)scale(0.2 -0.2)">
      <defs>
       <path d="M 416 0 
L 416 3319 
L 922 3319 
L 922 2816 
Q 1116 3169 1280 3281 
Q 1444 3394 1641 3394 
Q 1925 3394 2219 3213 
L 2025 2691 
Q 1819 2813 1613 2813 
Q 1428 2813 1281 2702 
Q 1134 2591 1072 2394 
Q 978 2094 978 1738 
L 978 0 
L 416 0 
z
" id="ArialMT-72" transform="scale(0.015625)"/>
       <path d="M 1344 4891 
L 1344 -1509 
L 813 -1509 
L 813 4891 
L 1344 4891 
z
" id="DejaVuSans-7c" transform="scale(0.015625)"/>
       <path d="M 1588 -325 
Q 1188 -997 936 -1164 
Q 684 -1331 294 -1331 
L -159 -1331 
L -63 -850 
L 269 -850 
Q 509 -850 678 -719 
Q 847 -588 1056 -206 
L 1234 128 
L 459 3500 
L 1069 3500 
L 1650 819 
L 3256 3500 
L 3859 3500 
L 1588 -325 
z
" id="DejaVuSans-Oblique-79" transform="scale(0.015625)"/>
       <path d="M 3175 2156 
Q 3175 2616 2975 2859 
Q 2775 3103 2400 3103 
Q 2144 3103 1911 2972 
Q 1678 2841 1497 2591 
Q 1319 2344 1212 1994 
Q 1106 1644 1106 1300 
Q 1106 863 1306 627 
Q 1506 391 1875 391 
Q 2147 391 2380 519 
Q 2613 647 2778 891 
Q 2956 1147 3065 1494 
Q 3175 1841 3175 2156 
z
M 1394 2969 
Q 1625 3272 1939 3428 
Q 2253 3584 2638 3584 
Q 3175 3584 3472 3232 
Q 3769 2881 3769 2247 
Q 3769 1728 3584 1258 
Q 3400 788 3053 416 
Q 2822 169 2531 39 
Q 2241 -91 1919 -91 
Q 1547 -91 1294 64 
Q 1041 219 916 525 
L 556 -1331 
L -19 -1331 
L 922 3500 
L 1497 3500 
L 1394 2969 
z
" id="DejaVuSans-Oblique-70" transform="scale(0.015625)"/>
       <path d="M 2853 2969 
Q 2766 3016 2653 3041 
Q 2541 3066 2413 3066 
Q 1953 3066 1609 2717 
Q 1266 2369 1153 1784 
L 800 0 
L 225 0 
L 909 3500 
L 1484 3500 
L 1375 2956 
Q 1603 3259 1920 3421 
Q 2238 3584 2597 3584 
Q 2691 3584 2781 3573 
Q 2872 3563 2963 3538 
L 2853 2969 
z
" id="DejaVuSans-Oblique-72" transform="scale(0.015625)"/>
       <path d="M 3078 2063 
Q 3088 2113 3092 2166 
Q 3097 2219 3097 2272 
Q 3097 2653 2873 2875 
Q 2650 3097 2266 3097 
Q 1838 3097 1509 2826 
Q 1181 2556 1013 2059 
L 3078 2063 
z
M 3578 1613 
L 903 1613 
Q 884 1494 878 1425 
Q 872 1356 872 1306 
Q 872 872 1139 634 
Q 1406 397 1894 397 
Q 2269 397 2603 481 
Q 2938 566 3225 728 
L 3116 159 
Q 2806 34 2476 -28 
Q 2147 -91 1806 -91 
Q 1078 -91 686 257 
Q 294 606 294 1247 
Q 294 1794 489 2264 
Q 684 2734 1063 3103 
Q 1306 3334 1642 3459 
Q 1978 3584 2356 3584 
Q 2950 3584 3301 3228 
Q 3653 2872 3653 2272 
Q 3653 2128 3634 1964 
Q 3616 1800 3578 1613 
z
" id="DejaVuSans-Oblique-65" transform="scale(0.015625)"/>
       <path d="M 2675 525 
Q 2444 222 2128 65 
Q 1813 -91 1428 -91 
Q 903 -91 598 267 
Q 294 625 294 1247 
Q 294 1766 478 2236 
Q 663 2706 1013 3078 
Q 1244 3325 1534 3454 
Q 1825 3584 2144 3584 
Q 2481 3584 2739 3421 
Q 2997 3259 3138 2956 
L 3513 4863 
L 4091 4863 
L 3144 0 
L 2566 0 
L 2675 525 
z
M 891 1350 
Q 891 897 1095 644 
Q 1300 391 1663 391 
Q 1931 391 2161 520 
Q 2391 650 2566 903 
Q 2750 1166 2856 1509 
Q 2963 1853 2963 2188 
Q 2963 2622 2758 2865 
Q 2553 3109 2194 3109 
Q 1922 3109 1687 2981 
Q 1453 2853 1288 2613 
Q 1106 2353 998 2009 
Q 891 1666 891 1350 
z
" id="DejaVuSans-Oblique-64" transform="scale(0.015625)"/>
       <path d="M 678 2272 
L 4684 2272 
L 4684 1741 
L 678 1741 
L 678 2272 
z
" id="DejaVuSans-2212" transform="scale(0.015625)"/>
       <path d="M 2706 3500 
L 2619 3053 
L 1472 3053 
L 1100 1153 
Q 1081 1047 1072 975 
Q 1063 903 1063 863 
Q 1063 663 1183 572 
Q 1303 481 1569 481 
L 2150 481 
L 2053 0 
L 1503 0 
Q 991 0 739 200 
Q 488 400 488 806 
Q 488 878 497 964 
Q 506 1050 525 1153 
L 897 3053 
L 409 3053 
L 500 3500 
L 978 3500 
L 1172 4494 
L 1747 4494 
L 1556 3500 
L 2706 3500 
z
" id="DejaVuSans-Oblique-74" transform="scale(0.015625)"/>
       <path d="M 428 1388 
L 838 3500 
L 1416 3500 
L 1006 1409 
Q 975 1256 961 1147 
Q 947 1038 947 966 
Q 947 700 1109 554 
Q 1272 409 1569 409 
Q 2031 409 2368 721 
Q 2706 1034 2809 1563 
L 3194 3500 
L 3769 3500 
L 3091 0 
L 2516 0 
L 2631 550 
Q 2388 244 2052 76 
Q 1716 -91 1338 -91 
Q 878 -91 622 161 
Q 366 413 366 863 
Q 366 956 381 1097 
Q 397 1238 428 1388 
z
" id="DejaVuSans-Oblique-75" transform="scale(0.015625)"/>
      </defs>
      <use transform="translate(0 0.032969)" xlink:href="#ArialMT-45"/>
      <use transform="translate(66.699219 0.032969)" xlink:href="#ArialMT-72"/>
      <use transform="translate(100 0.032969)" xlink:href="#ArialMT-72"/>
      <use transform="translate(133.300781 0.032969)" xlink:href="#ArialMT-6f"/>
      <use transform="translate(188.916016 0.032969)" xlink:href="#ArialMT-72"/>
      <use transform="translate(222.216797 0.032969)" xlink:href="#ArialMT-20"/>
      <use transform="translate(250 0.032969)" xlink:href="#ArialMT-20"/>
      <use transform="translate(277.783203 0.032969)" xlink:href="#ArialMT-20"/>
      <use transform="translate(305.566406 65.504688)scale(0.7)" xlink:href="#DejaVuSans-7c"/>
      <use transform="translate(329.150391 65.504688)scale(0.7)" xlink:href="#DejaVuSans-7c"/>
      <use transform="translate(352.734375 65.504688)scale(0.7)" xlink:href="#DejaVuSans-Oblique-79"/>
      <use transform="translate(394.160156 54.020313)scale(0.49)" xlink:href="#DejaVuSans-Oblique-70"/>
      <use transform="translate(425.263672 54.020313)scale(0.49)" xlink:href="#DejaVuSans-Oblique-72"/>
      <use transform="translate(445.40918 54.020313)scale(0.49)" xlink:href="#DejaVuSans-Oblique-65"/>
      <use transform="translate(475.555664 54.020313)scale(0.49)" xlink:href="#DejaVuSans-Oblique-64"/>
      <use transform="translate(522.210938 65.504688)scale(0.7)" xlink:href="#DejaVuSans-2212"/>
      <use transform="translate(594.500977 65.504688)scale(0.7)" xlink:href="#DejaVuSans-Oblique-79"/>
      <use transform="translate(635.926758 54.020313)scale(0.49)" xlink:href="#DejaVuSans-Oblique-74"/>
      <use transform="translate(655.13916 54.020313)scale(0.49)" xlink:href="#DejaVuSans-Oblique-72"/>
      <use transform="translate(675.284668 54.020313)scale(0.49)" xlink:href="#DejaVuSans-Oblique-75"/>
      <use transform="translate(706.340332 54.020313)scale(0.49)" xlink:href="#DejaVuSans-Oblique-65"/>
      <use transform="translate(738.400879 65.504688)scale(0.7)" xlink:href="#DejaVuSans-7c"/>
      <use transform="translate(761.984863 65.504688)scale(0.7)" xlink:href="#DejaVuSans-7c"/>
      <use transform="translate(426.566406 -40.915469)scale(0.7)" xlink:href="#DejaVuSans-7c"/>
      <use transform="translate(450.150391 -40.915469)scale(0.7)" xlink:href="#DejaVuSans-7c"/>
      <use transform="translate(473.734375 -40.915469)scale(0.7)" xlink:href="#DejaVuSans-Oblique-79"/>
      <use transform="translate(515.160156 -52.399844)scale(0.49)" xlink:href="#DejaVuSans-Oblique-74"/>
      <use transform="translate(534.372559 -52.399844)scale(0.49)" xlink:href="#DejaVuSans-Oblique-72"/>
      <use transform="translate(554.518066 -52.399844)scale(0.49)" xlink:href="#DejaVuSans-Oblique-75"/>
      <use transform="translate(585.57373 -52.399844)scale(0.49)" xlink:href="#DejaVuSans-Oblique-65"/>
      <use transform="translate(617.634277 -40.915469)scale(0.7)" xlink:href="#DejaVuSans-7c"/>
      <use transform="translate(641.218262 -40.915469)scale(0.7)" xlink:href="#DejaVuSans-7c"/>
      <path d="M 305.566406 18.829844 
L 305.566406 25.079844 
L 785.568848 25.079844 
L 785.568848 18.829844 
L 305.566406 18.829844 
z
"/>
     </g>
    </g>
   </g>
   <g id="matplotlib.axis_6">
    <g id="ytick_14">
     <g id="line2d_37">
      <path clip-path="url(#p21e98a927a)" d="M 911.325938 414.02875 
L 1280.800938 414.02875 
" style="fill:none;stroke:#ffffff;stroke-linecap:round;"/>
     </g>
     <g id="text_37">
      <!-- 0.0 -->
      <g style="fill:#262626;" transform="translate(882.365938 419.039219)scale(0.14 -0.14)">
       <use xlink:href="#ArialMT-30"/>
       <use x="55.615234" xlink:href="#ArialMT-2e"/>
       <use x="83.398438" xlink:href="#ArialMT-30"/>
      </g>
     </g>
    </g>
    <g id="ytick_15">
     <g id="line2d_38">
      <path clip-path="url(#p21e98a927a)" d="M 911.325938 374.205289 
L 1280.800938 374.205289 
" style="fill:none;stroke:#ffffff;stroke-linecap:round;"/>
     </g>
     <g id="text_38">
      <!-- 0.1 -->
      <g style="fill:#262626;" transform="translate(882.365938 379.215758)scale(0.14 -0.14)">
       <use xlink:href="#ArialMT-30"/>
       <use x="55.615234" xlink:href="#ArialMT-2e"/>
       <use x="83.398438" xlink:href="#ArialMT-31"/>
      </g>
     </g>
    </g>
    <g id="ytick_16">
     <g id="line2d_39">
      <path clip-path="url(#p21e98a927a)" d="M 911.325938 334.381828 
L 1280.800938 334.381828 
" style="fill:none;stroke:#ffffff;stroke-linecap:round;"/>
     </g>
     <g id="text_39">
      <!-- 0.2 -->
      <g style="fill:#262626;" transform="translate(882.365938 339.392297)scale(0.14 -0.14)">
       <use xlink:href="#ArialMT-30"/>
       <use x="55.615234" xlink:href="#ArialMT-2e"/>
       <use x="83.398438" xlink:href="#ArialMT-32"/>
      </g>
     </g>
    </g>
    <g id="ytick_17">
     <g id="line2d_40">
      <path clip-path="url(#p21e98a927a)" d="M 911.325938 294.558367 
L 1280.800938 294.558367 
" style="fill:none;stroke:#ffffff;stroke-linecap:round;"/>
     </g>
     <g id="text_40">
      <!-- 0.3 -->
      <g style="fill:#262626;" transform="translate(882.365938 299.568835)scale(0.14 -0.14)">
       <use xlink:href="#ArialMT-30"/>
       <use x="55.615234" xlink:href="#ArialMT-2e"/>
       <use x="83.398438" xlink:href="#ArialMT-33"/>
      </g>
     </g>
    </g>
    <g id="ytick_18">
     <g id="line2d_41">
      <path clip-path="url(#p21e98a927a)" d="M 911.325938 254.734906 
L 1280.800938 254.734906 
" style="fill:none;stroke:#ffffff;stroke-linecap:round;"/>
     </g>
     <g id="text_41">
      <!-- 0.4 -->
      <g style="fill:#262626;" transform="translate(882.365938 259.745374)scale(0.14 -0.14)">
       <use xlink:href="#ArialMT-30"/>
       <use x="55.615234" xlink:href="#ArialMT-2e"/>
       <use x="83.398438" xlink:href="#ArialMT-34"/>
      </g>
     </g>
    </g>
    <g id="ytick_19">
     <g id="line2d_42">
      <path clip-path="url(#p21e98a927a)" d="M 911.325938 214.911445 
L 1280.800938 214.911445 
" style="fill:none;stroke:#ffffff;stroke-linecap:round;"/>
     </g>
     <g id="text_42">
      <!-- 0.5 -->
      <g style="fill:#262626;" transform="translate(882.365938 219.921913)scale(0.14 -0.14)">
       <use xlink:href="#ArialMT-30"/>
       <use x="55.615234" xlink:href="#ArialMT-2e"/>
       <use x="83.398438" xlink:href="#ArialMT-35"/>
      </g>
     </g>
    </g>
    <g id="ytick_20">
     <g id="line2d_43">
      <path clip-path="url(#p21e98a927a)" d="M 911.325938 175.087983 
L 1280.800938 175.087983 
" style="fill:none;stroke:#ffffff;stroke-linecap:round;"/>
     </g>
     <g id="text_43">
      <!-- 0.6 -->
      <g style="fill:#262626;" transform="translate(882.365938 180.098452)scale(0.14 -0.14)">
       <use xlink:href="#ArialMT-30"/>
       <use x="55.615234" xlink:href="#ArialMT-2e"/>
       <use x="83.398438" xlink:href="#ArialMT-36"/>
      </g>
     </g>
    </g>
    <g id="ytick_21">
     <g id="line2d_44">
      <path clip-path="url(#p21e98a927a)" d="M 911.325938 135.264522 
L 1280.800938 135.264522 
" style="fill:none;stroke:#ffffff;stroke-linecap:round;"/>
     </g>
     <g id="text_44">
      <!-- 0.7 -->
      <g style="fill:#262626;" transform="translate(882.365938 140.274991)scale(0.14 -0.14)">
       <defs>
        <path d="M 303 3981 
L 303 4522 
L 3269 4522 
L 3269 4084 
Q 2831 3619 2401 2847 
Q 1972 2075 1738 1259 
Q 1569 684 1522 0 
L 944 0 
Q 953 541 1156 1306 
Q 1359 2072 1739 2783 
Q 2119 3494 2547 3981 
L 303 3981 
z
" id="ArialMT-37" transform="scale(0.015625)"/>
       </defs>
       <use xlink:href="#ArialMT-30"/>
       <use x="55.615234" xlink:href="#ArialMT-2e"/>
       <use x="83.398438" xlink:href="#ArialMT-37"/>
      </g>
     </g>
    </g>
    <g id="ytick_22">
     <g id="line2d_45">
      <path clip-path="url(#p21e98a927a)" d="M 911.325938 95.441061 
L 1280.800938 95.441061 
" style="fill:none;stroke:#ffffff;stroke-linecap:round;"/>
     </g>
     <g id="text_45">
      <!-- 0.8 -->
      <g style="fill:#262626;" transform="translate(882.365938 100.45153)scale(0.14 -0.14)">
       <use xlink:href="#ArialMT-30"/>
       <use x="55.615234" xlink:href="#ArialMT-2e"/>
       <use x="83.398438" xlink:href="#ArialMT-38"/>
      </g>
     </g>
    </g>
    <g id="text_46">
     <!-- Probability -->
     <g style="fill:#262626;" transform="translate(874.156563 289.27625)rotate(-90)scale(0.2 -0.2)">
      <defs>
       <path d="M 941 0 
L 419 0 
L 419 4581 
L 981 4581 
L 981 2947 
Q 1338 3394 1891 3394 
Q 2197 3394 2470 3270 
Q 2744 3147 2920 2923 
Q 3097 2700 3197 2384 
Q 3297 2069 3297 1709 
Q 3297 856 2875 390 
Q 2453 -75 1863 -75 
Q 1275 -75 941 416 
L 941 0 
z
M 934 1684 
Q 934 1088 1097 822 
Q 1363 388 1816 388 
Q 2184 388 2453 708 
Q 2722 1028 2722 1663 
Q 2722 2313 2464 2622 
Q 2206 2931 1841 2931 
Q 1472 2931 1203 2611 
Q 934 2291 934 1684 
z
" id="ArialMT-62" transform="scale(0.015625)"/>
       <path d="M 397 -1278 
L 334 -750 
Q 519 -800 656 -800 
Q 844 -800 956 -737 
Q 1069 -675 1141 -563 
Q 1194 -478 1313 -144 
Q 1328 -97 1363 -6 
L 103 3319 
L 709 3319 
L 1400 1397 
Q 1534 1031 1641 628 
Q 1738 1016 1872 1384 
L 2581 3319 
L 3144 3319 
L 1881 -56 
Q 1678 -603 1566 -809 
Q 1416 -1088 1222 -1217 
Q 1028 -1347 759 -1347 
Q 597 -1347 397 -1278 
z
" id="ArialMT-79" transform="scale(0.015625)"/>
      </defs>
      <use xlink:href="#ArialMT-50"/>
      <use x="66.699219" xlink:href="#ArialMT-72"/>
      <use x="100" xlink:href="#ArialMT-6f"/>
      <use x="155.615234" xlink:href="#ArialMT-62"/>
      <use x="211.230469" xlink:href="#ArialMT-61"/>
      <use x="266.845703" xlink:href="#ArialMT-62"/>
      <use x="322.460938" xlink:href="#ArialMT-69"/>
      <use x="344.677734" xlink:href="#ArialMT-6c"/>
      <use x="366.894531" xlink:href="#ArialMT-69"/>
      <use x="389.111328" xlink:href="#ArialMT-74"/>
      <use x="416.894531" xlink:href="#ArialMT-79"/>
     </g>
    </g>
   </g>
   <g id="patch_13">
    <path clip-path="url(#p21e98a927a)" d="M 928.120256 414.02875 
L 961.59084 414.02875 
L 961.59084 87.476369 
L 928.120256 87.476369 
z
" style="fill:#b1400d;fill-opacity:0.75;stroke:#ffffff;stroke-linejoin:miter;"/>
   </g>
   <g id="patch_14">
    <path clip-path="url(#p21e98a927a)" d="M 961.59084 414.02875 
L 995.061424 414.02875 
L 995.061424 362.258251 
L 961.59084 362.258251 
z
" style="fill:#b1400d;fill-opacity:0.75;stroke:#ffffff;stroke-linejoin:miter;"/>
   </g>
   <g id="patch_15">
    <path clip-path="url(#p21e98a927a)" d="M 995.061424 414.02875 
L 1028.532009 414.02875 
L 1028.532009 406.064058 
L 995.061424 406.064058 
z
" style="fill:#b1400d;fill-opacity:0.75;stroke:#ffffff;stroke-linejoin:miter;"/>
   </g>
   <g id="patch_16">
    <path clip-path="url(#p21e98a927a)" d="M 1028.532009 414.02875 
L 1062.002593 414.02875 
L 1062.002593 402.081712 
L 1028.532009 402.081712 
z
" style="fill:#b1400d;fill-opacity:0.75;stroke:#ffffff;stroke-linejoin:miter;"/>
   </g>
   <g id="patch_17">
    <path clip-path="url(#p21e98a927a)" d="M 929.300775 414.02875 
L 962.77136 414.02875 
L 962.77136 357.712744 
L 929.300775 357.712744 
z
" style="fill:#12711c;fill-opacity:0.75;stroke:#ffffff;stroke-linejoin:miter;"/>
   </g>
   <g id="patch_18">
    <path clip-path="url(#p21e98a927a)" d="M 962.77136 414.02875 
L 996.241944 414.02875 
L 996.241944 385.870747 
L 962.77136 385.870747 
z
" style="fill:#12711c;fill-opacity:0.75;stroke:#ffffff;stroke-linejoin:miter;"/>
   </g>
   <g id="patch_19">
    <path clip-path="url(#p21e98a927a)" d="M 996.241944 414.02875 
L 1029.712529 414.02875 
L 1029.712529 385.870747 
L 996.241944 385.870747 
z
" style="fill:#12711c;fill-opacity:0.75;stroke:#ffffff;stroke-linejoin:miter;"/>
   </g>
   <g id="patch_20">
    <path clip-path="url(#p21e98a927a)" d="M 1029.712529 414.02875 
L 1063.183113 414.02875 
L 1063.183113 405.983606 
L 1029.712529 405.983606 
z
" style="fill:#12711c;fill-opacity:0.75;stroke:#ffffff;stroke-linejoin:miter;"/>
   </g>
   <g id="patch_21">
    <path clip-path="url(#p21e98a927a)" d="M 1063.183113 414.02875 
L 1096.653697 414.02875 
L 1096.653697 414.02875 
L 1063.183113 414.02875 
z
" style="fill:#12711c;fill-opacity:0.75;stroke:#ffffff;stroke-linejoin:miter;"/>
   </g>
   <g id="patch_22">
    <path clip-path="url(#p21e98a927a)" d="M 1096.653697 414.02875 
L 1130.124282 414.02875 
L 1130.124282 410.006178 
L 1096.653697 410.006178 
z
" style="fill:#12711c;fill-opacity:0.75;stroke:#ffffff;stroke-linejoin:miter;"/>
   </g>
   <g id="patch_23">
    <path clip-path="url(#p21e98a927a)" d="M 1130.124282 414.02875 
L 1163.594866 414.02875 
L 1163.594866 385.870747 
L 1130.124282 385.870747 
z
" style="fill:#12711c;fill-opacity:0.75;stroke:#ffffff;stroke-linejoin:miter;"/>
   </g>
   <g id="patch_24">
    <path clip-path="url(#p21e98a927a)" d="M 1163.594866 414.02875 
L 1197.065451 414.02875 
L 1197.065451 369.78046 
L 1163.594866 369.78046 
z
" style="fill:#12711c;fill-opacity:0.75;stroke:#ffffff;stroke-linejoin:miter;"/>
   </g>
   <g id="patch_25">
    <path clip-path="url(#p21e98a927a)" d="M 1197.065451 414.02875 
L 1230.536035 414.02875 
L 1230.536035 361.735316 
L 1197.065451 361.735316 
z
" style="fill:#12711c;fill-opacity:0.75;stroke:#ffffff;stroke-linejoin:miter;"/>
   </g>
   <g id="patch_26">
    <path clip-path="url(#p21e98a927a)" d="M 1230.536035 414.02875 
L 1264.006619 414.02875 
L 1264.006619 265.193592 
L 1230.536035 265.193592 
z
" style="fill:#12711c;fill-opacity:0.75;stroke:#ffffff;stroke-linejoin:miter;"/>
   </g>
   <g id="patch_27">
    <path d="M 911.325938 414.02875 
L 911.325938 71.14875 
" style="fill:none;stroke:#ffffff;stroke-linecap:square;stroke-linejoin:miter;stroke-width:1.25;"/>
   </g>
   <g id="patch_28">
    <path d="M 1280.800938 414.02875 
L 1280.800938 71.14875 
" style="fill:none;stroke:#ffffff;stroke-linecap:square;stroke-linejoin:miter;stroke-width:1.25;"/>
   </g>
   <g id="patch_29">
    <path d="M 911.325938 414.02875 
L 1280.800938 414.02875 
" style="fill:none;stroke:#ffffff;stroke-linecap:square;stroke-linejoin:miter;stroke-width:1.25;"/>
   </g>
   <g id="patch_30">
    <path d="M 911.325938 71.14875 
L 1280.800938 71.14875 
" style="fill:none;stroke:#ffffff;stroke-linecap:square;stroke-linejoin:miter;stroke-width:1.25;"/>
   </g>
  </g>
  <g id="legend_1">
   <g id="patch_31">
    <path d="M 496.265312 48.34875 
L 790.936563 48.34875 
Q 795.736562 48.34875 795.736562 43.54875 
L 795.736562 12 
Q 795.736562 7.2 790.936563 7.2 
L 496.265312 7.2 
Q 491.465312 7.2 491.465312 12 
L 491.465312 43.54875 
Q 491.465312 48.34875 496.265312 48.34875 
z
" style="fill:#eaeaf2;opacity:0.8;stroke:#cccccc;stroke-linejoin:miter;"/>
   </g>
   <g id="patch_32">
    <path d="M 501.065313 33.97875 
L 549.065313 33.97875 
L 549.065313 17.17875 
L 501.065313 17.17875 
z
" style="fill:#b1400d;fill-opacity:0.75;stroke:#ffffff;stroke-linejoin:miter;"/>
   </g>
   <g id="text_47">
    <!-- DNN -->
    <g style="fill:#262626;" transform="translate(568.265313 33.97875)scale(0.24 -0.24)">
     <defs>
      <path d="M 494 0 
L 494 4581 
L 2072 4581 
Q 2606 4581 2888 4516 
Q 3281 4425 3559 4188 
Q 3922 3881 4101 3404 
Q 4281 2928 4281 2316 
Q 4281 1794 4159 1391 
Q 4038 988 3847 723 
Q 3656 459 3429 307 
Q 3203 156 2883 78 
Q 2563 0 2147 0 
L 494 0 
z
M 1100 541 
L 2078 541 
Q 2531 541 2789 625 
Q 3047 709 3200 863 
Q 3416 1078 3536 1442 
Q 3656 1806 3656 2325 
Q 3656 3044 3420 3430 
Q 3184 3816 2847 3947 
Q 2603 4041 2063 4041 
L 1100 4041 
L 1100 541 
z
" id="ArialMT-44" transform="scale(0.015625)"/>
      <path d="M 488 0 
L 488 4581 
L 1109 4581 
L 3516 984 
L 3516 4581 
L 4097 4581 
L 4097 0 
L 3475 0 
L 1069 3600 
L 1069 0 
L 488 0 
z
" id="ArialMT-4e" transform="scale(0.015625)"/>
     </defs>
     <use xlink:href="#ArialMT-44"/>
     <use x="72.216797" xlink:href="#ArialMT-4e"/>
     <use x="144.433594" xlink:href="#ArialMT-4e"/>
    </g>
   </g>
   <g id="patch_33">
    <path d="M 668.262812 33.97875 
L 716.262812 33.97875 
L 716.262812 17.17875 
L 668.262812 17.17875 
z
" style="fill:#12711c;fill-opacity:0.75;stroke:#ffffff;stroke-linejoin:miter;"/>
   </g>
   <g id="text_48">
    <!-- SNN -->
    <g style="fill:#262626;" transform="translate(735.462813 33.97875)scale(0.24 -0.24)">
     <defs>
      <path d="M 288 1472 
L 859 1522 
Q 900 1178 1048 958 
Q 1197 738 1509 602 
Q 1822 466 2213 466 
Q 2559 466 2825 569 
Q 3091 672 3220 851 
Q 3350 1031 3350 1244 
Q 3350 1459 3225 1620 
Q 3100 1781 2813 1891 
Q 2628 1963 1997 2114 
Q 1366 2266 1113 2400 
Q 784 2572 623 2826 
Q 463 3081 463 3397 
Q 463 3744 659 4045 
Q 856 4347 1234 4503 
Q 1613 4659 2075 4659 
Q 2584 4659 2973 4495 
Q 3363 4331 3572 4012 
Q 3781 3694 3797 3291 
L 3216 3247 
Q 3169 3681 2898 3903 
Q 2628 4125 2100 4125 
Q 1550 4125 1298 3923 
Q 1047 3722 1047 3438 
Q 1047 3191 1225 3031 
Q 1400 2872 2139 2705 
Q 2878 2538 3153 2413 
Q 3553 2228 3743 1945 
Q 3934 1663 3934 1294 
Q 3934 928 3725 604 
Q 3516 281 3123 101 
Q 2731 -78 2241 -78 
Q 1619 -78 1198 103 
Q 778 284 539 648 
Q 300 1013 288 1472 
z
" id="ArialMT-53" transform="scale(0.015625)"/>
     </defs>
     <use xlink:href="#ArialMT-53"/>
     <use x="66.699219" xlink:href="#ArialMT-4e"/>
     <use x="138.916016" xlink:href="#ArialMT-4e"/>
    </g>
   </g>
  </g>
 </g>
 <defs>
  <clipPath id="p848113af05">
   <rect height="342.88" width="369.475" x="46.775938" y="71.14875"/>
  </clipPath>
  <clipPath id="pf6e67a39f1">
   <rect height="342.88" width="369.475" x="479.050938" y="71.14875"/>
  </clipPath>
  <clipPath id="p21e98a927a">
   <rect height="342.88" width="369.475" x="911.325938" y="71.14875"/>
  </clipPath>
 </defs>
</svg>
