<?xml version="1.0" encoding="utf-8" standalone="no"?>
<!DOCTYPE svg PUBLIC "-//W3C//DTD SVG 1.1//EN"
  "http://www.w3.org/Graphics/SVG/1.1/DTD/svg11.dtd">
<svg height="432pt" version="1.1" viewBox="0 0 648 432" width="648pt" xmlns="http://www.w3.org/2000/svg" xmlns:xlink="http://www.w3.org/1999/xlink">
 <metadata>
  <rdf:RDF xmlns:cc="http://creativecommons.org/ns#" xmlns:dc="http://purl.org/dc/elements/1.1/" xmlns:rdf="http://www.w3.org/1999/02/22-rdf-syntax-ns#">
   <cc:Work>
    <dc:type rdf:resource="http://purl.org/dc/dcmitype/StillImage"/>
    <dc:date>2021-10-21T17:23:14.294930</dc:date>
    <dc:format>image/svg+xml</dc:format>
    <dc:creator>
     <cc:Agent>
      <dc:title>Matplotlib v3.4.2, https://matplotlib.org/</dc:title>
     </cc:Agent>
    </dc:creator>
   </cc:Work>
  </rdf:RDF>
 </metadata>
 <defs>
  <style type="text/css">*{stroke-linecap:butt;stroke-linejoin:round;}</style>
 </defs>
 <g id="figure_1">
  <g id="patch_1">
   <path d="M 0 432 
L 648 432 
L 648 0 
L 0 0 
z
" style="fill:#ffffff;"/>
  </g>
  <g id="axes_1">
   <g id="patch_2">
    <path d="M 72.45 373.86 
L 627.255 373.86 
L 627.255 18 
L 72.45 18 
z
" style="fill:#eaeaf2;"/>
   </g>
   <g id="matplotlib.axis_1">
    <g id="xtick_1">
     <g id="line2d_1">
      <path clip-path="url(#p2d8dbeef80)" d="M 72.45 373.86 
L 72.45 18 
" style="fill:none;stroke:#ffffff;stroke-linecap:round;"/>
     </g>
     <g id="text_1">
      <!-- 0 -->
      <g style="fill:#262626;" transform="translate(68.557344 393.380938)scale(0.14 -0.14)">
       <defs>
        <path d="M 266 2259 
Q 266 3072 433 3567 
Q 600 4063 929 4331 
Q 1259 4600 1759 4600 
Q 2128 4600 2406 4451 
Q 2684 4303 2865 4023 
Q 3047 3744 3150 3342 
Q 3253 2941 3253 2259 
Q 3253 1453 3087 958 
Q 2922 463 2592 192 
Q 2263 -78 1759 -78 
Q 1097 -78 719 397 
Q 266 969 266 2259 
z
M 844 2259 
Q 844 1131 1108 757 
Q 1372 384 1759 384 
Q 2147 384 2411 759 
Q 2675 1134 2675 2259 
Q 2675 3391 2411 3762 
Q 2147 4134 1753 4134 
Q 1366 4134 1134 3806 
Q 844 3388 844 2259 
z
" id="ArialMT-30" transform="scale(0.015625)"/>
       </defs>
       <use xlink:href="#ArialMT-30"/>
      </g>
     </g>
    </g>
    <g id="xtick_2">
     <g id="line2d_2">
      <path clip-path="url(#p2d8dbeef80)" d="M 141.800625 373.86 
L 141.800625 18 
" style="fill:none;stroke:#ffffff;stroke-linecap:round;"/>
     </g>
     <g id="text_2">
      <!-- 5 -->
      <g style="fill:#262626;" transform="translate(137.907969 393.380938)scale(0.14 -0.14)">
       <defs>
        <path d="M 266 1200 
L 856 1250 
Q 922 819 1161 601 
Q 1400 384 1738 384 
Q 2144 384 2425 690 
Q 2706 997 2706 1503 
Q 2706 1984 2436 2262 
Q 2166 2541 1728 2541 
Q 1456 2541 1237 2417 
Q 1019 2294 894 2097 
L 366 2166 
L 809 4519 
L 3088 4519 
L 3088 3981 
L 1259 3981 
L 1013 2750 
Q 1425 3038 1878 3038 
Q 2478 3038 2890 2622 
Q 3303 2206 3303 1553 
Q 3303 931 2941 478 
Q 2500 -78 1738 -78 
Q 1113 -78 717 272 
Q 322 622 266 1200 
z
" id="ArialMT-35" transform="scale(0.015625)"/>
       </defs>
       <use xlink:href="#ArialMT-35"/>
      </g>
     </g>
    </g>
    <g id="xtick_3">
     <g id="line2d_3">
      <path clip-path="url(#p2d8dbeef80)" d="M 211.15125 373.86 
L 211.15125 18 
" style="fill:none;stroke:#ffffff;stroke-linecap:round;"/>
     </g>
     <g id="text_3">
      <!-- 10 -->
      <g style="fill:#262626;" transform="translate(203.365938 393.380938)scale(0.14 -0.14)">
       <defs>
        <path d="M 2384 0 
L 1822 0 
L 1822 3584 
Q 1619 3391 1289 3197 
Q 959 3003 697 2906 
L 697 3450 
Q 1169 3672 1522 3987 
Q 1875 4303 2022 4600 
L 2384 4600 
L 2384 0 
z
" id="ArialMT-31" transform="scale(0.015625)"/>
       </defs>
       <use xlink:href="#ArialMT-31"/>
       <use x="55.615234" xlink:href="#ArialMT-30"/>
      </g>
     </g>
    </g>
    <g id="xtick_4">
     <g id="line2d_4">
      <path clip-path="url(#p2d8dbeef80)" d="M 280.501875 373.86 
L 280.501875 18 
" style="fill:none;stroke:#ffffff;stroke-linecap:round;"/>
     </g>
     <g id="text_4">
      <!-- 15 -->
      <g style="fill:#262626;" transform="translate(272.716563 393.380938)scale(0.14 -0.14)">
       <use xlink:href="#ArialMT-31"/>
       <use x="55.615234" xlink:href="#ArialMT-35"/>
      </g>
     </g>
    </g>
    <g id="xtick_5">
     <g id="line2d_5">
      <path clip-path="url(#p2d8dbeef80)" d="M 349.8525 373.86 
L 349.8525 18 
" style="fill:none;stroke:#ffffff;stroke-linecap:round;"/>
     </g>
     <g id="text_5">
      <!-- 20 -->
      <g style="fill:#262626;" transform="translate(342.067187 393.380938)scale(0.14 -0.14)">
       <defs>
        <path d="M 3222 541 
L 3222 0 
L 194 0 
Q 188 203 259 391 
Q 375 700 629 1000 
Q 884 1300 1366 1694 
Q 2113 2306 2375 2664 
Q 2638 3022 2638 3341 
Q 2638 3675 2398 3904 
Q 2159 4134 1775 4134 
Q 1369 4134 1125 3890 
Q 881 3647 878 3216 
L 300 3275 
Q 359 3922 746 4261 
Q 1134 4600 1788 4600 
Q 2447 4600 2831 4234 
Q 3216 3869 3216 3328 
Q 3216 3053 3103 2787 
Q 2991 2522 2730 2228 
Q 2469 1934 1863 1422 
Q 1356 997 1212 845 
Q 1069 694 975 541 
L 3222 541 
z
" id="ArialMT-32" transform="scale(0.015625)"/>
       </defs>
       <use xlink:href="#ArialMT-32"/>
       <use x="55.615234" xlink:href="#ArialMT-30"/>
      </g>
     </g>
    </g>
    <g id="xtick_6">
     <g id="line2d_6">
      <path clip-path="url(#p2d8dbeef80)" d="M 419.203125 373.86 
L 419.203125 18 
" style="fill:none;stroke:#ffffff;stroke-linecap:round;"/>
     </g>
     <g id="text_6">
      <!-- 25 -->
      <g style="fill:#262626;" transform="translate(411.417813 393.380938)scale(0.14 -0.14)">
       <use xlink:href="#ArialMT-32"/>
       <use x="55.615234" xlink:href="#ArialMT-35"/>
      </g>
     </g>
    </g>
    <g id="xtick_7">
     <g id="line2d_7">
      <path clip-path="url(#p2d8dbeef80)" d="M 488.55375 373.86 
L 488.55375 18 
" style="fill:none;stroke:#ffffff;stroke-linecap:round;"/>
     </g>
     <g id="text_7">
      <!-- 30 -->
      <g style="fill:#262626;" transform="translate(480.768438 393.380938)scale(0.14 -0.14)">
       <defs>
        <path d="M 269 1209 
L 831 1284 
Q 928 806 1161 595 
Q 1394 384 1728 384 
Q 2125 384 2398 659 
Q 2672 934 2672 1341 
Q 2672 1728 2419 1979 
Q 2166 2231 1775 2231 
Q 1616 2231 1378 2169 
L 1441 2663 
Q 1497 2656 1531 2656 
Q 1891 2656 2178 2843 
Q 2466 3031 2466 3422 
Q 2466 3731 2256 3934 
Q 2047 4138 1716 4138 
Q 1388 4138 1169 3931 
Q 950 3725 888 3313 
L 325 3413 
Q 428 3978 793 4289 
Q 1159 4600 1703 4600 
Q 2078 4600 2393 4439 
Q 2709 4278 2876 4000 
Q 3044 3722 3044 3409 
Q 3044 3113 2884 2869 
Q 2725 2625 2413 2481 
Q 2819 2388 3044 2092 
Q 3269 1797 3269 1353 
Q 3269 753 2831 336 
Q 2394 -81 1725 -81 
Q 1122 -81 723 278 
Q 325 638 269 1209 
z
" id="ArialMT-33" transform="scale(0.015625)"/>
       </defs>
       <use xlink:href="#ArialMT-33"/>
       <use x="55.615234" xlink:href="#ArialMT-30"/>
      </g>
     </g>
    </g>
    <g id="xtick_8">
     <g id="line2d_8">
      <path clip-path="url(#p2d8dbeef80)" d="M 557.904375 373.86 
L 557.904375 18 
" style="fill:none;stroke:#ffffff;stroke-linecap:round;"/>
     </g>
     <g id="text_8">
      <!-- 35 -->
      <g style="fill:#262626;" transform="translate(550.119062 393.380938)scale(0.14 -0.14)">
       <use xlink:href="#ArialMT-33"/>
       <use x="55.615234" xlink:href="#ArialMT-35"/>
      </g>
     </g>
    </g>
    <g id="xtick_9">
     <g id="line2d_9">
      <path clip-path="url(#p2d8dbeef80)" d="M 627.255 373.86 
L 627.255 18 
" style="fill:none;stroke:#ffffff;stroke-linecap:round;"/>
     </g>
     <g id="text_9">
      <!-- 40 -->
      <g style="fill:#262626;" transform="translate(619.469687 393.380938)scale(0.14 -0.14)">
       <defs>
        <path d="M 2069 0 
L 2069 1097 
L 81 1097 
L 81 1613 
L 2172 4581 
L 2631 4581 
L 2631 1613 
L 3250 1613 
L 3250 1097 
L 2631 1097 
L 2631 0 
L 2069 0 
z
M 2069 1613 
L 2069 3678 
L 634 1613 
L 2069 1613 
z
" id="ArialMT-34" transform="scale(0.015625)"/>
       </defs>
       <use xlink:href="#ArialMT-34"/>
       <use x="55.615234" xlink:href="#ArialMT-30"/>
      </g>
     </g>
    </g>
    <g id="text_10">
     <!-- Epochs -->
     <g style="fill:#262626;" transform="translate(316.499375 414.479063)scale(0.2 -0.2)">
      <defs>
       <path d="M 506 0 
L 506 4581 
L 3819 4581 
L 3819 4041 
L 1113 4041 
L 1113 2638 
L 3647 2638 
L 3647 2100 
L 1113 2100 
L 1113 541 
L 3925 541 
L 3925 0 
L 506 0 
z
" id="ArialMT-45" transform="scale(0.015625)"/>
       <path d="M 422 -1272 
L 422 3319 
L 934 3319 
L 934 2888 
Q 1116 3141 1344 3267 
Q 1572 3394 1897 3394 
Q 2322 3394 2647 3175 
Q 2972 2956 3137 2557 
Q 3303 2159 3303 1684 
Q 3303 1175 3120 767 
Q 2938 359 2589 142 
Q 2241 -75 1856 -75 
Q 1575 -75 1351 44 
Q 1128 163 984 344 
L 984 -1272 
L 422 -1272 
z
M 931 1641 
Q 931 1000 1190 694 
Q 1450 388 1819 388 
Q 2194 388 2461 705 
Q 2728 1022 2728 1688 
Q 2728 2322 2467 2637 
Q 2206 2953 1844 2953 
Q 1484 2953 1207 2617 
Q 931 2281 931 1641 
z
" id="ArialMT-70" transform="scale(0.015625)"/>
       <path d="M 213 1659 
Q 213 2581 725 3025 
Q 1153 3394 1769 3394 
Q 2453 3394 2887 2945 
Q 3322 2497 3322 1706 
Q 3322 1066 3130 698 
Q 2938 331 2570 128 
Q 2203 -75 1769 -75 
Q 1072 -75 642 372 
Q 213 819 213 1659 
z
M 791 1659 
Q 791 1022 1069 705 
Q 1347 388 1769 388 
Q 2188 388 2466 706 
Q 2744 1025 2744 1678 
Q 2744 2294 2464 2611 
Q 2184 2928 1769 2928 
Q 1347 2928 1069 2612 
Q 791 2297 791 1659 
z
" id="ArialMT-6f" transform="scale(0.015625)"/>
       <path d="M 2588 1216 
L 3141 1144 
Q 3050 572 2676 248 
Q 2303 -75 1759 -75 
Q 1078 -75 664 370 
Q 250 816 250 1647 
Q 250 2184 428 2587 
Q 606 2991 970 3192 
Q 1334 3394 1763 3394 
Q 2303 3394 2647 3120 
Q 2991 2847 3088 2344 
L 2541 2259 
Q 2463 2594 2264 2762 
Q 2066 2931 1784 2931 
Q 1359 2931 1093 2626 
Q 828 2322 828 1663 
Q 828 994 1084 691 
Q 1341 388 1753 388 
Q 2084 388 2306 591 
Q 2528 794 2588 1216 
z
" id="ArialMT-63" transform="scale(0.015625)"/>
       <path d="M 422 0 
L 422 4581 
L 984 4581 
L 984 2938 
Q 1378 3394 1978 3394 
Q 2347 3394 2619 3248 
Q 2891 3103 3008 2847 
Q 3125 2591 3125 2103 
L 3125 0 
L 2563 0 
L 2563 2103 
Q 2563 2525 2380 2717 
Q 2197 2909 1863 2909 
Q 1613 2909 1392 2779 
Q 1172 2650 1078 2428 
Q 984 2206 984 1816 
L 984 0 
L 422 0 
z
" id="ArialMT-68" transform="scale(0.015625)"/>
       <path d="M 197 991 
L 753 1078 
Q 800 744 1014 566 
Q 1228 388 1613 388 
Q 2000 388 2187 545 
Q 2375 703 2375 916 
Q 2375 1106 2209 1216 
Q 2094 1291 1634 1406 
Q 1016 1563 777 1677 
Q 538 1791 414 1992 
Q 291 2194 291 2438 
Q 291 2659 392 2848 
Q 494 3038 669 3163 
Q 800 3259 1026 3326 
Q 1253 3394 1513 3394 
Q 1903 3394 2198 3281 
Q 2494 3169 2634 2976 
Q 2775 2784 2828 2463 
L 2278 2388 
Q 2241 2644 2061 2787 
Q 1881 2931 1553 2931 
Q 1166 2931 1000 2803 
Q 834 2675 834 2503 
Q 834 2394 903 2306 
Q 972 2216 1119 2156 
Q 1203 2125 1616 2013 
Q 2213 1853 2448 1751 
Q 2684 1650 2818 1456 
Q 2953 1263 2953 975 
Q 2953 694 2789 445 
Q 2625 197 2315 61 
Q 2006 -75 1616 -75 
Q 969 -75 630 194 
Q 291 463 197 991 
z
" id="ArialMT-73" transform="scale(0.015625)"/>
      </defs>
      <use xlink:href="#ArialMT-45"/>
      <use x="66.699219" xlink:href="#ArialMT-70"/>
      <use x="122.314453" xlink:href="#ArialMT-6f"/>
      <use x="177.929688" xlink:href="#ArialMT-63"/>
      <use x="227.929688" xlink:href="#ArialMT-68"/>
      <use x="283.544922" xlink:href="#ArialMT-73"/>
     </g>
    </g>
   </g>
   <g id="matplotlib.axis_2">
    <g id="ytick_1">
     <g id="line2d_10">
      <path clip-path="url(#p2d8dbeef80)" d="M 72.45 373.86 
L 627.255 373.86 
" style="fill:none;stroke:#ffffff;stroke-linecap:round;"/>
     </g>
     <g id="text_11">
      <!-- 0.30 -->
      <g style="fill:#262626;" transform="translate(35.704687 378.870469)scale(0.14 -0.14)">
       <defs>
        <path d="M 581 0 
L 581 641 
L 1222 641 
L 1222 0 
L 581 0 
z
" id="ArialMT-2e" transform="scale(0.015625)"/>
       </defs>
       <use xlink:href="#ArialMT-30"/>
       <use x="55.615234" xlink:href="#ArialMT-2e"/>
       <use x="83.398438" xlink:href="#ArialMT-33"/>
       <use x="139.013672" xlink:href="#ArialMT-30"/>
      </g>
     </g>
    </g>
    <g id="ytick_2">
     <g id="line2d_11">
      <path clip-path="url(#p2d8dbeef80)" d="M 72.45 302.688 
L 627.255 302.688 
" style="fill:none;stroke:#ffffff;stroke-linecap:round;"/>
     </g>
     <g id="text_12">
      <!-- 0.35 -->
      <g style="fill:#262626;" transform="translate(35.704687 307.698469)scale(0.14 -0.14)">
       <use xlink:href="#ArialMT-30"/>
       <use x="55.615234" xlink:href="#ArialMT-2e"/>
       <use x="83.398438" xlink:href="#ArialMT-33"/>
       <use x="139.013672" xlink:href="#ArialMT-35"/>
      </g>
     </g>
    </g>
    <g id="ytick_3">
     <g id="line2d_12">
      <path clip-path="url(#p2d8dbeef80)" d="M 72.45 231.516 
L 627.255 231.516 
" style="fill:none;stroke:#ffffff;stroke-linecap:round;"/>
     </g>
     <g id="text_13">
      <!-- 0.40 -->
      <g style="fill:#262626;" transform="translate(35.704687 236.526469)scale(0.14 -0.14)">
       <use xlink:href="#ArialMT-30"/>
       <use x="55.615234" xlink:href="#ArialMT-2e"/>
       <use x="83.398438" xlink:href="#ArialMT-34"/>
       <use x="139.013672" xlink:href="#ArialMT-30"/>
      </g>
     </g>
    </g>
    <g id="ytick_4">
     <g id="line2d_13">
      <path clip-path="url(#p2d8dbeef80)" d="M 72.45 160.344 
L 627.255 160.344 
" style="fill:none;stroke:#ffffff;stroke-linecap:round;"/>
     </g>
     <g id="text_14">
      <!-- 0.45 -->
      <g style="fill:#262626;" transform="translate(35.704687 165.354469)scale(0.14 -0.14)">
       <use xlink:href="#ArialMT-30"/>
       <use x="55.615234" xlink:href="#ArialMT-2e"/>
       <use x="83.398438" xlink:href="#ArialMT-34"/>
       <use x="139.013672" xlink:href="#ArialMT-35"/>
      </g>
     </g>
    </g>
    <g id="ytick_5">
     <g id="line2d_14">
      <path clip-path="url(#p2d8dbeef80)" d="M 72.45 89.172 
L 627.255 89.172 
" style="fill:none;stroke:#ffffff;stroke-linecap:round;"/>
     </g>
     <g id="text_15">
      <!-- 0.50 -->
      <g style="fill:#262626;" transform="translate(35.704687 94.182469)scale(0.14 -0.14)">
       <use xlink:href="#ArialMT-30"/>
       <use x="55.615234" xlink:href="#ArialMT-2e"/>
       <use x="83.398438" xlink:href="#ArialMT-35"/>
       <use x="139.013672" xlink:href="#ArialMT-30"/>
      </g>
     </g>
    </g>
    <g id="ytick_6">
     <g id="line2d_15">
      <path clip-path="url(#p2d8dbeef80)" d="M 72.45 18 
L 627.255 18 
" style="fill:none;stroke:#ffffff;stroke-linecap:round;"/>
     </g>
     <g id="text_16">
      <!-- 0.55 -->
      <g style="fill:#262626;" transform="translate(35.704687 23.010469)scale(0.14 -0.14)">
       <use xlink:href="#ArialMT-30"/>
       <use x="55.615234" xlink:href="#ArialMT-2e"/>
       <use x="83.398438" xlink:href="#ArialMT-35"/>
       <use x="139.013672" xlink:href="#ArialMT-35"/>
      </g>
     </g>
    </g>
    <g id="text_17">
     <!-- Loss -->
     <g style="fill:#262626;" transform="translate(27.729687 217.051875)rotate(-90)scale(0.2 -0.2)">
      <defs>
       <path d="M 469 0 
L 469 4581 
L 1075 4581 
L 1075 541 
L 3331 541 
L 3331 0 
L 469 0 
z
" id="ArialMT-4c" transform="scale(0.015625)"/>
      </defs>
      <use xlink:href="#ArialMT-4c"/>
      <use x="55.615234" xlink:href="#ArialMT-6f"/>
      <use x="111.230469" xlink:href="#ArialMT-73"/>
      <use x="161.230469" xlink:href="#ArialMT-73"/>
     </g>
    </g>
   </g>
   <g id="line2d_16">
    <path clip-path="url(#p2d8dbeef80)" d="M 86.320125 77.123864 
L 100.19025 79.096224 
L 114.060375 79.872798 
L 127.9305 80.182647 
L 141.800625 80.4684 
L 155.67075 80.776128 
L 169.540875 80.57191 
L 183.411 80.806842 
L 197.281125 80.816768 
L 211.15125 80.978989 
L 225.021375 80.88651 
L 238.8915 80.970505 
L 252.761625 81.009364 
L 266.63175 80.976953 
L 280.501875 80.885322 
L 294.372 80.961851 
L 308.242125 80.96533 
L 322.11225 81.040586 
L 335.982375 81.028878 
L 349.8525 80.787073 
" style="fill:none;stroke:#000000;stroke-dasharray:3,0;stroke-dashoffset:0;stroke-width:1.5;"/>
   </g>
   <g id="line2d_17">
    <path clip-path="url(#p2d8dbeef80)" d="M 86.320125 81.451484 
L 100.19025 76.832511 
L 114.060375 79.6276 
L 127.9305 77.151863 
L 141.800625 82.731944 
L 155.67075 81.20408 
L 169.540875 81.466077 
L 183.411 82.48734 
L 197.281125 82.597127 
L 211.15125 82.510417 
L 225.021375 81.861109 
L 238.8915 81.102607 
L 252.761625 81.825474 
L 266.63175 81.725274 
L 280.501875 82.553687 
L 294.372 82.627671 
L 308.242125 82.21041 
L 322.11225 80.585145 
L 335.982375 82.543846 
L 349.8525 81.86043 
" style="fill:none;stroke:#000000;stroke-dasharray:9,3;stroke-dashoffset:0;stroke-width:1.5;"/>
   </g>
   <g id="line2d_18">
    <path clip-path="url(#p2d8dbeef80)" d="M 86.320125 78.07844 
L 100.19025 78.967432 
L 114.060375 79.382232 
L 127.9305 79.569482 
L 141.800625 80.135983 
L 155.67075 80.509295 
L 169.540875 80.280387 
L 183.411 80.437008 
L 197.281125 80.700108 
L 211.15125 80.81295 
L 225.021375 80.79437 
L 238.8915 81.040671 
L 252.761625 81.112364 
L 266.63175 81.111091 
L 280.501875 81.164543 
L 294.372 81.302329 
L 308.242125 81.304619 
L 322.11225 81.444442 
L 335.982375 81.427982 
L 349.8525 81.285614 
L 363.722625 81.3859 
L 377.59275 81.396335 
L 391.462875 81.372155 
L 405.333 81.510195 
L 419.203125 81.535055 
" style="fill:none;stroke:#2c1c12;stroke-dasharray:3,0;stroke-dashoffset:0;stroke-width:1.5;"/>
   </g>
   <g id="line2d_19">
    <path clip-path="url(#p2d8dbeef80)" d="M 86.320125 81.622359 
L 100.19025 78.352146 
L 114.060375 81.110752 
L 127.9305 78.271035 
L 141.800625 82.539434 
L 155.67075 78.906853 
L 169.540875 81.606917 
L 183.411 82.690116 
L 197.281125 82.425828 
L 211.15125 82.771481 
L 225.021375 82.092817 
L 238.8915 80.95413 
L 252.761625 81.355526 
L 266.63175 82.420992 
L 280.501875 82.767324 
L 294.372 82.539434 
L 308.242125 82.565735 
L 322.11225 80.174332 
L 335.982375 82.402496 
L 349.8525 82.509484 
L 363.722625 81.81173 
L 377.59275 80.862839 
L 391.462875 82.53061 
L 405.333 81.740122 
L 419.203125 80.610768 
" style="fill:none;stroke:#2c1c12;stroke-dasharray:9,3;stroke-dashoffset:0;stroke-width:1.5;"/>
   </g>
   <g id="line2d_20">
    <path clip-path="url(#p2d8dbeef80)" d="M 86.320125 79.474966 
L 100.19025 90.231994 
L 114.060375 98.869415 
L 127.9305 104.427946 
L 141.800625 108.104306 
L 155.67075 115.84073 
L 169.540875 134.747625 
L 183.411 146.478446 
L 197.281125 154.372892 
L 211.15125 158.811105 
L 225.021375 163.505927 
L 238.8915 167.958606 
L 252.761625 170.420853 
L 266.63175 175.460268 
L 280.501875 178.80192 
L 294.372 182.267867 
L 308.242125 186.906396 
L 322.11225 189.022608 
L 335.982375 193.276244 
L 349.8525 194.079246 
L 363.722625 196.816217 
L 377.59275 202.009496 
L 391.462875 205.21807 
L 405.333 209.702099 
L 419.203125 209.854266 
L 433.07325 213.548825 
L 474.683625 218.766878 
L 488.55375 222.058726 
L 502.423875 224.071769 
L 516.294 221.256954 
L 530.164125 226.413707 
L 544.03425 228.394509 
L 557.904375 228.969325 
L 571.7745 230.24724 
L 585.644625 231.152861 
L 599.51475 233.939253 
L 613.384875 232.106164 
L 627.255 235.60414 
L 641.125125 237.227835 
L 649 238.779532 
L 649 238.779532 
" style="fill:none;stroke:#5a3924;stroke-dasharray:3,0;stroke-dashoffset:0;stroke-width:1.5;"/>
   </g>
   <g id="line2d_21">
    <path clip-path="url(#p2d8dbeef80)" d="M 86.320125 83.52871 
L 100.19025 98.440107 
L 114.060375 100.616261 
L 127.9305 98.446979 
L 141.800625 112.832345 
L 155.67075 126.285788 
L 169.540875 134.143963 
L 183.411 159.043873 
L 197.281125 155.167579 
L 211.15125 164.134703 
L 225.021375 151.860417 
L 238.8915 164.716773 
L 252.761625 176.622668 
L 266.63175 170.468917 
L 280.501875 183.134375 
L 294.372 181.698778 
L 308.242125 182.590739 
L 322.11225 198.331143 
L 335.982375 184.225082 
L 349.8525 192.901362 
L 363.722625 197.875235 
L 377.59275 212.238839 
L 391.462875 203.60812 
L 405.333 191.779857 
L 419.203125 213.568296 
L 433.07325 201.05403 
L 446.943375 219.437058 
L 460.8135 220.331352 
L 474.683625 224.398374 
L 488.55375 226.475134 
L 502.423875 219.349754 
L 516.294 223.946836 
L 530.164125 214.562706 
L 544.03425 223.471033 
L 557.904375 228.837011 
L 571.7745 215.353109 
L 585.644625 229.32728 
L 599.51475 234.907064 
L 613.384875 217.254455 
L 627.255 236.222183 
L 641.125125 232.925372 
L 649 237.021804 
L 649 237.021804 
" style="fill:none;stroke:#5a3924;stroke-dasharray:9,3;stroke-dashoffset:0;stroke-width:1.5;"/>
   </g>
   <g id="line2d_22">
    <path clip-path="url(#p2d8dbeef80)" d="M 86.320125 79.924977 
L 100.19025 80.610089 
L 127.9305 80.340626 
L 141.800625 82.134051 
L 155.67075 91.003562 
L 169.540875 94.21027 
L 183.411 94.909254 
L 197.281125 99.755607 
L 211.15125 106.661582 
L 225.021375 109.456713 
L 238.8915 96.181951 
L 252.761625 103.212179 
L 266.63175 119.48837 
L 280.501875 131.279005 
L 294.372 141.597731 
L 308.242125 145.629713 
L 322.11225 155.334679 
L 335.982375 160.687422 
L 349.8525 165.17985 
L 363.722625 170.302708 
L 377.59275 173.605841 
L 391.462875 173.374727 
L 405.333 178.831657 
L 419.203125 182.179545 
L 433.07325 182.311858 
L 446.943375 185.380483 
L 460.8135 185.599676 
L 488.55375 189.930562 
L 502.423875 191.20678 
L 516.294 191.278219 
L 530.164125 196.076466 
L 544.03425 196.183793 
L 557.904375 199.11934 
L 571.7745 200.76641 
L 585.644625 202.101509 
L 599.51475 201.991 
L 613.384875 202.553598 
L 627.255 204.717238 
L 641.125125 206.6574 
L 649 206.273047 
L 649 206.273047 
" style="fill:none;stroke:#875536;stroke-dasharray:3,0;stroke-dashoffset:0;stroke-width:1.5;"/>
   </g>
   <g id="line2d_23">
    <path clip-path="url(#p2d8dbeef80)" d="M 86.320125 77.147875 
L 100.19025 81.436382 
L 114.060375 76.955959 
L 127.9305 66.595024 
L 141.800625 86.636957 
L 155.67075 91.514575 
L 169.540875 92.188785 
L 183.411 93.710456 
L 197.281125 98.10612 
L 211.15125 99.520039 
L 225.021375 115.024831 
L 238.8915 95.295844 
L 252.761625 109.513643 
L 266.63175 119.543052 
L 280.501875 135.60671 
L 294.372 149.590426 
L 308.242125 154.236675 
L 322.11225 139.525892 
L 335.982375 164.698744 
L 349.8525 168.095841 
L 363.722625 168.981566 
L 377.59275 178.428989 
L 391.462875 164.500846 
L 405.333 180.129722 
L 419.203125 180.044794 
L 433.07325 184.19263 
L 446.943375 174.467937 
L 460.8135 157.837778 
L 474.683625 192.128734 
L 488.55375 184.268607 
L 502.423875 191.453081 
L 516.294 188.770877 
L 530.164125 193.560131 
L 544.03425 193.215029 
L 557.904375 199.353339 
L 571.7745 199.184924 
L 585.644625 180.687145 
L 599.51475 193.755992 
L 613.384875 206.554442 
L 627.255 203.815478 
L 641.125125 204.129951 
L 649 206.94726 
L 649 206.94726 
" style="fill:none;stroke:#875536;stroke-dasharray:9,3;stroke-dashoffset:0;stroke-width:1.5;"/>
   </g>
   <g id="line2d_24">
    <path clip-path="url(#p2d8dbeef80)" d="M 86.320125 75.961167 
L 100.19025 82.68528 
L 114.060375 92.181616 
L 127.9305 98.33541 
L 141.800625 106.937366 
L 155.67075 115.215093 
L 169.540875 123.936552 
L 183.411 137.890997 
L 197.281125 156.811213 
L 211.15125 166.400198 
L 225.021375 170.870949 
L 238.8915 178.684751 
L 252.761625 184.317307 
L 280.501875 195.229769 
L 294.372 197.250108 
L 308.242125 204.362465 
L 322.11225 207.280407 
L 335.982375 210.623204 
L 349.8525 214.942042 
L 363.722625 218.174584 
L 377.59275 221.787099 
L 391.462875 222.011553 
L 405.333 227.158253 
L 419.203125 228.561906 
L 433.07325 233.534337 
L 446.943375 236.887951 
L 460.8135 238.172484 
L 474.683625 245.214378 
L 488.55375 246.369482 
L 502.423875 250.345552 
L 516.294 252.944991 
L 530.164125 256.36682 
L 557.904375 262.087571 
L 571.7745 261.394314 
L 585.644625 267.405825 
L 599.51475 265.146185 
L 613.384875 269.408389 
L 641.125125 271.635535 
L 649 272.811959 
L 649 272.811959 
" style="fill:none;stroke:#b47249;stroke-dasharray:3,0;stroke-dashoffset:0;stroke-width:1.5;"/>
   </g>
   <g id="line2d_25">
    <path clip-path="url(#p2d8dbeef80)" d="M 86.320125 82.705388 
L 100.19025 86.347216 
L 114.060375 91.544101 
L 127.9305 91.510588 
L 141.800625 103.377497 
L 155.67075 116.452071 
L 169.540875 120.982552 
L 183.411 152.542051 
L 197.281125 151.446592 
L 211.15125 174.55698 
L 225.021375 143.75348 
L 238.8915 178.655946 
L 252.761625 184.367577 
L 266.63175 186.0429 
L 280.501875 176.780265 
L 294.372 207.877664 
L 308.242125 210.930126 
L 322.11225 203.514919 
L 335.982375 194.202694 
L 349.8525 205.478455 
L 363.722625 207.142324 
L 377.59275 226.018082 
L 391.462875 231.217087 
L 405.333 213.70727 
L 419.203125 211.97909 
L 433.07325 235.530326 
L 446.943375 205.270037 
L 460.8135 230.86681 
L 474.683625 226.296029 
L 488.55375 249.772433 
L 502.423875 238.652868 
L 516.294 240.02636 
L 530.164125 231.533427 
L 544.03425 248.078827 
L 557.904375 247.155389 
L 571.7745 270.929805 
L 585.644625 252.159169 
L 599.51475 261.007003 
L 613.384875 274.264033 
L 627.255 273.433796 
L 641.125125 280.687375 
L 649 280.055376 
L 649 280.055376 
" style="fill:none;stroke:#b47249;stroke-dasharray:9,3;stroke-dashoffset:0;stroke-width:1.5;"/>
   </g>
   <g id="line2d_26">
    <path clip-path="url(#p2d8dbeef80)" d="M 88.06716 -1 
L 100.19025 82.205574 
L 114.060375 83.43377 
L 127.9305 92.544492 
L 141.800625 100.90965 
L 155.67075 105.024821 
L 169.540875 110.744173 
L 183.411 112.444524 
L 197.281125 118.134987 
L 211.15125 128.154342 
L 225.021375 135.375256 
L 238.8915 140.91474 
L 252.761625 145.799697 
L 266.63175 144.296692 
L 280.501875 151.423727 
L 294.372 149.737332 
L 308.242125 156.724163 
L 322.11225 158.441865 
L 335.982375 161.706521 
L 349.8525 166.552068 
L 363.722625 167.728171 
L 377.59275 167.903755 
L 391.462875 173.171484 
L 405.333 174.178578 
L 419.203125 175.590418 
L 433.07325 180.194798 
L 446.943375 181.270148 
L 474.683625 185.603622 
L 488.55375 188.125811 
L 502.423875 188.708941 
L 516.294 189.979135 
L 530.164125 190.807167 
L 544.03425 192.131152 
L 557.904375 193.71391 
L 571.7745 191.779899 
L 585.644625 195.681688 
L 599.51475 196.309022 
L 613.384875 197.650951 
L 627.255 195.448708 
L 641.125125 191.442815 
L 649 193.479422 
L 649 193.479422 
" style="fill:none;stroke:#e18e5b;stroke-dasharray:3,0;stroke-dashoffset:0;stroke-width:1.5;"/>
   </g>
   <g id="line2d_27">
    <path clip-path="url(#p2d8dbeef80)" d="M 86.320125 83.02177 
L 100.19025 79.622849 
L 114.060375 84.628454 
L 127.9305 86.558222 
L 141.800625 101.10513 
L 155.67075 106.49724 
L 169.540875 96.29615 
L 183.411 114.59128 
L 197.281125 126.363547 
L 211.15125 125.963127 
L 225.021375 130.171754 
L 238.8915 139.976114 
L 252.761625 120.36366 
L 266.63175 151.177044 
L 280.501875 155.939572 
L 294.372 148.266059 
L 308.242125 156.934533 
L 322.11225 155.016982 
L 335.982375 165.226641 
L 349.8525 162.120473 
L 363.722625 171.238364 
L 377.59275 170.218756 
L 391.462875 126.241839 
L 405.333 139.202553 
L 419.203125 143.081222 
L 433.07325 182.9106 
L 446.943375 168.361019 
L 460.8135 181.122393 
L 474.683625 187.81978 
L 488.55375 190.375694 
L 502.423875 189.166588 
L 516.294 192.565381 
L 530.164125 167.036398 
L 544.03425 186.758428 
L 557.904375 184.637125 
L 571.7745 190.362798 
L 585.644625 189.368558 
L 599.51475 185.471944 
L 613.384875 197.164288 
L 627.255 196.559141 
L 641.125125 154.435209 
L 649 180.814231 
L 649 180.814231 
" style="fill:none;stroke:#e18e5b;stroke-dasharray:9,3;stroke-dashoffset:0;stroke-width:1.5;"/>
   </g>
   <g id="line2d_28">
    <path clip-path="url(#p2d8dbeef80)" d="M 86.320125 77.688838 
L 100.19025 82.07483 
L 114.060375 81.99584 
L 127.9305 82.036396 
L 141.800625 81.083771 
L 155.67075 82.065158 
L 169.540875 82.68808 
L 183.411 83.772975 
L 197.281125 89.288151 
L 211.15125 94.447959 
L 225.021375 99.527548 
L 238.8915 106.069925 
L 252.761625 108.131116 
L 266.63175 113.760492 
L 280.501875 113.202348 
L 294.372 122.976844 
L 308.242125 130.120593 
L 322.11225 136.379211 
L 335.982375 141.116201 
L 349.8525 151.785458 
L 363.722625 146.620304 
L 377.59275 158.470542 
L 391.462875 157.04992 
L 405.333 165.06285 
L 419.203125 168.678971 
L 433.07325 171.649304 
L 446.943375 167.895313 
L 460.8135 176.983084 
L 474.683625 173.943603 
L 488.55375 176.13503 
L 502.423875 183.920748 
L 516.294 181.42117 
L 530.164125 184.571584 
L 544.03425 188.134719 
L 557.904375 194.325378 
L 571.7745 197.414662 
L 585.644625 192.111129 
L 599.51475 201.147145 
L 613.384875 203.509447 
L 627.255 197.881726 
L 641.125125 211.005849 
L 649 211.550755 
" style="fill:none;stroke:#ffab6d;stroke-dasharray:3,0;stroke-dashoffset:0;stroke-width:1.5;"/>
   </g>
   <g id="line2d_29">
    <path clip-path="url(#p2d8dbeef80)" d="M 86.320125 82.15908 
L 100.19025 82.407926 
L 114.060375 82.158401 
L 127.9305 75.940126 
L 141.800625 82.570826 
L 155.67075 79.330053 
L 169.540875 80.134456 
L 183.411 84.511454 
L 197.281125 80.654378 
L 211.15125 90.40779 
L 225.021375 97.43471 
L 238.8915 88.16007 
L 252.761625 106.466357 
L 266.63175 88.577585 
L 280.501875 117.952658 
L 294.372 100.053748 
L 308.242125 126.890681 
L 322.11225 128.371669 
L 335.982375 135.761719 
L 349.8525 157.195427 
L 363.722625 138.565334 
L 377.59275 140.180291 
L 391.462875 156.176285 
L 405.333 139.590924 
L 419.203125 156.833145 
L 433.07325 173.869917 
L 446.943375 162.561702 
L 460.8135 154.219409 
L 474.683625 172.493371 
L 488.55375 174.825086 
L 502.423875 103.071466 
L 516.294 184.1273 
L 530.164125 160.655139 
L 544.03425 185.570321 
L 557.904375 179.755095 
L 571.7745 160.386778 
L 585.644625 178.644323 
L 599.51475 185.275234 
L 613.384875 162.927081 
L 627.255 203.556959 
L 641.125125 206.946081 
L 649 209.565842 
" style="fill:none;stroke:#ffab6d;stroke-dasharray:9,3;stroke-dashoffset:0;stroke-width:1.5;"/>
   </g>
   <g id="patch_3">
    <path d="M 72.45 373.86 
L 72.45 18 
" style="fill:none;stroke:#ffffff;stroke-linecap:square;stroke-linejoin:miter;stroke-width:1.25;"/>
   </g>
   <g id="patch_4">
    <path d="M 627.255 373.86 
L 627.255 18 
" style="fill:none;stroke:#ffffff;stroke-linecap:square;stroke-linejoin:miter;stroke-width:1.25;"/>
   </g>
   <g id="patch_5">
    <path d="M 72.45 373.86 
L 627.255 373.86 
" style="fill:none;stroke:#ffffff;stroke-linecap:square;stroke-linejoin:miter;stroke-width:1.25;"/>
   </g>
   <g id="patch_6">
    <path d="M 72.45 18 
L 627.255 18 
" style="fill:none;stroke:#ffffff;stroke-linecap:square;stroke-linejoin:miter;stroke-width:1.25;"/>
   </g>
   <g id="legend_1">
    <g id="patch_7">
     <path d="M 85.05 364.86 
L 182.68875 364.86 
Q 186.28875 364.86 186.28875 361.26 
L 186.28875 184.829063 
Q 186.28875 181.229063 182.68875 181.229063 
L 85.05 181.229063 
Q 81.45 181.229063 81.45 184.829063 
L 81.45 361.26 
Q 81.45 364.86 85.05 364.86 
z
" style="fill:#eaeaf2;opacity:0.8;stroke:#cccccc;stroke-linejoin:miter;"/>
    </g>
    <g id="line2d_30">
     <path d="M 88.65 195.013125 
L 124.65 195.013125 
" style="fill:none;stroke:#000000;stroke-dasharray:3,0;stroke-dashoffset:0;stroke-width:1.5;"/>
    </g>
    <g id="line2d_31"/>
    <g id="text_18">
     <!-- 32 -->
     <g style="fill:#262626;" transform="translate(139.05 201.313125)scale(0.18 -0.18)">
      <use xlink:href="#ArialMT-33"/>
      <use x="55.615234" xlink:href="#ArialMT-32"/>
     </g>
    </g>
    <g id="line2d_32">
     <path d="M 88.65 220.474688 
L 124.65 220.474688 
" style="fill:none;stroke:#2c1c12;stroke-dasharray:3,0;stroke-dashoffset:0;stroke-width:1.5;"/>
    </g>
    <g id="line2d_33"/>
    <g id="text_19">
     <!-- 64 -->
     <g style="fill:#262626;" transform="translate(139.05 226.774688)scale(0.18 -0.18)">
      <defs>
       <path d="M 3184 3459 
L 2625 3416 
Q 2550 3747 2413 3897 
Q 2184 4138 1850 4138 
Q 1581 4138 1378 3988 
Q 1113 3794 959 3422 
Q 806 3050 800 2363 
Q 1003 2672 1297 2822 
Q 1591 2972 1913 2972 
Q 2475 2972 2870 2558 
Q 3266 2144 3266 1488 
Q 3266 1056 3080 686 
Q 2894 316 2569 119 
Q 2244 -78 1831 -78 
Q 1128 -78 684 439 
Q 241 956 241 2144 
Q 241 3472 731 4075 
Q 1159 4600 1884 4600 
Q 2425 4600 2770 4297 
Q 3116 3994 3184 3459 
z
M 888 1484 
Q 888 1194 1011 928 
Q 1134 663 1356 523 
Q 1578 384 1822 384 
Q 2178 384 2434 671 
Q 2691 959 2691 1453 
Q 2691 1928 2437 2201 
Q 2184 2475 1800 2475 
Q 1419 2475 1153 2201 
Q 888 1928 888 1484 
z
" id="ArialMT-36" transform="scale(0.015625)"/>
      </defs>
      <use xlink:href="#ArialMT-36"/>
      <use x="55.615234" xlink:href="#ArialMT-34"/>
     </g>
    </g>
    <g id="line2d_34">
     <path d="M 88.65 245.93625 
L 124.65 245.93625 
" style="fill:none;stroke:#5a3924;stroke-dasharray:3,0;stroke-dashoffset:0;stroke-width:1.5;"/>
    </g>
    <g id="line2d_35"/>
    <g id="text_20">
     <!-- 128 -->
     <g style="fill:#262626;" transform="translate(139.05 252.23625)scale(0.18 -0.18)">
      <defs>
       <path d="M 1131 2484 
Q 781 2613 612 2850 
Q 444 3088 444 3419 
Q 444 3919 803 4259 
Q 1163 4600 1759 4600 
Q 2359 4600 2725 4251 
Q 3091 3903 3091 3403 
Q 3091 3084 2923 2848 
Q 2756 2613 2416 2484 
Q 2838 2347 3058 2040 
Q 3278 1734 3278 1309 
Q 3278 722 2862 322 
Q 2447 -78 1769 -78 
Q 1091 -78 675 323 
Q 259 725 259 1325 
Q 259 1772 486 2073 
Q 713 2375 1131 2484 
z
M 1019 3438 
Q 1019 3113 1228 2906 
Q 1438 2700 1772 2700 
Q 2097 2700 2305 2904 
Q 2513 3109 2513 3406 
Q 2513 3716 2298 3927 
Q 2084 4138 1766 4138 
Q 1444 4138 1231 3931 
Q 1019 3725 1019 3438 
z
M 838 1322 
Q 838 1081 952 856 
Q 1066 631 1291 507 
Q 1516 384 1775 384 
Q 2178 384 2440 643 
Q 2703 903 2703 1303 
Q 2703 1709 2433 1975 
Q 2163 2241 1756 2241 
Q 1359 2241 1098 1978 
Q 838 1716 838 1322 
z
" id="ArialMT-38" transform="scale(0.015625)"/>
      </defs>
      <use xlink:href="#ArialMT-31"/>
      <use x="55.615234" xlink:href="#ArialMT-32"/>
      <use x="111.230469" xlink:href="#ArialMT-38"/>
     </g>
    </g>
    <g id="line2d_36">
     <path d="M 88.65 271.397813 
L 124.65 271.397813 
" style="fill:none;stroke:#875536;stroke-dasharray:3,0;stroke-dashoffset:0;stroke-width:1.5;"/>
    </g>
    <g id="line2d_37"/>
    <g id="text_21">
     <!-- 256 -->
     <g style="fill:#262626;" transform="translate(139.05 277.697813)scale(0.18 -0.18)">
      <use xlink:href="#ArialMT-32"/>
      <use x="55.615234" xlink:href="#ArialMT-35"/>
      <use x="111.230469" xlink:href="#ArialMT-36"/>
     </g>
    </g>
    <g id="line2d_38">
     <path d="M 88.65 296.859375 
L 124.65 296.859375 
" style="fill:none;stroke:#b47249;stroke-dasharray:3,0;stroke-dashoffset:0;stroke-width:1.5;"/>
    </g>
    <g id="line2d_39"/>
    <g id="text_22">
     <!-- 512 -->
     <g style="fill:#262626;" transform="translate(139.05 303.159375)scale(0.18 -0.18)">
      <use xlink:href="#ArialMT-35"/>
      <use x="55.615234" xlink:href="#ArialMT-31"/>
      <use x="111.230469" xlink:href="#ArialMT-32"/>
     </g>
    </g>
    <g id="line2d_40">
     <path d="M 88.65 322.320938 
L 124.65 322.320938 
" style="fill:none;stroke:#e18e5b;stroke-dasharray:3,0;stroke-dashoffset:0;stroke-width:1.5;"/>
    </g>
    <g id="line2d_41"/>
    <g id="text_23">
     <!-- 1024 -->
     <g style="fill:#262626;" transform="translate(139.05 328.620938)scale(0.18 -0.18)">
      <use xlink:href="#ArialMT-31"/>
      <use x="55.615234" xlink:href="#ArialMT-30"/>
      <use x="111.230469" xlink:href="#ArialMT-32"/>
      <use x="166.845703" xlink:href="#ArialMT-34"/>
     </g>
    </g>
    <g id="line2d_42">
     <path d="M 88.65 347.7825 
L 124.65 347.7825 
" style="fill:none;stroke:#ffab6d;stroke-dasharray:3,0;stroke-dashoffset:0;stroke-width:1.5;"/>
    </g>
    <g id="line2d_43"/>
    <g id="text_24">
     <!-- 2048 -->
     <g style="fill:#262626;" transform="translate(139.05 354.0825)scale(0.18 -0.18)">
      <use xlink:href="#ArialMT-32"/>
      <use x="55.615234" xlink:href="#ArialMT-30"/>
      <use x="111.230469" xlink:href="#ArialMT-34"/>
      <use x="166.845703" xlink:href="#ArialMT-38"/>
     </g>
    </g>
   </g>
  </g>
 </g>
 <defs>
  <clipPath id="p2d8dbeef80">
   <rect height="355.86" width="554.805" x="72.45" y="18"/>
  </clipPath>
 </defs>
</svg>
