<?xml version="1.0" encoding="utf-8" standalone="no"?>
<!DOCTYPE svg PUBLIC "-//W3C//DTD SVG 1.1//EN"
  "http://www.w3.org/Graphics/SVG/1.1/DTD/svg11.dtd">
<svg height="576pt" version="1.1" viewBox="0 0 864 576" width="864pt" xmlns="http://www.w3.org/2000/svg" xmlns:xlink="http://www.w3.org/1999/xlink">
 <metadata>
  <rdf:RDF xmlns:cc="http://creativecommons.org/ns#" xmlns:dc="http://purl.org/dc/elements/1.1/" xmlns:rdf="http://www.w3.org/1999/02/22-rdf-syntax-ns#">
   <cc:Work>
    <dc:type rdf:resource="http://purl.org/dc/dcmitype/StillImage"/>
    <dc:date>2021-10-22T20:08:26.814070</dc:date>
    <dc:format>image/svg+xml</dc:format>
    <dc:creator>
     <cc:Agent>
      <dc:title>Matplotlib v3.4.2, https://matplotlib.org/</dc:title>
     </cc:Agent>
    </dc:creator>
   </cc:Work>
  </rdf:RDF>
 </metadata>
 <defs>
  <style type="text/css">*{stroke-linecap:butt;stroke-linejoin:round;}</style>
 </defs>
 <g id="figure_1">
  <g id="patch_1">
   <path d="M 0 576 
L 864 576 
L 864 0 
L 0 0 
z
" style="fill:none;"/>
  </g>
  <g id="axes_1">
   <g id="patch_2">
    <path d="M 70.422344 256.392734 
L 299.260417 256.392734 
L 299.260417 21.6 
L 70.422344 21.6 
z
" style="fill:#eaeaf2;"/>
   </g>
   <g id="matplotlib.axis_1">
    <g id="xtick_1">
     <g id="line2d_1">
      <path clip-path="url(#pff56851626)" d="M 80.685292 256.392734 
L 80.685292 21.6 
" style="fill:none;stroke:#ffffff;stroke-linecap:round;"/>
     </g>
     <g id="text_1">
      <!-- 0.0 -->
      <g style="fill:#262626;" transform="translate(73.040292 273.766328)scale(0.11 -0.11)">
       <defs>
        <path d="M 266 2259 
Q 266 3072 433 3567 
Q 600 4063 929 4331 
Q 1259 4600 1759 4600 
Q 2128 4600 2406 4451 
Q 2684 4303 2865 4023 
Q 3047 3744 3150 3342 
Q 3253 2941 3253 2259 
Q 3253 1453 3087 958 
Q 2922 463 2592 192 
Q 2263 -78 1759 -78 
Q 1097 -78 719 397 
Q 266 969 266 2259 
z
M 844 2259 
Q 844 1131 1108 757 
Q 1372 384 1759 384 
Q 2147 384 2411 759 
Q 2675 1134 2675 2259 
Q 2675 3391 2411 3762 
Q 2147 4134 1753 4134 
Q 1366 4134 1134 3806 
Q 844 3388 844 2259 
z
" id="ArialMT-30" transform="scale(0.015625)"/>
        <path d="M 581 0 
L 581 641 
L 1222 641 
L 1222 0 
L 581 0 
z
" id="ArialMT-2e" transform="scale(0.015625)"/>
       </defs>
       <use xlink:href="#ArialMT-30"/>
       <use x="55.615234" xlink:href="#ArialMT-2e"/>
       <use x="83.398438" xlink:href="#ArialMT-30"/>
      </g>
     </g>
    </g>
    <g id="xtick_2">
     <g id="line2d_2">
      <path clip-path="url(#pff56851626)" d="M 150.076423 256.392734 
L 150.076423 21.6 
" style="fill:none;stroke:#ffffff;stroke-linecap:round;"/>
     </g>
     <g id="text_2">
      <!-- 0.5 -->
      <g style="fill:#262626;" transform="translate(142.431423 273.766328)scale(0.11 -0.11)">
       <defs>
        <path d="M 266 1200 
L 856 1250 
Q 922 819 1161 601 
Q 1400 384 1738 384 
Q 2144 384 2425 690 
Q 2706 997 2706 1503 
Q 2706 1984 2436 2262 
Q 2166 2541 1728 2541 
Q 1456 2541 1237 2417 
Q 1019 2294 894 2097 
L 366 2166 
L 809 4519 
L 3088 4519 
L 3088 3981 
L 1259 3981 
L 1013 2750 
Q 1425 3038 1878 3038 
Q 2478 3038 2890 2622 
Q 3303 2206 3303 1553 
Q 3303 931 2941 478 
Q 2500 -78 1738 -78 
Q 1113 -78 717 272 
Q 322 622 266 1200 
z
" id="ArialMT-35" transform="scale(0.015625)"/>
       </defs>
       <use xlink:href="#ArialMT-30"/>
       <use x="55.615234" xlink:href="#ArialMT-2e"/>
       <use x="83.398438" xlink:href="#ArialMT-35"/>
      </g>
     </g>
    </g>
    <g id="xtick_3">
     <g id="line2d_3">
      <path clip-path="url(#pff56851626)" d="M 219.467555 256.392734 
L 219.467555 21.6 
" style="fill:none;stroke:#ffffff;stroke-linecap:round;"/>
     </g>
     <g id="text_3">
      <!-- 1.0 -->
      <g style="fill:#262626;" transform="translate(211.822555 273.766328)scale(0.11 -0.11)">
       <defs>
        <path d="M 2384 0 
L 1822 0 
L 1822 3584 
Q 1619 3391 1289 3197 
Q 959 3003 697 2906 
L 697 3450 
Q 1169 3672 1522 3987 
Q 1875 4303 2022 4600 
L 2384 4600 
L 2384 0 
z
" id="ArialMT-31" transform="scale(0.015625)"/>
       </defs>
       <use xlink:href="#ArialMT-31"/>
       <use x="55.615234" xlink:href="#ArialMT-2e"/>
       <use x="83.398438" xlink:href="#ArialMT-30"/>
      </g>
     </g>
    </g>
    <g id="xtick_4">
     <g id="line2d_4">
      <path clip-path="url(#pff56851626)" d="M 288.858686 256.392734 
L 288.858686 21.6 
" style="fill:none;stroke:#ffffff;stroke-linecap:round;"/>
     </g>
     <g id="text_4">
      <!-- 1.5 -->
      <g style="fill:#262626;" transform="translate(281.213686 273.766328)scale(0.11 -0.11)">
       <use xlink:href="#ArialMT-31"/>
       <use x="55.615234" xlink:href="#ArialMT-2e"/>
       <use x="83.398438" xlink:href="#ArialMT-35"/>
      </g>
     </g>
    </g>
   </g>
   <g id="matplotlib.axis_2">
    <g id="ytick_1">
     <g id="line2d_5">
      <path clip-path="url(#pff56851626)" d="M 70.422344 236.626799 
L 299.260417 236.626799 
" style="fill:none;stroke:#ffffff;stroke-linecap:round;"/>
     </g>
     <g id="text_5">
      <!-- −0.5 -->
      <g style="fill:#262626;" transform="translate(39.207656 240.563596)scale(0.11 -0.11)">
       <defs>
        <path d="M 3381 1997 
L 356 1997 
L 356 2522 
L 3381 2522 
L 3381 1997 
z
" id="ArialMT-2212" transform="scale(0.015625)"/>
       </defs>
       <use xlink:href="#ArialMT-2212"/>
       <use x="58.398438" xlink:href="#ArialMT-30"/>
       <use x="114.013672" xlink:href="#ArialMT-2e"/>
       <use x="141.796875" xlink:href="#ArialMT-35"/>
      </g>
     </g>
    </g>
    <g id="ytick_2">
     <g id="line2d_6">
      <path clip-path="url(#pff56851626)" d="M 70.422344 198.048795 
L 299.260417 198.048795 
" style="fill:none;stroke:#ffffff;stroke-linecap:round;"/>
     </g>
     <g id="text_6">
      <!-- 0.0 -->
      <g style="fill:#262626;" transform="translate(45.632344 201.985592)scale(0.11 -0.11)">
       <use xlink:href="#ArialMT-30"/>
       <use x="55.615234" xlink:href="#ArialMT-2e"/>
       <use x="83.398438" xlink:href="#ArialMT-30"/>
      </g>
     </g>
    </g>
    <g id="ytick_3">
     <g id="line2d_7">
      <path clip-path="url(#pff56851626)" d="M 70.422344 159.470791 
L 299.260417 159.470791 
" style="fill:none;stroke:#ffffff;stroke-linecap:round;"/>
     </g>
     <g id="text_7">
      <!-- 0.5 -->
      <g style="fill:#262626;" transform="translate(45.632344 163.407588)scale(0.11 -0.11)">
       <use xlink:href="#ArialMT-30"/>
       <use x="55.615234" xlink:href="#ArialMT-2e"/>
       <use x="83.398438" xlink:href="#ArialMT-35"/>
      </g>
     </g>
    </g>
    <g id="ytick_4">
     <g id="line2d_8">
      <path clip-path="url(#pff56851626)" d="M 70.422344 120.892787 
L 299.260417 120.892787 
" style="fill:none;stroke:#ffffff;stroke-linecap:round;"/>
     </g>
     <g id="text_8">
      <!-- 1.0 -->
      <g style="fill:#262626;" transform="translate(45.632344 124.829584)scale(0.11 -0.11)">
       <use xlink:href="#ArialMT-31"/>
       <use x="55.615234" xlink:href="#ArialMT-2e"/>
       <use x="83.398438" xlink:href="#ArialMT-30"/>
      </g>
     </g>
    </g>
    <g id="ytick_5">
     <g id="line2d_9">
      <path clip-path="url(#pff56851626)" d="M 70.422344 82.314783 
L 299.260417 82.314783 
" style="fill:none;stroke:#ffffff;stroke-linecap:round;"/>
     </g>
     <g id="text_9">
      <!-- 1.5 -->
      <g style="fill:#262626;" transform="translate(45.632344 86.251579)scale(0.11 -0.11)">
       <use xlink:href="#ArialMT-31"/>
       <use x="55.615234" xlink:href="#ArialMT-2e"/>
       <use x="83.398438" xlink:href="#ArialMT-35"/>
      </g>
     </g>
    </g>
    <g id="ytick_6">
     <g id="line2d_10">
      <path clip-path="url(#pff56851626)" d="M 70.422344 43.736778 
L 299.260417 43.736778 
" style="fill:none;stroke:#ffffff;stroke-linecap:round;"/>
     </g>
     <g id="text_10">
      <!-- 2.0 -->
      <g style="fill:#262626;" transform="translate(45.632344 47.673575)scale(0.11 -0.11)">
       <defs>
        <path d="M 3222 541 
L 3222 0 
L 194 0 
Q 188 203 259 391 
Q 375 700 629 1000 
Q 884 1300 1366 1694 
Q 2113 2306 2375 2664 
Q 2638 3022 2638 3341 
Q 2638 3675 2398 3904 
Q 2159 4134 1775 4134 
Q 1369 4134 1125 3890 
Q 881 3647 878 3216 
L 300 3275 
Q 359 3922 746 4261 
Q 1134 4600 1788 4600 
Q 2447 4600 2831 4234 
Q 3216 3869 3216 3328 
Q 3216 3053 3103 2787 
Q 2991 2522 2730 2228 
Q 2469 1934 1863 1422 
Q 1356 997 1212 845 
Q 1069 694 975 541 
L 3222 541 
z
" id="ArialMT-32" transform="scale(0.015625)"/>
       </defs>
       <use xlink:href="#ArialMT-32"/>
       <use x="55.615234" xlink:href="#ArialMT-2e"/>
       <use x="83.398438" xlink:href="#ArialMT-30"/>
      </g>
     </g>
    </g>
    <g id="text_11">
     <!-- Contribution to $x_t$ -->
     <g style="fill:#262626;" transform="translate(31.232656 215.796367)rotate(-90)scale(0.2 -0.2)">
      <defs>
       <path d="M 3763 1606 
L 4369 1453 
Q 4178 706 3683 314 
Q 3188 -78 2472 -78 
Q 1731 -78 1267 223 
Q 803 525 561 1097 
Q 319 1669 319 2325 
Q 319 3041 592 3573 
Q 866 4106 1370 4382 
Q 1875 4659 2481 4659 
Q 3169 4659 3637 4309 
Q 4106 3959 4291 3325 
L 3694 3184 
Q 3534 3684 3231 3912 
Q 2928 4141 2469 4141 
Q 1941 4141 1586 3887 
Q 1231 3634 1087 3207 
Q 944 2781 944 2328 
Q 944 1744 1114 1308 
Q 1284 872 1643 656 
Q 2003 441 2422 441 
Q 2931 441 3284 734 
Q 3638 1028 3763 1606 
z
" id="ArialMT-43" transform="scale(0.015625)"/>
       <path d="M 213 1659 
Q 213 2581 725 3025 
Q 1153 3394 1769 3394 
Q 2453 3394 2887 2945 
Q 3322 2497 3322 1706 
Q 3322 1066 3130 698 
Q 2938 331 2570 128 
Q 2203 -75 1769 -75 
Q 1072 -75 642 372 
Q 213 819 213 1659 
z
M 791 1659 
Q 791 1022 1069 705 
Q 1347 388 1769 388 
Q 2188 388 2466 706 
Q 2744 1025 2744 1678 
Q 2744 2294 2464 2611 
Q 2184 2928 1769 2928 
Q 1347 2928 1069 2612 
Q 791 2297 791 1659 
z
" id="ArialMT-6f" transform="scale(0.015625)"/>
       <path d="M 422 0 
L 422 3319 
L 928 3319 
L 928 2847 
Q 1294 3394 1984 3394 
Q 2284 3394 2536 3286 
Q 2788 3178 2913 3003 
Q 3038 2828 3088 2588 
Q 3119 2431 3119 2041 
L 3119 0 
L 2556 0 
L 2556 2019 
Q 2556 2363 2490 2533 
Q 2425 2703 2258 2804 
Q 2091 2906 1866 2906 
Q 1506 2906 1245 2678 
Q 984 2450 984 1813 
L 984 0 
L 422 0 
z
" id="ArialMT-6e" transform="scale(0.015625)"/>
       <path d="M 1650 503 
L 1731 6 
Q 1494 -44 1306 -44 
Q 1000 -44 831 53 
Q 663 150 594 308 
Q 525 466 525 972 
L 525 2881 
L 113 2881 
L 113 3319 
L 525 3319 
L 525 4141 
L 1084 4478 
L 1084 3319 
L 1650 3319 
L 1650 2881 
L 1084 2881 
L 1084 941 
Q 1084 700 1114 631 
Q 1144 563 1211 522 
Q 1278 481 1403 481 
Q 1497 481 1650 503 
z
" id="ArialMT-74" transform="scale(0.015625)"/>
       <path d="M 416 0 
L 416 3319 
L 922 3319 
L 922 2816 
Q 1116 3169 1280 3281 
Q 1444 3394 1641 3394 
Q 1925 3394 2219 3213 
L 2025 2691 
Q 1819 2813 1613 2813 
Q 1428 2813 1281 2702 
Q 1134 2591 1072 2394 
Q 978 2094 978 1738 
L 978 0 
L 416 0 
z
" id="ArialMT-72" transform="scale(0.015625)"/>
       <path d="M 425 3934 
L 425 4581 
L 988 4581 
L 988 3934 
L 425 3934 
z
M 425 0 
L 425 3319 
L 988 3319 
L 988 0 
L 425 0 
z
" id="ArialMT-69" transform="scale(0.015625)"/>
       <path d="M 941 0 
L 419 0 
L 419 4581 
L 981 4581 
L 981 2947 
Q 1338 3394 1891 3394 
Q 2197 3394 2470 3270 
Q 2744 3147 2920 2923 
Q 3097 2700 3197 2384 
Q 3297 2069 3297 1709 
Q 3297 856 2875 390 
Q 2453 -75 1863 -75 
Q 1275 -75 941 416 
L 941 0 
z
M 934 1684 
Q 934 1088 1097 822 
Q 1363 388 1816 388 
Q 2184 388 2453 708 
Q 2722 1028 2722 1663 
Q 2722 2313 2464 2622 
Q 2206 2931 1841 2931 
Q 1472 2931 1203 2611 
Q 934 2291 934 1684 
z
" id="ArialMT-62" transform="scale(0.015625)"/>
       <path d="M 2597 0 
L 2597 488 
Q 2209 -75 1544 -75 
Q 1250 -75 995 37 
Q 741 150 617 320 
Q 494 491 444 738 
Q 409 903 409 1263 
L 409 3319 
L 972 3319 
L 972 1478 
Q 972 1038 1006 884 
Q 1059 663 1231 536 
Q 1403 409 1656 409 
Q 1909 409 2131 539 
Q 2353 669 2445 892 
Q 2538 1116 2538 1541 
L 2538 3319 
L 3100 3319 
L 3100 0 
L 2597 0 
z
" id="ArialMT-75" transform="scale(0.015625)"/>
       <path id="ArialMT-20" transform="scale(0.015625)"/>
       <path d="M 3841 3500 
L 2234 1784 
L 3219 0 
L 2559 0 
L 1819 1388 
L 531 0 
L -166 0 
L 1556 1844 
L 641 3500 
L 1300 3500 
L 1972 2234 
L 3144 3500 
L 3841 3500 
z
" id="DejaVuSans-Oblique-78" transform="scale(0.015625)"/>
       <path d="M 2706 3500 
L 2619 3053 
L 1472 3053 
L 1100 1153 
Q 1081 1047 1072 975 
Q 1063 903 1063 863 
Q 1063 663 1183 572 
Q 1303 481 1569 481 
L 2150 481 
L 2053 0 
L 1503 0 
Q 991 0 739 200 
Q 488 400 488 806 
Q 488 878 497 964 
Q 506 1050 525 1153 
L 897 3053 
L 409 3053 
L 500 3500 
L 978 3500 
L 1172 4494 
L 1747 4494 
L 1556 3500 
L 2706 3500 
z
" id="DejaVuSans-Oblique-74" transform="scale(0.015625)"/>
      </defs>
      <use transform="translate(0 0.203125)" xlink:href="#ArialMT-43"/>
      <use transform="translate(72.216797 0.203125)" xlink:href="#ArialMT-6f"/>
      <use transform="translate(127.832031 0.203125)" xlink:href="#ArialMT-6e"/>
      <use transform="translate(183.447266 0.203125)" xlink:href="#ArialMT-74"/>
      <use transform="translate(211.230469 0.203125)" xlink:href="#ArialMT-72"/>
      <use transform="translate(244.53125 0.203125)" xlink:href="#ArialMT-69"/>
      <use transform="translate(266.748047 0.203125)" xlink:href="#ArialMT-62"/>
      <use transform="translate(322.363281 0.203125)" xlink:href="#ArialMT-75"/>
      <use transform="translate(377.978516 0.203125)" xlink:href="#ArialMT-74"/>
      <use transform="translate(405.761719 0.203125)" xlink:href="#ArialMT-69"/>
      <use transform="translate(427.978516 0.203125)" xlink:href="#ArialMT-6f"/>
      <use transform="translate(483.59375 0.203125)" xlink:href="#ArialMT-6e"/>
      <use transform="translate(539.208984 0.203125)" xlink:href="#ArialMT-20"/>
      <use transform="translate(566.992188 0.203125)" xlink:href="#ArialMT-74"/>
      <use transform="translate(594.775391 0.203125)" xlink:href="#ArialMT-6f"/>
      <use transform="translate(650.390625 0.203125)" xlink:href="#ArialMT-20"/>
      <use transform="translate(678.173828 0.203125)" xlink:href="#DejaVuSans-Oblique-78"/>
      <use transform="translate(737.353516 -16.203125)scale(0.7)" xlink:href="#DejaVuSans-Oblique-74"/>
     </g>
    </g>
   </g>
   <g id="line2d_11">
    <path clip-path="url(#pff56851626)" d="M 80.824074 198.048795 
L 87.997682 198.048796 
L 95.171289 198.05262 
L 102.344896 198.30553 
L 109.518504 216.147295 
L 116.692111 245.720337 
L 123.865718 214.102999 
L 131.039325 231.790816 
L 138.212933 224.211782 
L 145.38654 210.471726 
L 152.560147 188.257957 
L 159.733755 186.938057 
L 166.907362 210.258255 
L 174.080969 160.669249 
L 181.254577 166.164072 
L 188.428184 181.437363 
L 195.601791 177.244023 
L 202.775398 168.597587 
L 209.949006 184.594572 
L 217.122613 178.8915 
L 224.29622 158.479669 
L 231.469828 161.669219 
L 238.643435 168.736151 
L 245.817042 160.786314 
L 252.99065 161.63658 
L 260.164257 153.80221 
L 267.337864 153.297629 
L 274.511471 161.719839 
L 281.685079 158.404008 
L 288.858686 155.758048 
" style="fill:none;stroke:#4c72b0;stroke-dasharray:9,3;stroke-dashoffset:0;stroke-width:1.5;"/>
   </g>
   <g id="line2d_12">
    <path clip-path="url(#pff56851626)" d="M 80.824074 198.048795 
L 87.997682 198.048421 
L 95.171289 188.61725 
L 102.344896 186.207977 
L 109.518504 114.765337 
L 116.692111 101.053403 
L 123.865718 32.272397 
L 131.039325 87.22918 
L 138.212933 37.2901 
L 145.38654 49.732675 
L 152.560147 67.258482 
L 159.733755 76.418561 
L 166.907362 79.728091 
L 174.080969 99.554258 
L 181.254577 95.012494 
L 188.428184 100.586736 
L 195.601791 109.278471 
L 202.775398 105.230646 
L 209.949006 115.760441 
L 217.122613 120.362355 
L 224.29622 122.055473 
L 231.469828 118.855984 
L 238.643435 128.839506 
L 245.817042 120.716655 
L 252.99065 127.083836 
L 260.164257 127.645004 
L 267.337864 132.571914 
L 274.511471 134.364632 
L 281.685079 132.864543 
L 288.858686 136.463208 
" style="fill:none;stroke:#dd8452;stroke-dasharray:12,7.5;stroke-dashoffset:0;stroke-width:1.5;"/>
   </g>
   <g id="line2d_13">
    <path clip-path="url(#pff56851626)" d="M 80.824074 198.048795 
L 87.997682 198.048795 
L 95.171289 198.447508 
L 102.344896 197.437371 
L 109.518504 186.258512 
L 116.692111 200.466191 
L 123.865718 209.273319 
L 131.039325 242.03122 
L 138.212933 220.204614 
L 145.38654 202.684641 
L 152.560147 183.359448 
L 159.733755 162.968239 
L 166.907362 166.395826 
L 174.080969 166.853178 
L 181.254577 167.450436 
L 188.428184 165.262621 
L 195.601791 160.37904 
L 202.775398 143.892993 
L 209.949006 146.59518 
L 217.122613 147.708609 
L 224.29622 150.918247 
L 231.469828 139.677812 
L 238.643435 138.760199 
L 245.817042 144.188629 
L 252.99065 142.921004 
L 260.164257 144.280579 
L 267.337864 143.62586 
L 274.511471 150.393532 
L 281.685079 142.94034 
L 288.858686 142.667169 
" style="fill:none;stroke:#55a868;stroke-dasharray:1.5,0;stroke-dashoffset:0;stroke-width:1.5;"/>
   </g>
   <g id="patch_3">
    <path d="M 70.422344 256.392734 
L 70.422344 21.6 
" style="fill:none;stroke:#ffffff;stroke-linecap:square;stroke-linejoin:miter;stroke-width:1.25;"/>
   </g>
   <g id="patch_4">
    <path d="M 299.260417 256.392734 
L 299.260417 21.6 
" style="fill:none;stroke:#ffffff;stroke-linecap:square;stroke-linejoin:miter;stroke-width:1.25;"/>
   </g>
   <g id="patch_5">
    <path d="M 70.422344 256.392734 
L 299.260417 256.392734 
" style="fill:none;stroke:#ffffff;stroke-linecap:square;stroke-linejoin:miter;stroke-width:1.25;"/>
   </g>
   <g id="patch_6">
    <path d="M 70.422344 21.6 
L 299.260417 21.6 
" style="fill:none;stroke:#ffffff;stroke-linecap:square;stroke-linejoin:miter;stroke-width:1.25;"/>
   </g>
  </g>
  <g id="axes_2">
   <g id="patch_7">
    <path d="M 347.392135 256.392734 
L 576.230208 256.392734 
L 576.230208 21.6 
L 347.392135 21.6 
z
" style="fill:#eaeaf2;"/>
   </g>
   <g id="matplotlib.axis_3">
    <g id="xtick_5">
     <g id="line2d_14">
      <path clip-path="url(#p8353851b12)" d="M 357.655084 256.392734 
L 357.655084 21.6 
" style="fill:none;stroke:#ffffff;stroke-linecap:round;"/>
     </g>
     <g id="text_12">
      <!-- 0.0 -->
      <g style="fill:#262626;" transform="translate(350.010084 273.766328)scale(0.11 -0.11)">
       <use xlink:href="#ArialMT-30"/>
       <use x="55.615234" xlink:href="#ArialMT-2e"/>
       <use x="83.398438" xlink:href="#ArialMT-30"/>
      </g>
     </g>
    </g>
    <g id="xtick_6">
     <g id="line2d_15">
      <path clip-path="url(#p8353851b12)" d="M 427.046215 256.392734 
L 427.046215 21.6 
" style="fill:none;stroke:#ffffff;stroke-linecap:round;"/>
     </g>
     <g id="text_13">
      <!-- 0.5 -->
      <g style="fill:#262626;" transform="translate(419.401215 273.766328)scale(0.11 -0.11)">
       <use xlink:href="#ArialMT-30"/>
       <use x="55.615234" xlink:href="#ArialMT-2e"/>
       <use x="83.398438" xlink:href="#ArialMT-35"/>
      </g>
     </g>
    </g>
    <g id="xtick_7">
     <g id="line2d_16">
      <path clip-path="url(#p8353851b12)" d="M 496.437346 256.392734 
L 496.437346 21.6 
" style="fill:none;stroke:#ffffff;stroke-linecap:round;"/>
     </g>
     <g id="text_14">
      <!-- 1.0 -->
      <g style="fill:#262626;" transform="translate(488.792346 273.766328)scale(0.11 -0.11)">
       <use xlink:href="#ArialMT-31"/>
       <use x="55.615234" xlink:href="#ArialMT-2e"/>
       <use x="83.398438" xlink:href="#ArialMT-30"/>
      </g>
     </g>
    </g>
    <g id="xtick_8">
     <g id="line2d_17">
      <path clip-path="url(#p8353851b12)" d="M 565.828478 256.392734 
L 565.828478 21.6 
" style="fill:none;stroke:#ffffff;stroke-linecap:round;"/>
     </g>
     <g id="text_15">
      <!-- 1.5 -->
      <g style="fill:#262626;" transform="translate(558.183478 273.766328)scale(0.11 -0.11)">
       <use xlink:href="#ArialMT-31"/>
       <use x="55.615234" xlink:href="#ArialMT-2e"/>
       <use x="83.398438" xlink:href="#ArialMT-35"/>
      </g>
     </g>
    </g>
   </g>
   <g id="matplotlib.axis_4">
    <g id="ytick_7">
     <g id="line2d_18">
      <path clip-path="url(#p8353851b12)" d="M 347.392135 249.415953 
L 576.230208 249.415953 
" style="fill:none;stroke:#ffffff;stroke-linecap:round;"/>
     </g>
     <g id="text_16">
      <!-- −1.0 -->
      <g style="fill:#262626;" transform="translate(316.177448 253.352749)scale(0.11 -0.11)">
       <use xlink:href="#ArialMT-2212"/>
       <use x="58.398438" xlink:href="#ArialMT-31"/>
       <use x="114.013672" xlink:href="#ArialMT-2e"/>
       <use x="141.796875" xlink:href="#ArialMT-30"/>
      </g>
     </g>
    </g>
    <g id="ytick_8">
     <g id="line2d_19">
      <path clip-path="url(#p8353851b12)" d="M 347.392135 205.747188 
L 576.230208 205.747188 
" style="fill:none;stroke:#ffffff;stroke-linecap:round;"/>
     </g>
     <g id="text_17">
      <!-- −0.5 -->
      <g style="fill:#262626;" transform="translate(316.177448 209.683985)scale(0.11 -0.11)">
       <use xlink:href="#ArialMT-2212"/>
       <use x="58.398438" xlink:href="#ArialMT-30"/>
       <use x="114.013672" xlink:href="#ArialMT-2e"/>
       <use x="141.796875" xlink:href="#ArialMT-35"/>
      </g>
     </g>
    </g>
    <g id="ytick_9">
     <g id="line2d_20">
      <path clip-path="url(#p8353851b12)" d="M 347.392135 162.078423 
L 576.230208 162.078423 
" style="fill:none;stroke:#ffffff;stroke-linecap:round;"/>
     </g>
     <g id="text_18">
      <!-- 0.0 -->
      <g style="fill:#262626;" transform="translate(322.602135 166.01522)scale(0.11 -0.11)">
       <use xlink:href="#ArialMT-30"/>
       <use x="55.615234" xlink:href="#ArialMT-2e"/>
       <use x="83.398438" xlink:href="#ArialMT-30"/>
      </g>
     </g>
    </g>
    <g id="ytick_10">
     <g id="line2d_21">
      <path clip-path="url(#p8353851b12)" d="M 347.392135 118.409658 
L 576.230208 118.409658 
" style="fill:none;stroke:#ffffff;stroke-linecap:round;"/>
     </g>
     <g id="text_19">
      <!-- 0.5 -->
      <g style="fill:#262626;" transform="translate(322.602135 122.346455)scale(0.11 -0.11)">
       <use xlink:href="#ArialMT-30"/>
       <use x="55.615234" xlink:href="#ArialMT-2e"/>
       <use x="83.398438" xlink:href="#ArialMT-35"/>
      </g>
     </g>
    </g>
    <g id="ytick_11">
     <g id="line2d_22">
      <path clip-path="url(#p8353851b12)" d="M 347.392135 74.740893 
L 576.230208 74.740893 
" style="fill:none;stroke:#ffffff;stroke-linecap:round;"/>
     </g>
     <g id="text_20">
      <!-- 1.0 -->
      <g style="fill:#262626;" transform="translate(322.602135 78.67769)scale(0.11 -0.11)">
       <use xlink:href="#ArialMT-31"/>
       <use x="55.615234" xlink:href="#ArialMT-2e"/>
       <use x="83.398438" xlink:href="#ArialMT-30"/>
      </g>
     </g>
    </g>
    <g id="ytick_12">
     <g id="line2d_23">
      <path clip-path="url(#p8353851b12)" d="M 347.392135 31.072128 
L 576.230208 31.072128 
" style="fill:none;stroke:#ffffff;stroke-linecap:round;"/>
     </g>
     <g id="text_21">
      <!-- 1.5 -->
      <g style="fill:#262626;" transform="translate(322.602135 35.008925)scale(0.11 -0.11)">
       <use xlink:href="#ArialMT-31"/>
       <use x="55.615234" xlink:href="#ArialMT-2e"/>
       <use x="83.398438" xlink:href="#ArialMT-35"/>
      </g>
     </g>
    </g>
   </g>
   <g id="line2d_24">
    <path clip-path="url(#p8353851b12)" d="M 357.793866 162.078423 
L 364.967473 162.078422 
L 372.141081 162.078518 
L 379.314688 161.69686 
L 386.488295 173.278094 
L 393.661903 166.53629 
L 400.83551 153.001689 
L 408.009117 140.172973 
L 415.182724 136.40609 
L 422.356332 92.925035 
L 429.529939 127.638269 
L 436.703546 86.501666 
L 443.877154 75.366519 
L 451.050761 114.876244 
L 458.224368 97.265418 
L 465.397976 115.246294 
L 472.571583 98.830671 
L 479.74519 116.89916 
L 486.918797 104.39566 
L 494.092405 112.072449 
L 501.266012 101.567832 
L 508.439619 118.401962 
L 515.613227 115.93363 
L 522.786834 112.433592 
L 529.960441 120.62172 
L 537.134049 121.286109 
L 544.307656 126.734587 
L 551.481263 127.892555 
L 558.65487 118.503875 
L 565.828478 130.60565 
" style="fill:none;stroke:#4c72b0;stroke-dasharray:9,3;stroke-dashoffset:0;stroke-width:1.5;"/>
   </g>
   <g id="line2d_25">
    <path clip-path="url(#p8353851b12)" d="M 357.793866 162.078423 
L 364.967473 162.077125 
L 372.141081 162.486936 
L 379.314688 144.753427 
L 386.488295 95.480952 
L 393.661903 77.409556 
L 400.83551 48.547665 
L 408.009117 32.272397 
L 415.182724 68.503492 
L 422.356332 75.029764 
L 429.529939 87.385157 
L 436.703546 101.396679 
L 443.877154 113.668275 
L 451.050761 114.817213 
L 458.224368 107.792099 
L 465.397976 119.652344 
L 472.571583 117.544041 
L 479.74519 122.060323 
L 486.918797 130.203455 
L 494.092405 125.970379 
L 501.266012 126.983194 
L 508.439619 123.594877 
L 515.613227 122.132035 
L 522.786834 121.261287 
L 529.960441 132.972835 
L 537.134049 127.171417 
L 544.307656 128.914812 
L 551.481263 126.41753 
L 558.65487 134.78216 
L 565.828478 134.212413 
" style="fill:none;stroke:#dd8452;stroke-dasharray:12,7.5;stroke-dashoffset:0;stroke-width:1.5;"/>
   </g>
   <g id="line2d_26">
    <path clip-path="url(#p8353851b12)" d="M 357.793866 162.078423 
L 364.967473 162.078423 
L 372.141081 161.775121 
L 379.314688 159.352556 
L 386.488295 145.821564 
L 393.661903 130.258598 
L 400.83551 190.041904 
L 408.009117 162.248928 
L 415.182724 245.720337 
L 422.356332 165.375412 
L 429.529939 235.580454 
L 436.703546 193.218023 
L 443.877154 215.113822 
L 451.050761 185.657323 
L 458.224368 193.530798 
L 465.397976 200.559732 
L 472.571583 166.913601 
L 479.74519 176.705604 
L 486.918797 156.837345 
L 494.092405 167.81989 
L 501.266012 163.438821 
L 508.439619 162.841139 
L 515.613227 157.713102 
L 522.786834 145.389963 
L 529.960441 152.129365 
L 537.134049 149.73929 
L 544.307656 144.880688 
L 551.481263 153.702247 
L 558.65487 147.347425 
L 565.828478 144.852942 
" style="fill:none;stroke:#55a868;stroke-dasharray:1.5,0;stroke-dashoffset:0;stroke-width:1.5;"/>
   </g>
   <g id="patch_8">
    <path d="M 347.392135 256.392734 
L 347.392135 21.6 
" style="fill:none;stroke:#ffffff;stroke-linecap:square;stroke-linejoin:miter;stroke-width:1.25;"/>
   </g>
   <g id="patch_9">
    <path d="M 576.230208 256.392734 
L 576.230208 21.6 
" style="fill:none;stroke:#ffffff;stroke-linecap:square;stroke-linejoin:miter;stroke-width:1.25;"/>
   </g>
   <g id="patch_10">
    <path d="M 347.392135 256.392734 
L 576.230208 256.392734 
" style="fill:none;stroke:#ffffff;stroke-linecap:square;stroke-linejoin:miter;stroke-width:1.25;"/>
   </g>
   <g id="patch_11">
    <path d="M 347.392135 21.6 
L 576.230208 21.6 
" style="fill:none;stroke:#ffffff;stroke-linecap:square;stroke-linejoin:miter;stroke-width:1.25;"/>
   </g>
  </g>
  <g id="axes_3">
   <g id="patch_12">
    <path d="M 624.361927 256.392734 
L 853.2 256.392734 
L 853.2 21.6 
L 624.361927 21.6 
z
" style="fill:#eaeaf2;"/>
   </g>
   <g id="matplotlib.axis_5">
    <g id="xtick_9">
     <g id="line2d_27">
      <path clip-path="url(#p8aeaa3ec65)" d="M 634.624875 256.392734 
L 634.624875 21.6 
" style="fill:none;stroke:#ffffff;stroke-linecap:round;"/>
     </g>
     <g id="text_22">
      <!-- 0.0 -->
      <g style="fill:#262626;" transform="translate(626.979875 273.766328)scale(0.11 -0.11)">
       <use xlink:href="#ArialMT-30"/>
       <use x="55.615234" xlink:href="#ArialMT-2e"/>
       <use x="83.398438" xlink:href="#ArialMT-30"/>
      </g>
     </g>
    </g>
    <g id="xtick_10">
     <g id="line2d_28">
      <path clip-path="url(#p8aeaa3ec65)" d="M 704.016007 256.392734 
L 704.016007 21.6 
" style="fill:none;stroke:#ffffff;stroke-linecap:round;"/>
     </g>
     <g id="text_23">
      <!-- 0.5 -->
      <g style="fill:#262626;" transform="translate(696.371007 273.766328)scale(0.11 -0.11)">
       <use xlink:href="#ArialMT-30"/>
       <use x="55.615234" xlink:href="#ArialMT-2e"/>
       <use x="83.398438" xlink:href="#ArialMT-35"/>
      </g>
     </g>
    </g>
    <g id="xtick_11">
     <g id="line2d_29">
      <path clip-path="url(#p8aeaa3ec65)" d="M 773.407138 256.392734 
L 773.407138 21.6 
" style="fill:none;stroke:#ffffff;stroke-linecap:round;"/>
     </g>
     <g id="text_24">
      <!-- 1.0 -->
      <g style="fill:#262626;" transform="translate(765.762138 273.766328)scale(0.11 -0.11)">
       <use xlink:href="#ArialMT-31"/>
       <use x="55.615234" xlink:href="#ArialMT-2e"/>
       <use x="83.398438" xlink:href="#ArialMT-30"/>
      </g>
     </g>
    </g>
    <g id="xtick_12">
     <g id="line2d_30">
      <path clip-path="url(#p8aeaa3ec65)" d="M 842.798269 256.392734 
L 842.798269 21.6 
" style="fill:none;stroke:#ffffff;stroke-linecap:round;"/>
     </g>
     <g id="text_25">
      <!-- 1.5 -->
      <g style="fill:#262626;" transform="translate(835.153269 273.766328)scale(0.11 -0.11)">
       <use xlink:href="#ArialMT-31"/>
       <use x="55.615234" xlink:href="#ArialMT-2e"/>
       <use x="83.398438" xlink:href="#ArialMT-35"/>
      </g>
     </g>
    </g>
   </g>
   <g id="matplotlib.axis_6">
    <g id="ytick_13">
     <g id="line2d_31">
      <path clip-path="url(#p8aeaa3ec65)" d="M 624.361927 237.822902 
L 853.2 237.822902 
" style="fill:none;stroke:#ffffff;stroke-linecap:round;"/>
     </g>
     <g id="text_26">
      <!-- −0.3 -->
      <g style="fill:#262626;" transform="translate(593.14724 241.759699)scale(0.11 -0.11)">
       <defs>
        <path d="M 269 1209 
L 831 1284 
Q 928 806 1161 595 
Q 1394 384 1728 384 
Q 2125 384 2398 659 
Q 2672 934 2672 1341 
Q 2672 1728 2419 1979 
Q 2166 2231 1775 2231 
Q 1616 2231 1378 2169 
L 1441 2663 
Q 1497 2656 1531 2656 
Q 1891 2656 2178 2843 
Q 2466 3031 2466 3422 
Q 2466 3731 2256 3934 
Q 2047 4138 1716 4138 
Q 1388 4138 1169 3931 
Q 950 3725 888 3313 
L 325 3413 
Q 428 3978 793 4289 
Q 1159 4600 1703 4600 
Q 2078 4600 2393 4439 
Q 2709 4278 2876 4000 
Q 3044 3722 3044 3409 
Q 3044 3113 2884 2869 
Q 2725 2625 2413 2481 
Q 2819 2388 3044 2092 
Q 3269 1797 3269 1353 
Q 3269 753 2831 336 
Q 2394 -81 1725 -81 
Q 1122 -81 723 278 
Q 325 638 269 1209 
z
" id="ArialMT-33" transform="scale(0.015625)"/>
       </defs>
       <use xlink:href="#ArialMT-2212"/>
       <use x="58.398438" xlink:href="#ArialMT-30"/>
       <use x="114.013672" xlink:href="#ArialMT-2e"/>
       <use x="141.796875" xlink:href="#ArialMT-33"/>
      </g>
     </g>
    </g>
    <g id="ytick_14">
     <g id="line2d_32">
      <path clip-path="url(#p8aeaa3ec65)" d="M 624.361927 208.719514 
L 853.2 208.719514 
" style="fill:none;stroke:#ffffff;stroke-linecap:round;"/>
     </g>
     <g id="text_27">
      <!-- −0.2 -->
      <g style="fill:#262626;" transform="translate(593.14724 212.656311)scale(0.11 -0.11)">
       <use xlink:href="#ArialMT-2212"/>
       <use x="58.398438" xlink:href="#ArialMT-30"/>
       <use x="114.013672" xlink:href="#ArialMT-2e"/>
       <use x="141.796875" xlink:href="#ArialMT-32"/>
      </g>
     </g>
    </g>
    <g id="ytick_15">
     <g id="line2d_33">
      <path clip-path="url(#p8aeaa3ec65)" d="M 624.361927 179.616126 
L 853.2 179.616126 
" style="fill:none;stroke:#ffffff;stroke-linecap:round;"/>
     </g>
     <g id="text_28">
      <!-- −0.1 -->
      <g style="fill:#262626;" transform="translate(593.14724 183.552923)scale(0.11 -0.11)">
       <use xlink:href="#ArialMT-2212"/>
       <use x="58.398438" xlink:href="#ArialMT-30"/>
       <use x="114.013672" xlink:href="#ArialMT-2e"/>
       <use x="141.796875" xlink:href="#ArialMT-31"/>
      </g>
     </g>
    </g>
    <g id="ytick_16">
     <g id="line2d_34">
      <path clip-path="url(#p8aeaa3ec65)" d="M 624.361927 150.512738 
L 853.2 150.512738 
" style="fill:none;stroke:#ffffff;stroke-linecap:round;"/>
     </g>
     <g id="text_29">
      <!-- 0.0 -->
      <g style="fill:#262626;" transform="translate(599.571927 154.449535)scale(0.11 -0.11)">
       <use xlink:href="#ArialMT-30"/>
       <use x="55.615234" xlink:href="#ArialMT-2e"/>
       <use x="83.398438" xlink:href="#ArialMT-30"/>
      </g>
     </g>
    </g>
    <g id="ytick_17">
     <g id="line2d_35">
      <path clip-path="url(#p8aeaa3ec65)" d="M 624.361927 121.409351 
L 853.2 121.409351 
" style="fill:none;stroke:#ffffff;stroke-linecap:round;"/>
     </g>
     <g id="text_30">
      <!-- 0.1 -->
      <g style="fill:#262626;" transform="translate(599.571927 125.346148)scale(0.11 -0.11)">
       <use xlink:href="#ArialMT-30"/>
       <use x="55.615234" xlink:href="#ArialMT-2e"/>
       <use x="83.398438" xlink:href="#ArialMT-31"/>
      </g>
     </g>
    </g>
    <g id="ytick_18">
     <g id="line2d_36">
      <path clip-path="url(#p8aeaa3ec65)" d="M 624.361927 92.305963 
L 853.2 92.305963 
" style="fill:none;stroke:#ffffff;stroke-linecap:round;"/>
     </g>
     <g id="text_31">
      <!-- 0.2 -->
      <g style="fill:#262626;" transform="translate(599.571927 96.24276)scale(0.11 -0.11)">
       <use xlink:href="#ArialMT-30"/>
       <use x="55.615234" xlink:href="#ArialMT-2e"/>
       <use x="83.398438" xlink:href="#ArialMT-32"/>
      </g>
     </g>
    </g>
    <g id="ytick_19">
     <g id="line2d_37">
      <path clip-path="url(#p8aeaa3ec65)" d="M 624.361927 63.202575 
L 853.2 63.202575 
" style="fill:none;stroke:#ffffff;stroke-linecap:round;"/>
     </g>
     <g id="text_32">
      <!-- 0.3 -->
      <g style="fill:#262626;" transform="translate(599.571927 67.139372)scale(0.11 -0.11)">
       <use xlink:href="#ArialMT-30"/>
       <use x="55.615234" xlink:href="#ArialMT-2e"/>
       <use x="83.398438" xlink:href="#ArialMT-33"/>
      </g>
     </g>
    </g>
    <g id="ytick_20">
     <g id="line2d_38">
      <path clip-path="url(#p8aeaa3ec65)" d="M 624.361927 34.099187 
L 853.2 34.099187 
" style="fill:none;stroke:#ffffff;stroke-linecap:round;"/>
     </g>
     <g id="text_33">
      <!-- 0.4 -->
      <g style="fill:#262626;" transform="translate(599.571927 38.035984)scale(0.11 -0.11)">
       <defs>
        <path d="M 2069 0 
L 2069 1097 
L 81 1097 
L 81 1613 
L 2172 4581 
L 2631 4581 
L 2631 1613 
L 3250 1613 
L 3250 1097 
L 2631 1097 
L 2631 0 
L 2069 0 
z
M 2069 1613 
L 2069 3678 
L 634 1613 
L 2069 1613 
z
" id="ArialMT-34" transform="scale(0.015625)"/>
       </defs>
       <use xlink:href="#ArialMT-30"/>
       <use x="55.615234" xlink:href="#ArialMT-2e"/>
       <use x="83.398438" xlink:href="#ArialMT-34"/>
      </g>
     </g>
    </g>
   </g>
   <g id="line2d_39">
    <path clip-path="url(#p8aeaa3ec65)" d="M 634.763658 150.512738 
L 641.937265 150.512737 
L 649.110872 150.496279 
L 656.28448 151.000831 
L 663.458087 139.788623 
L 670.631694 157.643593 
L 677.805301 191.290012 
L 684.978909 82.375456 
L 692.152516 192.870509 
L 699.326123 32.272397 
L 706.499731 177.815383 
L 713.673338 77.196272 
L 720.846945 149.079896 
L 728.020553 176.524748 
L 735.19416 181.06166 
L 742.367767 162.825468 
L 749.541374 96.682553 
L 756.714982 220.332713 
L 763.888589 95.227612 
L 771.062196 137.650868 
L 778.235804 135.282529 
L 785.409411 152.630342 
L 792.583018 130.718501 
L 799.756626 172.410213 
L 806.930233 128.550936 
L 814.10384 141.170071 
L 821.277448 132.95789 
L 828.451055 134.655415 
L 835.624662 169.173642 
L 842.798269 150.787229 
" style="fill:none;stroke:#4c72b0;stroke-dasharray:9,3;stroke-dashoffset:0;stroke-width:1.5;"/>
   </g>
   <g id="line2d_40">
    <path clip-path="url(#p8aeaa3ec65)" d="M 634.763658 150.512738 
L 641.937265 150.514825 
L 649.110872 138.243097 
L 656.28448 109.025118 
L 663.458087 245.720337 
L 670.631694 109.215619 
L 677.805301 103.928044 
L 684.978909 119.731405 
L 692.152516 208.361 
L 699.326123 115.057435 
L 706.499731 145.853476 
L 713.673338 174.388618 
L 720.846945 151.006814 
L 728.020553 116.663532 
L 735.19416 118.118062 
L 742.367767 142.074163 
L 749.541374 141.250845 
L 756.714982 149.34723 
L 763.888589 125.574837 
L 771.062196 123.536444 
L 778.235804 136.652107 
L 785.409411 166.219849 
L 792.583018 138.812798 
L 799.756626 160.717357 
L 806.930233 140.431342 
L 814.10384 158.720549 
L 821.277448 119.455144 
L 828.451055 137.311013 
L 835.624662 155.863057 
L 842.798269 162.66055 
" style="fill:none;stroke:#dd8452;stroke-dasharray:12,7.5;stroke-dashoffset:0;stroke-width:1.5;"/>
   </g>
   <g id="line2d_41">
    <path clip-path="url(#p8aeaa3ec65)" d="M 634.763658 150.512738 
L 641.937265 150.512739 
L 649.110872 150.887439 
L 656.28448 138.242541 
L 663.458087 133.485526 
L 670.631694 92.531384 
L 677.805301 209.031388 
L 684.978909 82.10809 
L 692.152516 98.289057 
L 699.326123 178.980841 
L 706.499731 38.257909 
L 713.673338 127.242142 
L 720.846945 180.376975 
L 728.020553 102.681243 
L 735.19416 162.870931 
L 742.367767 136.959174 
L 749.541374 123.845704 
L 756.714982 204.969146 
L 763.888589 156.319016 
L 771.062196 191.40382 
L 778.235804 149.335355 
L 785.409411 167.592648 
L 792.583018 127.131894 
L 799.756626 137.972459 
L 806.930233 136.998291 
L 814.10384 181.444837 
L 821.277448 181.577081 
L 828.451055 167.113717 
L 835.624662 149.830447 
L 842.798269 150.751237 
" style="fill:none;stroke:#55a868;stroke-dasharray:1.5,0;stroke-dashoffset:0;stroke-width:1.5;"/>
   </g>
   <g id="patch_13">
    <path d="M 624.361927 256.392734 
L 624.361927 21.6 
" style="fill:none;stroke:#ffffff;stroke-linecap:square;stroke-linejoin:miter;stroke-width:1.25;"/>
   </g>
   <g id="patch_14">
    <path d="M 853.2 256.392734 
L 853.2 21.6 
" style="fill:none;stroke:#ffffff;stroke-linecap:square;stroke-linejoin:miter;stroke-width:1.25;"/>
   </g>
   <g id="patch_15">
    <path d="M 624.361927 256.392734 
L 853.2 256.392734 
" style="fill:none;stroke:#ffffff;stroke-linecap:square;stroke-linejoin:miter;stroke-width:1.25;"/>
   </g>
   <g id="patch_16">
    <path d="M 624.361927 21.6 
L 853.2 21.6 
" style="fill:none;stroke:#ffffff;stroke-linecap:square;stroke-linejoin:miter;stroke-width:1.25;"/>
   </g>
  </g>
  <g id="axes_4">
   <g id="patch_17">
    <path d="M 70.422344 523.349531 
L 299.260417 523.349531 
L 299.260417 288.556797 
L 70.422344 288.556797 
z
" style="fill:#eaeaf2;"/>
   </g>
   <g id="matplotlib.axis_7">
    <g id="xtick_13">
     <g id="line2d_42">
      <path clip-path="url(#p11a681b203)" d="M 80.685292 523.349531 
L 80.685292 288.556797 
" style="fill:none;stroke:#ffffff;stroke-linecap:round;"/>
     </g>
     <g id="text_34">
      <!-- 0.0 -->
      <g style="fill:#262626;" transform="translate(73.040292 540.723125)scale(0.11 -0.11)">
       <use xlink:href="#ArialMT-30"/>
       <use x="55.615234" xlink:href="#ArialMT-2e"/>
       <use x="83.398438" xlink:href="#ArialMT-30"/>
      </g>
     </g>
    </g>
    <g id="xtick_14">
     <g id="line2d_43">
      <path clip-path="url(#p11a681b203)" d="M 150.076423 523.349531 
L 150.076423 288.556797 
" style="fill:none;stroke:#ffffff;stroke-linecap:round;"/>
     </g>
     <g id="text_35">
      <!-- 0.5 -->
      <g style="fill:#262626;" transform="translate(142.431423 540.723125)scale(0.11 -0.11)">
       <use xlink:href="#ArialMT-30"/>
       <use x="55.615234" xlink:href="#ArialMT-2e"/>
       <use x="83.398438" xlink:href="#ArialMT-35"/>
      </g>
     </g>
    </g>
    <g id="xtick_15">
     <g id="line2d_44">
      <path clip-path="url(#p11a681b203)" d="M 219.467555 523.349531 
L 219.467555 288.556797 
" style="fill:none;stroke:#ffffff;stroke-linecap:round;"/>
     </g>
     <g id="text_36">
      <!-- 1.0 -->
      <g style="fill:#262626;" transform="translate(211.822555 540.723125)scale(0.11 -0.11)">
       <use xlink:href="#ArialMT-31"/>
       <use x="55.615234" xlink:href="#ArialMT-2e"/>
       <use x="83.398438" xlink:href="#ArialMT-30"/>
      </g>
     </g>
    </g>
    <g id="xtick_16">
     <g id="line2d_45">
      <path clip-path="url(#p11a681b203)" d="M 288.858686 523.349531 
L 288.858686 288.556797 
" style="fill:none;stroke:#ffffff;stroke-linecap:round;"/>
     </g>
     <g id="text_37">
      <!-- 1.5 -->
      <g style="fill:#262626;" transform="translate(281.213686 540.723125)scale(0.11 -0.11)">
       <use xlink:href="#ArialMT-31"/>
       <use x="55.615234" xlink:href="#ArialMT-2e"/>
       <use x="83.398438" xlink:href="#ArialMT-35"/>
      </g>
     </g>
    </g>
    <g id="text_38">
     <!-- $x_0$ Kernel Width -->
     <g style="fill:#262626;" transform="translate(114.14138 561.225)scale(0.2 -0.2)">
      <defs>
       <path d="M 2034 4250 
Q 1547 4250 1301 3770 
Q 1056 3291 1056 2328 
Q 1056 1369 1301 889 
Q 1547 409 2034 409 
Q 2525 409 2770 889 
Q 3016 1369 3016 2328 
Q 3016 3291 2770 3770 
Q 2525 4250 2034 4250 
z
M 2034 4750 
Q 2819 4750 3233 4129 
Q 3647 3509 3647 2328 
Q 3647 1150 3233 529 
Q 2819 -91 2034 -91 
Q 1250 -91 836 529 
Q 422 1150 422 2328 
Q 422 3509 836 4129 
Q 1250 4750 2034 4750 
z
" id="DejaVuSans-30" transform="scale(0.015625)"/>
       <path d="M 469 0 
L 469 4581 
L 1075 4581 
L 1075 2309 
L 3350 4581 
L 4172 4581 
L 2250 2725 
L 4256 0 
L 3456 0 
L 1825 2319 
L 1075 1588 
L 1075 0 
L 469 0 
z
" id="ArialMT-4b" transform="scale(0.015625)"/>
       <path d="M 2694 1069 
L 3275 997 
Q 3138 488 2766 206 
Q 2394 -75 1816 -75 
Q 1088 -75 661 373 
Q 234 822 234 1631 
Q 234 2469 665 2931 
Q 1097 3394 1784 3394 
Q 2450 3394 2872 2941 
Q 3294 2488 3294 1666 
Q 3294 1616 3291 1516 
L 816 1516 
Q 847 969 1125 678 
Q 1403 388 1819 388 
Q 2128 388 2347 550 
Q 2566 713 2694 1069 
z
M 847 1978 
L 2700 1978 
Q 2663 2397 2488 2606 
Q 2219 2931 1791 2931 
Q 1403 2931 1139 2672 
Q 875 2413 847 1978 
z
" id="ArialMT-65" transform="scale(0.015625)"/>
       <path d="M 409 0 
L 409 4581 
L 972 4581 
L 972 0 
L 409 0 
z
" id="ArialMT-6c" transform="scale(0.015625)"/>
       <path d="M 1294 0 
L 78 4581 
L 700 4581 
L 1397 1578 
Q 1509 1106 1591 641 
Q 1766 1375 1797 1488 
L 2669 4581 
L 3400 4581 
L 4056 2263 
Q 4303 1400 4413 641 
Q 4500 1075 4641 1638 
L 5359 4581 
L 5969 4581 
L 4713 0 
L 4128 0 
L 3163 3491 
Q 3041 3928 3019 4028 
Q 2947 3713 2884 3491 
L 1913 0 
L 1294 0 
z
" id="ArialMT-57" transform="scale(0.015625)"/>
       <path d="M 2575 0 
L 2575 419 
Q 2259 -75 1647 -75 
Q 1250 -75 917 144 
Q 584 363 401 755 
Q 219 1147 219 1656 
Q 219 2153 384 2558 
Q 550 2963 881 3178 
Q 1213 3394 1622 3394 
Q 1922 3394 2156 3267 
Q 2391 3141 2538 2938 
L 2538 4581 
L 3097 4581 
L 3097 0 
L 2575 0 
z
M 797 1656 
Q 797 1019 1065 703 
Q 1334 388 1700 388 
Q 2069 388 2326 689 
Q 2584 991 2584 1609 
Q 2584 2291 2321 2609 
Q 2059 2928 1675 2928 
Q 1300 2928 1048 2622 
Q 797 2316 797 1656 
z
" id="ArialMT-64" transform="scale(0.015625)"/>
       <path d="M 422 0 
L 422 4581 
L 984 4581 
L 984 2938 
Q 1378 3394 1978 3394 
Q 2347 3394 2619 3248 
Q 2891 3103 3008 2847 
Q 3125 2591 3125 2103 
L 3125 0 
L 2563 0 
L 2563 2103 
Q 2563 2525 2380 2717 
Q 2197 2909 1863 2909 
Q 1613 2909 1392 2779 
Q 1172 2650 1078 2428 
Q 984 2206 984 1816 
L 984 0 
L 422 0 
z
" id="ArialMT-68" transform="scale(0.015625)"/>
      </defs>
      <use transform="translate(0 0.421875)" xlink:href="#DejaVuSans-Oblique-78"/>
      <use transform="translate(59.179688 -15.984375)scale(0.7)" xlink:href="#DejaVuSans-30"/>
      <use transform="translate(106.450195 0.421875)" xlink:href="#ArialMT-20"/>
      <use transform="translate(134.233398 0.421875)" xlink:href="#ArialMT-4b"/>
      <use transform="translate(200.932617 0.421875)" xlink:href="#ArialMT-65"/>
      <use transform="translate(256.547852 0.421875)" xlink:href="#ArialMT-72"/>
      <use transform="translate(289.848633 0.421875)" xlink:href="#ArialMT-6e"/>
      <use transform="translate(345.463867 0.421875)" xlink:href="#ArialMT-65"/>
      <use transform="translate(401.079102 0.421875)" xlink:href="#ArialMT-6c"/>
      <use transform="translate(423.295898 0.421875)" xlink:href="#ArialMT-20"/>
      <use transform="translate(451.079102 0.421875)" xlink:href="#ArialMT-57"/>
      <use transform="translate(545.463867 0.421875)" xlink:href="#ArialMT-69"/>
      <use transform="translate(567.680664 0.421875)" xlink:href="#ArialMT-64"/>
      <use transform="translate(623.295898 0.421875)" xlink:href="#ArialMT-74"/>
      <use transform="translate(651.079102 0.421875)" xlink:href="#ArialMT-68"/>
     </g>
    </g>
   </g>
   <g id="matplotlib.axis_8">
    <g id="ytick_21">
     <g id="line2d_46">
      <path clip-path="url(#p11a681b203)" d="M 70.422344 519.819093 
L 299.260417 519.819093 
" style="fill:none;stroke:#ffffff;stroke-linecap:round;"/>
     </g>
     <g id="text_39">
      <!-- −0.05 -->
      <g style="fill:#262626;" transform="translate(33.090625 523.75589)scale(0.11 -0.11)">
       <use xlink:href="#ArialMT-2212"/>
       <use x="58.398438" xlink:href="#ArialMT-30"/>
       <use x="114.013672" xlink:href="#ArialMT-2e"/>
       <use x="141.796875" xlink:href="#ArialMT-30"/>
       <use x="197.412109" xlink:href="#ArialMT-35"/>
      </g>
     </g>
    </g>
    <g id="ytick_22">
     <g id="line2d_47">
      <path clip-path="url(#p11a681b203)" d="M 70.422344 474.013776 
L 299.260417 474.013776 
" style="fill:none;stroke:#ffffff;stroke-linecap:round;"/>
     </g>
     <g id="text_40">
      <!-- 0.00 -->
      <g style="fill:#262626;" transform="translate(39.515313 477.950573)scale(0.11 -0.11)">
       <use xlink:href="#ArialMT-30"/>
       <use x="55.615234" xlink:href="#ArialMT-2e"/>
       <use x="83.398438" xlink:href="#ArialMT-30"/>
       <use x="139.013672" xlink:href="#ArialMT-30"/>
      </g>
     </g>
    </g>
    <g id="ytick_23">
     <g id="line2d_48">
      <path clip-path="url(#p11a681b203)" d="M 70.422344 428.208459 
L 299.260417 428.208459 
" style="fill:none;stroke:#ffffff;stroke-linecap:round;"/>
     </g>
     <g id="text_41">
      <!-- 0.05 -->
      <g style="fill:#262626;" transform="translate(39.515313 432.145256)scale(0.11 -0.11)">
       <use xlink:href="#ArialMT-30"/>
       <use x="55.615234" xlink:href="#ArialMT-2e"/>
       <use x="83.398438" xlink:href="#ArialMT-30"/>
       <use x="139.013672" xlink:href="#ArialMT-35"/>
      </g>
     </g>
    </g>
    <g id="ytick_24">
     <g id="line2d_49">
      <path clip-path="url(#p11a681b203)" d="M 70.422344 382.403142 
L 299.260417 382.403142 
" style="fill:none;stroke:#ffffff;stroke-linecap:round;"/>
     </g>
     <g id="text_42">
      <!-- 0.10 -->
      <g style="fill:#262626;" transform="translate(39.515313 386.339939)scale(0.11 -0.11)">
       <use xlink:href="#ArialMT-30"/>
       <use x="55.615234" xlink:href="#ArialMT-2e"/>
       <use x="83.398438" xlink:href="#ArialMT-31"/>
       <use x="139.013672" xlink:href="#ArialMT-30"/>
      </g>
     </g>
    </g>
    <g id="ytick_25">
     <g id="line2d_50">
      <path clip-path="url(#p11a681b203)" d="M 70.422344 336.597825 
L 299.260417 336.597825 
" style="fill:none;stroke:#ffffff;stroke-linecap:round;"/>
     </g>
     <g id="text_43">
      <!-- 0.15 -->
      <g style="fill:#262626;" transform="translate(39.515313 340.534622)scale(0.11 -0.11)">
       <use xlink:href="#ArialMT-30"/>
       <use x="55.615234" xlink:href="#ArialMT-2e"/>
       <use x="83.398438" xlink:href="#ArialMT-31"/>
       <use x="139.013672" xlink:href="#ArialMT-35"/>
      </g>
     </g>
    </g>
    <g id="ytick_26">
     <g id="line2d_51">
      <path clip-path="url(#p11a681b203)" d="M 70.422344 290.792508 
L 299.260417 290.792508 
" style="fill:none;stroke:#ffffff;stroke-linecap:round;"/>
     </g>
     <g id="text_44">
      <!-- 0.20 -->
      <g style="fill:#262626;" transform="translate(39.515313 294.729305)scale(0.11 -0.11)">
       <use xlink:href="#ArialMT-30"/>
       <use x="55.615234" xlink:href="#ArialMT-2e"/>
       <use x="83.398438" xlink:href="#ArialMT-32"/>
       <use x="139.013672" xlink:href="#ArialMT-30"/>
      </g>
     </g>
    </g>
    <g id="text_45">
     <!-- Contribution to $v_t$ -->
     <g style="fill:#262626;" transform="translate(25.115625 482.753164)rotate(-90)scale(0.2 -0.2)">
      <defs>
       <path d="M 459 3500 
L 1069 3500 
L 1581 525 
L 3256 3500 
L 3866 3500 
L 1875 0 
L 1100 0 
L 459 3500 
z
" id="DejaVuSans-Oblique-76" transform="scale(0.015625)"/>
      </defs>
      <use transform="translate(0 0.203125)" xlink:href="#ArialMT-43"/>
      <use transform="translate(72.216797 0.203125)" xlink:href="#ArialMT-6f"/>
      <use transform="translate(127.832031 0.203125)" xlink:href="#ArialMT-6e"/>
      <use transform="translate(183.447266 0.203125)" xlink:href="#ArialMT-74"/>
      <use transform="translate(211.230469 0.203125)" xlink:href="#ArialMT-72"/>
      <use transform="translate(244.53125 0.203125)" xlink:href="#ArialMT-69"/>
      <use transform="translate(266.748047 0.203125)" xlink:href="#ArialMT-62"/>
      <use transform="translate(322.363281 0.203125)" xlink:href="#ArialMT-75"/>
      <use transform="translate(377.978516 0.203125)" xlink:href="#ArialMT-74"/>
      <use transform="translate(405.761719 0.203125)" xlink:href="#ArialMT-69"/>
      <use transform="translate(427.978516 0.203125)" xlink:href="#ArialMT-6f"/>
      <use transform="translate(483.59375 0.203125)" xlink:href="#ArialMT-6e"/>
      <use transform="translate(539.208984 0.203125)" xlink:href="#ArialMT-20"/>
      <use transform="translate(566.992188 0.203125)" xlink:href="#ArialMT-74"/>
      <use transform="translate(594.775391 0.203125)" xlink:href="#ArialMT-6f"/>
      <use transform="translate(650.390625 0.203125)" xlink:href="#ArialMT-20"/>
      <use transform="translate(678.173828 0.203125)" xlink:href="#DejaVuSans-Oblique-76"/>
      <use transform="translate(737.353516 -16.203125)scale(0.7)" xlink:href="#DejaVuSans-Oblique-74"/>
     </g>
    </g>
   </g>
   <g id="line2d_52">
    <path clip-path="url(#p11a681b203)" d="M 80.824074 474.013776 
L 87.997682 474.013776 
L 95.171289 474.017257 
L 102.344896 474.071704 
L 109.518504 463.594008 
L 116.692111 495.012048 
L 123.865718 479.410605 
L 131.039325 478.947697 
L 138.212933 484.058501 
L 145.38654 476.651523 
L 152.560147 486.242881 
L 159.733755 501.357026 
L 166.907362 491.726498 
L 174.080969 444.888539 
L 181.254577 478.250495 
L 188.428184 477.44286 
L 195.601791 482.093485 
L 202.775398 487.45653 
L 209.949006 485.849771 
L 217.122613 481.929781 
L 224.29622 461.671126 
L 231.469828 467.638934 
L 238.643435 471.661241 
L 245.817042 477.034147 
L 252.99065 475.718754 
L 260.164257 470.439357 
L 267.337864 474.731671 
L 274.511471 461.028097 
L 281.685079 481.532863 
L 288.858686 480.349942 
" style="fill:none;stroke:#4c72b0;stroke-dasharray:9,3;stroke-dashoffset:0;stroke-width:1.5;"/>
   </g>
   <g id="line2d_53">
    <path clip-path="url(#p11a681b203)" d="M 80.824074 474.013776 
L 87.997682 474.553962 
L 95.171289 485.113072 
L 102.344896 470.525437 
L 109.518504 469.858206 
L 116.692111 429.900197 
L 123.865718 451.723118 
L 131.039325 485.26646 
L 138.212933 497.121848 
L 145.38654 483.611746 
L 152.560147 432.559859 
L 159.733755 449.972966 
L 166.907362 466.560554 
L 174.080969 469.832221 
L 181.254577 429.208429 
L 188.428184 438.173191 
L 195.601791 373.696073 
L 202.775398 409.46134 
L 209.949006 376.944441 
L 217.122613 429.110655 
L 224.29622 343.184954 
L 231.469828 432.644554 
L 238.643435 299.229194 
L 245.817042 494.719867 
L 252.99065 350.853575 
L 260.164257 397.482046 
L 267.337864 439.011337 
L 274.511471 468.858269 
L 281.685079 450.62471 
L 288.858686 481.179548 
" style="fill:none;stroke:#dd8452;stroke-dasharray:12,7.5;stroke-dashoffset:0;stroke-width:1.5;"/>
   </g>
   <g id="line2d_54">
    <path clip-path="url(#p11a681b203)" d="M 80.824074 474.013776 
L 87.997682 474.013776 
L 95.171289 473.947225 
L 102.344896 475.170821 
L 109.518504 497.213686 
L 116.692111 446.015483 
L 123.865718 503.980847 
L 131.039325 512.677134 
L 138.212933 446.003414 
L 145.38654 500.544228 
L 152.560147 451.676165 
L 159.733755 463.781974 
L 166.907362 463.790438 
L 174.080969 463.227888 
L 181.254577 470.014696 
L 188.428184 474.573436 
L 195.601791 467.990351 
L 202.775398 474.342094 
L 209.949006 471.090835 
L 217.122613 469.221565 
L 224.29622 477.025834 
L 231.469828 484.314226 
L 238.643435 468.335882 
L 245.817042 470.494134 
L 252.99065 474.578726 
L 260.164257 470.886681 
L 267.337864 478.899311 
L 274.511471 460.534324 
L 281.685079 463.652283 
L 288.858686 468.171475 
" style="fill:none;stroke:#55a868;stroke-dasharray:1.5,0;stroke-dashoffset:0;stroke-width:1.5;"/>
   </g>
   <g id="patch_18">
    <path d="M 70.422344 523.349531 
L 70.422344 288.556797 
" style="fill:none;stroke:#ffffff;stroke-linecap:square;stroke-linejoin:miter;stroke-width:1.25;"/>
   </g>
   <g id="patch_19">
    <path d="M 299.260417 523.349531 
L 299.260417 288.556797 
" style="fill:none;stroke:#ffffff;stroke-linecap:square;stroke-linejoin:miter;stroke-width:1.25;"/>
   </g>
   <g id="patch_20">
    <path d="M 70.422344 523.349531 
L 299.260417 523.349531 
" style="fill:none;stroke:#ffffff;stroke-linecap:square;stroke-linejoin:miter;stroke-width:1.25;"/>
   </g>
   <g id="patch_21">
    <path d="M 70.422344 288.556797 
L 299.260417 288.556797 
" style="fill:none;stroke:#ffffff;stroke-linecap:square;stroke-linejoin:miter;stroke-width:1.25;"/>
   </g>
  </g>
  <g id="axes_5">
   <g id="patch_22">
    <path d="M 347.392135 523.349531 
L 576.230208 523.349531 
L 576.230208 288.556797 
L 347.392135 288.556797 
z
" style="fill:#eaeaf2;"/>
   </g>
   <g id="matplotlib.axis_9">
    <g id="xtick_17">
     <g id="line2d_55">
      <path clip-path="url(#pebb806315b)" d="M 357.655084 523.349531 
L 357.655084 288.556797 
" style="fill:none;stroke:#ffffff;stroke-linecap:round;"/>
     </g>
     <g id="text_46">
      <!-- 0.0 -->
      <g style="fill:#262626;" transform="translate(350.010084 540.723125)scale(0.11 -0.11)">
       <use xlink:href="#ArialMT-30"/>
       <use x="55.615234" xlink:href="#ArialMT-2e"/>
       <use x="83.398438" xlink:href="#ArialMT-30"/>
      </g>
     </g>
    </g>
    <g id="xtick_18">
     <g id="line2d_56">
      <path clip-path="url(#pebb806315b)" d="M 427.046215 523.349531 
L 427.046215 288.556797 
" style="fill:none;stroke:#ffffff;stroke-linecap:round;"/>
     </g>
     <g id="text_47">
      <!-- 0.5 -->
      <g style="fill:#262626;" transform="translate(419.401215 540.723125)scale(0.11 -0.11)">
       <use xlink:href="#ArialMT-30"/>
       <use x="55.615234" xlink:href="#ArialMT-2e"/>
       <use x="83.398438" xlink:href="#ArialMT-35"/>
      </g>
     </g>
    </g>
    <g id="xtick_19">
     <g id="line2d_57">
      <path clip-path="url(#pebb806315b)" d="M 496.437346 523.349531 
L 496.437346 288.556797 
" style="fill:none;stroke:#ffffff;stroke-linecap:round;"/>
     </g>
     <g id="text_48">
      <!-- 1.0 -->
      <g style="fill:#262626;" transform="translate(488.792346 540.723125)scale(0.11 -0.11)">
       <use xlink:href="#ArialMT-31"/>
       <use x="55.615234" xlink:href="#ArialMT-2e"/>
       <use x="83.398438" xlink:href="#ArialMT-30"/>
      </g>
     </g>
    </g>
    <g id="xtick_20">
     <g id="line2d_58">
      <path clip-path="url(#pebb806315b)" d="M 565.828478 523.349531 
L 565.828478 288.556797 
" style="fill:none;stroke:#ffffff;stroke-linecap:round;"/>
     </g>
     <g id="text_49">
      <!-- 1.5 -->
      <g style="fill:#262626;" transform="translate(558.183478 540.723125)scale(0.11 -0.11)">
       <use xlink:href="#ArialMT-31"/>
       <use x="55.615234" xlink:href="#ArialMT-2e"/>
       <use x="83.398438" xlink:href="#ArialMT-35"/>
      </g>
     </g>
    </g>
    <g id="text_50">
     <!-- $v_0$ Kernel Width -->
     <g style="fill:#262626;" transform="translate(391.111172 561.225)scale(0.2 -0.2)">
      <use transform="translate(0 0.421875)" xlink:href="#DejaVuSans-Oblique-76"/>
      <use transform="translate(59.179688 -15.984375)scale(0.7)" xlink:href="#DejaVuSans-30"/>
      <use transform="translate(106.450195 0.421875)" xlink:href="#ArialMT-20"/>
      <use transform="translate(134.233398 0.421875)" xlink:href="#ArialMT-4b"/>
      <use transform="translate(200.932617 0.421875)" xlink:href="#ArialMT-65"/>
      <use transform="translate(256.547852 0.421875)" xlink:href="#ArialMT-72"/>
      <use transform="translate(289.848633 0.421875)" xlink:href="#ArialMT-6e"/>
      <use transform="translate(345.463867 0.421875)" xlink:href="#ArialMT-65"/>
      <use transform="translate(401.079102 0.421875)" xlink:href="#ArialMT-6c"/>
      <use transform="translate(423.295898 0.421875)" xlink:href="#ArialMT-20"/>
      <use transform="translate(451.079102 0.421875)" xlink:href="#ArialMT-57"/>
      <use transform="translate(545.463867 0.421875)" xlink:href="#ArialMT-69"/>
      <use transform="translate(567.680664 0.421875)" xlink:href="#ArialMT-64"/>
      <use transform="translate(623.295898 0.421875)" xlink:href="#ArialMT-74"/>
      <use transform="translate(651.079102 0.421875)" xlink:href="#ArialMT-68"/>
     </g>
    </g>
   </g>
   <g id="matplotlib.axis_10">
    <g id="ytick_27">
     <g id="line2d_59">
      <path clip-path="url(#pebb806315b)" d="M 347.392135 520.11449 
L 576.230208 520.11449 
" style="fill:none;stroke:#ffffff;stroke-linecap:round;"/>
     </g>
     <g id="text_51">
      <!-- −0.10 -->
      <g style="fill:#262626;" transform="translate(310.060417 524.051287)scale(0.11 -0.11)">
       <use xlink:href="#ArialMT-2212"/>
       <use x="58.398438" xlink:href="#ArialMT-30"/>
       <use x="114.013672" xlink:href="#ArialMT-2e"/>
       <use x="141.796875" xlink:href="#ArialMT-31"/>
       <use x="197.412109" xlink:href="#ArialMT-30"/>
      </g>
     </g>
    </g>
    <g id="ytick_28">
     <g id="line2d_60">
      <path clip-path="url(#pebb806315b)" d="M 347.392135 472.04338 
L 576.230208 472.04338 
" style="fill:none;stroke:#ffffff;stroke-linecap:round;"/>
     </g>
     <g id="text_52">
      <!-- −0.05 -->
      <g style="fill:#262626;" transform="translate(310.060417 475.980177)scale(0.11 -0.11)">
       <use xlink:href="#ArialMT-2212"/>
       <use x="58.398438" xlink:href="#ArialMT-30"/>
       <use x="114.013672" xlink:href="#ArialMT-2e"/>
       <use x="141.796875" xlink:href="#ArialMT-30"/>
       <use x="197.412109" xlink:href="#ArialMT-35"/>
      </g>
     </g>
    </g>
    <g id="ytick_29">
     <g id="line2d_61">
      <path clip-path="url(#pebb806315b)" d="M 347.392135 423.972269 
L 576.230208 423.972269 
" style="fill:none;stroke:#ffffff;stroke-linecap:round;"/>
     </g>
     <g id="text_53">
      <!-- 0.00 -->
      <g style="fill:#262626;" transform="translate(316.485104 427.909066)scale(0.11 -0.11)">
       <use xlink:href="#ArialMT-30"/>
       <use x="55.615234" xlink:href="#ArialMT-2e"/>
       <use x="83.398438" xlink:href="#ArialMT-30"/>
       <use x="139.013672" xlink:href="#ArialMT-30"/>
      </g>
     </g>
    </g>
    <g id="ytick_30">
     <g id="line2d_62">
      <path clip-path="url(#pebb806315b)" d="M 347.392135 375.901159 
L 576.230208 375.901159 
" style="fill:none;stroke:#ffffff;stroke-linecap:round;"/>
     </g>
     <g id="text_54">
      <!-- 0.05 -->
      <g style="fill:#262626;" transform="translate(316.485104 379.837956)scale(0.11 -0.11)">
       <use xlink:href="#ArialMT-30"/>
       <use x="55.615234" xlink:href="#ArialMT-2e"/>
       <use x="83.398438" xlink:href="#ArialMT-30"/>
       <use x="139.013672" xlink:href="#ArialMT-35"/>
      </g>
     </g>
    </g>
    <g id="ytick_31">
     <g id="line2d_63">
      <path clip-path="url(#pebb806315b)" d="M 347.392135 327.830049 
L 576.230208 327.830049 
" style="fill:none;stroke:#ffffff;stroke-linecap:round;"/>
     </g>
     <g id="text_55">
      <!-- 0.10 -->
      <g style="fill:#262626;" transform="translate(316.485104 331.766846)scale(0.11 -0.11)">
       <use xlink:href="#ArialMT-30"/>
       <use x="55.615234" xlink:href="#ArialMT-2e"/>
       <use x="83.398438" xlink:href="#ArialMT-31"/>
       <use x="139.013672" xlink:href="#ArialMT-30"/>
      </g>
     </g>
    </g>
   </g>
   <g id="line2d_64">
    <path clip-path="url(#pebb806315b)" d="M 357.793866 423.972269 
L 364.967473 423.972269 
L 372.141081 423.965848 
L 379.314688 424.005917 
L 386.488295 416.25669 
L 393.661903 415.970149 
L 400.83551 421.966924 
L 408.009117 404.384306 
L 415.182724 472.822826 
L 422.356332 411.023958 
L 429.529939 409.866371 
L 436.703546 409.607142 
L 443.877154 397.092044 
L 451.050761 397.539413 
L 458.224368 440.855112 
L 465.397976 435.279384 
L 472.571583 424.243365 
L 479.74519 436.579181 
L 486.918797 422.985339 
L 494.092405 420.103912 
L 501.266012 430.291599 
L 508.439619 429.291933 
L 515.613227 412.121684 
L 522.786834 414.742595 
L 529.960441 422.466502 
L 537.134049 415.654407 
L 544.307656 427.699407 
L 551.481263 427.698922 
L 558.65487 415.30691 
L 565.828478 418.729366 
" style="fill:none;stroke:#4c72b0;stroke-dasharray:9,3;stroke-dashoffset:0;stroke-width:1.5;"/>
   </g>
   <g id="line2d_65">
    <path clip-path="url(#pebb806315b)" d="M 357.793866 423.972269 
L 364.967473 422.037051 
L 372.141081 426.449954 
L 379.314688 418.326493 
L 386.488295 454.145463 
L 393.661903 476.173662 
L 400.83551 434.041647 
L 408.009117 430.604647 
L 415.182724 406.10732 
L 422.356332 424.163042 
L 429.529939 456.446294 
L 436.703546 414.204571 
L 443.877154 397.591541 
L 451.050761 460.41731 
L 458.224368 409.114371 
L 465.397976 409.943001 
L 472.571583 364.635262 
L 479.74519 407.655729 
L 486.918797 512.677134 
L 494.092405 408.024638 
L 501.266012 432.48206 
L 508.439619 360.332212 
L 515.613227 452.057655 
L 522.786834 487.092791 
L 529.960441 319.840809 
L 537.134049 299.229194 
L 544.307656 348.115904 
L 551.481263 458.094348 
L 558.65487 306.933859 
L 565.828478 400.710929 
" style="fill:none;stroke:#dd8452;stroke-dasharray:12,7.5;stroke-dashoffset:0;stroke-width:1.5;"/>
   </g>
   <g id="line2d_66">
    <path clip-path="url(#pebb806315b)" d="M 357.793866 423.972269 
L 364.967473 423.972269 
L 372.141081 424.10959 
L 379.314688 422.391638 
L 386.488295 406.124772 
L 393.661903 413.590955 
L 400.83551 441.761023 
L 408.009117 432.047396 
L 415.182724 389.669163 
L 422.356332 380.680788 
L 429.529939 399.802319 
L 436.703546 435.058032 
L 443.877154 408.359345 
L 451.050761 417.103266 
L 458.224368 434.641869 
L 465.397976 399.842912 
L 472.571583 428.199666 
L 479.74519 413.990508 
L 486.918797 427.579733 
L 494.092405 426.823185 
L 501.266012 425.478585 
L 508.439619 427.23898 
L 515.613227 435.066175 
L 522.786834 420.452047 
L 529.960441 409.586852 
L 537.134049 421.044507 
L 544.307656 401.753174 
L 551.481263 412.982932 
L 558.65487 425.022689 
L 565.828478 416.603185 
" style="fill:none;stroke:#55a868;stroke-dasharray:1.5,0;stroke-dashoffset:0;stroke-width:1.5;"/>
   </g>
   <g id="patch_23">
    <path d="M 347.392135 523.349531 
L 347.392135 288.556797 
" style="fill:none;stroke:#ffffff;stroke-linecap:square;stroke-linejoin:miter;stroke-width:1.25;"/>
   </g>
   <g id="patch_24">
    <path d="M 576.230208 523.349531 
L 576.230208 288.556797 
" style="fill:none;stroke:#ffffff;stroke-linecap:square;stroke-linejoin:miter;stroke-width:1.25;"/>
   </g>
   <g id="patch_25">
    <path d="M 347.392135 523.349531 
L 576.230208 523.349531 
" style="fill:none;stroke:#ffffff;stroke-linecap:square;stroke-linejoin:miter;stroke-width:1.25;"/>
   </g>
   <g id="patch_26">
    <path d="M 347.392135 288.556797 
L 576.230208 288.556797 
" style="fill:none;stroke:#ffffff;stroke-linecap:square;stroke-linejoin:miter;stroke-width:1.25;"/>
   </g>
  </g>
  <g id="axes_6">
   <g id="patch_27">
    <path d="M 624.361927 523.349531 
L 853.2 523.349531 
L 853.2 288.556797 
L 624.361927 288.556797 
z
" style="fill:#eaeaf2;"/>
   </g>
   <g id="matplotlib.axis_11">
    <g id="xtick_21">
     <g id="line2d_67">
      <path clip-path="url(#p411b7057aa)" d="M 634.624875 523.349531 
L 634.624875 288.556797 
" style="fill:none;stroke:#ffffff;stroke-linecap:round;"/>
     </g>
     <g id="text_56">
      <!-- 0.0 -->
      <g style="fill:#262626;" transform="translate(626.979875 540.723125)scale(0.11 -0.11)">
       <use xlink:href="#ArialMT-30"/>
       <use x="55.615234" xlink:href="#ArialMT-2e"/>
       <use x="83.398438" xlink:href="#ArialMT-30"/>
      </g>
     </g>
    </g>
    <g id="xtick_22">
     <g id="line2d_68">
      <path clip-path="url(#p411b7057aa)" d="M 704.016007 523.349531 
L 704.016007 288.556797 
" style="fill:none;stroke:#ffffff;stroke-linecap:round;"/>
     </g>
     <g id="text_57">
      <!-- 0.5 -->
      <g style="fill:#262626;" transform="translate(696.371007 540.723125)scale(0.11 -0.11)">
       <use xlink:href="#ArialMT-30"/>
       <use x="55.615234" xlink:href="#ArialMT-2e"/>
       <use x="83.398438" xlink:href="#ArialMT-35"/>
      </g>
     </g>
    </g>
    <g id="xtick_23">
     <g id="line2d_69">
      <path clip-path="url(#p411b7057aa)" d="M 773.407138 523.349531 
L 773.407138 288.556797 
" style="fill:none;stroke:#ffffff;stroke-linecap:round;"/>
     </g>
     <g id="text_58">
      <!-- 1.0 -->
      <g style="fill:#262626;" transform="translate(765.762138 540.723125)scale(0.11 -0.11)">
       <use xlink:href="#ArialMT-31"/>
       <use x="55.615234" xlink:href="#ArialMT-2e"/>
       <use x="83.398438" xlink:href="#ArialMT-30"/>
      </g>
     </g>
    </g>
    <g id="xtick_24">
     <g id="line2d_70">
      <path clip-path="url(#p411b7057aa)" d="M 842.798269 523.349531 
L 842.798269 288.556797 
" style="fill:none;stroke:#ffffff;stroke-linecap:round;"/>
     </g>
     <g id="text_59">
      <!-- 1.5 -->
      <g style="fill:#262626;" transform="translate(835.153269 540.723125)scale(0.11 -0.11)">
       <use xlink:href="#ArialMT-31"/>
       <use x="55.615234" xlink:href="#ArialMT-2e"/>
       <use x="83.398438" xlink:href="#ArialMT-35"/>
      </g>
     </g>
    </g>
    <g id="text_60">
     <!-- $t$ Kernel Width -->
     <g style="fill:#262626;" transform="translate(674.780964 561.225)scale(0.2 -0.2)">
      <use transform="translate(0 0.421875)" xlink:href="#DejaVuSans-Oblique-74"/>
      <use transform="translate(39.208984 0.421875)" xlink:href="#ArialMT-20"/>
      <use transform="translate(66.992188 0.421875)" xlink:href="#ArialMT-4b"/>
      <use transform="translate(133.691406 0.421875)" xlink:href="#ArialMT-65"/>
      <use transform="translate(189.306641 0.421875)" xlink:href="#ArialMT-72"/>
      <use transform="translate(222.607422 0.421875)" xlink:href="#ArialMT-6e"/>
      <use transform="translate(278.222656 0.421875)" xlink:href="#ArialMT-65"/>
      <use transform="translate(333.837891 0.421875)" xlink:href="#ArialMT-6c"/>
      <use transform="translate(356.054688 0.421875)" xlink:href="#ArialMT-20"/>
      <use transform="translate(383.837891 0.421875)" xlink:href="#ArialMT-57"/>
      <use transform="translate(478.222656 0.421875)" xlink:href="#ArialMT-69"/>
      <use transform="translate(500.439453 0.421875)" xlink:href="#ArialMT-64"/>
      <use transform="translate(556.054688 0.421875)" xlink:href="#ArialMT-74"/>
      <use transform="translate(583.837891 0.421875)" xlink:href="#ArialMT-68"/>
     </g>
    </g>
   </g>
   <g id="matplotlib.axis_12">
    <g id="ytick_32">
     <g id="line2d_71">
      <path clip-path="url(#p411b7057aa)" d="M 624.361927 520.159436 
L 853.2 520.159436 
" style="fill:none;stroke:#ffffff;stroke-linecap:round;"/>
     </g>
     <g id="text_61">
      <!-- −0.4 -->
      <g style="fill:#262626;" transform="translate(593.14724 524.096233)scale(0.11 -0.11)">
       <use xlink:href="#ArialMT-2212"/>
       <use x="58.398438" xlink:href="#ArialMT-30"/>
       <use x="114.013672" xlink:href="#ArialMT-2e"/>
       <use x="141.796875" xlink:href="#ArialMT-34"/>
      </g>
     </g>
    </g>
    <g id="ytick_33">
     <g id="line2d_72">
      <path clip-path="url(#p411b7057aa)" d="M 624.361927 492.2469 
L 853.2 492.2469 
" style="fill:none;stroke:#ffffff;stroke-linecap:round;"/>
     </g>
     <g id="text_62">
      <!-- −0.3 -->
      <g style="fill:#262626;" transform="translate(593.14724 496.183697)scale(0.11 -0.11)">
       <use xlink:href="#ArialMT-2212"/>
       <use x="58.398438" xlink:href="#ArialMT-30"/>
       <use x="114.013672" xlink:href="#ArialMT-2e"/>
       <use x="141.796875" xlink:href="#ArialMT-33"/>
      </g>
     </g>
    </g>
    <g id="ytick_34">
     <g id="line2d_73">
      <path clip-path="url(#p411b7057aa)" d="M 624.361927 464.334365 
L 853.2 464.334365 
" style="fill:none;stroke:#ffffff;stroke-linecap:round;"/>
     </g>
     <g id="text_63">
      <!-- −0.2 -->
      <g style="fill:#262626;" transform="translate(593.14724 468.271162)scale(0.11 -0.11)">
       <use xlink:href="#ArialMT-2212"/>
       <use x="58.398438" xlink:href="#ArialMT-30"/>
       <use x="114.013672" xlink:href="#ArialMT-2e"/>
       <use x="141.796875" xlink:href="#ArialMT-32"/>
      </g>
     </g>
    </g>
    <g id="ytick_35">
     <g id="line2d_74">
      <path clip-path="url(#p411b7057aa)" d="M 624.361927 436.421829 
L 853.2 436.421829 
" style="fill:none;stroke:#ffffff;stroke-linecap:round;"/>
     </g>
     <g id="text_64">
      <!-- −0.1 -->
      <g style="fill:#262626;" transform="translate(593.14724 440.358626)scale(0.11 -0.11)">
       <use xlink:href="#ArialMT-2212"/>
       <use x="58.398438" xlink:href="#ArialMT-30"/>
       <use x="114.013672" xlink:href="#ArialMT-2e"/>
       <use x="141.796875" xlink:href="#ArialMT-31"/>
      </g>
     </g>
    </g>
    <g id="ytick_36">
     <g id="line2d_75">
      <path clip-path="url(#p411b7057aa)" d="M 624.361927 408.509294 
L 853.2 408.509294 
" style="fill:none;stroke:#ffffff;stroke-linecap:round;"/>
     </g>
     <g id="text_65">
      <!-- 0.0 -->
      <g style="fill:#262626;" transform="translate(599.571927 412.446091)scale(0.11 -0.11)">
       <use xlink:href="#ArialMT-30"/>
       <use x="55.615234" xlink:href="#ArialMT-2e"/>
       <use x="83.398438" xlink:href="#ArialMT-30"/>
      </g>
     </g>
    </g>
    <g id="ytick_37">
     <g id="line2d_76">
      <path clip-path="url(#p411b7057aa)" d="M 624.361927 380.596758 
L 853.2 380.596758 
" style="fill:none;stroke:#ffffff;stroke-linecap:round;"/>
     </g>
     <g id="text_66">
      <!-- 0.1 -->
      <g style="fill:#262626;" transform="translate(599.571927 384.533555)scale(0.11 -0.11)">
       <use xlink:href="#ArialMT-30"/>
       <use x="55.615234" xlink:href="#ArialMT-2e"/>
       <use x="83.398438" xlink:href="#ArialMT-31"/>
      </g>
     </g>
    </g>
    <g id="ytick_38">
     <g id="line2d_77">
      <path clip-path="url(#p411b7057aa)" d="M 624.361927 352.684223 
L 853.2 352.684223 
" style="fill:none;stroke:#ffffff;stroke-linecap:round;"/>
     </g>
     <g id="text_67">
      <!-- 0.2 -->
      <g style="fill:#262626;" transform="translate(599.571927 356.62102)scale(0.11 -0.11)">
       <use xlink:href="#ArialMT-30"/>
       <use x="55.615234" xlink:href="#ArialMT-2e"/>
       <use x="83.398438" xlink:href="#ArialMT-32"/>
      </g>
     </g>
    </g>
    <g id="ytick_39">
     <g id="line2d_78">
      <path clip-path="url(#p411b7057aa)" d="M 624.361927 324.771687 
L 853.2 324.771687 
" style="fill:none;stroke:#ffffff;stroke-linecap:round;"/>
     </g>
     <g id="text_68">
      <!-- 0.3 -->
      <g style="fill:#262626;" transform="translate(599.571927 328.708484)scale(0.11 -0.11)">
       <use xlink:href="#ArialMT-30"/>
       <use x="55.615234" xlink:href="#ArialMT-2e"/>
       <use x="83.398438" xlink:href="#ArialMT-33"/>
      </g>
     </g>
    </g>
    <g id="ytick_40">
     <g id="line2d_79">
      <path clip-path="url(#p411b7057aa)" d="M 624.361927 296.859152 
L 853.2 296.859152 
" style="fill:none;stroke:#ffffff;stroke-linecap:round;"/>
     </g>
     <g id="text_69">
      <!-- 0.4 -->
      <g style="fill:#262626;" transform="translate(599.571927 300.795949)scale(0.11 -0.11)">
       <use xlink:href="#ArialMT-30"/>
       <use x="55.615234" xlink:href="#ArialMT-2e"/>
       <use x="83.398438" xlink:href="#ArialMT-34"/>
      </g>
     </g>
    </g>
   </g>
   <g id="line2d_80">
    <path clip-path="url(#p411b7057aa)" d="M 634.763658 408.509294 
L 641.937265 408.509294 
L 649.110872 408.508631 
L 656.28448 408.515823 
L 663.458087 411.345175 
L 670.631694 398.564482 
L 677.805301 404.871366 
L 684.978909 402.970009 
L 692.152516 413.408496 
L 699.326123 409.457339 
L 706.499731 407.607693 
L 713.673338 403.781809 
L 720.846945 414.845826 
L 728.020553 408.560115 
L 735.19416 407.158701 
L 742.367767 407.607407 
L 749.541374 407.37749 
L 756.714982 408.158577 
L 763.888589 405.919558 
L 771.062196 409.153725 
L 778.235804 408.506853 
L 785.409411 408.840753 
L 792.583018 402.968412 
L 799.756626 414.242772 
L 806.930233 412.380403 
L 814.10384 405.485384 
L 821.277448 404.960622 
L 828.451055 403.590526 
L 835.624662 400.536464 
L 842.798269 388.728274 
" style="fill:none;stroke:#4c72b0;stroke-dasharray:9,3;stroke-dashoffset:0;stroke-width:1.5;"/>
   </g>
   <g id="line2d_81">
    <path clip-path="url(#p411b7057aa)" d="M 634.763658 408.509294 
L 641.937265 408.088327 
L 649.110872 406.934118 
L 656.28448 407.136545 
L 663.458087 411.277335 
L 670.631694 416.754594 
L 677.805301 403.694525 
L 684.978909 423.112733 
L 692.152516 409.044485 
L 699.326123 391.926419 
L 706.499731 421.861106 
L 713.673338 424.835286 
L 720.846945 412.371975 
L 728.020553 424.797549 
L 735.19416 408.282928 
L 742.367767 406.461369 
L 749.541374 512.677134 
L 756.714982 344.670284 
L 763.888589 501.428563 
L 771.062196 417.240131 
L 778.235804 438.706605 
L 785.409411 311.547171 
L 792.583018 340.871066 
L 799.756626 299.229194 
L 806.930233 308.756678 
L 814.10384 443.487242 
L 821.277448 416.760571 
L 828.451055 452.265558 
L 835.624662 491.750256 
L 842.798269 419.154993 
" style="fill:none;stroke:#dd8452;stroke-dasharray:12,7.5;stroke-dashoffset:0;stroke-width:1.5;"/>
   </g>
   <g id="line2d_82">
    <path clip-path="url(#p411b7057aa)" d="M 634.763658 408.509294 
L 641.937265 408.509294 
L 649.110872 408.480748 
L 656.28448 406.511906 
L 663.458087 412.853653 
L 670.631694 416.443841 
L 677.805301 409.461046 
L 684.978909 420.694514 
L 692.152516 406.002464 
L 699.326123 404.350541 
L 706.499731 408.698186 
L 713.673338 407.98178 
L 720.846945 411.417665 
L 728.020553 413.926281 
L 735.19416 410.430874 
L 742.367767 409.640645 
L 749.541374 408.361356 
L 756.714982 408.008538 
L 763.888589 402.144884 
L 771.062196 413.027805 
L 778.235804 407.806767 
L 785.409411 413.627847 
L 792.583018 407.355851 
L 799.756626 401.734059 
L 806.930233 410.775719 
L 814.10384 411.935724 
L 821.277448 415.608386 
L 828.451055 416.15501 
L 835.624662 416.674887 
L 842.798269 402.21626 
" style="fill:none;stroke:#55a868;stroke-dasharray:1.5,0;stroke-dashoffset:0;stroke-width:1.5;"/>
   </g>
   <g id="patch_28">
    <path d="M 624.361927 523.349531 
L 624.361927 288.556797 
" style="fill:none;stroke:#ffffff;stroke-linecap:square;stroke-linejoin:miter;stroke-width:1.25;"/>
   </g>
   <g id="patch_29">
    <path d="M 853.2 523.349531 
L 853.2 288.556797 
" style="fill:none;stroke:#ffffff;stroke-linecap:square;stroke-linejoin:miter;stroke-width:1.25;"/>
   </g>
   <g id="patch_30">
    <path d="M 624.361927 523.349531 
L 853.2 523.349531 
" style="fill:none;stroke:#ffffff;stroke-linecap:square;stroke-linejoin:miter;stroke-width:1.25;"/>
   </g>
   <g id="patch_31">
    <path d="M 624.361927 288.556797 
L 853.2 288.556797 
" style="fill:none;stroke:#ffffff;stroke-linecap:square;stroke-linejoin:miter;stroke-width:1.25;"/>
   </g>
  </g>
 </g>
 <defs>
  <clipPath id="pff56851626">
   <rect height="234.792734" width="228.838073" x="70.422344" y="21.6"/>
  </clipPath>
  <clipPath id="p8353851b12">
   <rect height="234.792734" width="228.838073" x="347.392135" y="21.6"/>
  </clipPath>
  <clipPath id="p8aeaa3ec65">
   <rect height="234.792734" width="228.838073" x="624.361927" y="21.6"/>
  </clipPath>
  <clipPath id="p11a681b203">
   <rect height="234.792734" width="228.838073" x="70.422344" y="288.556797"/>
  </clipPath>
  <clipPath id="pebb806315b">
   <rect height="234.792734" width="228.838073" x="347.392135" y="288.556797"/>
  </clipPath>
  <clipPath id="p411b7057aa">
   <rect height="234.792734" width="228.838073" x="624.361927" y="288.556797"/>
  </clipPath>
 </defs>
</svg>
