<?xml version="1.0" encoding="utf-8" standalone="no"?>
<!DOCTYPE svg PUBLIC "-//W3C//DTD SVG 1.1//EN"
  "http://www.w3.org/Graphics/SVG/1.1/DTD/svg11.dtd">
<svg height="576pt" version="1.1" viewBox="0 0 864 576" width="864pt" xmlns="http://www.w3.org/2000/svg" xmlns:xlink="http://www.w3.org/1999/xlink">
 <metadata>
  <rdf:RDF xmlns:cc="http://creativecommons.org/ns#" xmlns:dc="http://purl.org/dc/elements/1.1/" xmlns:rdf="http://www.w3.org/1999/02/22-rdf-syntax-ns#">
   <cc:Work>
    <dc:type rdf:resource="http://purl.org/dc/dcmitype/StillImage"/>
    <dc:date>2021-10-22T13:41:13.499788</dc:date>
    <dc:format>image/svg+xml</dc:format>
    <dc:creator>
     <cc:Agent>
      <dc:title>Matplotlib v3.4.2, https://matplotlib.org/</dc:title>
     </cc:Agent>
    </dc:creator>
   </cc:Work>
  </rdf:RDF>
 </metadata>
 <defs>
  <style type="text/css">*{stroke-linecap:butt;stroke-linejoin:round;}</style>
 </defs>
 <g id="figure_1">
  <g id="patch_1">
   <path d="M 0 576 
L 864 576 
L 864 0 
L 0 0 
z
" style="fill:none;"/>
  </g>
  <g id="axes_1">
   <g id="patch_2">
    <path d="M 61.535 264.675927 
L 297.39 264.675927 
L 297.39 42.6 
L 61.535 42.6 
z
" style="fill:#eaeaf2;"/>
   </g>
   <g id="matplotlib.axis_1">
    <g id="xtick_1">
     <g id="line2d_1">
      <path clip-path="url(#pee90db5b2e)" d="M 72.255682 264.675927 
L 72.255682 42.6 
" style="fill:none;stroke:#ffffff;stroke-linecap:round;"/>
     </g>
     <g id="text_1">
      <!-- 0 -->
      <g style="fill:#262626;" transform="translate(69.197166 282.049521)scale(0.11 -0.11)">
       <defs>
        <path d="M 266 2259 
Q 266 3072 433 3567 
Q 600 4063 929 4331 
Q 1259 4600 1759 4600 
Q 2128 4600 2406 4451 
Q 2684 4303 2865 4023 
Q 3047 3744 3150 3342 
Q 3253 2941 3253 2259 
Q 3253 1453 3087 958 
Q 2922 463 2592 192 
Q 2263 -78 1759 -78 
Q 1097 -78 719 397 
Q 266 969 266 2259 
z
M 844 2259 
Q 844 1131 1108 757 
Q 1372 384 1759 384 
Q 2147 384 2411 759 
Q 2675 1134 2675 2259 
Q 2675 3391 2411 3762 
Q 2147 4134 1753 4134 
Q 1366 4134 1134 3806 
Q 844 3388 844 2259 
z
" id="ArialMT-30" transform="scale(0.015625)"/>
       </defs>
       <use xlink:href="#ArialMT-30"/>
      </g>
     </g>
    </g>
    <g id="xtick_2">
     <g id="line2d_2">
      <path clip-path="url(#pee90db5b2e)" d="M 123.17892 264.675927 
L 123.17892 42.6 
" style="fill:none;stroke:#ffffff;stroke-linecap:round;"/>
     </g>
     <g id="text_2">
      <!-- 2 -->
      <g style="fill:#262626;" transform="translate(120.120405 282.049521)scale(0.11 -0.11)">
       <defs>
        <path d="M 3222 541 
L 3222 0 
L 194 0 
Q 188 203 259 391 
Q 375 700 629 1000 
Q 884 1300 1366 1694 
Q 2113 2306 2375 2664 
Q 2638 3022 2638 3341 
Q 2638 3675 2398 3904 
Q 2159 4134 1775 4134 
Q 1369 4134 1125 3890 
Q 881 3647 878 3216 
L 300 3275 
Q 359 3922 746 4261 
Q 1134 4600 1788 4600 
Q 2447 4600 2831 4234 
Q 3216 3869 3216 3328 
Q 3216 3053 3103 2787 
Q 2991 2522 2730 2228 
Q 2469 1934 1863 1422 
Q 1356 997 1212 845 
Q 1069 694 975 541 
L 3222 541 
z
" id="ArialMT-32" transform="scale(0.015625)"/>
       </defs>
       <use xlink:href="#ArialMT-32"/>
      </g>
     </g>
    </g>
    <g id="xtick_3">
     <g id="line2d_3">
      <path clip-path="url(#pee90db5b2e)" d="M 174.102159 264.675927 
L 174.102159 42.6 
" style="fill:none;stroke:#ffffff;stroke-linecap:round;"/>
     </g>
     <g id="text_3">
      <!-- 4 -->
      <g style="fill:#262626;" transform="translate(171.043643 282.049521)scale(0.11 -0.11)">
       <defs>
        <path d="M 2069 0 
L 2069 1097 
L 81 1097 
L 81 1613 
L 2172 4581 
L 2631 4581 
L 2631 1613 
L 3250 1613 
L 3250 1097 
L 2631 1097 
L 2631 0 
L 2069 0 
z
M 2069 1613 
L 2069 3678 
L 634 1613 
L 2069 1613 
z
" id="ArialMT-34" transform="scale(0.015625)"/>
       </defs>
       <use xlink:href="#ArialMT-34"/>
      </g>
     </g>
    </g>
    <g id="xtick_4">
     <g id="line2d_4">
      <path clip-path="url(#pee90db5b2e)" d="M 225.025398 264.675927 
L 225.025398 42.6 
" style="fill:none;stroke:#ffffff;stroke-linecap:round;"/>
     </g>
     <g id="text_4">
      <!-- 6 -->
      <g style="fill:#262626;" transform="translate(221.966882 282.049521)scale(0.11 -0.11)">
       <defs>
        <path d="M 3184 3459 
L 2625 3416 
Q 2550 3747 2413 3897 
Q 2184 4138 1850 4138 
Q 1581 4138 1378 3988 
Q 1113 3794 959 3422 
Q 806 3050 800 2363 
Q 1003 2672 1297 2822 
Q 1591 2972 1913 2972 
Q 2475 2972 2870 2558 
Q 3266 2144 3266 1488 
Q 3266 1056 3080 686 
Q 2894 316 2569 119 
Q 2244 -78 1831 -78 
Q 1128 -78 684 439 
Q 241 956 241 2144 
Q 241 3472 731 4075 
Q 1159 4600 1884 4600 
Q 2425 4600 2770 4297 
Q 3116 3994 3184 3459 
z
M 888 1484 
Q 888 1194 1011 928 
Q 1134 663 1356 523 
Q 1578 384 1822 384 
Q 2178 384 2434 671 
Q 2691 959 2691 1453 
Q 2691 1928 2437 2201 
Q 2184 2475 1800 2475 
Q 1419 2475 1153 2201 
Q 888 1928 888 1484 
z
" id="ArialMT-36" transform="scale(0.015625)"/>
       </defs>
       <use xlink:href="#ArialMT-36"/>
      </g>
     </g>
    </g>
    <g id="xtick_5">
     <g id="line2d_5">
      <path clip-path="url(#pee90db5b2e)" d="M 275.948636 264.675927 
L 275.948636 42.6 
" style="fill:none;stroke:#ffffff;stroke-linecap:round;"/>
     </g>
     <g id="text_5">
      <!-- 8 -->
      <g style="fill:#262626;" transform="translate(272.890121 282.049521)scale(0.11 -0.11)">
       <defs>
        <path d="M 1131 2484 
Q 781 2613 612 2850 
Q 444 3088 444 3419 
Q 444 3919 803 4259 
Q 1163 4600 1759 4600 
Q 2359 4600 2725 4251 
Q 3091 3903 3091 3403 
Q 3091 3084 2923 2848 
Q 2756 2613 2416 2484 
Q 2838 2347 3058 2040 
Q 3278 1734 3278 1309 
Q 3278 722 2862 322 
Q 2447 -78 1769 -78 
Q 1091 -78 675 323 
Q 259 725 259 1325 
Q 259 1772 486 2073 
Q 713 2375 1131 2484 
z
M 1019 3438 
Q 1019 3113 1228 2906 
Q 1438 2700 1772 2700 
Q 2097 2700 2305 2904 
Q 2513 3109 2513 3406 
Q 2513 3716 2298 3927 
Q 2084 4138 1766 4138 
Q 1444 4138 1231 3931 
Q 1019 3725 1019 3438 
z
M 838 1322 
Q 838 1081 952 856 
Q 1066 631 1291 507 
Q 1516 384 1775 384 
Q 2178 384 2440 643 
Q 2703 903 2703 1303 
Q 2703 1709 2433 1975 
Q 2163 2241 1756 2241 
Q 1359 2241 1098 1978 
Q 838 1716 838 1322 
z
" id="ArialMT-38" transform="scale(0.015625)"/>
       </defs>
       <use xlink:href="#ArialMT-38"/>
      </g>
     </g>
    </g>
   </g>
   <g id="matplotlib.axis_2">
    <g id="ytick_1">
     <g id="line2d_6">
      <path clip-path="url(#pee90db5b2e)" d="M 61.535 234.579533 
L 297.39 234.579533 
" style="fill:none;stroke:#ffffff;stroke-linecap:round;"/>
     </g>
     <g id="text_6">
      <!-- −4 -->
      <g style="fill:#262626;" transform="translate(39.493281 238.51633)scale(0.11 -0.11)">
       <defs>
        <path d="M 3381 1997 
L 356 1997 
L 356 2522 
L 3381 2522 
L 3381 1997 
z
" id="ArialMT-2212" transform="scale(0.015625)"/>
       </defs>
       <use xlink:href="#ArialMT-2212"/>
       <use x="58.398438" xlink:href="#ArialMT-34"/>
      </g>
     </g>
    </g>
    <g id="ytick_2">
     <g id="line2d_7">
      <path clip-path="url(#pee90db5b2e)" d="M 61.535 203.974783 
L 297.39 203.974783 
" style="fill:none;stroke:#ffffff;stroke-linecap:round;"/>
     </g>
     <g id="text_7">
      <!-- −3 -->
      <g style="fill:#262626;" transform="translate(39.493281 207.91158)scale(0.11 -0.11)">
       <defs>
        <path d="M 269 1209 
L 831 1284 
Q 928 806 1161 595 
Q 1394 384 1728 384 
Q 2125 384 2398 659 
Q 2672 934 2672 1341 
Q 2672 1728 2419 1979 
Q 2166 2231 1775 2231 
Q 1616 2231 1378 2169 
L 1441 2663 
Q 1497 2656 1531 2656 
Q 1891 2656 2178 2843 
Q 2466 3031 2466 3422 
Q 2466 3731 2256 3934 
Q 2047 4138 1716 4138 
Q 1388 4138 1169 3931 
Q 950 3725 888 3313 
L 325 3413 
Q 428 3978 793 4289 
Q 1159 4600 1703 4600 
Q 2078 4600 2393 4439 
Q 2709 4278 2876 4000 
Q 3044 3722 3044 3409 
Q 3044 3113 2884 2869 
Q 2725 2625 2413 2481 
Q 2819 2388 3044 2092 
Q 3269 1797 3269 1353 
Q 3269 753 2831 336 
Q 2394 -81 1725 -81 
Q 1122 -81 723 278 
Q 325 638 269 1209 
z
" id="ArialMT-33" transform="scale(0.015625)"/>
       </defs>
       <use xlink:href="#ArialMT-2212"/>
       <use x="58.398438" xlink:href="#ArialMT-33"/>
      </g>
     </g>
    </g>
    <g id="ytick_3">
     <g id="line2d_8">
      <path clip-path="url(#pee90db5b2e)" d="M 61.535 173.370033 
L 297.39 173.370033 
" style="fill:none;stroke:#ffffff;stroke-linecap:round;"/>
     </g>
     <g id="text_8">
      <!-- −2 -->
      <g style="fill:#262626;" transform="translate(39.493281 177.30683)scale(0.11 -0.11)">
       <use xlink:href="#ArialMT-2212"/>
       <use x="58.398438" xlink:href="#ArialMT-32"/>
      </g>
     </g>
    </g>
    <g id="ytick_4">
     <g id="line2d_9">
      <path clip-path="url(#pee90db5b2e)" d="M 61.535 142.765283 
L 297.39 142.765283 
" style="fill:none;stroke:#ffffff;stroke-linecap:round;"/>
     </g>
     <g id="text_9">
      <!-- −1 -->
      <g style="fill:#262626;" transform="translate(39.493281 146.702079)scale(0.11 -0.11)">
       <defs>
        <path d="M 2384 0 
L 1822 0 
L 1822 3584 
Q 1619 3391 1289 3197 
Q 959 3003 697 2906 
L 697 3450 
Q 1169 3672 1522 3987 
Q 1875 4303 2022 4600 
L 2384 4600 
L 2384 0 
z
" id="ArialMT-31" transform="scale(0.015625)"/>
       </defs>
       <use xlink:href="#ArialMT-2212"/>
       <use x="58.398438" xlink:href="#ArialMT-31"/>
      </g>
     </g>
    </g>
    <g id="ytick_5">
     <g id="line2d_10">
      <path clip-path="url(#pee90db5b2e)" d="M 61.535 112.160532 
L 297.39 112.160532 
" style="fill:none;stroke:#ffffff;stroke-linecap:round;"/>
     </g>
     <g id="text_10">
      <!-- 0 -->
      <g style="fill:#262626;" transform="translate(45.917969 116.097329)scale(0.11 -0.11)">
       <use xlink:href="#ArialMT-30"/>
      </g>
     </g>
    </g>
    <g id="ytick_6">
     <g id="line2d_11">
      <path clip-path="url(#pee90db5b2e)" d="M 61.535 81.555782 
L 297.39 81.555782 
" style="fill:none;stroke:#ffffff;stroke-linecap:round;"/>
     </g>
     <g id="text_11">
      <!-- 1 -->
      <g style="fill:#262626;" transform="translate(45.917969 85.492579)scale(0.11 -0.11)">
       <use xlink:href="#ArialMT-31"/>
      </g>
     </g>
    </g>
    <g id="ytick_7">
     <g id="line2d_12">
      <path clip-path="url(#pee90db5b2e)" d="M 61.535 50.951032 
L 297.39 50.951032 
" style="fill:none;stroke:#ffffff;stroke-linecap:round;"/>
     </g>
     <g id="text_12">
      <!-- 2 -->
      <g style="fill:#262626;" transform="translate(45.917969 54.887829)scale(0.11 -0.11)">
       <use xlink:href="#ArialMT-32"/>
      </g>
     </g>
    </g>
    <g id="text_13">
     <!-- $\log_{10}(|\Phi _{x_t}(x)|)$ -->
     <g style="fill:#262626;" transform="translate(29.893281 220.937964)rotate(-90)scale(0.2 -0.2)">
      <defs>
       <path d="M 603 4863 
L 1178 4863 
L 1178 0 
L 603 0 
L 603 4863 
z
" id="DejaVuSans-6c" transform="scale(0.015625)"/>
       <path d="M 1959 3097 
Q 1497 3097 1228 2736 
Q 959 2375 959 1747 
Q 959 1119 1226 758 
Q 1494 397 1959 397 
Q 2419 397 2687 759 
Q 2956 1122 2956 1747 
Q 2956 2369 2687 2733 
Q 2419 3097 1959 3097 
z
M 1959 3584 
Q 2709 3584 3137 3096 
Q 3566 2609 3566 1747 
Q 3566 888 3137 398 
Q 2709 -91 1959 -91 
Q 1206 -91 779 398 
Q 353 888 353 1747 
Q 353 2609 779 3096 
Q 1206 3584 1959 3584 
z
" id="DejaVuSans-6f" transform="scale(0.015625)"/>
       <path d="M 2906 1791 
Q 2906 2416 2648 2759 
Q 2391 3103 1925 3103 
Q 1463 3103 1205 2759 
Q 947 2416 947 1791 
Q 947 1169 1205 825 
Q 1463 481 1925 481 
Q 2391 481 2648 825 
Q 2906 1169 2906 1791 
z
M 3481 434 
Q 3481 -459 3084 -895 
Q 2688 -1331 1869 -1331 
Q 1566 -1331 1297 -1286 
Q 1028 -1241 775 -1147 
L 775 -588 
Q 1028 -725 1275 -790 
Q 1522 -856 1778 -856 
Q 2344 -856 2625 -561 
Q 2906 -266 2906 331 
L 2906 616 
Q 2728 306 2450 153 
Q 2172 0 1784 0 
Q 1141 0 747 490 
Q 353 981 353 1791 
Q 353 2603 747 3093 
Q 1141 3584 1784 3584 
Q 2172 3584 2450 3431 
Q 2728 3278 2906 2969 
L 2906 3500 
L 3481 3500 
L 3481 434 
z
" id="DejaVuSans-67" transform="scale(0.015625)"/>
       <path d="M 794 531 
L 1825 531 
L 1825 4091 
L 703 3866 
L 703 4441 
L 1819 4666 
L 2450 4666 
L 2450 531 
L 3481 531 
L 3481 0 
L 794 0 
L 794 531 
z
" id="DejaVuSans-31" transform="scale(0.015625)"/>
       <path d="M 2034 4250 
Q 1547 4250 1301 3770 
Q 1056 3291 1056 2328 
Q 1056 1369 1301 889 
Q 1547 409 2034 409 
Q 2525 409 2770 889 
Q 3016 1369 3016 2328 
Q 3016 3291 2770 3770 
Q 2525 4250 2034 4250 
z
M 2034 4750 
Q 2819 4750 3233 4129 
Q 3647 3509 3647 2328 
Q 3647 1150 3233 529 
Q 2819 -91 2034 -91 
Q 1250 -91 836 529 
Q 422 1150 422 2328 
Q 422 3509 836 4129 
Q 1250 4750 2034 4750 
z
" id="DejaVuSans-30" transform="scale(0.015625)"/>
       <path d="M 1984 4856 
Q 1566 4138 1362 3434 
Q 1159 2731 1159 2009 
Q 1159 1288 1364 580 
Q 1569 -128 1984 -844 
L 1484 -844 
Q 1016 -109 783 600 
Q 550 1309 550 2009 
Q 550 2706 781 3412 
Q 1013 4119 1484 4856 
L 1984 4856 
z
" id="DejaVuSans-28" transform="scale(0.015625)"/>
       <path d="M 1344 4891 
L 1344 -1509 
L 813 -1509 
L 813 4891 
L 1344 4891 
z
" id="DejaVuSans-7c" transform="scale(0.015625)"/>
       <path d="M 2206 3644 
Q 1738 3578 1431 3306 
Q 1025 2947 1025 2328 
Q 1025 1713 1431 1353 
Q 1738 1081 2206 1016 
L 2206 3644 
z
M 2838 1016 
Q 3306 1081 3613 1353 
Q 4013 1713 4013 2328 
Q 4013 2947 3613 3306 
Q 3306 3578 2838 3644 
L 2838 1016 
z
M 2206 494 
Q 1444 563 950 981 
Q 359 1481 359 2328 
Q 359 3175 950 3678 
Q 1441 4100 2206 4169 
L 2206 4666 
L 2838 4666 
L 2838 4169 
Q 3600 4097 4091 3678 
Q 4678 3175 4678 2328 
Q 4678 1484 4091 981 
Q 3600 563 2838 491 
L 2838 0 
L 2206 0 
L 2206 494 
z
" id="DejaVuSans-3a6" transform="scale(0.015625)"/>
       <path d="M 3841 3500 
L 2234 1784 
L 3219 0 
L 2559 0 
L 1819 1388 
L 531 0 
L -166 0 
L 1556 1844 
L 641 3500 
L 1300 3500 
L 1972 2234 
L 3144 3500 
L 3841 3500 
z
" id="DejaVuSans-Oblique-78" transform="scale(0.015625)"/>
       <path d="M 2706 3500 
L 2619 3053 
L 1472 3053 
L 1100 1153 
Q 1081 1047 1072 975 
Q 1063 903 1063 863 
Q 1063 663 1183 572 
Q 1303 481 1569 481 
L 2150 481 
L 2053 0 
L 1503 0 
Q 991 0 739 200 
Q 488 400 488 806 
Q 488 878 497 964 
Q 506 1050 525 1153 
L 897 3053 
L 409 3053 
L 500 3500 
L 978 3500 
L 1172 4494 
L 1747 4494 
L 1556 3500 
L 2706 3500 
z
" id="DejaVuSans-Oblique-74" transform="scale(0.015625)"/>
       <path d="M 513 4856 
L 1013 4856 
Q 1481 4119 1714 3412 
Q 1947 2706 1947 2009 
Q 1947 1309 1714 600 
Q 1481 -109 1013 -844 
L 513 -844 
Q 928 -128 1133 580 
Q 1338 1288 1338 2009 
Q 1338 2731 1133 3434 
Q 928 4138 513 4856 
z
" id="DejaVuSans-29" transform="scale(0.015625)"/>
      </defs>
      <use transform="translate(0 0.578125)" xlink:href="#DejaVuSans-6c"/>
      <use transform="translate(27.783203 0.578125)" xlink:href="#DejaVuSans-6f"/>
      <use transform="translate(88.964844 0.578125)" xlink:href="#DejaVuSans-67"/>
      <use transform="translate(153.398438 -15.828125)scale(0.7)" xlink:href="#DejaVuSans-31"/>
      <use transform="translate(197.93457 -15.828125)scale(0.7)" xlink:href="#DejaVuSans-30"/>
      <use transform="translate(245.205078 0.578125)" xlink:href="#DejaVuSans-28"/>
      <use transform="translate(284.21875 0.578125)" xlink:href="#DejaVuSans-7c"/>
      <use transform="translate(317.910156 0.578125)" xlink:href="#DejaVuSans-3a6"/>
      <use transform="translate(397.578125 -15.828125)scale(0.7)" xlink:href="#DejaVuSans-Oblique-78"/>
      <use transform="translate(439.003906 -27.3125)scale(0.49)" xlink:href="#DejaVuSans-Oblique-74"/>
      <use transform="translate(462.864746 0.578125)" xlink:href="#DejaVuSans-28"/>
      <use transform="translate(501.878418 0.578125)" xlink:href="#DejaVuSans-Oblique-78"/>
      <use transform="translate(561.058105 0.578125)" xlink:href="#DejaVuSans-29"/>
      <use transform="translate(600.071777 0.578125)" xlink:href="#DejaVuSans-7c"/>
      <use transform="translate(633.763184 0.578125)" xlink:href="#DejaVuSans-29"/>
     </g>
    </g>
   </g>
   <g id="line2d_13">
    <path clip-path="url(#pee90db5b2e)" d="M 72.255682 102.229952 
L 85.656534 77.162158 
L 99.057386 191.027858 
L 112.458239 185.773885 
L 125.859091 187.026809 
L 139.259943 253.132204 
L 152.660795 253.131275 
L 166.061648 253.131752 
L 179.4625 253.146657 
L 192.863352 252.898432 
L 206.264205 254.581567 
L 219.665057 239.97939 
L 233.065909 233.189764 
L 246.466761 181.193212 
L 259.867614 157.378087 
L 273.268466 126.773337 
L 286.669318 110.770764 
" style="fill:none;stroke:#4c72b0;stroke-dasharray:9,3;stroke-dashoffset:0;stroke-width:1.5;"/>
   </g>
   <g id="line2d_14">
    <path clip-path="url(#pee90db5b2e)" d="M 72.255682 95.578421 
L 85.656534 76.234072 
L 99.057386 88.40518 
L 112.458239 89.591712 
L 125.859091 91.059585 
L 139.259943 99.273648 
L 152.660795 88.777031 
L 166.061648 88.777031 
L 179.4625 88.777029 
L 192.863352 88.777023 
L 206.264205 88.776511 
L 219.665057 88.780081 
L 233.065909 88.740345 
L 246.466761 88.763421 
L 259.867614 89.115755 
L 273.268466 63.477025 
L 286.669318 52.69436 
" style="fill:none;stroke:#dd8452;stroke-dasharray:12,7.5;stroke-dashoffset:0;stroke-width:1.5;"/>
   </g>
   <g id="line2d_15">
    <path clip-path="url(#pee90db5b2e)" d="M 72.255682 102.684325 
L 85.656534 153.705443 
L 99.057386 146.728894 
L 112.458239 144.763145 
L 125.859091 146.64011 
L 139.259943 146.630811 
L 152.660795 146.630717 
L 166.061648 146.630717 
L 179.4625 146.630734 
L 192.863352 146.630442 
L 206.264205 146.629593 
L 219.665057 146.63512 
L 233.065909 146.560305 
L 246.466761 146.501537 
M 273.268466 122.949618 
L 286.669318 73.113182 
" style="fill:none;stroke:#55a868;stroke-dasharray:1.5,0;stroke-dashoffset:0;stroke-width:1.5;"/>
   </g>
   <g id="patch_3">
    <path d="M 61.535 264.675927 
L 61.535 42.6 
" style="fill:none;stroke:#ffffff;stroke-linecap:square;stroke-linejoin:miter;stroke-width:1.25;"/>
   </g>
   <g id="patch_4">
    <path d="M 297.39 264.675927 
L 297.39 42.6 
" style="fill:none;stroke:#ffffff;stroke-linecap:square;stroke-linejoin:miter;stroke-width:1.25;"/>
   </g>
   <g id="patch_5">
    <path d="M 61.535 264.675927 
L 297.39 264.675927 
" style="fill:none;stroke:#ffffff;stroke-linecap:square;stroke-linejoin:miter;stroke-width:1.25;"/>
   </g>
   <g id="patch_6">
    <path d="M 61.535 42.6 
L 297.39 42.6 
" style="fill:none;stroke:#ffffff;stroke-linecap:square;stroke-linejoin:miter;stroke-width:1.25;"/>
   </g>
   <g id="text_14">
    <!-- $x_0$ -->
    <g style="fill:#262626;" transform="translate(168.7625 36.6)scale(0.2 -0.2)">
     <use transform="translate(0 0.3125)" xlink:href="#DejaVuSans-Oblique-78"/>
     <use transform="translate(59.179688 -16.09375)scale(0.7)" xlink:href="#DejaVuSans-30"/>
    </g>
   </g>
  </g>
  <g id="axes_2">
   <g id="patch_7">
    <path d="M 339.44 264.675927 
L 575.295 264.675927 
L 575.295 42.6 
L 339.44 42.6 
z
" style="fill:#eaeaf2;"/>
   </g>
   <g id="matplotlib.axis_3">
    <g id="xtick_6">
     <g id="line2d_16">
      <path clip-path="url(#p9318c29971)" d="M 350.160682 264.675927 
L 350.160682 42.6 
" style="fill:none;stroke:#ffffff;stroke-linecap:round;"/>
     </g>
     <g id="text_15">
      <!-- 0 -->
      <g style="fill:#262626;" transform="translate(347.102166 282.049521)scale(0.11 -0.11)">
       <use xlink:href="#ArialMT-30"/>
      </g>
     </g>
    </g>
    <g id="xtick_7">
     <g id="line2d_17">
      <path clip-path="url(#p9318c29971)" d="M 401.08392 264.675927 
L 401.08392 42.6 
" style="fill:none;stroke:#ffffff;stroke-linecap:round;"/>
     </g>
     <g id="text_16">
      <!-- 2 -->
      <g style="fill:#262626;" transform="translate(398.025405 282.049521)scale(0.11 -0.11)">
       <use xlink:href="#ArialMT-32"/>
      </g>
     </g>
    </g>
    <g id="xtick_8">
     <g id="line2d_18">
      <path clip-path="url(#p9318c29971)" d="M 452.007159 264.675927 
L 452.007159 42.6 
" style="fill:none;stroke:#ffffff;stroke-linecap:round;"/>
     </g>
     <g id="text_17">
      <!-- 4 -->
      <g style="fill:#262626;" transform="translate(448.948643 282.049521)scale(0.11 -0.11)">
       <use xlink:href="#ArialMT-34"/>
      </g>
     </g>
    </g>
    <g id="xtick_9">
     <g id="line2d_19">
      <path clip-path="url(#p9318c29971)" d="M 502.930398 264.675927 
L 502.930398 42.6 
" style="fill:none;stroke:#ffffff;stroke-linecap:round;"/>
     </g>
     <g id="text_18">
      <!-- 6 -->
      <g style="fill:#262626;" transform="translate(499.871882 282.049521)scale(0.11 -0.11)">
       <use xlink:href="#ArialMT-36"/>
      </g>
     </g>
    </g>
    <g id="xtick_10">
     <g id="line2d_20">
      <path clip-path="url(#p9318c29971)" d="M 553.853636 264.675927 
L 553.853636 42.6 
" style="fill:none;stroke:#ffffff;stroke-linecap:round;"/>
     </g>
     <g id="text_19">
      <!-- 8 -->
      <g style="fill:#262626;" transform="translate(550.795121 282.049521)scale(0.11 -0.11)">
       <use xlink:href="#ArialMT-38"/>
      </g>
     </g>
    </g>
   </g>
   <g id="matplotlib.axis_4">
    <g id="ytick_8">
     <g id="line2d_21">
      <path clip-path="url(#p9318c29971)" d="M 339.44 251.49455 
L 575.295 251.49455 
" style="fill:none;stroke:#ffffff;stroke-linecap:round;"/>
     </g>
     <g id="text_20">
      <!-- −5 -->
      <g style="fill:#262626;" transform="translate(317.398281 255.431347)scale(0.11 -0.11)">
       <defs>
        <path d="M 266 1200 
L 856 1250 
Q 922 819 1161 601 
Q 1400 384 1738 384 
Q 2144 384 2425 690 
Q 2706 997 2706 1503 
Q 2706 1984 2436 2262 
Q 2166 2541 1728 2541 
Q 1456 2541 1237 2417 
Q 1019 2294 894 2097 
L 366 2166 
L 809 4519 
L 3088 4519 
L 3088 3981 
L 1259 3981 
L 1013 2750 
Q 1425 3038 1878 3038 
Q 2478 3038 2890 2622 
Q 3303 2206 3303 1553 
Q 3303 931 2941 478 
Q 2500 -78 1738 -78 
Q 1113 -78 717 272 
Q 322 622 266 1200 
z
" id="ArialMT-35" transform="scale(0.015625)"/>
       </defs>
       <use xlink:href="#ArialMT-2212"/>
       <use x="58.398438" xlink:href="#ArialMT-35"/>
      </g>
     </g>
    </g>
    <g id="ytick_9">
     <g id="line2d_22">
      <path clip-path="url(#p9318c29971)" d="M 339.44 223.277572 
L 575.295 223.277572 
" style="fill:none;stroke:#ffffff;stroke-linecap:round;"/>
     </g>
     <g id="text_21">
      <!-- −4 -->
      <g style="fill:#262626;" transform="translate(317.398281 227.214369)scale(0.11 -0.11)">
       <use xlink:href="#ArialMT-2212"/>
       <use x="58.398438" xlink:href="#ArialMT-34"/>
      </g>
     </g>
    </g>
    <g id="ytick_10">
     <g id="line2d_23">
      <path clip-path="url(#p9318c29971)" d="M 339.44 195.060593 
L 575.295 195.060593 
" style="fill:none;stroke:#ffffff;stroke-linecap:round;"/>
     </g>
     <g id="text_22">
      <!-- −3 -->
      <g style="fill:#262626;" transform="translate(317.398281 198.99739)scale(0.11 -0.11)">
       <use xlink:href="#ArialMT-2212"/>
       <use x="58.398438" xlink:href="#ArialMT-33"/>
      </g>
     </g>
    </g>
    <g id="ytick_11">
     <g id="line2d_24">
      <path clip-path="url(#p9318c29971)" d="M 339.44 166.843614 
L 575.295 166.843614 
" style="fill:none;stroke:#ffffff;stroke-linecap:round;"/>
     </g>
     <g id="text_23">
      <!-- −2 -->
      <g style="fill:#262626;" transform="translate(317.398281 170.780411)scale(0.11 -0.11)">
       <use xlink:href="#ArialMT-2212"/>
       <use x="58.398438" xlink:href="#ArialMT-32"/>
      </g>
     </g>
    </g>
    <g id="ytick_12">
     <g id="line2d_25">
      <path clip-path="url(#p9318c29971)" d="M 339.44 138.626636 
L 575.295 138.626636 
" style="fill:none;stroke:#ffffff;stroke-linecap:round;"/>
     </g>
     <g id="text_24">
      <!-- −1 -->
      <g style="fill:#262626;" transform="translate(317.398281 142.563433)scale(0.11 -0.11)">
       <use xlink:href="#ArialMT-2212"/>
       <use x="58.398438" xlink:href="#ArialMT-31"/>
      </g>
     </g>
    </g>
    <g id="ytick_13">
     <g id="line2d_26">
      <path clip-path="url(#p9318c29971)" d="M 339.44 110.409657 
L 575.295 110.409657 
" style="fill:none;stroke:#ffffff;stroke-linecap:round;"/>
     </g>
     <g id="text_25">
      <!-- 0 -->
      <g style="fill:#262626;" transform="translate(323.822969 114.346454)scale(0.11 -0.11)">
       <use xlink:href="#ArialMT-30"/>
      </g>
     </g>
    </g>
    <g id="ytick_14">
     <g id="line2d_27">
      <path clip-path="url(#p9318c29971)" d="M 339.44 82.192678 
L 575.295 82.192678 
" style="fill:none;stroke:#ffffff;stroke-linecap:round;"/>
     </g>
     <g id="text_26">
      <!-- 1 -->
      <g style="fill:#262626;" transform="translate(323.822969 86.129475)scale(0.11 -0.11)">
       <use xlink:href="#ArialMT-31"/>
      </g>
     </g>
    </g>
    <g id="ytick_15">
     <g id="line2d_28">
      <path clip-path="url(#p9318c29971)" d="M 339.44 53.9757 
L 575.295 53.9757 
" style="fill:none;stroke:#ffffff;stroke-linecap:round;"/>
     </g>
     <g id="text_27">
      <!-- 2 -->
      <g style="fill:#262626;" transform="translate(323.822969 57.912497)scale(0.11 -0.11)">
       <use xlink:href="#ArialMT-32"/>
      </g>
     </g>
    </g>
   </g>
   <g id="line2d_29">
    <path clip-path="url(#p9318c29971)" d="M 350.160682 254.581567 
L 363.561534 219.885768 
L 376.962386 182.13997 
L 390.363239 164.55223 
L 403.764091 232.385308 
L 417.164943 232.384955 
L 430.565795 232.384814 
L 443.966648 232.385472 
L 457.3675 232.398639 
L 470.768352 232.568783 
L 484.169205 230.490389 
M 524.371761 185.285097 
L 537.772614 148.573961 
L 551.173466 117.622475 
L 564.574318 92.140004 
" style="fill:none;stroke:#4c72b0;stroke-dasharray:9,3;stroke-dashoffset:0;stroke-width:1.5;"/>
   </g>
   <g id="line2d_30">
    <path clip-path="url(#p9318c29971)" d="M 350.160682 108.028535 
L 363.561534 116.091642 
L 376.962386 121.212048 
L 390.363239 123.035812 
L 403.764091 120.301185 
L 417.164943 120.301198 
L 430.565795 120.301198 
L 443.966648 120.301204 
L 457.3675 120.301192 
L 470.768352 120.300622 
L 484.169205 120.300131 
L 497.570057 120.332498 
L 510.970909 120.054387 
L 524.371761 124.340152 
L 537.772614 107.84944 
L 551.173466 94.131588 
L 564.574318 52.69436 
" style="fill:none;stroke:#dd8452;stroke-dasharray:12,7.5;stroke-dashoffset:0;stroke-width:1.5;"/>
   </g>
   <g id="line2d_31">
    <path clip-path="url(#p9318c29971)" d="M 350.160682 106.140175 
L 363.561534 166.29279 
L 376.962386 169.261502 
L 390.363239 226.145161 
L 403.764091 170.265636 
L 417.164943 170.264962 
L 430.565795 170.264954 
L 443.966648 170.264939 
L 457.3675 170.2648 
L 470.768352 170.266041 
L 484.169205 170.277559 
L 497.570057 170.038631 
L 510.970909 170.109467 
L 524.371761 153.852981 
L 537.772614 143.605198 
L 551.173466 102.625745 
L 564.574318 95.665397 
" style="fill:none;stroke:#55a868;stroke-dasharray:1.5,0;stroke-dashoffset:0;stroke-width:1.5;"/>
   </g>
   <g id="patch_8">
    <path d="M 339.44 264.675927 
L 339.44 42.6 
" style="fill:none;stroke:#ffffff;stroke-linecap:square;stroke-linejoin:miter;stroke-width:1.25;"/>
   </g>
   <g id="patch_9">
    <path d="M 575.295 264.675927 
L 575.295 42.6 
" style="fill:none;stroke:#ffffff;stroke-linecap:square;stroke-linejoin:miter;stroke-width:1.25;"/>
   </g>
   <g id="patch_10">
    <path d="M 339.44 264.675927 
L 575.295 264.675927 
" style="fill:none;stroke:#ffffff;stroke-linecap:square;stroke-linejoin:miter;stroke-width:1.25;"/>
   </g>
   <g id="patch_11">
    <path d="M 339.44 42.6 
L 575.295 42.6 
" style="fill:none;stroke:#ffffff;stroke-linecap:square;stroke-linejoin:miter;stroke-width:1.25;"/>
   </g>
   <g id="text_28">
    <!-- $v_0$ -->
    <g style="fill:#262626;" transform="translate(446.6675 36.6)scale(0.2 -0.2)">
     <defs>
      <path d="M 459 3500 
L 1069 3500 
L 1581 525 
L 3256 3500 
L 3866 3500 
L 1875 0 
L 1100 0 
L 459 3500 
z
" id="DejaVuSans-Oblique-76" transform="scale(0.015625)"/>
     </defs>
     <use transform="translate(0 0.3125)" xlink:href="#DejaVuSans-Oblique-76"/>
     <use transform="translate(59.179688 -16.09375)scale(0.7)" xlink:href="#DejaVuSans-30"/>
    </g>
   </g>
  </g>
  <g id="axes_3">
   <g id="patch_12">
    <path d="M 617.345 264.675927 
L 853.2 264.675927 
L 853.2 42.6 
L 617.345 42.6 
z
" style="fill:#eaeaf2;"/>
   </g>
   <g id="matplotlib.axis_5">
    <g id="xtick_11">
     <g id="line2d_32">
      <path clip-path="url(#p86fead13ca)" d="M 628.065682 264.675927 
L 628.065682 42.6 
" style="fill:none;stroke:#ffffff;stroke-linecap:round;"/>
     </g>
     <g id="text_29">
      <!-- 0 -->
      <g style="fill:#262626;" transform="translate(625.007166 282.049521)scale(0.11 -0.11)">
       <use xlink:href="#ArialMT-30"/>
      </g>
     </g>
    </g>
    <g id="xtick_12">
     <g id="line2d_33">
      <path clip-path="url(#p86fead13ca)" d="M 678.98892 264.675927 
L 678.98892 42.6 
" style="fill:none;stroke:#ffffff;stroke-linecap:round;"/>
     </g>
     <g id="text_30">
      <!-- 2 -->
      <g style="fill:#262626;" transform="translate(675.930405 282.049521)scale(0.11 -0.11)">
       <use xlink:href="#ArialMT-32"/>
      </g>
     </g>
    </g>
    <g id="xtick_13">
     <g id="line2d_34">
      <path clip-path="url(#p86fead13ca)" d="M 729.912159 264.675927 
L 729.912159 42.6 
" style="fill:none;stroke:#ffffff;stroke-linecap:round;"/>
     </g>
     <g id="text_31">
      <!-- 4 -->
      <g style="fill:#262626;" transform="translate(726.853643 282.049521)scale(0.11 -0.11)">
       <use xlink:href="#ArialMT-34"/>
      </g>
     </g>
    </g>
    <g id="xtick_14">
     <g id="line2d_35">
      <path clip-path="url(#p86fead13ca)" d="M 780.835398 264.675927 
L 780.835398 42.6 
" style="fill:none;stroke:#ffffff;stroke-linecap:round;"/>
     </g>
     <g id="text_32">
      <!-- 6 -->
      <g style="fill:#262626;" transform="translate(777.776882 282.049521)scale(0.11 -0.11)">
       <use xlink:href="#ArialMT-36"/>
      </g>
     </g>
    </g>
    <g id="xtick_15">
     <g id="line2d_36">
      <path clip-path="url(#p86fead13ca)" d="M 831.758636 264.675927 
L 831.758636 42.6 
" style="fill:none;stroke:#ffffff;stroke-linecap:round;"/>
     </g>
     <g id="text_33">
      <!-- 8 -->
      <g style="fill:#262626;" transform="translate(828.700121 282.049521)scale(0.11 -0.11)">
       <use xlink:href="#ArialMT-38"/>
      </g>
     </g>
    </g>
   </g>
   <g id="matplotlib.axis_6">
    <g id="ytick_16">
     <g id="line2d_37">
      <path clip-path="url(#p86fead13ca)" d="M 617.345 233.052792 
L 853.2 233.052792 
" style="fill:none;stroke:#ffffff;stroke-linecap:round;"/>
     </g>
     <g id="text_34">
      <!-- −1.0 -->
      <g style="fill:#262626;" transform="translate(586.130312 236.989589)scale(0.11 -0.11)">
       <defs>
        <path d="M 581 0 
L 581 641 
L 1222 641 
L 1222 0 
L 581 0 
z
" id="ArialMT-2e" transform="scale(0.015625)"/>
       </defs>
       <use xlink:href="#ArialMT-2212"/>
       <use x="58.398438" xlink:href="#ArialMT-31"/>
       <use x="114.013672" xlink:href="#ArialMT-2e"/>
       <use x="141.796875" xlink:href="#ArialMT-30"/>
      </g>
     </g>
    </g>
    <g id="ytick_17">
     <g id="line2d_38">
      <path clip-path="url(#p86fead13ca)" d="M 617.345 195.875014 
L 853.2 195.875014 
" style="fill:none;stroke:#ffffff;stroke-linecap:round;"/>
     </g>
     <g id="text_35">
      <!-- −0.5 -->
      <g style="fill:#262626;" transform="translate(586.130312 199.811811)scale(0.11 -0.11)">
       <use xlink:href="#ArialMT-2212"/>
       <use x="58.398438" xlink:href="#ArialMT-30"/>
       <use x="114.013672" xlink:href="#ArialMT-2e"/>
       <use x="141.796875" xlink:href="#ArialMT-35"/>
      </g>
     </g>
    </g>
    <g id="ytick_18">
     <g id="line2d_39">
      <path clip-path="url(#p86fead13ca)" d="M 617.345 158.697237 
L 853.2 158.697237 
" style="fill:none;stroke:#ffffff;stroke-linecap:round;"/>
     </g>
     <g id="text_36">
      <!-- 0.0 -->
      <g style="fill:#262626;" transform="translate(592.555 162.634033)scale(0.11 -0.11)">
       <use xlink:href="#ArialMT-30"/>
       <use x="55.615234" xlink:href="#ArialMT-2e"/>
       <use x="83.398438" xlink:href="#ArialMT-30"/>
      </g>
     </g>
    </g>
    <g id="ytick_19">
     <g id="line2d_40">
      <path clip-path="url(#p86fead13ca)" d="M 617.345 121.519459 
L 853.2 121.519459 
" style="fill:none;stroke:#ffffff;stroke-linecap:round;"/>
     </g>
     <g id="text_37">
      <!-- 0.5 -->
      <g style="fill:#262626;" transform="translate(592.555 125.456256)scale(0.11 -0.11)">
       <use xlink:href="#ArialMT-30"/>
       <use x="55.615234" xlink:href="#ArialMT-2e"/>
       <use x="83.398438" xlink:href="#ArialMT-35"/>
      </g>
     </g>
    </g>
    <g id="ytick_20">
     <g id="line2d_41">
      <path clip-path="url(#p86fead13ca)" d="M 617.345 84.341681 
L 853.2 84.341681 
" style="fill:none;stroke:#ffffff;stroke-linecap:round;"/>
     </g>
     <g id="text_38">
      <!-- 1.0 -->
      <g style="fill:#262626;" transform="translate(592.555 88.278478)scale(0.11 -0.11)">
       <use xlink:href="#ArialMT-31"/>
       <use x="55.615234" xlink:href="#ArialMT-2e"/>
       <use x="83.398438" xlink:href="#ArialMT-30"/>
      </g>
     </g>
    </g>
    <g id="ytick_21">
     <g id="line2d_42">
      <path clip-path="url(#p86fead13ca)" d="M 617.345 47.163904 
L 853.2 47.163904 
" style="fill:none;stroke:#ffffff;stroke-linecap:round;"/>
     </g>
     <g id="text_39">
      <!-- 1.5 -->
      <g style="fill:#262626;" transform="translate(592.555 51.1007)scale(0.11 -0.11)">
       <use xlink:href="#ArialMT-31"/>
       <use x="55.615234" xlink:href="#ArialMT-2e"/>
       <use x="83.398438" xlink:href="#ArialMT-35"/>
      </g>
     </g>
    </g>
   </g>
   <g id="line2d_43">
    <path clip-path="url(#p86fead13ca)" d="M 628.065682 141.536329 
L 641.466534 181.385413 
L 654.867386 89.049522 
L 668.268239 90.216117 
L 681.669091 90.255826 
L 695.069943 90.256288 
L 708.470795 90.256292 
L 721.871648 90.256293 
L 735.2725 90.256292 
L 748.673352 90.256293 
L 762.074205 90.256295 
L 775.475057 90.256359 
L 788.875909 90.256359 
L 802.276761 90.242153 
L 815.677614 90.255067 
L 829.078466 89.82735 
L 842.479318 97.460865 
" style="fill:none;stroke:#4c72b0;stroke-dasharray:9,3;stroke-dashoffset:0;stroke-width:1.5;"/>
   </g>
   <g id="line2d_44">
    <path clip-path="url(#p86fead13ca)" d="M 628.065682 139.335501 
L 641.466534 131.693296 
L 654.867386 75.414905 
L 668.268239 54.782727 
L 681.669091 54.620444 
L 695.069943 54.618192 
L 708.470795 54.61817 
L 721.871648 54.618169 
L 735.2725 54.618169 
L 748.673352 54.61817 
L 762.074205 54.618167 
L 775.475057 54.618136 
L 788.875909 54.618107 
L 802.276761 54.619535 
L 815.677614 54.635249 
L 829.078466 54.350734 
L 842.479318 52.69436 
" style="fill:none;stroke:#dd8452;stroke-dasharray:12,7.5;stroke-dashoffset:0;stroke-width:1.5;"/>
   </g>
   <g id="line2d_45">
    <path clip-path="url(#p86fead13ca)" d="M 628.065682 148.719002 
L 641.466534 254.581567 
L 654.867386 250.762095 
L 668.268239 142.756144 
L 681.669091 142.318244 
L 695.069943 142.314416 
L 708.470795 142.314378 
L 721.871648 142.314378 
L 735.2725 142.314378 
L 748.673352 142.314377 
L 762.074205 142.314375 
L 775.475057 142.314461 
L 788.875909 142.315757 
L 802.276761 142.313598 
L 815.677614 142.22737 
L 829.078466 142.22737 
L 842.479318 132.937481 
" style="fill:none;stroke:#55a868;stroke-dasharray:1.5,0;stroke-dashoffset:0;stroke-width:1.5;"/>
   </g>
   <g id="patch_13">
    <path d="M 617.345 264.675927 
L 617.345 42.6 
" style="fill:none;stroke:#ffffff;stroke-linecap:square;stroke-linejoin:miter;stroke-width:1.25;"/>
   </g>
   <g id="patch_14">
    <path d="M 853.2 264.675927 
L 853.2 42.6 
" style="fill:none;stroke:#ffffff;stroke-linecap:square;stroke-linejoin:miter;stroke-width:1.25;"/>
   </g>
   <g id="patch_15">
    <path d="M 617.345 264.675927 
L 853.2 264.675927 
" style="fill:none;stroke:#ffffff;stroke-linecap:square;stroke-linejoin:miter;stroke-width:1.25;"/>
   </g>
   <g id="patch_16">
    <path d="M 617.345 42.6 
L 853.2 42.6 
" style="fill:none;stroke:#ffffff;stroke-linecap:square;stroke-linejoin:miter;stroke-width:1.25;"/>
   </g>
   <g id="text_40">
    <!-- $t$ -->
    <g style="fill:#262626;" transform="translate(731.2725 36.6)scale(0.2 -0.2)">
     <use transform="translate(0 0.78125)" xlink:href="#DejaVuSans-Oblique-74"/>
    </g>
   </g>
  </g>
  <g id="axes_4">
   <g id="patch_17">
    <path d="M 61.535 518.7 
L 297.39 518.7 
L 297.39 296.624073 
L 61.535 296.624073 
z
" style="fill:#eaeaf2;"/>
   </g>
   <g id="matplotlib.axis_7">
    <g id="xtick_16">
     <g id="line2d_46">
      <path clip-path="url(#pbafc2dcd7b)" d="M 72.255682 518.7 
L 72.255682 296.624073 
" style="fill:none;stroke:#ffffff;stroke-linecap:round;"/>
     </g>
     <g id="text_41">
      <!-- 0 -->
      <g style="fill:#262626;" transform="translate(69.197166 536.073594)scale(0.11 -0.11)">
       <use xlink:href="#ArialMT-30"/>
      </g>
     </g>
    </g>
    <g id="xtick_17">
     <g id="line2d_47">
      <path clip-path="url(#pbafc2dcd7b)" d="M 123.17892 518.7 
L 123.17892 296.624073 
" style="fill:none;stroke:#ffffff;stroke-linecap:round;"/>
     </g>
     <g id="text_42">
      <!-- 2 -->
      <g style="fill:#262626;" transform="translate(120.120405 536.073594)scale(0.11 -0.11)">
       <use xlink:href="#ArialMT-32"/>
      </g>
     </g>
    </g>
    <g id="xtick_18">
     <g id="line2d_48">
      <path clip-path="url(#pbafc2dcd7b)" d="M 174.102159 518.7 
L 174.102159 296.624073 
" style="fill:none;stroke:#ffffff;stroke-linecap:round;"/>
     </g>
     <g id="text_43">
      <!-- 4 -->
      <g style="fill:#262626;" transform="translate(171.043643 536.073594)scale(0.11 -0.11)">
       <use xlink:href="#ArialMT-34"/>
      </g>
     </g>
    </g>
    <g id="xtick_19">
     <g id="line2d_49">
      <path clip-path="url(#pbafc2dcd7b)" d="M 225.025398 518.7 
L 225.025398 296.624073 
" style="fill:none;stroke:#ffffff;stroke-linecap:round;"/>
     </g>
     <g id="text_44">
      <!-- 6 -->
      <g style="fill:#262626;" transform="translate(221.966882 536.073594)scale(0.11 -0.11)">
       <use xlink:href="#ArialMT-36"/>
      </g>
     </g>
    </g>
    <g id="xtick_20">
     <g id="line2d_50">
      <path clip-path="url(#pbafc2dcd7b)" d="M 275.948636 518.7 
L 275.948636 296.624073 
" style="fill:none;stroke:#ffffff;stroke-linecap:round;"/>
     </g>
     <g id="text_45">
      <!-- 8 -->
      <g style="fill:#262626;" transform="translate(272.890121 536.073594)scale(0.11 -0.11)">
       <use xlink:href="#ArialMT-38"/>
      </g>
     </g>
    </g>
    <g id="text_46">
     <!-- $\log_{10}(-h)$ -->
     <g style="fill:#262626;" transform="translate(132.3625 557.459844)scale(0.2 -0.2)">
      <defs>
       <path d="M 678 2272 
L 4684 2272 
L 4684 1741 
L 678 1741 
L 678 2272 
z
" id="DejaVuSans-2212" transform="scale(0.015625)"/>
       <path d="M 3566 2113 
L 3156 0 
L 2578 0 
L 2988 2091 
Q 3016 2238 3031 2350 
Q 3047 2463 3047 2528 
Q 3047 2791 2881 2937 
Q 2716 3084 2419 3084 
Q 1956 3084 1617 2771 
Q 1278 2459 1178 1941 
L 800 0 
L 225 0 
L 1172 4863 
L 1747 4863 
L 1375 2950 
Q 1594 3244 1934 3414 
Q 2275 3584 2650 3584 
Q 3113 3584 3367 3334 
Q 3622 3084 3622 2631 
Q 3622 2519 3608 2391 
Q 3594 2263 3566 2113 
z
" id="DejaVuSans-Oblique-68" transform="scale(0.015625)"/>
      </defs>
      <use transform="translate(0 0.015625)" xlink:href="#DejaVuSans-6c"/>
      <use transform="translate(27.783203 0.015625)" xlink:href="#DejaVuSans-6f"/>
      <use transform="translate(88.964844 0.015625)" xlink:href="#DejaVuSans-67"/>
      <use transform="translate(153.398438 -16.390625)scale(0.7)" xlink:href="#DejaVuSans-31"/>
      <use transform="translate(197.93457 -16.390625)scale(0.7)" xlink:href="#DejaVuSans-30"/>
      <use transform="translate(245.205078 0.015625)" xlink:href="#DejaVuSans-28"/>
      <use transform="translate(284.21875 0.015625)" xlink:href="#DejaVuSans-2212"/>
      <use transform="translate(368.007812 0.015625)" xlink:href="#DejaVuSans-Oblique-68"/>
      <use transform="translate(431.386719 0.015625)" xlink:href="#DejaVuSans-29"/>
     </g>
    </g>
   </g>
   <g id="matplotlib.axis_8">
    <g id="ytick_22">
     <g id="line2d_51">
      <path clip-path="url(#pbafc2dcd7b)" d="M 61.535 516.357285 
L 297.39 516.357285 
" style="fill:none;stroke:#ffffff;stroke-linecap:round;"/>
     </g>
     <g id="text_47">
      <!-- −6 -->
      <g style="fill:#262626;" transform="translate(39.493281 520.294082)scale(0.11 -0.11)">
       <use xlink:href="#ArialMT-2212"/>
       <use x="58.398438" xlink:href="#ArialMT-36"/>
      </g>
     </g>
    </g>
    <g id="ytick_23">
     <g id="line2d_52">
      <path clip-path="url(#pbafc2dcd7b)" d="M 61.535 467.667802 
L 297.39 467.667802 
" style="fill:none;stroke:#ffffff;stroke-linecap:round;"/>
     </g>
     <g id="text_48">
      <!-- −4 -->
      <g style="fill:#262626;" transform="translate(39.493281 471.604599)scale(0.11 -0.11)">
       <use xlink:href="#ArialMT-2212"/>
       <use x="58.398438" xlink:href="#ArialMT-34"/>
      </g>
     </g>
    </g>
    <g id="ytick_24">
     <g id="line2d_53">
      <path clip-path="url(#pbafc2dcd7b)" d="M 61.535 418.978319 
L 297.39 418.978319 
" style="fill:none;stroke:#ffffff;stroke-linecap:round;"/>
     </g>
     <g id="text_49">
      <!-- −2 -->
      <g style="fill:#262626;" transform="translate(39.493281 422.915116)scale(0.11 -0.11)">
       <use xlink:href="#ArialMT-2212"/>
       <use x="58.398438" xlink:href="#ArialMT-32"/>
      </g>
     </g>
    </g>
    <g id="ytick_25">
     <g id="line2d_54">
      <path clip-path="url(#pbafc2dcd7b)" d="M 61.535 370.288836 
L 297.39 370.288836 
" style="fill:none;stroke:#ffffff;stroke-linecap:round;"/>
     </g>
     <g id="text_50">
      <!-- 0 -->
      <g style="fill:#262626;" transform="translate(45.917969 374.225632)scale(0.11 -0.11)">
       <use xlink:href="#ArialMT-30"/>
      </g>
     </g>
    </g>
    <g id="ytick_26">
     <g id="line2d_55">
      <path clip-path="url(#pbafc2dcd7b)" d="M 61.535 321.599352 
L 297.39 321.599352 
" style="fill:none;stroke:#ffffff;stroke-linecap:round;"/>
     </g>
     <g id="text_51">
      <!-- 2 -->
      <g style="fill:#262626;" transform="translate(45.917969 325.536149)scale(0.11 -0.11)">
       <use xlink:href="#ArialMT-32"/>
      </g>
     </g>
    </g>
    <g id="text_52">
     <!-- $\log_{10}(|\Phi _{v_t}(x)|)$ -->
     <g style="fill:#262626;" transform="translate(29.893281 474.962036)rotate(-90)scale(0.2 -0.2)">
      <use transform="translate(0 0.578125)" xlink:href="#DejaVuSans-6c"/>
      <use transform="translate(27.783203 0.578125)" xlink:href="#DejaVuSans-6f"/>
      <use transform="translate(88.964844 0.578125)" xlink:href="#DejaVuSans-67"/>
      <use transform="translate(153.398438 -15.828125)scale(0.7)" xlink:href="#DejaVuSans-31"/>
      <use transform="translate(197.93457 -15.828125)scale(0.7)" xlink:href="#DejaVuSans-30"/>
      <use transform="translate(245.205078 0.578125)" xlink:href="#DejaVuSans-28"/>
      <use transform="translate(284.21875 0.578125)" xlink:href="#DejaVuSans-7c"/>
      <use transform="translate(317.910156 0.578125)" xlink:href="#DejaVuSans-3a6"/>
      <use transform="translate(397.578125 -15.828125)scale(0.7)" xlink:href="#DejaVuSans-Oblique-76"/>
      <use transform="translate(439.003906 -27.3125)scale(0.49)" xlink:href="#DejaVuSans-Oblique-74"/>
      <use transform="translate(462.864746 0.578125)" xlink:href="#DejaVuSans-28"/>
      <use transform="translate(501.878418 0.578125)" xlink:href="#DejaVuSans-Oblique-78"/>
      <use transform="translate(561.058105 0.578125)" xlink:href="#DejaVuSans-29"/>
      <use transform="translate(600.071777 0.578125)" xlink:href="#DejaVuSans-7c"/>
      <use transform="translate(633.763184 0.578125)" xlink:href="#DejaVuSans-29"/>
     </g>
    </g>
   </g>
   <g id="line2d_56">
    <path clip-path="url(#pbafc2dcd7b)" d="M 72.255682 353.184219 
L 85.656534 378.622047 
L 99.057386 433.14992 
L 112.458239 404.744615 
L 125.859091 416.926097 
L 139.259943 475.095252 
L 152.660795 475.094857 
L 166.061648 475.097999 
L 179.4625 475.053619 
L 192.863352 474.848786 
L 206.264205 478.527019 
L 219.665057 508.60564 
L 233.065909 441.391638 
L 246.466761 415.835608 
L 259.867614 435.571415 
L 273.268466 380.865016 
L 286.669318 338.478217 
" style="fill:none;stroke:#4c72b0;stroke-dasharray:9,3;stroke-dashoffset:0;stroke-width:1.5;"/>
   </g>
   <g id="line2d_57">
    <path clip-path="url(#pbafc2dcd7b)" d="M 72.255682 353.22366 
L 85.656534 404.123383 
L 99.057386 339.992727 
L 112.458239 335.815062 
L 125.859091 335.945779 
L 139.259943 344.953743 
L 152.660795 335.230823 
L 166.061648 335.230823 
L 179.4625 335.230821 
L 192.863352 335.230818 
L 206.264205 335.230408 
L 219.665057 335.233269 
L 233.065909 335.201464 
L 246.466761 335.211391 
L 259.867614 335.618856 
L 273.268466 315.011903 
L 286.669318 306.718433 
" style="fill:none;stroke:#dd8452;stroke-dasharray:12,7.5;stroke-dashoffset:0;stroke-width:1.5;"/>
   </g>
   <g id="line2d_58">
    <path clip-path="url(#pbafc2dcd7b)" d="M 72.255682 353.240511 
L 85.656534 395.124274 
L 99.057386 413.081654 
L 112.458239 410.277743 
L 125.859091 411.750612 
L 139.259943 411.756742 
L 152.660795 411.756804 
L 166.061648 411.756809 
L 179.4625 411.75683 
L 192.863352 411.756156 
L 206.264205 411.75765 
L 219.665057 411.765926 
L 233.065909 411.376632 
L 246.466761 413.853602 
L 259.867614 416.775397 
L 273.268466 386.970407 
L 286.669318 345.072441 
" style="fill:none;stroke:#55a868;stroke-dasharray:1.5,0;stroke-dashoffset:0;stroke-width:1.5;"/>
   </g>
   <g id="patch_18">
    <path d="M 61.535 518.7 
L 61.535 296.624073 
" style="fill:none;stroke:#ffffff;stroke-linecap:square;stroke-linejoin:miter;stroke-width:1.25;"/>
   </g>
   <g id="patch_19">
    <path d="M 297.39 518.7 
L 297.39 296.624073 
" style="fill:none;stroke:#ffffff;stroke-linecap:square;stroke-linejoin:miter;stroke-width:1.25;"/>
   </g>
   <g id="patch_20">
    <path d="M 61.535 518.7 
L 297.39 518.7 
" style="fill:none;stroke:#ffffff;stroke-linecap:square;stroke-linejoin:miter;stroke-width:1.25;"/>
   </g>
   <g id="patch_21">
    <path d="M 61.535 296.624073 
L 297.39 296.624073 
" style="fill:none;stroke:#ffffff;stroke-linecap:square;stroke-linejoin:miter;stroke-width:1.25;"/>
   </g>
  </g>
  <g id="axes_5">
   <g id="patch_22">
    <path d="M 339.44 518.7 
L 575.295 518.7 
L 575.295 296.624073 
L 339.44 296.624073 
z
" style="fill:#eaeaf2;"/>
   </g>
   <g id="matplotlib.axis_9">
    <g id="xtick_21">
     <g id="line2d_59">
      <path clip-path="url(#p555a442430)" d="M 350.160682 518.7 
L 350.160682 296.624073 
" style="fill:none;stroke:#ffffff;stroke-linecap:round;"/>
     </g>
     <g id="text_53">
      <!-- 0 -->
      <g style="fill:#262626;" transform="translate(347.102166 536.073594)scale(0.11 -0.11)">
       <use xlink:href="#ArialMT-30"/>
      </g>
     </g>
    </g>
    <g id="xtick_22">
     <g id="line2d_60">
      <path clip-path="url(#p555a442430)" d="M 401.08392 518.7 
L 401.08392 296.624073 
" style="fill:none;stroke:#ffffff;stroke-linecap:round;"/>
     </g>
     <g id="text_54">
      <!-- 2 -->
      <g style="fill:#262626;" transform="translate(398.025405 536.073594)scale(0.11 -0.11)">
       <use xlink:href="#ArialMT-32"/>
      </g>
     </g>
    </g>
    <g id="xtick_23">
     <g id="line2d_61">
      <path clip-path="url(#p555a442430)" d="M 452.007159 518.7 
L 452.007159 296.624073 
" style="fill:none;stroke:#ffffff;stroke-linecap:round;"/>
     </g>
     <g id="text_55">
      <!-- 4 -->
      <g style="fill:#262626;" transform="translate(448.948643 536.073594)scale(0.11 -0.11)">
       <use xlink:href="#ArialMT-34"/>
      </g>
     </g>
    </g>
    <g id="xtick_24">
     <g id="line2d_62">
      <path clip-path="url(#p555a442430)" d="M 502.930398 518.7 
L 502.930398 296.624073 
" style="fill:none;stroke:#ffffff;stroke-linecap:round;"/>
     </g>
     <g id="text_56">
      <!-- 6 -->
      <g style="fill:#262626;" transform="translate(499.871882 536.073594)scale(0.11 -0.11)">
       <use xlink:href="#ArialMT-36"/>
      </g>
     </g>
    </g>
    <g id="xtick_25">
     <g id="line2d_63">
      <path clip-path="url(#p555a442430)" d="M 553.853636 518.7 
L 553.853636 296.624073 
" style="fill:none;stroke:#ffffff;stroke-linecap:round;"/>
     </g>
     <g id="text_57">
      <!-- 8 -->
      <g style="fill:#262626;" transform="translate(550.795121 536.073594)scale(0.11 -0.11)">
       <use xlink:href="#ArialMT-38"/>
      </g>
     </g>
    </g>
    <g id="text_58">
     <!-- $\log_{10}(-h)$ -->
     <g style="fill:#262626;" transform="translate(410.2675 557.459844)scale(0.2 -0.2)">
      <use transform="translate(0 0.015625)" xlink:href="#DejaVuSans-6c"/>
      <use transform="translate(27.783203 0.015625)" xlink:href="#DejaVuSans-6f"/>
      <use transform="translate(88.964844 0.015625)" xlink:href="#DejaVuSans-67"/>
      <use transform="translate(153.398438 -16.390625)scale(0.7)" xlink:href="#DejaVuSans-31"/>
      <use transform="translate(197.93457 -16.390625)scale(0.7)" xlink:href="#DejaVuSans-30"/>
      <use transform="translate(245.205078 0.015625)" xlink:href="#DejaVuSans-28"/>
      <use transform="translate(284.21875 0.015625)" xlink:href="#DejaVuSans-2212"/>
      <use transform="translate(368.007812 0.015625)" xlink:href="#DejaVuSans-Oblique-68"/>
      <use transform="translate(431.386719 0.015625)" xlink:href="#DejaVuSans-29"/>
     </g>
    </g>
   </g>
   <g id="matplotlib.axis_10">
    <g id="ytick_27">
     <g id="line2d_64">
      <path clip-path="url(#p555a442430)" d="M 339.44 499.170192 
L 575.295 499.170192 
" style="fill:none;stroke:#ffffff;stroke-linecap:round;"/>
     </g>
     <g id="text_59">
      <!-- −4 -->
      <g style="fill:#262626;" transform="translate(317.398281 503.106989)scale(0.11 -0.11)">
       <use xlink:href="#ArialMT-2212"/>
       <use x="58.398438" xlink:href="#ArialMT-34"/>
      </g>
     </g>
    </g>
    <g id="ytick_28">
     <g id="line2d_65">
      <path clip-path="url(#p555a442430)" d="M 339.44 470.579936 
L 575.295 470.579936 
" style="fill:none;stroke:#ffffff;stroke-linecap:round;"/>
     </g>
     <g id="text_60">
      <!-- −3 -->
      <g style="fill:#262626;" transform="translate(317.398281 474.516732)scale(0.11 -0.11)">
       <use xlink:href="#ArialMT-2212"/>
       <use x="58.398438" xlink:href="#ArialMT-33"/>
      </g>
     </g>
    </g>
    <g id="ytick_29">
     <g id="line2d_66">
      <path clip-path="url(#p555a442430)" d="M 339.44 441.989679 
L 575.295 441.989679 
" style="fill:none;stroke:#ffffff;stroke-linecap:round;"/>
     </g>
     <g id="text_61">
      <!-- −2 -->
      <g style="fill:#262626;" transform="translate(317.398281 445.926476)scale(0.11 -0.11)">
       <use xlink:href="#ArialMT-2212"/>
       <use x="58.398438" xlink:href="#ArialMT-32"/>
      </g>
     </g>
    </g>
    <g id="ytick_30">
     <g id="line2d_67">
      <path clip-path="url(#p555a442430)" d="M 339.44 413.399423 
L 575.295 413.399423 
" style="fill:none;stroke:#ffffff;stroke-linecap:round;"/>
     </g>
     <g id="text_62">
      <!-- −1 -->
      <g style="fill:#262626;" transform="translate(317.398281 417.33622)scale(0.11 -0.11)">
       <use xlink:href="#ArialMT-2212"/>
       <use x="58.398438" xlink:href="#ArialMT-31"/>
      </g>
     </g>
    </g>
    <g id="ytick_31">
     <g id="line2d_68">
      <path clip-path="url(#p555a442430)" d="M 339.44 384.809167 
L 575.295 384.809167 
" style="fill:none;stroke:#ffffff;stroke-linecap:round;"/>
     </g>
     <g id="text_63">
      <!-- 0 -->
      <g style="fill:#262626;" transform="translate(323.822969 388.745963)scale(0.11 -0.11)">
       <use xlink:href="#ArialMT-30"/>
      </g>
     </g>
    </g>
    <g id="ytick_32">
     <g id="line2d_69">
      <path clip-path="url(#p555a442430)" d="M 339.44 356.21891 
L 575.295 356.21891 
" style="fill:none;stroke:#ffffff;stroke-linecap:round;"/>
     </g>
     <g id="text_64">
      <!-- 1 -->
      <g style="fill:#262626;" transform="translate(323.822969 360.155707)scale(0.11 -0.11)">
       <use xlink:href="#ArialMT-31"/>
      </g>
     </g>
    </g>
    <g id="ytick_33">
     <g id="line2d_70">
      <path clip-path="url(#p555a442430)" d="M 339.44 327.628654 
L 575.295 327.628654 
" style="fill:none;stroke:#ffffff;stroke-linecap:round;"/>
     </g>
     <g id="text_65">
      <!-- 2 -->
      <g style="fill:#262626;" transform="translate(323.822969 331.565451)scale(0.11 -0.11)">
       <use xlink:href="#ArialMT-32"/>
      </g>
     </g>
    </g>
    <g id="ytick_34">
     <g id="line2d_71">
      <path clip-path="url(#p555a442430)" d="M 339.44 299.038398 
L 575.295 299.038398 
" style="fill:none;stroke:#ffffff;stroke-linecap:round;"/>
     </g>
     <g id="text_66">
      <!-- 3 -->
      <g style="fill:#262626;" transform="translate(323.822969 302.975194)scale(0.11 -0.11)">
       <use xlink:href="#ArialMT-33"/>
      </g>
     </g>
    </g>
   </g>
   <g id="line2d_72">
    <path clip-path="url(#p555a442430)" d="M 350.160682 508.270014 
L 363.561534 508.60564 
L 376.962386 464.316062 
L 390.363239 449.241792 
L 403.764091 505.211141 
L 417.164943 505.210707 
L 430.565795 505.210876 
L 443.966648 505.208806 
L 457.3675 505.198301 
L 470.768352 505.557371 
L 484.169205 504.595481 
L 497.570057 495.10122 
L 510.970909 462.244751 
L 524.371761 467.819182 
L 537.772614 442.349394 
L 551.173466 385.620443 
L 564.574318 349.182163 
" style="fill:none;stroke:#4c72b0;stroke-dasharray:9,3;stroke-dashoffset:0;stroke-width:1.5;"/>
   </g>
   <g id="line2d_73">
    <path clip-path="url(#p555a442430)" d="M 350.160682 407.401263 
L 363.561534 382.620571 
L 376.962386 377.17951 
L 390.363239 376.647999 
L 403.764091 375.568634 
L 417.164943 375.568623 
L 430.565795 375.568623 
L 443.966648 375.568629 
L 457.3675 375.568616 
L 470.768352 375.568031 
L 484.169205 375.567576 
L 497.570057 375.600786 
L 510.970909 375.307057 
L 524.371761 379.844529 
L 537.772614 362.698665 
L 551.173466 348.665129 
L 564.574318 306.718433 
" style="fill:none;stroke:#dd8452;stroke-dasharray:12,7.5;stroke-dashoffset:0;stroke-width:1.5;"/>
   </g>
   <g id="line2d_74">
    <path clip-path="url(#p555a442430)" d="M 350.160682 422.362722 
L 363.561534 426.548215 
L 376.962386 425.292292 
L 390.363239 424.551613 
L 403.764091 425.26659 
L 417.164943 425.266639 
L 430.565795 425.26664 
L 443.966648 425.266637 
L 457.3675 425.266625 
L 470.768352 425.266566 
L 484.169205 425.271969 
L 497.570057 425.237921 
L 510.970909 425.180769 
L 524.371761 421.202408 
L 537.772614 436.73728 
L 551.173466 386.826886 
L 564.574318 376.234145 
" style="fill:none;stroke:#55a868;stroke-dasharray:1.5,0;stroke-dashoffset:0;stroke-width:1.5;"/>
   </g>
   <g id="patch_23">
    <path d="M 339.44 518.7 
L 339.44 296.624073 
" style="fill:none;stroke:#ffffff;stroke-linecap:square;stroke-linejoin:miter;stroke-width:1.25;"/>
   </g>
   <g id="patch_24">
    <path d="M 575.295 518.7 
L 575.295 296.624073 
" style="fill:none;stroke:#ffffff;stroke-linecap:square;stroke-linejoin:miter;stroke-width:1.25;"/>
   </g>
   <g id="patch_25">
    <path d="M 339.44 518.7 
L 575.295 518.7 
" style="fill:none;stroke:#ffffff;stroke-linecap:square;stroke-linejoin:miter;stroke-width:1.25;"/>
   </g>
   <g id="patch_26">
    <path d="M 339.44 296.624073 
L 575.295 296.624073 
" style="fill:none;stroke:#ffffff;stroke-linecap:square;stroke-linejoin:miter;stroke-width:1.25;"/>
   </g>
  </g>
  <g id="axes_6">
   <g id="patch_27">
    <path d="M 617.345 518.7 
L 853.2 518.7 
L 853.2 296.624073 
L 617.345 296.624073 
z
" style="fill:#eaeaf2;"/>
   </g>
   <g id="matplotlib.axis_11">
    <g id="xtick_26">
     <g id="line2d_75">
      <path clip-path="url(#p5e8f83eb55)" d="M 628.065682 518.7 
L 628.065682 296.624073 
" style="fill:none;stroke:#ffffff;stroke-linecap:round;"/>
     </g>
     <g id="text_67">
      <!-- 0 -->
      <g style="fill:#262626;" transform="translate(625.007166 536.073594)scale(0.11 -0.11)">
       <use xlink:href="#ArialMT-30"/>
      </g>
     </g>
    </g>
    <g id="xtick_27">
     <g id="line2d_76">
      <path clip-path="url(#p5e8f83eb55)" d="M 678.98892 518.7 
L 678.98892 296.624073 
" style="fill:none;stroke:#ffffff;stroke-linecap:round;"/>
     </g>
     <g id="text_68">
      <!-- 2 -->
      <g style="fill:#262626;" transform="translate(675.930405 536.073594)scale(0.11 -0.11)">
       <use xlink:href="#ArialMT-32"/>
      </g>
     </g>
    </g>
    <g id="xtick_28">
     <g id="line2d_77">
      <path clip-path="url(#p5e8f83eb55)" d="M 729.912159 518.7 
L 729.912159 296.624073 
" style="fill:none;stroke:#ffffff;stroke-linecap:round;"/>
     </g>
     <g id="text_69">
      <!-- 4 -->
      <g style="fill:#262626;" transform="translate(726.853643 536.073594)scale(0.11 -0.11)">
       <use xlink:href="#ArialMT-34"/>
      </g>
     </g>
    </g>
    <g id="xtick_29">
     <g id="line2d_78">
      <path clip-path="url(#p5e8f83eb55)" d="M 780.835398 518.7 
L 780.835398 296.624073 
" style="fill:none;stroke:#ffffff;stroke-linecap:round;"/>
     </g>
     <g id="text_70">
      <!-- 6 -->
      <g style="fill:#262626;" transform="translate(777.776882 536.073594)scale(0.11 -0.11)">
       <use xlink:href="#ArialMT-36"/>
      </g>
     </g>
    </g>
    <g id="xtick_30">
     <g id="line2d_79">
      <path clip-path="url(#p5e8f83eb55)" d="M 831.758636 518.7 
L 831.758636 296.624073 
" style="fill:none;stroke:#ffffff;stroke-linecap:round;"/>
     </g>
     <g id="text_71">
      <!-- 8 -->
      <g style="fill:#262626;" transform="translate(828.700121 536.073594)scale(0.11 -0.11)">
       <use xlink:href="#ArialMT-38"/>
      </g>
     </g>
    </g>
    <g id="text_72">
     <!-- $\log_{10}(-h)$ -->
     <g style="fill:#262626;" transform="translate(688.1725 557.459844)scale(0.2 -0.2)">
      <use transform="translate(0 0.015625)" xlink:href="#DejaVuSans-6c"/>
      <use transform="translate(27.783203 0.015625)" xlink:href="#DejaVuSans-6f"/>
      <use transform="translate(88.964844 0.015625)" xlink:href="#DejaVuSans-67"/>
      <use transform="translate(153.398438 -16.390625)scale(0.7)" xlink:href="#DejaVuSans-31"/>
      <use transform="translate(197.93457 -16.390625)scale(0.7)" xlink:href="#DejaVuSans-30"/>
      <use transform="translate(245.205078 0.015625)" xlink:href="#DejaVuSans-28"/>
      <use transform="translate(284.21875 0.015625)" xlink:href="#DejaVuSans-2212"/>
      <use transform="translate(368.007812 0.015625)" xlink:href="#DejaVuSans-Oblique-68"/>
      <use transform="translate(431.386719 0.015625)" xlink:href="#DejaVuSans-29"/>
     </g>
    </g>
   </g>
   <g id="matplotlib.axis_12">
    <g id="ytick_35">
     <g id="line2d_80">
      <path clip-path="url(#p5e8f83eb55)" d="M 617.345 499.845346 
L 853.2 499.845346 
" style="fill:none;stroke:#ffffff;stroke-linecap:round;"/>
     </g>
     <g id="text_73">
      <!-- −1.0 -->
      <g style="fill:#262626;" transform="translate(586.130312 503.782143)scale(0.11 -0.11)">
       <use xlink:href="#ArialMT-2212"/>
       <use x="58.398438" xlink:href="#ArialMT-31"/>
       <use x="114.013672" xlink:href="#ArialMT-2e"/>
       <use x="141.796875" xlink:href="#ArialMT-30"/>
      </g>
     </g>
    </g>
    <g id="ytick_36">
     <g id="line2d_81">
      <path clip-path="url(#p5e8f83eb55)" d="M 617.345 466.365882 
L 853.2 466.365882 
" style="fill:none;stroke:#ffffff;stroke-linecap:round;"/>
     </g>
     <g id="text_74">
      <!-- −0.5 -->
      <g style="fill:#262626;" transform="translate(586.130312 470.302679)scale(0.11 -0.11)">
       <use xlink:href="#ArialMT-2212"/>
       <use x="58.398438" xlink:href="#ArialMT-30"/>
       <use x="114.013672" xlink:href="#ArialMT-2e"/>
       <use x="141.796875" xlink:href="#ArialMT-35"/>
      </g>
     </g>
    </g>
    <g id="ytick_37">
     <g id="line2d_82">
      <path clip-path="url(#p5e8f83eb55)" d="M 617.345 432.886418 
L 853.2 432.886418 
" style="fill:none;stroke:#ffffff;stroke-linecap:round;"/>
     </g>
     <g id="text_75">
      <!-- 0.0 -->
      <g style="fill:#262626;" transform="translate(592.555 436.823215)scale(0.11 -0.11)">
       <use xlink:href="#ArialMT-30"/>
       <use x="55.615234" xlink:href="#ArialMT-2e"/>
       <use x="83.398438" xlink:href="#ArialMT-30"/>
      </g>
     </g>
    </g>
    <g id="ytick_38">
     <g id="line2d_83">
      <path clip-path="url(#p5e8f83eb55)" d="M 617.345 399.406954 
L 853.2 399.406954 
" style="fill:none;stroke:#ffffff;stroke-linecap:round;"/>
     </g>
     <g id="text_76">
      <!-- 0.5 -->
      <g style="fill:#262626;" transform="translate(592.555 403.343751)scale(0.11 -0.11)">
       <use xlink:href="#ArialMT-30"/>
       <use x="55.615234" xlink:href="#ArialMT-2e"/>
       <use x="83.398438" xlink:href="#ArialMT-35"/>
      </g>
     </g>
    </g>
    <g id="ytick_39">
     <g id="line2d_84">
      <path clip-path="url(#p5e8f83eb55)" d="M 617.345 365.92749 
L 853.2 365.92749 
" style="fill:none;stroke:#ffffff;stroke-linecap:round;"/>
     </g>
     <g id="text_77">
      <!-- 1.0 -->
      <g style="fill:#262626;" transform="translate(592.555 369.864286)scale(0.11 -0.11)">
       <use xlink:href="#ArialMT-31"/>
       <use x="55.615234" xlink:href="#ArialMT-2e"/>
       <use x="83.398438" xlink:href="#ArialMT-30"/>
      </g>
     </g>
    </g>
    <g id="ytick_40">
     <g id="line2d_85">
      <path clip-path="url(#p5e8f83eb55)" d="M 617.345 332.448025 
L 853.2 332.448025 
" style="fill:none;stroke:#ffffff;stroke-linecap:round;"/>
     </g>
     <g id="text_78">
      <!-- 1.5 -->
      <g style="fill:#262626;" transform="translate(592.555 336.384822)scale(0.11 -0.11)">
       <use xlink:href="#ArialMT-31"/>
       <use x="55.615234" xlink:href="#ArialMT-2e"/>
       <use x="83.398438" xlink:href="#ArialMT-35"/>
      </g>
     </g>
    </g>
    <g id="ytick_41">
     <g id="line2d_86">
      <path clip-path="url(#p5e8f83eb55)" d="M 617.345 298.968561 
L 853.2 298.968561 
" style="fill:none;stroke:#ffffff;stroke-linecap:round;"/>
     </g>
     <g id="text_79">
      <!-- 2.0 -->
      <g style="fill:#262626;" transform="translate(592.555 302.905358)scale(0.11 -0.11)">
       <use xlink:href="#ArialMT-32"/>
       <use x="55.615234" xlink:href="#ArialMT-2e"/>
       <use x="83.398438" xlink:href="#ArialMT-30"/>
      </g>
     </g>
    </g>
   </g>
   <g id="line2d_87">
    <path clip-path="url(#p5e8f83eb55)" d="M 628.065682 386.059368 
L 641.466534 435.152533 
L 654.867386 359.618436 
L 668.268239 349.09646 
L 681.669091 349.004117 
L 695.069943 349.003332 
L 708.470795 349.003324 
L 721.871648 349.003324 
L 735.2725 349.003324 
L 748.673352 349.003325 
L 762.074205 349.003304 
L 775.475057 349.003318 
L 788.875909 349.003045 
L 802.276761 348.988064 
L 815.677614 348.994037 
L 829.078466 348.148668 
L 842.479318 349.33303 
" style="fill:none;stroke:#4c72b0;stroke-dasharray:9,3;stroke-dashoffset:0;stroke-width:1.5;"/>
   </g>
   <g id="line2d_88">
    <path clip-path="url(#p5e8f83eb55)" d="M 628.065682 385.491153 
L 641.466534 508.60564 
L 654.867386 332.225999 
L 668.268239 309.061916 
L 681.669091 308.803162 
L 695.069943 308.800934 
L 708.470795 308.800912 
L 721.871648 308.800911 
L 735.2725 308.800911 
L 748.673352 308.800911 
L 762.074205 308.800909 
L 775.475057 308.800884 
L 788.875909 308.800947 
L 802.276761 308.801943 
L 815.677614 308.817454 
L 829.078466 308.668349 
L 842.479318 306.718433 
" style="fill:none;stroke:#dd8452;stroke-dasharray:12,7.5;stroke-dashoffset:0;stroke-width:1.5;"/>
   </g>
   <g id="line2d_89">
    <path clip-path="url(#p5e8f83eb55)" d="M 628.065682 386.243863 
L 641.466534 448.624058 
L 654.867386 359.700906 
L 668.268239 363.759624 
L 681.669091 363.831111 
L 695.069943 363.831811 
L 708.470795 363.831818 
L 721.871648 363.831818 
L 735.2725 363.831818 
L 748.673352 363.831817 
L 762.074205 363.831816 
L 775.475057 363.831783 
L 788.875909 363.83242 
L 802.276761 363.838696 
L 815.677614 363.848134 
L 829.078466 363.679085 
L 842.479318 361.554733 
" style="fill:none;stroke:#55a868;stroke-dasharray:1.5,0;stroke-dashoffset:0;stroke-width:1.5;"/>
   </g>
   <g id="patch_28">
    <path d="M 617.345 518.7 
L 617.345 296.624073 
" style="fill:none;stroke:#ffffff;stroke-linecap:square;stroke-linejoin:miter;stroke-width:1.25;"/>
   </g>
   <g id="patch_29">
    <path d="M 853.2 518.7 
L 853.2 296.624073 
" style="fill:none;stroke:#ffffff;stroke-linecap:square;stroke-linejoin:miter;stroke-width:1.25;"/>
   </g>
   <g id="patch_30">
    <path d="M 617.345 518.7 
L 853.2 518.7 
" style="fill:none;stroke:#ffffff;stroke-linecap:square;stroke-linejoin:miter;stroke-width:1.25;"/>
   </g>
   <g id="patch_31">
    <path d="M 617.345 296.624073 
L 853.2 296.624073 
" style="fill:none;stroke:#ffffff;stroke-linecap:square;stroke-linejoin:miter;stroke-width:1.25;"/>
   </g>
  </g>
 </g>
 <defs>
  <clipPath id="pee90db5b2e">
   <rect height="222.075927" width="235.855" x="61.535" y="42.6"/>
  </clipPath>
  <clipPath id="p9318c29971">
   <rect height="222.075927" width="235.855" x="339.44" y="42.6"/>
  </clipPath>
  <clipPath id="p86fead13ca">
   <rect height="222.075927" width="235.855" x="617.345" y="42.6"/>
  </clipPath>
  <clipPath id="pbafc2dcd7b">
   <rect height="222.075927" width="235.855" x="61.535" y="296.624073"/>
  </clipPath>
  <clipPath id="p555a442430">
   <rect height="222.075927" width="235.855" x="339.44" y="296.624073"/>
  </clipPath>
  <clipPath id="p5e8f83eb55">
   <rect height="222.075927" width="235.855" x="617.345" y="296.624073"/>
  </clipPath>
 </defs>
</svg>
