<?xml version="1.0" encoding="utf-8" standalone="no"?>
<!DOCTYPE svg PUBLIC "-//W3C//DTD SVG 1.1//EN"
  "http://www.w3.org/Graphics/SVG/1.1/DTD/svg11.dtd">
<svg height="576pt" version="1.1" viewBox="0 0 864 576" width="864pt" xmlns="http://www.w3.org/2000/svg" xmlns:xlink="http://www.w3.org/1999/xlink">
 <metadata>
  <rdf:RDF xmlns:cc="http://creativecommons.org/ns#" xmlns:dc="http://purl.org/dc/elements/1.1/" xmlns:rdf="http://www.w3.org/1999/02/22-rdf-syntax-ns#">
   <cc:Work>
    <dc:type rdf:resource="http://purl.org/dc/dcmitype/StillImage"/>
    <dc:date>2021-10-10T09:44:22.511921</dc:date>
    <dc:format>image/svg+xml</dc:format>
    <dc:creator>
     <cc:Agent>
      <dc:title>Matplotlib v3.4.2, https://matplotlib.org/</dc:title>
     </cc:Agent>
    </dc:creator>
   </cc:Work>
  </rdf:RDF>
 </metadata>
 <defs>
  <style type="text/css">*{stroke-linecap:butt;stroke-linejoin:round;}</style>
 </defs>
 <g id="figure_1">
  <g id="patch_1">
   <path d="M 0 576 
L 864 576 
L 864 0 
L 0 0 
z
" style="fill:none;"/>
  </g>
  <g id="axes_1">
   <g id="patch_2">
    <path d="M 61.535 254.227728 
L 297.39 254.227728 
L 297.39 21.6 
L 61.535 21.6 
z
" style="fill:#eaeaf2;"/>
   </g>
   <g id="matplotlib.axis_1">
    <g id="xtick_1">
     <g id="line2d_1">
      <path clip-path="url(#p0831e513cc)" d="M 72.255682 254.227728 
L 72.255682 21.6 
" style="fill:none;stroke:#ffffff;stroke-linecap:round;"/>
     </g>
     <g id="text_1">
      <!-- 0 -->
      <g style="fill:#262626;" transform="translate(69.197166 271.601322)scale(0.11 -0.11)">
       <defs>
        <path d="M 266 2259 
Q 266 3072 433 3567 
Q 600 4063 929 4331 
Q 1259 4600 1759 4600 
Q 2128 4600 2406 4451 
Q 2684 4303 2865 4023 
Q 3047 3744 3150 3342 
Q 3253 2941 3253 2259 
Q 3253 1453 3087 958 
Q 2922 463 2592 192 
Q 2263 -78 1759 -78 
Q 1097 -78 719 397 
Q 266 969 266 2259 
z
M 844 2259 
Q 844 1131 1108 757 
Q 1372 384 1759 384 
Q 2147 384 2411 759 
Q 2675 1134 2675 2259 
Q 2675 3391 2411 3762 
Q 2147 4134 1753 4134 
Q 1366 4134 1134 3806 
Q 844 3388 844 2259 
z
" id="ArialMT-30" transform="scale(0.015625)"/>
       </defs>
       <use xlink:href="#ArialMT-30"/>
      </g>
     </g>
    </g>
    <g id="xtick_2">
     <g id="line2d_2">
      <path clip-path="url(#p0831e513cc)" d="M 123.17892 254.227728 
L 123.17892 21.6 
" style="fill:none;stroke:#ffffff;stroke-linecap:round;"/>
     </g>
     <g id="text_2">
      <!-- 2 -->
      <g style="fill:#262626;" transform="translate(120.120405 271.601322)scale(0.11 -0.11)">
       <defs>
        <path d="M 3222 541 
L 3222 0 
L 194 0 
Q 188 203 259 391 
Q 375 700 629 1000 
Q 884 1300 1366 1694 
Q 2113 2306 2375 2664 
Q 2638 3022 2638 3341 
Q 2638 3675 2398 3904 
Q 2159 4134 1775 4134 
Q 1369 4134 1125 3890 
Q 881 3647 878 3216 
L 300 3275 
Q 359 3922 746 4261 
Q 1134 4600 1788 4600 
Q 2447 4600 2831 4234 
Q 3216 3869 3216 3328 
Q 3216 3053 3103 2787 
Q 2991 2522 2730 2228 
Q 2469 1934 1863 1422 
Q 1356 997 1212 845 
Q 1069 694 975 541 
L 3222 541 
z
" id="ArialMT-32" transform="scale(0.015625)"/>
       </defs>
       <use xlink:href="#ArialMT-32"/>
      </g>
     </g>
    </g>
    <g id="xtick_3">
     <g id="line2d_3">
      <path clip-path="url(#p0831e513cc)" d="M 174.102159 254.227728 
L 174.102159 21.6 
" style="fill:none;stroke:#ffffff;stroke-linecap:round;"/>
     </g>
     <g id="text_3">
      <!-- 4 -->
      <g style="fill:#262626;" transform="translate(171.043643 271.601322)scale(0.11 -0.11)">
       <defs>
        <path d="M 2069 0 
L 2069 1097 
L 81 1097 
L 81 1613 
L 2172 4581 
L 2631 4581 
L 2631 1613 
L 3250 1613 
L 3250 1097 
L 2631 1097 
L 2631 0 
L 2069 0 
z
M 2069 1613 
L 2069 3678 
L 634 1613 
L 2069 1613 
z
" id="ArialMT-34" transform="scale(0.015625)"/>
       </defs>
       <use xlink:href="#ArialMT-34"/>
      </g>
     </g>
    </g>
    <g id="xtick_4">
     <g id="line2d_4">
      <path clip-path="url(#p0831e513cc)" d="M 225.025398 254.227728 
L 225.025398 21.6 
" style="fill:none;stroke:#ffffff;stroke-linecap:round;"/>
     </g>
     <g id="text_4">
      <!-- 6 -->
      <g style="fill:#262626;" transform="translate(221.966882 271.601322)scale(0.11 -0.11)">
       <defs>
        <path d="M 3184 3459 
L 2625 3416 
Q 2550 3747 2413 3897 
Q 2184 4138 1850 4138 
Q 1581 4138 1378 3988 
Q 1113 3794 959 3422 
Q 806 3050 800 2363 
Q 1003 2672 1297 2822 
Q 1591 2972 1913 2972 
Q 2475 2972 2870 2558 
Q 3266 2144 3266 1488 
Q 3266 1056 3080 686 
Q 2894 316 2569 119 
Q 2244 -78 1831 -78 
Q 1128 -78 684 439 
Q 241 956 241 2144 
Q 241 3472 731 4075 
Q 1159 4600 1884 4600 
Q 2425 4600 2770 4297 
Q 3116 3994 3184 3459 
z
M 888 1484 
Q 888 1194 1011 928 
Q 1134 663 1356 523 
Q 1578 384 1822 384 
Q 2178 384 2434 671 
Q 2691 959 2691 1453 
Q 2691 1928 2437 2201 
Q 2184 2475 1800 2475 
Q 1419 2475 1153 2201 
Q 888 1928 888 1484 
z
" id="ArialMT-36" transform="scale(0.015625)"/>
       </defs>
       <use xlink:href="#ArialMT-36"/>
      </g>
     </g>
    </g>
    <g id="xtick_5">
     <g id="line2d_5">
      <path clip-path="url(#p0831e513cc)" d="M 275.948636 254.227728 
L 275.948636 21.6 
" style="fill:none;stroke:#ffffff;stroke-linecap:round;"/>
     </g>
     <g id="text_5">
      <!-- 8 -->
      <g style="fill:#262626;" transform="translate(272.890121 271.601322)scale(0.11 -0.11)">
       <defs>
        <path d="M 1131 2484 
Q 781 2613 612 2850 
Q 444 3088 444 3419 
Q 444 3919 803 4259 
Q 1163 4600 1759 4600 
Q 2359 4600 2725 4251 
Q 3091 3903 3091 3403 
Q 3091 3084 2923 2848 
Q 2756 2613 2416 2484 
Q 2838 2347 3058 2040 
Q 3278 1734 3278 1309 
Q 3278 722 2862 322 
Q 2447 -78 1769 -78 
Q 1091 -78 675 323 
Q 259 725 259 1325 
Q 259 1772 486 2073 
Q 713 2375 1131 2484 
z
M 1019 3438 
Q 1019 3113 1228 2906 
Q 1438 2700 1772 2700 
Q 2097 2700 2305 2904 
Q 2513 3109 2513 3406 
Q 2513 3716 2298 3927 
Q 2084 4138 1766 4138 
Q 1444 4138 1231 3931 
Q 1019 3725 1019 3438 
z
M 838 1322 
Q 838 1081 952 856 
Q 1066 631 1291 507 
Q 1516 384 1775 384 
Q 2178 384 2440 643 
Q 2703 903 2703 1303 
Q 2703 1709 2433 1975 
Q 2163 2241 1756 2241 
Q 1359 2241 1098 1978 
Q 838 1716 838 1322 
z
" id="ArialMT-38" transform="scale(0.015625)"/>
       </defs>
       <use xlink:href="#ArialMT-38"/>
      </g>
     </g>
    </g>
   </g>
   <g id="matplotlib.axis_2">
    <g id="ytick_1">
     <g id="line2d_6">
      <path clip-path="url(#p0831e513cc)" d="M 61.535 222.701322 
L 297.39 222.701322 
" style="fill:none;stroke:#ffffff;stroke-linecap:round;"/>
     </g>
     <g id="text_6">
      <!-- −4 -->
      <g style="fill:#262626;" transform="translate(39.493281 226.638119)scale(0.11 -0.11)">
       <defs>
        <path d="M 3381 1997 
L 356 1997 
L 356 2522 
L 3381 2522 
L 3381 1997 
z
" id="ArialMT-2212" transform="scale(0.015625)"/>
       </defs>
       <use xlink:href="#ArialMT-2212"/>
       <use x="58.398438" xlink:href="#ArialMT-34"/>
      </g>
     </g>
    </g>
    <g id="ytick_2">
     <g id="line2d_7">
      <path clip-path="url(#p0831e513cc)" d="M 61.535 190.642406 
L 297.39 190.642406 
" style="fill:none;stroke:#ffffff;stroke-linecap:round;"/>
     </g>
     <g id="text_7">
      <!-- −3 -->
      <g style="fill:#262626;" transform="translate(39.493281 194.579203)scale(0.11 -0.11)">
       <defs>
        <path d="M 269 1209 
L 831 1284 
Q 928 806 1161 595 
Q 1394 384 1728 384 
Q 2125 384 2398 659 
Q 2672 934 2672 1341 
Q 2672 1728 2419 1979 
Q 2166 2231 1775 2231 
Q 1616 2231 1378 2169 
L 1441 2663 
Q 1497 2656 1531 2656 
Q 1891 2656 2178 2843 
Q 2466 3031 2466 3422 
Q 2466 3731 2256 3934 
Q 2047 4138 1716 4138 
Q 1388 4138 1169 3931 
Q 950 3725 888 3313 
L 325 3413 
Q 428 3978 793 4289 
Q 1159 4600 1703 4600 
Q 2078 4600 2393 4439 
Q 2709 4278 2876 4000 
Q 3044 3722 3044 3409 
Q 3044 3113 2884 2869 
Q 2725 2625 2413 2481 
Q 2819 2388 3044 2092 
Q 3269 1797 3269 1353 
Q 3269 753 2831 336 
Q 2394 -81 1725 -81 
Q 1122 -81 723 278 
Q 325 638 269 1209 
z
" id="ArialMT-33" transform="scale(0.015625)"/>
       </defs>
       <use xlink:href="#ArialMT-2212"/>
       <use x="58.398438" xlink:href="#ArialMT-33"/>
      </g>
     </g>
    </g>
    <g id="ytick_3">
     <g id="line2d_8">
      <path clip-path="url(#p0831e513cc)" d="M 61.535 158.58349 
L 297.39 158.58349 
" style="fill:none;stroke:#ffffff;stroke-linecap:round;"/>
     </g>
     <g id="text_8">
      <!-- −2 -->
      <g style="fill:#262626;" transform="translate(39.493281 162.520287)scale(0.11 -0.11)">
       <use xlink:href="#ArialMT-2212"/>
       <use x="58.398438" xlink:href="#ArialMT-32"/>
      </g>
     </g>
    </g>
    <g id="ytick_4">
     <g id="line2d_9">
      <path clip-path="url(#p0831e513cc)" d="M 61.535 126.524574 
L 297.39 126.524574 
" style="fill:none;stroke:#ffffff;stroke-linecap:round;"/>
     </g>
     <g id="text_9">
      <!-- −1 -->
      <g style="fill:#262626;" transform="translate(39.493281 130.461371)scale(0.11 -0.11)">
       <defs>
        <path d="M 2384 0 
L 1822 0 
L 1822 3584 
Q 1619 3391 1289 3197 
Q 959 3003 697 2906 
L 697 3450 
Q 1169 3672 1522 3987 
Q 1875 4303 2022 4600 
L 2384 4600 
L 2384 0 
z
" id="ArialMT-31" transform="scale(0.015625)"/>
       </defs>
       <use xlink:href="#ArialMT-2212"/>
       <use x="58.398438" xlink:href="#ArialMT-31"/>
      </g>
     </g>
    </g>
    <g id="ytick_5">
     <g id="line2d_10">
      <path clip-path="url(#p0831e513cc)" d="M 61.535 94.465658 
L 297.39 94.465658 
" style="fill:none;stroke:#ffffff;stroke-linecap:round;"/>
     </g>
     <g id="text_10">
      <!-- 0 -->
      <g style="fill:#262626;" transform="translate(45.917969 98.402455)scale(0.11 -0.11)">
       <use xlink:href="#ArialMT-30"/>
      </g>
     </g>
    </g>
    <g id="ytick_6">
     <g id="line2d_11">
      <path clip-path="url(#p0831e513cc)" d="M 61.535 62.406742 
L 297.39 62.406742 
" style="fill:none;stroke:#ffffff;stroke-linecap:round;"/>
     </g>
     <g id="text_11">
      <!-- 1 -->
      <g style="fill:#262626;" transform="translate(45.917969 66.343539)scale(0.11 -0.11)">
       <use xlink:href="#ArialMT-31"/>
      </g>
     </g>
    </g>
    <g id="ytick_7">
     <g id="line2d_12">
      <path clip-path="url(#p0831e513cc)" d="M 61.535 30.347826 
L 297.39 30.347826 
" style="fill:none;stroke:#ffffff;stroke-linecap:round;"/>
     </g>
     <g id="text_12">
      <!-- 2 -->
      <g style="fill:#262626;" transform="translate(45.917969 34.284623)scale(0.11 -0.11)">
       <use xlink:href="#ArialMT-32"/>
      </g>
     </g>
    </g>
    <g id="text_13">
     <!-- $\log_{10}(|\Phi _{x_t}(x)|)$ -->
     <g style="fill:#262626;" transform="translate(29.893281 205.213864)rotate(-90)scale(0.2 -0.2)">
      <defs>
       <path d="M 603 4863 
L 1178 4863 
L 1178 0 
L 603 0 
L 603 4863 
z
" id="DejaVuSans-6c" transform="scale(0.015625)"/>
       <path d="M 1959 3097 
Q 1497 3097 1228 2736 
Q 959 2375 959 1747 
Q 959 1119 1226 758 
Q 1494 397 1959 397 
Q 2419 397 2687 759 
Q 2956 1122 2956 1747 
Q 2956 2369 2687 2733 
Q 2419 3097 1959 3097 
z
M 1959 3584 
Q 2709 3584 3137 3096 
Q 3566 2609 3566 1747 
Q 3566 888 3137 398 
Q 2709 -91 1959 -91 
Q 1206 -91 779 398 
Q 353 888 353 1747 
Q 353 2609 779 3096 
Q 1206 3584 1959 3584 
z
" id="DejaVuSans-6f" transform="scale(0.015625)"/>
       <path d="M 2906 1791 
Q 2906 2416 2648 2759 
Q 2391 3103 1925 3103 
Q 1463 3103 1205 2759 
Q 947 2416 947 1791 
Q 947 1169 1205 825 
Q 1463 481 1925 481 
Q 2391 481 2648 825 
Q 2906 1169 2906 1791 
z
M 3481 434 
Q 3481 -459 3084 -895 
Q 2688 -1331 1869 -1331 
Q 1566 -1331 1297 -1286 
Q 1028 -1241 775 -1147 
L 775 -588 
Q 1028 -725 1275 -790 
Q 1522 -856 1778 -856 
Q 2344 -856 2625 -561 
Q 2906 -266 2906 331 
L 2906 616 
Q 2728 306 2450 153 
Q 2172 0 1784 0 
Q 1141 0 747 490 
Q 353 981 353 1791 
Q 353 2603 747 3093 
Q 1141 3584 1784 3584 
Q 2172 3584 2450 3431 
Q 2728 3278 2906 2969 
L 2906 3500 
L 3481 3500 
L 3481 434 
z
" id="DejaVuSans-67" transform="scale(0.015625)"/>
       <path d="M 794 531 
L 1825 531 
L 1825 4091 
L 703 3866 
L 703 4441 
L 1819 4666 
L 2450 4666 
L 2450 531 
L 3481 531 
L 3481 0 
L 794 0 
L 794 531 
z
" id="DejaVuSans-31" transform="scale(0.015625)"/>
       <path d="M 2034 4250 
Q 1547 4250 1301 3770 
Q 1056 3291 1056 2328 
Q 1056 1369 1301 889 
Q 1547 409 2034 409 
Q 2525 409 2770 889 
Q 3016 1369 3016 2328 
Q 3016 3291 2770 3770 
Q 2525 4250 2034 4250 
z
M 2034 4750 
Q 2819 4750 3233 4129 
Q 3647 3509 3647 2328 
Q 3647 1150 3233 529 
Q 2819 -91 2034 -91 
Q 1250 -91 836 529 
Q 422 1150 422 2328 
Q 422 3509 836 4129 
Q 1250 4750 2034 4750 
z
" id="DejaVuSans-30" transform="scale(0.015625)"/>
       <path d="M 1984 4856 
Q 1566 4138 1362 3434 
Q 1159 2731 1159 2009 
Q 1159 1288 1364 580 
Q 1569 -128 1984 -844 
L 1484 -844 
Q 1016 -109 783 600 
Q 550 1309 550 2009 
Q 550 2706 781 3412 
Q 1013 4119 1484 4856 
L 1984 4856 
z
" id="DejaVuSans-28" transform="scale(0.015625)"/>
       <path d="M 1344 4891 
L 1344 -1509 
L 813 -1509 
L 813 4891 
L 1344 4891 
z
" id="DejaVuSans-7c" transform="scale(0.015625)"/>
       <path d="M 2206 3644 
Q 1738 3578 1431 3306 
Q 1025 2947 1025 2328 
Q 1025 1713 1431 1353 
Q 1738 1081 2206 1016 
L 2206 3644 
z
M 2838 1016 
Q 3306 1081 3613 1353 
Q 4013 1713 4013 2328 
Q 4013 2947 3613 3306 
Q 3306 3578 2838 3644 
L 2838 1016 
z
M 2206 494 
Q 1444 563 950 981 
Q 359 1481 359 2328 
Q 359 3175 950 3678 
Q 1441 4100 2206 4169 
L 2206 4666 
L 2838 4666 
L 2838 4169 
Q 3600 4097 4091 3678 
Q 4678 3175 4678 2328 
Q 4678 1484 4091 981 
Q 3600 563 2838 491 
L 2838 0 
L 2206 0 
L 2206 494 
z
" id="DejaVuSans-3a6" transform="scale(0.015625)"/>
       <path d="M 3841 3500 
L 2234 1784 
L 3219 0 
L 2559 0 
L 1819 1388 
L 531 0 
L -166 0 
L 1556 1844 
L 641 3500 
L 1300 3500 
L 1972 2234 
L 3144 3500 
L 3841 3500 
z
" id="DejaVuSans-Oblique-78" transform="scale(0.015625)"/>
       <path d="M 2706 3500 
L 2619 3053 
L 1472 3053 
L 1100 1153 
Q 1081 1047 1072 975 
Q 1063 903 1063 863 
Q 1063 663 1183 572 
Q 1303 481 1569 481 
L 2150 481 
L 2053 0 
L 1503 0 
Q 991 0 739 200 
Q 488 400 488 806 
Q 488 878 497 964 
Q 506 1050 525 1153 
L 897 3053 
L 409 3053 
L 500 3500 
L 978 3500 
L 1172 4494 
L 1747 4494 
L 1556 3500 
L 2706 3500 
z
" id="DejaVuSans-Oblique-74" transform="scale(0.015625)"/>
       <path d="M 513 4856 
L 1013 4856 
Q 1481 4119 1714 3412 
Q 1947 2706 1947 2009 
Q 1947 1309 1714 600 
Q 1481 -109 1013 -844 
L 513 -844 
Q 928 -128 1133 580 
Q 1338 1288 1338 2009 
Q 1338 2731 1133 3434 
Q 928 4138 513 4856 
z
" id="DejaVuSans-29" transform="scale(0.015625)"/>
      </defs>
      <use transform="translate(0 0.578125)" xlink:href="#DejaVuSans-6c"/>
      <use transform="translate(27.783203 0.578125)" xlink:href="#DejaVuSans-6f"/>
      <use transform="translate(88.964844 0.578125)" xlink:href="#DejaVuSans-67"/>
      <use transform="translate(153.398438 -15.828125)scale(0.7)" xlink:href="#DejaVuSans-31"/>
      <use transform="translate(197.93457 -15.828125)scale(0.7)" xlink:href="#DejaVuSans-30"/>
      <use transform="translate(245.205078 0.578125)" xlink:href="#DejaVuSans-28"/>
      <use transform="translate(284.21875 0.578125)" xlink:href="#DejaVuSans-7c"/>
      <use transform="translate(317.910156 0.578125)" xlink:href="#DejaVuSans-3a6"/>
      <use transform="translate(397.578125 -15.828125)scale(0.7)" xlink:href="#DejaVuSans-Oblique-78"/>
      <use transform="translate(439.003906 -27.3125)scale(0.49)" xlink:href="#DejaVuSans-Oblique-74"/>
      <use transform="translate(462.864746 0.578125)" xlink:href="#DejaVuSans-28"/>
      <use transform="translate(501.878418 0.578125)" xlink:href="#DejaVuSans-Oblique-78"/>
      <use transform="translate(561.058105 0.578125)" xlink:href="#DejaVuSans-29"/>
      <use transform="translate(600.071777 0.578125)" xlink:href="#DejaVuSans-7c"/>
      <use transform="translate(633.763184 0.578125)" xlink:href="#DejaVuSans-29"/>
     </g>
    </g>
   </g>
   <g id="line2d_13">
    <path clip-path="url(#p0831e513cc)" d="M 72.255682 84.063232 
L 85.656534 57.804358 
L 99.057386 177.080316 
L 112.458239 171.576704 
L 125.859091 172.88916 
L 139.259943 242.135512 
L 152.660795 242.134539 
L 166.061648 242.135038 
L 179.4625 242.150652 
L 192.863352 241.890633 
L 206.264205 243.65374 
L 219.665057 228.35775 
L 233.065909 221.24552 
L 246.466761 166.778383 
L 259.867614 141.831697 
L 273.268466 109.772781 
L 286.669318 93.009855 
" style="fill:none;stroke:#4c72b0;stroke-dasharray:9,3;stroke-dashoffset:0;stroke-width:1.5;"/>
   </g>
   <g id="line2d_14">
    <path clip-path="url(#p0831e513cc)" d="M 72.255682 77.095658 
L 85.656534 56.832174 
L 99.057386 69.581585 
L 112.458239 70.824495 
L 125.859091 72.362112 
L 139.259943 80.966461 
L 152.660795 69.971104 
L 166.061648 69.971104 
L 179.4625 69.971102 
L 192.863352 69.971096 
L 206.264205 69.970559 
L 219.665057 69.974299 
L 233.065909 69.932675 
L 246.466761 69.956847 
L 259.867614 70.325922 
L 273.268466 43.468984 
L 286.669318 32.173988 
" style="fill:none;stroke:#dd8452;stroke-dasharray:12,7.5;stroke-dashoffset:0;stroke-width:1.5;"/>
   </g>
   <g id="line2d_15">
    <path clip-path="url(#p0831e513cc)" d="M 72.255682 84.539195 
L 85.656534 137.984549 
L 99.057386 130.676514 
L 112.458239 128.617364 
L 125.859091 130.583511 
L 139.259943 130.57377 
L 152.660795 130.573672 
L 166.061648 130.573673 
L 179.4625 130.57369 
L 192.863352 130.573384 
L 206.264205 130.572495 
L 219.665057 130.578285 
L 233.065909 130.499915 
L 246.466761 130.438354 
M 273.268466 105.767381 
L 286.669318 53.562997 
" style="fill:none;stroke:#55a868;stroke-dasharray:1.5,0;stroke-dashoffset:0;stroke-width:1.5;"/>
   </g>
   <g id="patch_3">
    <path d="M 61.535 254.227728 
L 61.535 21.6 
" style="fill:none;stroke:#ffffff;stroke-linecap:square;stroke-linejoin:miter;stroke-width:1.25;"/>
   </g>
   <g id="patch_4">
    <path d="M 297.39 254.227728 
L 297.39 21.6 
" style="fill:none;stroke:#ffffff;stroke-linecap:square;stroke-linejoin:miter;stroke-width:1.25;"/>
   </g>
   <g id="patch_5">
    <path d="M 61.535 254.227728 
L 297.39 254.227728 
" style="fill:none;stroke:#ffffff;stroke-linecap:square;stroke-linejoin:miter;stroke-width:1.25;"/>
   </g>
   <g id="patch_6">
    <path d="M 61.535 21.6 
L 297.39 21.6 
" style="fill:none;stroke:#ffffff;stroke-linecap:square;stroke-linejoin:miter;stroke-width:1.25;"/>
   </g>
  </g>
  <g id="axes_2">
   <g id="patch_7">
    <path d="M 339.44 254.227728 
L 575.295 254.227728 
L 575.295 21.6 
L 339.44 21.6 
z
" style="fill:#eaeaf2;"/>
   </g>
   <g id="matplotlib.axis_3">
    <g id="xtick_6">
     <g id="line2d_16">
      <path clip-path="url(#pc7509e1af9)" d="M 350.160682 254.227728 
L 350.160682 21.6 
" style="fill:none;stroke:#ffffff;stroke-linecap:round;"/>
     </g>
     <g id="text_14">
      <!-- 0 -->
      <g style="fill:#262626;" transform="translate(347.102166 271.601322)scale(0.11 -0.11)">
       <use xlink:href="#ArialMT-30"/>
      </g>
     </g>
    </g>
    <g id="xtick_7">
     <g id="line2d_17">
      <path clip-path="url(#pc7509e1af9)" d="M 401.08392 254.227728 
L 401.08392 21.6 
" style="fill:none;stroke:#ffffff;stroke-linecap:round;"/>
     </g>
     <g id="text_15">
      <!-- 2 -->
      <g style="fill:#262626;" transform="translate(398.025405 271.601322)scale(0.11 -0.11)">
       <use xlink:href="#ArialMT-32"/>
      </g>
     </g>
    </g>
    <g id="xtick_8">
     <g id="line2d_18">
      <path clip-path="url(#pc7509e1af9)" d="M 452.007159 254.227728 
L 452.007159 21.6 
" style="fill:none;stroke:#ffffff;stroke-linecap:round;"/>
     </g>
     <g id="text_16">
      <!-- 4 -->
      <g style="fill:#262626;" transform="translate(448.948643 271.601322)scale(0.11 -0.11)">
       <use xlink:href="#ArialMT-34"/>
      </g>
     </g>
    </g>
    <g id="xtick_9">
     <g id="line2d_19">
      <path clip-path="url(#pc7509e1af9)" d="M 502.930398 254.227728 
L 502.930398 21.6 
" style="fill:none;stroke:#ffffff;stroke-linecap:round;"/>
     </g>
     <g id="text_17">
      <!-- 6 -->
      <g style="fill:#262626;" transform="translate(499.871882 271.601322)scale(0.11 -0.11)">
       <use xlink:href="#ArialMT-36"/>
      </g>
     </g>
    </g>
    <g id="xtick_10">
     <g id="line2d_20">
      <path clip-path="url(#pc7509e1af9)" d="M 553.853636 254.227728 
L 553.853636 21.6 
" style="fill:none;stroke:#ffffff;stroke-linecap:round;"/>
     </g>
     <g id="text_18">
      <!-- 8 -->
      <g style="fill:#262626;" transform="translate(550.795121 271.601322)scale(0.11 -0.11)">
       <use xlink:href="#ArialMT-38"/>
      </g>
     </g>
    </g>
   </g>
   <g id="matplotlib.axis_4">
    <g id="ytick_8">
     <g id="line2d_21">
      <path clip-path="url(#pc7509e1af9)" d="M 339.44 240.420046 
L 575.295 240.420046 
" style="fill:none;stroke:#ffffff;stroke-linecap:round;"/>
     </g>
     <g id="text_19">
      <!-- −5 -->
      <g style="fill:#262626;" transform="translate(317.398281 244.356843)scale(0.11 -0.11)">
       <defs>
        <path d="M 266 1200 
L 856 1250 
Q 922 819 1161 601 
Q 1400 384 1738 384 
Q 2144 384 2425 690 
Q 2706 997 2706 1503 
Q 2706 1984 2436 2262 
Q 2166 2541 1728 2541 
Q 1456 2541 1237 2417 
Q 1019 2294 894 2097 
L 366 2166 
L 809 4519 
L 3088 4519 
L 3088 3981 
L 1259 3981 
L 1013 2750 
Q 1425 3038 1878 3038 
Q 2478 3038 2890 2622 
Q 3303 2206 3303 1553 
Q 3303 931 2941 478 
Q 2500 -78 1738 -78 
Q 1113 -78 717 272 
Q 322 622 266 1200 
z
" id="ArialMT-35" transform="scale(0.015625)"/>
       </defs>
       <use xlink:href="#ArialMT-2212"/>
       <use x="58.398438" xlink:href="#ArialMT-35"/>
      </g>
     </g>
    </g>
    <g id="ytick_9">
     <g id="line2d_22">
      <path clip-path="url(#pc7509e1af9)" d="M 339.44 210.862355 
L 575.295 210.862355 
" style="fill:none;stroke:#ffffff;stroke-linecap:round;"/>
     </g>
     <g id="text_20">
      <!-- −4 -->
      <g style="fill:#262626;" transform="translate(317.398281 214.799152)scale(0.11 -0.11)">
       <use xlink:href="#ArialMT-2212"/>
       <use x="58.398438" xlink:href="#ArialMT-34"/>
      </g>
     </g>
    </g>
    <g id="ytick_10">
     <g id="line2d_23">
      <path clip-path="url(#pc7509e1af9)" d="M 339.44 181.304664 
L 575.295 181.304664 
" style="fill:none;stroke:#ffffff;stroke-linecap:round;"/>
     </g>
     <g id="text_21">
      <!-- −3 -->
      <g style="fill:#262626;" transform="translate(317.398281 185.241461)scale(0.11 -0.11)">
       <use xlink:href="#ArialMT-2212"/>
       <use x="58.398438" xlink:href="#ArialMT-33"/>
      </g>
     </g>
    </g>
    <g id="ytick_11">
     <g id="line2d_24">
      <path clip-path="url(#pc7509e1af9)" d="M 339.44 151.746973 
L 575.295 151.746973 
" style="fill:none;stroke:#ffffff;stroke-linecap:round;"/>
     </g>
     <g id="text_22">
      <!-- −2 -->
      <g style="fill:#262626;" transform="translate(317.398281 155.68377)scale(0.11 -0.11)">
       <use xlink:href="#ArialMT-2212"/>
       <use x="58.398438" xlink:href="#ArialMT-32"/>
      </g>
     </g>
    </g>
    <g id="ytick_12">
     <g id="line2d_25">
      <path clip-path="url(#pc7509e1af9)" d="M 339.44 122.189282 
L 575.295 122.189282 
" style="fill:none;stroke:#ffffff;stroke-linecap:round;"/>
     </g>
     <g id="text_23">
      <!-- −1 -->
      <g style="fill:#262626;" transform="translate(317.398281 126.126079)scale(0.11 -0.11)">
       <use xlink:href="#ArialMT-2212"/>
       <use x="58.398438" xlink:href="#ArialMT-31"/>
      </g>
     </g>
    </g>
    <g id="ytick_13">
     <g id="line2d_26">
      <path clip-path="url(#pc7509e1af9)" d="M 339.44 92.631591 
L 575.295 92.631591 
" style="fill:none;stroke:#ffffff;stroke-linecap:round;"/>
     </g>
     <g id="text_24">
      <!-- 0 -->
      <g style="fill:#262626;" transform="translate(323.822969 96.568388)scale(0.11 -0.11)">
       <use xlink:href="#ArialMT-30"/>
      </g>
     </g>
    </g>
    <g id="ytick_14">
     <g id="line2d_27">
      <path clip-path="url(#pc7509e1af9)" d="M 339.44 63.0739 
L 575.295 63.0739 
" style="fill:none;stroke:#ffffff;stroke-linecap:round;"/>
     </g>
     <g id="text_25">
      <!-- 1 -->
      <g style="fill:#262626;" transform="translate(323.822969 67.010697)scale(0.11 -0.11)">
       <use xlink:href="#ArialMT-31"/>
      </g>
     </g>
    </g>
    <g id="ytick_15">
     <g id="line2d_28">
      <path clip-path="url(#pc7509e1af9)" d="M 339.44 33.516209 
L 575.295 33.516209 
" style="fill:none;stroke:#ffffff;stroke-linecap:round;"/>
     </g>
     <g id="text_26">
      <!-- 2 -->
      <g style="fill:#262626;" transform="translate(323.822969 37.453006)scale(0.11 -0.11)">
       <use xlink:href="#ArialMT-32"/>
      </g>
     </g>
    </g>
   </g>
   <g id="line2d_29">
    <path clip-path="url(#pc7509e1af9)" d="M 350.160682 243.65374 
L 363.561534 207.309392 
L 376.962386 167.770126 
L 390.363239 149.346715 
L 403.764091 220.402839 
L 417.164943 220.40247 
L 430.565795 220.402323 
L 443.966648 220.403012 
L 457.3675 220.416804 
L 470.768352 220.595032 
L 484.169205 218.417885 
M 524.371761 171.064691 
L 537.772614 132.609248 
L 551.173466 100.187121 
L 564.574318 73.493866 
" style="fill:none;stroke:#4c72b0;stroke-dasharray:9,3;stroke-dashoffset:0;stroke-width:1.5;"/>
   </g>
   <g id="line2d_30">
    <path clip-path="url(#pc7509e1af9)" d="M 350.160682 90.137331 
L 363.561534 98.583552 
L 376.962386 103.947251 
L 390.363239 105.85767 
L 403.764091 102.993108 
L 417.164943 102.993122 
L 430.565795 102.993122 
L 443.966648 102.993129 
L 457.3675 102.993116 
L 470.768352 102.992519 
L 484.169205 102.992005 
L 497.570057 103.02591 
L 510.970909 102.734585 
L 524.371761 107.223985 
L 537.772614 89.949727 
L 551.173466 75.58008 
L 564.574318 32.173988 
" style="fill:none;stroke:#dd8452;stroke-dasharray:12,7.5;stroke-dashoffset:0;stroke-width:1.5;"/>
   </g>
   <g id="line2d_31">
    <path clip-path="url(#pc7509e1af9)" d="M 350.160682 88.159247 
L 363.561534 151.169977 
L 376.962386 154.279745 
L 390.363239 213.866196 
L 403.764091 155.33159 
L 417.164943 155.330884 
L 430.565795 155.330876 
L 443.966648 155.330859 
L 457.3675 155.330714 
L 470.768352 155.332015 
L 484.169205 155.34408 
L 497.570057 155.093799 
L 510.970909 155.168 
L 524.371761 138.139098 
L 537.772614 127.404397 
L 551.173466 84.477832 
L 564.574318 77.186767 
" style="fill:none;stroke:#55a868;stroke-dasharray:1.5,0;stroke-dashoffset:0;stroke-width:1.5;"/>
   </g>
   <g id="patch_8">
    <path d="M 339.44 254.227728 
L 339.44 21.6 
" style="fill:none;stroke:#ffffff;stroke-linecap:square;stroke-linejoin:miter;stroke-width:1.25;"/>
   </g>
   <g id="patch_9">
    <path d="M 575.295 254.227728 
L 575.295 21.6 
" style="fill:none;stroke:#ffffff;stroke-linecap:square;stroke-linejoin:miter;stroke-width:1.25;"/>
   </g>
   <g id="patch_10">
    <path d="M 339.44 254.227728 
L 575.295 254.227728 
" style="fill:none;stroke:#ffffff;stroke-linecap:square;stroke-linejoin:miter;stroke-width:1.25;"/>
   </g>
   <g id="patch_11">
    <path d="M 339.44 21.6 
L 575.295 21.6 
" style="fill:none;stroke:#ffffff;stroke-linecap:square;stroke-linejoin:miter;stroke-width:1.25;"/>
   </g>
  </g>
  <g id="axes_3">
   <g id="patch_12">
    <path d="M 617.345 254.227728 
L 853.2 254.227728 
L 853.2 21.6 
L 617.345 21.6 
z
" style="fill:#eaeaf2;"/>
   </g>
   <g id="matplotlib.axis_5">
    <g id="xtick_11">
     <g id="line2d_32">
      <path clip-path="url(#pb2e21910e6)" d="M 628.065682 254.227728 
L 628.065682 21.6 
" style="fill:none;stroke:#ffffff;stroke-linecap:round;"/>
     </g>
     <g id="text_27">
      <!-- 0 -->
      <g style="fill:#262626;" transform="translate(625.007166 271.601322)scale(0.11 -0.11)">
       <use xlink:href="#ArialMT-30"/>
      </g>
     </g>
    </g>
    <g id="xtick_12">
     <g id="line2d_33">
      <path clip-path="url(#pb2e21910e6)" d="M 678.98892 254.227728 
L 678.98892 21.6 
" style="fill:none;stroke:#ffffff;stroke-linecap:round;"/>
     </g>
     <g id="text_28">
      <!-- 2 -->
      <g style="fill:#262626;" transform="translate(675.930405 271.601322)scale(0.11 -0.11)">
       <use xlink:href="#ArialMT-32"/>
      </g>
     </g>
    </g>
    <g id="xtick_13">
     <g id="line2d_34">
      <path clip-path="url(#pb2e21910e6)" d="M 729.912159 254.227728 
L 729.912159 21.6 
" style="fill:none;stroke:#ffffff;stroke-linecap:round;"/>
     </g>
     <g id="text_29">
      <!-- 4 -->
      <g style="fill:#262626;" transform="translate(726.853643 271.601322)scale(0.11 -0.11)">
       <use xlink:href="#ArialMT-34"/>
      </g>
     </g>
    </g>
    <g id="xtick_14">
     <g id="line2d_35">
      <path clip-path="url(#pb2e21910e6)" d="M 780.835398 254.227728 
L 780.835398 21.6 
" style="fill:none;stroke:#ffffff;stroke-linecap:round;"/>
     </g>
     <g id="text_30">
      <!-- 6 -->
      <g style="fill:#262626;" transform="translate(777.776882 271.601322)scale(0.11 -0.11)">
       <use xlink:href="#ArialMT-36"/>
      </g>
     </g>
    </g>
    <g id="xtick_15">
     <g id="line2d_36">
      <path clip-path="url(#pb2e21910e6)" d="M 831.758636 254.227728 
L 831.758636 21.6 
" style="fill:none;stroke:#ffffff;stroke-linecap:round;"/>
     </g>
     <g id="text_31">
      <!-- 8 -->
      <g style="fill:#262626;" transform="translate(828.700121 271.601322)scale(0.11 -0.11)">
       <use xlink:href="#ArialMT-38"/>
      </g>
     </g>
    </g>
   </g>
   <g id="matplotlib.axis_6">
    <g id="ytick_16">
     <g id="line2d_37">
      <path clip-path="url(#pb2e21910e6)" d="M 617.345 221.102039 
L 853.2 221.102039 
" style="fill:none;stroke:#ffffff;stroke-linecap:round;"/>
     </g>
     <g id="text_32">
      <!-- −1.0 -->
      <g style="fill:#262626;" transform="translate(586.130312 225.038836)scale(0.11 -0.11)">
       <defs>
        <path d="M 581 0 
L 581 641 
L 1222 641 
L 1222 0 
L 581 0 
z
" id="ArialMT-2e" transform="scale(0.015625)"/>
       </defs>
       <use xlink:href="#ArialMT-2212"/>
       <use x="58.398438" xlink:href="#ArialMT-31"/>
       <use x="114.013672" xlink:href="#ArialMT-2e"/>
       <use x="141.796875" xlink:href="#ArialMT-30"/>
      </g>
     </g>
    </g>
    <g id="ytick_17">
     <g id="line2d_38">
      <path clip-path="url(#pb2e21910e6)" d="M 617.345 182.157782 
L 853.2 182.157782 
" style="fill:none;stroke:#ffffff;stroke-linecap:round;"/>
     </g>
     <g id="text_33">
      <!-- −0.5 -->
      <g style="fill:#262626;" transform="translate(586.130312 186.094579)scale(0.11 -0.11)">
       <use xlink:href="#ArialMT-2212"/>
       <use x="58.398438" xlink:href="#ArialMT-30"/>
       <use x="114.013672" xlink:href="#ArialMT-2e"/>
       <use x="141.796875" xlink:href="#ArialMT-35"/>
      </g>
     </g>
    </g>
    <g id="ytick_18">
     <g id="line2d_39">
      <path clip-path="url(#pb2e21910e6)" d="M 617.345 143.213525 
L 853.2 143.213525 
" style="fill:none;stroke:#ffffff;stroke-linecap:round;"/>
     </g>
     <g id="text_34">
      <!-- 0.0 -->
      <g style="fill:#262626;" transform="translate(592.555 147.150322)scale(0.11 -0.11)">
       <use xlink:href="#ArialMT-30"/>
       <use x="55.615234" xlink:href="#ArialMT-2e"/>
       <use x="83.398438" xlink:href="#ArialMT-30"/>
      </g>
     </g>
    </g>
    <g id="ytick_19">
     <g id="line2d_40">
      <path clip-path="url(#pb2e21910e6)" d="M 617.345 104.269268 
L 853.2 104.269268 
" style="fill:none;stroke:#ffffff;stroke-linecap:round;"/>
     </g>
     <g id="text_35">
      <!-- 0.5 -->
      <g style="fill:#262626;" transform="translate(592.555 108.206065)scale(0.11 -0.11)">
       <use xlink:href="#ArialMT-30"/>
       <use x="55.615234" xlink:href="#ArialMT-2e"/>
       <use x="83.398438" xlink:href="#ArialMT-35"/>
      </g>
     </g>
    </g>
    <g id="ytick_20">
     <g id="line2d_41">
      <path clip-path="url(#pb2e21910e6)" d="M 617.345 65.325011 
L 853.2 65.325011 
" style="fill:none;stroke:#ffffff;stroke-linecap:round;"/>
     </g>
     <g id="text_36">
      <!-- 1.0 -->
      <g style="fill:#262626;" transform="translate(592.555 69.261808)scale(0.11 -0.11)">
       <use xlink:href="#ArialMT-31"/>
       <use x="55.615234" xlink:href="#ArialMT-2e"/>
       <use x="83.398438" xlink:href="#ArialMT-30"/>
      </g>
     </g>
    </g>
    <g id="ytick_21">
     <g id="line2d_42">
      <path clip-path="url(#pb2e21910e6)" d="M 617.345 26.380755 
L 853.2 26.380755 
" style="fill:none;stroke:#ffffff;stroke-linecap:round;"/>
     </g>
     <g id="text_37">
      <!-- 1.5 -->
      <g style="fill:#262626;" transform="translate(592.555 30.317551)scale(0.11 -0.11)">
       <use xlink:href="#ArialMT-31"/>
       <use x="55.615234" xlink:href="#ArialMT-2e"/>
       <use x="83.398438" xlink:href="#ArialMT-35"/>
      </g>
     </g>
    </g>
   </g>
   <g id="line2d_43">
    <path clip-path="url(#pb2e21910e6)" d="M 628.065682 125.237228 
L 641.466534 166.979716 
L 654.867386 70.256542 
L 668.268239 71.478568 
L 681.669091 71.520163 
L 695.069943 71.520647 
L 708.470795 71.520652 
L 721.871648 71.520652 
L 735.2725 71.520652 
L 748.673352 71.520653 
L 762.074205 71.520654 
L 775.475057 71.520722 
L 788.875909 71.520722 
L 802.276761 71.505841 
L 815.677614 71.519369 
L 829.078466 71.071328 
L 842.479318 79.067545 
" style="fill:none;stroke:#4c72b0;stroke-dasharray:9,3;stroke-dashoffset:0;stroke-width:1.5;"/>
   </g>
   <g id="line2d_44">
    <path clip-path="url(#pb2e21910e6)" d="M 628.065682 122.931829 
L 641.466534 114.926509 
L 654.867386 55.974085 
L 668.268239 34.361581 
L 681.669091 34.191588 
L 695.069943 34.189229 
L 708.470795 34.189206 
L 721.871648 34.189205 
L 735.2725 34.189205 
L 748.673352 34.189206 
L 762.074205 34.189203 
L 775.475057 34.18917 
L 788.875909 34.18914 
L 802.276761 34.190636 
L 815.677614 34.207096 
L 829.078466 33.909063 
L 842.479318 32.173988 
" style="fill:none;stroke:#dd8452;stroke-dasharray:12,7.5;stroke-dashoffset:0;stroke-width:1.5;"/>
   </g>
   <g id="line2d_45">
    <path clip-path="url(#pb2e21910e6)" d="M 628.065682 132.761181 
L 641.466534 243.65374 
L 654.867386 239.652789 
L 668.268239 126.515001 
L 681.669091 126.056295 
L 695.069943 126.052285 
L 708.470795 126.052245 
L 721.871648 126.052245 
L 735.2725 126.052245 
L 748.673352 126.052244 
L 762.074205 126.052242 
L 775.475057 126.052332 
L 788.875909 126.053689 
L 802.276761 126.051428 
L 815.677614 125.961103 
L 829.078466 125.961103 
L 842.479318 116.229811 
" style="fill:none;stroke:#55a868;stroke-dasharray:1.5,0;stroke-dashoffset:0;stroke-width:1.5;"/>
   </g>
   <g id="patch_13">
    <path d="M 617.345 254.227728 
L 617.345 21.6 
" style="fill:none;stroke:#ffffff;stroke-linecap:square;stroke-linejoin:miter;stroke-width:1.25;"/>
   </g>
   <g id="patch_14">
    <path d="M 853.2 254.227728 
L 853.2 21.6 
" style="fill:none;stroke:#ffffff;stroke-linecap:square;stroke-linejoin:miter;stroke-width:1.25;"/>
   </g>
   <g id="patch_15">
    <path d="M 617.345 254.227728 
L 853.2 254.227728 
" style="fill:none;stroke:#ffffff;stroke-linecap:square;stroke-linejoin:miter;stroke-width:1.25;"/>
   </g>
   <g id="patch_16">
    <path d="M 617.345 21.6 
L 853.2 21.6 
" style="fill:none;stroke:#ffffff;stroke-linecap:square;stroke-linejoin:miter;stroke-width:1.25;"/>
   </g>
  </g>
  <g id="axes_4">
   <g id="patch_17">
    <path d="M 61.535 518.7 
L 297.39 518.7 
L 297.39 286.072272 
L 61.535 286.072272 
z
" style="fill:#eaeaf2;"/>
   </g>
   <g id="matplotlib.axis_7">
    <g id="xtick_16">
     <g id="line2d_46">
      <path clip-path="url(#pc1d5f2deb2)" d="M 72.255682 518.7 
L 72.255682 286.072272 
" style="fill:none;stroke:#ffffff;stroke-linecap:round;"/>
     </g>
     <g id="text_38">
      <!-- 0 -->
      <g style="fill:#262626;" transform="translate(69.197166 536.073594)scale(0.11 -0.11)">
       <use xlink:href="#ArialMT-30"/>
      </g>
     </g>
    </g>
    <g id="xtick_17">
     <g id="line2d_47">
      <path clip-path="url(#pc1d5f2deb2)" d="M 123.17892 518.7 
L 123.17892 286.072272 
" style="fill:none;stroke:#ffffff;stroke-linecap:round;"/>
     </g>
     <g id="text_39">
      <!-- 2 -->
      <g style="fill:#262626;" transform="translate(120.120405 536.073594)scale(0.11 -0.11)">
       <use xlink:href="#ArialMT-32"/>
      </g>
     </g>
    </g>
    <g id="xtick_18">
     <g id="line2d_48">
      <path clip-path="url(#pc1d5f2deb2)" d="M 174.102159 518.7 
L 174.102159 286.072272 
" style="fill:none;stroke:#ffffff;stroke-linecap:round;"/>
     </g>
     <g id="text_40">
      <!-- 4 -->
      <g style="fill:#262626;" transform="translate(171.043643 536.073594)scale(0.11 -0.11)">
       <use xlink:href="#ArialMT-34"/>
      </g>
     </g>
    </g>
    <g id="xtick_19">
     <g id="line2d_49">
      <path clip-path="url(#pc1d5f2deb2)" d="M 225.025398 518.7 
L 225.025398 286.072272 
" style="fill:none;stroke:#ffffff;stroke-linecap:round;"/>
     </g>
     <g id="text_41">
      <!-- 6 -->
      <g style="fill:#262626;" transform="translate(221.966882 536.073594)scale(0.11 -0.11)">
       <use xlink:href="#ArialMT-36"/>
      </g>
     </g>
    </g>
    <g id="xtick_20">
     <g id="line2d_50">
      <path clip-path="url(#pc1d5f2deb2)" d="M 275.948636 518.7 
L 275.948636 286.072272 
" style="fill:none;stroke:#ffffff;stroke-linecap:round;"/>
     </g>
     <g id="text_42">
      <!-- 8 -->
      <g style="fill:#262626;" transform="translate(272.890121 536.073594)scale(0.11 -0.11)">
       <use xlink:href="#ArialMT-38"/>
      </g>
     </g>
    </g>
    <g id="text_43">
     <!-- $\log_{10}(-h)$ -->
     <g style="fill:#262626;" transform="translate(132.3625 557.459844)scale(0.2 -0.2)">
      <defs>
       <path d="M 678 2272 
L 4684 2272 
L 4684 1741 
L 678 1741 
L 678 2272 
z
" id="DejaVuSans-2212" transform="scale(0.015625)"/>
       <path d="M 3566 2113 
L 3156 0 
L 2578 0 
L 2988 2091 
Q 3016 2238 3031 2350 
Q 3047 2463 3047 2528 
Q 3047 2791 2881 2937 
Q 2716 3084 2419 3084 
Q 1956 3084 1617 2771 
Q 1278 2459 1178 1941 
L 800 0 
L 225 0 
L 1172 4863 
L 1747 4863 
L 1375 2950 
Q 1594 3244 1934 3414 
Q 2275 3584 2650 3584 
Q 3113 3584 3367 3334 
Q 3622 3084 3622 2631 
Q 3622 2519 3608 2391 
Q 3594 2263 3566 2113 
z
" id="DejaVuSans-Oblique-68" transform="scale(0.015625)"/>
      </defs>
      <use transform="translate(0 0.015625)" xlink:href="#DejaVuSans-6c"/>
      <use transform="translate(27.783203 0.015625)" xlink:href="#DejaVuSans-6f"/>
      <use transform="translate(88.964844 0.015625)" xlink:href="#DejaVuSans-67"/>
      <use transform="translate(153.398438 -16.390625)scale(0.7)" xlink:href="#DejaVuSans-31"/>
      <use transform="translate(197.93457 -16.390625)scale(0.7)" xlink:href="#DejaVuSans-30"/>
      <use transform="translate(245.205078 0.015625)" xlink:href="#DejaVuSans-28"/>
      <use transform="translate(284.21875 0.015625)" xlink:href="#DejaVuSans-2212"/>
      <use transform="translate(368.007812 0.015625)" xlink:href="#DejaVuSans-Oblique-68"/>
      <use transform="translate(431.386719 0.015625)" xlink:href="#DejaVuSans-29"/>
     </g>
    </g>
   </g>
   <g id="matplotlib.axis_8">
    <g id="ytick_22">
     <g id="line2d_51">
      <path clip-path="url(#pc1d5f2deb2)" d="M 61.535 516.245973 
L 297.39 516.245973 
" style="fill:none;stroke:#ffffff;stroke-linecap:round;"/>
     </g>
     <g id="text_44">
      <!-- −6 -->
      <g style="fill:#262626;" transform="translate(39.493281 520.18277)scale(0.11 -0.11)">
       <use xlink:href="#ArialMT-2212"/>
       <use x="58.398438" xlink:href="#ArialMT-36"/>
      </g>
     </g>
    </g>
    <g id="ytick_23">
     <g id="line2d_52">
      <path clip-path="url(#pc1d5f2deb2)" d="M 61.535 465.243039 
L 297.39 465.243039 
" style="fill:none;stroke:#ffffff;stroke-linecap:round;"/>
     </g>
     <g id="text_45">
      <!-- −4 -->
      <g style="fill:#262626;" transform="translate(39.493281 469.179836)scale(0.11 -0.11)">
       <use xlink:href="#ArialMT-2212"/>
       <use x="58.398438" xlink:href="#ArialMT-34"/>
      </g>
     </g>
    </g>
    <g id="ytick_24">
     <g id="line2d_53">
      <path clip-path="url(#pc1d5f2deb2)" d="M 61.535 414.240105 
L 297.39 414.240105 
" style="fill:none;stroke:#ffffff;stroke-linecap:round;"/>
     </g>
     <g id="text_46">
      <!-- −2 -->
      <g style="fill:#262626;" transform="translate(39.493281 418.176902)scale(0.11 -0.11)">
       <use xlink:href="#ArialMT-2212"/>
       <use x="58.398438" xlink:href="#ArialMT-32"/>
      </g>
     </g>
    </g>
    <g id="ytick_25">
     <g id="line2d_54">
      <path clip-path="url(#pc1d5f2deb2)" d="M 61.535 363.237171 
L 297.39 363.237171 
" style="fill:none;stroke:#ffffff;stroke-linecap:round;"/>
     </g>
     <g id="text_47">
      <!-- 0 -->
      <g style="fill:#262626;" transform="translate(45.917969 367.173968)scale(0.11 -0.11)">
       <use xlink:href="#ArialMT-30"/>
      </g>
     </g>
    </g>
    <g id="ytick_26">
     <g id="line2d_55">
      <path clip-path="url(#pc1d5f2deb2)" d="M 61.535 312.234237 
L 297.39 312.234237 
" style="fill:none;stroke:#ffffff;stroke-linecap:round;"/>
     </g>
     <g id="text_48">
      <!-- 2 -->
      <g style="fill:#262626;" transform="translate(45.917969 316.171034)scale(0.11 -0.11)">
       <use xlink:href="#ArialMT-32"/>
      </g>
     </g>
    </g>
    <g id="text_49">
     <!-- $\log_{10}(|\Phi _{v_t}(x)|)$ -->
     <g style="fill:#262626;" transform="translate(29.893281 469.686136)rotate(-90)scale(0.2 -0.2)">
      <defs>
       <path d="M 459 3500 
L 1069 3500 
L 1581 525 
L 3256 3500 
L 3866 3500 
L 1875 0 
L 1100 0 
L 459 3500 
z
" id="DejaVuSans-Oblique-76" transform="scale(0.015625)"/>
      </defs>
      <use transform="translate(0 0.578125)" xlink:href="#DejaVuSans-6c"/>
      <use transform="translate(27.783203 0.578125)" xlink:href="#DejaVuSans-6f"/>
      <use transform="translate(88.964844 0.578125)" xlink:href="#DejaVuSans-67"/>
      <use transform="translate(153.398438 -15.828125)scale(0.7)" xlink:href="#DejaVuSans-31"/>
      <use transform="translate(197.93457 -15.828125)scale(0.7)" xlink:href="#DejaVuSans-30"/>
      <use transform="translate(245.205078 0.578125)" xlink:href="#DejaVuSans-28"/>
      <use transform="translate(284.21875 0.578125)" xlink:href="#DejaVuSans-7c"/>
      <use transform="translate(317.910156 0.578125)" xlink:href="#DejaVuSans-3a6"/>
      <use transform="translate(397.578125 -15.828125)scale(0.7)" xlink:href="#DejaVuSans-Oblique-76"/>
      <use transform="translate(439.003906 -27.3125)scale(0.49)" xlink:href="#DejaVuSans-Oblique-74"/>
      <use transform="translate(462.864746 0.578125)" xlink:href="#DejaVuSans-28"/>
      <use transform="translate(501.878418 0.578125)" xlink:href="#DejaVuSans-Oblique-78"/>
      <use transform="translate(561.058105 0.578125)" xlink:href="#DejaVuSans-29"/>
      <use transform="translate(600.071777 0.578125)" xlink:href="#DejaVuSans-7c"/>
      <use transform="translate(633.763184 0.578125)" xlink:href="#DejaVuSans-29"/>
     </g>
    </g>
   </g>
   <g id="line2d_56">
    <path clip-path="url(#pc1d5f2deb2)" d="M 72.255682 345.319839 
L 85.656534 371.96633 
L 99.057386 429.08506 
L 112.458239 399.330095 
L 125.859091 412.090373 
L 139.259943 473.023399 
L 152.660795 473.022985 
L 166.061648 473.026276 
L 179.4625 472.979788 
L 192.863352 472.765223 
L 206.264205 476.618224 
L 219.665057 508.126012 
L 233.065909 437.718378 
L 246.466761 410.94807 
L 259.867614 431.621611 
L 273.268466 374.315872 
L 286.669318 329.91509 
" style="fill:none;stroke:#4c72b0;stroke-dasharray:9,3;stroke-dashoffset:0;stroke-width:1.5;"/>
   </g>
   <g id="line2d_57">
    <path clip-path="url(#pc1d5f2deb2)" d="M 72.255682 345.361153 
L 85.656534 398.679345 
L 99.057386 331.501562 
L 112.458239 327.125397 
L 125.859091 327.262325 
L 139.259943 336.698297 
L 152.660795 326.513399 
L 166.061648 326.513398 
L 179.4625 326.513396 
L 192.863352 326.513393 
L 206.264205 326.512964 
L 219.665057 326.515961 
L 233.065909 326.482644 
L 246.466761 326.493043 
L 259.867614 326.919868 
L 273.268466 305.333789 
L 286.669318 296.64626 
" style="fill:none;stroke:#dd8452;stroke-dasharray:12,7.5;stroke-dashoffset:0;stroke-width:1.5;"/>
   </g>
   <g id="line2d_58">
    <path clip-path="url(#pc1d5f2deb2)" d="M 72.255682 345.378805 
L 85.656534 389.252649 
L 99.057386 408.063264 
L 112.458239 405.126127 
L 125.859091 406.668977 
L 139.259943 406.675399 
L 152.660795 406.675464 
L 166.061648 406.675469 
L 179.4625 406.675491 
L 192.863352 406.674786 
L 206.264205 406.67635 
L 219.665057 406.68502 
L 233.065909 406.277228 
L 246.466761 408.87189 
L 259.867614 411.932513 
L 273.268466 380.711357 
L 286.669318 336.822634 
" style="fill:none;stroke:#55a868;stroke-dasharray:1.5,0;stroke-dashoffset:0;stroke-width:1.5;"/>
   </g>
   <g id="patch_18">
    <path d="M 61.535 518.7 
L 61.535 286.072272 
" style="fill:none;stroke:#ffffff;stroke-linecap:square;stroke-linejoin:miter;stroke-width:1.25;"/>
   </g>
   <g id="patch_19">
    <path d="M 297.39 518.7 
L 297.39 286.072272 
" style="fill:none;stroke:#ffffff;stroke-linecap:square;stroke-linejoin:miter;stroke-width:1.25;"/>
   </g>
   <g id="patch_20">
    <path d="M 61.535 518.7 
L 297.39 518.7 
" style="fill:none;stroke:#ffffff;stroke-linecap:square;stroke-linejoin:miter;stroke-width:1.25;"/>
   </g>
   <g id="patch_21">
    <path d="M 61.535 286.072272 
L 297.39 286.072272 
" style="fill:none;stroke:#ffffff;stroke-linecap:square;stroke-linejoin:miter;stroke-width:1.25;"/>
   </g>
  </g>
  <g id="axes_5">
   <g id="patch_22">
    <path d="M 339.44 518.7 
L 575.295 518.7 
L 575.295 286.072272 
L 339.44 286.072272 
z
" style="fill:#eaeaf2;"/>
   </g>
   <g id="matplotlib.axis_9">
    <g id="xtick_21">
     <g id="line2d_59">
      <path clip-path="url(#p08ad3616e3)" d="M 350.160682 518.7 
L 350.160682 286.072272 
" style="fill:none;stroke:#ffffff;stroke-linecap:round;"/>
     </g>
     <g id="text_50">
      <!-- 0 -->
      <g style="fill:#262626;" transform="translate(347.102166 536.073594)scale(0.11 -0.11)">
       <use xlink:href="#ArialMT-30"/>
      </g>
     </g>
    </g>
    <g id="xtick_22">
     <g id="line2d_60">
      <path clip-path="url(#p08ad3616e3)" d="M 401.08392 518.7 
L 401.08392 286.072272 
" style="fill:none;stroke:#ffffff;stroke-linecap:round;"/>
     </g>
     <g id="text_51">
      <!-- 2 -->
      <g style="fill:#262626;" transform="translate(398.025405 536.073594)scale(0.11 -0.11)">
       <use xlink:href="#ArialMT-32"/>
      </g>
     </g>
    </g>
    <g id="xtick_23">
     <g id="line2d_61">
      <path clip-path="url(#p08ad3616e3)" d="M 452.007159 518.7 
L 452.007159 286.072272 
" style="fill:none;stroke:#ffffff;stroke-linecap:round;"/>
     </g>
     <g id="text_52">
      <!-- 4 -->
      <g style="fill:#262626;" transform="translate(448.948643 536.073594)scale(0.11 -0.11)">
       <use xlink:href="#ArialMT-34"/>
      </g>
     </g>
    </g>
    <g id="xtick_24">
     <g id="line2d_62">
      <path clip-path="url(#p08ad3616e3)" d="M 502.930398 518.7 
L 502.930398 286.072272 
" style="fill:none;stroke:#ffffff;stroke-linecap:round;"/>
     </g>
     <g id="text_53">
      <!-- 6 -->
      <g style="fill:#262626;" transform="translate(499.871882 536.073594)scale(0.11 -0.11)">
       <use xlink:href="#ArialMT-36"/>
      </g>
     </g>
    </g>
    <g id="xtick_25">
     <g id="line2d_63">
      <path clip-path="url(#p08ad3616e3)" d="M 553.853636 518.7 
L 553.853636 286.072272 
" style="fill:none;stroke:#ffffff;stroke-linecap:round;"/>
     </g>
     <g id="text_54">
      <!-- 8 -->
      <g style="fill:#262626;" transform="translate(550.795121 536.073594)scale(0.11 -0.11)">
       <use xlink:href="#ArialMT-38"/>
      </g>
     </g>
    </g>
    <g id="text_55">
     <!-- $\log_{10}(-h)$ -->
     <g style="fill:#262626;" transform="translate(410.2675 557.459844)scale(0.2 -0.2)">
      <use transform="translate(0 0.015625)" xlink:href="#DejaVuSans-6c"/>
      <use transform="translate(27.783203 0.015625)" xlink:href="#DejaVuSans-6f"/>
      <use transform="translate(88.964844 0.015625)" xlink:href="#DejaVuSans-67"/>
      <use transform="translate(153.398438 -16.390625)scale(0.7)" xlink:href="#DejaVuSans-31"/>
      <use transform="translate(197.93457 -16.390625)scale(0.7)" xlink:href="#DejaVuSans-30"/>
      <use transform="translate(245.205078 0.015625)" xlink:href="#DejaVuSans-28"/>
      <use transform="translate(284.21875 0.015625)" xlink:href="#DejaVuSans-2212"/>
      <use transform="translate(368.007812 0.015625)" xlink:href="#DejaVuSans-Oblique-68"/>
      <use transform="translate(431.386719 0.015625)" xlink:href="#DejaVuSans-29"/>
     </g>
    </g>
   </g>
   <g id="matplotlib.axis_10">
    <g id="ytick_27">
     <g id="line2d_64">
      <path clip-path="url(#p08ad3616e3)" d="M 339.44 498.242245 
L 575.295 498.242245 
" style="fill:none;stroke:#ffffff;stroke-linecap:round;"/>
     </g>
     <g id="text_56">
      <!-- −4 -->
      <g style="fill:#262626;" transform="translate(317.398281 502.179042)scale(0.11 -0.11)">
       <use xlink:href="#ArialMT-2212"/>
       <use x="58.398438" xlink:href="#ArialMT-34"/>
      </g>
     </g>
    </g>
    <g id="ytick_28">
     <g id="line2d_65">
      <path clip-path="url(#p08ad3616e3)" d="M 339.44 468.29354 
L 575.295 468.29354 
" style="fill:none;stroke:#ffffff;stroke-linecap:round;"/>
     </g>
     <g id="text_57">
      <!-- −3 -->
      <g style="fill:#262626;" transform="translate(317.398281 472.230337)scale(0.11 -0.11)">
       <use xlink:href="#ArialMT-2212"/>
       <use x="58.398438" xlink:href="#ArialMT-33"/>
      </g>
     </g>
    </g>
    <g id="ytick_29">
     <g id="line2d_66">
      <path clip-path="url(#p08ad3616e3)" d="M 339.44 438.344836 
L 575.295 438.344836 
" style="fill:none;stroke:#ffffff;stroke-linecap:round;"/>
     </g>
     <g id="text_58">
      <!-- −2 -->
      <g style="fill:#262626;" transform="translate(317.398281 442.281633)scale(0.11 -0.11)">
       <use xlink:href="#ArialMT-2212"/>
       <use x="58.398438" xlink:href="#ArialMT-32"/>
      </g>
     </g>
    </g>
    <g id="ytick_30">
     <g id="line2d_67">
      <path clip-path="url(#p08ad3616e3)" d="M 339.44 408.396131 
L 575.295 408.396131 
" style="fill:none;stroke:#ffffff;stroke-linecap:round;"/>
     </g>
     <g id="text_59">
      <!-- −1 -->
      <g style="fill:#262626;" transform="translate(317.398281 412.332928)scale(0.11 -0.11)">
       <use xlink:href="#ArialMT-2212"/>
       <use x="58.398438" xlink:href="#ArialMT-31"/>
      </g>
     </g>
    </g>
    <g id="ytick_31">
     <g id="line2d_68">
      <path clip-path="url(#p08ad3616e3)" d="M 339.44 378.447426 
L 575.295 378.447426 
" style="fill:none;stroke:#ffffff;stroke-linecap:round;"/>
     </g>
     <g id="text_60">
      <!-- 0 -->
      <g style="fill:#262626;" transform="translate(323.822969 382.384223)scale(0.11 -0.11)">
       <use xlink:href="#ArialMT-30"/>
      </g>
     </g>
    </g>
    <g id="ytick_32">
     <g id="line2d_69">
      <path clip-path="url(#p08ad3616e3)" d="M 339.44 348.498722 
L 575.295 348.498722 
" style="fill:none;stroke:#ffffff;stroke-linecap:round;"/>
     </g>
     <g id="text_61">
      <!-- 1 -->
      <g style="fill:#262626;" transform="translate(323.822969 352.435518)scale(0.11 -0.11)">
       <use xlink:href="#ArialMT-31"/>
      </g>
     </g>
    </g>
    <g id="ytick_33">
     <g id="line2d_70">
      <path clip-path="url(#p08ad3616e3)" d="M 339.44 318.550017 
L 575.295 318.550017 
" style="fill:none;stroke:#ffffff;stroke-linecap:round;"/>
     </g>
     <g id="text_62">
      <!-- 2 -->
      <g style="fill:#262626;" transform="translate(323.822969 322.486814)scale(0.11 -0.11)">
       <use xlink:href="#ArialMT-32"/>
      </g>
     </g>
    </g>
    <g id="ytick_34">
     <g id="line2d_71">
      <path clip-path="url(#p08ad3616e3)" d="M 339.44 288.601312 
L 575.295 288.601312 
" style="fill:none;stroke:#ffffff;stroke-linecap:round;"/>
     </g>
     <g id="text_63">
      <!-- 3 -->
      <g style="fill:#262626;" transform="translate(323.822969 292.538109)scale(0.11 -0.11)">
       <use xlink:href="#ArialMT-33"/>
      </g>
     </g>
    </g>
   </g>
   <g id="line2d_72">
    <path clip-path="url(#p08ad3616e3)" d="M 350.160682 507.774439 
L 363.561534 508.126012 
L 376.962386 461.732043 
L 390.363239 445.941528 
L 403.764091 504.570226 
L 417.164943 504.569772 
L 430.565795 504.569948 
L 443.966648 504.56778 
L 457.3675 504.556777 
L 470.768352 504.932907 
L 484.169205 503.925313 
L 497.570057 493.979938 
L 510.970909 459.562314 
L 524.371761 465.401611 
L 537.772614 438.721642 
L 551.173466 379.29725 
L 564.574318 341.127628 
" style="fill:none;stroke:#4c72b0;stroke-dasharray:9,3;stroke-dashoffset:0;stroke-width:1.5;"/>
   </g>
   <g id="line2d_73">
    <path clip-path="url(#p08ad3616e3)" d="M 350.160682 402.112972 
L 363.561534 376.154841 
L 376.962386 370.455252 
L 390.363239 369.898486 
L 403.764091 368.767835 
L 417.164943 368.767824 
L 430.565795 368.767824 
L 443.966648 368.76783 
L 457.3675 368.767817 
L 470.768352 368.767204 
L 484.169205 368.766727 
L 497.570057 368.801515 
L 510.970909 368.493829 
L 524.371761 373.246897 
L 537.772614 355.286358 
L 551.173466 340.586027 
L 564.574318 296.64626 
" style="fill:none;stroke:#dd8452;stroke-dasharray:12,7.5;stroke-dashoffset:0;stroke-width:1.5;"/>
   </g>
   <g id="line2d_74">
    <path clip-path="url(#p08ad3616e3)" d="M 350.160682 417.785316 
L 363.561534 422.16968 
L 376.962386 420.854082 
L 390.363239 420.078211 
L 403.764091 420.827159 
L 417.164943 420.827211 
L 430.565795 420.827211 
L 443.966648 420.827209 
L 457.3675 420.827195 
L 470.768352 420.827134 
L 484.169205 420.832793 
L 497.570057 420.797128 
L 510.970909 420.73726 
L 524.371761 416.56987 
L 537.772614 432.842871 
L 551.173466 380.561016 
L 564.574318 369.464968 
" style="fill:none;stroke:#55a868;stroke-dasharray:1.5,0;stroke-dashoffset:0;stroke-width:1.5;"/>
   </g>
   <g id="patch_23">
    <path d="M 339.44 518.7 
L 339.44 286.072272 
" style="fill:none;stroke:#ffffff;stroke-linecap:square;stroke-linejoin:miter;stroke-width:1.25;"/>
   </g>
   <g id="patch_24">
    <path d="M 575.295 518.7 
L 575.295 286.072272 
" style="fill:none;stroke:#ffffff;stroke-linecap:square;stroke-linejoin:miter;stroke-width:1.25;"/>
   </g>
   <g id="patch_25">
    <path d="M 339.44 518.7 
L 575.295 518.7 
" style="fill:none;stroke:#ffffff;stroke-linecap:square;stroke-linejoin:miter;stroke-width:1.25;"/>
   </g>
   <g id="patch_26">
    <path d="M 339.44 286.072272 
L 575.295 286.072272 
" style="fill:none;stroke:#ffffff;stroke-linecap:square;stroke-linejoin:miter;stroke-width:1.25;"/>
   </g>
  </g>
  <g id="axes_6">
   <g id="patch_27">
    <path d="M 617.345 518.7 
L 853.2 518.7 
L 853.2 286.072272 
L 617.345 286.072272 
z
" style="fill:#eaeaf2;"/>
   </g>
   <g id="matplotlib.axis_11">
    <g id="xtick_26">
     <g id="line2d_75">
      <path clip-path="url(#p6e7e50ab48)" d="M 628.065682 518.7 
L 628.065682 286.072272 
" style="fill:none;stroke:#ffffff;stroke-linecap:round;"/>
     </g>
     <g id="text_64">
      <!-- 0 -->
      <g style="fill:#262626;" transform="translate(625.007166 536.073594)scale(0.11 -0.11)">
       <use xlink:href="#ArialMT-30"/>
      </g>
     </g>
    </g>
    <g id="xtick_27">
     <g id="line2d_76">
      <path clip-path="url(#p6e7e50ab48)" d="M 678.98892 518.7 
L 678.98892 286.072272 
" style="fill:none;stroke:#ffffff;stroke-linecap:round;"/>
     </g>
     <g id="text_65">
      <!-- 2 -->
      <g style="fill:#262626;" transform="translate(675.930405 536.073594)scale(0.11 -0.11)">
       <use xlink:href="#ArialMT-32"/>
      </g>
     </g>
    </g>
    <g id="xtick_28">
     <g id="line2d_77">
      <path clip-path="url(#p6e7e50ab48)" d="M 729.912159 518.7 
L 729.912159 286.072272 
" style="fill:none;stroke:#ffffff;stroke-linecap:round;"/>
     </g>
     <g id="text_66">
      <!-- 4 -->
      <g style="fill:#262626;" transform="translate(726.853643 536.073594)scale(0.11 -0.11)">
       <use xlink:href="#ArialMT-34"/>
      </g>
     </g>
    </g>
    <g id="xtick_29">
     <g id="line2d_78">
      <path clip-path="url(#p6e7e50ab48)" d="M 780.835398 518.7 
L 780.835398 286.072272 
" style="fill:none;stroke:#ffffff;stroke-linecap:round;"/>
     </g>
     <g id="text_67">
      <!-- 6 -->
      <g style="fill:#262626;" transform="translate(777.776882 536.073594)scale(0.11 -0.11)">
       <use xlink:href="#ArialMT-36"/>
      </g>
     </g>
    </g>
    <g id="xtick_30">
     <g id="line2d_79">
      <path clip-path="url(#p6e7e50ab48)" d="M 831.758636 518.7 
L 831.758636 286.072272 
" style="fill:none;stroke:#ffffff;stroke-linecap:round;"/>
     </g>
     <g id="text_68">
      <!-- 8 -->
      <g style="fill:#262626;" transform="translate(828.700121 536.073594)scale(0.11 -0.11)">
       <use xlink:href="#ArialMT-38"/>
      </g>
     </g>
    </g>
    <g id="text_69">
     <!-- $\log_{10}(-h)$ -->
     <g style="fill:#262626;" transform="translate(688.1725 557.459844)scale(0.2 -0.2)">
      <use transform="translate(0 0.015625)" xlink:href="#DejaVuSans-6c"/>
      <use transform="translate(27.783203 0.015625)" xlink:href="#DejaVuSans-6f"/>
      <use transform="translate(88.964844 0.015625)" xlink:href="#DejaVuSans-67"/>
      <use transform="translate(153.398438 -16.390625)scale(0.7)" xlink:href="#DejaVuSans-31"/>
      <use transform="translate(197.93457 -16.390625)scale(0.7)" xlink:href="#DejaVuSans-30"/>
      <use transform="translate(245.205078 0.015625)" xlink:href="#DejaVuSans-28"/>
      <use transform="translate(284.21875 0.015625)" xlink:href="#DejaVuSans-2212"/>
      <use transform="translate(368.007812 0.015625)" xlink:href="#DejaVuSans-Oblique-68"/>
      <use transform="translate(431.386719 0.015625)" xlink:href="#DejaVuSans-29"/>
     </g>
    </g>
   </g>
   <g id="matplotlib.axis_12">
    <g id="ytick_35">
     <g id="line2d_80">
      <path clip-path="url(#p6e7e50ab48)" d="M 617.345 498.949479 
L 853.2 498.949479 
" style="fill:none;stroke:#ffffff;stroke-linecap:round;"/>
     </g>
     <g id="text_70">
      <!-- −1.0 -->
      <g style="fill:#262626;" transform="translate(586.130312 502.886276)scale(0.11 -0.11)">
       <use xlink:href="#ArialMT-2212"/>
       <use x="58.398438" xlink:href="#ArialMT-31"/>
       <use x="114.013672" xlink:href="#ArialMT-2e"/>
       <use x="141.796875" xlink:href="#ArialMT-30"/>
      </g>
     </g>
    </g>
    <g id="ytick_36">
     <g id="line2d_81">
      <path clip-path="url(#p6e7e50ab48)" d="M 617.345 463.879259 
L 853.2 463.879259 
" style="fill:none;stroke:#ffffff;stroke-linecap:round;"/>
     </g>
     <g id="text_71">
      <!-- −0.5 -->
      <g style="fill:#262626;" transform="translate(586.130312 467.816056)scale(0.11 -0.11)">
       <use xlink:href="#ArialMT-2212"/>
       <use x="58.398438" xlink:href="#ArialMT-30"/>
       <use x="114.013672" xlink:href="#ArialMT-2e"/>
       <use x="141.796875" xlink:href="#ArialMT-35"/>
      </g>
     </g>
    </g>
    <g id="ytick_37">
     <g id="line2d_82">
      <path clip-path="url(#p6e7e50ab48)" d="M 617.345 428.809039 
L 853.2 428.809039 
" style="fill:none;stroke:#ffffff;stroke-linecap:round;"/>
     </g>
     <g id="text_72">
      <!-- 0.0 -->
      <g style="fill:#262626;" transform="translate(592.555 432.745835)scale(0.11 -0.11)">
       <use xlink:href="#ArialMT-30"/>
       <use x="55.615234" xlink:href="#ArialMT-2e"/>
       <use x="83.398438" xlink:href="#ArialMT-30"/>
      </g>
     </g>
    </g>
    <g id="ytick_38">
     <g id="line2d_83">
      <path clip-path="url(#p6e7e50ab48)" d="M 617.345 393.738818 
L 853.2 393.738818 
" style="fill:none;stroke:#ffffff;stroke-linecap:round;"/>
     </g>
     <g id="text_73">
      <!-- 0.5 -->
      <g style="fill:#262626;" transform="translate(592.555 397.675615)scale(0.11 -0.11)">
       <use xlink:href="#ArialMT-30"/>
       <use x="55.615234" xlink:href="#ArialMT-2e"/>
       <use x="83.398438" xlink:href="#ArialMT-35"/>
      </g>
     </g>
    </g>
    <g id="ytick_39">
     <g id="line2d_84">
      <path clip-path="url(#p6e7e50ab48)" d="M 617.345 358.668598 
L 853.2 358.668598 
" style="fill:none;stroke:#ffffff;stroke-linecap:round;"/>
     </g>
     <g id="text_74">
      <!-- 1.0 -->
      <g style="fill:#262626;" transform="translate(592.555 362.605395)scale(0.11 -0.11)">
       <use xlink:href="#ArialMT-31"/>
       <use x="55.615234" xlink:href="#ArialMT-2e"/>
       <use x="83.398438" xlink:href="#ArialMT-30"/>
      </g>
     </g>
    </g>
    <g id="ytick_40">
     <g id="line2d_85">
      <path clip-path="url(#p6e7e50ab48)" d="M 617.345 323.598378 
L 853.2 323.598378 
" style="fill:none;stroke:#ffffff;stroke-linecap:round;"/>
     </g>
     <g id="text_75">
      <!-- 1.5 -->
      <g style="fill:#262626;" transform="translate(592.555 327.535175)scale(0.11 -0.11)">
       <use xlink:href="#ArialMT-31"/>
       <use x="55.615234" xlink:href="#ArialMT-2e"/>
       <use x="83.398438" xlink:href="#ArialMT-35"/>
      </g>
     </g>
    </g>
    <g id="ytick_41">
     <g id="line2d_86">
      <path clip-path="url(#p6e7e50ab48)" d="M 617.345 288.528157 
L 853.2 288.528157 
" style="fill:none;stroke:#ffffff;stroke-linecap:round;"/>
     </g>
     <g id="text_76">
      <!-- 2.0 -->
      <g style="fill:#262626;" transform="translate(592.555 292.464954)scale(0.11 -0.11)">
       <use xlink:href="#ArialMT-32"/>
       <use x="55.615234" xlink:href="#ArialMT-2e"/>
       <use x="83.398438" xlink:href="#ArialMT-30"/>
      </g>
     </g>
    </g>
   </g>
   <g id="line2d_87">
    <path clip-path="url(#p6e7e50ab48)" d="M 628.065682 379.757031 
L 641.466534 431.182826 
L 654.867386 352.059774 
L 668.268239 341.037853 
L 681.669091 340.941121 
L 695.069943 340.940299 
L 708.470795 340.940291 
L 721.871648 340.940291 
L 735.2725 340.940291 
L 748.673352 340.940292 
L 762.074205 340.94027 
L 775.475057 340.940284 
L 788.875909 340.939999 
L 802.276761 340.924306 
L 815.677614 340.930563 
L 829.078466 340.045026 
L 842.479318 341.285663 
" style="fill:none;stroke:#4c72b0;stroke-dasharray:9,3;stroke-dashoffset:0;stroke-width:1.5;"/>
   </g>
   <g id="line2d_88">
    <path clip-path="url(#p6e7e50ab48)" d="M 628.065682 379.161817 
L 641.466534 508.126012 
L 654.867386 323.365802 
L 668.268239 299.101092 
L 681.669091 298.830043 
L 695.069943 298.827709 
L 708.470795 298.827686 
L 721.871648 298.827686 
L 735.2725 298.827686 
L 748.673352 298.827686 
L 762.074205 298.827683 
L 775.475057 298.827657 
L 788.875909 298.827723 
L 802.276761 298.828766 
L 815.677614 298.845014 
L 829.078466 298.688825 
L 842.479318 296.64626 
" style="fill:none;stroke:#dd8452;stroke-dasharray:12,7.5;stroke-dashoffset:0;stroke-width:1.5;"/>
   </g>
   <g id="line2d_89">
    <path clip-path="url(#p6e7e50ab48)" d="M 628.065682 379.950291 
L 641.466534 445.294443 
L 654.867386 352.146162 
L 668.268239 356.397728 
L 681.669091 356.472611 
L 695.069943 356.473344 
L 708.470795 356.473352 
L 721.871648 356.473352 
L 735.2725 356.473352 
L 748.673352 356.473351 
L 762.074205 356.47335 
L 775.475057 356.473315 
L 788.875909 356.473982 
L 802.276761 356.480557 
L 815.677614 356.490443 
L 829.078466 356.313362 
L 842.479318 354.088072 
" style="fill:none;stroke:#55a868;stroke-dasharray:1.5,0;stroke-dashoffset:0;stroke-width:1.5;"/>
   </g>
   <g id="patch_28">
    <path d="M 617.345 518.7 
L 617.345 286.072272 
" style="fill:none;stroke:#ffffff;stroke-linecap:square;stroke-linejoin:miter;stroke-width:1.25;"/>
   </g>
   <g id="patch_29">
    <path d="M 853.2 518.7 
L 853.2 286.072272 
" style="fill:none;stroke:#ffffff;stroke-linecap:square;stroke-linejoin:miter;stroke-width:1.25;"/>
   </g>
   <g id="patch_30">
    <path d="M 617.345 518.7 
L 853.2 518.7 
" style="fill:none;stroke:#ffffff;stroke-linecap:square;stroke-linejoin:miter;stroke-width:1.25;"/>
   </g>
   <g id="patch_31">
    <path d="M 617.345 286.072272 
L 853.2 286.072272 
" style="fill:none;stroke:#ffffff;stroke-linecap:square;stroke-linejoin:miter;stroke-width:1.25;"/>
   </g>
  </g>
 </g>
 <defs>
  <clipPath id="p0831e513cc">
   <rect height="232.627728" width="235.855" x="61.535" y="21.6"/>
  </clipPath>
  <clipPath id="pc7509e1af9">
   <rect height="232.627728" width="235.855" x="339.44" y="21.6"/>
  </clipPath>
  <clipPath id="pb2e21910e6">
   <rect height="232.627728" width="235.855" x="617.345" y="21.6"/>
  </clipPath>
  <clipPath id="pc1d5f2deb2">
   <rect height="232.627728" width="235.855" x="61.535" y="286.072272"/>
  </clipPath>
  <clipPath id="p08ad3616e3">
   <rect height="232.627728" width="235.855" x="339.44" y="286.072272"/>
  </clipPath>
  <clipPath id="p6e7e50ab48">
   <rect height="232.627728" width="235.855" x="617.345" y="286.072272"/>
  </clipPath>
 </defs>
</svg>
