<?xml version="1.0" encoding="utf-8" standalone="no"?>
<!DOCTYPE svg PUBLIC "-//W3C//DTD SVG 1.1//EN"
  "http://www.w3.org/Graphics/SVG/1.1/DTD/svg11.dtd">
<svg height="566.404531pt" version="1.1" viewBox="0 0 867.745156 566.404531" width="867.745156pt" xmlns="http://www.w3.org/2000/svg" xmlns:xlink="http://www.w3.org/1999/xlink">
 <metadata>
  <rdf:RDF xmlns:cc="http://creativecommons.org/ns#" xmlns:dc="http://purl.org/dc/elements/1.1/" xmlns:rdf="http://www.w3.org/1999/02/22-rdf-syntax-ns#">
   <cc:Work>
    <dc:type rdf:resource="http://purl.org/dc/dcmitype/StillImage"/>
    <dc:date>2021-11-20T17:48:04.033420</dc:date>
    <dc:format>image/svg+xml</dc:format>
    <dc:creator>
     <cc:Agent>
      <dc:title>Matplotlib v3.4.2, https://matplotlib.org/</dc:title>
     </cc:Agent>
    </dc:creator>
   </cc:Work>
  </rdf:RDF>
 </metadata>
 <defs>
  <style type="text/css">*{stroke-linecap:butt;stroke-linejoin:round;}</style>
 </defs>
 <g id="figure_1">
  <g id="patch_1">
   <path d="M 0 566.404531 
L 867.745156 566.404531 
L 867.745156 0 
L 0 0 
z
" style="fill:none;"/>
  </g>
  <g id="axes_1">
   <g id="patch_2">
    <path d="M 66.6275 243.510469 
L 303.185833 243.510469 
L 303.185833 12.210469 
L 66.6275 12.210469 
z
" style="fill:#eaeaf2;"/>
   </g>
   <g id="matplotlib.axis_1">
    <g id="xtick_1">
     <g id="line2d_1">
      <path clip-path="url(#p665416e5df)" d="M 66.6275 243.510469 
L 66.6275 12.210469 
" style="fill:none;stroke:#ffffff;stroke-linecap:round;"/>
     </g>
     <g id="text_1">
      <!-- −2 -->
      <g style="fill:#262626;" transform="translate(58.646406 263.031406)scale(0.14 -0.14)">
       <defs>
        <path d="M 3381 1997 
L 356 1997 
L 356 2522 
L 3381 2522 
L 3381 1997 
z
" id="ArialMT-2212" transform="scale(0.015625)"/>
        <path d="M 3222 541 
L 3222 0 
L 194 0 
Q 188 203 259 391 
Q 375 700 629 1000 
Q 884 1300 1366 1694 
Q 2113 2306 2375 2664 
Q 2638 3022 2638 3341 
Q 2638 3675 2398 3904 
Q 2159 4134 1775 4134 
Q 1369 4134 1125 3890 
Q 881 3647 878 3216 
L 300 3275 
Q 359 3922 746 4261 
Q 1134 4600 1788 4600 
Q 2447 4600 2831 4234 
Q 3216 3869 3216 3328 
Q 3216 3053 3103 2787 
Q 2991 2522 2730 2228 
Q 2469 1934 1863 1422 
Q 1356 997 1212 845 
Q 1069 694 975 541 
L 3222 541 
z
" id="ArialMT-32" transform="scale(0.015625)"/>
       </defs>
       <use xlink:href="#ArialMT-2212"/>
       <use x="58.398438" xlink:href="#ArialMT-32"/>
      </g>
     </g>
    </g>
    <g id="xtick_2">
     <g id="line2d_2">
      <path clip-path="url(#p665416e5df)" d="M 125.767083 243.510469 
L 125.767083 12.210469 
" style="fill:none;stroke:#ffffff;stroke-linecap:round;"/>
     </g>
     <g id="text_2">
      <!-- −1 -->
      <g style="fill:#262626;" transform="translate(117.78599 263.031406)scale(0.14 -0.14)">
       <defs>
        <path d="M 2384 0 
L 1822 0 
L 1822 3584 
Q 1619 3391 1289 3197 
Q 959 3003 697 2906 
L 697 3450 
Q 1169 3672 1522 3987 
Q 1875 4303 2022 4600 
L 2384 4600 
L 2384 0 
z
" id="ArialMT-31" transform="scale(0.015625)"/>
       </defs>
       <use xlink:href="#ArialMT-2212"/>
       <use x="58.398438" xlink:href="#ArialMT-31"/>
      </g>
     </g>
    </g>
    <g id="xtick_3">
     <g id="line2d_3">
      <path clip-path="url(#p665416e5df)" d="M 184.906667 243.510469 
L 184.906667 12.210469 
" style="fill:none;stroke:#ffffff;stroke-linecap:round;"/>
     </g>
     <g id="text_3">
      <!-- 0 -->
      <g style="fill:#262626;" transform="translate(181.01401 263.031406)scale(0.14 -0.14)">
       <defs>
        <path d="M 266 2259 
Q 266 3072 433 3567 
Q 600 4063 929 4331 
Q 1259 4600 1759 4600 
Q 2128 4600 2406 4451 
Q 2684 4303 2865 4023 
Q 3047 3744 3150 3342 
Q 3253 2941 3253 2259 
Q 3253 1453 3087 958 
Q 2922 463 2592 192 
Q 2263 -78 1759 -78 
Q 1097 -78 719 397 
Q 266 969 266 2259 
z
M 844 2259 
Q 844 1131 1108 757 
Q 1372 384 1759 384 
Q 2147 384 2411 759 
Q 2675 1134 2675 2259 
Q 2675 3391 2411 3762 
Q 2147 4134 1753 4134 
Q 1366 4134 1134 3806 
Q 844 3388 844 2259 
z
" id="ArialMT-30" transform="scale(0.015625)"/>
       </defs>
       <use xlink:href="#ArialMT-30"/>
      </g>
     </g>
    </g>
    <g id="xtick_4">
     <g id="line2d_4">
      <path clip-path="url(#p665416e5df)" d="M 244.04625 243.510469 
L 244.04625 12.210469 
" style="fill:none;stroke:#ffffff;stroke-linecap:round;"/>
     </g>
     <g id="text_4">
      <!-- 1 -->
      <g style="fill:#262626;" transform="translate(240.153594 263.031406)scale(0.14 -0.14)">
       <use xlink:href="#ArialMT-31"/>
      </g>
     </g>
    </g>
    <g id="xtick_5">
     <g id="line2d_5">
      <path clip-path="url(#p665416e5df)" d="M 303.185833 243.510469 
L 303.185833 12.210469 
" style="fill:none;stroke:#ffffff;stroke-linecap:round;"/>
     </g>
     <g id="text_5">
      <!-- 2 -->
      <g style="fill:#262626;" transform="translate(299.293177 263.031406)scale(0.14 -0.14)">
       <use xlink:href="#ArialMT-32"/>
      </g>
     </g>
    </g>
   </g>
   <g id="matplotlib.axis_2">
    <g id="ytick_1">
     <g id="line2d_6">
      <path clip-path="url(#p665416e5df)" d="M 66.6275 243.510469 
L 303.185833 243.510469 
" style="fill:none;stroke:#ffffff;stroke-linecap:round;"/>
     </g>
     <g id="text_6">
      <!-- −2.0 -->
      <g style="fill:#262626;" transform="translate(29.490625 248.520937)scale(0.14 -0.14)">
       <defs>
        <path d="M 581 0 
L 581 641 
L 1222 641 
L 1222 0 
L 581 0 
z
" id="ArialMT-2e" transform="scale(0.015625)"/>
       </defs>
       <use xlink:href="#ArialMT-2212"/>
       <use x="58.398438" xlink:href="#ArialMT-32"/>
       <use x="114.013672" xlink:href="#ArialMT-2e"/>
       <use x="141.796875" xlink:href="#ArialMT-30"/>
      </g>
     </g>
    </g>
    <g id="ytick_2">
     <g id="line2d_7">
      <path clip-path="url(#p665416e5df)" d="M 66.6275 214.597969 
L 303.185833 214.597969 
" style="fill:none;stroke:#ffffff;stroke-linecap:round;"/>
     </g>
     <g id="text_7">
      <!-- −1.5 -->
      <g style="fill:#262626;" transform="translate(29.490625 219.608437)scale(0.14 -0.14)">
       <defs>
        <path d="M 266 1200 
L 856 1250 
Q 922 819 1161 601 
Q 1400 384 1738 384 
Q 2144 384 2425 690 
Q 2706 997 2706 1503 
Q 2706 1984 2436 2262 
Q 2166 2541 1728 2541 
Q 1456 2541 1237 2417 
Q 1019 2294 894 2097 
L 366 2166 
L 809 4519 
L 3088 4519 
L 3088 3981 
L 1259 3981 
L 1013 2750 
Q 1425 3038 1878 3038 
Q 2478 3038 2890 2622 
Q 3303 2206 3303 1553 
Q 3303 931 2941 478 
Q 2500 -78 1738 -78 
Q 1113 -78 717 272 
Q 322 622 266 1200 
z
" id="ArialMT-35" transform="scale(0.015625)"/>
       </defs>
       <use xlink:href="#ArialMT-2212"/>
       <use x="58.398438" xlink:href="#ArialMT-31"/>
       <use x="114.013672" xlink:href="#ArialMT-2e"/>
       <use x="141.796875" xlink:href="#ArialMT-35"/>
      </g>
     </g>
    </g>
    <g id="ytick_3">
     <g id="line2d_8">
      <path clip-path="url(#p665416e5df)" d="M 66.6275 185.685469 
L 303.185833 185.685469 
" style="fill:none;stroke:#ffffff;stroke-linecap:round;"/>
     </g>
     <g id="text_8">
      <!-- −1.0 -->
      <g style="fill:#262626;" transform="translate(29.490625 190.695937)scale(0.14 -0.14)">
       <use xlink:href="#ArialMT-2212"/>
       <use x="58.398438" xlink:href="#ArialMT-31"/>
       <use x="114.013672" xlink:href="#ArialMT-2e"/>
       <use x="141.796875" xlink:href="#ArialMT-30"/>
      </g>
     </g>
    </g>
    <g id="ytick_4">
     <g id="line2d_9">
      <path clip-path="url(#p665416e5df)" d="M 66.6275 156.772969 
L 303.185833 156.772969 
" style="fill:none;stroke:#ffffff;stroke-linecap:round;"/>
     </g>
     <g id="text_9">
      <!-- −0.5 -->
      <g style="fill:#262626;" transform="translate(29.490625 161.783437)scale(0.14 -0.14)">
       <use xlink:href="#ArialMT-2212"/>
       <use x="58.398438" xlink:href="#ArialMT-30"/>
       <use x="114.013672" xlink:href="#ArialMT-2e"/>
       <use x="141.796875" xlink:href="#ArialMT-35"/>
      </g>
     </g>
    </g>
    <g id="ytick_5">
     <g id="line2d_10">
      <path clip-path="url(#p665416e5df)" d="M 66.6275 127.860469 
L 303.185833 127.860469 
" style="fill:none;stroke:#ffffff;stroke-linecap:round;"/>
     </g>
     <g id="text_10">
      <!-- 0.0 -->
      <g style="fill:#262626;" transform="translate(37.6675 132.870937)scale(0.14 -0.14)">
       <use xlink:href="#ArialMT-30"/>
       <use x="55.615234" xlink:href="#ArialMT-2e"/>
       <use x="83.398438" xlink:href="#ArialMT-30"/>
      </g>
     </g>
    </g>
    <g id="ytick_6">
     <g id="line2d_11">
      <path clip-path="url(#p665416e5df)" d="M 66.6275 98.947969 
L 303.185833 98.947969 
" style="fill:none;stroke:#ffffff;stroke-linecap:round;"/>
     </g>
     <g id="text_11">
      <!-- 0.5 -->
      <g style="fill:#262626;" transform="translate(37.6675 103.958437)scale(0.14 -0.14)">
       <use xlink:href="#ArialMT-30"/>
       <use x="55.615234" xlink:href="#ArialMT-2e"/>
       <use x="83.398438" xlink:href="#ArialMT-35"/>
      </g>
     </g>
    </g>
    <g id="ytick_7">
     <g id="line2d_12">
      <path clip-path="url(#p665416e5df)" d="M 66.6275 70.035469 
L 303.185833 70.035469 
" style="fill:none;stroke:#ffffff;stroke-linecap:round;"/>
     </g>
     <g id="text_12">
      <!-- 1.0 -->
      <g style="fill:#262626;" transform="translate(37.6675 75.045937)scale(0.14 -0.14)">
       <use xlink:href="#ArialMT-31"/>
       <use x="55.615234" xlink:href="#ArialMT-2e"/>
       <use x="83.398438" xlink:href="#ArialMT-30"/>
      </g>
     </g>
    </g>
    <g id="ytick_8">
     <g id="line2d_13">
      <path clip-path="url(#p665416e5df)" d="M 66.6275 41.122969 
L 303.185833 41.122969 
" style="fill:none;stroke:#ffffff;stroke-linecap:round;"/>
     </g>
     <g id="text_13">
      <!-- 1.5 -->
      <g style="fill:#262626;" transform="translate(37.6675 46.133437)scale(0.14 -0.14)">
       <use xlink:href="#ArialMT-31"/>
       <use x="55.615234" xlink:href="#ArialMT-2e"/>
       <use x="83.398438" xlink:href="#ArialMT-35"/>
      </g>
     </g>
    </g>
    <g id="ytick_9">
     <g id="line2d_14">
      <path clip-path="url(#p665416e5df)" d="M 66.6275 12.210469 
L 303.185833 12.210469 
" style="fill:none;stroke:#ffffff;stroke-linecap:round;"/>
     </g>
     <g id="text_14">
      <!-- 2.0 -->
      <g style="fill:#262626;" transform="translate(37.6675 17.220937)scale(0.14 -0.14)">
       <use xlink:href="#ArialMT-32"/>
       <use x="55.615234" xlink:href="#ArialMT-2e"/>
       <use x="83.398438" xlink:href="#ArialMT-30"/>
      </g>
     </g>
    </g>
    <g id="text_15">
     <!-- Potential -->
     <g style="fill:#262626;" transform="translate(21.515625 166.774531)rotate(-90)scale(0.2 -0.2)">
      <defs>
       <path d="M 494 0 
L 494 4581 
L 2222 4581 
Q 2678 4581 2919 4538 
Q 3256 4481 3484 4323 
Q 3713 4166 3852 3881 
Q 3991 3597 3991 3256 
Q 3991 2672 3619 2267 
Q 3247 1863 2275 1863 
L 1100 1863 
L 1100 0 
L 494 0 
z
M 1100 2403 
L 2284 2403 
Q 2872 2403 3119 2622 
Q 3366 2841 3366 3238 
Q 3366 3525 3220 3729 
Q 3075 3934 2838 4000 
Q 2684 4041 2272 4041 
L 1100 4041 
L 1100 2403 
z
" id="ArialMT-50" transform="scale(0.015625)"/>
       <path d="M 213 1659 
Q 213 2581 725 3025 
Q 1153 3394 1769 3394 
Q 2453 3394 2887 2945 
Q 3322 2497 3322 1706 
Q 3322 1066 3130 698 
Q 2938 331 2570 128 
Q 2203 -75 1769 -75 
Q 1072 -75 642 372 
Q 213 819 213 1659 
z
M 791 1659 
Q 791 1022 1069 705 
Q 1347 388 1769 388 
Q 2188 388 2466 706 
Q 2744 1025 2744 1678 
Q 2744 2294 2464 2611 
Q 2184 2928 1769 2928 
Q 1347 2928 1069 2612 
Q 791 2297 791 1659 
z
" id="ArialMT-6f" transform="scale(0.015625)"/>
       <path d="M 1650 503 
L 1731 6 
Q 1494 -44 1306 -44 
Q 1000 -44 831 53 
Q 663 150 594 308 
Q 525 466 525 972 
L 525 2881 
L 113 2881 
L 113 3319 
L 525 3319 
L 525 4141 
L 1084 4478 
L 1084 3319 
L 1650 3319 
L 1650 2881 
L 1084 2881 
L 1084 941 
Q 1084 700 1114 631 
Q 1144 563 1211 522 
Q 1278 481 1403 481 
Q 1497 481 1650 503 
z
" id="ArialMT-74" transform="scale(0.015625)"/>
       <path d="M 2694 1069 
L 3275 997 
Q 3138 488 2766 206 
Q 2394 -75 1816 -75 
Q 1088 -75 661 373 
Q 234 822 234 1631 
Q 234 2469 665 2931 
Q 1097 3394 1784 3394 
Q 2450 3394 2872 2941 
Q 3294 2488 3294 1666 
Q 3294 1616 3291 1516 
L 816 1516 
Q 847 969 1125 678 
Q 1403 388 1819 388 
Q 2128 388 2347 550 
Q 2566 713 2694 1069 
z
M 847 1978 
L 2700 1978 
Q 2663 2397 2488 2606 
Q 2219 2931 1791 2931 
Q 1403 2931 1139 2672 
Q 875 2413 847 1978 
z
" id="ArialMT-65" transform="scale(0.015625)"/>
       <path d="M 422 0 
L 422 3319 
L 928 3319 
L 928 2847 
Q 1294 3394 1984 3394 
Q 2284 3394 2536 3286 
Q 2788 3178 2913 3003 
Q 3038 2828 3088 2588 
Q 3119 2431 3119 2041 
L 3119 0 
L 2556 0 
L 2556 2019 
Q 2556 2363 2490 2533 
Q 2425 2703 2258 2804 
Q 2091 2906 1866 2906 
Q 1506 2906 1245 2678 
Q 984 2450 984 1813 
L 984 0 
L 422 0 
z
" id="ArialMT-6e" transform="scale(0.015625)"/>
       <path d="M 425 3934 
L 425 4581 
L 988 4581 
L 988 3934 
L 425 3934 
z
M 425 0 
L 425 3319 
L 988 3319 
L 988 0 
L 425 0 
z
" id="ArialMT-69" transform="scale(0.015625)"/>
       <path d="M 2588 409 
Q 2275 144 1986 34 
Q 1697 -75 1366 -75 
Q 819 -75 525 192 
Q 231 459 231 875 
Q 231 1119 342 1320 
Q 453 1522 633 1644 
Q 813 1766 1038 1828 
Q 1203 1872 1538 1913 
Q 2219 1994 2541 2106 
Q 2544 2222 2544 2253 
Q 2544 2597 2384 2738 
Q 2169 2928 1744 2928 
Q 1347 2928 1158 2789 
Q 969 2650 878 2297 
L 328 2372 
Q 403 2725 575 2942 
Q 747 3159 1072 3276 
Q 1397 3394 1825 3394 
Q 2250 3394 2515 3294 
Q 2781 3194 2906 3042 
Q 3031 2891 3081 2659 
Q 3109 2516 3109 2141 
L 3109 1391 
Q 3109 606 3145 398 
Q 3181 191 3288 0 
L 2700 0 
Q 2613 175 2588 409 
z
M 2541 1666 
Q 2234 1541 1622 1453 
Q 1275 1403 1131 1340 
Q 988 1278 909 1158 
Q 831 1038 831 891 
Q 831 666 1001 516 
Q 1172 366 1500 366 
Q 1825 366 2078 508 
Q 2331 650 2450 897 
Q 2541 1088 2541 1459 
L 2541 1666 
z
" id="ArialMT-61" transform="scale(0.015625)"/>
       <path d="M 409 0 
L 409 4581 
L 972 4581 
L 972 0 
L 409 0 
z
" id="ArialMT-6c" transform="scale(0.015625)"/>
      </defs>
      <use xlink:href="#ArialMT-50"/>
      <use x="66.699219" xlink:href="#ArialMT-6f"/>
      <use x="122.314453" xlink:href="#ArialMT-74"/>
      <use x="150.097656" xlink:href="#ArialMT-65"/>
      <use x="205.712891" xlink:href="#ArialMT-6e"/>
      <use x="261.328125" xlink:href="#ArialMT-74"/>
      <use x="289.111328" xlink:href="#ArialMT-69"/>
      <use x="311.328125" xlink:href="#ArialMT-61"/>
      <use x="366.943359" xlink:href="#ArialMT-6c"/>
     </g>
    </g>
   </g>
   <g id="line2d_15">
    <path clip-path="url(#p665416e5df)" d="M 98.23233 -1 
L 100.080194 7.189314 
L 102.469672 17.101834 
L 104.85915 26.36961 
L 107.248628 35.02408 
L 109.638106 43.095757 
L 112.027584 50.614227 
L 114.417062 57.608156 
L 116.80654 64.105281 
L 119.196019 70.132417 
L 121.585497 75.715453 
L 123.974975 80.879354 
L 126.364453 85.64816 
L 128.753931 90.044988 
L 131.143409 94.092027 
L 133.532887 97.810545 
L 135.922365 101.220884 
L 138.311843 104.34246 
L 140.701322 107.193765 
L 143.0908 109.792369 
L 145.480278 112.154913 
L 147.869756 114.297117 
L 150.259234 116.233775 
L 152.648712 117.978756 
L 155.03819 119.545005 
L 157.427668 120.944542 
L 159.817146 122.188463 
L 162.206625 123.286938 
L 164.596103 124.249213 
L 166.985581 125.083611 
L 169.375059 125.797528 
L 171.764537 126.397437 
L 174.154015 126.888886 
L 176.543493 127.276496 
L 178.932971 127.563968 
L 181.322449 127.754075 
L 183.711928 127.848667 
L 186.101406 127.848667 
L 188.490884 127.754075 
L 190.880362 127.563968 
L 193.26984 127.276496 
L 195.659318 126.888886 
L 198.048796 126.397437 
L 200.438274 125.797528 
L 202.827753 125.083611 
L 205.217231 124.249213 
L 207.606709 123.286938 
L 209.996187 122.188463 
L 212.385665 120.944542 
L 214.775143 119.545005 
L 217.164621 117.978756 
L 219.554099 116.233775 
L 221.943577 114.297117 
L 224.333056 112.154913 
L 226.722534 109.792369 
L 229.112012 107.193765 
L 231.50149 104.34246 
L 233.890968 101.220884 
L 236.280446 97.810545 
L 238.669924 94.092027 
L 241.059402 90.044988 
L 243.44888 85.64816 
L 245.838359 80.879354 
L 248.227837 75.715453 
L 250.617315 70.132417 
L 253.006793 64.105281 
L 255.396271 57.608156 
L 257.785749 50.614227 
L 260.175227 43.095757 
L 262.564705 35.02408 
L 264.954184 26.36961 
L 267.343662 17.101834 
L 269.73314 7.189314 
L 271.581004 -1 
" style="fill:none;stroke:#4c72b0;stroke-linecap:round;stroke-width:1.5;"/>
   </g>
   <g id="patch_3">
    <path d="M 66.6275 243.510469 
L 66.6275 12.210469 
" style="fill:none;stroke:#ffffff;stroke-linecap:square;stroke-linejoin:miter;stroke-width:1.25;"/>
   </g>
   <g id="patch_4">
    <path d="M 303.185833 243.510469 
L 303.185833 12.210469 
" style="fill:none;stroke:#ffffff;stroke-linecap:square;stroke-linejoin:miter;stroke-width:1.25;"/>
   </g>
   <g id="patch_5">
    <path d="M 66.6275 243.510469 
L 303.185833 243.510469 
" style="fill:none;stroke:#ffffff;stroke-linecap:square;stroke-linejoin:miter;stroke-width:1.25;"/>
   </g>
   <g id="patch_6">
    <path d="M 66.6275 12.210469 
L 303.185833 12.210469 
" style="fill:none;stroke:#ffffff;stroke-linecap:square;stroke-linejoin:miter;stroke-width:1.25;"/>
   </g>
   <g id="legend_1">
    <g id="patch_7">
     <path d="M 133.666667 44.130469 
L 236.146667 44.130469 
Q 238.946667 44.130469 238.946667 41.330469 
L 238.946667 22.010469 
Q 238.946667 19.210469 236.146667 19.210469 
L 133.666667 19.210469 
Q 130.866667 19.210469 130.866667 22.010469 
L 130.866667 41.330469 
Q 130.866667 44.130469 133.666667 44.130469 
z
" style="fill:#eaeaf2;opacity:0.8;stroke:#cccccc;stroke-linejoin:miter;"/>
    </g>
    <g id="line2d_16">
     <path d="M 136.466667 30.690469 
L 136.466667 30.690469 
" style="fill:none;stroke:#4c72b0;stroke-linecap:round;stroke-width:1.5;"/>
    </g>
    <g id="line2d_17"/>
    <g id="text_16">
     <!-- $\alpha$ = 1.0, $\beta$ = 1.0 -->
     <g style="fill:#262626;" transform="translate(136.466667 35.590469)scale(0.14 -0.14)">
      <defs>
       <path d="M 2619 1628 
L 2622 2350 
Q 2625 3088 2069 3091 
Q 1653 3094 1394 2747 
Q 1069 2319 959 1747 
Q 825 1059 994 731 
Q 1169 397 1547 397 
Q 1966 397 2319 1063 
L 2619 1628 
z
M 2166 3578 
Q 3141 3594 3128 2584 
Q 3128 2584 3616 3500 
L 4128 3500 
L 3119 1603 
L 3109 919 
Q 3109 766 3194 638 
Q 3291 488 3391 488 
L 3669 488 
L 3575 0 
L 3228 0 
Q 2934 0 2722 263 
Q 2622 394 2619 669 
Q 2416 334 2066 50 
Q 1900 -81 1453 -78 
Q 722 -72 456 397 
Q 184 884 353 1747 
Q 534 2675 1009 3097 
Q 1544 3569 2166 3578 
z
" id="DejaVuSans-Oblique-3b1" transform="scale(0.015625)"/>
       <path id="ArialMT-20" transform="scale(0.015625)"/>
       <path d="M 3381 2694 
L 356 2694 
L 356 3219 
L 3381 3219 
L 3381 2694 
z
M 3381 1303 
L 356 1303 
L 356 1828 
L 3381 1828 
L 3381 1303 
z
" id="ArialMT-3d" transform="scale(0.015625)"/>
       <path d="M 569 0 
L 569 641 
L 1209 641 
L 1209 0 
Q 1209 -353 1084 -570 
Q 959 -788 688 -906 
L 531 -666 
Q 709 -588 793 -436 
Q 878 -284 888 0 
L 569 0 
z
" id="ArialMT-2c" transform="scale(0.015625)"/>
       <path d="M 872 216 
L 572 -1331 
L -6 -1331 
L 928 3478 
Q 1206 4903 2538 4903 
Q 3888 4903 3659 3700 
Q 3503 2844 2894 2531 
Q 3713 2250 3553 1416 
Q 3272 -69 1759 -66 
Q 1097 -63 872 216 
z
M 1019 966 
Q 1259 422 1875 425 
Q 2775 425 2966 1406 
Q 3138 2288 1675 2219 
L 1778 2750 
Q 2909 2731 3106 3750 
Q 3241 4438 2509 4434 
Q 1691 4434 1503 3459 
L 1019 966 
z
" id="DejaVuSans-Oblique-3b2" transform="scale(0.015625)"/>
      </defs>
      <use transform="translate(0 0.390625)" xlink:href="#DejaVuSans-Oblique-3b1"/>
      <use transform="translate(65.917969 0.390625)" xlink:href="#ArialMT-20"/>
      <use transform="translate(93.701172 0.390625)" xlink:href="#ArialMT-3d"/>
      <use transform="translate(152.099609 0.390625)" xlink:href="#ArialMT-20"/>
      <use transform="translate(179.882812 0.390625)" xlink:href="#ArialMT-31"/>
      <use transform="translate(235.498047 0.390625)" xlink:href="#ArialMT-2e"/>
      <use transform="translate(263.28125 0.390625)" xlink:href="#ArialMT-30"/>
      <use transform="translate(318.896484 0.390625)" xlink:href="#ArialMT-2c"/>
      <use transform="translate(346.679688 0.390625)" xlink:href="#ArialMT-20"/>
      <use transform="translate(374.462891 0.390625)" xlink:href="#DejaVuSans-Oblique-3b2"/>
      <use transform="translate(438.28125 0.390625)" xlink:href="#ArialMT-20"/>
      <use transform="translate(466.064453 0.390625)" xlink:href="#ArialMT-3d"/>
      <use transform="translate(524.462891 0.390625)" xlink:href="#ArialMT-20"/>
      <use transform="translate(552.246094 0.390625)" xlink:href="#ArialMT-31"/>
      <use transform="translate(607.861328 0.390625)" xlink:href="#ArialMT-2e"/>
      <use transform="translate(635.644531 0.390625)" xlink:href="#ArialMT-30"/>
     </g>
    </g>
   </g>
  </g>
  <g id="axes_2">
   <g id="patch_8">
    <path d="M 343.360833 243.510469 
L 579.919167 243.510469 
L 579.919167 12.210469 
L 343.360833 12.210469 
z
" style="fill:#eaeaf2;"/>
   </g>
   <g id="matplotlib.axis_3">
    <g id="xtick_6">
     <g id="line2d_18">
      <path clip-path="url(#pf0b8ae1a10)" d="M 343.360833 243.510469 
L 343.360833 12.210469 
" style="fill:none;stroke:#ffffff;stroke-linecap:round;"/>
     </g>
     <g id="text_17">
      <!-- −2 -->
      <g style="fill:#262626;" transform="translate(335.37974 263.031406)scale(0.14 -0.14)">
       <use xlink:href="#ArialMT-2212"/>
       <use x="58.398438" xlink:href="#ArialMT-32"/>
      </g>
     </g>
    </g>
    <g id="xtick_7">
     <g id="line2d_19">
      <path clip-path="url(#pf0b8ae1a10)" d="M 402.500417 243.510469 
L 402.500417 12.210469 
" style="fill:none;stroke:#ffffff;stroke-linecap:round;"/>
     </g>
     <g id="text_18">
      <!-- −1 -->
      <g style="fill:#262626;" transform="translate(394.519323 263.031406)scale(0.14 -0.14)">
       <use xlink:href="#ArialMT-2212"/>
       <use x="58.398438" xlink:href="#ArialMT-31"/>
      </g>
     </g>
    </g>
    <g id="xtick_8">
     <g id="line2d_20">
      <path clip-path="url(#pf0b8ae1a10)" d="M 461.64 243.510469 
L 461.64 12.210469 
" style="fill:none;stroke:#ffffff;stroke-linecap:round;"/>
     </g>
     <g id="text_19">
      <!-- 0 -->
      <g style="fill:#262626;" transform="translate(457.747344 263.031406)scale(0.14 -0.14)">
       <use xlink:href="#ArialMT-30"/>
      </g>
     </g>
    </g>
    <g id="xtick_9">
     <g id="line2d_21">
      <path clip-path="url(#pf0b8ae1a10)" d="M 520.779583 243.510469 
L 520.779583 12.210469 
" style="fill:none;stroke:#ffffff;stroke-linecap:round;"/>
     </g>
     <g id="text_20">
      <!-- 1 -->
      <g style="fill:#262626;" transform="translate(516.886927 263.031406)scale(0.14 -0.14)">
       <use xlink:href="#ArialMT-31"/>
      </g>
     </g>
    </g>
    <g id="xtick_10">
     <g id="line2d_22">
      <path clip-path="url(#pf0b8ae1a10)" d="M 579.919167 243.510469 
L 579.919167 12.210469 
" style="fill:none;stroke:#ffffff;stroke-linecap:round;"/>
     </g>
     <g id="text_21">
      <!-- 2 -->
      <g style="fill:#262626;" transform="translate(576.02651 263.031406)scale(0.14 -0.14)">
       <use xlink:href="#ArialMT-32"/>
      </g>
     </g>
    </g>
   </g>
   <g id="matplotlib.axis_4">
    <g id="ytick_10">
     <g id="line2d_23">
      <path clip-path="url(#pf0b8ae1a10)" d="M 343.360833 243.510469 
L 579.919167 243.510469 
" style="fill:none;stroke:#ffffff;stroke-linecap:round;"/>
     </g>
     <g id="text_22">
      <!-- −2.0 -->
      <g style="fill:#262626;" transform="translate(306.223958 248.520937)scale(0.14 -0.14)">
       <use xlink:href="#ArialMT-2212"/>
       <use x="58.398438" xlink:href="#ArialMT-32"/>
       <use x="114.013672" xlink:href="#ArialMT-2e"/>
       <use x="141.796875" xlink:href="#ArialMT-30"/>
      </g>
     </g>
    </g>
    <g id="ytick_11">
     <g id="line2d_24">
      <path clip-path="url(#pf0b8ae1a10)" d="M 343.360833 214.597969 
L 579.919167 214.597969 
" style="fill:none;stroke:#ffffff;stroke-linecap:round;"/>
     </g>
     <g id="text_23">
      <!-- −1.5 -->
      <g style="fill:#262626;" transform="translate(306.223958 219.608437)scale(0.14 -0.14)">
       <use xlink:href="#ArialMT-2212"/>
       <use x="58.398438" xlink:href="#ArialMT-31"/>
       <use x="114.013672" xlink:href="#ArialMT-2e"/>
       <use x="141.796875" xlink:href="#ArialMT-35"/>
      </g>
     </g>
    </g>
    <g id="ytick_12">
     <g id="line2d_25">
      <path clip-path="url(#pf0b8ae1a10)" d="M 343.360833 185.685469 
L 579.919167 185.685469 
" style="fill:none;stroke:#ffffff;stroke-linecap:round;"/>
     </g>
     <g id="text_24">
      <!-- −1.0 -->
      <g style="fill:#262626;" transform="translate(306.223958 190.695937)scale(0.14 -0.14)">
       <use xlink:href="#ArialMT-2212"/>
       <use x="58.398438" xlink:href="#ArialMT-31"/>
       <use x="114.013672" xlink:href="#ArialMT-2e"/>
       <use x="141.796875" xlink:href="#ArialMT-30"/>
      </g>
     </g>
    </g>
    <g id="ytick_13">
     <g id="line2d_26">
      <path clip-path="url(#pf0b8ae1a10)" d="M 343.360833 156.772969 
L 579.919167 156.772969 
" style="fill:none;stroke:#ffffff;stroke-linecap:round;"/>
     </g>
     <g id="text_25">
      <!-- −0.5 -->
      <g style="fill:#262626;" transform="translate(306.223958 161.783437)scale(0.14 -0.14)">
       <use xlink:href="#ArialMT-2212"/>
       <use x="58.398438" xlink:href="#ArialMT-30"/>
       <use x="114.013672" xlink:href="#ArialMT-2e"/>
       <use x="141.796875" xlink:href="#ArialMT-35"/>
      </g>
     </g>
    </g>
    <g id="ytick_14">
     <g id="line2d_27">
      <path clip-path="url(#pf0b8ae1a10)" d="M 343.360833 127.860469 
L 579.919167 127.860469 
" style="fill:none;stroke:#ffffff;stroke-linecap:round;"/>
     </g>
     <g id="text_26">
      <!-- 0.0 -->
      <g style="fill:#262626;" transform="translate(314.400833 132.870937)scale(0.14 -0.14)">
       <use xlink:href="#ArialMT-30"/>
       <use x="55.615234" xlink:href="#ArialMT-2e"/>
       <use x="83.398438" xlink:href="#ArialMT-30"/>
      </g>
     </g>
    </g>
    <g id="ytick_15">
     <g id="line2d_28">
      <path clip-path="url(#pf0b8ae1a10)" d="M 343.360833 98.947969 
L 579.919167 98.947969 
" style="fill:none;stroke:#ffffff;stroke-linecap:round;"/>
     </g>
     <g id="text_27">
      <!-- 0.5 -->
      <g style="fill:#262626;" transform="translate(314.400833 103.958437)scale(0.14 -0.14)">
       <use xlink:href="#ArialMT-30"/>
       <use x="55.615234" xlink:href="#ArialMT-2e"/>
       <use x="83.398438" xlink:href="#ArialMT-35"/>
      </g>
     </g>
    </g>
    <g id="ytick_16">
     <g id="line2d_29">
      <path clip-path="url(#pf0b8ae1a10)" d="M 343.360833 70.035469 
L 579.919167 70.035469 
" style="fill:none;stroke:#ffffff;stroke-linecap:round;"/>
     </g>
     <g id="text_28">
      <!-- 1.0 -->
      <g style="fill:#262626;" transform="translate(314.400833 75.045937)scale(0.14 -0.14)">
       <use xlink:href="#ArialMT-31"/>
       <use x="55.615234" xlink:href="#ArialMT-2e"/>
       <use x="83.398438" xlink:href="#ArialMT-30"/>
      </g>
     </g>
    </g>
    <g id="ytick_17">
     <g id="line2d_30">
      <path clip-path="url(#pf0b8ae1a10)" d="M 343.360833 41.122969 
L 579.919167 41.122969 
" style="fill:none;stroke:#ffffff;stroke-linecap:round;"/>
     </g>
     <g id="text_29">
      <!-- 1.5 -->
      <g style="fill:#262626;" transform="translate(314.400833 46.133437)scale(0.14 -0.14)">
       <use xlink:href="#ArialMT-31"/>
       <use x="55.615234" xlink:href="#ArialMT-2e"/>
       <use x="83.398438" xlink:href="#ArialMT-35"/>
      </g>
     </g>
    </g>
    <g id="ytick_18">
     <g id="line2d_31">
      <path clip-path="url(#pf0b8ae1a10)" d="M 343.360833 12.210469 
L 579.919167 12.210469 
" style="fill:none;stroke:#ffffff;stroke-linecap:round;"/>
     </g>
     <g id="text_30">
      <!-- 2.0 -->
      <g style="fill:#262626;" transform="translate(314.400833 17.220937)scale(0.14 -0.14)">
       <use xlink:href="#ArialMT-32"/>
       <use x="55.615234" xlink:href="#ArialMT-2e"/>
       <use x="83.398438" xlink:href="#ArialMT-30"/>
      </g>
     </g>
    </g>
   </g>
   <g id="line2d_32">
    <path clip-path="url(#pf0b8ae1a10)" d="M 343.360833 127.860469 
L 345.750311 127.860469 
L 348.13979 127.860469 
L 350.529268 127.860469 
L 352.918746 127.860469 
L 355.308224 127.860469 
L 357.697702 127.860469 
L 360.08718 127.860469 
L 362.476658 127.860469 
L 364.866136 127.860469 
L 367.255614 127.860469 
L 369.645093 127.860469 
L 372.034571 127.860469 
L 374.424049 127.860469 
L 376.813527 127.860469 
L 379.203005 127.860469 
L 381.592483 127.860469 
L 383.981961 127.860469 
L 386.371439 127.860469 
L 388.760918 127.860469 
L 391.150396 127.860469 
L 393.539874 127.860469 
L 395.929352 127.860469 
L 398.31883 127.860469 
L 400.708308 127.860469 
L 403.097786 127.860469 
L 405.487264 127.860469 
L 407.876742 127.860469 
L 410.266221 127.860469 
L 412.655699 127.860469 
L 415.045177 127.860469 
L 417.434655 127.860469 
L 419.824133 127.860469 
L 422.213611 127.860469 
L 424.603089 127.860469 
L 426.992567 127.860469 
L 429.382045 127.860469 
L 431.771524 127.860469 
L 434.161002 127.860469 
L 436.55048 127.860469 
L 438.939958 127.860469 
L 441.329436 127.860469 
L 443.718914 127.860469 
L 446.108392 127.860469 
L 448.49787 127.860469 
L 450.887348 127.860469 
L 453.276827 127.860469 
L 455.666305 127.860469 
L 458.055783 127.860469 
L 460.445261 127.860469 
L 462.834739 127.860469 
L 465.224217 127.860469 
L 467.613695 127.860469 
L 470.003173 127.860469 
L 472.392652 127.860469 
L 474.78213 127.860469 
L 477.171608 127.860469 
L 479.561086 127.860469 
L 481.950564 127.860469 
L 484.340042 127.860469 
L 486.72952 127.860469 
L 489.118998 127.860469 
L 491.508476 127.860469 
L 493.897955 127.860469 
L 496.287433 127.860469 
L 498.676911 127.860469 
L 501.066389 127.860469 
L 503.455867 127.860469 
L 505.845345 127.860469 
L 508.234823 127.860469 
L 510.624301 127.860469 
L 513.013779 127.860469 
L 515.403258 127.860469 
L 517.792736 127.860469 
L 520.182214 127.860469 
L 522.571692 127.860469 
L 524.96117 127.860469 
L 527.350648 127.860469 
L 529.740126 127.860469 
L 532.129604 127.860469 
L 534.519082 127.860469 
L 536.908561 127.860469 
L 539.298039 127.860469 
L 541.687517 127.860469 
L 544.076995 127.860469 
L 546.466473 127.860469 
L 548.855951 127.860469 
L 551.245429 127.860469 
L 553.634907 127.860469 
L 556.024386 127.860469 
L 558.413864 127.860469 
L 560.803342 127.860469 
L 563.19282 127.860469 
L 565.582298 127.860469 
L 567.971776 127.860469 
L 570.361254 127.860469 
L 572.750732 127.860469 
L 575.14021 127.860469 
L 577.529689 127.860469 
L 579.919167 127.860469 
" style="fill:none;stroke:#4c72b0;stroke-linecap:round;stroke-width:1.5;"/>
   </g>
   <g id="patch_9">
    <path d="M 343.360833 243.510469 
L 343.360833 12.210469 
" style="fill:none;stroke:#ffffff;stroke-linecap:square;stroke-linejoin:miter;stroke-width:1.25;"/>
   </g>
   <g id="patch_10">
    <path d="M 579.919167 243.510469 
L 579.919167 12.210469 
" style="fill:none;stroke:#ffffff;stroke-linecap:square;stroke-linejoin:miter;stroke-width:1.25;"/>
   </g>
   <g id="patch_11">
    <path d="M 343.360833 243.510469 
L 579.919167 243.510469 
" style="fill:none;stroke:#ffffff;stroke-linecap:square;stroke-linejoin:miter;stroke-width:1.25;"/>
   </g>
   <g id="patch_12">
    <path d="M 343.360833 12.210469 
L 579.919167 12.210469 
" style="fill:none;stroke:#ffffff;stroke-linecap:square;stroke-linejoin:miter;stroke-width:1.25;"/>
   </g>
   <g id="legend_2">
    <g id="patch_13">
     <path d="M 410.4 44.130469 
L 512.88 44.130469 
Q 515.68 44.130469 515.68 41.330469 
L 515.68 22.010469 
Q 515.68 19.210469 512.88 19.210469 
L 410.4 19.210469 
Q 407.6 19.210469 407.6 22.010469 
L 407.6 41.330469 
Q 407.6 44.130469 410.4 44.130469 
z
" style="fill:#eaeaf2;opacity:0.8;stroke:#cccccc;stroke-linejoin:miter;"/>
    </g>
    <g id="line2d_33">
     <path d="M 413.2 30.690469 
L 413.2 30.690469 
" style="fill:none;stroke:#4c72b0;stroke-linecap:round;stroke-width:1.5;"/>
    </g>
    <g id="line2d_34"/>
    <g id="text_31">
     <!-- $\alpha$ = 0.0, $\beta$ = 0.0 -->
     <g style="fill:#262626;" transform="translate(413.2 35.590469)scale(0.14 -0.14)">
      <use transform="translate(0 0.390625)" xlink:href="#DejaVuSans-Oblique-3b1"/>
      <use transform="translate(65.917969 0.390625)" xlink:href="#ArialMT-20"/>
      <use transform="translate(93.701172 0.390625)" xlink:href="#ArialMT-3d"/>
      <use transform="translate(152.099609 0.390625)" xlink:href="#ArialMT-20"/>
      <use transform="translate(179.882812 0.390625)" xlink:href="#ArialMT-30"/>
      <use transform="translate(235.498047 0.390625)" xlink:href="#ArialMT-2e"/>
      <use transform="translate(263.28125 0.390625)" xlink:href="#ArialMT-30"/>
      <use transform="translate(318.896484 0.390625)" xlink:href="#ArialMT-2c"/>
      <use transform="translate(346.679688 0.390625)" xlink:href="#ArialMT-20"/>
      <use transform="translate(374.462891 0.390625)" xlink:href="#DejaVuSans-Oblique-3b2"/>
      <use transform="translate(438.28125 0.390625)" xlink:href="#ArialMT-20"/>
      <use transform="translate(466.064453 0.390625)" xlink:href="#ArialMT-3d"/>
      <use transform="translate(524.462891 0.390625)" xlink:href="#ArialMT-20"/>
      <use transform="translate(552.246094 0.390625)" xlink:href="#ArialMT-30"/>
      <use transform="translate(607.861328 0.390625)" xlink:href="#ArialMT-2e"/>
      <use transform="translate(635.644531 0.390625)" xlink:href="#ArialMT-30"/>
     </g>
    </g>
   </g>
  </g>
  <g id="axes_3">
   <g id="patch_14">
    <path d="M 620.094167 243.510469 
L 856.6525 243.510469 
L 856.6525 12.210469 
L 620.094167 12.210469 
z
" style="fill:#eaeaf2;"/>
   </g>
   <g id="matplotlib.axis_5">
    <g id="xtick_11">
     <g id="line2d_35">
      <path clip-path="url(#p60c227b843)" d="M 620.094167 243.510469 
L 620.094167 12.210469 
" style="fill:none;stroke:#ffffff;stroke-linecap:round;"/>
     </g>
     <g id="text_32">
      <!-- −2 -->
      <g style="fill:#262626;" transform="translate(612.113073 263.031406)scale(0.14 -0.14)">
       <use xlink:href="#ArialMT-2212"/>
       <use x="58.398438" xlink:href="#ArialMT-32"/>
      </g>
     </g>
    </g>
    <g id="xtick_12">
     <g id="line2d_36">
      <path clip-path="url(#p60c227b843)" d="M 679.23375 243.510469 
L 679.23375 12.210469 
" style="fill:none;stroke:#ffffff;stroke-linecap:round;"/>
     </g>
     <g id="text_33">
      <!-- −1 -->
      <g style="fill:#262626;" transform="translate(671.252656 263.031406)scale(0.14 -0.14)">
       <use xlink:href="#ArialMT-2212"/>
       <use x="58.398438" xlink:href="#ArialMT-31"/>
      </g>
     </g>
    </g>
    <g id="xtick_13">
     <g id="line2d_37">
      <path clip-path="url(#p60c227b843)" d="M 738.373333 243.510469 
L 738.373333 12.210469 
" style="fill:none;stroke:#ffffff;stroke-linecap:round;"/>
     </g>
     <g id="text_34">
      <!-- 0 -->
      <g style="fill:#262626;" transform="translate(734.480677 263.031406)scale(0.14 -0.14)">
       <use xlink:href="#ArialMT-30"/>
      </g>
     </g>
    </g>
    <g id="xtick_14">
     <g id="line2d_38">
      <path clip-path="url(#p60c227b843)" d="M 797.512917 243.510469 
L 797.512917 12.210469 
" style="fill:none;stroke:#ffffff;stroke-linecap:round;"/>
     </g>
     <g id="text_35">
      <!-- 1 -->
      <g style="fill:#262626;" transform="translate(793.62026 263.031406)scale(0.14 -0.14)">
       <use xlink:href="#ArialMT-31"/>
      </g>
     </g>
    </g>
    <g id="xtick_15">
     <g id="line2d_39">
      <path clip-path="url(#p60c227b843)" d="M 856.6525 243.510469 
L 856.6525 12.210469 
" style="fill:none;stroke:#ffffff;stroke-linecap:round;"/>
     </g>
     <g id="text_36">
      <!-- 2 -->
      <g style="fill:#262626;" transform="translate(852.759844 263.031406)scale(0.14 -0.14)">
       <use xlink:href="#ArialMT-32"/>
      </g>
     </g>
    </g>
   </g>
   <g id="matplotlib.axis_6">
    <g id="ytick_19">
     <g id="line2d_40">
      <path clip-path="url(#p60c227b843)" d="M 620.094167 243.510469 
L 856.6525 243.510469 
" style="fill:none;stroke:#ffffff;stroke-linecap:round;"/>
     </g>
     <g id="text_37">
      <!-- −2.0 -->
      <g style="fill:#262626;" transform="translate(582.957292 248.520937)scale(0.14 -0.14)">
       <use xlink:href="#ArialMT-2212"/>
       <use x="58.398438" xlink:href="#ArialMT-32"/>
       <use x="114.013672" xlink:href="#ArialMT-2e"/>
       <use x="141.796875" xlink:href="#ArialMT-30"/>
      </g>
     </g>
    </g>
    <g id="ytick_20">
     <g id="line2d_41">
      <path clip-path="url(#p60c227b843)" d="M 620.094167 214.597969 
L 856.6525 214.597969 
" style="fill:none;stroke:#ffffff;stroke-linecap:round;"/>
     </g>
     <g id="text_38">
      <!-- −1.5 -->
      <g style="fill:#262626;" transform="translate(582.957292 219.608437)scale(0.14 -0.14)">
       <use xlink:href="#ArialMT-2212"/>
       <use x="58.398438" xlink:href="#ArialMT-31"/>
       <use x="114.013672" xlink:href="#ArialMT-2e"/>
       <use x="141.796875" xlink:href="#ArialMT-35"/>
      </g>
     </g>
    </g>
    <g id="ytick_21">
     <g id="line2d_42">
      <path clip-path="url(#p60c227b843)" d="M 620.094167 185.685469 
L 856.6525 185.685469 
" style="fill:none;stroke:#ffffff;stroke-linecap:round;"/>
     </g>
     <g id="text_39">
      <!-- −1.0 -->
      <g style="fill:#262626;" transform="translate(582.957292 190.695937)scale(0.14 -0.14)">
       <use xlink:href="#ArialMT-2212"/>
       <use x="58.398438" xlink:href="#ArialMT-31"/>
       <use x="114.013672" xlink:href="#ArialMT-2e"/>
       <use x="141.796875" xlink:href="#ArialMT-30"/>
      </g>
     </g>
    </g>
    <g id="ytick_22">
     <g id="line2d_43">
      <path clip-path="url(#p60c227b843)" d="M 620.094167 156.772969 
L 856.6525 156.772969 
" style="fill:none;stroke:#ffffff;stroke-linecap:round;"/>
     </g>
     <g id="text_40">
      <!-- −0.5 -->
      <g style="fill:#262626;" transform="translate(582.957292 161.783437)scale(0.14 -0.14)">
       <use xlink:href="#ArialMT-2212"/>
       <use x="58.398438" xlink:href="#ArialMT-30"/>
       <use x="114.013672" xlink:href="#ArialMT-2e"/>
       <use x="141.796875" xlink:href="#ArialMT-35"/>
      </g>
     </g>
    </g>
    <g id="ytick_23">
     <g id="line2d_44">
      <path clip-path="url(#p60c227b843)" d="M 620.094167 127.860469 
L 856.6525 127.860469 
" style="fill:none;stroke:#ffffff;stroke-linecap:round;"/>
     </g>
     <g id="text_41">
      <!-- 0.0 -->
      <g style="fill:#262626;" transform="translate(591.134167 132.870937)scale(0.14 -0.14)">
       <use xlink:href="#ArialMT-30"/>
       <use x="55.615234" xlink:href="#ArialMT-2e"/>
       <use x="83.398438" xlink:href="#ArialMT-30"/>
      </g>
     </g>
    </g>
    <g id="ytick_24">
     <g id="line2d_45">
      <path clip-path="url(#p60c227b843)" d="M 620.094167 98.947969 
L 856.6525 98.947969 
" style="fill:none;stroke:#ffffff;stroke-linecap:round;"/>
     </g>
     <g id="text_42">
      <!-- 0.5 -->
      <g style="fill:#262626;" transform="translate(591.134167 103.958437)scale(0.14 -0.14)">
       <use xlink:href="#ArialMT-30"/>
       <use x="55.615234" xlink:href="#ArialMT-2e"/>
       <use x="83.398438" xlink:href="#ArialMT-35"/>
      </g>
     </g>
    </g>
    <g id="ytick_25">
     <g id="line2d_46">
      <path clip-path="url(#p60c227b843)" d="M 620.094167 70.035469 
L 856.6525 70.035469 
" style="fill:none;stroke:#ffffff;stroke-linecap:round;"/>
     </g>
     <g id="text_43">
      <!-- 1.0 -->
      <g style="fill:#262626;" transform="translate(591.134167 75.045937)scale(0.14 -0.14)">
       <use xlink:href="#ArialMT-31"/>
       <use x="55.615234" xlink:href="#ArialMT-2e"/>
       <use x="83.398438" xlink:href="#ArialMT-30"/>
      </g>
     </g>
    </g>
    <g id="ytick_26">
     <g id="line2d_47">
      <path clip-path="url(#p60c227b843)" d="M 620.094167 41.122969 
L 856.6525 41.122969 
" style="fill:none;stroke:#ffffff;stroke-linecap:round;"/>
     </g>
     <g id="text_44">
      <!-- 1.5 -->
      <g style="fill:#262626;" transform="translate(591.134167 46.133437)scale(0.14 -0.14)">
       <use xlink:href="#ArialMT-31"/>
       <use x="55.615234" xlink:href="#ArialMT-2e"/>
       <use x="83.398438" xlink:href="#ArialMT-35"/>
      </g>
     </g>
    </g>
    <g id="ytick_27">
     <g id="line2d_48">
      <path clip-path="url(#p60c227b843)" d="M 620.094167 12.210469 
L 856.6525 12.210469 
" style="fill:none;stroke:#ffffff;stroke-linecap:round;"/>
     </g>
     <g id="text_45">
      <!-- 2.0 -->
      <g style="fill:#262626;" transform="translate(591.134167 17.220937)scale(0.14 -0.14)">
       <use xlink:href="#ArialMT-32"/>
       <use x="55.615234" xlink:href="#ArialMT-2e"/>
       <use x="83.398438" xlink:href="#ArialMT-30"/>
      </g>
     </g>
    </g>
   </g>
   <g id="line2d_49">
    <path clip-path="url(#p60c227b843)" d="M 620.094167 359.160469 
L 622.483645 345.468887 
L 624.873123 332.41548 
L 627.262601 319.978057 
L 629.652079 308.134889 
L 632.041557 296.86471 
L 634.431035 286.146716 
L 636.820513 275.960564 
L 639.209992 266.286376 
L 641.59947 257.104735 
L 643.988948 248.396685 
L 646.378426 240.143733 
L 648.767904 232.327851 
L 651.157382 224.931469 
L 653.54686 217.937483 
L 655.936338 211.329249 
L 658.325816 205.090586 
L 660.715295 199.205775 
L 663.104773 193.65956 
L 665.494251 188.437148 
L 667.883729 183.524206 
L 670.273207 178.906864 
L 672.662685 174.571717 
L 675.052163 170.505819 
L 677.441641 166.696687 
L 679.83112 163.132303 
L 682.220598 159.801106 
L 684.610076 156.692003 
L 686.999554 153.794361 
L 689.389032 151.098007 
L 691.77851 148.593234 
L 694.167988 146.270795 
L 696.557466 144.121906 
L 698.946944 142.138247 
L 701.336423 140.311956 
L 703.725901 138.635638 
L 706.115379 137.102358 
L 708.504857 135.705643 
L 710.894335 134.439483 
L 713.283813 133.298331 
L 715.673291 132.277101 
L 718.062769 131.37117 
L 720.452247 130.576377 
L 722.841726 129.889023 
L 725.231204 129.305873 
L 727.620682 128.824153 
L 730.01016 128.44155 
L 732.399638 128.156217 
L 734.789116 127.966765 
L 737.178594 127.87227 
L 739.568072 127.87227 
L 741.957551 127.966765 
L 744.347029 128.156217 
L 746.736507 128.44155 
L 749.125985 128.824153 
L 751.515463 129.305873 
L 753.904941 129.889023 
L 756.294419 130.576377 
L 758.683897 131.37117 
L 761.073375 132.277101 
L 763.462854 133.298331 
L 765.852332 134.439483 
L 768.24181 135.705643 
L 770.631288 137.102358 
L 773.020766 138.635638 
L 775.410244 140.311956 
L 777.799722 142.138247 
L 780.1892 144.121906 
L 782.578678 146.270795 
L 784.968157 148.593234 
L 787.357635 151.098007 
L 789.747113 153.794361 
L 792.136591 156.692003 
L 794.526069 159.801106 
L 796.915547 163.132303 
L 799.305025 166.696687 
L 801.694503 170.505819 
L 804.083981 174.571717 
L 806.47346 178.906864 
L 808.862938 183.524206 
L 811.252416 188.437148 
L 813.641894 193.65956 
L 816.031372 199.205775 
L 818.42085 205.090586 
L 820.810328 211.329249 
L 823.199806 217.937483 
L 825.589285 224.931469 
L 827.978763 232.327851 
L 830.368241 240.143733 
L 832.757719 248.396685 
L 835.147197 257.104735 
L 837.536675 266.286376 
L 839.926153 275.960564 
L 842.315631 286.146716 
L 844.705109 296.86471 
L 847.094588 308.134889 
L 849.484066 319.978057 
L 851.873544 332.41548 
L 854.263022 345.468887 
L 856.6525 359.160469 
" style="fill:none;stroke:#4c72b0;stroke-linecap:round;stroke-width:1.5;"/>
   </g>
   <g id="patch_15">
    <path d="M 620.094167 243.510469 
L 620.094167 12.210469 
" style="fill:none;stroke:#ffffff;stroke-linecap:square;stroke-linejoin:miter;stroke-width:1.25;"/>
   </g>
   <g id="patch_16">
    <path d="M 856.6525 243.510469 
L 856.6525 12.210469 
" style="fill:none;stroke:#ffffff;stroke-linecap:square;stroke-linejoin:miter;stroke-width:1.25;"/>
   </g>
   <g id="patch_17">
    <path d="M 620.094167 243.510469 
L 856.6525 243.510469 
" style="fill:none;stroke:#ffffff;stroke-linecap:square;stroke-linejoin:miter;stroke-width:1.25;"/>
   </g>
   <g id="patch_18">
    <path d="M 620.094167 12.210469 
L 856.6525 12.210469 
" style="fill:none;stroke:#ffffff;stroke-linecap:square;stroke-linejoin:miter;stroke-width:1.25;"/>
   </g>
   <g id="legend_3">
    <g id="patch_19">
     <path d="M 682.513333 44.130469 
L 794.233333 44.130469 
Q 797.033333 44.130469 797.033333 41.330469 
L 797.033333 22.010469 
Q 797.033333 19.210469 794.233333 19.210469 
L 682.513333 19.210469 
Q 679.713333 19.210469 679.713333 22.010469 
L 679.713333 41.330469 
Q 679.713333 44.130469 682.513333 44.130469 
z
" style="fill:#eaeaf2;opacity:0.8;stroke:#cccccc;stroke-linejoin:miter;"/>
    </g>
    <g id="line2d_50">
     <path d="M 685.313333 30.690469 
L 685.313333 30.690469 
" style="fill:none;stroke:#4c72b0;stroke-linecap:round;stroke-width:1.5;"/>
    </g>
    <g id="line2d_51"/>
    <g id="text_46">
     <!-- $\alpha$ = -1.0, $\beta$ = -0.5 -->
     <g style="fill:#262626;" transform="translate(685.313333 35.590469)scale(0.14 -0.14)">
      <defs>
       <path d="M 203 1375 
L 203 1941 
L 1931 1941 
L 1931 1375 
L 203 1375 
z
" id="ArialMT-2d" transform="scale(0.015625)"/>
      </defs>
      <use transform="translate(0 0.390625)" xlink:href="#DejaVuSans-Oblique-3b1"/>
      <use transform="translate(65.917969 0.390625)" xlink:href="#ArialMT-20"/>
      <use transform="translate(93.701172 0.390625)" xlink:href="#ArialMT-3d"/>
      <use transform="translate(152.099609 0.390625)" xlink:href="#ArialMT-20"/>
      <use transform="translate(179.882812 0.390625)" xlink:href="#ArialMT-2d"/>
      <use transform="translate(213.183594 0.390625)" xlink:href="#ArialMT-31"/>
      <use transform="translate(268.798828 0.390625)" xlink:href="#ArialMT-2e"/>
      <use transform="translate(296.582031 0.390625)" xlink:href="#ArialMT-30"/>
      <use transform="translate(352.197266 0.390625)" xlink:href="#ArialMT-2c"/>
      <use transform="translate(379.980469 0.390625)" xlink:href="#ArialMT-20"/>
      <use transform="translate(407.763672 0.390625)" xlink:href="#DejaVuSans-Oblique-3b2"/>
      <use transform="translate(471.582031 0.390625)" xlink:href="#ArialMT-20"/>
      <use transform="translate(499.365234 0.390625)" xlink:href="#ArialMT-3d"/>
      <use transform="translate(557.763672 0.390625)" xlink:href="#ArialMT-20"/>
      <use transform="translate(585.546875 0.390625)" xlink:href="#ArialMT-2d"/>
      <use transform="translate(618.847656 0.390625)" xlink:href="#ArialMT-30"/>
      <use transform="translate(674.462891 0.390625)" xlink:href="#ArialMT-2e"/>
      <use transform="translate(702.246094 0.390625)" xlink:href="#ArialMT-35"/>
     </g>
    </g>
   </g>
  </g>
  <g id="axes_4">
   <g id="patch_20">
    <path d="M 66.6275 514.610469 
L 303.185833 514.610469 
L 303.185833 283.310469 
L 66.6275 283.310469 
z
" style="fill:#eaeaf2;"/>
   </g>
   <g id="matplotlib.axis_7">
    <g id="xtick_16">
     <g id="line2d_52">
      <path clip-path="url(#pee33aff833)" d="M 66.6275 514.610469 
L 66.6275 283.310469 
" style="fill:none;stroke:#ffffff;stroke-linecap:round;"/>
     </g>
     <g id="text_47">
      <!-- −2 -->
      <g style="fill:#262626;" transform="translate(58.646406 534.131406)scale(0.14 -0.14)">
       <use xlink:href="#ArialMT-2212"/>
       <use x="58.398438" xlink:href="#ArialMT-32"/>
      </g>
     </g>
    </g>
    <g id="xtick_17">
     <g id="line2d_53">
      <path clip-path="url(#pee33aff833)" d="M 125.767083 514.610469 
L 125.767083 283.310469 
" style="fill:none;stroke:#ffffff;stroke-linecap:round;"/>
     </g>
     <g id="text_48">
      <!-- −1 -->
      <g style="fill:#262626;" transform="translate(117.78599 534.131406)scale(0.14 -0.14)">
       <use xlink:href="#ArialMT-2212"/>
       <use x="58.398438" xlink:href="#ArialMT-31"/>
      </g>
     </g>
    </g>
    <g id="xtick_18">
     <g id="line2d_54">
      <path clip-path="url(#pee33aff833)" d="M 184.906667 514.610469 
L 184.906667 283.310469 
" style="fill:none;stroke:#ffffff;stroke-linecap:round;"/>
     </g>
     <g id="text_49">
      <!-- 0 -->
      <g style="fill:#262626;" transform="translate(181.01401 534.131406)scale(0.14 -0.14)">
       <use xlink:href="#ArialMT-30"/>
      </g>
     </g>
    </g>
    <g id="xtick_19">
     <g id="line2d_55">
      <path clip-path="url(#pee33aff833)" d="M 244.04625 514.610469 
L 244.04625 283.310469 
" style="fill:none;stroke:#ffffff;stroke-linecap:round;"/>
     </g>
     <g id="text_50">
      <!-- 1 -->
      <g style="fill:#262626;" transform="translate(240.153594 534.131406)scale(0.14 -0.14)">
       <use xlink:href="#ArialMT-31"/>
      </g>
     </g>
    </g>
    <g id="xtick_20">
     <g id="line2d_56">
      <path clip-path="url(#pee33aff833)" d="M 303.185833 514.610469 
L 303.185833 283.310469 
" style="fill:none;stroke:#ffffff;stroke-linecap:round;"/>
     </g>
     <g id="text_51">
      <!-- 2 -->
      <g style="fill:#262626;" transform="translate(299.293177 534.131406)scale(0.14 -0.14)">
       <use xlink:href="#ArialMT-32"/>
      </g>
     </g>
    </g>
    <g id="text_52">
     <!-- $x_0$ -->
     <g style="fill:#262626;" transform="translate(174.206667 555.229531)scale(0.2 -0.2)">
      <defs>
       <path d="M 3841 3500 
L 2234 1784 
L 3219 0 
L 2559 0 
L 1819 1388 
L 531 0 
L -166 0 
L 1556 1844 
L 641 3500 
L 1300 3500 
L 1972 2234 
L 3144 3500 
L 3841 3500 
z
" id="DejaVuSans-Oblique-78" transform="scale(0.015625)"/>
       <path d="M 2034 4250 
Q 1547 4250 1301 3770 
Q 1056 3291 1056 2328 
Q 1056 1369 1301 889 
Q 1547 409 2034 409 
Q 2525 409 2770 889 
Q 3016 1369 3016 2328 
Q 3016 3291 2770 3770 
Q 2525 4250 2034 4250 
z
M 2034 4750 
Q 2819 4750 3233 4129 
Q 3647 3509 3647 2328 
Q 3647 1150 3233 529 
Q 2819 -91 2034 -91 
Q 1250 -91 836 529 
Q 422 1150 422 2328 
Q 422 3509 836 4129 
Q 1250 4750 2034 4750 
z
" id="DejaVuSans-30" transform="scale(0.015625)"/>
      </defs>
      <use transform="translate(0 0.3125)" xlink:href="#DejaVuSans-Oblique-78"/>
      <use transform="translate(59.179688 -16.09375)scale(0.7)" xlink:href="#DejaVuSans-30"/>
     </g>
    </g>
   </g>
   <g id="matplotlib.axis_8">
    <g id="ytick_28">
     <g id="line2d_57">
      <path clip-path="url(#pee33aff833)" d="M 66.6275 514.610469 
L 303.185833 514.610469 
" style="fill:none;stroke:#ffffff;stroke-linecap:round;"/>
     </g>
     <g id="text_53">
      <!-- −2.0 -->
      <g style="fill:#262626;" transform="translate(29.490625 519.620937)scale(0.14 -0.14)">
       <use xlink:href="#ArialMT-2212"/>
       <use x="58.398438" xlink:href="#ArialMT-32"/>
       <use x="114.013672" xlink:href="#ArialMT-2e"/>
       <use x="141.796875" xlink:href="#ArialMT-30"/>
      </g>
     </g>
    </g>
    <g id="ytick_29">
     <g id="line2d_58">
      <path clip-path="url(#pee33aff833)" d="M 66.6275 485.697969 
L 303.185833 485.697969 
" style="fill:none;stroke:#ffffff;stroke-linecap:round;"/>
     </g>
     <g id="text_54">
      <!-- −1.5 -->
      <g style="fill:#262626;" transform="translate(29.490625 490.708437)scale(0.14 -0.14)">
       <use xlink:href="#ArialMT-2212"/>
       <use x="58.398438" xlink:href="#ArialMT-31"/>
       <use x="114.013672" xlink:href="#ArialMT-2e"/>
       <use x="141.796875" xlink:href="#ArialMT-35"/>
      </g>
     </g>
    </g>
    <g id="ytick_30">
     <g id="line2d_59">
      <path clip-path="url(#pee33aff833)" d="M 66.6275 456.785469 
L 303.185833 456.785469 
" style="fill:none;stroke:#ffffff;stroke-linecap:round;"/>
     </g>
     <g id="text_55">
      <!-- −1.0 -->
      <g style="fill:#262626;" transform="translate(29.490625 461.795937)scale(0.14 -0.14)">
       <use xlink:href="#ArialMT-2212"/>
       <use x="58.398438" xlink:href="#ArialMT-31"/>
       <use x="114.013672" xlink:href="#ArialMT-2e"/>
       <use x="141.796875" xlink:href="#ArialMT-30"/>
      </g>
     </g>
    </g>
    <g id="ytick_31">
     <g id="line2d_60">
      <path clip-path="url(#pee33aff833)" d="M 66.6275 427.872969 
L 303.185833 427.872969 
" style="fill:none;stroke:#ffffff;stroke-linecap:round;"/>
     </g>
     <g id="text_56">
      <!-- −0.5 -->
      <g style="fill:#262626;" transform="translate(29.490625 432.883437)scale(0.14 -0.14)">
       <use xlink:href="#ArialMT-2212"/>
       <use x="58.398438" xlink:href="#ArialMT-30"/>
       <use x="114.013672" xlink:href="#ArialMT-2e"/>
       <use x="141.796875" xlink:href="#ArialMT-35"/>
      </g>
     </g>
    </g>
    <g id="ytick_32">
     <g id="line2d_61">
      <path clip-path="url(#pee33aff833)" d="M 66.6275 398.960469 
L 303.185833 398.960469 
" style="fill:none;stroke:#ffffff;stroke-linecap:round;"/>
     </g>
     <g id="text_57">
      <!-- 0.0 -->
      <g style="fill:#262626;" transform="translate(37.6675 403.970937)scale(0.14 -0.14)">
       <use xlink:href="#ArialMT-30"/>
       <use x="55.615234" xlink:href="#ArialMT-2e"/>
       <use x="83.398438" xlink:href="#ArialMT-30"/>
      </g>
     </g>
    </g>
    <g id="ytick_33">
     <g id="line2d_62">
      <path clip-path="url(#pee33aff833)" d="M 66.6275 370.047969 
L 303.185833 370.047969 
" style="fill:none;stroke:#ffffff;stroke-linecap:round;"/>
     </g>
     <g id="text_58">
      <!-- 0.5 -->
      <g style="fill:#262626;" transform="translate(37.6675 375.058437)scale(0.14 -0.14)">
       <use xlink:href="#ArialMT-30"/>
       <use x="55.615234" xlink:href="#ArialMT-2e"/>
       <use x="83.398438" xlink:href="#ArialMT-35"/>
      </g>
     </g>
    </g>
    <g id="ytick_34">
     <g id="line2d_63">
      <path clip-path="url(#pee33aff833)" d="M 66.6275 341.135469 
L 303.185833 341.135469 
" style="fill:none;stroke:#ffffff;stroke-linecap:round;"/>
     </g>
     <g id="text_59">
      <!-- 1.0 -->
      <g style="fill:#262626;" transform="translate(37.6675 346.145937)scale(0.14 -0.14)">
       <use xlink:href="#ArialMT-31"/>
       <use x="55.615234" xlink:href="#ArialMT-2e"/>
       <use x="83.398438" xlink:href="#ArialMT-30"/>
      </g>
     </g>
    </g>
    <g id="ytick_35">
     <g id="line2d_64">
      <path clip-path="url(#pee33aff833)" d="M 66.6275 312.222969 
L 303.185833 312.222969 
" style="fill:none;stroke:#ffffff;stroke-linecap:round;"/>
     </g>
     <g id="text_60">
      <!-- 1.5 -->
      <g style="fill:#262626;" transform="translate(37.6675 317.233437)scale(0.14 -0.14)">
       <use xlink:href="#ArialMT-31"/>
       <use x="55.615234" xlink:href="#ArialMT-2e"/>
       <use x="83.398438" xlink:href="#ArialMT-35"/>
      </g>
     </g>
    </g>
    <g id="ytick_36">
     <g id="line2d_65">
      <path clip-path="url(#pee33aff833)" d="M 66.6275 283.310469 
L 303.185833 283.310469 
" style="fill:none;stroke:#ffffff;stroke-linecap:round;"/>
     </g>
     <g id="text_61">
      <!-- 2.0 -->
      <g style="fill:#262626;" transform="translate(37.6675 288.320937)scale(0.14 -0.14)">
       <use xlink:href="#ArialMT-32"/>
       <use x="55.615234" xlink:href="#ArialMT-2e"/>
       <use x="83.398438" xlink:href="#ArialMT-30"/>
      </g>
     </g>
    </g>
    <g id="text_62">
     <!-- Potential -->
     <g style="fill:#262626;" transform="translate(21.515625 437.874531)rotate(-90)scale(0.2 -0.2)">
      <use xlink:href="#ArialMT-50"/>
      <use x="66.699219" xlink:href="#ArialMT-6f"/>
      <use x="122.314453" xlink:href="#ArialMT-74"/>
      <use x="150.097656" xlink:href="#ArialMT-65"/>
      <use x="205.712891" xlink:href="#ArialMT-6e"/>
      <use x="261.328125" xlink:href="#ArialMT-74"/>
      <use x="289.111328" xlink:href="#ArialMT-69"/>
      <use x="311.328125" xlink:href="#ArialMT-61"/>
      <use x="366.943359" xlink:href="#ArialMT-6c"/>
     </g>
    </g>
   </g>
   <g id="line2d_66">
    <path clip-path="url(#pee33aff833)" d="M 66.6275 398.960469 
L 69.016978 403.400995 
L 71.406456 407.392142 
L 73.795934 410.956104 
L 76.185412 414.114607 
L 78.574891 416.888918 
L 80.964369 419.299841 
L 83.353847 421.367719 
L 85.743325 423.112431 
L 88.132803 424.553393 
L 90.522281 425.70956 
L 92.911759 426.599426 
L 95.301237 427.24102 
L 97.690715 427.651911 
L 100.080194 427.849203 
L 102.469672 427.84954 
L 104.85915 427.669103 
L 107.248628 427.323611 
L 109.638106 426.828319 
L 112.027584 426.198023 
L 114.417062 425.447053 
L 116.80654 424.58928 
L 119.196019 423.638109 
L 121.585497 422.606487 
L 123.974975 421.506895 
L 126.364453 420.351353 
L 128.753931 419.15142 
L 131.143409 417.91819 
L 133.532887 416.662298 
L 135.922365 415.393913 
L 138.311843 414.122745 
L 140.701322 412.85804 
L 143.0908 411.608581 
L 145.480278 410.382691 
L 147.869756 409.188228 
L 150.259234 408.03259 
L 152.648712 406.922712 
L 155.03819 405.865065 
L 157.427668 404.86566 
L 159.817146 403.930044 
L 162.206625 403.063304 
L 164.596103 402.270061 
L 166.985581 401.554478 
L 169.375059 400.920252 
L 171.764537 400.37062 
L 174.154015 399.908355 
L 176.543493 399.535769 
L 178.932971 399.254712 
L 181.322449 399.06657 
L 183.711928 398.972267 
L 186.101406 398.972267 
L 188.490884 399.06657 
L 190.880362 399.254712 
L 193.26984 399.535769 
L 195.659318 399.908355 
L 198.048796 400.37062 
L 200.438274 400.920252 
L 202.827753 401.554478 
L 205.217231 402.270061 
L 207.606709 403.063304 
L 209.996187 403.930044 
L 212.385665 404.86566 
L 214.775143 405.865065 
L 217.164621 406.922712 
L 219.554099 408.03259 
L 221.943577 409.188228 
L 224.333056 410.382691 
L 226.722534 411.608581 
L 229.112012 412.85804 
L 231.50149 414.122745 
L 233.890968 415.393913 
L 236.280446 416.662298 
L 238.669924 417.91819 
L 241.059402 419.15142 
L 243.44888 420.351353 
L 245.838359 421.506895 
L 248.227837 422.606487 
L 250.617315 423.638109 
L 253.006793 424.58928 
L 255.396271 425.447053 
L 257.785749 426.198023 
L 260.175227 426.828319 
L 262.564705 427.323611 
L 264.954184 427.669103 
L 267.343662 427.84954 
L 269.73314 427.849203 
L 272.122618 427.651911 
L 274.512096 427.24102 
L 276.901574 426.599426 
L 279.291052 425.70956 
L 281.68053 424.553393 
L 284.070008 423.112431 
L 286.459487 421.367719 
L 288.848965 419.299841 
L 291.238443 416.888918 
L 293.627921 414.114607 
L 296.017399 410.956104 
L 298.406877 407.392142 
L 300.796355 403.400995 
L 303.185833 398.960469 
" style="fill:none;stroke:#4c72b0;stroke-linecap:round;stroke-width:1.5;"/>
   </g>
   <g id="patch_21">
    <path d="M 66.6275 514.610469 
L 66.6275 283.310469 
" style="fill:none;stroke:#ffffff;stroke-linecap:square;stroke-linejoin:miter;stroke-width:1.25;"/>
   </g>
   <g id="patch_22">
    <path d="M 303.185833 514.610469 
L 303.185833 283.310469 
" style="fill:none;stroke:#ffffff;stroke-linecap:square;stroke-linejoin:miter;stroke-width:1.25;"/>
   </g>
   <g id="patch_23">
    <path d="M 66.6275 514.610469 
L 303.185833 514.610469 
" style="fill:none;stroke:#ffffff;stroke-linecap:square;stroke-linejoin:miter;stroke-width:1.25;"/>
   </g>
   <g id="patch_24">
    <path d="M 66.6275 283.310469 
L 303.185833 283.310469 
" style="fill:none;stroke:#ffffff;stroke-linecap:square;stroke-linejoin:miter;stroke-width:1.25;"/>
   </g>
   <g id="legend_4">
    <g id="patch_25">
     <path d="M 131.356667 315.230469 
L 238.456667 315.230469 
Q 241.256667 315.230469 241.256667 312.430469 
L 241.256667 293.110469 
Q 241.256667 290.310469 238.456667 290.310469 
L 131.356667 290.310469 
Q 128.556667 290.310469 128.556667 293.110469 
L 128.556667 312.430469 
Q 128.556667 315.230469 131.356667 315.230469 
z
" style="fill:#eaeaf2;opacity:0.8;stroke:#cccccc;stroke-linejoin:miter;"/>
    </g>
    <g id="line2d_67">
     <path d="M 134.156667 301.790469 
L 134.156667 301.790469 
" style="fill:none;stroke:#4c72b0;stroke-linecap:round;stroke-width:1.5;"/>
    </g>
    <g id="line2d_68"/>
    <g id="text_63">
     <!-- $\alpha$ = -1.0, $\beta$ = 0.5 -->
     <g style="fill:#262626;" transform="translate(134.156667 306.690469)scale(0.14 -0.14)">
      <use transform="translate(0 0.390625)" xlink:href="#DejaVuSans-Oblique-3b1"/>
      <use transform="translate(65.917969 0.390625)" xlink:href="#ArialMT-20"/>
      <use transform="translate(93.701172 0.390625)" xlink:href="#ArialMT-3d"/>
      <use transform="translate(152.099609 0.390625)" xlink:href="#ArialMT-20"/>
      <use transform="translate(179.882812 0.390625)" xlink:href="#ArialMT-2d"/>
      <use transform="translate(213.183594 0.390625)" xlink:href="#ArialMT-31"/>
      <use transform="translate(268.798828 0.390625)" xlink:href="#ArialMT-2e"/>
      <use transform="translate(296.582031 0.390625)" xlink:href="#ArialMT-30"/>
      <use transform="translate(352.197266 0.390625)" xlink:href="#ArialMT-2c"/>
      <use transform="translate(379.980469 0.390625)" xlink:href="#ArialMT-20"/>
      <use transform="translate(407.763672 0.390625)" xlink:href="#DejaVuSans-Oblique-3b2"/>
      <use transform="translate(471.582031 0.390625)" xlink:href="#ArialMT-20"/>
      <use transform="translate(499.365234 0.390625)" xlink:href="#ArialMT-3d"/>
      <use transform="translate(557.763672 0.390625)" xlink:href="#ArialMT-20"/>
      <use transform="translate(585.546875 0.390625)" xlink:href="#ArialMT-30"/>
      <use transform="translate(641.162109 0.390625)" xlink:href="#ArialMT-2e"/>
      <use transform="translate(668.945312 0.390625)" xlink:href="#ArialMT-35"/>
     </g>
    </g>
   </g>
  </g>
  <g id="axes_5">
   <g id="patch_26">
    <path d="M 343.360833 514.610469 
L 579.919167 514.610469 
L 579.919167 283.310469 
L 343.360833 283.310469 
z
" style="fill:#eaeaf2;"/>
   </g>
   <g id="matplotlib.axis_9">
    <g id="xtick_21">
     <g id="line2d_69">
      <path clip-path="url(#p92995b3561)" d="M 343.360833 514.610469 
L 343.360833 283.310469 
" style="fill:none;stroke:#ffffff;stroke-linecap:round;"/>
     </g>
     <g id="text_64">
      <!-- −2 -->
      <g style="fill:#262626;" transform="translate(335.37974 534.131406)scale(0.14 -0.14)">
       <use xlink:href="#ArialMT-2212"/>
       <use x="58.398438" xlink:href="#ArialMT-32"/>
      </g>
     </g>
    </g>
    <g id="xtick_22">
     <g id="line2d_70">
      <path clip-path="url(#p92995b3561)" d="M 402.500417 514.610469 
L 402.500417 283.310469 
" style="fill:none;stroke:#ffffff;stroke-linecap:round;"/>
     </g>
     <g id="text_65">
      <!-- −1 -->
      <g style="fill:#262626;" transform="translate(394.519323 534.131406)scale(0.14 -0.14)">
       <use xlink:href="#ArialMT-2212"/>
       <use x="58.398438" xlink:href="#ArialMT-31"/>
      </g>
     </g>
    </g>
    <g id="xtick_23">
     <g id="line2d_71">
      <path clip-path="url(#p92995b3561)" d="M 461.64 514.610469 
L 461.64 283.310469 
" style="fill:none;stroke:#ffffff;stroke-linecap:round;"/>
     </g>
     <g id="text_66">
      <!-- 0 -->
      <g style="fill:#262626;" transform="translate(457.747344 534.131406)scale(0.14 -0.14)">
       <use xlink:href="#ArialMT-30"/>
      </g>
     </g>
    </g>
    <g id="xtick_24">
     <g id="line2d_72">
      <path clip-path="url(#p92995b3561)" d="M 520.779583 514.610469 
L 520.779583 283.310469 
" style="fill:none;stroke:#ffffff;stroke-linecap:round;"/>
     </g>
     <g id="text_67">
      <!-- 1 -->
      <g style="fill:#262626;" transform="translate(516.886927 534.131406)scale(0.14 -0.14)">
       <use xlink:href="#ArialMT-31"/>
      </g>
     </g>
    </g>
    <g id="xtick_25">
     <g id="line2d_73">
      <path clip-path="url(#p92995b3561)" d="M 579.919167 514.610469 
L 579.919167 283.310469 
" style="fill:none;stroke:#ffffff;stroke-linecap:round;"/>
     </g>
     <g id="text_68">
      <!-- 2 -->
      <g style="fill:#262626;" transform="translate(576.02651 534.131406)scale(0.14 -0.14)">
       <use xlink:href="#ArialMT-32"/>
      </g>
     </g>
    </g>
    <g id="text_69">
     <!-- $x_0$ -->
     <g style="fill:#262626;" transform="translate(450.94 555.229531)scale(0.2 -0.2)">
      <use transform="translate(0 0.3125)" xlink:href="#DejaVuSans-Oblique-78"/>
      <use transform="translate(59.179688 -16.09375)scale(0.7)" xlink:href="#DejaVuSans-30"/>
     </g>
    </g>
   </g>
   <g id="matplotlib.axis_10">
    <g id="ytick_37">
     <g id="line2d_74">
      <path clip-path="url(#p92995b3561)" d="M 343.360833 514.610469 
L 579.919167 514.610469 
" style="fill:none;stroke:#ffffff;stroke-linecap:round;"/>
     </g>
     <g id="text_70">
      <!-- −2.0 -->
      <g style="fill:#262626;" transform="translate(306.223958 519.620937)scale(0.14 -0.14)">
       <use xlink:href="#ArialMT-2212"/>
       <use x="58.398438" xlink:href="#ArialMT-32"/>
       <use x="114.013672" xlink:href="#ArialMT-2e"/>
       <use x="141.796875" xlink:href="#ArialMT-30"/>
      </g>
     </g>
    </g>
    <g id="ytick_38">
     <g id="line2d_75">
      <path clip-path="url(#p92995b3561)" d="M 343.360833 485.697969 
L 579.919167 485.697969 
" style="fill:none;stroke:#ffffff;stroke-linecap:round;"/>
     </g>
     <g id="text_71">
      <!-- −1.5 -->
      <g style="fill:#262626;" transform="translate(306.223958 490.708437)scale(0.14 -0.14)">
       <use xlink:href="#ArialMT-2212"/>
       <use x="58.398438" xlink:href="#ArialMT-31"/>
       <use x="114.013672" xlink:href="#ArialMT-2e"/>
       <use x="141.796875" xlink:href="#ArialMT-35"/>
      </g>
     </g>
    </g>
    <g id="ytick_39">
     <g id="line2d_76">
      <path clip-path="url(#p92995b3561)" d="M 343.360833 456.785469 
L 579.919167 456.785469 
" style="fill:none;stroke:#ffffff;stroke-linecap:round;"/>
     </g>
     <g id="text_72">
      <!-- −1.0 -->
      <g style="fill:#262626;" transform="translate(306.223958 461.795937)scale(0.14 -0.14)">
       <use xlink:href="#ArialMT-2212"/>
       <use x="58.398438" xlink:href="#ArialMT-31"/>
       <use x="114.013672" xlink:href="#ArialMT-2e"/>
       <use x="141.796875" xlink:href="#ArialMT-30"/>
      </g>
     </g>
    </g>
    <g id="ytick_40">
     <g id="line2d_77">
      <path clip-path="url(#p92995b3561)" d="M 343.360833 427.872969 
L 579.919167 427.872969 
" style="fill:none;stroke:#ffffff;stroke-linecap:round;"/>
     </g>
     <g id="text_73">
      <!-- −0.5 -->
      <g style="fill:#262626;" transform="translate(306.223958 432.883437)scale(0.14 -0.14)">
       <use xlink:href="#ArialMT-2212"/>
       <use x="58.398438" xlink:href="#ArialMT-30"/>
       <use x="114.013672" xlink:href="#ArialMT-2e"/>
       <use x="141.796875" xlink:href="#ArialMT-35"/>
      </g>
     </g>
    </g>
    <g id="ytick_41">
     <g id="line2d_78">
      <path clip-path="url(#p92995b3561)" d="M 343.360833 398.960469 
L 579.919167 398.960469 
" style="fill:none;stroke:#ffffff;stroke-linecap:round;"/>
     </g>
     <g id="text_74">
      <!-- 0.0 -->
      <g style="fill:#262626;" transform="translate(314.400833 403.970937)scale(0.14 -0.14)">
       <use xlink:href="#ArialMT-30"/>
       <use x="55.615234" xlink:href="#ArialMT-2e"/>
       <use x="83.398438" xlink:href="#ArialMT-30"/>
      </g>
     </g>
    </g>
    <g id="ytick_42">
     <g id="line2d_79">
      <path clip-path="url(#p92995b3561)" d="M 343.360833 370.047969 
L 579.919167 370.047969 
" style="fill:none;stroke:#ffffff;stroke-linecap:round;"/>
     </g>
     <g id="text_75">
      <!-- 0.5 -->
      <g style="fill:#262626;" transform="translate(314.400833 375.058437)scale(0.14 -0.14)">
       <use xlink:href="#ArialMT-30"/>
       <use x="55.615234" xlink:href="#ArialMT-2e"/>
       <use x="83.398438" xlink:href="#ArialMT-35"/>
      </g>
     </g>
    </g>
    <g id="ytick_43">
     <g id="line2d_80">
      <path clip-path="url(#p92995b3561)" d="M 343.360833 341.135469 
L 579.919167 341.135469 
" style="fill:none;stroke:#ffffff;stroke-linecap:round;"/>
     </g>
     <g id="text_76">
      <!-- 1.0 -->
      <g style="fill:#262626;" transform="translate(314.400833 346.145937)scale(0.14 -0.14)">
       <use xlink:href="#ArialMT-31"/>
       <use x="55.615234" xlink:href="#ArialMT-2e"/>
       <use x="83.398438" xlink:href="#ArialMT-30"/>
      </g>
     </g>
    </g>
    <g id="ytick_44">
     <g id="line2d_81">
      <path clip-path="url(#p92995b3561)" d="M 343.360833 312.222969 
L 579.919167 312.222969 
" style="fill:none;stroke:#ffffff;stroke-linecap:round;"/>
     </g>
     <g id="text_77">
      <!-- 1.5 -->
      <g style="fill:#262626;" transform="translate(314.400833 317.233437)scale(0.14 -0.14)">
       <use xlink:href="#ArialMT-31"/>
       <use x="55.615234" xlink:href="#ArialMT-2e"/>
       <use x="83.398438" xlink:href="#ArialMT-35"/>
      </g>
     </g>
    </g>
    <g id="ytick_45">
     <g id="line2d_82">
      <path clip-path="url(#p92995b3561)" d="M 343.360833 283.310469 
L 579.919167 283.310469 
" style="fill:none;stroke:#ffffff;stroke-linecap:round;"/>
     </g>
     <g id="text_78">
      <!-- 2.0 -->
      <g style="fill:#262626;" transform="translate(314.400833 288.320937)scale(0.14 -0.14)">
       <use xlink:href="#ArialMT-32"/>
       <use x="55.615234" xlink:href="#ArialMT-2e"/>
       <use x="83.398438" xlink:href="#ArialMT-30"/>
      </g>
     </g>
    </g>
   </g>
   <g id="line2d_83">
    <path clip-path="url(#p92995b3561)" d="M 343.360833 398.960469 
L 345.750311 394.519943 
L 348.13979 390.528795 
L 350.529268 386.964834 
L 352.918746 383.806331 
L 355.308224 381.03202 
L 357.697702 378.621096 
L 360.08718 376.553218 
L 362.476658 374.808507 
L 364.866136 373.367545 
L 367.255614 372.211377 
L 369.645093 371.321511 
L 372.034571 370.679917 
L 374.424049 370.269027 
L 376.813527 370.071735 
L 379.203005 370.071398 
L 381.592483 370.251835 
L 383.981961 370.597327 
L 386.371439 371.092618 
L 388.760918 371.722915 
L 391.150396 372.473884 
L 393.539874 373.331658 
L 395.929352 374.282828 
L 398.31883 375.314451 
L 400.708308 376.414043 
L 403.097786 377.569584 
L 405.487264 378.769518 
L 407.876742 380.002747 
L 410.266221 381.25864 
L 412.655699 382.527024 
L 415.045177 383.798192 
L 417.434655 385.062898 
L 419.824133 386.312356 
L 422.213611 387.538247 
L 424.603089 388.732709 
L 426.992567 389.888347 
L 429.382045 390.998226 
L 431.771524 392.055873 
L 434.161002 393.055278 
L 436.55048 393.990893 
L 438.939958 394.857634 
L 441.329436 395.650876 
L 443.718914 396.36646 
L 446.108392 397.000686 
L 448.49787 397.550318 
L 450.887348 398.012583 
L 453.276827 398.385168 
L 455.666305 398.666226 
L 458.055783 398.854368 
L 460.445261 398.94867 
L 462.834739 398.94867 
L 465.224217 398.854368 
L 467.613695 398.666226 
L 470.003173 398.385168 
L 472.392652 398.012583 
L 474.78213 397.550318 
L 477.171608 397.000686 
L 479.561086 396.36646 
L 481.950564 395.650876 
L 484.340042 394.857634 
L 486.72952 393.990893 
L 489.118998 393.055278 
L 491.508476 392.055873 
L 493.897955 390.998226 
L 496.287433 389.888347 
L 498.676911 388.732709 
L 501.066389 387.538247 
L 503.455867 386.312356 
L 505.845345 385.062898 
L 508.234823 383.798192 
L 510.624301 382.527024 
L 513.013779 381.25864 
L 515.403258 380.002747 
L 517.792736 378.769518 
L 520.182214 377.569584 
L 522.571692 376.414043 
L 524.96117 375.314451 
L 527.350648 374.282828 
L 529.740126 373.331658 
L 532.129604 372.473884 
L 534.519082 371.722915 
L 536.908561 371.092618 
L 539.298039 370.597327 
L 541.687517 370.251835 
L 544.076995 370.071398 
L 546.466473 370.071735 
L 548.855951 370.269027 
L 551.245429 370.679917 
L 553.634907 371.321511 
L 556.024386 372.211377 
L 558.413864 373.367545 
L 560.803342 374.808507 
L 563.19282 376.553218 
L 565.582298 378.621096 
L 567.971776 381.03202 
L 570.361254 383.806331 
L 572.750732 386.964834 
L 575.14021 390.528795 
L 577.529689 394.519943 
L 579.919167 398.960469 
" style="fill:none;stroke:#4c72b0;stroke-linecap:round;stroke-width:1.5;"/>
   </g>
   <g id="patch_27">
    <path d="M 343.360833 514.610469 
L 343.360833 283.310469 
" style="fill:none;stroke:#ffffff;stroke-linecap:square;stroke-linejoin:miter;stroke-width:1.25;"/>
   </g>
   <g id="patch_28">
    <path d="M 579.919167 514.610469 
L 579.919167 283.310469 
" style="fill:none;stroke:#ffffff;stroke-linecap:square;stroke-linejoin:miter;stroke-width:1.25;"/>
   </g>
   <g id="patch_29">
    <path d="M 343.360833 514.610469 
L 579.919167 514.610469 
" style="fill:none;stroke:#ffffff;stroke-linecap:square;stroke-linejoin:miter;stroke-width:1.25;"/>
   </g>
   <g id="patch_30">
    <path d="M 343.360833 283.310469 
L 579.919167 283.310469 
" style="fill:none;stroke:#ffffff;stroke-linecap:square;stroke-linejoin:miter;stroke-width:1.25;"/>
   </g>
   <g id="legend_5">
    <g id="patch_31">
     <path d="M 408.09 315.230469 
L 515.19 315.230469 
Q 517.99 315.230469 517.99 312.430469 
L 517.99 293.110469 
Q 517.99 290.310469 515.19 290.310469 
L 408.09 290.310469 
Q 405.29 290.310469 405.29 293.110469 
L 405.29 312.430469 
Q 405.29 315.230469 408.09 315.230469 
z
" style="fill:#eaeaf2;opacity:0.8;stroke:#cccccc;stroke-linejoin:miter;"/>
    </g>
    <g id="line2d_84">
     <path d="M 410.89 301.790469 
L 410.89 301.790469 
" style="fill:none;stroke:#4c72b0;stroke-linecap:round;stroke-width:1.5;"/>
    </g>
    <g id="line2d_85"/>
    <g id="text_79">
     <!-- $\alpha$ = 1.0, $\beta$ = -0.5 -->
     <g style="fill:#262626;" transform="translate(410.89 306.690469)scale(0.14 -0.14)">
      <use transform="translate(0 0.390625)" xlink:href="#DejaVuSans-Oblique-3b1"/>
      <use transform="translate(65.917969 0.390625)" xlink:href="#ArialMT-20"/>
      <use transform="translate(93.701172 0.390625)" xlink:href="#ArialMT-3d"/>
      <use transform="translate(152.099609 0.390625)" xlink:href="#ArialMT-20"/>
      <use transform="translate(179.882812 0.390625)" xlink:href="#ArialMT-31"/>
      <use transform="translate(235.498047 0.390625)" xlink:href="#ArialMT-2e"/>
      <use transform="translate(263.28125 0.390625)" xlink:href="#ArialMT-30"/>
      <use transform="translate(318.896484 0.390625)" xlink:href="#ArialMT-2c"/>
      <use transform="translate(346.679688 0.390625)" xlink:href="#ArialMT-20"/>
      <use transform="translate(374.462891 0.390625)" xlink:href="#DejaVuSans-Oblique-3b2"/>
      <use transform="translate(438.28125 0.390625)" xlink:href="#ArialMT-20"/>
      <use transform="translate(466.064453 0.390625)" xlink:href="#ArialMT-3d"/>
      <use transform="translate(524.462891 0.390625)" xlink:href="#ArialMT-20"/>
      <use transform="translate(552.246094 0.390625)" xlink:href="#ArialMT-2d"/>
      <use transform="translate(585.546875 0.390625)" xlink:href="#ArialMT-30"/>
      <use transform="translate(641.162109 0.390625)" xlink:href="#ArialMT-2e"/>
      <use transform="translate(668.945312 0.390625)" xlink:href="#ArialMT-35"/>
     </g>
    </g>
   </g>
  </g>
  <g id="axes_6">
   <g id="patch_32">
    <path d="M 620.094167 514.610469 
L 856.6525 514.610469 
L 856.6525 283.310469 
L 620.094167 283.310469 
z
" style="fill:#eaeaf2;"/>
   </g>
   <g id="matplotlib.axis_11">
    <g id="xtick_26">
     <g id="line2d_86">
      <path clip-path="url(#p76ff22c6f5)" d="M 620.094167 514.610469 
L 620.094167 283.310469 
" style="fill:none;stroke:#ffffff;stroke-linecap:round;"/>
     </g>
     <g id="text_80">
      <!-- −2 -->
      <g style="fill:#262626;" transform="translate(612.113073 534.131406)scale(0.14 -0.14)">
       <use xlink:href="#ArialMT-2212"/>
       <use x="58.398438" xlink:href="#ArialMT-32"/>
      </g>
     </g>
    </g>
    <g id="xtick_27">
     <g id="line2d_87">
      <path clip-path="url(#p76ff22c6f5)" d="M 679.23375 514.610469 
L 679.23375 283.310469 
" style="fill:none;stroke:#ffffff;stroke-linecap:round;"/>
     </g>
     <g id="text_81">
      <!-- −1 -->
      <g style="fill:#262626;" transform="translate(671.252656 534.131406)scale(0.14 -0.14)">
       <use xlink:href="#ArialMT-2212"/>
       <use x="58.398438" xlink:href="#ArialMT-31"/>
      </g>
     </g>
    </g>
    <g id="xtick_28">
     <g id="line2d_88">
      <path clip-path="url(#p76ff22c6f5)" d="M 738.373333 514.610469 
L 738.373333 283.310469 
" style="fill:none;stroke:#ffffff;stroke-linecap:round;"/>
     </g>
     <g id="text_82">
      <!-- 0 -->
      <g style="fill:#262626;" transform="translate(734.480677 534.131406)scale(0.14 -0.14)">
       <use xlink:href="#ArialMT-30"/>
      </g>
     </g>
    </g>
    <g id="xtick_29">
     <g id="line2d_89">
      <path clip-path="url(#p76ff22c6f5)" d="M 797.512917 514.610469 
L 797.512917 283.310469 
" style="fill:none;stroke:#ffffff;stroke-linecap:round;"/>
     </g>
     <g id="text_83">
      <!-- 1 -->
      <g style="fill:#262626;" transform="translate(793.62026 534.131406)scale(0.14 -0.14)">
       <use xlink:href="#ArialMT-31"/>
      </g>
     </g>
    </g>
    <g id="xtick_30">
     <g id="line2d_90">
      <path clip-path="url(#p76ff22c6f5)" d="M 856.6525 514.610469 
L 856.6525 283.310469 
" style="fill:none;stroke:#ffffff;stroke-linecap:round;"/>
     </g>
     <g id="text_84">
      <!-- 2 -->
      <g style="fill:#262626;" transform="translate(852.759844 534.131406)scale(0.14 -0.14)">
       <use xlink:href="#ArialMT-32"/>
      </g>
     </g>
    </g>
    <g id="text_85">
     <!-- $x_0$ -->
     <g style="fill:#262626;" transform="translate(727.673333 555.229531)scale(0.2 -0.2)">
      <use transform="translate(0 0.3125)" xlink:href="#DejaVuSans-Oblique-78"/>
      <use transform="translate(59.179688 -16.09375)scale(0.7)" xlink:href="#DejaVuSans-30"/>
     </g>
    </g>
   </g>
   <g id="matplotlib.axis_12">
    <g id="ytick_46">
     <g id="line2d_91">
      <path clip-path="url(#p76ff22c6f5)" d="M 620.094167 514.610469 
L 856.6525 514.610469 
" style="fill:none;stroke:#ffffff;stroke-linecap:round;"/>
     </g>
     <g id="text_86">
      <!-- −2.0 -->
      <g style="fill:#262626;" transform="translate(582.957292 519.620937)scale(0.14 -0.14)">
       <use xlink:href="#ArialMT-2212"/>
       <use x="58.398438" xlink:href="#ArialMT-32"/>
       <use x="114.013672" xlink:href="#ArialMT-2e"/>
       <use x="141.796875" xlink:href="#ArialMT-30"/>
      </g>
     </g>
    </g>
    <g id="ytick_47">
     <g id="line2d_92">
      <path clip-path="url(#p76ff22c6f5)" d="M 620.094167 485.697969 
L 856.6525 485.697969 
" style="fill:none;stroke:#ffffff;stroke-linecap:round;"/>
     </g>
     <g id="text_87">
      <!-- −1.5 -->
      <g style="fill:#262626;" transform="translate(582.957292 490.708437)scale(0.14 -0.14)">
       <use xlink:href="#ArialMT-2212"/>
       <use x="58.398438" xlink:href="#ArialMT-31"/>
       <use x="114.013672" xlink:href="#ArialMT-2e"/>
       <use x="141.796875" xlink:href="#ArialMT-35"/>
      </g>
     </g>
    </g>
    <g id="ytick_48">
     <g id="line2d_93">
      <path clip-path="url(#p76ff22c6f5)" d="M 620.094167 456.785469 
L 856.6525 456.785469 
" style="fill:none;stroke:#ffffff;stroke-linecap:round;"/>
     </g>
     <g id="text_88">
      <!-- −1.0 -->
      <g style="fill:#262626;" transform="translate(582.957292 461.795937)scale(0.14 -0.14)">
       <use xlink:href="#ArialMT-2212"/>
       <use x="58.398438" xlink:href="#ArialMT-31"/>
       <use x="114.013672" xlink:href="#ArialMT-2e"/>
       <use x="141.796875" xlink:href="#ArialMT-30"/>
      </g>
     </g>
    </g>
    <g id="ytick_49">
     <g id="line2d_94">
      <path clip-path="url(#p76ff22c6f5)" d="M 620.094167 427.872969 
L 856.6525 427.872969 
" style="fill:none;stroke:#ffffff;stroke-linecap:round;"/>
     </g>
     <g id="text_89">
      <!-- −0.5 -->
      <g style="fill:#262626;" transform="translate(582.957292 432.883437)scale(0.14 -0.14)">
       <use xlink:href="#ArialMT-2212"/>
       <use x="58.398438" xlink:href="#ArialMT-30"/>
       <use x="114.013672" xlink:href="#ArialMT-2e"/>
       <use x="141.796875" xlink:href="#ArialMT-35"/>
      </g>
     </g>
    </g>
    <g id="ytick_50">
     <g id="line2d_95">
      <path clip-path="url(#p76ff22c6f5)" d="M 620.094167 398.960469 
L 856.6525 398.960469 
" style="fill:none;stroke:#ffffff;stroke-linecap:round;"/>
     </g>
     <g id="text_90">
      <!-- 0.0 -->
      <g style="fill:#262626;" transform="translate(591.134167 403.970937)scale(0.14 -0.14)">
       <use xlink:href="#ArialMT-30"/>
       <use x="55.615234" xlink:href="#ArialMT-2e"/>
       <use x="83.398438" xlink:href="#ArialMT-30"/>
      </g>
     </g>
    </g>
    <g id="ytick_51">
     <g id="line2d_96">
      <path clip-path="url(#p76ff22c6f5)" d="M 620.094167 370.047969 
L 856.6525 370.047969 
" style="fill:none;stroke:#ffffff;stroke-linecap:round;"/>
     </g>
     <g id="text_91">
      <!-- 0.5 -->
      <g style="fill:#262626;" transform="translate(591.134167 375.058437)scale(0.14 -0.14)">
       <use xlink:href="#ArialMT-30"/>
       <use x="55.615234" xlink:href="#ArialMT-2e"/>
       <use x="83.398438" xlink:href="#ArialMT-35"/>
      </g>
     </g>
    </g>
    <g id="ytick_52">
     <g id="line2d_97">
      <path clip-path="url(#p76ff22c6f5)" d="M 620.094167 341.135469 
L 856.6525 341.135469 
" style="fill:none;stroke:#ffffff;stroke-linecap:round;"/>
     </g>
     <g id="text_92">
      <!-- 1.0 -->
      <g style="fill:#262626;" transform="translate(591.134167 346.145937)scale(0.14 -0.14)">
       <use xlink:href="#ArialMT-31"/>
       <use x="55.615234" xlink:href="#ArialMT-2e"/>
       <use x="83.398438" xlink:href="#ArialMT-30"/>
      </g>
     </g>
    </g>
    <g id="ytick_53">
     <g id="line2d_98">
      <path clip-path="url(#p76ff22c6f5)" d="M 620.094167 312.222969 
L 856.6525 312.222969 
" style="fill:none;stroke:#ffffff;stroke-linecap:round;"/>
     </g>
     <g id="text_93">
      <!-- 1.5 -->
      <g style="fill:#262626;" transform="translate(591.134167 317.233437)scale(0.14 -0.14)">
       <use xlink:href="#ArialMT-31"/>
       <use x="55.615234" xlink:href="#ArialMT-2e"/>
       <use x="83.398438" xlink:href="#ArialMT-35"/>
      </g>
     </g>
    </g>
    <g id="ytick_54">
     <g id="line2d_99">
      <path clip-path="url(#p76ff22c6f5)" d="M 620.094167 283.310469 
L 856.6525 283.310469 
" style="fill:none;stroke:#ffffff;stroke-linecap:round;"/>
     </g>
     <g id="text_94">
      <!-- 2.0 -->
      <g style="fill:#262626;" transform="translate(591.134167 288.320937)scale(0.14 -0.14)">
       <use xlink:href="#ArialMT-32"/>
       <use x="55.615234" xlink:href="#ArialMT-2e"/>
       <use x="83.398438" xlink:href="#ArialMT-30"/>
      </g>
     </g>
    </g>
   </g>
   <g id="line2d_100">
    <path clip-path="url(#p76ff22c6f5)" d="M 620.094167 283.310469 
L 622.483645 296.817048 
L 624.873123 309.330474 
L 627.262601 320.895127 
L 629.652079 331.554465 
L 632.041557 341.351022 
L 634.431035 350.326404 
L 636.820513 358.521297 
L 639.209992 365.975458 
L 641.59947 372.727722 
L 643.988948 378.815998 
L 646.378426 384.277273 
L 648.767904 389.147605 
L 651.157382 393.462131 
L 653.54686 397.255062 
L 655.936338 400.559685 
L 658.325816 403.408361 
L 660.715295 405.832528 
L 663.104773 407.862699 
L 665.494251 409.528461 
L 667.883729 410.858477 
L 670.273207 411.880487 
L 672.662685 412.621306 
L 675.052163 413.106821 
L 677.441641 413.361998 
L 679.83112 413.410878 
L 682.220598 413.276576 
L 684.610076 412.981284 
L 686.999554 412.546266 
L 689.389032 411.991866 
L 691.77851 411.337501 
L 694.167988 410.601662 
L 696.557466 409.801919 
L 698.946944 408.954913 
L 701.336423 408.076364 
L 703.725901 407.181066 
L 706.115379 406.282889 
L 708.504857 405.394776 
L 710.894335 404.528748 
L 713.283813 403.695901 
L 715.673291 402.906405 
L 718.062769 402.169507 
L 720.452247 401.493528 
L 722.841726 400.885866 
L 725.231204 400.352993 
L 727.620682 399.900456 
L 730.01016 399.532878 
L 732.399638 399.253959 
L 734.789116 399.066472 
L 737.178594 398.972266 
L 739.568072 398.972266 
L 741.957551 399.066472 
L 744.347029 399.253959 
L 746.736507 399.532878 
L 749.125985 399.900456 
L 751.515463 400.352993 
L 753.904941 400.885866 
L 756.294419 401.493528 
L 758.683897 402.169507 
L 761.073375 402.906405 
L 763.462854 403.695901 
L 765.852332 404.528748 
L 768.24181 405.394776 
L 770.631288 406.282889 
L 773.020766 407.181066 
L 775.410244 408.076364 
L 777.799722 408.954913 
L 780.1892 409.801919 
L 782.578678 410.601662 
L 784.968157 411.337501 
L 787.357635 411.991866 
L 789.747113 412.546266 
L 792.136591 412.981284 
L 794.526069 413.276576 
L 796.915547 413.410878 
L 799.305025 413.361998 
L 801.694503 413.106821 
L 804.083981 412.621306 
L 806.47346 411.880487 
L 808.862938 410.858477 
L 811.252416 409.528461 
L 813.641894 407.862699 
L 816.031372 405.832528 
L 818.42085 403.408361 
L 820.810328 400.559685 
L 823.199806 397.255062 
L 825.589285 393.462131 
L 827.978763 389.147605 
L 830.368241 384.277273 
L 832.757719 378.815998 
L 835.147197 372.727722 
L 837.536675 365.975458 
L 839.926153 358.521297 
L 842.315631 350.326404 
L 844.705109 341.351022 
L 847.094588 331.554465 
L 849.484066 320.895127 
L 851.873544 309.330474 
L 854.263022 296.817048 
L 856.6525 283.310469 
" style="fill:none;stroke:#4c72b0;stroke-linecap:round;stroke-width:1.5;"/>
   </g>
   <g id="patch_33">
    <path d="M 620.094167 514.610469 
L 620.094167 283.310469 
" style="fill:none;stroke:#ffffff;stroke-linecap:square;stroke-linejoin:miter;stroke-width:1.25;"/>
   </g>
   <g id="patch_34">
    <path d="M 856.6525 514.610469 
L 856.6525 283.310469 
" style="fill:none;stroke:#ffffff;stroke-linecap:square;stroke-linejoin:miter;stroke-width:1.25;"/>
   </g>
   <g id="patch_35">
    <path d="M 620.094167 514.610469 
L 856.6525 514.610469 
" style="fill:none;stroke:#ffffff;stroke-linecap:square;stroke-linejoin:miter;stroke-width:1.25;"/>
   </g>
   <g id="patch_36">
    <path d="M 620.094167 283.310469 
L 856.6525 283.310469 
" style="fill:none;stroke:#ffffff;stroke-linecap:square;stroke-linejoin:miter;stroke-width:1.25;"/>
   </g>
   <g id="legend_6">
    <g id="patch_37">
     <path d="M 684.823333 315.230469 
L 791.923333 315.230469 
Q 794.723333 315.230469 794.723333 312.430469 
L 794.723333 293.110469 
Q 794.723333 290.310469 791.923333 290.310469 
L 684.823333 290.310469 
Q 682.023333 290.310469 682.023333 293.110469 
L 682.023333 312.430469 
Q 682.023333 315.230469 684.823333 315.230469 
z
" style="fill:#eaeaf2;opacity:0.8;stroke:#cccccc;stroke-linejoin:miter;"/>
    </g>
    <g id="line2d_101">
     <path d="M 687.623333 301.790469 
L 687.623333 301.790469 
" style="fill:none;stroke:#4c72b0;stroke-linecap:round;stroke-width:1.5;"/>
    </g>
    <g id="line2d_102"/>
    <g id="text_95">
     <!-- $\alpha$ = -1.0, $\beta$ = 1.0 -->
     <g style="fill:#262626;" transform="translate(687.623333 306.690469)scale(0.14 -0.14)">
      <use transform="translate(0 0.390625)" xlink:href="#DejaVuSans-Oblique-3b1"/>
      <use transform="translate(65.917969 0.390625)" xlink:href="#ArialMT-20"/>
      <use transform="translate(93.701172 0.390625)" xlink:href="#ArialMT-3d"/>
      <use transform="translate(152.099609 0.390625)" xlink:href="#ArialMT-20"/>
      <use transform="translate(179.882812 0.390625)" xlink:href="#ArialMT-2d"/>
      <use transform="translate(213.183594 0.390625)" xlink:href="#ArialMT-31"/>
      <use transform="translate(268.798828 0.390625)" xlink:href="#ArialMT-2e"/>
      <use transform="translate(296.582031 0.390625)" xlink:href="#ArialMT-30"/>
      <use transform="translate(352.197266 0.390625)" xlink:href="#ArialMT-2c"/>
      <use transform="translate(379.980469 0.390625)" xlink:href="#ArialMT-20"/>
      <use transform="translate(407.763672 0.390625)" xlink:href="#DejaVuSans-Oblique-3b2"/>
      <use transform="translate(471.582031 0.390625)" xlink:href="#ArialMT-20"/>
      <use transform="translate(499.365234 0.390625)" xlink:href="#ArialMT-3d"/>
      <use transform="translate(557.763672 0.390625)" xlink:href="#ArialMT-20"/>
      <use transform="translate(585.546875 0.390625)" xlink:href="#ArialMT-31"/>
      <use transform="translate(641.162109 0.390625)" xlink:href="#ArialMT-2e"/>
      <use transform="translate(668.945312 0.390625)" xlink:href="#ArialMT-30"/>
     </g>
    </g>
   </g>
  </g>
 </g>
 <defs>
  <clipPath id="p665416e5df">
   <rect height="231.3" width="236.558333" x="66.6275" y="12.210469"/>
  </clipPath>
  <clipPath id="pf0b8ae1a10">
   <rect height="231.3" width="236.558333" x="343.360833" y="12.210469"/>
  </clipPath>
  <clipPath id="p60c227b843">
   <rect height="231.3" width="236.558333" x="620.094167" y="12.210469"/>
  </clipPath>
  <clipPath id="pee33aff833">
   <rect height="231.3" width="236.558333" x="66.6275" y="283.310469"/>
  </clipPath>
  <clipPath id="p92995b3561">
   <rect height="231.3" width="236.558333" x="343.360833" y="283.310469"/>
  </clipPath>
  <clipPath id="p76ff22c6f5">
   <rect height="231.3" width="236.558333" x="620.094167" y="283.310469"/>
  </clipPath>
 </defs>
</svg>
