<?xml version="1.0" encoding="utf-8" standalone="no"?>
<!DOCTYPE svg PUBLIC "-//W3C//DTD SVG 1.1//EN"
  "http://www.w3.org/Graphics/SVG/1.1/DTD/svg11.dtd">
<svg height="1152pt" version="1.1" viewBox="0 0 1152 1152" width="1152pt" xmlns="http://www.w3.org/2000/svg" xmlns:xlink="http://www.w3.org/1999/xlink">
 <metadata>
  <rdf:RDF xmlns:cc="http://creativecommons.org/ns#" xmlns:dc="http://purl.org/dc/elements/1.1/" xmlns:rdf="http://www.w3.org/1999/02/22-rdf-syntax-ns#">
   <cc:Work>
    <dc:type rdf:resource="http://purl.org/dc/dcmitype/StillImage"/>
    <dc:date>2021-10-05T20:58:09.599894</dc:date>
    <dc:format>image/svg+xml</dc:format>
    <dc:creator>
     <cc:Agent>
      <dc:title>Matplotlib v3.4.2, https://matplotlib.org/</dc:title>
     </cc:Agent>
    </dc:creator>
   </cc:Work>
  </rdf:RDF>
 </metadata>
 <defs>
  <style type="text/css">*{stroke-linecap:butt;stroke-linejoin:round;}</style>
 </defs>
 <g id="figure_1">
  <g id="patch_1">
   <path d="M 0 1152 
L 1152 1152 
L 1152 0 
L 0 0 
z
" style="fill:none;"/>
  </g>
  <g id="axes_1">
   <g id="patch_2">
    <path d="M 68.05 541.539063 
L 570.6 541.539063 
L 570.6 36.678125 
L 68.05 36.678125 
z
" style="fill:#eaeaf2;"/>
   </g>
   <g id="matplotlib.axis_1">
    <g id="xtick_1">
     <g id="line2d_1">
      <path clip-path="url(#pbe7e2e675a)" d="M 90.893182 541.539063 
L 90.893182 36.678125 
" style="fill:none;stroke:#ffffff;stroke-linecap:round;"/>
     </g>
     <g id="text_1">
      <!-- 0 -->
      <g style="fill:#262626;" transform="translate(87.834666 558.912656)scale(0.11 -0.11)">
       <defs>
        <path d="M 266 2259 
Q 266 3072 433 3567 
Q 600 4063 929 4331 
Q 1259 4600 1759 4600 
Q 2128 4600 2406 4451 
Q 2684 4303 2865 4023 
Q 3047 3744 3150 3342 
Q 3253 2941 3253 2259 
Q 3253 1453 3087 958 
Q 2922 463 2592 192 
Q 2263 -78 1759 -78 
Q 1097 -78 719 397 
Q 266 969 266 2259 
z
M 844 2259 
Q 844 1131 1108 757 
Q 1372 384 1759 384 
Q 2147 384 2411 759 
Q 2675 1134 2675 2259 
Q 2675 3391 2411 3762 
Q 2147 4134 1753 4134 
Q 1366 4134 1134 3806 
Q 844 3388 844 2259 
z
" id="ArialMT-30" transform="scale(0.015625)"/>
       </defs>
       <use xlink:href="#ArialMT-30"/>
      </g>
     </g>
    </g>
    <g id="xtick_2">
     <g id="line2d_2">
      <path clip-path="url(#pbe7e2e675a)" d="M 183.188866 541.539063 
L 183.188866 36.678125 
" style="fill:none;stroke:#ffffff;stroke-linecap:round;"/>
     </g>
     <g id="text_2">
      <!-- 20 -->
      <g style="fill:#262626;" transform="translate(177.071835 558.912656)scale(0.11 -0.11)">
       <defs>
        <path d="M 3222 541 
L 3222 0 
L 194 0 
Q 188 203 259 391 
Q 375 700 629 1000 
Q 884 1300 1366 1694 
Q 2113 2306 2375 2664 
Q 2638 3022 2638 3341 
Q 2638 3675 2398 3904 
Q 2159 4134 1775 4134 
Q 1369 4134 1125 3890 
Q 881 3647 878 3216 
L 300 3275 
Q 359 3922 746 4261 
Q 1134 4600 1788 4600 
Q 2447 4600 2831 4234 
Q 3216 3869 3216 3328 
Q 3216 3053 3103 2787 
Q 2991 2522 2730 2228 
Q 2469 1934 1863 1422 
Q 1356 997 1212 845 
Q 1069 694 975 541 
L 3222 541 
z
" id="ArialMT-32" transform="scale(0.015625)"/>
       </defs>
       <use xlink:href="#ArialMT-32"/>
       <use x="55.615234" xlink:href="#ArialMT-30"/>
      </g>
     </g>
    </g>
    <g id="xtick_3">
     <g id="line2d_3">
      <path clip-path="url(#pbe7e2e675a)" d="M 275.48455 541.539063 
L 275.48455 36.678125 
" style="fill:none;stroke:#ffffff;stroke-linecap:round;"/>
     </g>
     <g id="text_3">
      <!-- 40 -->
      <g style="fill:#262626;" transform="translate(269.367519 558.912656)scale(0.11 -0.11)">
       <defs>
        <path d="M 2069 0 
L 2069 1097 
L 81 1097 
L 81 1613 
L 2172 4581 
L 2631 4581 
L 2631 1613 
L 3250 1613 
L 3250 1097 
L 2631 1097 
L 2631 0 
L 2069 0 
z
M 2069 1613 
L 2069 3678 
L 634 1613 
L 2069 1613 
z
" id="ArialMT-34" transform="scale(0.015625)"/>
       </defs>
       <use xlink:href="#ArialMT-34"/>
       <use x="55.615234" xlink:href="#ArialMT-30"/>
      </g>
     </g>
    </g>
    <g id="xtick_4">
     <g id="line2d_4">
      <path clip-path="url(#pbe7e2e675a)" d="M 367.780234 541.539063 
L 367.780234 36.678125 
" style="fill:none;stroke:#ffffff;stroke-linecap:round;"/>
     </g>
     <g id="text_4">
      <!-- 60 -->
      <g style="fill:#262626;" transform="translate(361.663203 558.912656)scale(0.11 -0.11)">
       <defs>
        <path d="M 3184 3459 
L 2625 3416 
Q 2550 3747 2413 3897 
Q 2184 4138 1850 4138 
Q 1581 4138 1378 3988 
Q 1113 3794 959 3422 
Q 806 3050 800 2363 
Q 1003 2672 1297 2822 
Q 1591 2972 1913 2972 
Q 2475 2972 2870 2558 
Q 3266 2144 3266 1488 
Q 3266 1056 3080 686 
Q 2894 316 2569 119 
Q 2244 -78 1831 -78 
Q 1128 -78 684 439 
Q 241 956 241 2144 
Q 241 3472 731 4075 
Q 1159 4600 1884 4600 
Q 2425 4600 2770 4297 
Q 3116 3994 3184 3459 
z
M 888 1484 
Q 888 1194 1011 928 
Q 1134 663 1356 523 
Q 1578 384 1822 384 
Q 2178 384 2434 671 
Q 2691 959 2691 1453 
Q 2691 1928 2437 2201 
Q 2184 2475 1800 2475 
Q 1419 2475 1153 2201 
Q 888 1928 888 1484 
z
" id="ArialMT-36" transform="scale(0.015625)"/>
       </defs>
       <use xlink:href="#ArialMT-36"/>
       <use x="55.615234" xlink:href="#ArialMT-30"/>
      </g>
     </g>
    </g>
    <g id="xtick_5">
     <g id="line2d_5">
      <path clip-path="url(#pbe7e2e675a)" d="M 460.075918 541.539063 
L 460.075918 36.678125 
" style="fill:none;stroke:#ffffff;stroke-linecap:round;"/>
     </g>
     <g id="text_5">
      <!-- 80 -->
      <g style="fill:#262626;" transform="translate(453.958887 558.912656)scale(0.11 -0.11)">
       <defs>
        <path d="M 1131 2484 
Q 781 2613 612 2850 
Q 444 3088 444 3419 
Q 444 3919 803 4259 
Q 1163 4600 1759 4600 
Q 2359 4600 2725 4251 
Q 3091 3903 3091 3403 
Q 3091 3084 2923 2848 
Q 2756 2613 2416 2484 
Q 2838 2347 3058 2040 
Q 3278 1734 3278 1309 
Q 3278 722 2862 322 
Q 2447 -78 1769 -78 
Q 1091 -78 675 323 
Q 259 725 259 1325 
Q 259 1772 486 2073 
Q 713 2375 1131 2484 
z
M 1019 3438 
Q 1019 3113 1228 2906 
Q 1438 2700 1772 2700 
Q 2097 2700 2305 2904 
Q 2513 3109 2513 3406 
Q 2513 3716 2298 3927 
Q 2084 4138 1766 4138 
Q 1444 4138 1231 3931 
Q 1019 3725 1019 3438 
z
M 838 1322 
Q 838 1081 952 856 
Q 1066 631 1291 507 
Q 1516 384 1775 384 
Q 2178 384 2440 643 
Q 2703 903 2703 1303 
Q 2703 1709 2433 1975 
Q 2163 2241 1756 2241 
Q 1359 2241 1098 1978 
Q 838 1716 838 1322 
z
" id="ArialMT-38" transform="scale(0.015625)"/>
       </defs>
       <use xlink:href="#ArialMT-38"/>
       <use x="55.615234" xlink:href="#ArialMT-30"/>
      </g>
     </g>
    </g>
    <g id="xtick_6">
     <g id="line2d_6">
      <path clip-path="url(#pbe7e2e675a)" d="M 552.371602 541.539063 
L 552.371602 36.678125 
" style="fill:none;stroke:#ffffff;stroke-linecap:round;"/>
     </g>
     <g id="text_6">
      <!-- 100 -->
      <g style="fill:#262626;" transform="translate(543.196056 558.912656)scale(0.11 -0.11)">
       <defs>
        <path d="M 2384 0 
L 1822 0 
L 1822 3584 
Q 1619 3391 1289 3197 
Q 959 3003 697 2906 
L 697 3450 
Q 1169 3672 1522 3987 
Q 1875 4303 2022 4600 
L 2384 4600 
L 2384 0 
z
" id="ArialMT-31" transform="scale(0.015625)"/>
       </defs>
       <use xlink:href="#ArialMT-31"/>
       <use x="55.615234" xlink:href="#ArialMT-30"/>
       <use x="111.230469" xlink:href="#ArialMT-30"/>
      </g>
     </g>
    </g>
    <g id="text_7">
     <!-- Number of Trees -->
     <g style="fill:#262626;" transform="translate(274.64375 573.688281)scale(0.12 -0.12)">
      <defs>
       <path d="M 488 0 
L 488 4581 
L 1109 4581 
L 3516 984 
L 3516 4581 
L 4097 4581 
L 4097 0 
L 3475 0 
L 1069 3600 
L 1069 0 
L 488 0 
z
" id="ArialMT-4e" transform="scale(0.015625)"/>
       <path d="M 2597 0 
L 2597 488 
Q 2209 -75 1544 -75 
Q 1250 -75 995 37 
Q 741 150 617 320 
Q 494 491 444 738 
Q 409 903 409 1263 
L 409 3319 
L 972 3319 
L 972 1478 
Q 972 1038 1006 884 
Q 1059 663 1231 536 
Q 1403 409 1656 409 
Q 1909 409 2131 539 
Q 2353 669 2445 892 
Q 2538 1116 2538 1541 
L 2538 3319 
L 3100 3319 
L 3100 0 
L 2597 0 
z
" id="ArialMT-75" transform="scale(0.015625)"/>
       <path d="M 422 0 
L 422 3319 
L 925 3319 
L 925 2853 
Q 1081 3097 1340 3245 
Q 1600 3394 1931 3394 
Q 2300 3394 2536 3241 
Q 2772 3088 2869 2813 
Q 3263 3394 3894 3394 
Q 4388 3394 4653 3120 
Q 4919 2847 4919 2278 
L 4919 0 
L 4359 0 
L 4359 2091 
Q 4359 2428 4304 2576 
Q 4250 2725 4106 2815 
Q 3963 2906 3769 2906 
Q 3419 2906 3187 2673 
Q 2956 2441 2956 1928 
L 2956 0 
L 2394 0 
L 2394 2156 
Q 2394 2531 2256 2718 
Q 2119 2906 1806 2906 
Q 1569 2906 1367 2781 
Q 1166 2656 1075 2415 
Q 984 2175 984 1722 
L 984 0 
L 422 0 
z
" id="ArialMT-6d" transform="scale(0.015625)"/>
       <path d="M 941 0 
L 419 0 
L 419 4581 
L 981 4581 
L 981 2947 
Q 1338 3394 1891 3394 
Q 2197 3394 2470 3270 
Q 2744 3147 2920 2923 
Q 3097 2700 3197 2384 
Q 3297 2069 3297 1709 
Q 3297 856 2875 390 
Q 2453 -75 1863 -75 
Q 1275 -75 941 416 
L 941 0 
z
M 934 1684 
Q 934 1088 1097 822 
Q 1363 388 1816 388 
Q 2184 388 2453 708 
Q 2722 1028 2722 1663 
Q 2722 2313 2464 2622 
Q 2206 2931 1841 2931 
Q 1472 2931 1203 2611 
Q 934 2291 934 1684 
z
" id="ArialMT-62" transform="scale(0.015625)"/>
       <path d="M 2694 1069 
L 3275 997 
Q 3138 488 2766 206 
Q 2394 -75 1816 -75 
Q 1088 -75 661 373 
Q 234 822 234 1631 
Q 234 2469 665 2931 
Q 1097 3394 1784 3394 
Q 2450 3394 2872 2941 
Q 3294 2488 3294 1666 
Q 3294 1616 3291 1516 
L 816 1516 
Q 847 969 1125 678 
Q 1403 388 1819 388 
Q 2128 388 2347 550 
Q 2566 713 2694 1069 
z
M 847 1978 
L 2700 1978 
Q 2663 2397 2488 2606 
Q 2219 2931 1791 2931 
Q 1403 2931 1139 2672 
Q 875 2413 847 1978 
z
" id="ArialMT-65" transform="scale(0.015625)"/>
       <path d="M 416 0 
L 416 3319 
L 922 3319 
L 922 2816 
Q 1116 3169 1280 3281 
Q 1444 3394 1641 3394 
Q 1925 3394 2219 3213 
L 2025 2691 
Q 1819 2813 1613 2813 
Q 1428 2813 1281 2702 
Q 1134 2591 1072 2394 
Q 978 2094 978 1738 
L 978 0 
L 416 0 
z
" id="ArialMT-72" transform="scale(0.015625)"/>
       <path id="ArialMT-20" transform="scale(0.015625)"/>
       <path d="M 213 1659 
Q 213 2581 725 3025 
Q 1153 3394 1769 3394 
Q 2453 3394 2887 2945 
Q 3322 2497 3322 1706 
Q 3322 1066 3130 698 
Q 2938 331 2570 128 
Q 2203 -75 1769 -75 
Q 1072 -75 642 372 
Q 213 819 213 1659 
z
M 791 1659 
Q 791 1022 1069 705 
Q 1347 388 1769 388 
Q 2188 388 2466 706 
Q 2744 1025 2744 1678 
Q 2744 2294 2464 2611 
Q 2184 2928 1769 2928 
Q 1347 2928 1069 2612 
Q 791 2297 791 1659 
z
" id="ArialMT-6f" transform="scale(0.015625)"/>
       <path d="M 556 0 
L 556 2881 
L 59 2881 
L 59 3319 
L 556 3319 
L 556 3672 
Q 556 4006 616 4169 
Q 697 4388 901 4523 
Q 1106 4659 1475 4659 
Q 1713 4659 2000 4603 
L 1916 4113 
Q 1741 4144 1584 4144 
Q 1328 4144 1222 4034 
Q 1116 3925 1116 3625 
L 1116 3319 
L 1763 3319 
L 1763 2881 
L 1116 2881 
L 1116 0 
L 556 0 
z
" id="ArialMT-66" transform="scale(0.015625)"/>
       <path d="M 1659 0 
L 1659 4041 
L 150 4041 
L 150 4581 
L 3781 4581 
L 3781 4041 
L 2266 4041 
L 2266 0 
L 1659 0 
z
" id="ArialMT-54" transform="scale(0.015625)"/>
       <path d="M 197 991 
L 753 1078 
Q 800 744 1014 566 
Q 1228 388 1613 388 
Q 2000 388 2187 545 
Q 2375 703 2375 916 
Q 2375 1106 2209 1216 
Q 2094 1291 1634 1406 
Q 1016 1563 777 1677 
Q 538 1791 414 1992 
Q 291 2194 291 2438 
Q 291 2659 392 2848 
Q 494 3038 669 3163 
Q 800 3259 1026 3326 
Q 1253 3394 1513 3394 
Q 1903 3394 2198 3281 
Q 2494 3169 2634 2976 
Q 2775 2784 2828 2463 
L 2278 2388 
Q 2241 2644 2061 2787 
Q 1881 2931 1553 2931 
Q 1166 2931 1000 2803 
Q 834 2675 834 2503 
Q 834 2394 903 2306 
Q 972 2216 1119 2156 
Q 1203 2125 1616 2013 
Q 2213 1853 2448 1751 
Q 2684 1650 2818 1456 
Q 2953 1263 2953 975 
Q 2953 694 2789 445 
Q 2625 197 2315 61 
Q 2006 -75 1616 -75 
Q 969 -75 630 194 
Q 291 463 197 991 
z
" id="ArialMT-73" transform="scale(0.015625)"/>
      </defs>
      <use xlink:href="#ArialMT-4e"/>
      <use x="72.216797" xlink:href="#ArialMT-75"/>
      <use x="127.832031" xlink:href="#ArialMT-6d"/>
      <use x="211.132812" xlink:href="#ArialMT-62"/>
      <use x="266.748047" xlink:href="#ArialMT-65"/>
      <use x="322.363281" xlink:href="#ArialMT-72"/>
      <use x="355.664062" xlink:href="#ArialMT-20"/>
      <use x="383.447266" xlink:href="#ArialMT-6f"/>
      <use x="439.0625" xlink:href="#ArialMT-66"/>
      <use x="466.845703" xlink:href="#ArialMT-20"/>
      <use x="492.878906" xlink:href="#ArialMT-54"/>
      <use x="550.212891" xlink:href="#ArialMT-72"/>
      <use x="583.513672" xlink:href="#ArialMT-65"/>
      <use x="639.128906" xlink:href="#ArialMT-65"/>
      <use x="694.744141" xlink:href="#ArialMT-73"/>
     </g>
    </g>
   </g>
   <g id="matplotlib.axis_2">
    <g id="ytick_1">
     <g id="line2d_7">
      <path clip-path="url(#pbe7e2e675a)" d="M 68.05 515.197344 
L 570.6 515.197344 
" style="fill:none;stroke:#ffffff;stroke-linecap:round;"/>
     </g>
     <g id="text_8">
      <!-- 0.3 -->
      <g style="fill:#262626;" transform="translate(43.26 519.134141)scale(0.11 -0.11)">
       <defs>
        <path d="M 581 0 
L 581 641 
L 1222 641 
L 1222 0 
L 581 0 
z
" id="ArialMT-2e" transform="scale(0.015625)"/>
        <path d="M 269 1209 
L 831 1284 
Q 928 806 1161 595 
Q 1394 384 1728 384 
Q 2125 384 2398 659 
Q 2672 934 2672 1341 
Q 2672 1728 2419 1979 
Q 2166 2231 1775 2231 
Q 1616 2231 1378 2169 
L 1441 2663 
Q 1497 2656 1531 2656 
Q 1891 2656 2178 2843 
Q 2466 3031 2466 3422 
Q 2466 3731 2256 3934 
Q 2047 4138 1716 4138 
Q 1388 4138 1169 3931 
Q 950 3725 888 3313 
L 325 3413 
Q 428 3978 793 4289 
Q 1159 4600 1703 4600 
Q 2078 4600 2393 4439 
Q 2709 4278 2876 4000 
Q 3044 3722 3044 3409 
Q 3044 3113 2884 2869 
Q 2725 2625 2413 2481 
Q 2819 2388 3044 2092 
Q 3269 1797 3269 1353 
Q 3269 753 2831 336 
Q 2394 -81 1725 -81 
Q 1122 -81 723 278 
Q 325 638 269 1209 
z
" id="ArialMT-33" transform="scale(0.015625)"/>
       </defs>
       <use xlink:href="#ArialMT-30"/>
       <use x="55.615234" xlink:href="#ArialMT-2e"/>
       <use x="83.398438" xlink:href="#ArialMT-33"/>
      </g>
     </g>
    </g>
    <g id="ytick_2">
     <g id="line2d_8">
      <path clip-path="url(#pbe7e2e675a)" d="M 68.05 447.986139 
L 570.6 447.986139 
" style="fill:none;stroke:#ffffff;stroke-linecap:round;"/>
     </g>
     <g id="text_9">
      <!-- 0.4 -->
      <g style="fill:#262626;" transform="translate(43.26 451.922935)scale(0.11 -0.11)">
       <use xlink:href="#ArialMT-30"/>
       <use x="55.615234" xlink:href="#ArialMT-2e"/>
       <use x="83.398438" xlink:href="#ArialMT-34"/>
      </g>
     </g>
    </g>
    <g id="ytick_3">
     <g id="line2d_9">
      <path clip-path="url(#pbe7e2e675a)" d="M 68.05 380.774933 
L 570.6 380.774933 
" style="fill:none;stroke:#ffffff;stroke-linecap:round;"/>
     </g>
     <g id="text_10">
      <!-- 0.5 -->
      <g style="fill:#262626;" transform="translate(43.26 384.71173)scale(0.11 -0.11)">
       <defs>
        <path d="M 266 1200 
L 856 1250 
Q 922 819 1161 601 
Q 1400 384 1738 384 
Q 2144 384 2425 690 
Q 2706 997 2706 1503 
Q 2706 1984 2436 2262 
Q 2166 2541 1728 2541 
Q 1456 2541 1237 2417 
Q 1019 2294 894 2097 
L 366 2166 
L 809 4519 
L 3088 4519 
L 3088 3981 
L 1259 3981 
L 1013 2750 
Q 1425 3038 1878 3038 
Q 2478 3038 2890 2622 
Q 3303 2206 3303 1553 
Q 3303 931 2941 478 
Q 2500 -78 1738 -78 
Q 1113 -78 717 272 
Q 322 622 266 1200 
z
" id="ArialMT-35" transform="scale(0.015625)"/>
       </defs>
       <use xlink:href="#ArialMT-30"/>
       <use x="55.615234" xlink:href="#ArialMT-2e"/>
       <use x="83.398438" xlink:href="#ArialMT-35"/>
      </g>
     </g>
    </g>
    <g id="ytick_4">
     <g id="line2d_10">
      <path clip-path="url(#pbe7e2e675a)" d="M 68.05 313.563727 
L 570.6 313.563727 
" style="fill:none;stroke:#ffffff;stroke-linecap:round;"/>
     </g>
     <g id="text_11">
      <!-- 0.6 -->
      <g style="fill:#262626;" transform="translate(43.26 317.500524)scale(0.11 -0.11)">
       <use xlink:href="#ArialMT-30"/>
       <use x="55.615234" xlink:href="#ArialMT-2e"/>
       <use x="83.398438" xlink:href="#ArialMT-36"/>
      </g>
     </g>
    </g>
    <g id="ytick_5">
     <g id="line2d_11">
      <path clip-path="url(#pbe7e2e675a)" d="M 68.05 246.352521 
L 570.6 246.352521 
" style="fill:none;stroke:#ffffff;stroke-linecap:round;"/>
     </g>
     <g id="text_12">
      <!-- 0.7 -->
      <g style="fill:#262626;" transform="translate(43.26 250.289318)scale(0.11 -0.11)">
       <defs>
        <path d="M 303 3981 
L 303 4522 
L 3269 4522 
L 3269 4084 
Q 2831 3619 2401 2847 
Q 1972 2075 1738 1259 
Q 1569 684 1522 0 
L 944 0 
Q 953 541 1156 1306 
Q 1359 2072 1739 2783 
Q 2119 3494 2547 3981 
L 303 3981 
z
" id="ArialMT-37" transform="scale(0.015625)"/>
       </defs>
       <use xlink:href="#ArialMT-30"/>
       <use x="55.615234" xlink:href="#ArialMT-2e"/>
       <use x="83.398438" xlink:href="#ArialMT-37"/>
      </g>
     </g>
    </g>
    <g id="ytick_6">
     <g id="line2d_12">
      <path clip-path="url(#pbe7e2e675a)" d="M 68.05 179.141316 
L 570.6 179.141316 
" style="fill:none;stroke:#ffffff;stroke-linecap:round;"/>
     </g>
     <g id="text_13">
      <!-- 0.8 -->
      <g style="fill:#262626;" transform="translate(43.26 183.078112)scale(0.11 -0.11)">
       <use xlink:href="#ArialMT-30"/>
       <use x="55.615234" xlink:href="#ArialMT-2e"/>
       <use x="83.398438" xlink:href="#ArialMT-38"/>
      </g>
     </g>
    </g>
    <g id="ytick_7">
     <g id="line2d_13">
      <path clip-path="url(#pbe7e2e675a)" d="M 68.05 111.93011 
L 570.6 111.93011 
" style="fill:none;stroke:#ffffff;stroke-linecap:round;"/>
     </g>
     <g id="text_14">
      <!-- 0.9 -->
      <g style="fill:#262626;" transform="translate(43.26 115.866907)scale(0.11 -0.11)">
       <defs>
        <path d="M 350 1059 
L 891 1109 
Q 959 728 1153 556 
Q 1347 384 1650 384 
Q 1909 384 2104 503 
Q 2300 622 2425 820 
Q 2550 1019 2634 1356 
Q 2719 1694 2719 2044 
Q 2719 2081 2716 2156 
Q 2547 1888 2255 1720 
Q 1963 1553 1622 1553 
Q 1053 1553 659 1965 
Q 266 2378 266 3053 
Q 266 3750 677 4175 
Q 1088 4600 1706 4600 
Q 2153 4600 2523 4359 
Q 2894 4119 3086 3673 
Q 3278 3228 3278 2384 
Q 3278 1506 3087 986 
Q 2897 466 2520 194 
Q 2144 -78 1638 -78 
Q 1100 -78 759 220 
Q 419 519 350 1059 
z
M 2653 3081 
Q 2653 3566 2395 3850 
Q 2138 4134 1775 4134 
Q 1400 4134 1122 3828 
Q 844 3522 844 3034 
Q 844 2597 1108 2323 
Q 1372 2050 1759 2050 
Q 2150 2050 2401 2323 
Q 2653 2597 2653 3081 
z
" id="ArialMT-39" transform="scale(0.015625)"/>
       </defs>
       <use xlink:href="#ArialMT-30"/>
       <use x="55.615234" xlink:href="#ArialMT-2e"/>
       <use x="83.398438" xlink:href="#ArialMT-39"/>
      </g>
     </g>
    </g>
    <g id="ytick_8">
     <g id="line2d_14">
      <path clip-path="url(#pbe7e2e675a)" d="M 68.05 44.718904 
L 570.6 44.718904 
" style="fill:none;stroke:#ffffff;stroke-linecap:round;"/>
     </g>
     <g id="text_15">
      <!-- 1.0 -->
      <g style="fill:#262626;" transform="translate(43.26 48.655701)scale(0.11 -0.11)">
       <use xlink:href="#ArialMT-31"/>
       <use x="55.615234" xlink:href="#ArialMT-2e"/>
       <use x="83.398438" xlink:href="#ArialMT-30"/>
      </g>
     </g>
    </g>
    <g id="text_16">
     <!-- rmse -->
     <g style="fill:#262626;" transform="translate(36.875 302.440781)rotate(-90)scale(0.12 -0.12)">
      <use xlink:href="#ArialMT-72"/>
      <use x="33.300781" xlink:href="#ArialMT-6d"/>
      <use x="116.601562" xlink:href="#ArialMT-73"/>
      <use x="166.601562" xlink:href="#ArialMT-65"/>
     </g>
    </g>
   </g>
   <g id="line2d_15">
    <path clip-path="url(#pbe7e2e675a)" d="M 90.893182 61.711241 
L 95.507966 107.626576 
L 100.12275 147.714028 
L 104.737534 183.708989 
L 109.352319 216.828655 
L 113.967103 243.496045 
L 118.581887 271.52715 
L 123.196671 295.58809 
L 127.811455 317.359816 
L 132.42624 334.7776 
L 137.041024 351.362637 
L 141.655808 366.198166 
L 146.270592 378.854709 
L 150.885376 389.880707 
L 155.500161 400.784381 
L 160.114945 408.430328 
L 164.729729 416.508442 
L 169.344513 423.028601 
L 173.959298 429.377372 
L 178.574082 434.152728 
L 183.188866 439.214404 
L 187.80365 443.588509 
L 192.418434 447.296552 
L 197.033219 450.747847 
L 201.648003 453.560636 
L 206.262787 456.325705 
L 210.877571 458.939549 
L 215.492355 461.330251 
L 220.10714 463.222247 
L 224.721924 464.574536 
L 229.336708 466.701771 
L 233.951492 468.046667 
L 238.566276 469.716193 
L 243.181061 471.212987 
L 247.795845 472.661389 
L 252.410629 474.088955 
L 257.025413 475.244315 
L 261.640197 476.537459 
L 266.254982 477.614182 
L 270.869766 478.559844 
L 275.48455 479.35428 
L 280.099334 480.131242 
L 284.714118 481.179737 
L 289.328903 481.747671 
L 293.943687 482.331737 
L 298.558471 483.444754 
L 303.173255 484.213651 
L 307.788039 485.342127 
L 312.402824 486.874542 
L 317.017608 488.162981 
L 321.632392 489.495107 
L 326.247176 490.128237 
L 330.861961 490.661894 
L 335.476745 491.309138 
L 340.091529 491.795747 
L 344.706313 492.206407 
L 349.321097 493.311359 
L 353.935882 493.582221 
L 358.550666 494.148139 
L 363.16545 494.945936 
L 367.780234 495.864041 
L 372.395018 496.947486 
L 377.009803 497.465684 
L 381.624587 498.103518 
L 386.239371 498.749418 
L 390.854155 499.562674 
L 395.468939 500.307374 
L 400.083724 500.612513 
L 404.698508 501.269838 
L 409.313292 501.728219 
L 413.928076 502.095192 
L 418.54286 502.8614 
L 423.157645 503.477726 
L 427.772429 504.70097 
L 432.387213 505.256807 
L 437.001997 505.65873 
L 441.616781 506.474002 
L 446.231566 506.675636 
L 450.84635 507.197194 
L 455.461134 507.466711 
L 460.075918 508.327687 
L 464.690702 508.769937 
L 469.305487 509.755925 
L 473.920271 510.846091 
L 478.535055 511.302455 
L 483.149839 511.616331 
L 487.764624 511.878455 
L 492.379408 512.587533 
L 496.994192 513.064061 
L 501.608976 513.771123 
L 506.22376 514.268485 
L 510.838545 514.593788 
L 515.453329 515.237671 
L 520.068113 515.983043 
L 524.682897 516.366819 
L 529.297681 516.702875 
L 533.912466 517.364234 
L 538.52725 517.790353 
L 543.142034 518.407351 
L 547.756818 518.590838 
" style="fill:none;stroke:#4c72b0;stroke-linecap:round;stroke-width:1.5;"/>
   </g>
   <g id="line2d_16">
    <path clip-path="url(#pbe7e2e675a)" d="M 90.893182 59.626349 
L 95.507966 105.201596 
L 100.12275 145.092119 
L 104.737534 181.231584 
L 109.352319 214.525327 
L 113.967103 241.011247 
L 118.581887 268.804425 
L 123.196671 292.67314 
L 127.811455 314.716399 
L 132.42624 332.201394 
L 137.041024 349.00554 
L 141.655808 363.928444 
L 146.270592 376.726802 
L 150.885376 387.918812 
L 155.500161 398.727046 
L 160.114945 406.301749 
L 164.729729 414.219229 
L 169.344513 420.599589 
L 173.959298 427.152009 
L 178.574082 431.671963 
L 183.188866 436.689951 
L 187.80365 441.132612 
L 192.418434 444.599366 
L 197.033219 448.052006 
L 201.648003 450.54823 
L 206.262787 453.309266 
L 210.877571 455.925798 
L 215.492355 458.208963 
L 220.10714 460.045845 
L 224.721924 461.300678 
L 229.336708 463.231656 
L 233.951492 464.644436 
L 238.566276 466.413435 
L 243.181061 468.017766 
L 247.795845 469.35863 
L 252.410629 470.70151 
L 257.025413 472.1526 
L 261.640197 473.334845 
L 266.254982 474.486173 
L 270.869766 475.696647 
L 275.48455 476.555606 
L 280.099334 477.206882 
L 284.714118 478.413323 
L 289.328903 478.9947 
L 293.943687 479.58011 
L 298.558471 480.602392 
L 303.173255 481.525874 
L 307.788039 482.790117 
L 312.402824 484.212306 
L 317.017608 485.4006 
L 321.632392 486.879919 
L 326.247176 487.489525 
L 330.861961 487.853137 
L 335.476745 488.516512 
L 340.091529 489.015219 
L 344.706313 489.444027 
L 349.321097 490.659205 
L 353.935882 490.888395 
L 358.550666 491.389119 
L 363.16545 492.153982 
L 367.780234 493.162823 
L 372.395018 494.245595 
L 377.009803 494.688517 
L 381.624587 495.349875 
L 386.239371 495.964186 
L 390.854155 496.756606 
L 395.468939 497.626319 
L 400.083724 497.952293 
L 404.698508 498.595504 
L 409.313292 499.016919 
L 413.928076 499.217208 
L 418.54286 500.003579 
L 423.157645 500.730804 
L 427.772429 501.847182 
L 432.387213 502.385544 
L 437.001997 502.793516 
L 441.616781 503.542249 
L 446.231566 503.743211 
L 450.84635 504.336013 
L 455.461134 504.575285 
L 460.075918 505.435589 
L 464.690702 505.885232 
L 469.305487 506.837615 
L 473.920271 507.78126 
L 478.535055 508.226198 
L 483.149839 508.507141 
L 487.764624 508.73902 
L 492.379408 509.520686 
L 496.994192 510.035524 
L 501.608976 510.853484 
L 506.22376 511.358912 
L 510.838545 511.687575 
L 515.453329 512.271641 
L 520.068113 513.061372 
L 524.682897 513.401461 
L 529.297681 513.711977 
L 533.912466 514.459365 
L 538.52725 514.937237 
L 543.142034 515.571039 
L 547.756818 515.774016 
" style="fill:none;stroke:#dd8452;stroke-linecap:round;stroke-width:1.5;"/>
   </g>
   <g id="patch_3">
    <path d="M 68.05 541.539063 
L 68.05 36.678125 
" style="fill:none;stroke:#ffffff;stroke-linecap:square;stroke-linejoin:miter;stroke-width:1.25;"/>
   </g>
   <g id="patch_4">
    <path d="M 570.6 541.539063 
L 570.6 36.678125 
" style="fill:none;stroke:#ffffff;stroke-linecap:square;stroke-linejoin:miter;stroke-width:1.25;"/>
   </g>
   <g id="patch_5">
    <path d="M 68.05 541.539063 
L 570.6 541.539063 
" style="fill:none;stroke:#ffffff;stroke-linecap:square;stroke-linejoin:miter;stroke-width:1.25;"/>
   </g>
   <g id="patch_6">
    <path d="M 68.05 36.678125 
L 570.6 36.678125 
" style="fill:none;stroke:#ffffff;stroke-linecap:square;stroke-linejoin:miter;stroke-width:1.25;"/>
   </g>
   <g id="legend_1">
    <g id="patch_7">
     <path d="M 475.743906 76.597813 
L 562.9 76.597813 
Q 565.1 76.597813 565.1 74.397813 
L 565.1 44.378125 
Q 565.1 42.178125 562.9 42.178125 
L 475.743906 42.178125 
Q 473.543906 42.178125 473.543906 44.378125 
L 473.543906 74.397813 
Q 473.543906 76.597813 475.743906 76.597813 
z
" style="fill:#eaeaf2;opacity:0.8;stroke:#cccccc;stroke-linejoin:miter;"/>
    </g>
    <g id="line2d_17">
     <path d="M 477.943906 50.601719 
L 499.943906 50.601719 
" style="fill:none;stroke:#4c72b0;stroke-linecap:round;stroke-width:1.5;"/>
    </g>
    <g id="line2d_18"/>
    <g id="text_17">
     <!-- rmse_train -->
     <g style="fill:#262626;" transform="translate(508.743906 54.451719)scale(0.11 -0.11)">
      <defs>
       <path d="M -97 -1272 
L -97 -866 
L 3631 -866 
L 3631 -1272 
L -97 -1272 
z
" id="ArialMT-5f" transform="scale(0.015625)"/>
       <path d="M 1650 503 
L 1731 6 
Q 1494 -44 1306 -44 
Q 1000 -44 831 53 
Q 663 150 594 308 
Q 525 466 525 972 
L 525 2881 
L 113 2881 
L 113 3319 
L 525 3319 
L 525 4141 
L 1084 4478 
L 1084 3319 
L 1650 3319 
L 1650 2881 
L 1084 2881 
L 1084 941 
Q 1084 700 1114 631 
Q 1144 563 1211 522 
Q 1278 481 1403 481 
Q 1497 481 1650 503 
z
" id="ArialMT-74" transform="scale(0.015625)"/>
       <path d="M 2588 409 
Q 2275 144 1986 34 
Q 1697 -75 1366 -75 
Q 819 -75 525 192 
Q 231 459 231 875 
Q 231 1119 342 1320 
Q 453 1522 633 1644 
Q 813 1766 1038 1828 
Q 1203 1872 1538 1913 
Q 2219 1994 2541 2106 
Q 2544 2222 2544 2253 
Q 2544 2597 2384 2738 
Q 2169 2928 1744 2928 
Q 1347 2928 1158 2789 
Q 969 2650 878 2297 
L 328 2372 
Q 403 2725 575 2942 
Q 747 3159 1072 3276 
Q 1397 3394 1825 3394 
Q 2250 3394 2515 3294 
Q 2781 3194 2906 3042 
Q 3031 2891 3081 2659 
Q 3109 2516 3109 2141 
L 3109 1391 
Q 3109 606 3145 398 
Q 3181 191 3288 0 
L 2700 0 
Q 2613 175 2588 409 
z
M 2541 1666 
Q 2234 1541 1622 1453 
Q 1275 1403 1131 1340 
Q 988 1278 909 1158 
Q 831 1038 831 891 
Q 831 666 1001 516 
Q 1172 366 1500 366 
Q 1825 366 2078 508 
Q 2331 650 2450 897 
Q 2541 1088 2541 1459 
L 2541 1666 
z
" id="ArialMT-61" transform="scale(0.015625)"/>
       <path d="M 425 3934 
L 425 4581 
L 988 4581 
L 988 3934 
L 425 3934 
z
M 425 0 
L 425 3319 
L 988 3319 
L 988 0 
L 425 0 
z
" id="ArialMT-69" transform="scale(0.015625)"/>
       <path d="M 422 0 
L 422 3319 
L 928 3319 
L 928 2847 
Q 1294 3394 1984 3394 
Q 2284 3394 2536 3286 
Q 2788 3178 2913 3003 
Q 3038 2828 3088 2588 
Q 3119 2431 3119 2041 
L 3119 0 
L 2556 0 
L 2556 2019 
Q 2556 2363 2490 2533 
Q 2425 2703 2258 2804 
Q 2091 2906 1866 2906 
Q 1506 2906 1245 2678 
Q 984 2450 984 1813 
L 984 0 
L 422 0 
z
" id="ArialMT-6e" transform="scale(0.015625)"/>
      </defs>
      <use xlink:href="#ArialMT-72"/>
      <use x="33.300781" xlink:href="#ArialMT-6d"/>
      <use x="116.601562" xlink:href="#ArialMT-73"/>
      <use x="166.601562" xlink:href="#ArialMT-65"/>
      <use x="222.216797" xlink:href="#ArialMT-5f"/>
      <use x="277.832031" xlink:href="#ArialMT-74"/>
      <use x="305.615234" xlink:href="#ArialMT-72"/>
      <use x="338.916016" xlink:href="#ArialMT-61"/>
      <use x="394.53125" xlink:href="#ArialMT-69"/>
      <use x="416.748047" xlink:href="#ArialMT-6e"/>
     </g>
    </g>
    <g id="line2d_19">
     <path d="M 477.943906 66.161563 
L 499.943906 66.161563 
" style="fill:none;stroke:#dd8452;stroke-linecap:round;stroke-width:1.5;"/>
    </g>
    <g id="line2d_20"/>
    <g id="text_18">
     <!-- rmse_val -->
     <g style="fill:#262626;" transform="translate(508.743906 70.011563)scale(0.11 -0.11)">
      <defs>
       <path d="M 1344 0 
L 81 3319 
L 675 3319 
L 1388 1331 
Q 1503 1009 1600 663 
Q 1675 925 1809 1294 
L 2547 3319 
L 3125 3319 
L 1869 0 
L 1344 0 
z
" id="ArialMT-76" transform="scale(0.015625)"/>
       <path d="M 409 0 
L 409 4581 
L 972 4581 
L 972 0 
L 409 0 
z
" id="ArialMT-6c" transform="scale(0.015625)"/>
      </defs>
      <use xlink:href="#ArialMT-72"/>
      <use x="33.300781" xlink:href="#ArialMT-6d"/>
      <use x="116.601562" xlink:href="#ArialMT-73"/>
      <use x="166.601562" xlink:href="#ArialMT-65"/>
      <use x="222.216797" xlink:href="#ArialMT-5f"/>
      <use x="277.832031" xlink:href="#ArialMT-76"/>
      <use x="327.832031" xlink:href="#ArialMT-61"/>
      <use x="383.447266" xlink:href="#ArialMT-6c"/>
     </g>
    </g>
   </g>
  </g>
  <g id="axes_2">
   <g id="patch_8">
    <path d="M 638.65 541.539063 
L 1141.2 541.539063 
L 1141.2 36.678125 
L 638.65 36.678125 
z
" style="fill:#eaeaf2;"/>
   </g>
   <g id="matplotlib.axis_3">
    <g id="xtick_7">
     <g id="line2d_21">
      <path clip-path="url(#p2b9b9185d8)" d="M 661.493182 541.539063 
L 661.493182 36.678125 
" style="fill:none;stroke:#ffffff;stroke-linecap:round;"/>
     </g>
     <g id="text_19">
      <!-- 0 -->
      <g style="fill:#262626;" transform="translate(658.434666 558.912656)scale(0.11 -0.11)">
       <use xlink:href="#ArialMT-30"/>
      </g>
     </g>
    </g>
    <g id="xtick_8">
     <g id="line2d_22">
      <path clip-path="url(#p2b9b9185d8)" d="M 753.788866 541.539063 
L 753.788866 36.678125 
" style="fill:none;stroke:#ffffff;stroke-linecap:round;"/>
     </g>
     <g id="text_20">
      <!-- 20 -->
      <g style="fill:#262626;" transform="translate(747.671835 558.912656)scale(0.11 -0.11)">
       <use xlink:href="#ArialMT-32"/>
       <use x="55.615234" xlink:href="#ArialMT-30"/>
      </g>
     </g>
    </g>
    <g id="xtick_9">
     <g id="line2d_23">
      <path clip-path="url(#p2b9b9185d8)" d="M 846.08455 541.539063 
L 846.08455 36.678125 
" style="fill:none;stroke:#ffffff;stroke-linecap:round;"/>
     </g>
     <g id="text_21">
      <!-- 40 -->
      <g style="fill:#262626;" transform="translate(839.967519 558.912656)scale(0.11 -0.11)">
       <use xlink:href="#ArialMT-34"/>
       <use x="55.615234" xlink:href="#ArialMT-30"/>
      </g>
     </g>
    </g>
    <g id="xtick_10">
     <g id="line2d_24">
      <path clip-path="url(#p2b9b9185d8)" d="M 938.380234 541.539063 
L 938.380234 36.678125 
" style="fill:none;stroke:#ffffff;stroke-linecap:round;"/>
     </g>
     <g id="text_22">
      <!-- 60 -->
      <g style="fill:#262626;" transform="translate(932.263203 558.912656)scale(0.11 -0.11)">
       <use xlink:href="#ArialMT-36"/>
       <use x="55.615234" xlink:href="#ArialMT-30"/>
      </g>
     </g>
    </g>
    <g id="xtick_11">
     <g id="line2d_25">
      <path clip-path="url(#p2b9b9185d8)" d="M 1030.675918 541.539063 
L 1030.675918 36.678125 
" style="fill:none;stroke:#ffffff;stroke-linecap:round;"/>
     </g>
     <g id="text_23">
      <!-- 80 -->
      <g style="fill:#262626;" transform="translate(1024.558887 558.912656)scale(0.11 -0.11)">
       <use xlink:href="#ArialMT-38"/>
       <use x="55.615234" xlink:href="#ArialMT-30"/>
      </g>
     </g>
    </g>
    <g id="xtick_12">
     <g id="line2d_26">
      <path clip-path="url(#p2b9b9185d8)" d="M 1122.971602 541.539063 
L 1122.971602 36.678125 
" style="fill:none;stroke:#ffffff;stroke-linecap:round;"/>
     </g>
     <g id="text_24">
      <!-- 100 -->
      <g style="fill:#262626;" transform="translate(1113.796056 558.912656)scale(0.11 -0.11)">
       <use xlink:href="#ArialMT-31"/>
       <use x="55.615234" xlink:href="#ArialMT-30"/>
       <use x="111.230469" xlink:href="#ArialMT-30"/>
      </g>
     </g>
    </g>
    <g id="text_25">
     <!-- Number of Trees -->
     <g style="fill:#262626;" transform="translate(845.24375 573.688281)scale(0.12 -0.12)">
      <use xlink:href="#ArialMT-4e"/>
      <use x="72.216797" xlink:href="#ArialMT-75"/>
      <use x="127.832031" xlink:href="#ArialMT-6d"/>
      <use x="211.132812" xlink:href="#ArialMT-62"/>
      <use x="266.748047" xlink:href="#ArialMT-65"/>
      <use x="322.363281" xlink:href="#ArialMT-72"/>
      <use x="355.664062" xlink:href="#ArialMT-20"/>
      <use x="383.447266" xlink:href="#ArialMT-6f"/>
      <use x="439.0625" xlink:href="#ArialMT-66"/>
      <use x="466.845703" xlink:href="#ArialMT-20"/>
      <use x="492.878906" xlink:href="#ArialMT-54"/>
      <use x="550.212891" xlink:href="#ArialMT-72"/>
      <use x="583.513672" xlink:href="#ArialMT-65"/>
      <use x="639.128906" xlink:href="#ArialMT-65"/>
      <use x="694.744141" xlink:href="#ArialMT-73"/>
     </g>
    </g>
   </g>
   <g id="matplotlib.axis_4">
    <g id="ytick_9">
     <g id="line2d_27">
      <path clip-path="url(#p2b9b9185d8)" d="M 638.65 449.052299 
L 1141.2 449.052299 
" style="fill:none;stroke:#ffffff;stroke-linecap:round;"/>
     </g>
     <g id="text_26">
      <!-- 0.2 -->
      <g style="fill:#262626;" transform="translate(613.86 452.989096)scale(0.11 -0.11)">
       <use xlink:href="#ArialMT-30"/>
       <use x="55.615234" xlink:href="#ArialMT-2e"/>
       <use x="83.398438" xlink:href="#ArialMT-32"/>
      </g>
     </g>
    </g>
    <g id="ytick_10">
     <g id="line2d_28">
      <path clip-path="url(#p2b9b9185d8)" d="M 638.65 343.529394 
L 1141.2 343.529394 
" style="fill:none;stroke:#ffffff;stroke-linecap:round;"/>
     </g>
     <g id="text_27">
      <!-- 0.3 -->
      <g style="fill:#262626;" transform="translate(613.86 347.466191)scale(0.11 -0.11)">
       <use xlink:href="#ArialMT-30"/>
       <use x="55.615234" xlink:href="#ArialMT-2e"/>
       <use x="83.398438" xlink:href="#ArialMT-33"/>
      </g>
     </g>
    </g>
    <g id="ytick_11">
     <g id="line2d_29">
      <path clip-path="url(#p2b9b9185d8)" d="M 638.65 238.006489 
L 1141.2 238.006489 
" style="fill:none;stroke:#ffffff;stroke-linecap:round;"/>
     </g>
     <g id="text_28">
      <!-- 0.4 -->
      <g style="fill:#262626;" transform="translate(613.86 241.943286)scale(0.11 -0.11)">
       <use xlink:href="#ArialMT-30"/>
       <use x="55.615234" xlink:href="#ArialMT-2e"/>
       <use x="83.398438" xlink:href="#ArialMT-34"/>
      </g>
     </g>
    </g>
    <g id="ytick_12">
     <g id="line2d_30">
      <path clip-path="url(#p2b9b9185d8)" d="M 638.65 132.483584 
L 1141.2 132.483584 
" style="fill:none;stroke:#ffffff;stroke-linecap:round;"/>
     </g>
     <g id="text_29">
      <!-- 0.5 -->
      <g style="fill:#262626;" transform="translate(613.86 136.420381)scale(0.11 -0.11)">
       <use xlink:href="#ArialMT-30"/>
       <use x="55.615234" xlink:href="#ArialMT-2e"/>
       <use x="83.398438" xlink:href="#ArialMT-35"/>
      </g>
     </g>
    </g>
    <g id="text_30">
     <!-- rmse -->
     <g style="fill:#262626;" transform="translate(607.475 302.440781)rotate(-90)scale(0.12 -0.12)">
      <use xlink:href="#ArialMT-72"/>
      <use x="33.300781" xlink:href="#ArialMT-6d"/>
      <use x="116.601562" xlink:href="#ArialMT-73"/>
      <use x="166.601562" xlink:href="#ArialMT-65"/>
     </g>
    </g>
   </g>
   <g id="line2d_31">
    <path clip-path="url(#p2b9b9185d8)" d="M 661.493182 62.920775 
L 666.107966 104.586494 
L 670.72275 140.731254 
L 675.337534 172.047287 
L 679.952319 198.958793 
L 684.567103 222.031376 
L 689.181887 241.655471 
L 693.796671 258.174027 
L 698.411455 272.116768 
L 703.02624 290.499913 
L 707.641024 301.210488 
L 712.255808 311.737453 
L 716.870592 320.568665 
L 721.485376 332.450544 
L 726.100161 342.984896 
L 730.714945 349.885038 
L 735.329729 356.231186 
L 739.944513 361.446128 
L 744.559298 364.075759 
L 749.174082 368.004377 
L 753.788866 373.075807 
L 758.40365 378.023776 
L 763.018434 382.100126 
L 767.633219 385.634088 
L 772.248003 388.166638 
L 776.862787 391.831448 
L 781.477571 393.837439 
L 786.092355 395.342196 
L 790.70714 397.953887 
L 795.321924 398.929974 
L 799.936708 400.517039 
L 804.551492 404.314808 
L 809.166276 408.112577 
L 813.781061 410.952199 
L 818.395845 413.823477 
L 823.010629 416.193522 
L 827.625413 420.508353 
L 832.240197 422.967037 
L 836.854982 424.754595 
L 841.469766 425.167189 
L 846.08455 426.953692 
L 850.699334 429.046211 
L 855.314118 430.641718 
L 859.928903 431.27591 
L 864.543687 432.627659 
L 869.158471 432.952669 
L 873.773255 434.689576 
L 878.388039 438.670956 
L 883.002824 441.310083 
L 887.617608 442.948854 
L 892.232392 446.007963 
L 896.847176 448.27354 
L 901.461961 450.136019 
L 906.076745 453.055838 
L 910.691529 454.543711 
L 915.306313 456.508547 
L 919.921097 457.194446 
L 924.535882 459.118129 
L 929.150666 461.254968 
L 933.76545 462.854695 
L 938.380234 464.630645 
L 942.995018 466.382326 
L 947.609803 467.589508 
L 952.224587 469.616603 
L 956.839371 471.003174 
L 961.454155 472.518483 
L 966.068939 473.897667 
L 970.683724 474.203683 
L 975.298508 475.695777 
L 979.913292 476.887131 
L 984.528076 478.405605 
L 989.14286 480.24698 
L 993.757645 481.662042 
L 998.372429 482.836512 
L 1002.987213 483.420054 
L 1007.601997 484.631457 
L 1012.216781 485.747889 
L 1016.831566 486.711313 
L 1021.44635 487.625142 
L 1026.061134 488.903024 
L 1030.675918 489.827405 
L 1035.290702 490.100709 
L 1039.905487 491.537931 
L 1044.520271 492.389501 
L 1049.135055 492.848525 
L 1053.749839 494.321625 
L 1058.364624 496.330781 
L 1062.979408 497.98327 
L 1067.594192 499.021615 
L 1072.208976 499.765552 
L 1076.82376 500.456727 
L 1081.438545 501.694511 
L 1086.053329 503.094799 
L 1090.668113 503.32695 
L 1095.282897 507.089897 
L 1099.897681 507.973123 
L 1104.512466 508.996696 
L 1109.12725 509.6636 
L 1113.742034 511.105043 
L 1118.356818 512.2869 
" style="fill:none;stroke:#4c72b0;stroke-linecap:round;stroke-width:1.5;"/>
   </g>
   <g id="line2d_32">
    <path clip-path="url(#p2b9b9185d8)" d="M 661.493182 59.626349 
L 666.107966 102.027563 
L 670.72275 138.917315 
L 675.337534 170.976229 
L 679.952319 198.625341 
L 684.567103 222.433419 
L 689.181887 242.77929 
L 693.796671 259.976358 
L 698.411455 274.592335 
L 703.02624 293.266724 
L 707.641024 304.551343 
L 712.255808 315.632304 
L 716.870592 324.800134 
L 721.485376 336.747437 
L 726.100161 347.382035 
L 730.714945 354.769694 
L 735.329729 361.52316 
L 739.944513 367.084217 
L 744.559298 369.977655 
L 749.174082 374.163748 
L 753.788866 379.498987 
L 758.40365 384.739254 
L 763.018434 389.070969 
L 767.633219 392.880346 
L 772.248003 395.539523 
L 776.862787 399.363673 
L 781.477571 401.690453 
L 786.092355 403.300733 
L 790.70714 406.104477 
L 795.321924 407.140712 
L 799.936708 408.750991 
L 804.551492 412.134055 
L 809.166276 415.81786 
L 813.781061 418.747176 
L 818.395845 421.749302 
L 823.010629 424.188992 
L 827.625413 428.513321 
L 832.240197 430.892862 
L 836.854982 432.689917 
L 841.469766 433.123616 
L 846.08455 434.976599 
L 850.699334 437.046958 
L 855.314118 438.649851 
L 859.928903 439.294596 
L 864.543687 440.655841 
L 869.158471 440.985073 
L 873.773255 442.69982 
L 878.388039 446.500755 
L 883.002824 449.14727 
L 887.617608 450.437815 
L 892.232392 453.629883 
L 896.847176 456.01259 
L 901.461961 457.916223 
L 906.076745 460.652432 
L 910.691529 462.157188 
L 915.306313 464.214885 
L 919.921097 464.919778 
L 924.535882 466.719999 
L 929.150666 468.873721 
L 933.76545 470.45762 
L 938.380234 472.307437 
L 942.995018 474.067559 
L 947.609803 474.920184 
L 952.224587 476.795326 
L 956.839371 478.219885 
L 961.454155 479.658162 
L 966.068939 481.019408 
L 970.683724 481.320148 
L 975.298508 482.814352 
L 979.913292 484.003596 
L 984.528076 485.604378 
L 989.14286 487.305407 
L 993.757645 488.660321 
L 998.372429 489.825294 
L 1002.987213 490.409891 
L 1007.601997 491.60441 
L 1012.216781 492.675468 
L 1016.831566 493.624119 
L 1021.44635 494.539002 
L 1026.061134 495.552022 
L 1030.675918 496.359272 
L 1035.290702 496.626245 
L 1039.905487 498.09829 
L 1044.520271 498.97624 
L 1049.135055 499.433155 
L 1053.749839 500.832388 
L 1058.364624 502.767678 
L 1062.979408 504.458155 
L 1067.594192 505.484893 
L 1072.208976 506.239382 
L 1076.82376 506.928447 
L 1081.438545 508.132463 
L 1086.053329 509.469438 
L 1090.668113 509.701589 
L 1095.282897 513.307306 
L 1099.897681 514.20214 
L 1104.512466 515.25948 
L 1109.12725 515.817696 
L 1113.742034 517.343557 
L 1118.356818 518.590838 
" style="fill:none;stroke:#dd8452;stroke-linecap:round;stroke-width:1.5;"/>
   </g>
   <g id="patch_9">
    <path d="M 638.65 541.539063 
L 638.65 36.678125 
" style="fill:none;stroke:#ffffff;stroke-linecap:square;stroke-linejoin:miter;stroke-width:1.25;"/>
   </g>
   <g id="patch_10">
    <path d="M 1141.2 541.539063 
L 1141.2 36.678125 
" style="fill:none;stroke:#ffffff;stroke-linecap:square;stroke-linejoin:miter;stroke-width:1.25;"/>
   </g>
   <g id="patch_11">
    <path d="M 638.65 541.539063 
L 1141.2 541.539063 
" style="fill:none;stroke:#ffffff;stroke-linecap:square;stroke-linejoin:miter;stroke-width:1.25;"/>
   </g>
   <g id="patch_12">
    <path d="M 638.65 36.678125 
L 1141.2 36.678125 
" style="fill:none;stroke:#ffffff;stroke-linecap:square;stroke-linejoin:miter;stroke-width:1.25;"/>
   </g>
   <g id="legend_2">
    <g id="patch_13">
     <path d="M 1046.343906 76.597813 
L 1133.5 76.597813 
Q 1135.7 76.597813 1135.7 74.397813 
L 1135.7 44.378125 
Q 1135.7 42.178125 1133.5 42.178125 
L 1046.343906 42.178125 
Q 1044.143906 42.178125 1044.143906 44.378125 
L 1044.143906 74.397813 
Q 1044.143906 76.597813 1046.343906 76.597813 
z
" style="fill:#eaeaf2;opacity:0.8;stroke:#cccccc;stroke-linejoin:miter;"/>
    </g>
    <g id="line2d_33">
     <path d="M 1048.543906 50.601719 
L 1070.543906 50.601719 
" style="fill:none;stroke:#4c72b0;stroke-linecap:round;stroke-width:1.5;"/>
    </g>
    <g id="line2d_34"/>
    <g id="text_31">
     <!-- rmse_train -->
     <g style="fill:#262626;" transform="translate(1079.343906 54.451719)scale(0.11 -0.11)">
      <use xlink:href="#ArialMT-72"/>
      <use x="33.300781" xlink:href="#ArialMT-6d"/>
      <use x="116.601562" xlink:href="#ArialMT-73"/>
      <use x="166.601562" xlink:href="#ArialMT-65"/>
      <use x="222.216797" xlink:href="#ArialMT-5f"/>
      <use x="277.832031" xlink:href="#ArialMT-74"/>
      <use x="305.615234" xlink:href="#ArialMT-72"/>
      <use x="338.916016" xlink:href="#ArialMT-61"/>
      <use x="394.53125" xlink:href="#ArialMT-69"/>
      <use x="416.748047" xlink:href="#ArialMT-6e"/>
     </g>
    </g>
    <g id="line2d_35">
     <path d="M 1048.543906 66.161563 
L 1070.543906 66.161563 
" style="fill:none;stroke:#dd8452;stroke-linecap:round;stroke-width:1.5;"/>
    </g>
    <g id="line2d_36"/>
    <g id="text_32">
     <!-- rmse_val -->
     <g style="fill:#262626;" transform="translate(1079.343906 70.011563)scale(0.11 -0.11)">
      <use xlink:href="#ArialMT-72"/>
      <use x="33.300781" xlink:href="#ArialMT-6d"/>
      <use x="116.601562" xlink:href="#ArialMT-73"/>
      <use x="166.601562" xlink:href="#ArialMT-65"/>
      <use x="222.216797" xlink:href="#ArialMT-5f"/>
      <use x="277.832031" xlink:href="#ArialMT-76"/>
      <use x="327.832031" xlink:href="#ArialMT-61"/>
      <use x="383.447266" xlink:href="#ArialMT-6c"/>
     </g>
    </g>
   </g>
  </g>
  <g id="axes_3">
   <g id="patch_14">
    <path d="M 68.05 1107.7 
L 570.6 1107.7 
L 570.6 602.839063 
L 68.05 602.839063 
z
" style="fill:#eaeaf2;"/>
   </g>
   <g id="matplotlib.axis_5">
    <g id="xtick_13">
     <g id="line2d_37">
      <path clip-path="url(#pb517ef593b)" d="M 68.05 1107.7 
L 68.05 602.839063 
" style="fill:none;stroke:#ffffff;stroke-linecap:round;"/>
     </g>
     <g id="text_33">
      <!-- 0 -->
      <g style="fill:#262626;" transform="translate(64.991484 1125.073594)scale(0.11 -0.11)">
       <use xlink:href="#ArialMT-30"/>
      </g>
     </g>
    </g>
    <g id="xtick_14">
     <g id="line2d_38">
      <path clip-path="url(#pb517ef593b)" d="M 155.571769 1107.7 
L 155.571769 602.839063 
" style="fill:none;stroke:#ffffff;stroke-linecap:round;"/>
     </g>
     <g id="text_34">
      <!-- 50 -->
      <g style="fill:#262626;" transform="translate(149.454738 1125.073594)scale(0.11 -0.11)">
       <use xlink:href="#ArialMT-35"/>
       <use x="55.615234" xlink:href="#ArialMT-30"/>
      </g>
     </g>
    </g>
    <g id="xtick_15">
     <g id="line2d_39">
      <path clip-path="url(#pb517ef593b)" d="M 243.093539 1107.7 
L 243.093539 602.839063 
" style="fill:none;stroke:#ffffff;stroke-linecap:round;"/>
     </g>
     <g id="text_35">
      <!-- 100 -->
      <g style="fill:#262626;" transform="translate(233.917992 1125.073594)scale(0.11 -0.11)">
       <use xlink:href="#ArialMT-31"/>
       <use x="55.615234" xlink:href="#ArialMT-30"/>
       <use x="111.230469" xlink:href="#ArialMT-30"/>
      </g>
     </g>
    </g>
    <g id="xtick_16">
     <g id="line2d_40">
      <path clip-path="url(#pb517ef593b)" d="M 330.615308 1107.7 
L 330.615308 602.839063 
" style="fill:none;stroke:#ffffff;stroke-linecap:round;"/>
     </g>
     <g id="text_36">
      <!-- 150 -->
      <g style="fill:#262626;" transform="translate(321.439761 1125.073594)scale(0.11 -0.11)">
       <use xlink:href="#ArialMT-31"/>
       <use x="55.615234" xlink:href="#ArialMT-35"/>
       <use x="111.230469" xlink:href="#ArialMT-30"/>
      </g>
     </g>
    </g>
    <g id="xtick_17">
     <g id="line2d_41">
      <path clip-path="url(#pb517ef593b)" d="M 418.137078 1107.7 
L 418.137078 602.839063 
" style="fill:none;stroke:#ffffff;stroke-linecap:round;"/>
     </g>
     <g id="text_37">
      <!-- 200 -->
      <g style="fill:#262626;" transform="translate(408.961531 1125.073594)scale(0.11 -0.11)">
       <use xlink:href="#ArialMT-32"/>
       <use x="55.615234" xlink:href="#ArialMT-30"/>
       <use x="111.230469" xlink:href="#ArialMT-30"/>
      </g>
     </g>
    </g>
    <g id="xtick_18">
     <g id="line2d_42">
      <path clip-path="url(#pb517ef593b)" d="M 505.658847 1107.7 
L 505.658847 602.839063 
" style="fill:none;stroke:#ffffff;stroke-linecap:round;"/>
     </g>
     <g id="text_38">
      <!-- 250 -->
      <g style="fill:#262626;" transform="translate(496.4833 1125.073594)scale(0.11 -0.11)">
       <use xlink:href="#ArialMT-32"/>
       <use x="55.615234" xlink:href="#ArialMT-35"/>
       <use x="111.230469" xlink:href="#ArialMT-30"/>
      </g>
     </g>
    </g>
    <g id="text_39">
     <!-- F score -->
     <g style="fill:#262626;" transform="translate(299.3225 1139.849219)scale(0.12 -0.12)">
      <defs>
       <path d="M 525 0 
L 525 4581 
L 3616 4581 
L 3616 4041 
L 1131 4041 
L 1131 2622 
L 3281 2622 
L 3281 2081 
L 1131 2081 
L 1131 0 
L 525 0 
z
" id="ArialMT-46" transform="scale(0.015625)"/>
       <path d="M 2588 1216 
L 3141 1144 
Q 3050 572 2676 248 
Q 2303 -75 1759 -75 
Q 1078 -75 664 370 
Q 250 816 250 1647 
Q 250 2184 428 2587 
Q 606 2991 970 3192 
Q 1334 3394 1763 3394 
Q 2303 3394 2647 3120 
Q 2991 2847 3088 2344 
L 2541 2259 
Q 2463 2594 2264 2762 
Q 2066 2931 1784 2931 
Q 1359 2931 1093 2626 
Q 828 2322 828 1663 
Q 828 994 1084 691 
Q 1341 388 1753 388 
Q 2084 388 2306 591 
Q 2528 794 2588 1216 
z
" id="ArialMT-63" transform="scale(0.015625)"/>
      </defs>
      <use xlink:href="#ArialMT-46"/>
      <use x="61.083984" xlink:href="#ArialMT-20"/>
      <use x="88.867188" xlink:href="#ArialMT-73"/>
      <use x="138.867188" xlink:href="#ArialMT-63"/>
      <use x="188.867188" xlink:href="#ArialMT-6f"/>
      <use x="244.482422" xlink:href="#ArialMT-72"/>
      <use x="277.783203" xlink:href="#ArialMT-65"/>
     </g>
    </g>
   </g>
   <g id="matplotlib.axis_6">
    <g id="ytick_13">
     <g id="line2d_43">
      <path clip-path="url(#pb517ef593b)" d="M 68.05 1006.727813 
L 570.6 1006.727813 
" style="fill:none;stroke:#ffffff;stroke-linecap:round;"/>
     </g>
     <g id="text_40">
      <!-- energy -->
      <g style="fill:#262626;" transform="translate(24.919219 1010.600156)scale(0.11 -0.11)">
       <defs>
        <path d="M 319 -275 
L 866 -356 
Q 900 -609 1056 -725 
Q 1266 -881 1628 -881 
Q 2019 -881 2231 -725 
Q 2444 -569 2519 -288 
Q 2563 -116 2559 434 
Q 2191 0 1641 0 
Q 956 0 581 494 
Q 206 988 206 1678 
Q 206 2153 378 2554 
Q 550 2956 876 3175 
Q 1203 3394 1644 3394 
Q 2231 3394 2613 2919 
L 2613 3319 
L 3131 3319 
L 3131 450 
Q 3131 -325 2973 -648 
Q 2816 -972 2473 -1159 
Q 2131 -1347 1631 -1347 
Q 1038 -1347 672 -1080 
Q 306 -813 319 -275 
z
M 784 1719 
Q 784 1066 1043 766 
Q 1303 466 1694 466 
Q 2081 466 2343 764 
Q 2606 1063 2606 1700 
Q 2606 2309 2336 2618 
Q 2066 2928 1684 2928 
Q 1309 2928 1046 2623 
Q 784 2319 784 1719 
z
" id="ArialMT-67" transform="scale(0.015625)"/>
        <path d="M 397 -1278 
L 334 -750 
Q 519 -800 656 -800 
Q 844 -800 956 -737 
Q 1069 -675 1141 -563 
Q 1194 -478 1313 -144 
Q 1328 -97 1363 -6 
L 103 3319 
L 709 3319 
L 1400 1397 
Q 1534 1031 1641 628 
Q 1738 1016 1872 1384 
L 2581 3319 
L 3144 3319 
L 1881 -56 
Q 1678 -603 1566 -809 
Q 1416 -1088 1222 -1217 
Q 1028 -1347 759 -1347 
Q 597 -1347 397 -1278 
z
" id="ArialMT-79" transform="scale(0.015625)"/>
       </defs>
       <use xlink:href="#ArialMT-65"/>
       <use x="55.615234" xlink:href="#ArialMT-6e"/>
       <use x="111.230469" xlink:href="#ArialMT-65"/>
       <use x="166.845703" xlink:href="#ArialMT-72"/>
       <use x="200.146484" xlink:href="#ArialMT-67"/>
       <use x="255.761719" xlink:href="#ArialMT-79"/>
      </g>
     </g>
    </g>
    <g id="ytick_14">
     <g id="line2d_44">
      <path clip-path="url(#pb517ef593b)" d="M 68.05 905.755625 
L 570.6 905.755625 
" style="fill:none;stroke:#ffffff;stroke-linecap:round;"/>
     </g>
     <g id="text_41">
      <!-- v0 -->
      <g style="fill:#262626;" transform="translate(46.932969 909.692422)scale(0.11 -0.11)">
       <use xlink:href="#ArialMT-76"/>
       <use x="50" xlink:href="#ArialMT-30"/>
      </g>
     </g>
    </g>
    <g id="ytick_15">
     <g id="line2d_45">
      <path clip-path="url(#pb517ef593b)" d="M 68.05 804.783437 
L 570.6 804.783437 
" style="fill:none;stroke:#ffffff;stroke-linecap:round;"/>
     </g>
     <g id="text_42">
      <!-- x0 -->
      <g style="fill:#262626;" transform="translate(46.932969 808.720234)scale(0.11 -0.11)">
       <defs>
        <path d="M 47 0 
L 1259 1725 
L 138 3319 
L 841 3319 
L 1350 2541 
Q 1494 2319 1581 2169 
Q 1719 2375 1834 2534 
L 2394 3319 
L 3066 3319 
L 1919 1756 
L 3153 0 
L 2463 0 
L 1781 1031 
L 1600 1309 
L 728 0 
L 47 0 
z
" id="ArialMT-78" transform="scale(0.015625)"/>
       </defs>
       <use xlink:href="#ArialMT-78"/>
       <use x="50" xlink:href="#ArialMT-30"/>
      </g>
     </g>
    </g>
    <g id="ytick_16">
     <g id="line2d_46">
      <path clip-path="url(#pb517ef593b)" d="M 68.05 703.81125 
L 570.6 703.81125 
" style="fill:none;stroke:#ffffff;stroke-linecap:round;"/>
     </g>
     <g id="text_43">
      <!-- t -->
      <g style="fill:#262626;" transform="translate(55.494063 707.748047)scale(0.11 -0.11)">
       <use xlink:href="#ArialMT-74"/>
      </g>
     </g>
    </g>
    <g id="text_44">
     <!-- Features -->
     <g style="fill:#262626;" transform="translate(18.534219 878.945156)rotate(-90)scale(0.12 -0.12)">
      <use xlink:href="#ArialMT-46"/>
      <use x="61.083984" xlink:href="#ArialMT-65"/>
      <use x="116.699219" xlink:href="#ArialMT-61"/>
      <use x="172.314453" xlink:href="#ArialMT-74"/>
      <use x="200.097656" xlink:href="#ArialMT-75"/>
      <use x="255.712891" xlink:href="#ArialMT-72"/>
      <use x="289.013672" xlink:href="#ArialMT-65"/>
      <use x="344.628906" xlink:href="#ArialMT-73"/>
     </g>
    </g>
   </g>
   <g id="patch_15">
    <path clip-path="url(#pb517ef593b)" d="M 68.05 1016.825031 
L 253.596151 1016.825031 
L 253.596151 996.630594 
L 68.05 996.630594 
z
" style="fill:#4c72b0;stroke:#ffffff;stroke-linejoin:miter;"/>
   </g>
   <g id="patch_16">
    <path clip-path="url(#pb517ef593b)" d="M 68.05 915.852844 
L 302.608342 915.852844 
L 302.608342 895.658406 
L 68.05 895.658406 
z
" style="fill:#4c72b0;stroke:#ffffff;stroke-linejoin:miter;"/>
   </g>
   <g id="patch_17">
    <path clip-path="url(#pb517ef593b)" d="M 68.05 814.880656 
L 407.634465 814.880656 
L 407.634465 794.686219 
L 68.05 794.686219 
z
" style="fill:#4c72b0;stroke:#ffffff;stroke-linejoin:miter;"/>
   </g>
   <g id="patch_18">
    <path clip-path="url(#pb517ef593b)" d="M 68.05 713.908469 
L 524.913636 713.908469 
L 524.913636 693.714031 
L 68.05 693.714031 
z
" style="fill:#4c72b0;stroke:#ffffff;stroke-linejoin:miter;"/>
   </g>
   <g id="patch_19">
    <path d="M 68.05 1107.7 
L 68.05 602.839062 
" style="fill:none;stroke:#ffffff;stroke-linecap:square;stroke-linejoin:miter;stroke-width:1.25;"/>
   </g>
   <g id="patch_20">
    <path d="M 570.6 1107.7 
L 570.6 602.839062 
" style="fill:none;stroke:#ffffff;stroke-linecap:square;stroke-linejoin:miter;stroke-width:1.25;"/>
   </g>
   <g id="patch_21">
    <path d="M 68.05 1107.7 
L 570.6 1107.7 
" style="fill:none;stroke:#ffffff;stroke-linecap:square;stroke-linejoin:miter;stroke-width:1.25;"/>
   </g>
   <g id="patch_22">
    <path d="M 68.05 602.839063 
L 570.6 602.839063 
" style="fill:none;stroke:#ffffff;stroke-linecap:square;stroke-linejoin:miter;stroke-width:1.25;"/>
   </g>
   <g id="text_45">
    <!-- 106 -->
    <g style="fill:#262626;" transform="translate(255.346587 1009.312969)scale(0.1 -0.1)">
     <use xlink:href="#ArialMT-31"/>
     <use x="55.615234" xlink:href="#ArialMT-30"/>
     <use x="111.230469" xlink:href="#ArialMT-36"/>
    </g>
   </g>
   <g id="text_46">
    <!-- 134 -->
    <g style="fill:#262626;" transform="translate(304.358777 908.340781)scale(0.1 -0.1)">
     <use xlink:href="#ArialMT-31"/>
     <use x="55.615234" xlink:href="#ArialMT-33"/>
     <use x="111.230469" xlink:href="#ArialMT-34"/>
    </g>
   </g>
   <g id="text_47">
    <!-- 194 -->
    <g style="fill:#262626;" transform="translate(409.384901 807.368594)scale(0.1 -0.1)">
     <use xlink:href="#ArialMT-31"/>
     <use x="55.615234" xlink:href="#ArialMT-39"/>
     <use x="111.230469" xlink:href="#ArialMT-34"/>
    </g>
   </g>
   <g id="text_48">
    <!-- 261 -->
    <g style="fill:#262626;" transform="translate(526.664072 706.396406)scale(0.1 -0.1)">
     <use xlink:href="#ArialMT-32"/>
     <use x="55.615234" xlink:href="#ArialMT-36"/>
     <use x="111.230469" xlink:href="#ArialMT-31"/>
    </g>
   </g>
   <g id="text_49">
    <!-- Contributions to $x_t$ -->
    <g style="fill:#262626;" transform="translate(270.245 596.839063)scale(0.12 -0.12)">
     <defs>
      <path d="M 3763 1606 
L 4369 1453 
Q 4178 706 3683 314 
Q 3188 -78 2472 -78 
Q 1731 -78 1267 223 
Q 803 525 561 1097 
Q 319 1669 319 2325 
Q 319 3041 592 3573 
Q 866 4106 1370 4382 
Q 1875 4659 2481 4659 
Q 3169 4659 3637 4309 
Q 4106 3959 4291 3325 
L 3694 3184 
Q 3534 3684 3231 3912 
Q 2928 4141 2469 4141 
Q 1941 4141 1586 3887 
Q 1231 3634 1087 3207 
Q 944 2781 944 2328 
Q 944 1744 1114 1308 
Q 1284 872 1643 656 
Q 2003 441 2422 441 
Q 2931 441 3284 734 
Q 3638 1028 3763 1606 
z
" id="ArialMT-43" transform="scale(0.015625)"/>
      <path d="M 3841 3500 
L 2234 1784 
L 3219 0 
L 2559 0 
L 1819 1388 
L 531 0 
L -166 0 
L 1556 1844 
L 641 3500 
L 1300 3500 
L 1972 2234 
L 3144 3500 
L 3841 3500 
z
" id="DejaVuSans-Oblique-78" transform="scale(0.015625)"/>
      <path d="M 2706 3500 
L 2619 3053 
L 1472 3053 
L 1100 1153 
Q 1081 1047 1072 975 
Q 1063 903 1063 863 
Q 1063 663 1183 572 
Q 1303 481 1569 481 
L 2150 481 
L 2053 0 
L 1503 0 
Q 991 0 739 200 
Q 488 400 488 806 
Q 488 878 497 964 
Q 506 1050 525 1153 
L 897 3053 
L 409 3053 
L 500 3500 
L 978 3500 
L 1172 4494 
L 1747 4494 
L 1556 3500 
L 2706 3500 
z
" id="DejaVuSans-Oblique-74" transform="scale(0.015625)"/>
     </defs>
     <use transform="translate(0 0.203125)" xlink:href="#ArialMT-43"/>
     <use transform="translate(72.216797 0.203125)" xlink:href="#ArialMT-6f"/>
     <use transform="translate(127.832031 0.203125)" xlink:href="#ArialMT-6e"/>
     <use transform="translate(183.447266 0.203125)" xlink:href="#ArialMT-74"/>
     <use transform="translate(211.230469 0.203125)" xlink:href="#ArialMT-72"/>
     <use transform="translate(244.53125 0.203125)" xlink:href="#ArialMT-69"/>
     <use transform="translate(266.748047 0.203125)" xlink:href="#ArialMT-62"/>
     <use transform="translate(322.363281 0.203125)" xlink:href="#ArialMT-75"/>
     <use transform="translate(377.978516 0.203125)" xlink:href="#ArialMT-74"/>
     <use transform="translate(405.761719 0.203125)" xlink:href="#ArialMT-69"/>
     <use transform="translate(427.978516 0.203125)" xlink:href="#ArialMT-6f"/>
     <use transform="translate(483.59375 0.203125)" xlink:href="#ArialMT-6e"/>
     <use transform="translate(539.208984 0.203125)" xlink:href="#ArialMT-73"/>
     <use transform="translate(589.208984 0.203125)" xlink:href="#ArialMT-20"/>
     <use transform="translate(616.992188 0.203125)" xlink:href="#ArialMT-74"/>
     <use transform="translate(644.775391 0.203125)" xlink:href="#ArialMT-6f"/>
     <use transform="translate(700.390625 0.203125)" xlink:href="#ArialMT-20"/>
     <use transform="translate(728.173828 0.203125)" xlink:href="#DejaVuSans-Oblique-78"/>
     <use transform="translate(787.353516 -16.203125)scale(0.7)" xlink:href="#DejaVuSans-Oblique-74"/>
    </g>
   </g>
  </g>
  <g id="axes_4">
   <g id="patch_23">
    <path d="M 638.65 1107.7 
L 1141.2 1107.7 
L 1141.2 602.839063 
L 638.65 602.839063 
z
" style="fill:#eaeaf2;"/>
   </g>
   <g id="matplotlib.axis_7">
    <g id="xtick_19">
     <g id="line2d_47">
      <path clip-path="url(#pb1b769ba45)" d="M 638.65 1107.7 
L 638.65 602.839063 
" style="fill:none;stroke:#ffffff;stroke-linecap:round;"/>
     </g>
     <g id="text_50">
      <!-- 0 -->
      <g style="fill:#262626;" transform="translate(635.591484 1125.073594)scale(0.11 -0.11)">
       <use xlink:href="#ArialMT-30"/>
      </g>
     </g>
    </g>
    <g id="xtick_20">
     <g id="line2d_48">
      <path clip-path="url(#pb1b769ba45)" d="M 722.942184 1107.7 
L 722.942184 602.839063 
" style="fill:none;stroke:#ffffff;stroke-linecap:round;"/>
     </g>
     <g id="text_51">
      <!-- 100 -->
      <g style="fill:#262626;" transform="translate(713.766637 1125.073594)scale(0.11 -0.11)">
       <use xlink:href="#ArialMT-31"/>
       <use x="55.615234" xlink:href="#ArialMT-30"/>
       <use x="111.230469" xlink:href="#ArialMT-30"/>
      </g>
     </g>
    </g>
    <g id="xtick_21">
     <g id="line2d_49">
      <path clip-path="url(#pb1b769ba45)" d="M 807.234368 1107.7 
L 807.234368 602.839063 
" style="fill:none;stroke:#ffffff;stroke-linecap:round;"/>
     </g>
     <g id="text_52">
      <!-- 200 -->
      <g style="fill:#262626;" transform="translate(798.058821 1125.073594)scale(0.11 -0.11)">
       <use xlink:href="#ArialMT-32"/>
       <use x="55.615234" xlink:href="#ArialMT-30"/>
       <use x="111.230469" xlink:href="#ArialMT-30"/>
      </g>
     </g>
    </g>
    <g id="xtick_22">
     <g id="line2d_50">
      <path clip-path="url(#pb1b769ba45)" d="M 891.526551 1107.7 
L 891.526551 602.839063 
" style="fill:none;stroke:#ffffff;stroke-linecap:round;"/>
     </g>
     <g id="text_53">
      <!-- 300 -->
      <g style="fill:#262626;" transform="translate(882.351005 1125.073594)scale(0.11 -0.11)">
       <use xlink:href="#ArialMT-33"/>
       <use x="55.615234" xlink:href="#ArialMT-30"/>
       <use x="111.230469" xlink:href="#ArialMT-30"/>
      </g>
     </g>
    </g>
    <g id="xtick_23">
     <g id="line2d_51">
      <path clip-path="url(#pb1b769ba45)" d="M 975.818735 1107.7 
L 975.818735 602.839063 
" style="fill:none;stroke:#ffffff;stroke-linecap:round;"/>
     </g>
     <g id="text_54">
      <!-- 400 -->
      <g style="fill:#262626;" transform="translate(966.643188 1125.073594)scale(0.11 -0.11)">
       <use xlink:href="#ArialMT-34"/>
       <use x="55.615234" xlink:href="#ArialMT-30"/>
       <use x="111.230469" xlink:href="#ArialMT-30"/>
      </g>
     </g>
    </g>
    <g id="xtick_24">
     <g id="line2d_52">
      <path clip-path="url(#pb1b769ba45)" d="M 1060.110919 1107.7 
L 1060.110919 602.839063 
" style="fill:none;stroke:#ffffff;stroke-linecap:round;"/>
     </g>
     <g id="text_55">
      <!-- 500 -->
      <g style="fill:#262626;" transform="translate(1050.935372 1125.073594)scale(0.11 -0.11)">
       <use xlink:href="#ArialMT-35"/>
       <use x="55.615234" xlink:href="#ArialMT-30"/>
       <use x="111.230469" xlink:href="#ArialMT-30"/>
      </g>
     </g>
    </g>
    <g id="text_56">
     <!-- F score -->
     <g style="fill:#262626;" transform="translate(869.9225 1139.849219)scale(0.12 -0.12)">
      <use xlink:href="#ArialMT-46"/>
      <use x="61.083984" xlink:href="#ArialMT-20"/>
      <use x="88.867188" xlink:href="#ArialMT-73"/>
      <use x="138.867188" xlink:href="#ArialMT-63"/>
      <use x="188.867188" xlink:href="#ArialMT-6f"/>
      <use x="244.482422" xlink:href="#ArialMT-72"/>
      <use x="277.783203" xlink:href="#ArialMT-65"/>
     </g>
    </g>
   </g>
   <g id="matplotlib.axis_8">
    <g id="ytick_17">
     <g id="line2d_53">
      <path clip-path="url(#pb1b769ba45)" d="M 638.65 1006.727813 
L 1141.2 1006.727813 
" style="fill:none;stroke:#ffffff;stroke-linecap:round;"/>
     </g>
     <g id="text_57">
      <!-- energy -->
      <g style="fill:#262626;" transform="translate(595.519219 1010.600156)scale(0.11 -0.11)">
       <use xlink:href="#ArialMT-65"/>
       <use x="55.615234" xlink:href="#ArialMT-6e"/>
       <use x="111.230469" xlink:href="#ArialMT-65"/>
       <use x="166.845703" xlink:href="#ArialMT-72"/>
       <use x="200.146484" xlink:href="#ArialMT-67"/>
       <use x="255.761719" xlink:href="#ArialMT-79"/>
      </g>
     </g>
    </g>
    <g id="ytick_18">
     <g id="line2d_54">
      <path clip-path="url(#pb1b769ba45)" d="M 638.65 905.755625 
L 1141.2 905.755625 
" style="fill:none;stroke:#ffffff;stroke-linecap:round;"/>
     </g>
     <g id="text_58">
      <!-- x0 -->
      <g style="fill:#262626;" transform="translate(617.532969 909.692422)scale(0.11 -0.11)">
       <use xlink:href="#ArialMT-78"/>
       <use x="50" xlink:href="#ArialMT-30"/>
      </g>
     </g>
    </g>
    <g id="ytick_19">
     <g id="line2d_55">
      <path clip-path="url(#pb1b769ba45)" d="M 638.65 804.783437 
L 1141.2 804.783437 
" style="fill:none;stroke:#ffffff;stroke-linecap:round;"/>
     </g>
     <g id="text_59">
      <!-- v0 -->
      <g style="fill:#262626;" transform="translate(617.532969 808.720234)scale(0.11 -0.11)">
       <use xlink:href="#ArialMT-76"/>
       <use x="50" xlink:href="#ArialMT-30"/>
      </g>
     </g>
    </g>
    <g id="ytick_20">
     <g id="line2d_56">
      <path clip-path="url(#pb1b769ba45)" d="M 638.65 703.81125 
L 1141.2 703.81125 
" style="fill:none;stroke:#ffffff;stroke-linecap:round;"/>
     </g>
     <g id="text_60">
      <!-- t -->
      <g style="fill:#262626;" transform="translate(626.094062 707.748047)scale(0.11 -0.11)">
       <use xlink:href="#ArialMT-74"/>
      </g>
     </g>
    </g>
    <g id="text_61">
     <!-- Features -->
     <g style="fill:#262626;" transform="translate(589.134219 878.945156)rotate(-90)scale(0.12 -0.12)">
      <use xlink:href="#ArialMT-46"/>
      <use x="61.083984" xlink:href="#ArialMT-65"/>
      <use x="116.699219" xlink:href="#ArialMT-61"/>
      <use x="172.314453" xlink:href="#ArialMT-74"/>
      <use x="200.097656" xlink:href="#ArialMT-75"/>
      <use x="255.712891" xlink:href="#ArialMT-72"/>
      <use x="289.013672" xlink:href="#ArialMT-65"/>
      <use x="344.628906" xlink:href="#ArialMT-73"/>
     </g>
    </g>
   </g>
   <g id="patch_24">
    <path clip-path="url(#pb1b769ba45)" d="M 638.65 1016.825031 
L 642.021687 1016.825031 
L 642.021687 996.630594 
L 638.65 996.630594 
z
" style="fill:#4c72b0;stroke:#ffffff;stroke-linejoin:miter;"/>
   </g>
   <g id="patch_25">
    <path clip-path="url(#pb1b769ba45)" d="M 638.65 915.852844 
L 691.754076 915.852844 
L 691.754076 895.658406 
L 638.65 895.658406 
z
" style="fill:#4c72b0;stroke:#ffffff;stroke-linejoin:miter;"/>
   </g>
   <g id="patch_26">
    <path clip-path="url(#pb1b769ba45)" d="M 638.65 814.880656 
L 708.612513 814.880656 
L 708.612513 794.686219 
L 638.65 794.686219 
z
" style="fill:#4c72b0;stroke:#ffffff;stroke-linejoin:miter;"/>
   </g>
   <g id="patch_27">
    <path clip-path="url(#pb1b769ba45)" d="M 638.65 713.908469 
L 1095.513636 713.908469 
L 1095.513636 693.714031 
L 638.65 693.714031 
z
" style="fill:#4c72b0;stroke:#ffffff;stroke-linejoin:miter;"/>
   </g>
   <g id="patch_28">
    <path d="M 638.65 1107.7 
L 638.65 602.839062 
" style="fill:none;stroke:#ffffff;stroke-linecap:square;stroke-linejoin:miter;stroke-width:1.25;"/>
   </g>
   <g id="patch_29">
    <path d="M 1141.2 1107.7 
L 1141.2 602.839062 
" style="fill:none;stroke:#ffffff;stroke-linecap:square;stroke-linejoin:miter;stroke-width:1.25;"/>
   </g>
   <g id="patch_30">
    <path d="M 638.65 1107.7 
L 1141.2 1107.7 
" style="fill:none;stroke:#ffffff;stroke-linecap:square;stroke-linejoin:miter;stroke-width:1.25;"/>
   </g>
   <g id="patch_31">
    <path d="M 638.65 602.839063 
L 1141.2 602.839063 
" style="fill:none;stroke:#ffffff;stroke-linecap:square;stroke-linejoin:miter;stroke-width:1.25;"/>
   </g>
   <g id="text_62">
    <!-- 4 -->
    <g style="fill:#262626;" transform="translate(642.864609 1009.312969)scale(0.1 -0.1)">
     <use xlink:href="#ArialMT-34"/>
    </g>
   </g>
   <g id="text_63">
    <!-- 63 -->
    <g style="fill:#262626;" transform="translate(692.596998 908.340781)scale(0.1 -0.1)">
     <use xlink:href="#ArialMT-36"/>
     <use x="55.615234" xlink:href="#ArialMT-33"/>
    </g>
   </g>
   <g id="text_64">
    <!-- 83 -->
    <g style="fill:#262626;" transform="translate(709.455434 807.368594)scale(0.1 -0.1)">
     <use xlink:href="#ArialMT-38"/>
     <use x="55.615234" xlink:href="#ArialMT-33"/>
    </g>
   </g>
   <g id="text_65">
    <!-- 542 -->
    <g style="fill:#262626;" transform="translate(1096.356558 706.396406)scale(0.1 -0.1)">
     <use xlink:href="#ArialMT-35"/>
     <use x="55.615234" xlink:href="#ArialMT-34"/>
     <use x="111.230469" xlink:href="#ArialMT-32"/>
    </g>
   </g>
   <g id="text_66">
    <!-- Contributions to $v_t$ -->
    <g style="fill:#262626;" transform="translate(840.845 596.839063)scale(0.12 -0.12)">
     <defs>
      <path d="M 459 3500 
L 1069 3500 
L 1581 525 
L 3256 3500 
L 3866 3500 
L 1875 0 
L 1100 0 
L 459 3500 
z
" id="DejaVuSans-Oblique-76" transform="scale(0.015625)"/>
     </defs>
     <use transform="translate(0 0.203125)" xlink:href="#ArialMT-43"/>
     <use transform="translate(72.216797 0.203125)" xlink:href="#ArialMT-6f"/>
     <use transform="translate(127.832031 0.203125)" xlink:href="#ArialMT-6e"/>
     <use transform="translate(183.447266 0.203125)" xlink:href="#ArialMT-74"/>
     <use transform="translate(211.230469 0.203125)" xlink:href="#ArialMT-72"/>
     <use transform="translate(244.53125 0.203125)" xlink:href="#ArialMT-69"/>
     <use transform="translate(266.748047 0.203125)" xlink:href="#ArialMT-62"/>
     <use transform="translate(322.363281 0.203125)" xlink:href="#ArialMT-75"/>
     <use transform="translate(377.978516 0.203125)" xlink:href="#ArialMT-74"/>
     <use transform="translate(405.761719 0.203125)" xlink:href="#ArialMT-69"/>
     <use transform="translate(427.978516 0.203125)" xlink:href="#ArialMT-6f"/>
     <use transform="translate(483.59375 0.203125)" xlink:href="#ArialMT-6e"/>
     <use transform="translate(539.208984 0.203125)" xlink:href="#ArialMT-73"/>
     <use transform="translate(589.208984 0.203125)" xlink:href="#ArialMT-20"/>
     <use transform="translate(616.992188 0.203125)" xlink:href="#ArialMT-74"/>
     <use transform="translate(644.775391 0.203125)" xlink:href="#ArialMT-6f"/>
     <use transform="translate(700.390625 0.203125)" xlink:href="#ArialMT-20"/>
     <use transform="translate(728.173828 0.203125)" xlink:href="#DejaVuSans-Oblique-76"/>
     <use transform="translate(787.353516 -16.203125)scale(0.7)" xlink:href="#DejaVuSans-Oblique-74"/>
    </g>
   </g>
  </g>
  <g id="text_67">
   <!-- Aggregate Feature Importance According to XGBoost -->
   <g style="fill:#262626;" transform="translate(386.57 34.6875)scale(0.16 -0.16)">
    <defs>
     <path d="M -9 0 
L 1750 4581 
L 2403 4581 
L 4278 0 
L 3588 0 
L 3053 1388 
L 1138 1388 
L 634 0 
L -9 0 
z
M 1313 1881 
L 2866 1881 
L 2388 3150 
Q 2169 3728 2063 4100 
Q 1975 3659 1816 3225 
L 1313 1881 
z
" id="ArialMT-41" transform="scale(0.015625)"/>
     <path d="M 597 0 
L 597 4581 
L 1203 4581 
L 1203 0 
L 597 0 
z
" id="ArialMT-49" transform="scale(0.015625)"/>
     <path d="M 422 -1272 
L 422 3319 
L 934 3319 
L 934 2888 
Q 1116 3141 1344 3267 
Q 1572 3394 1897 3394 
Q 2322 3394 2647 3175 
Q 2972 2956 3137 2557 
Q 3303 2159 3303 1684 
Q 3303 1175 3120 767 
Q 2938 359 2589 142 
Q 2241 -75 1856 -75 
Q 1575 -75 1351 44 
Q 1128 163 984 344 
L 984 -1272 
L 422 -1272 
z
M 931 1641 
Q 931 1000 1190 694 
Q 1450 388 1819 388 
Q 2194 388 2461 705 
Q 2728 1022 2728 1688 
Q 2728 2322 2467 2637 
Q 2206 2953 1844 2953 
Q 1484 2953 1207 2617 
Q 931 2281 931 1641 
z
" id="ArialMT-70" transform="scale(0.015625)"/>
     <path d="M 2575 0 
L 2575 419 
Q 2259 -75 1647 -75 
Q 1250 -75 917 144 
Q 584 363 401 755 
Q 219 1147 219 1656 
Q 219 2153 384 2558 
Q 550 2963 881 3178 
Q 1213 3394 1622 3394 
Q 1922 3394 2156 3267 
Q 2391 3141 2538 2938 
L 2538 4581 
L 3097 4581 
L 3097 0 
L 2575 0 
z
M 797 1656 
Q 797 1019 1065 703 
Q 1334 388 1700 388 
Q 2069 388 2326 689 
Q 2584 991 2584 1609 
Q 2584 2291 2321 2609 
Q 2059 2928 1675 2928 
Q 1300 2928 1048 2622 
Q 797 2316 797 1656 
z
" id="ArialMT-64" transform="scale(0.015625)"/>
     <path d="M 28 0 
L 1800 2388 
L 238 4581 
L 959 4581 
L 1791 3406 
Q 2050 3041 2159 2844 
Q 2313 3094 2522 3366 
L 3444 4581 
L 4103 4581 
L 2494 2422 
L 4228 0 
L 3478 0 
L 2325 1634 
Q 2228 1775 2125 1941 
Q 1972 1691 1906 1597 
L 756 0 
L 28 0 
z
" id="ArialMT-58" transform="scale(0.015625)"/>
     <path d="M 2638 1797 
L 2638 2334 
L 4578 2338 
L 4578 638 
Q 4131 281 3656 101 
Q 3181 -78 2681 -78 
Q 2006 -78 1454 211 
Q 903 500 622 1047 
Q 341 1594 341 2269 
Q 341 2938 620 3517 
Q 900 4097 1425 4378 
Q 1950 4659 2634 4659 
Q 3131 4659 3532 4498 
Q 3934 4338 4162 4050 
Q 4391 3763 4509 3300 
L 3963 3150 
Q 3859 3500 3706 3700 
Q 3553 3900 3268 4020 
Q 2984 4141 2638 4141 
Q 2222 4141 1919 4014 
Q 1616 3888 1430 3681 
Q 1244 3475 1141 3228 
Q 966 2803 966 2306 
Q 966 1694 1177 1281 
Q 1388 869 1791 669 
Q 2194 469 2647 469 
Q 3041 469 3416 620 
Q 3791 772 3984 944 
L 3984 1797 
L 2638 1797 
z
" id="ArialMT-47" transform="scale(0.015625)"/>
     <path d="M 469 0 
L 469 4581 
L 2188 4581 
Q 2713 4581 3030 4442 
Q 3347 4303 3526 4014 
Q 3706 3725 3706 3409 
Q 3706 3116 3547 2856 
Q 3388 2597 3066 2438 
Q 3481 2316 3704 2022 
Q 3928 1728 3928 1328 
Q 3928 1006 3792 729 
Q 3656 453 3456 303 
Q 3256 153 2954 76 
Q 2653 0 2216 0 
L 469 0 
z
M 1075 2656 
L 2066 2656 
Q 2469 2656 2644 2709 
Q 2875 2778 2992 2937 
Q 3109 3097 3109 3338 
Q 3109 3566 3000 3739 
Q 2891 3913 2687 3977 
Q 2484 4041 1991 4041 
L 1075 4041 
L 1075 2656 
z
M 1075 541 
L 2216 541 
Q 2509 541 2628 563 
Q 2838 600 2978 687 
Q 3119 775 3209 942 
Q 3300 1109 3300 1328 
Q 3300 1584 3169 1773 
Q 3038 1963 2805 2039 
Q 2572 2116 2134 2116 
L 1075 2116 
L 1075 541 
z
" id="ArialMT-42" transform="scale(0.015625)"/>
    </defs>
    <use xlink:href="#ArialMT-41"/>
    <use x="66.699219" xlink:href="#ArialMT-67"/>
    <use x="122.314453" xlink:href="#ArialMT-67"/>
    <use x="177.929688" xlink:href="#ArialMT-72"/>
    <use x="211.230469" xlink:href="#ArialMT-65"/>
    <use x="266.845703" xlink:href="#ArialMT-67"/>
    <use x="322.460938" xlink:href="#ArialMT-61"/>
    <use x="378.076172" xlink:href="#ArialMT-74"/>
    <use x="405.859375" xlink:href="#ArialMT-65"/>
    <use x="461.474609" xlink:href="#ArialMT-20"/>
    <use x="489.257812" xlink:href="#ArialMT-46"/>
    <use x="550.341797" xlink:href="#ArialMT-65"/>
    <use x="605.957031" xlink:href="#ArialMT-61"/>
    <use x="661.572266" xlink:href="#ArialMT-74"/>
    <use x="689.355469" xlink:href="#ArialMT-75"/>
    <use x="744.970703" xlink:href="#ArialMT-72"/>
    <use x="778.271484" xlink:href="#ArialMT-65"/>
    <use x="833.886719" xlink:href="#ArialMT-20"/>
    <use x="861.669922" xlink:href="#ArialMT-49"/>
    <use x="889.453125" xlink:href="#ArialMT-6d"/>
    <use x="972.753906" xlink:href="#ArialMT-70"/>
    <use x="1028.369141" xlink:href="#ArialMT-6f"/>
    <use x="1083.984375" xlink:href="#ArialMT-72"/>
    <use x="1117.285156" xlink:href="#ArialMT-74"/>
    <use x="1145.068359" xlink:href="#ArialMT-61"/>
    <use x="1200.683594" xlink:href="#ArialMT-6e"/>
    <use x="1256.298828" xlink:href="#ArialMT-63"/>
    <use x="1306.298828" xlink:href="#ArialMT-65"/>
    <use x="1361.914062" xlink:href="#ArialMT-20"/>
    <use x="1384.197266" xlink:href="#ArialMT-41"/>
    <use x="1450.896484" xlink:href="#ArialMT-63"/>
    <use x="1500.896484" xlink:href="#ArialMT-63"/>
    <use x="1550.896484" xlink:href="#ArialMT-6f"/>
    <use x="1606.511719" xlink:href="#ArialMT-72"/>
    <use x="1639.8125" xlink:href="#ArialMT-64"/>
    <use x="1695.427734" xlink:href="#ArialMT-69"/>
    <use x="1717.644531" xlink:href="#ArialMT-6e"/>
    <use x="1773.259766" xlink:href="#ArialMT-67"/>
    <use x="1828.875" xlink:href="#ArialMT-20"/>
    <use x="1856.658203" xlink:href="#ArialMT-74"/>
    <use x="1884.441406" xlink:href="#ArialMT-6f"/>
    <use x="1940.056641" xlink:href="#ArialMT-20"/>
    <use x="1967.839844" xlink:href="#ArialMT-58"/>
    <use x="2034.539062" xlink:href="#ArialMT-47"/>
    <use x="2112.322266" xlink:href="#ArialMT-42"/>
    <use x="2179.021484" xlink:href="#ArialMT-6f"/>
    <use x="2234.636719" xlink:href="#ArialMT-6f"/>
    <use x="2290.251953" xlink:href="#ArialMT-73"/>
    <use x="2340.251953" xlink:href="#ArialMT-74"/>
   </g>
  </g>
 </g>
 <defs>
  <clipPath id="pbe7e2e675a">
   <rect height="504.860937" width="502.55" x="68.05" y="36.678125"/>
  </clipPath>
  <clipPath id="p2b9b9185d8">
   <rect height="504.860937" width="502.55" x="638.65" y="36.678125"/>
  </clipPath>
  <clipPath id="pb517ef593b">
   <rect height="504.860937" width="502.55" x="68.05" y="602.839063"/>
  </clipPath>
  <clipPath id="pb1b769ba45">
   <rect height="504.860937" width="502.55" x="638.65" y="602.839063"/>
  </clipPath>
 </defs>
</svg>
