<?xml version="1.0" encoding="utf-8" standalone="no"?>
<!DOCTYPE svg PUBLIC "-//W3C//DTD SVG 1.1//EN"
  "http://www.w3.org/Graphics/SVG/1.1/DTD/svg11.dtd">
<svg height="1152pt" version="1.1" viewBox="0 0 1152 1152" width="1152pt" xmlns="http://www.w3.org/2000/svg" xmlns:xlink="http://www.w3.org/1999/xlink">
 <metadata>
  <rdf:RDF xmlns:cc="http://creativecommons.org/ns#" xmlns:dc="http://purl.org/dc/elements/1.1/" xmlns:rdf="http://www.w3.org/1999/02/22-rdf-syntax-ns#">
   <cc:Work>
    <dc:type rdf:resource="http://purl.org/dc/dcmitype/StillImage"/>
    <dc:date>2021-10-05T20:59:51.618385</dc:date>
    <dc:format>image/svg+xml</dc:format>
    <dc:creator>
     <cc:Agent>
      <dc:title>Matplotlib v3.4.2, https://matplotlib.org/</dc:title>
     </cc:Agent>
    </dc:creator>
   </cc:Work>
  </rdf:RDF>
 </metadata>
 <defs>
  <style type="text/css">*{stroke-linecap:butt;stroke-linejoin:round;}</style>
 </defs>
 <g id="figure_1">
  <g id="patch_1">
   <path d="M 0 1152 
L 1152 1152 
L 1152 0 
L 0 0 
z
" style="fill:none;"/>
  </g>
  <g id="axes_1">
   <g id="patch_2">
    <path d="M 68.05 541.539063 
L 570.6 541.539063 
L 570.6 36.678125 
L 68.05 36.678125 
z
" style="fill:#eaeaf2;"/>
   </g>
   <g id="matplotlib.axis_1">
    <g id="xtick_1">
     <g id="line2d_1">
      <path clip-path="url(#pf24b051831)" d="M 90.893182 541.539063 
L 90.893182 36.678125 
" style="fill:none;stroke:#ffffff;stroke-linecap:round;"/>
     </g>
     <g id="text_1">
      <!-- 0 -->
      <g style="fill:#262626;" transform="translate(87.834666 558.912656)scale(0.11 -0.11)">
       <defs>
        <path d="M 266 2259 
Q 266 3072 433 3567 
Q 600 4063 929 4331 
Q 1259 4600 1759 4600 
Q 2128 4600 2406 4451 
Q 2684 4303 2865 4023 
Q 3047 3744 3150 3342 
Q 3253 2941 3253 2259 
Q 3253 1453 3087 958 
Q 2922 463 2592 192 
Q 2263 -78 1759 -78 
Q 1097 -78 719 397 
Q 266 969 266 2259 
z
M 844 2259 
Q 844 1131 1108 757 
Q 1372 384 1759 384 
Q 2147 384 2411 759 
Q 2675 1134 2675 2259 
Q 2675 3391 2411 3762 
Q 2147 4134 1753 4134 
Q 1366 4134 1134 3806 
Q 844 3388 844 2259 
z
" id="ArialMT-30" transform="scale(0.015625)"/>
       </defs>
       <use xlink:href="#ArialMT-30"/>
      </g>
     </g>
    </g>
    <g id="xtick_2">
     <g id="line2d_2">
      <path clip-path="url(#pf24b051831)" d="M 153.908856 541.539063 
L 153.908856 36.678125 
" style="fill:none;stroke:#ffffff;stroke-linecap:round;"/>
     </g>
     <g id="text_2">
      <!-- 20 -->
      <g style="fill:#262626;" transform="translate(147.791825 558.912656)scale(0.11 -0.11)">
       <defs>
        <path d="M 3222 541 
L 3222 0 
L 194 0 
Q 188 203 259 391 
Q 375 700 629 1000 
Q 884 1300 1366 1694 
Q 2113 2306 2375 2664 
Q 2638 3022 2638 3341 
Q 2638 3675 2398 3904 
Q 2159 4134 1775 4134 
Q 1369 4134 1125 3890 
Q 881 3647 878 3216 
L 300 3275 
Q 359 3922 746 4261 
Q 1134 4600 1788 4600 
Q 2447 4600 2831 4234 
Q 3216 3869 3216 3328 
Q 3216 3053 3103 2787 
Q 2991 2522 2730 2228 
Q 2469 1934 1863 1422 
Q 1356 997 1212 845 
Q 1069 694 975 541 
L 3222 541 
z
" id="ArialMT-32" transform="scale(0.015625)"/>
       </defs>
       <use xlink:href="#ArialMT-32"/>
       <use x="55.615234" xlink:href="#ArialMT-30"/>
      </g>
     </g>
    </g>
    <g id="xtick_3">
     <g id="line2d_3">
      <path clip-path="url(#pf24b051831)" d="M 216.92453 541.539063 
L 216.92453 36.678125 
" style="fill:none;stroke:#ffffff;stroke-linecap:round;"/>
     </g>
     <g id="text_3">
      <!-- 40 -->
      <g style="fill:#262626;" transform="translate(210.807499 558.912656)scale(0.11 -0.11)">
       <defs>
        <path d="M 2069 0 
L 2069 1097 
L 81 1097 
L 81 1613 
L 2172 4581 
L 2631 4581 
L 2631 1613 
L 3250 1613 
L 3250 1097 
L 2631 1097 
L 2631 0 
L 2069 0 
z
M 2069 1613 
L 2069 3678 
L 634 1613 
L 2069 1613 
z
" id="ArialMT-34" transform="scale(0.015625)"/>
       </defs>
       <use xlink:href="#ArialMT-34"/>
       <use x="55.615234" xlink:href="#ArialMT-30"/>
      </g>
     </g>
    </g>
    <g id="xtick_4">
     <g id="line2d_4">
      <path clip-path="url(#pf24b051831)" d="M 279.940204 541.539063 
L 279.940204 36.678125 
" style="fill:none;stroke:#ffffff;stroke-linecap:round;"/>
     </g>
     <g id="text_4">
      <!-- 60 -->
      <g style="fill:#262626;" transform="translate(273.823173 558.912656)scale(0.11 -0.11)">
       <defs>
        <path d="M 3184 3459 
L 2625 3416 
Q 2550 3747 2413 3897 
Q 2184 4138 1850 4138 
Q 1581 4138 1378 3988 
Q 1113 3794 959 3422 
Q 806 3050 800 2363 
Q 1003 2672 1297 2822 
Q 1591 2972 1913 2972 
Q 2475 2972 2870 2558 
Q 3266 2144 3266 1488 
Q 3266 1056 3080 686 
Q 2894 316 2569 119 
Q 2244 -78 1831 -78 
Q 1128 -78 684 439 
Q 241 956 241 2144 
Q 241 3472 731 4075 
Q 1159 4600 1884 4600 
Q 2425 4600 2770 4297 
Q 3116 3994 3184 3459 
z
M 888 1484 
Q 888 1194 1011 928 
Q 1134 663 1356 523 
Q 1578 384 1822 384 
Q 2178 384 2434 671 
Q 2691 959 2691 1453 
Q 2691 1928 2437 2201 
Q 2184 2475 1800 2475 
Q 1419 2475 1153 2201 
Q 888 1928 888 1484 
z
" id="ArialMT-36" transform="scale(0.015625)"/>
       </defs>
       <use xlink:href="#ArialMT-36"/>
       <use x="55.615234" xlink:href="#ArialMT-30"/>
      </g>
     </g>
    </g>
    <g id="xtick_5">
     <g id="line2d_5">
      <path clip-path="url(#pf24b051831)" d="M 342.955878 541.539063 
L 342.955878 36.678125 
" style="fill:none;stroke:#ffffff;stroke-linecap:round;"/>
     </g>
     <g id="text_5">
      <!-- 80 -->
      <g style="fill:#262626;" transform="translate(336.838846 558.912656)scale(0.11 -0.11)">
       <defs>
        <path d="M 1131 2484 
Q 781 2613 612 2850 
Q 444 3088 444 3419 
Q 444 3919 803 4259 
Q 1163 4600 1759 4600 
Q 2359 4600 2725 4251 
Q 3091 3903 3091 3403 
Q 3091 3084 2923 2848 
Q 2756 2613 2416 2484 
Q 2838 2347 3058 2040 
Q 3278 1734 3278 1309 
Q 3278 722 2862 322 
Q 2447 -78 1769 -78 
Q 1091 -78 675 323 
Q 259 725 259 1325 
Q 259 1772 486 2073 
Q 713 2375 1131 2484 
z
M 1019 3438 
Q 1019 3113 1228 2906 
Q 1438 2700 1772 2700 
Q 2097 2700 2305 2904 
Q 2513 3109 2513 3406 
Q 2513 3716 2298 3927 
Q 2084 4138 1766 4138 
Q 1444 4138 1231 3931 
Q 1019 3725 1019 3438 
z
M 838 1322 
Q 838 1081 952 856 
Q 1066 631 1291 507 
Q 1516 384 1775 384 
Q 2178 384 2440 643 
Q 2703 903 2703 1303 
Q 2703 1709 2433 1975 
Q 2163 2241 1756 2241 
Q 1359 2241 1098 1978 
Q 838 1716 838 1322 
z
" id="ArialMT-38" transform="scale(0.015625)"/>
       </defs>
       <use xlink:href="#ArialMT-38"/>
       <use x="55.615234" xlink:href="#ArialMT-30"/>
      </g>
     </g>
    </g>
    <g id="xtick_6">
     <g id="line2d_6">
      <path clip-path="url(#pf24b051831)" d="M 405.971552 541.539063 
L 405.971552 36.678125 
" style="fill:none;stroke:#ffffff;stroke-linecap:round;"/>
     </g>
     <g id="text_6">
      <!-- 100 -->
      <g style="fill:#262626;" transform="translate(396.796005 558.912656)scale(0.11 -0.11)">
       <defs>
        <path d="M 2384 0 
L 1822 0 
L 1822 3584 
Q 1619 3391 1289 3197 
Q 959 3003 697 2906 
L 697 3450 
Q 1169 3672 1522 3987 
Q 1875 4303 2022 4600 
L 2384 4600 
L 2384 0 
z
" id="ArialMT-31" transform="scale(0.015625)"/>
       </defs>
       <use xlink:href="#ArialMT-31"/>
       <use x="55.615234" xlink:href="#ArialMT-30"/>
       <use x="111.230469" xlink:href="#ArialMT-30"/>
      </g>
     </g>
    </g>
    <g id="xtick_7">
     <g id="line2d_7">
      <path clip-path="url(#pf24b051831)" d="M 468.987226 541.539063 
L 468.987226 36.678125 
" style="fill:none;stroke:#ffffff;stroke-linecap:round;"/>
     </g>
     <g id="text_7">
      <!-- 120 -->
      <g style="fill:#262626;" transform="translate(459.811679 558.912656)scale(0.11 -0.11)">
       <use xlink:href="#ArialMT-31"/>
       <use x="55.615234" xlink:href="#ArialMT-32"/>
       <use x="111.230469" xlink:href="#ArialMT-30"/>
      </g>
     </g>
    </g>
    <g id="xtick_8">
     <g id="line2d_8">
      <path clip-path="url(#pf24b051831)" d="M 532.0029 541.539063 
L 532.0029 36.678125 
" style="fill:none;stroke:#ffffff;stroke-linecap:round;"/>
     </g>
     <g id="text_8">
      <!-- 140 -->
      <g style="fill:#262626;" transform="translate(522.827353 558.912656)scale(0.11 -0.11)">
       <use xlink:href="#ArialMT-31"/>
       <use x="55.615234" xlink:href="#ArialMT-34"/>
       <use x="111.230469" xlink:href="#ArialMT-30"/>
      </g>
     </g>
    </g>
    <g id="text_9">
     <!-- Number of Trees -->
     <g style="fill:#262626;" transform="translate(274.64375 573.688281)scale(0.12 -0.12)">
      <defs>
       <path d="M 488 0 
L 488 4581 
L 1109 4581 
L 3516 984 
L 3516 4581 
L 4097 4581 
L 4097 0 
L 3475 0 
L 1069 3600 
L 1069 0 
L 488 0 
z
" id="ArialMT-4e" transform="scale(0.015625)"/>
       <path d="M 2597 0 
L 2597 488 
Q 2209 -75 1544 -75 
Q 1250 -75 995 37 
Q 741 150 617 320 
Q 494 491 444 738 
Q 409 903 409 1263 
L 409 3319 
L 972 3319 
L 972 1478 
Q 972 1038 1006 884 
Q 1059 663 1231 536 
Q 1403 409 1656 409 
Q 1909 409 2131 539 
Q 2353 669 2445 892 
Q 2538 1116 2538 1541 
L 2538 3319 
L 3100 3319 
L 3100 0 
L 2597 0 
z
" id="ArialMT-75" transform="scale(0.015625)"/>
       <path d="M 422 0 
L 422 3319 
L 925 3319 
L 925 2853 
Q 1081 3097 1340 3245 
Q 1600 3394 1931 3394 
Q 2300 3394 2536 3241 
Q 2772 3088 2869 2813 
Q 3263 3394 3894 3394 
Q 4388 3394 4653 3120 
Q 4919 2847 4919 2278 
L 4919 0 
L 4359 0 
L 4359 2091 
Q 4359 2428 4304 2576 
Q 4250 2725 4106 2815 
Q 3963 2906 3769 2906 
Q 3419 2906 3187 2673 
Q 2956 2441 2956 1928 
L 2956 0 
L 2394 0 
L 2394 2156 
Q 2394 2531 2256 2718 
Q 2119 2906 1806 2906 
Q 1569 2906 1367 2781 
Q 1166 2656 1075 2415 
Q 984 2175 984 1722 
L 984 0 
L 422 0 
z
" id="ArialMT-6d" transform="scale(0.015625)"/>
       <path d="M 941 0 
L 419 0 
L 419 4581 
L 981 4581 
L 981 2947 
Q 1338 3394 1891 3394 
Q 2197 3394 2470 3270 
Q 2744 3147 2920 2923 
Q 3097 2700 3197 2384 
Q 3297 2069 3297 1709 
Q 3297 856 2875 390 
Q 2453 -75 1863 -75 
Q 1275 -75 941 416 
L 941 0 
z
M 934 1684 
Q 934 1088 1097 822 
Q 1363 388 1816 388 
Q 2184 388 2453 708 
Q 2722 1028 2722 1663 
Q 2722 2313 2464 2622 
Q 2206 2931 1841 2931 
Q 1472 2931 1203 2611 
Q 934 2291 934 1684 
z
" id="ArialMT-62" transform="scale(0.015625)"/>
       <path d="M 2694 1069 
L 3275 997 
Q 3138 488 2766 206 
Q 2394 -75 1816 -75 
Q 1088 -75 661 373 
Q 234 822 234 1631 
Q 234 2469 665 2931 
Q 1097 3394 1784 3394 
Q 2450 3394 2872 2941 
Q 3294 2488 3294 1666 
Q 3294 1616 3291 1516 
L 816 1516 
Q 847 969 1125 678 
Q 1403 388 1819 388 
Q 2128 388 2347 550 
Q 2566 713 2694 1069 
z
M 847 1978 
L 2700 1978 
Q 2663 2397 2488 2606 
Q 2219 2931 1791 2931 
Q 1403 2931 1139 2672 
Q 875 2413 847 1978 
z
" id="ArialMT-65" transform="scale(0.015625)"/>
       <path d="M 416 0 
L 416 3319 
L 922 3319 
L 922 2816 
Q 1116 3169 1280 3281 
Q 1444 3394 1641 3394 
Q 1925 3394 2219 3213 
L 2025 2691 
Q 1819 2813 1613 2813 
Q 1428 2813 1281 2702 
Q 1134 2591 1072 2394 
Q 978 2094 978 1738 
L 978 0 
L 416 0 
z
" id="ArialMT-72" transform="scale(0.015625)"/>
       <path id="ArialMT-20" transform="scale(0.015625)"/>
       <path d="M 213 1659 
Q 213 2581 725 3025 
Q 1153 3394 1769 3394 
Q 2453 3394 2887 2945 
Q 3322 2497 3322 1706 
Q 3322 1066 3130 698 
Q 2938 331 2570 128 
Q 2203 -75 1769 -75 
Q 1072 -75 642 372 
Q 213 819 213 1659 
z
M 791 1659 
Q 791 1022 1069 705 
Q 1347 388 1769 388 
Q 2188 388 2466 706 
Q 2744 1025 2744 1678 
Q 2744 2294 2464 2611 
Q 2184 2928 1769 2928 
Q 1347 2928 1069 2612 
Q 791 2297 791 1659 
z
" id="ArialMT-6f" transform="scale(0.015625)"/>
       <path d="M 556 0 
L 556 2881 
L 59 2881 
L 59 3319 
L 556 3319 
L 556 3672 
Q 556 4006 616 4169 
Q 697 4388 901 4523 
Q 1106 4659 1475 4659 
Q 1713 4659 2000 4603 
L 1916 4113 
Q 1741 4144 1584 4144 
Q 1328 4144 1222 4034 
Q 1116 3925 1116 3625 
L 1116 3319 
L 1763 3319 
L 1763 2881 
L 1116 2881 
L 1116 0 
L 556 0 
z
" id="ArialMT-66" transform="scale(0.015625)"/>
       <path d="M 1659 0 
L 1659 4041 
L 150 4041 
L 150 4581 
L 3781 4581 
L 3781 4041 
L 2266 4041 
L 2266 0 
L 1659 0 
z
" id="ArialMT-54" transform="scale(0.015625)"/>
       <path d="M 197 991 
L 753 1078 
Q 800 744 1014 566 
Q 1228 388 1613 388 
Q 2000 388 2187 545 
Q 2375 703 2375 916 
Q 2375 1106 2209 1216 
Q 2094 1291 1634 1406 
Q 1016 1563 777 1677 
Q 538 1791 414 1992 
Q 291 2194 291 2438 
Q 291 2659 392 2848 
Q 494 3038 669 3163 
Q 800 3259 1026 3326 
Q 1253 3394 1513 3394 
Q 1903 3394 2198 3281 
Q 2494 3169 2634 2976 
Q 2775 2784 2828 2463 
L 2278 2388 
Q 2241 2644 2061 2787 
Q 1881 2931 1553 2931 
Q 1166 2931 1000 2803 
Q 834 2675 834 2503 
Q 834 2394 903 2306 
Q 972 2216 1119 2156 
Q 1203 2125 1616 2013 
Q 2213 1853 2448 1751 
Q 2684 1650 2818 1456 
Q 2953 1263 2953 975 
Q 2953 694 2789 445 
Q 2625 197 2315 61 
Q 2006 -75 1616 -75 
Q 969 -75 630 194 
Q 291 463 197 991 
z
" id="ArialMT-73" transform="scale(0.015625)"/>
      </defs>
      <use xlink:href="#ArialMT-4e"/>
      <use x="72.216797" xlink:href="#ArialMT-75"/>
      <use x="127.832031" xlink:href="#ArialMT-6d"/>
      <use x="211.132812" xlink:href="#ArialMT-62"/>
      <use x="266.748047" xlink:href="#ArialMT-65"/>
      <use x="322.363281" xlink:href="#ArialMT-72"/>
      <use x="355.664062" xlink:href="#ArialMT-20"/>
      <use x="383.447266" xlink:href="#ArialMT-6f"/>
      <use x="439.0625" xlink:href="#ArialMT-66"/>
      <use x="466.845703" xlink:href="#ArialMT-20"/>
      <use x="492.878906" xlink:href="#ArialMT-54"/>
      <use x="550.212891" xlink:href="#ArialMT-72"/>
      <use x="583.513672" xlink:href="#ArialMT-65"/>
      <use x="639.128906" xlink:href="#ArialMT-65"/>
      <use x="694.744141" xlink:href="#ArialMT-73"/>
     </g>
    </g>
   </g>
   <g id="matplotlib.axis_2">
    <g id="ytick_1">
     <g id="line2d_9">
      <path clip-path="url(#pf24b051831)" d="M 68.05 518.907955 
L 570.6 518.907955 
" style="fill:none;stroke:#ffffff;stroke-linecap:round;"/>
     </g>
     <g id="text_10">
      <!-- 0.0 -->
      <g style="fill:#262626;" transform="translate(43.26 522.844752)scale(0.11 -0.11)">
       <defs>
        <path d="M 581 0 
L 581 641 
L 1222 641 
L 1222 0 
L 581 0 
z
" id="ArialMT-2e" transform="scale(0.015625)"/>
       </defs>
       <use xlink:href="#ArialMT-30"/>
       <use x="55.615234" xlink:href="#ArialMT-2e"/>
       <use x="83.398438" xlink:href="#ArialMT-30"/>
      </g>
     </g>
    </g>
    <g id="ytick_2">
     <g id="line2d_10">
      <path clip-path="url(#pf24b051831)" d="M 68.05 423.534351 
L 570.6 423.534351 
" style="fill:none;stroke:#ffffff;stroke-linecap:round;"/>
     </g>
     <g id="text_11">
      <!-- 0.2 -->
      <g style="fill:#262626;" transform="translate(43.26 427.471148)scale(0.11 -0.11)">
       <use xlink:href="#ArialMT-30"/>
       <use x="55.615234" xlink:href="#ArialMT-2e"/>
       <use x="83.398438" xlink:href="#ArialMT-32"/>
      </g>
     </g>
    </g>
    <g id="ytick_3">
     <g id="line2d_11">
      <path clip-path="url(#pf24b051831)" d="M 68.05 328.160747 
L 570.6 328.160747 
" style="fill:none;stroke:#ffffff;stroke-linecap:round;"/>
     </g>
     <g id="text_12">
      <!-- 0.4 -->
      <g style="fill:#262626;" transform="translate(43.26 332.097544)scale(0.11 -0.11)">
       <use xlink:href="#ArialMT-30"/>
       <use x="55.615234" xlink:href="#ArialMT-2e"/>
       <use x="83.398438" xlink:href="#ArialMT-34"/>
      </g>
     </g>
    </g>
    <g id="ytick_4">
     <g id="line2d_12">
      <path clip-path="url(#pf24b051831)" d="M 68.05 232.787142 
L 570.6 232.787142 
" style="fill:none;stroke:#ffffff;stroke-linecap:round;"/>
     </g>
     <g id="text_13">
      <!-- 0.6 -->
      <g style="fill:#262626;" transform="translate(43.26 236.723939)scale(0.11 -0.11)">
       <use xlink:href="#ArialMT-30"/>
       <use x="55.615234" xlink:href="#ArialMT-2e"/>
       <use x="83.398438" xlink:href="#ArialMT-36"/>
      </g>
     </g>
    </g>
    <g id="ytick_5">
     <g id="line2d_13">
      <path clip-path="url(#pf24b051831)" d="M 68.05 137.413538 
L 570.6 137.413538 
" style="fill:none;stroke:#ffffff;stroke-linecap:round;"/>
     </g>
     <g id="text_14">
      <!-- 0.8 -->
      <g style="fill:#262626;" transform="translate(43.26 141.350335)scale(0.11 -0.11)">
       <use xlink:href="#ArialMT-30"/>
       <use x="55.615234" xlink:href="#ArialMT-2e"/>
       <use x="83.398438" xlink:href="#ArialMT-38"/>
      </g>
     </g>
    </g>
    <g id="ytick_6">
     <g id="line2d_14">
      <path clip-path="url(#pf24b051831)" d="M 68.05 42.039934 
L 570.6 42.039934 
" style="fill:none;stroke:#ffffff;stroke-linecap:round;"/>
     </g>
     <g id="text_15">
      <!-- 1.0 -->
      <g style="fill:#262626;" transform="translate(43.26 45.976731)scale(0.11 -0.11)">
       <use xlink:href="#ArialMT-31"/>
       <use x="55.615234" xlink:href="#ArialMT-2e"/>
       <use x="83.398438" xlink:href="#ArialMT-30"/>
      </g>
     </g>
    </g>
    <g id="text_16">
     <!-- rmse -->
     <g style="fill:#262626;" transform="translate(36.875 302.440781)rotate(-90)scale(0.12 -0.12)">
      <use xlink:href="#ArialMT-72"/>
      <use x="33.300781" xlink:href="#ArialMT-6d"/>
      <use x="116.601562" xlink:href="#ArialMT-73"/>
      <use x="166.601562" xlink:href="#ArialMT-65"/>
     </g>
    </g>
   </g>
   <g id="line2d_15">
    <path clip-path="url(#pf24b051831)" d="M 90.893182 67.224764 
L 94.043966 111.324565 
L 97.194749 151.107757 
L 100.345533 186.942958 
L 103.496317 219.1635 
L 106.6471 248.172812 
L 109.797884 274.310425 
L 112.948668 297.840047 
L 116.099451 319.065443 
L 119.250235 338.12395 
L 122.401019 355.346039 
L 125.551803 370.862371 
L 128.702586 384.838895 
L 131.85337 397.503079 
L 135.004154 408.891165 
L 138.154937 419.176731 
L 141.305721 428.455629 
L 144.456505 436.851367 
L 147.607288 444.315306 
L 150.758072 451.180775 
L 153.908856 457.354308 
L 157.059639 462.962276 
L 160.210423 468.004678 
L 163.361207 472.547323 
L 166.511991 476.663171 
L 169.662774 480.374158 
L 172.813558 483.762305 
L 175.964342 486.78851 
L 179.115125 489.530024 
L 182.265909 492.001154 
L 185.416693 494.244818 
L 188.567476 496.27103 
L 191.71826 498.136538 
L 194.869044 499.824174 
L 198.019828 501.341568 
L 201.170611 502.703503 
L 207.472179 505.076875 
L 213.773746 507.035849 
L 220.075313 508.650047 
L 226.376881 509.973356 
L 232.678448 511.098288 
L 242.130799 512.418258 
L 251.58315 513.469276 
L 264.186285 514.549858 
L 279.940204 515.508363 
L 295.694122 516.197914 
L 320.900392 516.972348 
L 352.408229 517.606106 
L 387.06685 518.045778 
L 434.328605 518.402475 
L 487.891928 518.560319 
L 547.756818 518.590838 
L 547.756818 518.590838 
" style="fill:none;stroke:#4c72b0;stroke-linecap:round;stroke-width:1.5;"/>
   </g>
   <g id="line2d_16">
    <path clip-path="url(#pf24b051831)" d="M 90.893182 59.626349 
L 94.043966 104.279317 
L 97.194749 144.619491 
L 100.345533 180.899133 
L 103.496317 213.507368 
L 106.6471 242.865271 
L 109.797884 269.319525 
L 112.948668 293.141943 
L 116.099451 314.64583 
L 119.250235 333.850736 
L 122.401019 351.192995 
L 125.551803 366.85954 
L 128.702586 380.890428 
L 131.85337 393.572256 
L 135.004154 404.956527 
L 138.154937 415.170563 
L 141.305721 424.364101 
L 144.456505 432.607242 
L 147.607288 439.889494 
L 150.758072 446.503176 
L 153.908856 452.405372 
L 157.059639 457.729126 
L 160.210423 462.430091 
L 163.361207 466.552138 
L 166.511991 470.230221 
L 169.662774 473.516796 
L 172.813558 476.438566 
L 175.964342 478.937831 
L 179.115125 481.115211 
L 182.265909 483.028882 
L 185.416693 484.708888 
L 188.567476 486.186225 
L 191.71826 487.456125 
L 194.869044 488.568181 
L 201.170611 490.296828 
L 207.472179 491.625859 
L 213.773746 492.571965 
L 220.075313 493.249118 
L 226.376881 493.729801 
L 235.829232 494.255786 
L 245.281583 494.678291 
L 279.940204 495.255778 
L 330.352743 495.495166 
L 481.590361 495.613429 
L 547.756818 495.618198 
L 547.756818 495.618198 
" style="fill:none;stroke:#dd8452;stroke-linecap:round;stroke-width:1.5;"/>
   </g>
   <g id="patch_3">
    <path d="M 68.05 541.539063 
L 68.05 36.678125 
" style="fill:none;stroke:#ffffff;stroke-linecap:square;stroke-linejoin:miter;stroke-width:1.25;"/>
   </g>
   <g id="patch_4">
    <path d="M 570.6 541.539063 
L 570.6 36.678125 
" style="fill:none;stroke:#ffffff;stroke-linecap:square;stroke-linejoin:miter;stroke-width:1.25;"/>
   </g>
   <g id="patch_5">
    <path d="M 68.05 541.539063 
L 570.6 541.539063 
" style="fill:none;stroke:#ffffff;stroke-linecap:square;stroke-linejoin:miter;stroke-width:1.25;"/>
   </g>
   <g id="patch_6">
    <path d="M 68.05 36.678125 
L 570.6 36.678125 
" style="fill:none;stroke:#ffffff;stroke-linecap:square;stroke-linejoin:miter;stroke-width:1.25;"/>
   </g>
   <g id="legend_1">
    <g id="patch_7">
     <path d="M 475.743906 76.597813 
L 562.9 76.597813 
Q 565.1 76.597813 565.1 74.397813 
L 565.1 44.378125 
Q 565.1 42.178125 562.9 42.178125 
L 475.743906 42.178125 
Q 473.543906 42.178125 473.543906 44.378125 
L 473.543906 74.397813 
Q 473.543906 76.597813 475.743906 76.597813 
z
" style="fill:#eaeaf2;opacity:0.8;stroke:#cccccc;stroke-linejoin:miter;"/>
    </g>
    <g id="line2d_17">
     <path d="M 477.943906 50.601719 
L 499.943906 50.601719 
" style="fill:none;stroke:#4c72b0;stroke-linecap:round;stroke-width:1.5;"/>
    </g>
    <g id="line2d_18"/>
    <g id="text_17">
     <!-- rmse_train -->
     <g style="fill:#262626;" transform="translate(508.743906 54.451719)scale(0.11 -0.11)">
      <defs>
       <path d="M -97 -1272 
L -97 -866 
L 3631 -866 
L 3631 -1272 
L -97 -1272 
z
" id="ArialMT-5f" transform="scale(0.015625)"/>
       <path d="M 1650 503 
L 1731 6 
Q 1494 -44 1306 -44 
Q 1000 -44 831 53 
Q 663 150 594 308 
Q 525 466 525 972 
L 525 2881 
L 113 2881 
L 113 3319 
L 525 3319 
L 525 4141 
L 1084 4478 
L 1084 3319 
L 1650 3319 
L 1650 2881 
L 1084 2881 
L 1084 941 
Q 1084 700 1114 631 
Q 1144 563 1211 522 
Q 1278 481 1403 481 
Q 1497 481 1650 503 
z
" id="ArialMT-74" transform="scale(0.015625)"/>
       <path d="M 2588 409 
Q 2275 144 1986 34 
Q 1697 -75 1366 -75 
Q 819 -75 525 192 
Q 231 459 231 875 
Q 231 1119 342 1320 
Q 453 1522 633 1644 
Q 813 1766 1038 1828 
Q 1203 1872 1538 1913 
Q 2219 1994 2541 2106 
Q 2544 2222 2544 2253 
Q 2544 2597 2384 2738 
Q 2169 2928 1744 2928 
Q 1347 2928 1158 2789 
Q 969 2650 878 2297 
L 328 2372 
Q 403 2725 575 2942 
Q 747 3159 1072 3276 
Q 1397 3394 1825 3394 
Q 2250 3394 2515 3294 
Q 2781 3194 2906 3042 
Q 3031 2891 3081 2659 
Q 3109 2516 3109 2141 
L 3109 1391 
Q 3109 606 3145 398 
Q 3181 191 3288 0 
L 2700 0 
Q 2613 175 2588 409 
z
M 2541 1666 
Q 2234 1541 1622 1453 
Q 1275 1403 1131 1340 
Q 988 1278 909 1158 
Q 831 1038 831 891 
Q 831 666 1001 516 
Q 1172 366 1500 366 
Q 1825 366 2078 508 
Q 2331 650 2450 897 
Q 2541 1088 2541 1459 
L 2541 1666 
z
" id="ArialMT-61" transform="scale(0.015625)"/>
       <path d="M 425 3934 
L 425 4581 
L 988 4581 
L 988 3934 
L 425 3934 
z
M 425 0 
L 425 3319 
L 988 3319 
L 988 0 
L 425 0 
z
" id="ArialMT-69" transform="scale(0.015625)"/>
       <path d="M 422 0 
L 422 3319 
L 928 3319 
L 928 2847 
Q 1294 3394 1984 3394 
Q 2284 3394 2536 3286 
Q 2788 3178 2913 3003 
Q 3038 2828 3088 2588 
Q 3119 2431 3119 2041 
L 3119 0 
L 2556 0 
L 2556 2019 
Q 2556 2363 2490 2533 
Q 2425 2703 2258 2804 
Q 2091 2906 1866 2906 
Q 1506 2906 1245 2678 
Q 984 2450 984 1813 
L 984 0 
L 422 0 
z
" id="ArialMT-6e" transform="scale(0.015625)"/>
      </defs>
      <use xlink:href="#ArialMT-72"/>
      <use x="33.300781" xlink:href="#ArialMT-6d"/>
      <use x="116.601562" xlink:href="#ArialMT-73"/>
      <use x="166.601562" xlink:href="#ArialMT-65"/>
      <use x="222.216797" xlink:href="#ArialMT-5f"/>
      <use x="277.832031" xlink:href="#ArialMT-74"/>
      <use x="305.615234" xlink:href="#ArialMT-72"/>
      <use x="338.916016" xlink:href="#ArialMT-61"/>
      <use x="394.53125" xlink:href="#ArialMT-69"/>
      <use x="416.748047" xlink:href="#ArialMT-6e"/>
     </g>
    </g>
    <g id="line2d_19">
     <path d="M 477.943906 66.161563 
L 499.943906 66.161563 
" style="fill:none;stroke:#dd8452;stroke-linecap:round;stroke-width:1.5;"/>
    </g>
    <g id="line2d_20"/>
    <g id="text_18">
     <!-- rmse_val -->
     <g style="fill:#262626;" transform="translate(508.743906 70.011563)scale(0.11 -0.11)">
      <defs>
       <path d="M 1344 0 
L 81 3319 
L 675 3319 
L 1388 1331 
Q 1503 1009 1600 663 
Q 1675 925 1809 1294 
L 2547 3319 
L 3125 3319 
L 1869 0 
L 1344 0 
z
" id="ArialMT-76" transform="scale(0.015625)"/>
       <path d="M 409 0 
L 409 4581 
L 972 4581 
L 972 0 
L 409 0 
z
" id="ArialMT-6c" transform="scale(0.015625)"/>
      </defs>
      <use xlink:href="#ArialMT-72"/>
      <use x="33.300781" xlink:href="#ArialMT-6d"/>
      <use x="116.601562" xlink:href="#ArialMT-73"/>
      <use x="166.601562" xlink:href="#ArialMT-65"/>
      <use x="222.216797" xlink:href="#ArialMT-5f"/>
      <use x="277.832031" xlink:href="#ArialMT-76"/>
      <use x="327.832031" xlink:href="#ArialMT-61"/>
      <use x="383.447266" xlink:href="#ArialMT-6c"/>
     </g>
    </g>
   </g>
  </g>
  <g id="axes_2">
   <g id="patch_8">
    <path d="M 638.65 541.539063 
L 1141.2 541.539063 
L 1141.2 36.678125 
L 638.65 36.678125 
z
" style="fill:#eaeaf2;"/>
   </g>
   <g id="matplotlib.axis_3">
    <g id="xtick_9">
     <g id="line2d_21">
      <path clip-path="url(#p5099ce8c5f)" d="M 661.493182 541.539063 
L 661.493182 36.678125 
" style="fill:none;stroke:#ffffff;stroke-linecap:round;"/>
     </g>
     <g id="text_19">
      <!-- 0 -->
      <g style="fill:#262626;" transform="translate(658.434666 558.912656)scale(0.11 -0.11)">
       <use xlink:href="#ArialMT-30"/>
      </g>
     </g>
    </g>
    <g id="xtick_10">
     <g id="line2d_22">
      <path clip-path="url(#p5099ce8c5f)" d="M 734.591364 541.539063 
L 734.591364 36.678125 
" style="fill:none;stroke:#ffffff;stroke-linecap:round;"/>
     </g>
     <g id="text_20">
      <!-- 20 -->
      <g style="fill:#262626;" transform="translate(728.474332 558.912656)scale(0.11 -0.11)">
       <use xlink:href="#ArialMT-32"/>
       <use x="55.615234" xlink:href="#ArialMT-30"/>
      </g>
     </g>
    </g>
    <g id="xtick_11">
     <g id="line2d_23">
      <path clip-path="url(#p5099ce8c5f)" d="M 807.689545 541.539063 
L 807.689545 36.678125 
" style="fill:none;stroke:#ffffff;stroke-linecap:round;"/>
     </g>
     <g id="text_21">
      <!-- 40 -->
      <g style="fill:#262626;" transform="translate(801.572514 558.912656)scale(0.11 -0.11)">
       <use xlink:href="#ArialMT-34"/>
       <use x="55.615234" xlink:href="#ArialMT-30"/>
      </g>
     </g>
    </g>
    <g id="xtick_12">
     <g id="line2d_24">
      <path clip-path="url(#p5099ce8c5f)" d="M 880.787727 541.539063 
L 880.787727 36.678125 
" style="fill:none;stroke:#ffffff;stroke-linecap:round;"/>
     </g>
     <g id="text_22">
      <!-- 60 -->
      <g style="fill:#262626;" transform="translate(874.670696 558.912656)scale(0.11 -0.11)">
       <use xlink:href="#ArialMT-36"/>
       <use x="55.615234" xlink:href="#ArialMT-30"/>
      </g>
     </g>
    </g>
    <g id="xtick_13">
     <g id="line2d_25">
      <path clip-path="url(#p5099ce8c5f)" d="M 953.885909 541.539063 
L 953.885909 36.678125 
" style="fill:none;stroke:#ffffff;stroke-linecap:round;"/>
     </g>
     <g id="text_23">
      <!-- 80 -->
      <g style="fill:#262626;" transform="translate(947.768878 558.912656)scale(0.11 -0.11)">
       <use xlink:href="#ArialMT-38"/>
       <use x="55.615234" xlink:href="#ArialMT-30"/>
      </g>
     </g>
    </g>
    <g id="xtick_14">
     <g id="line2d_26">
      <path clip-path="url(#p5099ce8c5f)" d="M 1026.984091 541.539063 
L 1026.984091 36.678125 
" style="fill:none;stroke:#ffffff;stroke-linecap:round;"/>
     </g>
     <g id="text_24">
      <!-- 100 -->
      <g style="fill:#262626;" transform="translate(1017.808544 558.912656)scale(0.11 -0.11)">
       <use xlink:href="#ArialMT-31"/>
       <use x="55.615234" xlink:href="#ArialMT-30"/>
       <use x="111.230469" xlink:href="#ArialMT-30"/>
      </g>
     </g>
    </g>
    <g id="xtick_15">
     <g id="line2d_27">
      <path clip-path="url(#p5099ce8c5f)" d="M 1100.082273 541.539063 
L 1100.082273 36.678125 
" style="fill:none;stroke:#ffffff;stroke-linecap:round;"/>
     </g>
     <g id="text_25">
      <!-- 120 -->
      <g style="fill:#262626;" transform="translate(1090.906726 558.912656)scale(0.11 -0.11)">
       <use xlink:href="#ArialMT-31"/>
       <use x="55.615234" xlink:href="#ArialMT-32"/>
       <use x="111.230469" xlink:href="#ArialMT-30"/>
      </g>
     </g>
    </g>
    <g id="text_26">
     <!-- Number of Trees -->
     <g style="fill:#262626;" transform="translate(845.24375 573.688281)scale(0.12 -0.12)">
      <use xlink:href="#ArialMT-4e"/>
      <use x="72.216797" xlink:href="#ArialMT-75"/>
      <use x="127.832031" xlink:href="#ArialMT-6d"/>
      <use x="211.132812" xlink:href="#ArialMT-62"/>
      <use x="266.748047" xlink:href="#ArialMT-65"/>
      <use x="322.363281" xlink:href="#ArialMT-72"/>
      <use x="355.664062" xlink:href="#ArialMT-20"/>
      <use x="383.447266" xlink:href="#ArialMT-6f"/>
      <use x="439.0625" xlink:href="#ArialMT-66"/>
      <use x="466.845703" xlink:href="#ArialMT-20"/>
      <use x="492.878906" xlink:href="#ArialMT-54"/>
      <use x="550.212891" xlink:href="#ArialMT-72"/>
      <use x="583.513672" xlink:href="#ArialMT-65"/>
      <use x="639.128906" xlink:href="#ArialMT-65"/>
      <use x="694.744141" xlink:href="#ArialMT-73"/>
     </g>
    </g>
   </g>
   <g id="matplotlib.axis_4">
    <g id="ytick_7">
     <g id="line2d_28">
      <path clip-path="url(#p5099ce8c5f)" d="M 638.65 519.196232 
L 1141.2 519.196232 
" style="fill:none;stroke:#ffffff;stroke-linecap:round;"/>
     </g>
     <g id="text_27">
      <!-- 0.0 -->
      <g style="fill:#262626;" transform="translate(613.86 523.133029)scale(0.11 -0.11)">
       <use xlink:href="#ArialMT-30"/>
       <use x="55.615234" xlink:href="#ArialMT-2e"/>
       <use x="83.398438" xlink:href="#ArialMT-30"/>
      </g>
     </g>
    </g>
    <g id="ytick_8">
     <g id="line2d_29">
      <path clip-path="url(#p5099ce8c5f)" d="M 638.65 436.037686 
L 1141.2 436.037686 
" style="fill:none;stroke:#ffffff;stroke-linecap:round;"/>
     </g>
     <g id="text_28">
      <!-- 0.1 -->
      <g style="fill:#262626;" transform="translate(613.86 439.974483)scale(0.11 -0.11)">
       <use xlink:href="#ArialMT-30"/>
       <use x="55.615234" xlink:href="#ArialMT-2e"/>
       <use x="83.398438" xlink:href="#ArialMT-31"/>
      </g>
     </g>
    </g>
    <g id="ytick_9">
     <g id="line2d_30">
      <path clip-path="url(#p5099ce8c5f)" d="M 638.65 352.87914 
L 1141.2 352.87914 
" style="fill:none;stroke:#ffffff;stroke-linecap:round;"/>
     </g>
     <g id="text_29">
      <!-- 0.2 -->
      <g style="fill:#262626;" transform="translate(613.86 356.815937)scale(0.11 -0.11)">
       <use xlink:href="#ArialMT-30"/>
       <use x="55.615234" xlink:href="#ArialMT-2e"/>
       <use x="83.398438" xlink:href="#ArialMT-32"/>
      </g>
     </g>
    </g>
    <g id="ytick_10">
     <g id="line2d_31">
      <path clip-path="url(#p5099ce8c5f)" d="M 638.65 269.720595 
L 1141.2 269.720595 
" style="fill:none;stroke:#ffffff;stroke-linecap:round;"/>
     </g>
     <g id="text_30">
      <!-- 0.3 -->
      <g style="fill:#262626;" transform="translate(613.86 273.657391)scale(0.11 -0.11)">
       <defs>
        <path d="M 269 1209 
L 831 1284 
Q 928 806 1161 595 
Q 1394 384 1728 384 
Q 2125 384 2398 659 
Q 2672 934 2672 1341 
Q 2672 1728 2419 1979 
Q 2166 2231 1775 2231 
Q 1616 2231 1378 2169 
L 1441 2663 
Q 1497 2656 1531 2656 
Q 1891 2656 2178 2843 
Q 2466 3031 2466 3422 
Q 2466 3731 2256 3934 
Q 2047 4138 1716 4138 
Q 1388 4138 1169 3931 
Q 950 3725 888 3313 
L 325 3413 
Q 428 3978 793 4289 
Q 1159 4600 1703 4600 
Q 2078 4600 2393 4439 
Q 2709 4278 2876 4000 
Q 3044 3722 3044 3409 
Q 3044 3113 2884 2869 
Q 2725 2625 2413 2481 
Q 2819 2388 3044 2092 
Q 3269 1797 3269 1353 
Q 3269 753 2831 336 
Q 2394 -81 1725 -81 
Q 1122 -81 723 278 
Q 325 638 269 1209 
z
" id="ArialMT-33" transform="scale(0.015625)"/>
       </defs>
       <use xlink:href="#ArialMT-30"/>
       <use x="55.615234" xlink:href="#ArialMT-2e"/>
       <use x="83.398438" xlink:href="#ArialMT-33"/>
      </g>
     </g>
    </g>
    <g id="ytick_11">
     <g id="line2d_32">
      <path clip-path="url(#p5099ce8c5f)" d="M 638.65 186.562049 
L 1141.2 186.562049 
" style="fill:none;stroke:#ffffff;stroke-linecap:round;"/>
     </g>
     <g id="text_31">
      <!-- 0.4 -->
      <g style="fill:#262626;" transform="translate(613.86 190.498846)scale(0.11 -0.11)">
       <use xlink:href="#ArialMT-30"/>
       <use x="55.615234" xlink:href="#ArialMT-2e"/>
       <use x="83.398438" xlink:href="#ArialMT-34"/>
      </g>
     </g>
    </g>
    <g id="ytick_12">
     <g id="line2d_33">
      <path clip-path="url(#p5099ce8c5f)" d="M 638.65 103.403503 
L 1141.2 103.403503 
" style="fill:none;stroke:#ffffff;stroke-linecap:round;"/>
     </g>
     <g id="text_32">
      <!-- 0.5 -->
      <g style="fill:#262626;" transform="translate(613.86 107.3403)scale(0.11 -0.11)">
       <defs>
        <path d="M 266 1200 
L 856 1250 
Q 922 819 1161 601 
Q 1400 384 1738 384 
Q 2144 384 2425 690 
Q 2706 997 2706 1503 
Q 2706 1984 2436 2262 
Q 2166 2541 1728 2541 
Q 1456 2541 1237 2417 
Q 1019 2294 894 2097 
L 366 2166 
L 809 4519 
L 3088 4519 
L 3088 3981 
L 1259 3981 
L 1013 2750 
Q 1425 3038 1878 3038 
Q 2478 3038 2890 2622 
Q 3303 2206 3303 1553 
Q 3303 931 2941 478 
Q 2500 -78 1738 -78 
Q 1113 -78 717 272 
Q 322 622 266 1200 
z
" id="ArialMT-35" transform="scale(0.015625)"/>
       </defs>
       <use xlink:href="#ArialMT-30"/>
       <use x="55.615234" xlink:href="#ArialMT-2e"/>
       <use x="83.398438" xlink:href="#ArialMT-35"/>
      </g>
     </g>
    </g>
    <g id="text_33">
     <!-- rmse -->
     <g style="fill:#262626;" transform="translate(607.475 302.440781)rotate(-90)scale(0.12 -0.12)">
      <use xlink:href="#ArialMT-72"/>
      <use x="33.300781" xlink:href="#ArialMT-6d"/>
      <use x="116.601562" xlink:href="#ArialMT-73"/>
      <use x="166.601562" xlink:href="#ArialMT-65"/>
     </g>
    </g>
   </g>
   <g id="line2d_34">
    <path clip-path="url(#p5099ce8c5f)" d="M 661.493182 59.626349 
L 665.148091 104.919483 
L 668.803 145.68796 
L 672.457909 182.399132 
L 676.112818 215.42638 
L 679.767727 245.167202 
L 683.422636 271.945086 
L 687.077545 296.073538 
L 690.732455 317.800371 
L 694.387364 337.383377 
L 698.042273 354.99802 
L 701.697182 370.865502 
L 705.352091 385.187067 
L 709.007 398.063336 
L 712.661909 409.679754 
L 716.316818 420.130288 
L 719.971727 429.554646 
L 723.626636 438.045134 
L 727.281545 445.71152 
L 730.936455 452.621995 
L 734.591364 458.818138 
L 738.246273 464.418035 
L 741.901182 469.461601 
L 745.556091 474.022015 
L 749.211 478.134205 
L 752.865909 481.834761 
L 756.520818 485.17025 
L 760.175727 488.169779 
L 763.830636 490.883242 
L 767.485545 493.323945 
L 771.140455 495.532636 
L 774.795364 497.519294 
L 778.450273 499.320508 
L 782.105182 500.949584 
L 785.760091 502.42648 
L 789.415 503.772817 
L 793.069909 504.980279 
L 796.724818 506.071319 
L 800.379727 507.065064 
L 804.034636 507.97565 
L 807.689545 508.793098 
L 811.344455 509.53903 
L 814.999364 510.20513 
L 818.654273 510.818009 
L 822.309182 511.377666 
L 825.964091 511.879943 
L 829.619 512.33981 
L 833.273909 512.778887 
L 836.928818 513.167238 
L 840.583727 513.523988 
L 844.238636 513.85579 
L 847.893545 514.160982 
L 851.548455 514.44289 
L 855.203364 514.689871 
L 858.858273 514.935188 
L 862.513182 515.153895 
L 866.168091 515.357634 
L 869.823 515.548067 
L 873.477909 515.723531 
L 877.132818 515.889017 
L 880.787727 516.047018 
L 884.442636 516.197535 
L 888.097545 516.334747 
L 891.752455 516.460316 
L 895.407364 516.581728 
L 899.062273 516.69316 
L 902.717182 516.798771 
L 906.372091 516.89773 
L 910.027 516.990868 
L 913.681909 517.079847 
L 917.336818 517.163837 
L 920.991727 517.242006 
L 924.646636 517.317681 
L 928.301545 517.392523 
L 931.956455 517.461545 
L 935.611364 517.523914 
L 939.266273 517.586283 
L 942.921182 517.643662 
L 946.576091 517.696884 
L 950.231 517.748442 
L 953.885909 517.797506 
L 957.540818 517.846569 
L 961.195727 517.898127 
L 964.850636 517.939707 
L 968.505545 517.980454 
L 972.160455 518.018707 
L 975.815364 518.057792 
L 979.470273 518.096045 
L 983.125182 518.129308 
L 986.780091 518.164235 
L 990.435 518.195003 
L 994.089909 518.221614 
L 997.744818 518.249888 
L 1001.399727 518.275667 
L 1005.054636 518.300615 
L 1008.709545 518.324731 
L 1012.364455 518.348847 
L 1016.019364 518.36631 
L 1019.674273 518.387931 
L 1023.329182 518.405395 
L 1026.984091 518.420363 
L 1030.639 518.436995 
L 1034.293909 518.4503 
L 1037.948818 518.465269 
L 1041.603727 518.480237 
L 1045.258636 518.489385 
L 1048.913545 518.501027 
L 1052.568455 518.510174 
L 1056.223364 518.520985 
L 1059.878273 518.529301 
L 1063.533182 518.533459 
L 1067.188091 518.538448 
L 1070.843 518.544269 
L 1074.497909 518.549259 
L 1078.152818 518.552585 
L 1081.807727 518.558406 
L 1085.462636 518.561733 
L 1089.117545 518.570048 
L 1092.772455 518.57587 
L 1096.427364 518.580859 
L 1100.082273 518.584185 
L 1103.737182 518.585849 
L 1107.392091 518.585849 
L 1111.047 518.587512 
L 1114.701909 518.587512 
L 1118.356818 518.590838 
" style="fill:none;stroke:#4c72b0;stroke-linecap:round;stroke-width:1.5;"/>
   </g>
   <g id="line2d_35">
    <path clip-path="url(#p5099ce8c5f)" d="M 661.493182 64.396324 
L 665.148091 109.114832 
L 668.803 149.545685 
L 672.457909 185.795327 
L 676.112818 218.448362 
L 679.767727 247.823286 
L 683.422636 274.261051 
L 687.077545 297.987847 
L 690.732455 319.395352 
L 694.387364 338.66485 
L 698.042273 355.965986 
L 701.697182 371.492518 
L 705.352091 385.51388 
L 709.007 398.055021 
L 712.661909 409.347119 
L 716.316818 419.425104 
L 719.971727 428.435332 
L 723.626636 436.520838 
L 727.281545 443.774757 
L 730.936455 450.281914 
L 734.591364 456.043138 
L 738.246273 461.232231 
L 741.901182 465.857509 
L 745.556091 469.923131 
L 749.211 473.566307 
L 752.865909 476.7413 
L 756.520818 479.546238 
L 760.175727 481.998583 
L 763.830636 484.160705 
L 767.485545 486.028446 
L 771.140455 487.684964 
L 774.795364 489.078702 
L 778.450273 490.340217 
L 782.105182 491.429594 
L 785.760091 492.358475 
L 789.415 493.170102 
L 793.069909 493.875287 
L 796.724818 494.488997 
L 800.379727 495.016222 
L 804.034636 495.479415 
L 807.689545 495.850302 
L 811.344455 496.169631 
L 814.999364 496.467339 
L 818.654273 496.737604 
L 822.309182 496.930532 
L 825.964091 497.128449 
L 829.619 497.254018 
L 833.273909 497.39123 
L 836.928818 497.505989 
L 840.583727 497.597463 
L 844.238636 497.675632 
L 847.893545 497.751306 
L 851.548455 497.808686 
L 855.203364 497.866897 
L 858.858273 497.923445 
L 862.513182 497.961698 
L 866.168091 498.004108 
L 869.823 498.018245 
L 873.477909 498.051509 
L 877.132818 498.087267 
L 880.787727 498.100572 
L 884.442636 498.138825 
L 888.097545 498.170426 
L 891.752455 498.194542 
L 895.407364 498.211173 
L 899.062273 498.228637 
L 902.717182 498.239447 
L 906.372091 498.254416 
L 910.027 498.2619 
L 913.681909 498.276037 
L 917.336818 498.289342 
L 920.991727 498.301816 
L 924.646636 498.302648 
L 928.301545 498.312627 
L 931.956455 498.323437 
L 935.611364 498.336743 
L 939.266273 498.343395 
L 942.921182 498.344227 
L 946.576091 498.347553 
L 950.231 498.348385 
L 953.885909 498.35088 
L 957.540818 498.354206 
L 961.195727 498.355869 
L 964.850636 498.364185 
L 968.505545 498.371669 
L 972.160455 498.375827 
L 975.815364 498.375827 
L 979.470273 498.380817 
L 983.125182 498.384975 
L 986.780091 498.385806 
L 990.435 498.390796 
L 994.089909 498.392459 
L 997.744818 498.39329 
L 1001.399727 498.394122 
L 1005.054636 498.395785 
L 1008.709545 498.399112 
L 1012.364455 498.404933 
L 1016.019364 498.405764 
L 1019.674273 498.409091 
L 1023.329182 498.410754 
L 1026.984091 498.411585 
L 1030.639 498.413248 
L 1034.293909 498.413248 
L 1037.948818 498.417406 
L 1041.603727 498.41907 
L 1045.258636 498.419901 
L 1048.913545 498.422396 
L 1052.568455 498.424059 
L 1056.223364 498.424891 
L 1059.878273 498.424891 
L 1063.533182 498.426554 
L 1067.188091 498.426554 
L 1070.843 498.429049 
L 1074.497909 498.432375 
L 1078.152818 498.432375 
L 1081.807727 498.433207 
L 1085.462636 498.432375 
L 1089.117545 498.433207 
L 1092.772455 498.433207 
L 1096.427364 498.432375 
L 1100.082273 498.431543 
L 1103.737182 498.430712 
L 1107.392091 498.430712 
L 1111.047 498.430712 
L 1114.701909 498.430712 
L 1118.356818 498.429049 
" style="fill:none;stroke:#dd8452;stroke-linecap:round;stroke-width:1.5;"/>
   </g>
   <g id="patch_9">
    <path d="M 638.65 541.539063 
L 638.65 36.678125 
" style="fill:none;stroke:#ffffff;stroke-linecap:square;stroke-linejoin:miter;stroke-width:1.25;"/>
   </g>
   <g id="patch_10">
    <path d="M 1141.2 541.539063 
L 1141.2 36.678125 
" style="fill:none;stroke:#ffffff;stroke-linecap:square;stroke-linejoin:miter;stroke-width:1.25;"/>
   </g>
   <g id="patch_11">
    <path d="M 638.65 541.539063 
L 1141.2 541.539063 
" style="fill:none;stroke:#ffffff;stroke-linecap:square;stroke-linejoin:miter;stroke-width:1.25;"/>
   </g>
   <g id="patch_12">
    <path d="M 638.65 36.678125 
L 1141.2 36.678125 
" style="fill:none;stroke:#ffffff;stroke-linecap:square;stroke-linejoin:miter;stroke-width:1.25;"/>
   </g>
   <g id="legend_2">
    <g id="patch_13">
     <path d="M 1046.343906 76.597813 
L 1133.5 76.597813 
Q 1135.7 76.597813 1135.7 74.397813 
L 1135.7 44.378125 
Q 1135.7 42.178125 1133.5 42.178125 
L 1046.343906 42.178125 
Q 1044.143906 42.178125 1044.143906 44.378125 
L 1044.143906 74.397813 
Q 1044.143906 76.597813 1046.343906 76.597813 
z
" style="fill:#eaeaf2;opacity:0.8;stroke:#cccccc;stroke-linejoin:miter;"/>
    </g>
    <g id="line2d_36">
     <path d="M 1048.543906 50.601719 
L 1070.543906 50.601719 
" style="fill:none;stroke:#4c72b0;stroke-linecap:round;stroke-width:1.5;"/>
    </g>
    <g id="line2d_37"/>
    <g id="text_34">
     <!-- rmse_train -->
     <g style="fill:#262626;" transform="translate(1079.343906 54.451719)scale(0.11 -0.11)">
      <use xlink:href="#ArialMT-72"/>
      <use x="33.300781" xlink:href="#ArialMT-6d"/>
      <use x="116.601562" xlink:href="#ArialMT-73"/>
      <use x="166.601562" xlink:href="#ArialMT-65"/>
      <use x="222.216797" xlink:href="#ArialMT-5f"/>
      <use x="277.832031" xlink:href="#ArialMT-74"/>
      <use x="305.615234" xlink:href="#ArialMT-72"/>
      <use x="338.916016" xlink:href="#ArialMT-61"/>
      <use x="394.53125" xlink:href="#ArialMT-69"/>
      <use x="416.748047" xlink:href="#ArialMT-6e"/>
     </g>
    </g>
    <g id="line2d_38">
     <path d="M 1048.543906 66.161563 
L 1070.543906 66.161563 
" style="fill:none;stroke:#dd8452;stroke-linecap:round;stroke-width:1.5;"/>
    </g>
    <g id="line2d_39"/>
    <g id="text_35">
     <!-- rmse_val -->
     <g style="fill:#262626;" transform="translate(1079.343906 70.011563)scale(0.11 -0.11)">
      <use xlink:href="#ArialMT-72"/>
      <use x="33.300781" xlink:href="#ArialMT-6d"/>
      <use x="116.601562" xlink:href="#ArialMT-73"/>
      <use x="166.601562" xlink:href="#ArialMT-65"/>
      <use x="222.216797" xlink:href="#ArialMT-5f"/>
      <use x="277.832031" xlink:href="#ArialMT-76"/>
      <use x="327.832031" xlink:href="#ArialMT-61"/>
      <use x="383.447266" xlink:href="#ArialMT-6c"/>
     </g>
    </g>
   </g>
  </g>
  <g id="axes_3">
   <g id="patch_14">
    <path d="M 68.05 1107.7 
L 570.6 1107.7 
L 570.6 602.839063 
L 68.05 602.839063 
z
" style="fill:#eaeaf2;"/>
   </g>
   <g id="matplotlib.axis_5">
    <g id="xtick_16">
     <g id="line2d_40">
      <path clip-path="url(#p916dc9af1f)" d="M 68.05 1107.7 
L 68.05 602.839063 
" style="fill:none;stroke:#ffffff;stroke-linecap:round;"/>
     </g>
     <g id="text_36">
      <!-- 0 -->
      <g style="fill:#262626;" transform="translate(64.991484 1125.073594)scale(0.11 -0.11)">
       <use xlink:href="#ArialMT-30"/>
      </g>
     </g>
    </g>
    <g id="xtick_17">
     <g id="line2d_41">
      <path clip-path="url(#p916dc9af1f)" d="M 131.416154 1107.7 
L 131.416154 602.839063 
" style="fill:none;stroke:#ffffff;stroke-linecap:round;"/>
     </g>
     <g id="text_37">
      <!-- 20000 -->
      <g style="fill:#262626;" transform="translate(116.123576 1125.073594)scale(0.11 -0.11)">
       <use xlink:href="#ArialMT-32"/>
       <use x="55.615234" xlink:href="#ArialMT-30"/>
       <use x="111.230469" xlink:href="#ArialMT-30"/>
       <use x="166.845703" xlink:href="#ArialMT-30"/>
       <use x="222.460938" xlink:href="#ArialMT-30"/>
      </g>
     </g>
    </g>
    <g id="xtick_18">
     <g id="line2d_42">
      <path clip-path="url(#p916dc9af1f)" d="M 194.782309 1107.7 
L 194.782309 602.839063 
" style="fill:none;stroke:#ffffff;stroke-linecap:round;"/>
     </g>
     <g id="text_38">
      <!-- 40000 -->
      <g style="fill:#262626;" transform="translate(179.489731 1125.073594)scale(0.11 -0.11)">
       <use xlink:href="#ArialMT-34"/>
       <use x="55.615234" xlink:href="#ArialMT-30"/>
       <use x="111.230469" xlink:href="#ArialMT-30"/>
       <use x="166.845703" xlink:href="#ArialMT-30"/>
       <use x="222.460938" xlink:href="#ArialMT-30"/>
      </g>
     </g>
    </g>
    <g id="xtick_19">
     <g id="line2d_43">
      <path clip-path="url(#p916dc9af1f)" d="M 258.148463 1107.7 
L 258.148463 602.839063 
" style="fill:none;stroke:#ffffff;stroke-linecap:round;"/>
     </g>
     <g id="text_39">
      <!-- 60000 -->
      <g style="fill:#262626;" transform="translate(242.855885 1125.073594)scale(0.11 -0.11)">
       <use xlink:href="#ArialMT-36"/>
       <use x="55.615234" xlink:href="#ArialMT-30"/>
       <use x="111.230469" xlink:href="#ArialMT-30"/>
       <use x="166.845703" xlink:href="#ArialMT-30"/>
       <use x="222.460938" xlink:href="#ArialMT-30"/>
      </g>
     </g>
    </g>
    <g id="xtick_20">
     <g id="line2d_44">
      <path clip-path="url(#p916dc9af1f)" d="M 321.514617 1107.7 
L 321.514617 602.839063 
" style="fill:none;stroke:#ffffff;stroke-linecap:round;"/>
     </g>
     <g id="text_40">
      <!-- 80000 -->
      <g style="fill:#262626;" transform="translate(306.222039 1125.073594)scale(0.11 -0.11)">
       <use xlink:href="#ArialMT-38"/>
       <use x="55.615234" xlink:href="#ArialMT-30"/>
       <use x="111.230469" xlink:href="#ArialMT-30"/>
       <use x="166.845703" xlink:href="#ArialMT-30"/>
       <use x="222.460938" xlink:href="#ArialMT-30"/>
      </g>
     </g>
    </g>
    <g id="xtick_21">
     <g id="line2d_45">
      <path clip-path="url(#p916dc9af1f)" d="M 384.880772 1107.7 
L 384.880772 602.839063 
" style="fill:none;stroke:#ffffff;stroke-linecap:round;"/>
     </g>
     <g id="text_41">
      <!-- 100000 -->
      <g style="fill:#262626;" transform="translate(366.529678 1125.073594)scale(0.11 -0.11)">
       <use xlink:href="#ArialMT-31"/>
       <use x="55.615234" xlink:href="#ArialMT-30"/>
       <use x="111.230469" xlink:href="#ArialMT-30"/>
       <use x="166.845703" xlink:href="#ArialMT-30"/>
       <use x="222.460938" xlink:href="#ArialMT-30"/>
       <use x="278.076172" xlink:href="#ArialMT-30"/>
      </g>
     </g>
    </g>
    <g id="xtick_22">
     <g id="line2d_46">
      <path clip-path="url(#p916dc9af1f)" d="M 448.246926 1107.7 
L 448.246926 602.839063 
" style="fill:none;stroke:#ffffff;stroke-linecap:round;"/>
     </g>
     <g id="text_42">
      <!-- 120000 -->
      <g style="fill:#262626;" transform="translate(429.895832 1125.073594)scale(0.11 -0.11)">
       <use xlink:href="#ArialMT-31"/>
       <use x="55.615234" xlink:href="#ArialMT-32"/>
       <use x="111.230469" xlink:href="#ArialMT-30"/>
       <use x="166.845703" xlink:href="#ArialMT-30"/>
       <use x="222.460938" xlink:href="#ArialMT-30"/>
       <use x="278.076172" xlink:href="#ArialMT-30"/>
      </g>
     </g>
    </g>
    <g id="xtick_23">
     <g id="line2d_47">
      <path clip-path="url(#p916dc9af1f)" d="M 511.613081 1107.7 
L 511.613081 602.839063 
" style="fill:none;stroke:#ffffff;stroke-linecap:round;"/>
     </g>
     <g id="text_43">
      <!-- 140000 -->
      <g style="fill:#262626;" transform="translate(493.261987 1125.073594)scale(0.11 -0.11)">
       <use xlink:href="#ArialMT-31"/>
       <use x="55.615234" xlink:href="#ArialMT-34"/>
       <use x="111.230469" xlink:href="#ArialMT-30"/>
       <use x="166.845703" xlink:href="#ArialMT-30"/>
       <use x="222.460938" xlink:href="#ArialMT-30"/>
       <use x="278.076172" xlink:href="#ArialMT-30"/>
      </g>
     </g>
    </g>
    <g id="text_44">
     <!-- F score -->
     <g style="fill:#262626;" transform="translate(299.3225 1139.849219)scale(0.12 -0.12)">
      <defs>
       <path d="M 525 0 
L 525 4581 
L 3616 4581 
L 3616 4041 
L 1131 4041 
L 1131 2622 
L 3281 2622 
L 3281 2081 
L 1131 2081 
L 1131 0 
L 525 0 
z
" id="ArialMT-46" transform="scale(0.015625)"/>
       <path d="M 2588 1216 
L 3141 1144 
Q 3050 572 2676 248 
Q 2303 -75 1759 -75 
Q 1078 -75 664 370 
Q 250 816 250 1647 
Q 250 2184 428 2587 
Q 606 2991 970 3192 
Q 1334 3394 1763 3394 
Q 2303 3394 2647 3120 
Q 2991 2847 3088 2344 
L 2541 2259 
Q 2463 2594 2264 2762 
Q 2066 2931 1784 2931 
Q 1359 2931 1093 2626 
Q 828 2322 828 1663 
Q 828 994 1084 691 
Q 1341 388 1753 388 
Q 2084 388 2306 591 
Q 2528 794 2588 1216 
z
" id="ArialMT-63" transform="scale(0.015625)"/>
      </defs>
      <use xlink:href="#ArialMT-46"/>
      <use x="61.083984" xlink:href="#ArialMT-20"/>
      <use x="88.867188" xlink:href="#ArialMT-73"/>
      <use x="138.867188" xlink:href="#ArialMT-63"/>
      <use x="188.867188" xlink:href="#ArialMT-6f"/>
      <use x="244.482422" xlink:href="#ArialMT-72"/>
      <use x="277.783203" xlink:href="#ArialMT-65"/>
     </g>
    </g>
   </g>
   <g id="matplotlib.axis_6">
    <g id="ytick_13">
     <g id="line2d_48">
      <path clip-path="url(#p916dc9af1f)" d="M 68.05 1006.727813 
L 570.6 1006.727813 
" style="fill:none;stroke:#ffffff;stroke-linecap:round;"/>
     </g>
     <g id="text_45">
      <!-- energy -->
      <g style="fill:#262626;" transform="translate(24.919219 1010.600156)scale(0.11 -0.11)">
       <defs>
        <path d="M 319 -275 
L 866 -356 
Q 900 -609 1056 -725 
Q 1266 -881 1628 -881 
Q 2019 -881 2231 -725 
Q 2444 -569 2519 -288 
Q 2563 -116 2559 434 
Q 2191 0 1641 0 
Q 956 0 581 494 
Q 206 988 206 1678 
Q 206 2153 378 2554 
Q 550 2956 876 3175 
Q 1203 3394 1644 3394 
Q 2231 3394 2613 2919 
L 2613 3319 
L 3131 3319 
L 3131 450 
Q 3131 -325 2973 -648 
Q 2816 -972 2473 -1159 
Q 2131 -1347 1631 -1347 
Q 1038 -1347 672 -1080 
Q 306 -813 319 -275 
z
M 784 1719 
Q 784 1066 1043 766 
Q 1303 466 1694 466 
Q 2081 466 2343 764 
Q 2606 1063 2606 1700 
Q 2606 2309 2336 2618 
Q 2066 2928 1684 2928 
Q 1309 2928 1046 2623 
Q 784 2319 784 1719 
z
" id="ArialMT-67" transform="scale(0.015625)"/>
        <path d="M 397 -1278 
L 334 -750 
Q 519 -800 656 -800 
Q 844 -800 956 -737 
Q 1069 -675 1141 -563 
Q 1194 -478 1313 -144 
Q 1328 -97 1363 -6 
L 103 3319 
L 709 3319 
L 1400 1397 
Q 1534 1031 1641 628 
Q 1738 1016 1872 1384 
L 2581 3319 
L 3144 3319 
L 1881 -56 
Q 1678 -603 1566 -809 
Q 1416 -1088 1222 -1217 
Q 1028 -1347 759 -1347 
Q 597 -1347 397 -1278 
z
" id="ArialMT-79" transform="scale(0.015625)"/>
       </defs>
       <use xlink:href="#ArialMT-65"/>
       <use x="55.615234" xlink:href="#ArialMT-6e"/>
       <use x="111.230469" xlink:href="#ArialMT-65"/>
       <use x="166.845703" xlink:href="#ArialMT-72"/>
       <use x="200.146484" xlink:href="#ArialMT-67"/>
       <use x="255.761719" xlink:href="#ArialMT-79"/>
      </g>
     </g>
    </g>
    <g id="ytick_14">
     <g id="line2d_49">
      <path clip-path="url(#p916dc9af1f)" d="M 68.05 905.755625 
L 570.6 905.755625 
" style="fill:none;stroke:#ffffff;stroke-linecap:round;"/>
     </g>
     <g id="text_46">
      <!-- v0 -->
      <g style="fill:#262626;" transform="translate(46.932969 909.692422)scale(0.11 -0.11)">
       <use xlink:href="#ArialMT-76"/>
       <use x="50" xlink:href="#ArialMT-30"/>
      </g>
     </g>
    </g>
    <g id="ytick_15">
     <g id="line2d_50">
      <path clip-path="url(#p916dc9af1f)" d="M 68.05 804.783437 
L 570.6 804.783437 
" style="fill:none;stroke:#ffffff;stroke-linecap:round;"/>
     </g>
     <g id="text_47">
      <!-- x0 -->
      <g style="fill:#262626;" transform="translate(46.932969 808.720234)scale(0.11 -0.11)">
       <defs>
        <path d="M 47 0 
L 1259 1725 
L 138 3319 
L 841 3319 
L 1350 2541 
Q 1494 2319 1581 2169 
Q 1719 2375 1834 2534 
L 2394 3319 
L 3066 3319 
L 1919 1756 
L 3153 0 
L 2463 0 
L 1781 1031 
L 1600 1309 
L 728 0 
L 47 0 
z
" id="ArialMT-78" transform="scale(0.015625)"/>
       </defs>
       <use xlink:href="#ArialMT-78"/>
       <use x="50" xlink:href="#ArialMT-30"/>
      </g>
     </g>
    </g>
    <g id="ytick_16">
     <g id="line2d_51">
      <path clip-path="url(#p916dc9af1f)" d="M 68.05 703.81125 
L 570.6 703.81125 
" style="fill:none;stroke:#ffffff;stroke-linecap:round;"/>
     </g>
     <g id="text_48">
      <!-- t -->
      <g style="fill:#262626;" transform="translate(55.494063 707.748047)scale(0.11 -0.11)">
       <use xlink:href="#ArialMT-74"/>
      </g>
     </g>
    </g>
    <g id="text_49">
     <!-- Features -->
     <g style="fill:#262626;" transform="translate(18.534219 878.945156)rotate(-90)scale(0.12 -0.12)">
      <use xlink:href="#ArialMT-46"/>
      <use x="61.083984" xlink:href="#ArialMT-65"/>
      <use x="116.699219" xlink:href="#ArialMT-61"/>
      <use x="172.314453" xlink:href="#ArialMT-74"/>
      <use x="200.097656" xlink:href="#ArialMT-75"/>
      <use x="255.712891" xlink:href="#ArialMT-72"/>
      <use x="289.013672" xlink:href="#ArialMT-65"/>
      <use x="344.628906" xlink:href="#ArialMT-73"/>
     </g>
    </g>
   </g>
   <g id="patch_15">
    <path clip-path="url(#p916dc9af1f)" d="M 68.05 1016.825031 
L 130.836354 1016.825031 
L 130.836354 996.630594 
L 68.05 996.630594 
z
" style="fill:#4c72b0;stroke:#ffffff;stroke-linejoin:miter;"/>
   </g>
   <g id="patch_16">
    <path clip-path="url(#p916dc9af1f)" d="M 68.05 915.852844 
L 209.210782 915.852844 
L 209.210782 895.658406 
L 68.05 895.658406 
z
" style="fill:#4c72b0;stroke:#ffffff;stroke-linejoin:miter;"/>
   </g>
   <g id="patch_17">
    <path clip-path="url(#p916dc9af1f)" d="M 68.05 814.880656 
L 323.70075 814.880656 
L 323.70075 794.686219 
L 68.05 794.686219 
z
" style="fill:#4c72b0;stroke:#ffffff;stroke-linejoin:miter;"/>
   </g>
   <g id="patch_18">
    <path clip-path="url(#p916dc9af1f)" d="M 68.05 713.908469 
L 524.913636 713.908469 
L 524.913636 693.714031 
L 68.05 693.714031 
z
" style="fill:#4c72b0;stroke:#ffffff;stroke-linejoin:miter;"/>
   </g>
   <g id="patch_19">
    <path d="M 68.05 1107.7 
L 68.05 602.839062 
" style="fill:none;stroke:#ffffff;stroke-linecap:square;stroke-linejoin:miter;stroke-width:1.25;"/>
   </g>
   <g id="patch_20">
    <path d="M 570.6 1107.7 
L 570.6 602.839062 
" style="fill:none;stroke:#ffffff;stroke-linecap:square;stroke-linejoin:miter;stroke-width:1.25;"/>
   </g>
   <g id="patch_21">
    <path d="M 68.05 1107.7 
L 570.6 1107.7 
" style="fill:none;stroke:#ffffff;stroke-linecap:square;stroke-linejoin:miter;stroke-width:1.25;"/>
   </g>
   <g id="patch_22">
    <path d="M 68.05 602.839063 
L 570.6 602.839063 
" style="fill:none;stroke:#ffffff;stroke-linecap:square;stroke-linejoin:miter;stroke-width:1.25;"/>
   </g>
   <g id="text_50">
    <!-- 19817 -->
    <g style="fill:#262626;" transform="translate(130.839522 1009.312969)scale(0.1 -0.1)">
     <defs>
      <path d="M 350 1059 
L 891 1109 
Q 959 728 1153 556 
Q 1347 384 1650 384 
Q 1909 384 2104 503 
Q 2300 622 2425 820 
Q 2550 1019 2634 1356 
Q 2719 1694 2719 2044 
Q 2719 2081 2716 2156 
Q 2547 1888 2255 1720 
Q 1963 1553 1622 1553 
Q 1053 1553 659 1965 
Q 266 2378 266 3053 
Q 266 3750 677 4175 
Q 1088 4600 1706 4600 
Q 2153 4600 2523 4359 
Q 2894 4119 3086 3673 
Q 3278 3228 3278 2384 
Q 3278 1506 3087 986 
Q 2897 466 2520 194 
Q 2144 -78 1638 -78 
Q 1100 -78 759 220 
Q 419 519 350 1059 
z
M 2653 3081 
Q 2653 3566 2395 3850 
Q 2138 4134 1775 4134 
Q 1400 4134 1122 3828 
Q 844 3522 844 3034 
Q 844 2597 1108 2323 
Q 1372 2050 1759 2050 
Q 2150 2050 2401 2323 
Q 2653 2597 2653 3081 
z
" id="ArialMT-39" transform="scale(0.015625)"/>
      <path d="M 303 3981 
L 303 4522 
L 3269 4522 
L 3269 4084 
Q 2831 3619 2401 2847 
Q 1972 2075 1738 1259 
Q 1569 684 1522 0 
L 944 0 
Q 953 541 1156 1306 
Q 1359 2072 1739 2783 
Q 2119 3494 2547 3981 
L 303 3981 
z
" id="ArialMT-37" transform="scale(0.015625)"/>
     </defs>
     <use xlink:href="#ArialMT-31"/>
     <use x="55.615234" xlink:href="#ArialMT-39"/>
     <use x="111.230469" xlink:href="#ArialMT-38"/>
     <use x="166.845703" xlink:href="#ArialMT-31"/>
     <use x="222.460938" xlink:href="#ArialMT-37"/>
    </g>
   </g>
   <g id="text_51">
    <!-- 44554 -->
    <g style="fill:#262626;" transform="translate(209.21395 908.340781)scale(0.1 -0.1)">
     <use xlink:href="#ArialMT-34"/>
     <use x="55.615234" xlink:href="#ArialMT-34"/>
     <use x="111.230469" xlink:href="#ArialMT-35"/>
     <use x="166.845703" xlink:href="#ArialMT-35"/>
     <use x="222.460938" xlink:href="#ArialMT-34"/>
    </g>
   </g>
   <g id="text_52">
    <!-- 80690 -->
    <g style="fill:#262626;" transform="translate(323.703918 807.368594)scale(0.1 -0.1)">
     <use xlink:href="#ArialMT-38"/>
     <use x="55.615234" xlink:href="#ArialMT-30"/>
     <use x="111.230469" xlink:href="#ArialMT-36"/>
     <use x="166.845703" xlink:href="#ArialMT-39"/>
     <use x="222.460938" xlink:href="#ArialMT-30"/>
    </g>
   </g>
   <g id="text_53">
    <!-- 144198 -->
    <g style="fill:#262626;" transform="translate(524.916805 706.396406)scale(0.1 -0.1)">
     <use xlink:href="#ArialMT-31"/>
     <use x="55.615234" xlink:href="#ArialMT-34"/>
     <use x="111.230469" xlink:href="#ArialMT-34"/>
     <use x="166.845703" xlink:href="#ArialMT-31"/>
     <use x="222.460938" xlink:href="#ArialMT-39"/>
     <use x="278.076172" xlink:href="#ArialMT-38"/>
    </g>
   </g>
   <g id="text_54">
    <!-- Contributions to $x_t$ -->
    <g style="fill:#262626;" transform="translate(270.245 596.839063)scale(0.12 -0.12)">
     <defs>
      <path d="M 3763 1606 
L 4369 1453 
Q 4178 706 3683 314 
Q 3188 -78 2472 -78 
Q 1731 -78 1267 223 
Q 803 525 561 1097 
Q 319 1669 319 2325 
Q 319 3041 592 3573 
Q 866 4106 1370 4382 
Q 1875 4659 2481 4659 
Q 3169 4659 3637 4309 
Q 4106 3959 4291 3325 
L 3694 3184 
Q 3534 3684 3231 3912 
Q 2928 4141 2469 4141 
Q 1941 4141 1586 3887 
Q 1231 3634 1087 3207 
Q 944 2781 944 2328 
Q 944 1744 1114 1308 
Q 1284 872 1643 656 
Q 2003 441 2422 441 
Q 2931 441 3284 734 
Q 3638 1028 3763 1606 
z
" id="ArialMT-43" transform="scale(0.015625)"/>
      <path d="M 3841 3500 
L 2234 1784 
L 3219 0 
L 2559 0 
L 1819 1388 
L 531 0 
L -166 0 
L 1556 1844 
L 641 3500 
L 1300 3500 
L 1972 2234 
L 3144 3500 
L 3841 3500 
z
" id="DejaVuSans-Oblique-78" transform="scale(0.015625)"/>
      <path d="M 2706 3500 
L 2619 3053 
L 1472 3053 
L 1100 1153 
Q 1081 1047 1072 975 
Q 1063 903 1063 863 
Q 1063 663 1183 572 
Q 1303 481 1569 481 
L 2150 481 
L 2053 0 
L 1503 0 
Q 991 0 739 200 
Q 488 400 488 806 
Q 488 878 497 964 
Q 506 1050 525 1153 
L 897 3053 
L 409 3053 
L 500 3500 
L 978 3500 
L 1172 4494 
L 1747 4494 
L 1556 3500 
L 2706 3500 
z
" id="DejaVuSans-Oblique-74" transform="scale(0.015625)"/>
     </defs>
     <use transform="translate(0 0.203125)" xlink:href="#ArialMT-43"/>
     <use transform="translate(72.216797 0.203125)" xlink:href="#ArialMT-6f"/>
     <use transform="translate(127.832031 0.203125)" xlink:href="#ArialMT-6e"/>
     <use transform="translate(183.447266 0.203125)" xlink:href="#ArialMT-74"/>
     <use transform="translate(211.230469 0.203125)" xlink:href="#ArialMT-72"/>
     <use transform="translate(244.53125 0.203125)" xlink:href="#ArialMT-69"/>
     <use transform="translate(266.748047 0.203125)" xlink:href="#ArialMT-62"/>
     <use transform="translate(322.363281 0.203125)" xlink:href="#ArialMT-75"/>
     <use transform="translate(377.978516 0.203125)" xlink:href="#ArialMT-74"/>
     <use transform="translate(405.761719 0.203125)" xlink:href="#ArialMT-69"/>
     <use transform="translate(427.978516 0.203125)" xlink:href="#ArialMT-6f"/>
     <use transform="translate(483.59375 0.203125)" xlink:href="#ArialMT-6e"/>
     <use transform="translate(539.208984 0.203125)" xlink:href="#ArialMT-73"/>
     <use transform="translate(589.208984 0.203125)" xlink:href="#ArialMT-20"/>
     <use transform="translate(616.992188 0.203125)" xlink:href="#ArialMT-74"/>
     <use transform="translate(644.775391 0.203125)" xlink:href="#ArialMT-6f"/>
     <use transform="translate(700.390625 0.203125)" xlink:href="#ArialMT-20"/>
     <use transform="translate(728.173828 0.203125)" xlink:href="#DejaVuSans-Oblique-78"/>
     <use transform="translate(787.353516 -16.203125)scale(0.7)" xlink:href="#DejaVuSans-Oblique-74"/>
    </g>
   </g>
  </g>
  <g id="axes_4">
   <g id="patch_23">
    <path d="M 638.65 1107.7 
L 1141.2 1107.7 
L 1141.2 602.839063 
L 638.65 602.839063 
z
" style="fill:#eaeaf2;"/>
   </g>
   <g id="matplotlib.axis_7">
    <g id="xtick_24">
     <g id="line2d_52">
      <path clip-path="url(#p51b0b1274a)" d="M 638.65 1107.7 
L 638.65 602.839063 
" style="fill:none;stroke:#ffffff;stroke-linecap:round;"/>
     </g>
     <g id="text_55">
      <!-- 0 -->
      <g style="fill:#262626;" transform="translate(635.591484 1125.073594)scale(0.11 -0.11)">
       <use xlink:href="#ArialMT-30"/>
      </g>
     </g>
    </g>
    <g id="xtick_25">
     <g id="line2d_53">
      <path clip-path="url(#p51b0b1274a)" d="M 729.683174 1107.7 
L 729.683174 602.839063 
" style="fill:none;stroke:#ffffff;stroke-linecap:round;"/>
     </g>
     <g id="text_56">
      <!-- 20000 -->
      <g style="fill:#262626;" transform="translate(714.390595 1125.073594)scale(0.11 -0.11)">
       <use xlink:href="#ArialMT-32"/>
       <use x="55.615234" xlink:href="#ArialMT-30"/>
       <use x="111.230469" xlink:href="#ArialMT-30"/>
       <use x="166.845703" xlink:href="#ArialMT-30"/>
       <use x="222.460938" xlink:href="#ArialMT-30"/>
      </g>
     </g>
    </g>
    <g id="xtick_26">
     <g id="line2d_54">
      <path clip-path="url(#p51b0b1274a)" d="M 820.716347 1107.7 
L 820.716347 602.839063 
" style="fill:none;stroke:#ffffff;stroke-linecap:round;"/>
     </g>
     <g id="text_57">
      <!-- 40000 -->
      <g style="fill:#262626;" transform="translate(805.423769 1125.073594)scale(0.11 -0.11)">
       <use xlink:href="#ArialMT-34"/>
       <use x="55.615234" xlink:href="#ArialMT-30"/>
       <use x="111.230469" xlink:href="#ArialMT-30"/>
       <use x="166.845703" xlink:href="#ArialMT-30"/>
       <use x="222.460938" xlink:href="#ArialMT-30"/>
      </g>
     </g>
    </g>
    <g id="xtick_27">
     <g id="line2d_55">
      <path clip-path="url(#p51b0b1274a)" d="M 911.749521 1107.7 
L 911.749521 602.839063 
" style="fill:none;stroke:#ffffff;stroke-linecap:round;"/>
     </g>
     <g id="text_58">
      <!-- 60000 -->
      <g style="fill:#262626;" transform="translate(896.456942 1125.073594)scale(0.11 -0.11)">
       <use xlink:href="#ArialMT-36"/>
       <use x="55.615234" xlink:href="#ArialMT-30"/>
       <use x="111.230469" xlink:href="#ArialMT-30"/>
       <use x="166.845703" xlink:href="#ArialMT-30"/>
       <use x="222.460938" xlink:href="#ArialMT-30"/>
      </g>
     </g>
    </g>
    <g id="xtick_28">
     <g id="line2d_56">
      <path clip-path="url(#p51b0b1274a)" d="M 1002.782694 1107.7 
L 1002.782694 602.839063 
" style="fill:none;stroke:#ffffff;stroke-linecap:round;"/>
     </g>
     <g id="text_59">
      <!-- 80000 -->
      <g style="fill:#262626;" transform="translate(987.490116 1125.073594)scale(0.11 -0.11)">
       <use xlink:href="#ArialMT-38"/>
       <use x="55.615234" xlink:href="#ArialMT-30"/>
       <use x="111.230469" xlink:href="#ArialMT-30"/>
       <use x="166.845703" xlink:href="#ArialMT-30"/>
       <use x="222.460938" xlink:href="#ArialMT-30"/>
      </g>
     </g>
    </g>
    <g id="xtick_29">
     <g id="line2d_57">
      <path clip-path="url(#p51b0b1274a)" d="M 1093.815868 1107.7 
L 1093.815868 602.839063 
" style="fill:none;stroke:#ffffff;stroke-linecap:round;"/>
     </g>
     <g id="text_60">
      <!-- 100000 -->
      <g style="fill:#262626;" transform="translate(1075.464774 1125.073594)scale(0.11 -0.11)">
       <use xlink:href="#ArialMT-31"/>
       <use x="55.615234" xlink:href="#ArialMT-30"/>
       <use x="111.230469" xlink:href="#ArialMT-30"/>
       <use x="166.845703" xlink:href="#ArialMT-30"/>
       <use x="222.460938" xlink:href="#ArialMT-30"/>
       <use x="278.076172" xlink:href="#ArialMT-30"/>
      </g>
     </g>
    </g>
    <g id="text_61">
     <!-- F score -->
     <g style="fill:#262626;" transform="translate(869.9225 1139.849219)scale(0.12 -0.12)">
      <use xlink:href="#ArialMT-46"/>
      <use x="61.083984" xlink:href="#ArialMT-20"/>
      <use x="88.867188" xlink:href="#ArialMT-73"/>
      <use x="138.867188" xlink:href="#ArialMT-63"/>
      <use x="188.867188" xlink:href="#ArialMT-6f"/>
      <use x="244.482422" xlink:href="#ArialMT-72"/>
      <use x="277.783203" xlink:href="#ArialMT-65"/>
     </g>
    </g>
   </g>
   <g id="matplotlib.axis_8">
    <g id="ytick_17">
     <g id="line2d_58">
      <path clip-path="url(#p51b0b1274a)" d="M 638.65 1006.727813 
L 1141.2 1006.727813 
" style="fill:none;stroke:#ffffff;stroke-linecap:round;"/>
     </g>
     <g id="text_62">
      <!-- energy -->
      <g style="fill:#262626;" transform="translate(595.519219 1010.600156)scale(0.11 -0.11)">
       <use xlink:href="#ArialMT-65"/>
       <use x="55.615234" xlink:href="#ArialMT-6e"/>
       <use x="111.230469" xlink:href="#ArialMT-65"/>
       <use x="166.845703" xlink:href="#ArialMT-72"/>
       <use x="200.146484" xlink:href="#ArialMT-67"/>
       <use x="255.761719" xlink:href="#ArialMT-79"/>
      </g>
     </g>
    </g>
    <g id="ytick_18">
     <g id="line2d_59">
      <path clip-path="url(#p51b0b1274a)" d="M 638.65 905.755625 
L 1141.2 905.755625 
" style="fill:none;stroke:#ffffff;stroke-linecap:round;"/>
     </g>
     <g id="text_63">
      <!-- v0 -->
      <g style="fill:#262626;" transform="translate(617.532969 909.692422)scale(0.11 -0.11)">
       <use xlink:href="#ArialMT-76"/>
       <use x="50" xlink:href="#ArialMT-30"/>
      </g>
     </g>
    </g>
    <g id="ytick_19">
     <g id="line2d_60">
      <path clip-path="url(#p51b0b1274a)" d="M 638.65 804.783437 
L 1141.2 804.783437 
" style="fill:none;stroke:#ffffff;stroke-linecap:round;"/>
     </g>
     <g id="text_64">
      <!-- t -->
      <g style="fill:#262626;" transform="translate(626.094062 808.720234)scale(0.11 -0.11)">
       <use xlink:href="#ArialMT-74"/>
      </g>
     </g>
    </g>
    <g id="ytick_20">
     <g id="line2d_61">
      <path clip-path="url(#p51b0b1274a)" d="M 638.65 703.81125 
L 1141.2 703.81125 
" style="fill:none;stroke:#ffffff;stroke-linecap:round;"/>
     </g>
     <g id="text_65">
      <!-- x0 -->
      <g style="fill:#262626;" transform="translate(617.532969 707.748047)scale(0.11 -0.11)">
       <use xlink:href="#ArialMT-78"/>
       <use x="50" xlink:href="#ArialMT-30"/>
      </g>
     </g>
    </g>
    <g id="text_66">
     <!-- Features -->
     <g style="fill:#262626;" transform="translate(589.134219 878.945156)rotate(-90)scale(0.12 -0.12)">
      <use xlink:href="#ArialMT-46"/>
      <use x="61.083984" xlink:href="#ArialMT-65"/>
      <use x="116.699219" xlink:href="#ArialMT-61"/>
      <use x="172.314453" xlink:href="#ArialMT-74"/>
      <use x="200.097656" xlink:href="#ArialMT-75"/>
      <use x="255.712891" xlink:href="#ArialMT-72"/>
      <use x="289.013672" xlink:href="#ArialMT-65"/>
      <use x="344.628906" xlink:href="#ArialMT-73"/>
     </g>
    </g>
   </g>
   <g id="patch_24">
    <path clip-path="url(#p51b0b1274a)" d="M 638.65 1016.825031 
L 794.794651 1016.825031 
L 794.794651 996.630594 
L 638.65 996.630594 
z
" style="fill:#4c72b0;stroke:#ffffff;stroke-linejoin:miter;"/>
   </g>
   <g id="patch_25">
    <path clip-path="url(#p51b0b1274a)" d="M 638.65 915.852844 
L 937.238809 915.852844 
L 937.238809 895.658406 
L 638.65 895.658406 
z
" style="fill:#4c72b0;stroke:#ffffff;stroke-linejoin:miter;"/>
   </g>
   <g id="patch_26">
    <path clip-path="url(#p51b0b1274a)" d="M 638.65 814.880656 
L 948.344856 814.880656 
L 948.344856 794.686219 
L 638.65 794.686219 
z
" style="fill:#4c72b0;stroke:#ffffff;stroke-linejoin:miter;"/>
   </g>
   <g id="patch_27">
    <path clip-path="url(#p51b0b1274a)" d="M 638.65 713.908469 
L 1095.513636 713.908469 
L 1095.513636 693.714031 
L 638.65 693.714031 
z
" style="fill:#4c72b0;stroke:#ffffff;stroke-linejoin:miter;"/>
   </g>
   <g id="patch_28">
    <path d="M 638.65 1107.7 
L 638.65 602.839062 
" style="fill:none;stroke:#ffffff;stroke-linecap:square;stroke-linejoin:miter;stroke-width:1.25;"/>
   </g>
   <g id="patch_29">
    <path d="M 1141.2 1107.7 
L 1141.2 602.839062 
" style="fill:none;stroke:#ffffff;stroke-linecap:square;stroke-linejoin:miter;stroke-width:1.25;"/>
   </g>
   <g id="patch_30">
    <path d="M 638.65 1107.7 
L 1141.2 1107.7 
" style="fill:none;stroke:#ffffff;stroke-linecap:square;stroke-linejoin:miter;stroke-width:1.25;"/>
   </g>
   <g id="patch_31">
    <path d="M 638.65 602.839063 
L 1141.2 602.839063 
" style="fill:none;stroke:#ffffff;stroke-linecap:square;stroke-linejoin:miter;stroke-width:1.25;"/>
   </g>
   <g id="text_67">
    <!-- 34305 -->
    <g style="fill:#262626;" transform="translate(794.799203 1009.312969)scale(0.1 -0.1)">
     <use xlink:href="#ArialMT-33"/>
     <use x="55.615234" xlink:href="#ArialMT-34"/>
     <use x="111.230469" xlink:href="#ArialMT-33"/>
     <use x="166.845703" xlink:href="#ArialMT-30"/>
     <use x="222.460938" xlink:href="#ArialMT-35"/>
    </g>
   </g>
   <g id="text_68">
    <!-- 65600 -->
    <g style="fill:#262626;" transform="translate(937.243361 908.340781)scale(0.1 -0.1)">
     <use xlink:href="#ArialMT-36"/>
     <use x="55.615234" xlink:href="#ArialMT-35"/>
     <use x="111.230469" xlink:href="#ArialMT-36"/>
     <use x="166.845703" xlink:href="#ArialMT-30"/>
     <use x="222.460938" xlink:href="#ArialMT-30"/>
    </g>
   </g>
   <g id="text_69">
    <!-- 68040 -->
    <g style="fill:#262626;" transform="translate(948.349408 807.368594)scale(0.1 -0.1)">
     <use xlink:href="#ArialMT-36"/>
     <use x="55.615234" xlink:href="#ArialMT-38"/>
     <use x="111.230469" xlink:href="#ArialMT-30"/>
     <use x="166.845703" xlink:href="#ArialMT-34"/>
     <use x="222.460938" xlink:href="#ArialMT-30"/>
    </g>
   </g>
   <g id="text_70">
    <!-- 100373 -->
    <g style="fill:#262626;" transform="translate(1095.518188 706.396406)scale(0.1 -0.1)">
     <use xlink:href="#ArialMT-31"/>
     <use x="55.615234" xlink:href="#ArialMT-30"/>
     <use x="111.230469" xlink:href="#ArialMT-30"/>
     <use x="166.845703" xlink:href="#ArialMT-33"/>
     <use x="222.460938" xlink:href="#ArialMT-37"/>
     <use x="278.076172" xlink:href="#ArialMT-33"/>
    </g>
   </g>
   <g id="text_71">
    <!-- Contributions to $v_t$ -->
    <g style="fill:#262626;" transform="translate(840.845 596.839063)scale(0.12 -0.12)">
     <defs>
      <path d="M 459 3500 
L 1069 3500 
L 1581 525 
L 3256 3500 
L 3866 3500 
L 1875 0 
L 1100 0 
L 459 3500 
z
" id="DejaVuSans-Oblique-76" transform="scale(0.015625)"/>
     </defs>
     <use transform="translate(0 0.203125)" xlink:href="#ArialMT-43"/>
     <use transform="translate(72.216797 0.203125)" xlink:href="#ArialMT-6f"/>
     <use transform="translate(127.832031 0.203125)" xlink:href="#ArialMT-6e"/>
     <use transform="translate(183.447266 0.203125)" xlink:href="#ArialMT-74"/>
     <use transform="translate(211.230469 0.203125)" xlink:href="#ArialMT-72"/>
     <use transform="translate(244.53125 0.203125)" xlink:href="#ArialMT-69"/>
     <use transform="translate(266.748047 0.203125)" xlink:href="#ArialMT-62"/>
     <use transform="translate(322.363281 0.203125)" xlink:href="#ArialMT-75"/>
     <use transform="translate(377.978516 0.203125)" xlink:href="#ArialMT-74"/>
     <use transform="translate(405.761719 0.203125)" xlink:href="#ArialMT-69"/>
     <use transform="translate(427.978516 0.203125)" xlink:href="#ArialMT-6f"/>
     <use transform="translate(483.59375 0.203125)" xlink:href="#ArialMT-6e"/>
     <use transform="translate(539.208984 0.203125)" xlink:href="#ArialMT-73"/>
     <use transform="translate(589.208984 0.203125)" xlink:href="#ArialMT-20"/>
     <use transform="translate(616.992188 0.203125)" xlink:href="#ArialMT-74"/>
     <use transform="translate(644.775391 0.203125)" xlink:href="#ArialMT-6f"/>
     <use transform="translate(700.390625 0.203125)" xlink:href="#ArialMT-20"/>
     <use transform="translate(728.173828 0.203125)" xlink:href="#DejaVuSans-Oblique-76"/>
     <use transform="translate(787.353516 -16.203125)scale(0.7)" xlink:href="#DejaVuSans-Oblique-74"/>
    </g>
   </g>
  </g>
  <g id="text_72">
   <!-- Aggregate Feature Importance According to XGBoost -->
   <g style="fill:#262626;" transform="translate(386.57 34.6875)scale(0.16 -0.16)">
    <defs>
     <path d="M -9 0 
L 1750 4581 
L 2403 4581 
L 4278 0 
L 3588 0 
L 3053 1388 
L 1138 1388 
L 634 0 
L -9 0 
z
M 1313 1881 
L 2866 1881 
L 2388 3150 
Q 2169 3728 2063 4100 
Q 1975 3659 1816 3225 
L 1313 1881 
z
" id="ArialMT-41" transform="scale(0.015625)"/>
     <path d="M 597 0 
L 597 4581 
L 1203 4581 
L 1203 0 
L 597 0 
z
" id="ArialMT-49" transform="scale(0.015625)"/>
     <path d="M 422 -1272 
L 422 3319 
L 934 3319 
L 934 2888 
Q 1116 3141 1344 3267 
Q 1572 3394 1897 3394 
Q 2322 3394 2647 3175 
Q 2972 2956 3137 2557 
Q 3303 2159 3303 1684 
Q 3303 1175 3120 767 
Q 2938 359 2589 142 
Q 2241 -75 1856 -75 
Q 1575 -75 1351 44 
Q 1128 163 984 344 
L 984 -1272 
L 422 -1272 
z
M 931 1641 
Q 931 1000 1190 694 
Q 1450 388 1819 388 
Q 2194 388 2461 705 
Q 2728 1022 2728 1688 
Q 2728 2322 2467 2637 
Q 2206 2953 1844 2953 
Q 1484 2953 1207 2617 
Q 931 2281 931 1641 
z
" id="ArialMT-70" transform="scale(0.015625)"/>
     <path d="M 2575 0 
L 2575 419 
Q 2259 -75 1647 -75 
Q 1250 -75 917 144 
Q 584 363 401 755 
Q 219 1147 219 1656 
Q 219 2153 384 2558 
Q 550 2963 881 3178 
Q 1213 3394 1622 3394 
Q 1922 3394 2156 3267 
Q 2391 3141 2538 2938 
L 2538 4581 
L 3097 4581 
L 3097 0 
L 2575 0 
z
M 797 1656 
Q 797 1019 1065 703 
Q 1334 388 1700 388 
Q 2069 388 2326 689 
Q 2584 991 2584 1609 
Q 2584 2291 2321 2609 
Q 2059 2928 1675 2928 
Q 1300 2928 1048 2622 
Q 797 2316 797 1656 
z
" id="ArialMT-64" transform="scale(0.015625)"/>
     <path d="M 28 0 
L 1800 2388 
L 238 4581 
L 959 4581 
L 1791 3406 
Q 2050 3041 2159 2844 
Q 2313 3094 2522 3366 
L 3444 4581 
L 4103 4581 
L 2494 2422 
L 4228 0 
L 3478 0 
L 2325 1634 
Q 2228 1775 2125 1941 
Q 1972 1691 1906 1597 
L 756 0 
L 28 0 
z
" id="ArialMT-58" transform="scale(0.015625)"/>
     <path d="M 2638 1797 
L 2638 2334 
L 4578 2338 
L 4578 638 
Q 4131 281 3656 101 
Q 3181 -78 2681 -78 
Q 2006 -78 1454 211 
Q 903 500 622 1047 
Q 341 1594 341 2269 
Q 341 2938 620 3517 
Q 900 4097 1425 4378 
Q 1950 4659 2634 4659 
Q 3131 4659 3532 4498 
Q 3934 4338 4162 4050 
Q 4391 3763 4509 3300 
L 3963 3150 
Q 3859 3500 3706 3700 
Q 3553 3900 3268 4020 
Q 2984 4141 2638 4141 
Q 2222 4141 1919 4014 
Q 1616 3888 1430 3681 
Q 1244 3475 1141 3228 
Q 966 2803 966 2306 
Q 966 1694 1177 1281 
Q 1388 869 1791 669 
Q 2194 469 2647 469 
Q 3041 469 3416 620 
Q 3791 772 3984 944 
L 3984 1797 
L 2638 1797 
z
" id="ArialMT-47" transform="scale(0.015625)"/>
     <path d="M 469 0 
L 469 4581 
L 2188 4581 
Q 2713 4581 3030 4442 
Q 3347 4303 3526 4014 
Q 3706 3725 3706 3409 
Q 3706 3116 3547 2856 
Q 3388 2597 3066 2438 
Q 3481 2316 3704 2022 
Q 3928 1728 3928 1328 
Q 3928 1006 3792 729 
Q 3656 453 3456 303 
Q 3256 153 2954 76 
Q 2653 0 2216 0 
L 469 0 
z
M 1075 2656 
L 2066 2656 
Q 2469 2656 2644 2709 
Q 2875 2778 2992 2937 
Q 3109 3097 3109 3338 
Q 3109 3566 3000 3739 
Q 2891 3913 2687 3977 
Q 2484 4041 1991 4041 
L 1075 4041 
L 1075 2656 
z
M 1075 541 
L 2216 541 
Q 2509 541 2628 563 
Q 2838 600 2978 687 
Q 3119 775 3209 942 
Q 3300 1109 3300 1328 
Q 3300 1584 3169 1773 
Q 3038 1963 2805 2039 
Q 2572 2116 2134 2116 
L 1075 2116 
L 1075 541 
z
" id="ArialMT-42" transform="scale(0.015625)"/>
    </defs>
    <use xlink:href="#ArialMT-41"/>
    <use x="66.699219" xlink:href="#ArialMT-67"/>
    <use x="122.314453" xlink:href="#ArialMT-67"/>
    <use x="177.929688" xlink:href="#ArialMT-72"/>
    <use x="211.230469" xlink:href="#ArialMT-65"/>
    <use x="266.845703" xlink:href="#ArialMT-67"/>
    <use x="322.460938" xlink:href="#ArialMT-61"/>
    <use x="378.076172" xlink:href="#ArialMT-74"/>
    <use x="405.859375" xlink:href="#ArialMT-65"/>
    <use x="461.474609" xlink:href="#ArialMT-20"/>
    <use x="489.257812" xlink:href="#ArialMT-46"/>
    <use x="550.341797" xlink:href="#ArialMT-65"/>
    <use x="605.957031" xlink:href="#ArialMT-61"/>
    <use x="661.572266" xlink:href="#ArialMT-74"/>
    <use x="689.355469" xlink:href="#ArialMT-75"/>
    <use x="744.970703" xlink:href="#ArialMT-72"/>
    <use x="778.271484" xlink:href="#ArialMT-65"/>
    <use x="833.886719" xlink:href="#ArialMT-20"/>
    <use x="861.669922" xlink:href="#ArialMT-49"/>
    <use x="889.453125" xlink:href="#ArialMT-6d"/>
    <use x="972.753906" xlink:href="#ArialMT-70"/>
    <use x="1028.369141" xlink:href="#ArialMT-6f"/>
    <use x="1083.984375" xlink:href="#ArialMT-72"/>
    <use x="1117.285156" xlink:href="#ArialMT-74"/>
    <use x="1145.068359" xlink:href="#ArialMT-61"/>
    <use x="1200.683594" xlink:href="#ArialMT-6e"/>
    <use x="1256.298828" xlink:href="#ArialMT-63"/>
    <use x="1306.298828" xlink:href="#ArialMT-65"/>
    <use x="1361.914062" xlink:href="#ArialMT-20"/>
    <use x="1384.197266" xlink:href="#ArialMT-41"/>
    <use x="1450.896484" xlink:href="#ArialMT-63"/>
    <use x="1500.896484" xlink:href="#ArialMT-63"/>
    <use x="1550.896484" xlink:href="#ArialMT-6f"/>
    <use x="1606.511719" xlink:href="#ArialMT-72"/>
    <use x="1639.8125" xlink:href="#ArialMT-64"/>
    <use x="1695.427734" xlink:href="#ArialMT-69"/>
    <use x="1717.644531" xlink:href="#ArialMT-6e"/>
    <use x="1773.259766" xlink:href="#ArialMT-67"/>
    <use x="1828.875" xlink:href="#ArialMT-20"/>
    <use x="1856.658203" xlink:href="#ArialMT-74"/>
    <use x="1884.441406" xlink:href="#ArialMT-6f"/>
    <use x="1940.056641" xlink:href="#ArialMT-20"/>
    <use x="1967.839844" xlink:href="#ArialMT-58"/>
    <use x="2034.539062" xlink:href="#ArialMT-47"/>
    <use x="2112.322266" xlink:href="#ArialMT-42"/>
    <use x="2179.021484" xlink:href="#ArialMT-6f"/>
    <use x="2234.636719" xlink:href="#ArialMT-6f"/>
    <use x="2290.251953" xlink:href="#ArialMT-73"/>
    <use x="2340.251953" xlink:href="#ArialMT-74"/>
   </g>
  </g>
 </g>
 <defs>
  <clipPath id="pf24b051831">
   <rect height="504.860937" width="502.55" x="68.05" y="36.678125"/>
  </clipPath>
  <clipPath id="p5099ce8c5f">
   <rect height="504.860937" width="502.55" x="638.65" y="36.678125"/>
  </clipPath>
  <clipPath id="p916dc9af1f">
   <rect height="504.860937" width="502.55" x="68.05" y="602.839063"/>
  </clipPath>
  <clipPath id="p51b0b1274a">
   <rect height="504.860937" width="502.55" x="638.65" y="602.839063"/>
  </clipPath>
 </defs>
</svg>
