<?xml version="1.0" encoding="utf-8" standalone="no"?>
<!DOCTYPE svg PUBLIC "-//W3C//DTD SVG 1.1//EN"
  "http://www.w3.org/Graphics/SVG/1.1/DTD/svg11.dtd">
<svg height="564.023125pt" version="1.1" viewBox="0 0 568.103125 564.023125" width="568.103125pt" xmlns="http://www.w3.org/2000/svg" xmlns:xlink="http://www.w3.org/1999/xlink">
 <metadata>
  <rdf:RDF xmlns:cc="http://creativecommons.org/ns#" xmlns:dc="http://purl.org/dc/elements/1.1/" xmlns:rdf="http://www.w3.org/1999/02/22-rdf-syntax-ns#">
   <cc:Work>
    <dc:type rdf:resource="http://purl.org/dc/dcmitype/StillImage"/>
    <dc:date>2021-11-20T17:35:31.874814</dc:date>
    <dc:format>image/svg+xml</dc:format>
    <dc:creator>
     <cc:Agent>
      <dc:title>Matplotlib v3.4.2, https://matplotlib.org/</dc:title>
     </cc:Agent>
    </dc:creator>
   </cc:Work>
  </rdf:RDF>
 </metadata>
 <defs>
  <style type="text/css">*{stroke-linecap:butt;stroke-linejoin:round;}</style>
 </defs>
 <g id="figure_1">
  <g id="patch_1">
   <path d="M 0 564.023125 
L 568.103125 564.023125 
L 568.103125 0 
L 0 0 
z
" style="fill:none;"/>
  </g>
  <g id="axes_1">
   <g id="patch_2">
    <path d="M 70.128125 510.4 
L 560.903125 510.4 
L 560.903125 7.2 
L 70.128125 7.2 
z
" style="fill:#eaeaf2;"/>
   </g>
   <g id="matplotlib.axis_1">
    <g id="xtick_1">
     <g id="text_1">
      <!-- $x_0$:$x_t$ -->
      <g style="fill:#262626;" transform="translate(82.881563 531.3525)scale(0.16 -0.16)">
       <defs>
        <path d="M 3841 3500 
L 2234 1784 
L 3219 0 
L 2559 0 
L 1819 1388 
L 531 0 
L -166 0 
L 1556 1844 
L 641 3500 
L 1300 3500 
L 1972 2234 
L 3144 3500 
L 3841 3500 
z
" id="DejaVuSans-Oblique-78" transform="scale(0.015625)"/>
        <path d="M 2034 4250 
Q 1547 4250 1301 3770 
Q 1056 3291 1056 2328 
Q 1056 1369 1301 889 
Q 1547 409 2034 409 
Q 2525 409 2770 889 
Q 3016 1369 3016 2328 
Q 3016 3291 2770 3770 
Q 2525 4250 2034 4250 
z
M 2034 4750 
Q 2819 4750 3233 4129 
Q 3647 3509 3647 2328 
Q 3647 1150 3233 529 
Q 2819 -91 2034 -91 
Q 1250 -91 836 529 
Q 422 1150 422 2328 
Q 422 3509 836 4129 
Q 1250 4750 2034 4750 
z
" id="DejaVuSans-30" transform="scale(0.015625)"/>
        <path d="M 578 2678 
L 578 3319 
L 1219 3319 
L 1219 2678 
L 578 2678 
z
M 578 0 
L 578 641 
L 1219 641 
L 1219 0 
L 578 0 
z
" id="ArialMT-3a" transform="scale(0.015625)"/>
        <path d="M 2706 3500 
L 2619 3053 
L 1472 3053 
L 1100 1153 
Q 1081 1047 1072 975 
Q 1063 903 1063 863 
Q 1063 663 1183 572 
Q 1303 481 1569 481 
L 2150 481 
L 2053 0 
L 1503 0 
Q 991 0 739 200 
Q 488 400 488 806 
Q 488 878 497 964 
Q 506 1050 525 1153 
L 897 3053 
L 409 3053 
L 500 3500 
L 978 3500 
L 1172 4494 
L 1747 4494 
L 1556 3500 
L 2706 3500 
z
" id="DejaVuSans-Oblique-74" transform="scale(0.015625)"/>
       </defs>
       <use transform="translate(0 0.3125)" xlink:href="#DejaVuSans-Oblique-78"/>
       <use transform="translate(59.179688 -16.09375)scale(0.7)" xlink:href="#DejaVuSans-30"/>
       <use transform="translate(106.450195 0.3125)" xlink:href="#ArialMT-3a"/>
       <use transform="translate(134.233398 0.3125)" xlink:href="#DejaVuSans-Oblique-78"/>
       <use transform="translate(193.413086 -16.09375)scale(0.7)" xlink:href="#DejaVuSans-Oblique-74"/>
      </g>
     </g>
    </g>
    <g id="xtick_2">
     <g id="text_2">
      <!-- $v_0$:$x_t$ -->
      <g style="fill:#262626;" transform="translate(144.228437 531.3525)scale(0.16 -0.16)">
       <defs>
        <path d="M 459 3500 
L 1069 3500 
L 1581 525 
L 3256 3500 
L 3866 3500 
L 1875 0 
L 1100 0 
L 459 3500 
z
" id="DejaVuSans-Oblique-76" transform="scale(0.015625)"/>
       </defs>
       <use transform="translate(0 0.3125)" xlink:href="#DejaVuSans-Oblique-76"/>
       <use transform="translate(59.179688 -16.09375)scale(0.7)" xlink:href="#DejaVuSans-30"/>
       <use transform="translate(106.450195 0.3125)" xlink:href="#ArialMT-3a"/>
       <use transform="translate(134.233398 0.3125)" xlink:href="#DejaVuSans-Oblique-78"/>
       <use transform="translate(193.413086 -16.09375)scale(0.7)" xlink:href="#DejaVuSans-Oblique-74"/>
      </g>
     </g>
    </g>
    <g id="xtick_3">
     <g id="text_3">
      <!-- $t$:$x_t$ -->
      <g style="fill:#262626;" transform="translate(210.935312 531.3525)scale(0.16 -0.16)">
       <use transform="translate(0 0.78125)" xlink:href="#DejaVuSans-Oblique-74"/>
       <use transform="translate(39.208984 0.78125)" xlink:href="#ArialMT-3a"/>
       <use transform="translate(66.992188 0.78125)" xlink:href="#DejaVuSans-Oblique-78"/>
       <use transform="translate(126.171875 -15.625)scale(0.7)" xlink:href="#DejaVuSans-Oblique-74"/>
      </g>
     </g>
    </g>
    <g id="xtick_4">
     <g id="text_4">
      <!-- $\gamma$:$x_t$ -->
      <g style="fill:#262626;" transform="translate(270.682187 531.1725)scale(0.16 -0.16)">
       <defs>
        <path d="M 1491 2950 
L 1838 788 
L 3456 3500 
L 4066 3500 
L 1972 0 
L 1713 -1331 
L 1138 -1331 
L 1397 0 
L 988 2613 
Q 925 3006 628 3006 
L 475 3006 
L 569 3500 
L 788 3500 
Q 1403 3500 1491 2950 
z
" id="DejaVuSans-Oblique-3b3" transform="scale(0.015625)"/>
       </defs>
       <use transform="translate(0 0.3125)" xlink:href="#DejaVuSans-Oblique-3b3"/>
       <use transform="translate(59.179688 0.3125)" xlink:href="#ArialMT-3a"/>
       <use transform="translate(86.962891 0.3125)" xlink:href="#DejaVuSans-Oblique-78"/>
       <use transform="translate(146.142578 -16.09375)scale(0.7)" xlink:href="#DejaVuSans-Oblique-74"/>
      </g>
     </g>
    </g>
    <g id="xtick_5">
     <g id="text_5">
      <!-- $x_0$:$v_t$ -->
      <g style="fill:#262626;" transform="translate(328.269062 531.3525)scale(0.16 -0.16)">
       <use transform="translate(0 0.3125)" xlink:href="#DejaVuSans-Oblique-78"/>
       <use transform="translate(59.179688 -16.09375)scale(0.7)" xlink:href="#DejaVuSans-30"/>
       <use transform="translate(106.450195 0.3125)" xlink:href="#ArialMT-3a"/>
       <use transform="translate(134.233398 0.3125)" xlink:href="#DejaVuSans-Oblique-76"/>
       <use transform="translate(193.413086 -16.09375)scale(0.7)" xlink:href="#DejaVuSans-Oblique-74"/>
      </g>
     </g>
    </g>
    <g id="xtick_6">
     <g id="text_6">
      <!-- $v_0$:$v_t$ -->
      <g style="fill:#262626;" transform="translate(389.615937 531.3525)scale(0.16 -0.16)">
       <use transform="translate(0 0.3125)" xlink:href="#DejaVuSans-Oblique-76"/>
       <use transform="translate(59.179688 -16.09375)scale(0.7)" xlink:href="#DejaVuSans-30"/>
       <use transform="translate(106.450195 0.3125)" xlink:href="#ArialMT-3a"/>
       <use transform="translate(134.233398 0.3125)" xlink:href="#DejaVuSans-Oblique-76"/>
       <use transform="translate(193.413086 -16.09375)scale(0.7)" xlink:href="#DejaVuSans-Oblique-74"/>
      </g>
     </g>
    </g>
    <g id="xtick_7">
     <g id="text_7">
      <!-- $t$:$v_t$ -->
      <g style="fill:#262626;" transform="translate(456.322812 531.3525)scale(0.16 -0.16)">
       <use transform="translate(0 0.78125)" xlink:href="#DejaVuSans-Oblique-74"/>
       <use transform="translate(39.208984 0.78125)" xlink:href="#ArialMT-3a"/>
       <use transform="translate(66.992188 0.78125)" xlink:href="#DejaVuSans-Oblique-76"/>
       <use transform="translate(126.171875 -15.625)scale(0.7)" xlink:href="#DejaVuSans-Oblique-74"/>
      </g>
     </g>
    </g>
    <g id="xtick_8">
     <g id="text_8">
      <!-- $\gamma$:$v_t$ -->
      <g style="fill:#262626;" transform="translate(516.069687 531.1725)scale(0.16 -0.16)">
       <use transform="translate(0 0.3125)" xlink:href="#DejaVuSans-Oblique-3b3"/>
       <use transform="translate(59.179688 0.3125)" xlink:href="#ArialMT-3a"/>
       <use transform="translate(86.962891 0.3125)" xlink:href="#DejaVuSans-Oblique-76"/>
       <use transform="translate(146.142578 -16.09375)scale(0.7)" xlink:href="#DejaVuSans-Oblique-74"/>
      </g>
     </g>
    </g>
    <g id="text_9">
     <!-- Feature : Label -->
     <g style="fill:#262626;" transform="translate(248.25625 552.848125)scale(0.2 -0.2)">
      <defs>
       <path d="M 525 0 
L 525 4581 
L 3616 4581 
L 3616 4041 
L 1131 4041 
L 1131 2622 
L 3281 2622 
L 3281 2081 
L 1131 2081 
L 1131 0 
L 525 0 
z
" id="ArialMT-46" transform="scale(0.015625)"/>
       <path d="M 2694 1069 
L 3275 997 
Q 3138 488 2766 206 
Q 2394 -75 1816 -75 
Q 1088 -75 661 373 
Q 234 822 234 1631 
Q 234 2469 665 2931 
Q 1097 3394 1784 3394 
Q 2450 3394 2872 2941 
Q 3294 2488 3294 1666 
Q 3294 1616 3291 1516 
L 816 1516 
Q 847 969 1125 678 
Q 1403 388 1819 388 
Q 2128 388 2347 550 
Q 2566 713 2694 1069 
z
M 847 1978 
L 2700 1978 
Q 2663 2397 2488 2606 
Q 2219 2931 1791 2931 
Q 1403 2931 1139 2672 
Q 875 2413 847 1978 
z
" id="ArialMT-65" transform="scale(0.015625)"/>
       <path d="M 2588 409 
Q 2275 144 1986 34 
Q 1697 -75 1366 -75 
Q 819 -75 525 192 
Q 231 459 231 875 
Q 231 1119 342 1320 
Q 453 1522 633 1644 
Q 813 1766 1038 1828 
Q 1203 1872 1538 1913 
Q 2219 1994 2541 2106 
Q 2544 2222 2544 2253 
Q 2544 2597 2384 2738 
Q 2169 2928 1744 2928 
Q 1347 2928 1158 2789 
Q 969 2650 878 2297 
L 328 2372 
Q 403 2725 575 2942 
Q 747 3159 1072 3276 
Q 1397 3394 1825 3394 
Q 2250 3394 2515 3294 
Q 2781 3194 2906 3042 
Q 3031 2891 3081 2659 
Q 3109 2516 3109 2141 
L 3109 1391 
Q 3109 606 3145 398 
Q 3181 191 3288 0 
L 2700 0 
Q 2613 175 2588 409 
z
M 2541 1666 
Q 2234 1541 1622 1453 
Q 1275 1403 1131 1340 
Q 988 1278 909 1158 
Q 831 1038 831 891 
Q 831 666 1001 516 
Q 1172 366 1500 366 
Q 1825 366 2078 508 
Q 2331 650 2450 897 
Q 2541 1088 2541 1459 
L 2541 1666 
z
" id="ArialMT-61" transform="scale(0.015625)"/>
       <path d="M 1650 503 
L 1731 6 
Q 1494 -44 1306 -44 
Q 1000 -44 831 53 
Q 663 150 594 308 
Q 525 466 525 972 
L 525 2881 
L 113 2881 
L 113 3319 
L 525 3319 
L 525 4141 
L 1084 4478 
L 1084 3319 
L 1650 3319 
L 1650 2881 
L 1084 2881 
L 1084 941 
Q 1084 700 1114 631 
Q 1144 563 1211 522 
Q 1278 481 1403 481 
Q 1497 481 1650 503 
z
" id="ArialMT-74" transform="scale(0.015625)"/>
       <path d="M 2597 0 
L 2597 488 
Q 2209 -75 1544 -75 
Q 1250 -75 995 37 
Q 741 150 617 320 
Q 494 491 444 738 
Q 409 903 409 1263 
L 409 3319 
L 972 3319 
L 972 1478 
Q 972 1038 1006 884 
Q 1059 663 1231 536 
Q 1403 409 1656 409 
Q 1909 409 2131 539 
Q 2353 669 2445 892 
Q 2538 1116 2538 1541 
L 2538 3319 
L 3100 3319 
L 3100 0 
L 2597 0 
z
" id="ArialMT-75" transform="scale(0.015625)"/>
       <path d="M 416 0 
L 416 3319 
L 922 3319 
L 922 2816 
Q 1116 3169 1280 3281 
Q 1444 3394 1641 3394 
Q 1925 3394 2219 3213 
L 2025 2691 
Q 1819 2813 1613 2813 
Q 1428 2813 1281 2702 
Q 1134 2591 1072 2394 
Q 978 2094 978 1738 
L 978 0 
L 416 0 
z
" id="ArialMT-72" transform="scale(0.015625)"/>
       <path id="ArialMT-20" transform="scale(0.015625)"/>
       <path d="M 469 0 
L 469 4581 
L 1075 4581 
L 1075 541 
L 3331 541 
L 3331 0 
L 469 0 
z
" id="ArialMT-4c" transform="scale(0.015625)"/>
       <path d="M 941 0 
L 419 0 
L 419 4581 
L 981 4581 
L 981 2947 
Q 1338 3394 1891 3394 
Q 2197 3394 2470 3270 
Q 2744 3147 2920 2923 
Q 3097 2700 3197 2384 
Q 3297 2069 3297 1709 
Q 3297 856 2875 390 
Q 2453 -75 1863 -75 
Q 1275 -75 941 416 
L 941 0 
z
M 934 1684 
Q 934 1088 1097 822 
Q 1363 388 1816 388 
Q 2184 388 2453 708 
Q 2722 1028 2722 1663 
Q 2722 2313 2464 2622 
Q 2206 2931 1841 2931 
Q 1472 2931 1203 2611 
Q 934 2291 934 1684 
z
" id="ArialMT-62" transform="scale(0.015625)"/>
       <path d="M 409 0 
L 409 4581 
L 972 4581 
L 972 0 
L 409 0 
z
" id="ArialMT-6c" transform="scale(0.015625)"/>
      </defs>
      <use xlink:href="#ArialMT-46"/>
      <use x="61.083984" xlink:href="#ArialMT-65"/>
      <use x="116.699219" xlink:href="#ArialMT-61"/>
      <use x="172.314453" xlink:href="#ArialMT-74"/>
      <use x="200.097656" xlink:href="#ArialMT-75"/>
      <use x="255.712891" xlink:href="#ArialMT-72"/>
      <use x="289.013672" xlink:href="#ArialMT-65"/>
      <use x="344.628906" xlink:href="#ArialMT-20"/>
      <use x="372.412109" xlink:href="#ArialMT-3a"/>
      <use x="400.195312" xlink:href="#ArialMT-20"/>
      <use x="427.978516" xlink:href="#ArialMT-4c"/>
      <use x="483.59375" xlink:href="#ArialMT-61"/>
      <use x="539.208984" xlink:href="#ArialMT-62"/>
      <use x="594.824219" xlink:href="#ArialMT-65"/>
      <use x="650.439453" xlink:href="#ArialMT-6c"/>
     </g>
    </g>
   </g>
   <g id="matplotlib.axis_2">
    <g id="ytick_1">
     <g id="line2d_1">
      <path clip-path="url(#p56a7827c42)" d="M 70.128125 510.4 
L 560.903125 510.4 
" style="fill:none;stroke:#ffffff;stroke-linecap:round;"/>
     </g>
     <g id="text_10">
      <!-- 0.00 -->
      <g style="fill:#262626;" transform="translate(29.490625 516.12625)scale(0.16 -0.16)">
       <defs>
        <path d="M 266 2259 
Q 266 3072 433 3567 
Q 600 4063 929 4331 
Q 1259 4600 1759 4600 
Q 2128 4600 2406 4451 
Q 2684 4303 2865 4023 
Q 3047 3744 3150 3342 
Q 3253 2941 3253 2259 
Q 3253 1453 3087 958 
Q 2922 463 2592 192 
Q 2263 -78 1759 -78 
Q 1097 -78 719 397 
Q 266 969 266 2259 
z
M 844 2259 
Q 844 1131 1108 757 
Q 1372 384 1759 384 
Q 2147 384 2411 759 
Q 2675 1134 2675 2259 
Q 2675 3391 2411 3762 
Q 2147 4134 1753 4134 
Q 1366 4134 1134 3806 
Q 844 3388 844 2259 
z
" id="ArialMT-30" transform="scale(0.015625)"/>
        <path d="M 581 0 
L 581 641 
L 1222 641 
L 1222 0 
L 581 0 
z
" id="ArialMT-2e" transform="scale(0.015625)"/>
       </defs>
       <use xlink:href="#ArialMT-30"/>
       <use x="55.615234" xlink:href="#ArialMT-2e"/>
       <use x="83.398438" xlink:href="#ArialMT-30"/>
       <use x="139.013672" xlink:href="#ArialMT-30"/>
      </g>
     </g>
    </g>
    <g id="ytick_2">
     <g id="line2d_2">
      <path clip-path="url(#p56a7827c42)" d="M 70.128125 422.842856 
L 560.903125 422.842856 
" style="fill:none;stroke:#ffffff;stroke-linecap:round;"/>
     </g>
     <g id="text_11">
      <!-- 0.05 -->
      <g style="fill:#262626;" transform="translate(29.490625 428.569106)scale(0.16 -0.16)">
       <defs>
        <path d="M 266 1200 
L 856 1250 
Q 922 819 1161 601 
Q 1400 384 1738 384 
Q 2144 384 2425 690 
Q 2706 997 2706 1503 
Q 2706 1984 2436 2262 
Q 2166 2541 1728 2541 
Q 1456 2541 1237 2417 
Q 1019 2294 894 2097 
L 366 2166 
L 809 4519 
L 3088 4519 
L 3088 3981 
L 1259 3981 
L 1013 2750 
Q 1425 3038 1878 3038 
Q 2478 3038 2890 2622 
Q 3303 2206 3303 1553 
Q 3303 931 2941 478 
Q 2500 -78 1738 -78 
Q 1113 -78 717 272 
Q 322 622 266 1200 
z
" id="ArialMT-35" transform="scale(0.015625)"/>
       </defs>
       <use xlink:href="#ArialMT-30"/>
       <use x="55.615234" xlink:href="#ArialMT-2e"/>
       <use x="83.398438" xlink:href="#ArialMT-30"/>
       <use x="139.013672" xlink:href="#ArialMT-35"/>
      </g>
     </g>
    </g>
    <g id="ytick_3">
     <g id="line2d_3">
      <path clip-path="url(#p56a7827c42)" d="M 70.128125 335.285711 
L 560.903125 335.285711 
" style="fill:none;stroke:#ffffff;stroke-linecap:round;"/>
     </g>
     <g id="text_12">
      <!-- 0.10 -->
      <g style="fill:#262626;" transform="translate(29.490625 341.011961)scale(0.16 -0.16)">
       <defs>
        <path d="M 2384 0 
L 1822 0 
L 1822 3584 
Q 1619 3391 1289 3197 
Q 959 3003 697 2906 
L 697 3450 
Q 1169 3672 1522 3987 
Q 1875 4303 2022 4600 
L 2384 4600 
L 2384 0 
z
" id="ArialMT-31" transform="scale(0.015625)"/>
       </defs>
       <use xlink:href="#ArialMT-30"/>
       <use x="55.615234" xlink:href="#ArialMT-2e"/>
       <use x="83.398438" xlink:href="#ArialMT-31"/>
       <use x="139.013672" xlink:href="#ArialMT-30"/>
      </g>
     </g>
    </g>
    <g id="ytick_4">
     <g id="line2d_4">
      <path clip-path="url(#p56a7827c42)" d="M 70.128125 247.728567 
L 560.903125 247.728567 
" style="fill:none;stroke:#ffffff;stroke-linecap:round;"/>
     </g>
     <g id="text_13">
      <!-- 0.15 -->
      <g style="fill:#262626;" transform="translate(29.490625 253.454817)scale(0.16 -0.16)">
       <use xlink:href="#ArialMT-30"/>
       <use x="55.615234" xlink:href="#ArialMT-2e"/>
       <use x="83.398438" xlink:href="#ArialMT-31"/>
       <use x="139.013672" xlink:href="#ArialMT-35"/>
      </g>
     </g>
    </g>
    <g id="ytick_5">
     <g id="line2d_5">
      <path clip-path="url(#p56a7827c42)" d="M 70.128125 160.171422 
L 560.903125 160.171422 
" style="fill:none;stroke:#ffffff;stroke-linecap:round;"/>
     </g>
     <g id="text_14">
      <!-- 0.20 -->
      <g style="fill:#262626;" transform="translate(29.490625 165.897672)scale(0.16 -0.16)">
       <defs>
        <path d="M 3222 541 
L 3222 0 
L 194 0 
Q 188 203 259 391 
Q 375 700 629 1000 
Q 884 1300 1366 1694 
Q 2113 2306 2375 2664 
Q 2638 3022 2638 3341 
Q 2638 3675 2398 3904 
Q 2159 4134 1775 4134 
Q 1369 4134 1125 3890 
Q 881 3647 878 3216 
L 300 3275 
Q 359 3922 746 4261 
Q 1134 4600 1788 4600 
Q 2447 4600 2831 4234 
Q 3216 3869 3216 3328 
Q 3216 3053 3103 2787 
Q 2991 2522 2730 2228 
Q 2469 1934 1863 1422 
Q 1356 997 1212 845 
Q 1069 694 975 541 
L 3222 541 
z
" id="ArialMT-32" transform="scale(0.015625)"/>
       </defs>
       <use xlink:href="#ArialMT-30"/>
       <use x="55.615234" xlink:href="#ArialMT-2e"/>
       <use x="83.398438" xlink:href="#ArialMT-32"/>
       <use x="139.013672" xlink:href="#ArialMT-30"/>
      </g>
     </g>
    </g>
    <g id="ytick_6">
     <g id="line2d_6">
      <path clip-path="url(#p56a7827c42)" d="M 70.128125 72.614278 
L 560.903125 72.614278 
" style="fill:none;stroke:#ffffff;stroke-linecap:round;"/>
     </g>
     <g id="text_15">
      <!-- 0.25 -->
      <g style="fill:#262626;" transform="translate(29.490625 78.340528)scale(0.16 -0.16)">
       <use xlink:href="#ArialMT-30"/>
       <use x="55.615234" xlink:href="#ArialMT-2e"/>
       <use x="83.398438" xlink:href="#ArialMT-32"/>
       <use x="139.013672" xlink:href="#ArialMT-35"/>
      </g>
     </g>
    </g>
    <g id="text_16">
     <!-- Feature Contribution to Label -->
     <g style="fill:#262626;" transform="translate(21.515625 388.315625)rotate(-90)scale(0.2 -0.2)">
      <defs>
       <path d="M 3763 1606 
L 4369 1453 
Q 4178 706 3683 314 
Q 3188 -78 2472 -78 
Q 1731 -78 1267 223 
Q 803 525 561 1097 
Q 319 1669 319 2325 
Q 319 3041 592 3573 
Q 866 4106 1370 4382 
Q 1875 4659 2481 4659 
Q 3169 4659 3637 4309 
Q 4106 3959 4291 3325 
L 3694 3184 
Q 3534 3684 3231 3912 
Q 2928 4141 2469 4141 
Q 1941 4141 1586 3887 
Q 1231 3634 1087 3207 
Q 944 2781 944 2328 
Q 944 1744 1114 1308 
Q 1284 872 1643 656 
Q 2003 441 2422 441 
Q 2931 441 3284 734 
Q 3638 1028 3763 1606 
z
" id="ArialMT-43" transform="scale(0.015625)"/>
       <path d="M 213 1659 
Q 213 2581 725 3025 
Q 1153 3394 1769 3394 
Q 2453 3394 2887 2945 
Q 3322 2497 3322 1706 
Q 3322 1066 3130 698 
Q 2938 331 2570 128 
Q 2203 -75 1769 -75 
Q 1072 -75 642 372 
Q 213 819 213 1659 
z
M 791 1659 
Q 791 1022 1069 705 
Q 1347 388 1769 388 
Q 2188 388 2466 706 
Q 2744 1025 2744 1678 
Q 2744 2294 2464 2611 
Q 2184 2928 1769 2928 
Q 1347 2928 1069 2612 
Q 791 2297 791 1659 
z
" id="ArialMT-6f" transform="scale(0.015625)"/>
       <path d="M 422 0 
L 422 3319 
L 928 3319 
L 928 2847 
Q 1294 3394 1984 3394 
Q 2284 3394 2536 3286 
Q 2788 3178 2913 3003 
Q 3038 2828 3088 2588 
Q 3119 2431 3119 2041 
L 3119 0 
L 2556 0 
L 2556 2019 
Q 2556 2363 2490 2533 
Q 2425 2703 2258 2804 
Q 2091 2906 1866 2906 
Q 1506 2906 1245 2678 
Q 984 2450 984 1813 
L 984 0 
L 422 0 
z
" id="ArialMT-6e" transform="scale(0.015625)"/>
       <path d="M 425 3934 
L 425 4581 
L 988 4581 
L 988 3934 
L 425 3934 
z
M 425 0 
L 425 3319 
L 988 3319 
L 988 0 
L 425 0 
z
" id="ArialMT-69" transform="scale(0.015625)"/>
      </defs>
      <use xlink:href="#ArialMT-46"/>
      <use x="61.083984" xlink:href="#ArialMT-65"/>
      <use x="116.699219" xlink:href="#ArialMT-61"/>
      <use x="172.314453" xlink:href="#ArialMT-74"/>
      <use x="200.097656" xlink:href="#ArialMT-75"/>
      <use x="255.712891" xlink:href="#ArialMT-72"/>
      <use x="289.013672" xlink:href="#ArialMT-65"/>
      <use x="344.628906" xlink:href="#ArialMT-20"/>
      <use x="372.412109" xlink:href="#ArialMT-43"/>
      <use x="444.628906" xlink:href="#ArialMT-6f"/>
      <use x="500.244141" xlink:href="#ArialMT-6e"/>
      <use x="555.859375" xlink:href="#ArialMT-74"/>
      <use x="583.642578" xlink:href="#ArialMT-72"/>
      <use x="616.943359" xlink:href="#ArialMT-69"/>
      <use x="639.160156" xlink:href="#ArialMT-62"/>
      <use x="694.775391" xlink:href="#ArialMT-75"/>
      <use x="750.390625" xlink:href="#ArialMT-74"/>
      <use x="778.173828" xlink:href="#ArialMT-69"/>
      <use x="800.390625" xlink:href="#ArialMT-6f"/>
      <use x="856.005859" xlink:href="#ArialMT-6e"/>
      <use x="911.621094" xlink:href="#ArialMT-20"/>
      <use x="939.404297" xlink:href="#ArialMT-74"/>
      <use x="967.1875" xlink:href="#ArialMT-6f"/>
      <use x="1022.802734" xlink:href="#ArialMT-20"/>
      <use x="1050.585938" xlink:href="#ArialMT-4c"/>
      <use x="1106.201172" xlink:href="#ArialMT-61"/>
      <use x="1161.816406" xlink:href="#ArialMT-62"/>
      <use x="1217.431641" xlink:href="#ArialMT-65"/>
      <use x="1273.046875" xlink:href="#ArialMT-6c"/>
     </g>
    </g>
   </g>
   <g id="patch_3">
    <path clip-path="url(#p56a7827c42)" d="M 76.262813 510.4 
L 92.621979 510.4 
L 92.621979 445.478088 
L 76.262813 445.478088 
z
" style="fill:#5875a4;stroke:#ffffff;stroke-linejoin:miter;"/>
   </g>
   <g id="patch_4">
    <path clip-path="url(#p56a7827c42)" d="M 137.609688 510.4 
L 153.968854 510.4 
L 153.968854 466.945573 
L 137.609688 466.945573 
z
" style="fill:#5875a4;stroke:#ffffff;stroke-linejoin:miter;"/>
   </g>
   <g id="patch_5">
    <path clip-path="url(#p56a7827c42)" d="M 198.956562 510.4 
L 215.315729 510.4 
L 215.315729 246.315272 
L 198.956562 246.315272 
z
" style="fill:#5875a4;stroke:#ffffff;stroke-linejoin:miter;"/>
   </g>
   <g id="patch_6">
    <path clip-path="url(#p56a7827c42)" d="M 260.303437 510.4 
L 276.662604 510.4 
L 276.662604 399.714901 
L 260.303437 399.714901 
z
" style="fill:#5875a4;stroke:#ffffff;stroke-linejoin:miter;"/>
   </g>
   <g id="patch_7">
    <path clip-path="url(#p56a7827c42)" d="M 321.650312 510.4 
L 338.009479 510.4 
L 338.009479 414.349313 
L 321.650312 414.349313 
z
" style="fill:#5875a4;stroke:#ffffff;stroke-linejoin:miter;"/>
   </g>
   <g id="patch_8">
    <path clip-path="url(#p56a7827c42)" d="M 382.997187 510.4 
L 399.356354 510.4 
L 399.356354 485.711449 
L 382.997187 485.711449 
z
" style="fill:#5875a4;stroke:#ffffff;stroke-linejoin:miter;"/>
   </g>
   <g id="patch_9">
    <path clip-path="url(#p56a7827c42)" d="M 444.344062 510.4 
L 460.703229 510.4 
L 460.703229 144.856863 
L 444.344062 144.856863 
z
" style="fill:#5875a4;stroke:#ffffff;stroke-linejoin:miter;"/>
   </g>
   <g id="patch_10">
    <path clip-path="url(#p56a7827c42)" d="M 505.690937 510.4 
L 522.050104 510.4 
L 522.050104 396.496162 
L 505.690937 396.496162 
z
" style="fill:#5875a4;stroke:#ffffff;stroke-linejoin:miter;"/>
   </g>
   <g id="patch_11">
    <path clip-path="url(#p56a7827c42)" d="M 92.621979 510.4 
L 108.981146 510.4 
L 108.981146 444.579532 
L 92.621979 444.579532 
z
" style="fill:#cc8963;stroke:#ffffff;stroke-linejoin:miter;"/>
   </g>
   <g id="patch_12">
    <path clip-path="url(#p56a7827c42)" d="M 153.968854 510.4 
L 170.328021 510.4 
L 170.328021 469.0486 
L 153.968854 469.0486 
z
" style="fill:#cc8963;stroke:#ffffff;stroke-linejoin:miter;"/>
   </g>
   <g id="patch_13">
    <path clip-path="url(#p56a7827c42)" d="M 215.315729 510.4 
L 231.674896 510.4 
L 231.674896 246.522673 
L 215.315729 246.522673 
z
" style="fill:#cc8963;stroke:#ffffff;stroke-linejoin:miter;"/>
   </g>
   <g id="patch_14">
    <path clip-path="url(#p56a7827c42)" d="M 276.662604 510.4 
L 293.021771 510.4 
L 293.021771 398.932999 
L 276.662604 398.932999 
z
" style="fill:#cc8963;stroke:#ffffff;stroke-linejoin:miter;"/>
   </g>
   <g id="patch_15">
    <path clip-path="url(#p56a7827c42)" d="M 338.009479 510.4 
L 354.368646 510.4 
L 354.368646 419.561664 
L 338.009479 419.561664 
z
" style="fill:#cc8963;stroke:#ffffff;stroke-linejoin:miter;"/>
   </g>
   <g id="patch_16">
    <path clip-path="url(#p56a7827c42)" d="M 399.356354 510.4 
L 415.715521 510.4 
L 415.715521 485.508557 
L 399.356354 485.508557 
z
" style="fill:#cc8963;stroke:#ffffff;stroke-linejoin:miter;"/>
   </g>
   <g id="patch_17">
    <path clip-path="url(#p56a7827c42)" d="M 460.703229 510.4 
L 477.062396 510.4 
L 477.062396 140.5592 
L 460.703229 140.5592 
z
" style="fill:#cc8963;stroke:#ffffff;stroke-linejoin:miter;"/>
   </g>
   <g id="patch_18">
    <path clip-path="url(#p56a7827c42)" d="M 522.050104 510.4 
L 538.409271 510.4 
L 538.409271 397.094258 
L 522.050104 397.094258 
z
" style="fill:#cc8963;stroke:#ffffff;stroke-linejoin:miter;"/>
   </g>
   <g id="patch_19">
    <path clip-path="url(#p56a7827c42)" d="M 108.981146 510.4 
L 125.340312 510.4 
L 125.340312 492.719186 
L 108.981146 492.719186 
z
" style="fill:#5f9e6e;stroke:#ffffff;stroke-linejoin:miter;"/>
   </g>
   <g id="patch_20">
    <path clip-path="url(#p56a7827c42)" d="M 170.328021 510.4 
L 186.687187 510.4 
L 186.687187 477.705326 
L 170.328021 477.705326 
z
" style="fill:#5f9e6e;stroke:#ffffff;stroke-linejoin:miter;"/>
   </g>
   <g id="patch_21">
    <path clip-path="url(#p56a7827c42)" d="M 231.674896 510.4 
L 248.034062 510.4 
L 248.034062 407.707115 
L 231.674896 407.707115 
z
" style="fill:#5f9e6e;stroke:#ffffff;stroke-linejoin:miter;"/>
   </g>
   <g id="patch_22">
    <path clip-path="url(#p56a7827c42)" d="M 293.021771 510.4 
L 309.380937 510.4 
L 309.380937 405.051313 
L 293.021771 405.051313 
z
" style="fill:#5f9e6e;stroke:#ffffff;stroke-linejoin:miter;"/>
   </g>
   <g id="patch_23">
    <path clip-path="url(#p56a7827c42)" d="M 354.368646 510.4 
L 370.727812 510.4 
L 370.727812 485.903399 
L 354.368646 485.903399 
z
" style="fill:#5f9e6e;stroke:#ffffff;stroke-linejoin:miter;"/>
   </g>
   <g id="patch_24">
    <path clip-path="url(#p56a7827c42)" d="M 415.715521 510.4 
L 432.074687 510.4 
L 432.074687 486.259613 
L 415.715521 486.259613 
z
" style="fill:#5f9e6e;stroke:#ffffff;stroke-linejoin:miter;"/>
   </g>
   <g id="patch_25">
    <path clip-path="url(#p56a7827c42)" d="M 477.062396 510.4 
L 493.421562 510.4 
L 493.421562 389.052051 
L 477.062396 389.052051 
z
" style="fill:#5f9e6e;stroke:#ffffff;stroke-linejoin:miter;"/>
   </g>
   <g id="patch_26">
    <path clip-path="url(#p56a7827c42)" d="M 538.409271 510.4 
L 554.768437 510.4 
L 554.768437 482.535077 
L 538.409271 482.535077 
z
" style="fill:#5f9e6e;stroke:#ffffff;stroke-linejoin:miter;"/>
   </g>
   <g id="line2d_7">
    <path clip-path="url(#p56a7827c42)" d="M 84.442396 480.707742 
L 84.442396 401.588173 
" style="fill:none;stroke:#424242;stroke-linecap:round;stroke-width:2.7;"/>
   </g>
   <g id="line2d_8">
    <path clip-path="url(#p56a7827c42)" d="M 78.307708 480.707742 
L 90.577083 480.707742 
" style="fill:none;stroke:#424242;stroke-linecap:round;stroke-width:2.7;"/>
   </g>
   <g id="line2d_9">
    <path clip-path="url(#p56a7827c42)" d="M 78.307708 401.588173 
L 90.577083 401.588173 
" style="fill:none;stroke:#424242;stroke-linecap:round;stroke-width:2.7;"/>
   </g>
   <g id="line2d_10">
    <path clip-path="url(#p56a7827c42)" d="M 145.789271 477.739036 
L 145.789271 451.09034 
" style="fill:none;stroke:#424242;stroke-linecap:round;stroke-width:2.7;"/>
   </g>
   <g id="line2d_11">
    <path clip-path="url(#p56a7827c42)" d="M 139.654583 477.739036 
L 151.923958 477.739036 
" style="fill:none;stroke:#424242;stroke-linecap:round;stroke-width:2.7;"/>
   </g>
   <g id="line2d_12">
    <path clip-path="url(#p56a7827c42)" d="M 139.654583 451.09034 
L 151.923958 451.09034 
" style="fill:none;stroke:#424242;stroke-linecap:round;stroke-width:2.7;"/>
   </g>
   <g id="line2d_13">
    <path clip-path="url(#p56a7827c42)" d="M 207.136146 316.071106 
L 207.136146 177.763156 
" style="fill:none;stroke:#424242;stroke-linecap:round;stroke-width:2.7;"/>
   </g>
   <g id="line2d_14">
    <path clip-path="url(#p56a7827c42)" d="M 201.001458 316.071106 
L 213.270833 316.071106 
" style="fill:none;stroke:#424242;stroke-linecap:round;stroke-width:2.7;"/>
   </g>
   <g id="line2d_15">
    <path clip-path="url(#p56a7827c42)" d="M 201.001458 177.763156 
L 213.270833 177.763156 
" style="fill:none;stroke:#424242;stroke-linecap:round;stroke-width:2.7;"/>
   </g>
   <g id="line2d_16">
    <path clip-path="url(#p56a7827c42)" d="M 268.483021 420.007785 
L 268.483021 375.877305 
" style="fill:none;stroke:#424242;stroke-linecap:round;stroke-width:2.7;"/>
   </g>
   <g id="line2d_17">
    <path clip-path="url(#p56a7827c42)" d="M 262.348333 420.007785 
L 274.617708 420.007785 
" style="fill:none;stroke:#424242;stroke-linecap:round;stroke-width:2.7;"/>
   </g>
   <g id="line2d_18">
    <path clip-path="url(#p56a7827c42)" d="M 262.348333 375.877305 
L 274.617708 375.877305 
" style="fill:none;stroke:#424242;stroke-linecap:round;stroke-width:2.7;"/>
   </g>
   <g id="line2d_19">
    <path clip-path="url(#p56a7827c42)" d="M 329.829896 450.53186 
L 329.829896 371.781143 
" style="fill:none;stroke:#424242;stroke-linecap:round;stroke-width:2.7;"/>
   </g>
   <g id="line2d_20">
    <path clip-path="url(#p56a7827c42)" d="M 323.695208 450.53186 
L 335.964583 450.53186 
" style="fill:none;stroke:#424242;stroke-linecap:round;stroke-width:2.7;"/>
   </g>
   <g id="line2d_21">
    <path clip-path="url(#p56a7827c42)" d="M 323.695208 371.781143 
L 335.964583 371.781143 
" style="fill:none;stroke:#424242;stroke-linecap:round;stroke-width:2.7;"/>
   </g>
   <g id="line2d_22">
    <path clip-path="url(#p56a7827c42)" d="M 391.176771 499.396933 
L 391.176771 467.934045 
" style="fill:none;stroke:#424242;stroke-linecap:round;stroke-width:2.7;"/>
   </g>
   <g id="line2d_23">
    <path clip-path="url(#p56a7827c42)" d="M 385.042083 499.396933 
L 397.311458 499.396933 
" style="fill:none;stroke:#424242;stroke-linecap:round;stroke-width:2.7;"/>
   </g>
   <g id="line2d_24">
    <path clip-path="url(#p56a7827c42)" d="M 385.042083 467.934045 
L 397.311458 467.934045 
" style="fill:none;stroke:#424242;stroke-linecap:round;stroke-width:2.7;"/>
   </g>
   <g id="line2d_25">
    <path clip-path="url(#p56a7827c42)" d="M 452.523646 247.80113 
L 452.523646 31.161905 
" style="fill:none;stroke:#424242;stroke-linecap:round;stroke-width:2.7;"/>
   </g>
   <g id="line2d_26">
    <path clip-path="url(#p56a7827c42)" d="M 446.388958 247.80113 
L 458.658333 247.80113 
" style="fill:none;stroke:#424242;stroke-linecap:round;stroke-width:2.7;"/>
   </g>
   <g id="line2d_27">
    <path clip-path="url(#p56a7827c42)" d="M 446.388958 31.161905 
L 458.658333 31.161905 
" style="fill:none;stroke:#424242;stroke-linecap:round;stroke-width:2.7;"/>
   </g>
   <g id="line2d_28">
    <path clip-path="url(#p56a7827c42)" d="M 513.870521 429.963096 
L 513.870521 358.434974 
" style="fill:none;stroke:#424242;stroke-linecap:round;stroke-width:2.7;"/>
   </g>
   <g id="line2d_29">
    <path clip-path="url(#p56a7827c42)" d="M 507.735833 429.963096 
L 520.005208 429.963096 
" style="fill:none;stroke:#424242;stroke-linecap:round;stroke-width:2.7;"/>
   </g>
   <g id="line2d_30">
    <path clip-path="url(#p56a7827c42)" d="M 507.735833 358.434974 
L 520.005208 358.434974 
" style="fill:none;stroke:#424242;stroke-linecap:round;stroke-width:2.7;"/>
   </g>
   <g id="line2d_31">
    <path clip-path="url(#p56a7827c42)" d="M 100.801563 483.178656 
L 100.801563 397.900189 
" style="fill:none;stroke:#424242;stroke-linecap:round;stroke-width:2.7;"/>
   </g>
   <g id="line2d_32">
    <path clip-path="url(#p56a7827c42)" d="M 94.666875 483.178656 
L 106.93625 483.178656 
" style="fill:none;stroke:#424242;stroke-linecap:round;stroke-width:2.7;"/>
   </g>
   <g id="line2d_33">
    <path clip-path="url(#p56a7827c42)" d="M 94.666875 397.900189 
L 106.93625 397.900189 
" style="fill:none;stroke:#424242;stroke-linecap:round;stroke-width:2.7;"/>
   </g>
   <g id="line2d_34">
    <path clip-path="url(#p56a7827c42)" d="M 162.148438 480.599325 
L 162.148438 452.494237 
" style="fill:none;stroke:#424242;stroke-linecap:round;stroke-width:2.7;"/>
   </g>
   <g id="line2d_35">
    <path clip-path="url(#p56a7827c42)" d="M 156.01375 480.599325 
L 168.283125 480.599325 
" style="fill:none;stroke:#424242;stroke-linecap:round;stroke-width:2.7;"/>
   </g>
   <g id="line2d_36">
    <path clip-path="url(#p56a7827c42)" d="M 156.01375 452.494237 
L 168.283125 452.494237 
" style="fill:none;stroke:#424242;stroke-linecap:round;stroke-width:2.7;"/>
   </g>
   <g id="line2d_37">
    <path clip-path="url(#p56a7827c42)" d="M 223.495312 311.262113 
L 223.495312 175.337203 
" style="fill:none;stroke:#424242;stroke-linecap:round;stroke-width:2.7;"/>
   </g>
   <g id="line2d_38">
    <path clip-path="url(#p56a7827c42)" d="M 217.360625 311.262113 
L 229.63 311.262113 
" style="fill:none;stroke:#424242;stroke-linecap:round;stroke-width:2.7;"/>
   </g>
   <g id="line2d_39">
    <path clip-path="url(#p56a7827c42)" d="M 217.360625 175.337203 
L 229.63 175.337203 
" style="fill:none;stroke:#424242;stroke-linecap:round;stroke-width:2.7;"/>
   </g>
   <g id="line2d_40">
    <path clip-path="url(#p56a7827c42)" d="M 284.842187 418.984449 
L 284.842187 373.527415 
" style="fill:none;stroke:#424242;stroke-linecap:round;stroke-width:2.7;"/>
   </g>
   <g id="line2d_41">
    <path clip-path="url(#p56a7827c42)" d="M 278.7075 418.984449 
L 290.976875 418.984449 
" style="fill:none;stroke:#424242;stroke-linecap:round;stroke-width:2.7;"/>
   </g>
   <g id="line2d_42">
    <path clip-path="url(#p56a7827c42)" d="M 278.7075 373.527415 
L 290.976875 373.527415 
" style="fill:none;stroke:#424242;stroke-linecap:round;stroke-width:2.7;"/>
   </g>
   <g id="line2d_43">
    <path clip-path="url(#p56a7827c42)" d="M 346.189062 456.585796 
L 346.189062 376.722993 
" style="fill:none;stroke:#424242;stroke-linecap:round;stroke-width:2.7;"/>
   </g>
   <g id="line2d_44">
    <path clip-path="url(#p56a7827c42)" d="M 340.054375 456.585796 
L 352.32375 456.585796 
" style="fill:none;stroke:#424242;stroke-linecap:round;stroke-width:2.7;"/>
   </g>
   <g id="line2d_45">
    <path clip-path="url(#p56a7827c42)" d="M 340.054375 376.722993 
L 352.32375 376.722993 
" style="fill:none;stroke:#424242;stroke-linecap:round;stroke-width:2.7;"/>
   </g>
   <g id="line2d_46">
    <path clip-path="url(#p56a7827c42)" d="M 407.535937 497.809964 
L 407.535937 469.972742 
" style="fill:none;stroke:#424242;stroke-linecap:round;stroke-width:2.7;"/>
   </g>
   <g id="line2d_47">
    <path clip-path="url(#p56a7827c42)" d="M 401.40125 497.809964 
L 413.670625 497.809964 
" style="fill:none;stroke:#424242;stroke-linecap:round;stroke-width:2.7;"/>
   </g>
   <g id="line2d_48">
    <path clip-path="url(#p56a7827c42)" d="M 401.40125 469.972742 
L 413.670625 469.972742 
" style="fill:none;stroke:#424242;stroke-linecap:round;stroke-width:2.7;"/>
   </g>
   <g id="line2d_49">
    <path clip-path="url(#p56a7827c42)" d="M 468.882812 240.9354 
L 468.882812 36.903706 
" style="fill:none;stroke:#424242;stroke-linecap:round;stroke-width:2.7;"/>
   </g>
   <g id="line2d_50">
    <path clip-path="url(#p56a7827c42)" d="M 462.748125 240.9354 
L 475.0175 240.9354 
" style="fill:none;stroke:#424242;stroke-linecap:round;stroke-width:2.7;"/>
   </g>
   <g id="line2d_51">
    <path clip-path="url(#p56a7827c42)" d="M 462.748125 36.903706 
L 475.0175 36.903706 
" style="fill:none;stroke:#424242;stroke-linecap:round;stroke-width:2.7;"/>
   </g>
   <g id="line2d_52">
    <path clip-path="url(#p56a7827c42)" d="M 530.229687 428.047264 
L 530.229687 358.248814 
" style="fill:none;stroke:#424242;stroke-linecap:round;stroke-width:2.7;"/>
   </g>
   <g id="line2d_53">
    <path clip-path="url(#p56a7827c42)" d="M 524.095 428.047264 
L 536.364375 428.047264 
" style="fill:none;stroke:#424242;stroke-linecap:round;stroke-width:2.7;"/>
   </g>
   <g id="line2d_54">
    <path clip-path="url(#p56a7827c42)" d="M 524.095 358.248814 
L 536.364375 358.248814 
" style="fill:none;stroke:#424242;stroke-linecap:round;stroke-width:2.7;"/>
   </g>
   <g id="line2d_55">
    <path clip-path="url(#p56a7827c42)" d="M 117.160729 495.033693 
L 117.160729 490.395823 
" style="fill:none;stroke:#424242;stroke-linecap:round;stroke-width:2.7;"/>
   </g>
   <g id="line2d_56">
    <path clip-path="url(#p56a7827c42)" d="M 111.026042 495.033693 
L 123.295417 495.033693 
" style="fill:none;stroke:#424242;stroke-linecap:round;stroke-width:2.7;"/>
   </g>
   <g id="line2d_57">
    <path clip-path="url(#p56a7827c42)" d="M 111.026042 490.395823 
L 123.295417 490.395823 
" style="fill:none;stroke:#424242;stroke-linecap:round;stroke-width:2.7;"/>
   </g>
   <g id="line2d_58">
    <path clip-path="url(#p56a7827c42)" d="M 178.507604 482.31306 
L 178.507604 472.978282 
" style="fill:none;stroke:#424242;stroke-linecap:round;stroke-width:2.7;"/>
   </g>
   <g id="line2d_59">
    <path clip-path="url(#p56a7827c42)" d="M 172.372917 482.31306 
L 184.642292 482.31306 
" style="fill:none;stroke:#424242;stroke-linecap:round;stroke-width:2.7;"/>
   </g>
   <g id="line2d_60">
    <path clip-path="url(#p56a7827c42)" d="M 172.372917 472.978282 
L 184.642292 472.978282 
" style="fill:none;stroke:#424242;stroke-linecap:round;stroke-width:2.7;"/>
   </g>
   <g id="line2d_61">
    <path clip-path="url(#p56a7827c42)" d="M 239.854479 419.684293 
L 239.854479 396.05452 
" style="fill:none;stroke:#424242;stroke-linecap:round;stroke-width:2.7;"/>
   </g>
   <g id="line2d_62">
    <path clip-path="url(#p56a7827c42)" d="M 233.719792 419.684293 
L 245.989167 419.684293 
" style="fill:none;stroke:#424242;stroke-linecap:round;stroke-width:2.7;"/>
   </g>
   <g id="line2d_63">
    <path clip-path="url(#p56a7827c42)" d="M 233.719792 396.05452 
L 245.989167 396.05452 
" style="fill:none;stroke:#424242;stroke-linecap:round;stroke-width:2.7;"/>
   </g>
   <g id="line2d_64">
    <path clip-path="url(#p56a7827c42)" d="M 301.201354 417.424563 
L 301.201354 391.742788 
" style="fill:none;stroke:#424242;stroke-linecap:round;stroke-width:2.7;"/>
   </g>
   <g id="line2d_65">
    <path clip-path="url(#p56a7827c42)" d="M 295.066667 417.424563 
L 307.336042 417.424563 
" style="fill:none;stroke:#424242;stroke-linecap:round;stroke-width:2.7;"/>
   </g>
   <g id="line2d_66">
    <path clip-path="url(#p56a7827c42)" d="M 295.066667 391.742788 
L 307.336042 391.742788 
" style="fill:none;stroke:#424242;stroke-linecap:round;stroke-width:2.7;"/>
   </g>
   <g id="line2d_67">
    <path clip-path="url(#p56a7827c42)" d="M 362.548229 489.443484 
L 362.548229 482.189166 
" style="fill:none;stroke:#424242;stroke-linecap:round;stroke-width:2.7;"/>
   </g>
   <g id="line2d_68">
    <path clip-path="url(#p56a7827c42)" d="M 356.413542 489.443484 
L 368.682917 489.443484 
" style="fill:none;stroke:#424242;stroke-linecap:round;stroke-width:2.7;"/>
   </g>
   <g id="line2d_69">
    <path clip-path="url(#p56a7827c42)" d="M 356.413542 482.189166 
L 368.682917 482.189166 
" style="fill:none;stroke:#424242;stroke-linecap:round;stroke-width:2.7;"/>
   </g>
   <g id="line2d_70">
    <path clip-path="url(#p56a7827c42)" d="M 423.895104 490.223959 
L 423.895104 482.451685 
" style="fill:none;stroke:#424242;stroke-linecap:round;stroke-width:2.7;"/>
   </g>
   <g id="line2d_71">
    <path clip-path="url(#p56a7827c42)" d="M 417.760417 490.223959 
L 430.029792 490.223959 
" style="fill:none;stroke:#424242;stroke-linecap:round;stroke-width:2.7;"/>
   </g>
   <g id="line2d_72">
    <path clip-path="url(#p56a7827c42)" d="M 417.760417 482.451685 
L 430.029792 482.451685 
" style="fill:none;stroke:#424242;stroke-linecap:round;stroke-width:2.7;"/>
   </g>
   <g id="line2d_73">
    <path clip-path="url(#p56a7827c42)" d="M 485.241979 406.091914 
L 485.241979 372.519745 
" style="fill:none;stroke:#424242;stroke-linecap:round;stroke-width:2.7;"/>
   </g>
   <g id="line2d_74">
    <path clip-path="url(#p56a7827c42)" d="M 479.107292 406.091914 
L 491.376667 406.091914 
" style="fill:none;stroke:#424242;stroke-linecap:round;stroke-width:2.7;"/>
   </g>
   <g id="line2d_75">
    <path clip-path="url(#p56a7827c42)" d="M 479.107292 372.519745 
L 491.376667 372.519745 
" style="fill:none;stroke:#424242;stroke-linecap:round;stroke-width:2.7;"/>
   </g>
   <g id="line2d_76">
    <path clip-path="url(#p56a7827c42)" d="M 546.588854 486.895929 
L 546.588854 477.628932 
" style="fill:none;stroke:#424242;stroke-linecap:round;stroke-width:2.7;"/>
   </g>
   <g id="line2d_77">
    <path clip-path="url(#p56a7827c42)" d="M 540.454167 486.895929 
L 552.723542 486.895929 
" style="fill:none;stroke:#424242;stroke-linecap:round;stroke-width:2.7;"/>
   </g>
   <g id="line2d_78">
    <path clip-path="url(#p56a7827c42)" d="M 540.454167 477.628932 
L 552.723542 477.628932 
" style="fill:none;stroke:#424242;stroke-linecap:round;stroke-width:2.7;"/>
   </g>
   <g id="patch_27">
    <path d="M 70.128125 510.4 
L 70.128125 7.2 
" style="fill:none;stroke:#ffffff;stroke-linecap:square;stroke-linejoin:miter;stroke-width:1.25;"/>
   </g>
   <g id="patch_28">
    <path d="M 560.903125 510.4 
L 560.903125 7.2 
" style="fill:none;stroke:#ffffff;stroke-linecap:square;stroke-linejoin:miter;stroke-width:1.25;"/>
   </g>
   <g id="patch_29">
    <path d="M 70.128125 510.4 
L 560.903125 510.4 
" style="fill:none;stroke:#ffffff;stroke-linecap:square;stroke-linejoin:miter;stroke-width:1.25;"/>
   </g>
   <g id="patch_30">
    <path d="M 70.128125 7.2 
L 560.903125 7.2 
" style="fill:none;stroke:#ffffff;stroke-linecap:square;stroke-linejoin:miter;stroke-width:1.25;"/>
   </g>
   <g id="legend_1">
    <g id="patch_31">
     <path d="M 84.128125 108.30625 
L 228.1625 108.30625 
Q 232.1625 108.30625 232.1625 104.30625 
L 232.1625 21.2 
Q 232.1625 17.2 228.1625 17.2 
L 84.128125 17.2 
Q 80.128125 17.2 80.128125 21.2 
L 80.128125 104.30625 
Q 80.128125 108.30625 84.128125 108.30625 
z
" style="fill:#eaeaf2;opacity:0.8;stroke:#cccccc;stroke-linejoin:miter;"/>
    </g>
    <g id="patch_32">
     <path d="M 88.128125 39.515625 
L 128.128125 39.515625 
L 128.128125 25.515625 
L 88.128125 25.515625 
z
" style="fill:#5875a4;stroke:#ffffff;stroke-linejoin:miter;"/>
    </g>
    <g id="text_17">
     <!-- kernel -->
     <g style="fill:#262626;" transform="translate(144.128125 39.515625)scale(0.2 -0.2)">
      <defs>
       <path d="M 425 0 
L 425 4581 
L 988 4581 
L 988 1969 
L 2319 3319 
L 3047 3319 
L 1778 2088 
L 3175 0 
L 2481 0 
L 1384 1697 
L 988 1316 
L 988 0 
L 425 0 
z
" id="ArialMT-6b" transform="scale(0.015625)"/>
      </defs>
      <use xlink:href="#ArialMT-6b"/>
      <use x="50" xlink:href="#ArialMT-65"/>
      <use x="105.615234" xlink:href="#ArialMT-72"/>
      <use x="138.916016" xlink:href="#ArialMT-6e"/>
      <use x="194.53125" xlink:href="#ArialMT-65"/>
      <use x="250.146484" xlink:href="#ArialMT-6c"/>
     </g>
    </g>
    <g id="patch_33">
     <path d="M 88.128125 67.80625 
L 128.128125 67.80625 
L 128.128125 53.80625 
L 88.128125 53.80625 
z
" style="fill:#cc8963;stroke:#ffffff;stroke-linejoin:miter;"/>
    </g>
    <g id="text_18">
     <!-- sampling -->
     <g style="fill:#262626;" transform="translate(144.128125 67.80625)scale(0.2 -0.2)">
      <defs>
       <path d="M 197 991 
L 753 1078 
Q 800 744 1014 566 
Q 1228 388 1613 388 
Q 2000 388 2187 545 
Q 2375 703 2375 916 
Q 2375 1106 2209 1216 
Q 2094 1291 1634 1406 
Q 1016 1563 777 1677 
Q 538 1791 414 1992 
Q 291 2194 291 2438 
Q 291 2659 392 2848 
Q 494 3038 669 3163 
Q 800 3259 1026 3326 
Q 1253 3394 1513 3394 
Q 1903 3394 2198 3281 
Q 2494 3169 2634 2976 
Q 2775 2784 2828 2463 
L 2278 2388 
Q 2241 2644 2061 2787 
Q 1881 2931 1553 2931 
Q 1166 2931 1000 2803 
Q 834 2675 834 2503 
Q 834 2394 903 2306 
Q 972 2216 1119 2156 
Q 1203 2125 1616 2013 
Q 2213 1853 2448 1751 
Q 2684 1650 2818 1456 
Q 2953 1263 2953 975 
Q 2953 694 2789 445 
Q 2625 197 2315 61 
Q 2006 -75 1616 -75 
Q 969 -75 630 194 
Q 291 463 197 991 
z
" id="ArialMT-73" transform="scale(0.015625)"/>
       <path d="M 422 0 
L 422 3319 
L 925 3319 
L 925 2853 
Q 1081 3097 1340 3245 
Q 1600 3394 1931 3394 
Q 2300 3394 2536 3241 
Q 2772 3088 2869 2813 
Q 3263 3394 3894 3394 
Q 4388 3394 4653 3120 
Q 4919 2847 4919 2278 
L 4919 0 
L 4359 0 
L 4359 2091 
Q 4359 2428 4304 2576 
Q 4250 2725 4106 2815 
Q 3963 2906 3769 2906 
Q 3419 2906 3187 2673 
Q 2956 2441 2956 1928 
L 2956 0 
L 2394 0 
L 2394 2156 
Q 2394 2531 2256 2718 
Q 2119 2906 1806 2906 
Q 1569 2906 1367 2781 
Q 1166 2656 1075 2415 
Q 984 2175 984 1722 
L 984 0 
L 422 0 
z
" id="ArialMT-6d" transform="scale(0.015625)"/>
       <path d="M 422 -1272 
L 422 3319 
L 934 3319 
L 934 2888 
Q 1116 3141 1344 3267 
Q 1572 3394 1897 3394 
Q 2322 3394 2647 3175 
Q 2972 2956 3137 2557 
Q 3303 2159 3303 1684 
Q 3303 1175 3120 767 
Q 2938 359 2589 142 
Q 2241 -75 1856 -75 
Q 1575 -75 1351 44 
Q 1128 163 984 344 
L 984 -1272 
L 422 -1272 
z
M 931 1641 
Q 931 1000 1190 694 
Q 1450 388 1819 388 
Q 2194 388 2461 705 
Q 2728 1022 2728 1688 
Q 2728 2322 2467 2637 
Q 2206 2953 1844 2953 
Q 1484 2953 1207 2617 
Q 931 2281 931 1641 
z
" id="ArialMT-70" transform="scale(0.015625)"/>
       <path d="M 319 -275 
L 866 -356 
Q 900 -609 1056 -725 
Q 1266 -881 1628 -881 
Q 2019 -881 2231 -725 
Q 2444 -569 2519 -288 
Q 2563 -116 2559 434 
Q 2191 0 1641 0 
Q 956 0 581 494 
Q 206 988 206 1678 
Q 206 2153 378 2554 
Q 550 2956 876 3175 
Q 1203 3394 1644 3394 
Q 2231 3394 2613 2919 
L 2613 3319 
L 3131 3319 
L 3131 450 
Q 3131 -325 2973 -648 
Q 2816 -972 2473 -1159 
Q 2131 -1347 1631 -1347 
Q 1038 -1347 672 -1080 
Q 306 -813 319 -275 
z
M 784 1719 
Q 784 1066 1043 766 
Q 1303 466 1694 466 
Q 2081 466 2343 764 
Q 2606 1063 2606 1700 
Q 2606 2309 2336 2618 
Q 2066 2928 1684 2928 
Q 1309 2928 1046 2623 
Q 784 2319 784 1719 
z
" id="ArialMT-67" transform="scale(0.015625)"/>
      </defs>
      <use xlink:href="#ArialMT-73"/>
      <use x="50" xlink:href="#ArialMT-61"/>
      <use x="105.615234" xlink:href="#ArialMT-6d"/>
      <use x="188.916016" xlink:href="#ArialMT-70"/>
      <use x="244.53125" xlink:href="#ArialMT-6c"/>
      <use x="266.748047" xlink:href="#ArialMT-69"/>
      <use x="288.964844" xlink:href="#ArialMT-6e"/>
      <use x="344.580078" xlink:href="#ArialMT-67"/>
     </g>
    </g>
    <g id="patch_34">
     <path d="M 88.128125 96.33125 
L 128.128125 96.33125 
L 128.128125 82.33125 
L 88.128125 82.33125 
z
" style="fill:#5f9e6e;stroke:#ffffff;stroke-linejoin:miter;"/>
    </g>
    <g id="text_19">
     <!-- lime -->
     <g style="fill:#262626;" transform="translate(144.128125 96.33125)scale(0.2 -0.2)">
      <use xlink:href="#ArialMT-6c"/>
      <use x="22.216797" xlink:href="#ArialMT-69"/>
      <use x="44.433594" xlink:href="#ArialMT-6d"/>
      <use x="127.734375" xlink:href="#ArialMT-65"/>
     </g>
    </g>
   </g>
  </g>
 </g>
 <defs>
  <clipPath id="p56a7827c42">
   <rect height="503.2" width="490.775" x="70.128125" y="7.2"/>
  </clipPath>
 </defs>
</svg>
