<?xml version="1.0" encoding="utf-8" standalone="no"?>
<!DOCTYPE svg PUBLIC "-//W3C//DTD SVG 1.1//EN"
  "http://www.w3.org/Graphics/SVG/1.1/DTD/svg11.dtd">
<svg height="576pt" version="1.1" viewBox="0 0 576 576" width="576pt" xmlns="http://www.w3.org/2000/svg" xmlns:xlink="http://www.w3.org/1999/xlink">
 <metadata>
  <rdf:RDF xmlns:cc="http://creativecommons.org/ns#" xmlns:dc="http://purl.org/dc/elements/1.1/" xmlns:rdf="http://www.w3.org/1999/02/22-rdf-syntax-ns#">
   <cc:Work>
    <dc:type rdf:resource="http://purl.org/dc/dcmitype/StillImage"/>
    <dc:date>2021-10-08T02:17:29.339636</dc:date>
    <dc:format>image/svg+xml</dc:format>
    <dc:creator>
     <cc:Agent>
      <dc:title>Matplotlib v3.4.2, https://matplotlib.org/</dc:title>
     </cc:Agent>
    </dc:creator>
   </cc:Work>
  </rdf:RDF>
 </metadata>
 <defs>
  <style type="text/css">*{stroke-linecap:butt;stroke-linejoin:round;}</style>
 </defs>
 <g id="figure_1">
  <g id="patch_1">
   <path d="M 0 576 
L 576 576 
L 576 0 
L 0 0 
z
" style="fill:none;"/>
  </g>
  <g id="axes_1">
   <g id="patch_2">
    <path d="M 65.55 514 
L 552.521875 514 
L 552.521875 10.8 
L 65.55 10.8 
z
" style="fill:#eaeaf2;"/>
   </g>
   <g id="matplotlib.axis_1">
    <g id="xtick_1">
     <g id="text_1">
      <!-- $x_0$:$x_t$ -->
      <g style="fill:#262626;" transform="translate(78.065742 534.9525)scale(0.16 -0.16)">
       <defs>
        <path d="M 3841 3500 
L 2234 1784 
L 3219 0 
L 2559 0 
L 1819 1388 
L 531 0 
L -166 0 
L 1556 1844 
L 641 3500 
L 1300 3500 
L 1972 2234 
L 3144 3500 
L 3841 3500 
z
" id="DejaVuSans-Oblique-78" transform="scale(0.015625)"/>
        <path d="M 2034 4250 
Q 1547 4250 1301 3770 
Q 1056 3291 1056 2328 
Q 1056 1369 1301 889 
Q 1547 409 2034 409 
Q 2525 409 2770 889 
Q 3016 1369 3016 2328 
Q 3016 3291 2770 3770 
Q 2525 4250 2034 4250 
z
M 2034 4750 
Q 2819 4750 3233 4129 
Q 3647 3509 3647 2328 
Q 3647 1150 3233 529 
Q 2819 -91 2034 -91 
Q 1250 -91 836 529 
Q 422 1150 422 2328 
Q 422 3509 836 4129 
Q 1250 4750 2034 4750 
z
" id="DejaVuSans-30" transform="scale(0.015625)"/>
        <path d="M 578 2678 
L 578 3319 
L 1219 3319 
L 1219 2678 
L 578 2678 
z
M 578 0 
L 578 641 
L 1219 641 
L 1219 0 
L 578 0 
z
" id="ArialMT-3a" transform="scale(0.015625)"/>
        <path d="M 2706 3500 
L 2619 3053 
L 1472 3053 
L 1100 1153 
Q 1081 1047 1072 975 
Q 1063 903 1063 863 
Q 1063 663 1183 572 
Q 1303 481 1569 481 
L 2150 481 
L 2053 0 
L 1503 0 
Q 991 0 739 200 
Q 488 400 488 806 
Q 488 878 497 964 
Q 506 1050 525 1153 
L 897 3053 
L 409 3053 
L 500 3500 
L 978 3500 
L 1172 4494 
L 1747 4494 
L 1556 3500 
L 2706 3500 
z
" id="DejaVuSans-Oblique-74" transform="scale(0.015625)"/>
       </defs>
       <use transform="translate(0 0.3125)" xlink:href="#DejaVuSans-Oblique-78"/>
       <use transform="translate(59.179688 -16.09375)scale(0.7)" xlink:href="#DejaVuSans-30"/>
       <use transform="translate(106.450195 0.3125)" xlink:href="#ArialMT-3a"/>
       <use transform="translate(134.233398 0.3125)" xlink:href="#DejaVuSans-Oblique-78"/>
       <use transform="translate(193.413086 -16.09375)scale(0.7)" xlink:href="#DejaVuSans-Oblique-74"/>
      </g>
     </g>
    </g>
    <g id="xtick_2">
     <g id="text_2">
      <!-- $v_0$:$x_t$ -->
      <g style="fill:#262626;" transform="translate(138.937227 534.9525)scale(0.16 -0.16)">
       <defs>
        <path d="M 459 3500 
L 1069 3500 
L 1581 525 
L 3256 3500 
L 3866 3500 
L 1875 0 
L 1100 0 
L 459 3500 
z
" id="DejaVuSans-Oblique-76" transform="scale(0.015625)"/>
       </defs>
       <use transform="translate(0 0.3125)" xlink:href="#DejaVuSans-Oblique-76"/>
       <use transform="translate(59.179688 -16.09375)scale(0.7)" xlink:href="#DejaVuSans-30"/>
       <use transform="translate(106.450195 0.3125)" xlink:href="#ArialMT-3a"/>
       <use transform="translate(134.233398 0.3125)" xlink:href="#DejaVuSans-Oblique-78"/>
       <use transform="translate(193.413086 -16.09375)scale(0.7)" xlink:href="#DejaVuSans-Oblique-74"/>
      </g>
     </g>
    </g>
    <g id="xtick_3">
     <g id="text_3">
      <!-- $t$:$x_t$ -->
      <g style="fill:#262626;" transform="translate(205.168711 534.9525)scale(0.16 -0.16)">
       <use transform="translate(0 0.78125)" xlink:href="#DejaVuSans-Oblique-74"/>
       <use transform="translate(39.208984 0.78125)" xlink:href="#ArialMT-3a"/>
       <use transform="translate(66.992188 0.78125)" xlink:href="#DejaVuSans-Oblique-78"/>
       <use transform="translate(126.171875 -15.625)scale(0.7)" xlink:href="#DejaVuSans-Oblique-74"/>
      </g>
     </g>
    </g>
    <g id="xtick_4">
     <g id="text_4">
      <!-- Random:$x_t$ -->
      <g style="fill:#262626;" transform="translate(238.920195 534.9525)scale(0.16 -0.16)">
       <defs>
        <path d="M 503 0 
L 503 4581 
L 2534 4581 
Q 3147 4581 3465 4457 
Q 3784 4334 3975 4021 
Q 4166 3709 4166 3331 
Q 4166 2844 3850 2509 
Q 3534 2175 2875 2084 
Q 3116 1969 3241 1856 
Q 3506 1613 3744 1247 
L 4541 0 
L 3778 0 
L 3172 953 
Q 2906 1366 2734 1584 
Q 2563 1803 2427 1890 
Q 2291 1978 2150 2013 
Q 2047 2034 1813 2034 
L 1109 2034 
L 1109 0 
L 503 0 
z
M 1109 2559 
L 2413 2559 
Q 2828 2559 3062 2645 
Q 3297 2731 3419 2920 
Q 3541 3109 3541 3331 
Q 3541 3656 3305 3865 
Q 3069 4075 2559 4075 
L 1109 4075 
L 1109 2559 
z
" id="ArialMT-52" transform="scale(0.015625)"/>
        <path d="M 2588 409 
Q 2275 144 1986 34 
Q 1697 -75 1366 -75 
Q 819 -75 525 192 
Q 231 459 231 875 
Q 231 1119 342 1320 
Q 453 1522 633 1644 
Q 813 1766 1038 1828 
Q 1203 1872 1538 1913 
Q 2219 1994 2541 2106 
Q 2544 2222 2544 2253 
Q 2544 2597 2384 2738 
Q 2169 2928 1744 2928 
Q 1347 2928 1158 2789 
Q 969 2650 878 2297 
L 328 2372 
Q 403 2725 575 2942 
Q 747 3159 1072 3276 
Q 1397 3394 1825 3394 
Q 2250 3394 2515 3294 
Q 2781 3194 2906 3042 
Q 3031 2891 3081 2659 
Q 3109 2516 3109 2141 
L 3109 1391 
Q 3109 606 3145 398 
Q 3181 191 3288 0 
L 2700 0 
Q 2613 175 2588 409 
z
M 2541 1666 
Q 2234 1541 1622 1453 
Q 1275 1403 1131 1340 
Q 988 1278 909 1158 
Q 831 1038 831 891 
Q 831 666 1001 516 
Q 1172 366 1500 366 
Q 1825 366 2078 508 
Q 2331 650 2450 897 
Q 2541 1088 2541 1459 
L 2541 1666 
z
" id="ArialMT-61" transform="scale(0.015625)"/>
        <path d="M 422 0 
L 422 3319 
L 928 3319 
L 928 2847 
Q 1294 3394 1984 3394 
Q 2284 3394 2536 3286 
Q 2788 3178 2913 3003 
Q 3038 2828 3088 2588 
Q 3119 2431 3119 2041 
L 3119 0 
L 2556 0 
L 2556 2019 
Q 2556 2363 2490 2533 
Q 2425 2703 2258 2804 
Q 2091 2906 1866 2906 
Q 1506 2906 1245 2678 
Q 984 2450 984 1813 
L 984 0 
L 422 0 
z
" id="ArialMT-6e" transform="scale(0.015625)"/>
        <path d="M 2575 0 
L 2575 419 
Q 2259 -75 1647 -75 
Q 1250 -75 917 144 
Q 584 363 401 755 
Q 219 1147 219 1656 
Q 219 2153 384 2558 
Q 550 2963 881 3178 
Q 1213 3394 1622 3394 
Q 1922 3394 2156 3267 
Q 2391 3141 2538 2938 
L 2538 4581 
L 3097 4581 
L 3097 0 
L 2575 0 
z
M 797 1656 
Q 797 1019 1065 703 
Q 1334 388 1700 388 
Q 2069 388 2326 689 
Q 2584 991 2584 1609 
Q 2584 2291 2321 2609 
Q 2059 2928 1675 2928 
Q 1300 2928 1048 2622 
Q 797 2316 797 1656 
z
" id="ArialMT-64" transform="scale(0.015625)"/>
        <path d="M 213 1659 
Q 213 2581 725 3025 
Q 1153 3394 1769 3394 
Q 2453 3394 2887 2945 
Q 3322 2497 3322 1706 
Q 3322 1066 3130 698 
Q 2938 331 2570 128 
Q 2203 -75 1769 -75 
Q 1072 -75 642 372 
Q 213 819 213 1659 
z
M 791 1659 
Q 791 1022 1069 705 
Q 1347 388 1769 388 
Q 2188 388 2466 706 
Q 2744 1025 2744 1678 
Q 2744 2294 2464 2611 
Q 2184 2928 1769 2928 
Q 1347 2928 1069 2612 
Q 791 2297 791 1659 
z
" id="ArialMT-6f" transform="scale(0.015625)"/>
        <path d="M 422 0 
L 422 3319 
L 925 3319 
L 925 2853 
Q 1081 3097 1340 3245 
Q 1600 3394 1931 3394 
Q 2300 3394 2536 3241 
Q 2772 3088 2869 2813 
Q 3263 3394 3894 3394 
Q 4388 3394 4653 3120 
Q 4919 2847 4919 2278 
L 4919 0 
L 4359 0 
L 4359 2091 
Q 4359 2428 4304 2576 
Q 4250 2725 4106 2815 
Q 3963 2906 3769 2906 
Q 3419 2906 3187 2673 
Q 2956 2441 2956 1928 
L 2956 0 
L 2394 0 
L 2394 2156 
Q 2394 2531 2256 2718 
Q 2119 2906 1806 2906 
Q 1569 2906 1367 2781 
Q 1166 2656 1075 2415 
Q 984 2175 984 1722 
L 984 0 
L 422 0 
z
" id="ArialMT-6d" transform="scale(0.015625)"/>
       </defs>
       <use transform="translate(0 0.421875)" xlink:href="#ArialMT-52"/>
       <use transform="translate(72.216797 0.421875)" xlink:href="#ArialMT-61"/>
       <use transform="translate(127.832031 0.421875)" xlink:href="#ArialMT-6e"/>
       <use transform="translate(183.447266 0.421875)" xlink:href="#ArialMT-64"/>
       <use transform="translate(239.0625 0.421875)" xlink:href="#ArialMT-6f"/>
       <use transform="translate(294.677734 0.421875)" xlink:href="#ArialMT-6d"/>
       <use transform="translate(377.978516 0.421875)" xlink:href="#ArialMT-3a"/>
       <use transform="translate(405.761719 0.421875)" xlink:href="#DejaVuSans-Oblique-78"/>
       <use transform="translate(464.941406 -15.984375)scale(0.7)" xlink:href="#DejaVuSans-Oblique-74"/>
      </g>
     </g>
    </g>
    <g id="xtick_5">
     <g id="text_5">
      <!-- $x_0$:$v_t$ -->
      <g style="fill:#262626;" transform="translate(321.55168 534.9525)scale(0.16 -0.16)">
       <use transform="translate(0 0.3125)" xlink:href="#DejaVuSans-Oblique-78"/>
       <use transform="translate(59.179688 -16.09375)scale(0.7)" xlink:href="#DejaVuSans-30"/>
       <use transform="translate(106.450195 0.3125)" xlink:href="#ArialMT-3a"/>
       <use transform="translate(134.233398 0.3125)" xlink:href="#DejaVuSans-Oblique-76"/>
       <use transform="translate(193.413086 -16.09375)scale(0.7)" xlink:href="#DejaVuSans-Oblique-74"/>
      </g>
     </g>
    </g>
    <g id="xtick_6">
     <g id="text_6">
      <!-- $v_0$:$v_t$ -->
      <g style="fill:#262626;" transform="translate(382.423164 534.9525)scale(0.16 -0.16)">
       <use transform="translate(0 0.3125)" xlink:href="#DejaVuSans-Oblique-76"/>
       <use transform="translate(59.179688 -16.09375)scale(0.7)" xlink:href="#DejaVuSans-30"/>
       <use transform="translate(106.450195 0.3125)" xlink:href="#ArialMT-3a"/>
       <use transform="translate(134.233398 0.3125)" xlink:href="#DejaVuSans-Oblique-76"/>
       <use transform="translate(193.413086 -16.09375)scale(0.7)" xlink:href="#DejaVuSans-Oblique-74"/>
      </g>
     </g>
    </g>
    <g id="xtick_7">
     <g id="text_7">
      <!-- $t$:$v_t$ -->
      <g style="fill:#262626;" transform="translate(448.654648 534.9525)scale(0.16 -0.16)">
       <use transform="translate(0 0.78125)" xlink:href="#DejaVuSans-Oblique-74"/>
       <use transform="translate(39.208984 0.78125)" xlink:href="#ArialMT-3a"/>
       <use transform="translate(66.992188 0.78125)" xlink:href="#DejaVuSans-Oblique-76"/>
       <use transform="translate(126.171875 -15.625)scale(0.7)" xlink:href="#DejaVuSans-Oblique-74"/>
      </g>
     </g>
    </g>
    <g id="xtick_8">
     <g id="text_8">
      <!-- Random:$v_t$ -->
      <g style="fill:#262626;" transform="translate(482.406133 534.9525)scale(0.16 -0.16)">
       <use transform="translate(0 0.421875)" xlink:href="#ArialMT-52"/>
       <use transform="translate(72.216797 0.421875)" xlink:href="#ArialMT-61"/>
       <use transform="translate(127.832031 0.421875)" xlink:href="#ArialMT-6e"/>
       <use transform="translate(183.447266 0.421875)" xlink:href="#ArialMT-64"/>
       <use transform="translate(239.0625 0.421875)" xlink:href="#ArialMT-6f"/>
       <use transform="translate(294.677734 0.421875)" xlink:href="#ArialMT-6d"/>
       <use transform="translate(377.978516 0.421875)" xlink:href="#ArialMT-3a"/>
       <use transform="translate(405.761719 0.421875)" xlink:href="#DejaVuSans-Oblique-76"/>
       <use transform="translate(464.941406 -15.984375)scale(0.7)" xlink:href="#DejaVuSans-Oblique-74"/>
      </g>
     </g>
    </g>
    <g id="text_9">
     <!-- Feature : Label -->
     <g style="fill:#262626;" transform="translate(241.776563 556.448125)scale(0.2 -0.2)">
      <defs>
       <path d="M 525 0 
L 525 4581 
L 3616 4581 
L 3616 4041 
L 1131 4041 
L 1131 2622 
L 3281 2622 
L 3281 2081 
L 1131 2081 
L 1131 0 
L 525 0 
z
" id="ArialMT-46" transform="scale(0.015625)"/>
       <path d="M 2694 1069 
L 3275 997 
Q 3138 488 2766 206 
Q 2394 -75 1816 -75 
Q 1088 -75 661 373 
Q 234 822 234 1631 
Q 234 2469 665 2931 
Q 1097 3394 1784 3394 
Q 2450 3394 2872 2941 
Q 3294 2488 3294 1666 
Q 3294 1616 3291 1516 
L 816 1516 
Q 847 969 1125 678 
Q 1403 388 1819 388 
Q 2128 388 2347 550 
Q 2566 713 2694 1069 
z
M 847 1978 
L 2700 1978 
Q 2663 2397 2488 2606 
Q 2219 2931 1791 2931 
Q 1403 2931 1139 2672 
Q 875 2413 847 1978 
z
" id="ArialMT-65" transform="scale(0.015625)"/>
       <path d="M 1650 503 
L 1731 6 
Q 1494 -44 1306 -44 
Q 1000 -44 831 53 
Q 663 150 594 308 
Q 525 466 525 972 
L 525 2881 
L 113 2881 
L 113 3319 
L 525 3319 
L 525 4141 
L 1084 4478 
L 1084 3319 
L 1650 3319 
L 1650 2881 
L 1084 2881 
L 1084 941 
Q 1084 700 1114 631 
Q 1144 563 1211 522 
Q 1278 481 1403 481 
Q 1497 481 1650 503 
z
" id="ArialMT-74" transform="scale(0.015625)"/>
       <path d="M 2597 0 
L 2597 488 
Q 2209 -75 1544 -75 
Q 1250 -75 995 37 
Q 741 150 617 320 
Q 494 491 444 738 
Q 409 903 409 1263 
L 409 3319 
L 972 3319 
L 972 1478 
Q 972 1038 1006 884 
Q 1059 663 1231 536 
Q 1403 409 1656 409 
Q 1909 409 2131 539 
Q 2353 669 2445 892 
Q 2538 1116 2538 1541 
L 2538 3319 
L 3100 3319 
L 3100 0 
L 2597 0 
z
" id="ArialMT-75" transform="scale(0.015625)"/>
       <path d="M 416 0 
L 416 3319 
L 922 3319 
L 922 2816 
Q 1116 3169 1280 3281 
Q 1444 3394 1641 3394 
Q 1925 3394 2219 3213 
L 2025 2691 
Q 1819 2813 1613 2813 
Q 1428 2813 1281 2702 
Q 1134 2591 1072 2394 
Q 978 2094 978 1738 
L 978 0 
L 416 0 
z
" id="ArialMT-72" transform="scale(0.015625)"/>
       <path id="ArialMT-20" transform="scale(0.015625)"/>
       <path d="M 469 0 
L 469 4581 
L 1075 4581 
L 1075 541 
L 3331 541 
L 3331 0 
L 469 0 
z
" id="ArialMT-4c" transform="scale(0.015625)"/>
       <path d="M 941 0 
L 419 0 
L 419 4581 
L 981 4581 
L 981 2947 
Q 1338 3394 1891 3394 
Q 2197 3394 2470 3270 
Q 2744 3147 2920 2923 
Q 3097 2700 3197 2384 
Q 3297 2069 3297 1709 
Q 3297 856 2875 390 
Q 2453 -75 1863 -75 
Q 1275 -75 941 416 
L 941 0 
z
M 934 1684 
Q 934 1088 1097 822 
Q 1363 388 1816 388 
Q 2184 388 2453 708 
Q 2722 1028 2722 1663 
Q 2722 2313 2464 2622 
Q 2206 2931 1841 2931 
Q 1472 2931 1203 2611 
Q 934 2291 934 1684 
z
" id="ArialMT-62" transform="scale(0.015625)"/>
       <path d="M 409 0 
L 409 4581 
L 972 4581 
L 972 0 
L 409 0 
z
" id="ArialMT-6c" transform="scale(0.015625)"/>
      </defs>
      <use xlink:href="#ArialMT-46"/>
      <use x="61.083984" xlink:href="#ArialMT-65"/>
      <use x="116.699219" xlink:href="#ArialMT-61"/>
      <use x="172.314453" xlink:href="#ArialMT-74"/>
      <use x="200.097656" xlink:href="#ArialMT-75"/>
      <use x="255.712891" xlink:href="#ArialMT-72"/>
      <use x="289.013672" xlink:href="#ArialMT-65"/>
      <use x="344.628906" xlink:href="#ArialMT-20"/>
      <use x="372.412109" xlink:href="#ArialMT-3a"/>
      <use x="400.195312" xlink:href="#ArialMT-20"/>
      <use x="427.978516" xlink:href="#ArialMT-4c"/>
      <use x="483.59375" xlink:href="#ArialMT-61"/>
      <use x="539.208984" xlink:href="#ArialMT-62"/>
      <use x="594.824219" xlink:href="#ArialMT-65"/>
      <use x="650.439453" xlink:href="#ArialMT-6c"/>
     </g>
    </g>
   </g>
   <g id="matplotlib.axis_2">
    <g id="ytick_1">
     <g id="line2d_1">
      <path clip-path="url(#p0ec6e37f53)" d="M 65.55 514 
L 552.521875 514 
" style="fill:none;stroke:#ffffff;stroke-linecap:round;"/>
     </g>
     <g id="text_10">
      <!-- 0.0 -->
      <g style="fill:#262626;" transform="translate(33.81 519.72625)scale(0.16 -0.16)">
       <defs>
        <path d="M 266 2259 
Q 266 3072 433 3567 
Q 600 4063 929 4331 
Q 1259 4600 1759 4600 
Q 2128 4600 2406 4451 
Q 2684 4303 2865 4023 
Q 3047 3744 3150 3342 
Q 3253 2941 3253 2259 
Q 3253 1453 3087 958 
Q 2922 463 2592 192 
Q 2263 -78 1759 -78 
Q 1097 -78 719 397 
Q 266 969 266 2259 
z
M 844 2259 
Q 844 1131 1108 757 
Q 1372 384 1759 384 
Q 2147 384 2411 759 
Q 2675 1134 2675 2259 
Q 2675 3391 2411 3762 
Q 2147 4134 1753 4134 
Q 1366 4134 1134 3806 
Q 844 3388 844 2259 
z
" id="ArialMT-30" transform="scale(0.015625)"/>
        <path d="M 581 0 
L 581 641 
L 1222 641 
L 1222 0 
L 581 0 
z
" id="ArialMT-2e" transform="scale(0.015625)"/>
       </defs>
       <use xlink:href="#ArialMT-30"/>
       <use x="55.615234" xlink:href="#ArialMT-2e"/>
       <use x="83.398438" xlink:href="#ArialMT-30"/>
      </g>
     </g>
    </g>
    <g id="ytick_2">
     <g id="line2d_2">
      <path clip-path="url(#p0ec6e37f53)" d="M 65.55 447.791147 
L 552.521875 447.791147 
" style="fill:none;stroke:#ffffff;stroke-linecap:round;"/>
     </g>
     <g id="text_11">
      <!-- 0.1 -->
      <g style="fill:#262626;" transform="translate(33.81 453.517397)scale(0.16 -0.16)">
       <defs>
        <path d="M 2384 0 
L 1822 0 
L 1822 3584 
Q 1619 3391 1289 3197 
Q 959 3003 697 2906 
L 697 3450 
Q 1169 3672 1522 3987 
Q 1875 4303 2022 4600 
L 2384 4600 
L 2384 0 
z
" id="ArialMT-31" transform="scale(0.015625)"/>
       </defs>
       <use xlink:href="#ArialMT-30"/>
       <use x="55.615234" xlink:href="#ArialMT-2e"/>
       <use x="83.398438" xlink:href="#ArialMT-31"/>
      </g>
     </g>
    </g>
    <g id="ytick_3">
     <g id="line2d_3">
      <path clip-path="url(#p0ec6e37f53)" d="M 65.55 381.582293 
L 552.521875 381.582293 
" style="fill:none;stroke:#ffffff;stroke-linecap:round;"/>
     </g>
     <g id="text_12">
      <!-- 0.2 -->
      <g style="fill:#262626;" transform="translate(33.81 387.308543)scale(0.16 -0.16)">
       <defs>
        <path d="M 3222 541 
L 3222 0 
L 194 0 
Q 188 203 259 391 
Q 375 700 629 1000 
Q 884 1300 1366 1694 
Q 2113 2306 2375 2664 
Q 2638 3022 2638 3341 
Q 2638 3675 2398 3904 
Q 2159 4134 1775 4134 
Q 1369 4134 1125 3890 
Q 881 3647 878 3216 
L 300 3275 
Q 359 3922 746 4261 
Q 1134 4600 1788 4600 
Q 2447 4600 2831 4234 
Q 3216 3869 3216 3328 
Q 3216 3053 3103 2787 
Q 2991 2522 2730 2228 
Q 2469 1934 1863 1422 
Q 1356 997 1212 845 
Q 1069 694 975 541 
L 3222 541 
z
" id="ArialMT-32" transform="scale(0.015625)"/>
       </defs>
       <use xlink:href="#ArialMT-30"/>
       <use x="55.615234" xlink:href="#ArialMT-2e"/>
       <use x="83.398438" xlink:href="#ArialMT-32"/>
      </g>
     </g>
    </g>
    <g id="ytick_4">
     <g id="line2d_4">
      <path clip-path="url(#p0ec6e37f53)" d="M 65.55 315.37344 
L 552.521875 315.37344 
" style="fill:none;stroke:#ffffff;stroke-linecap:round;"/>
     </g>
     <g id="text_13">
      <!-- 0.3 -->
      <g style="fill:#262626;" transform="translate(33.81 321.09969)scale(0.16 -0.16)">
       <defs>
        <path d="M 269 1209 
L 831 1284 
Q 928 806 1161 595 
Q 1394 384 1728 384 
Q 2125 384 2398 659 
Q 2672 934 2672 1341 
Q 2672 1728 2419 1979 
Q 2166 2231 1775 2231 
Q 1616 2231 1378 2169 
L 1441 2663 
Q 1497 2656 1531 2656 
Q 1891 2656 2178 2843 
Q 2466 3031 2466 3422 
Q 2466 3731 2256 3934 
Q 2047 4138 1716 4138 
Q 1388 4138 1169 3931 
Q 950 3725 888 3313 
L 325 3413 
Q 428 3978 793 4289 
Q 1159 4600 1703 4600 
Q 2078 4600 2393 4439 
Q 2709 4278 2876 4000 
Q 3044 3722 3044 3409 
Q 3044 3113 2884 2869 
Q 2725 2625 2413 2481 
Q 2819 2388 3044 2092 
Q 3269 1797 3269 1353 
Q 3269 753 2831 336 
Q 2394 -81 1725 -81 
Q 1122 -81 723 278 
Q 325 638 269 1209 
z
" id="ArialMT-33" transform="scale(0.015625)"/>
       </defs>
       <use xlink:href="#ArialMT-30"/>
       <use x="55.615234" xlink:href="#ArialMT-2e"/>
       <use x="83.398438" xlink:href="#ArialMT-33"/>
      </g>
     </g>
    </g>
    <g id="ytick_5">
     <g id="line2d_5">
      <path clip-path="url(#p0ec6e37f53)" d="M 65.55 249.164587 
L 552.521875 249.164587 
" style="fill:none;stroke:#ffffff;stroke-linecap:round;"/>
     </g>
     <g id="text_14">
      <!-- 0.4 -->
      <g style="fill:#262626;" transform="translate(33.81 254.890837)scale(0.16 -0.16)">
       <defs>
        <path d="M 2069 0 
L 2069 1097 
L 81 1097 
L 81 1613 
L 2172 4581 
L 2631 4581 
L 2631 1613 
L 3250 1613 
L 3250 1097 
L 2631 1097 
L 2631 0 
L 2069 0 
z
M 2069 1613 
L 2069 3678 
L 634 1613 
L 2069 1613 
z
" id="ArialMT-34" transform="scale(0.015625)"/>
       </defs>
       <use xlink:href="#ArialMT-30"/>
       <use x="55.615234" xlink:href="#ArialMT-2e"/>
       <use x="83.398438" xlink:href="#ArialMT-34"/>
      </g>
     </g>
    </g>
    <g id="ytick_6">
     <g id="line2d_6">
      <path clip-path="url(#p0ec6e37f53)" d="M 65.55 182.955733 
L 552.521875 182.955733 
" style="fill:none;stroke:#ffffff;stroke-linecap:round;"/>
     </g>
     <g id="text_15">
      <!-- 0.5 -->
      <g style="fill:#262626;" transform="translate(33.81 188.681983)scale(0.16 -0.16)">
       <defs>
        <path d="M 266 1200 
L 856 1250 
Q 922 819 1161 601 
Q 1400 384 1738 384 
Q 2144 384 2425 690 
Q 2706 997 2706 1503 
Q 2706 1984 2436 2262 
Q 2166 2541 1728 2541 
Q 1456 2541 1237 2417 
Q 1019 2294 894 2097 
L 366 2166 
L 809 4519 
L 3088 4519 
L 3088 3981 
L 1259 3981 
L 1013 2750 
Q 1425 3038 1878 3038 
Q 2478 3038 2890 2622 
Q 3303 2206 3303 1553 
Q 3303 931 2941 478 
Q 2500 -78 1738 -78 
Q 1113 -78 717 272 
Q 322 622 266 1200 
z
" id="ArialMT-35" transform="scale(0.015625)"/>
       </defs>
       <use xlink:href="#ArialMT-30"/>
       <use x="55.615234" xlink:href="#ArialMT-2e"/>
       <use x="83.398438" xlink:href="#ArialMT-35"/>
      </g>
     </g>
    </g>
    <g id="ytick_7">
     <g id="line2d_7">
      <path clip-path="url(#p0ec6e37f53)" d="M 65.55 116.74688 
L 552.521875 116.74688 
" style="fill:none;stroke:#ffffff;stroke-linecap:round;"/>
     </g>
     <g id="text_16">
      <!-- 0.6 -->
      <g style="fill:#262626;" transform="translate(33.81 122.47313)scale(0.16 -0.16)">
       <defs>
        <path d="M 3184 3459 
L 2625 3416 
Q 2550 3747 2413 3897 
Q 2184 4138 1850 4138 
Q 1581 4138 1378 3988 
Q 1113 3794 959 3422 
Q 806 3050 800 2363 
Q 1003 2672 1297 2822 
Q 1591 2972 1913 2972 
Q 2475 2972 2870 2558 
Q 3266 2144 3266 1488 
Q 3266 1056 3080 686 
Q 2894 316 2569 119 
Q 2244 -78 1831 -78 
Q 1128 -78 684 439 
Q 241 956 241 2144 
Q 241 3472 731 4075 
Q 1159 4600 1884 4600 
Q 2425 4600 2770 4297 
Q 3116 3994 3184 3459 
z
M 888 1484 
Q 888 1194 1011 928 
Q 1134 663 1356 523 
Q 1578 384 1822 384 
Q 2178 384 2434 671 
Q 2691 959 2691 1453 
Q 2691 1928 2437 2201 
Q 2184 2475 1800 2475 
Q 1419 2475 1153 2201 
Q 888 1928 888 1484 
z
" id="ArialMT-36" transform="scale(0.015625)"/>
       </defs>
       <use xlink:href="#ArialMT-30"/>
       <use x="55.615234" xlink:href="#ArialMT-2e"/>
       <use x="83.398438" xlink:href="#ArialMT-36"/>
      </g>
     </g>
    </g>
    <g id="ytick_8">
     <g id="line2d_8">
      <path clip-path="url(#p0ec6e37f53)" d="M 65.55 50.538027 
L 552.521875 50.538027 
" style="fill:none;stroke:#ffffff;stroke-linecap:round;"/>
     </g>
     <g id="text_17">
      <!-- 0.7 -->
      <g style="fill:#262626;" transform="translate(33.81 56.264277)scale(0.16 -0.16)">
       <defs>
        <path d="M 303 3981 
L 303 4522 
L 3269 4522 
L 3269 4084 
Q 2831 3619 2401 2847 
Q 1972 2075 1738 1259 
Q 1569 684 1522 0 
L 944 0 
Q 953 541 1156 1306 
Q 1359 2072 1739 2783 
Q 2119 3494 2547 3981 
L 303 3981 
z
" id="ArialMT-37" transform="scale(0.015625)"/>
       </defs>
       <use xlink:href="#ArialMT-30"/>
       <use x="55.615234" xlink:href="#ArialMT-2e"/>
       <use x="83.398438" xlink:href="#ArialMT-37"/>
      </g>
     </g>
    </g>
    <g id="text_18">
     <!-- Feature Contribution to Label -->
     <g style="fill:#262626;" transform="translate(25.835 391.915625)rotate(-90)scale(0.2 -0.2)">
      <defs>
       <path d="M 3763 1606 
L 4369 1453 
Q 4178 706 3683 314 
Q 3188 -78 2472 -78 
Q 1731 -78 1267 223 
Q 803 525 561 1097 
Q 319 1669 319 2325 
Q 319 3041 592 3573 
Q 866 4106 1370 4382 
Q 1875 4659 2481 4659 
Q 3169 4659 3637 4309 
Q 4106 3959 4291 3325 
L 3694 3184 
Q 3534 3684 3231 3912 
Q 2928 4141 2469 4141 
Q 1941 4141 1586 3887 
Q 1231 3634 1087 3207 
Q 944 2781 944 2328 
Q 944 1744 1114 1308 
Q 1284 872 1643 656 
Q 2003 441 2422 441 
Q 2931 441 3284 734 
Q 3638 1028 3763 1606 
z
" id="ArialMT-43" transform="scale(0.015625)"/>
       <path d="M 425 3934 
L 425 4581 
L 988 4581 
L 988 3934 
L 425 3934 
z
M 425 0 
L 425 3319 
L 988 3319 
L 988 0 
L 425 0 
z
" id="ArialMT-69" transform="scale(0.015625)"/>
      </defs>
      <use xlink:href="#ArialMT-46"/>
      <use x="61.083984" xlink:href="#ArialMT-65"/>
      <use x="116.699219" xlink:href="#ArialMT-61"/>
      <use x="172.314453" xlink:href="#ArialMT-74"/>
      <use x="200.097656" xlink:href="#ArialMT-75"/>
      <use x="255.712891" xlink:href="#ArialMT-72"/>
      <use x="289.013672" xlink:href="#ArialMT-65"/>
      <use x="344.628906" xlink:href="#ArialMT-20"/>
      <use x="372.412109" xlink:href="#ArialMT-43"/>
      <use x="444.628906" xlink:href="#ArialMT-6f"/>
      <use x="500.244141" xlink:href="#ArialMT-6e"/>
      <use x="555.859375" xlink:href="#ArialMT-74"/>
      <use x="583.642578" xlink:href="#ArialMT-72"/>
      <use x="616.943359" xlink:href="#ArialMT-69"/>
      <use x="639.160156" xlink:href="#ArialMT-62"/>
      <use x="694.775391" xlink:href="#ArialMT-75"/>
      <use x="750.390625" xlink:href="#ArialMT-74"/>
      <use x="778.173828" xlink:href="#ArialMT-69"/>
      <use x="800.390625" xlink:href="#ArialMT-6f"/>
      <use x="856.005859" xlink:href="#ArialMT-6e"/>
      <use x="911.621094" xlink:href="#ArialMT-20"/>
      <use x="939.404297" xlink:href="#ArialMT-74"/>
      <use x="967.1875" xlink:href="#ArialMT-6f"/>
      <use x="1022.802734" xlink:href="#ArialMT-20"/>
      <use x="1050.585938" xlink:href="#ArialMT-4c"/>
      <use x="1106.201172" xlink:href="#ArialMT-61"/>
      <use x="1161.816406" xlink:href="#ArialMT-62"/>
      <use x="1217.431641" xlink:href="#ArialMT-65"/>
      <use x="1273.046875" xlink:href="#ArialMT-6c"/>
     </g>
    </g>
   </g>
   <g id="patch_3">
    <path clip-path="url(#p0ec6e37f53)" d="M 71.637148 514 
L 87.869544 514 
L 87.869544 165.231678 
L 71.637148 165.231678 
z
" style="fill:#5875a4;stroke:#ffffff;stroke-linejoin:miter;"/>
   </g>
   <g id="patch_4">
    <path clip-path="url(#p0ec6e37f53)" d="M 132.508633 514 
L 148.741029 514 
L 148.741029 202.978801 
L 132.508633 202.978801 
z
" style="fill:#5875a4;stroke:#ffffff;stroke-linejoin:miter;"/>
   </g>
   <g id="patch_5">
    <path clip-path="url(#p0ec6e37f53)" d="M 193.380117 514 
L 209.612513 514 
L 209.612513 387.652 
L 193.380117 387.652 
z
" style="fill:#5875a4;stroke:#ffffff;stroke-linejoin:miter;"/>
   </g>
   <g id="patch_6">
    <path clip-path="url(#p0ec6e37f53)" d="M 254.251602 514 
L 270.483997 514 
L 270.483997 514 
L 254.251602 514 
z
" style="fill:#5875a4;stroke:#ffffff;stroke-linejoin:miter;"/>
   </g>
   <g id="patch_7">
    <path clip-path="url(#p0ec6e37f53)" d="M 315.123086 514 
L 331.355482 514 
L 331.355482 504.857192 
L 315.123086 504.857192 
z
" style="fill:#5875a4;stroke:#ffffff;stroke-linejoin:miter;"/>
   </g>
   <g id="patch_8">
    <path clip-path="url(#p0ec6e37f53)" d="M 375.99457 514 
L 392.226966 514 
L 392.226966 504.924717 
L 375.99457 504.924717 
z
" style="fill:#5875a4;stroke:#ffffff;stroke-linejoin:miter;"/>
   </g>
   <g id="patch_9">
    <path clip-path="url(#p0ec6e37f53)" d="M 436.866055 514 
L 453.098451 514 
L 453.098451 375.187671 
L 436.866055 375.187671 
z
" style="fill:#5875a4;stroke:#ffffff;stroke-linejoin:miter;"/>
   </g>
   <g id="patch_10">
    <path clip-path="url(#p0ec6e37f53)" d="M 497.737539 514 
L 513.969935 514 
L 513.969935 514 
L 497.737539 514 
z
" style="fill:#5875a4;stroke:#ffffff;stroke-linejoin:miter;"/>
   </g>
   <g id="patch_11">
    <path clip-path="url(#p0ec6e37f53)" d="M 87.869544 514 
L 104.10194 514 
L 104.10194 165.216769 
L 87.869544 165.216769 
z
" style="fill:#cc8963;stroke:#ffffff;stroke-linejoin:miter;"/>
   </g>
   <g id="patch_12">
    <path clip-path="url(#p0ec6e37f53)" d="M 148.741029 514 
L 164.973424 514 
L 164.973424 202.530304 
L 148.741029 202.530304 
z
" style="fill:#cc8963;stroke:#ffffff;stroke-linejoin:miter;"/>
   </g>
   <g id="patch_13">
    <path clip-path="url(#p0ec6e37f53)" d="M 209.612513 514 
L 225.844909 514 
L 225.844909 388.358311 
L 209.612513 388.358311 
z
" style="fill:#cc8963;stroke:#ffffff;stroke-linejoin:miter;"/>
   </g>
   <g id="patch_14">
    <path clip-path="url(#p0ec6e37f53)" d="M 270.483997 514 
L 286.716393 514 
L 286.716393 514 
L 270.483997 514 
z
" style="fill:#cc8963;stroke:#ffffff;stroke-linejoin:miter;"/>
   </g>
   <g id="patch_15">
    <path clip-path="url(#p0ec6e37f53)" d="M 331.355482 514 
L 347.587878 514 
L 347.587878 504.469867 
L 331.355482 504.469867 
z
" style="fill:#cc8963;stroke:#ffffff;stroke-linejoin:miter;"/>
   </g>
   <g id="patch_16">
    <path clip-path="url(#p0ec6e37f53)" d="M 392.226966 514 
L 408.459362 514 
L 408.459362 504.880521 
L 392.226966 504.880521 
z
" style="fill:#cc8963;stroke:#ffffff;stroke-linejoin:miter;"/>
   </g>
   <g id="patch_17">
    <path clip-path="url(#p0ec6e37f53)" d="M 453.098451 514 
L 469.330846 514 
L 469.330846 375.186314 
L 453.098451 375.186314 
z
" style="fill:#cc8963;stroke:#ffffff;stroke-linejoin:miter;"/>
   </g>
   <g id="patch_18">
    <path clip-path="url(#p0ec6e37f53)" d="M 513.969935 514 
L 530.202331 514 
L 530.202331 514 
L 513.969935 514 
z
" style="fill:#cc8963;stroke:#ffffff;stroke-linejoin:miter;"/>
   </g>
   <g id="patch_19">
    <path clip-path="url(#p0ec6e37f53)" d="M 104.10194 514 
L 120.334336 514 
L 120.334336 65.515254 
L 104.10194 65.515254 
z
" style="fill:#5f9e6e;stroke:#ffffff;stroke-linejoin:miter;"/>
   </g>
   <g id="patch_20">
    <path clip-path="url(#p0ec6e37f53)" d="M 164.973424 514 
L 181.20582 514 
L 181.20582 188.56173 
L 164.973424 188.56173 
z
" style="fill:#5f9e6e;stroke:#ffffff;stroke-linejoin:miter;"/>
   </g>
   <g id="patch_21">
    <path clip-path="url(#p0ec6e37f53)" d="M 225.844909 514 
L 242.077305 514 
L 242.077305 500.080431 
L 225.844909 500.080431 
z
" style="fill:#5f9e6e;stroke:#ffffff;stroke-linejoin:miter;"/>
   </g>
   <g id="patch_22">
    <path clip-path="url(#p0ec6e37f53)" d="M 286.716393 514 
L 302.948789 514 
L 302.948789 497.949756 
L 286.716393 497.949756 
z
" style="fill:#5f9e6e;stroke:#ffffff;stroke-linejoin:miter;"/>
   </g>
   <g id="patch_23">
    <path clip-path="url(#p0ec6e37f53)" d="M 347.587878 514 
L 363.820273 514 
L 363.820273 509.005562 
L 347.587878 509.005562 
z
" style="fill:#5f9e6e;stroke:#ffffff;stroke-linejoin:miter;"/>
   </g>
   <g id="patch_24">
    <path clip-path="url(#p0ec6e37f53)" d="M 408.459362 514 
L 424.691758 514 
L 424.691758 508.874177 
L 408.459362 508.874177 
z
" style="fill:#5f9e6e;stroke:#ffffff;stroke-linejoin:miter;"/>
   </g>
   <g id="patch_25">
    <path clip-path="url(#p0ec6e37f53)" d="M 469.330846 514 
L 485.563242 514 
L 485.563242 508.91317 
L 469.330846 508.91317 
z
" style="fill:#5f9e6e;stroke:#ffffff;stroke-linejoin:miter;"/>
   </g>
   <g id="patch_26">
    <path clip-path="url(#p0ec6e37f53)" d="M 530.202331 514 
L 546.434727 514 
L 546.434727 509.870793 
L 530.202331 509.870793 
z
" style="fill:#5f9e6e;stroke:#ffffff;stroke-linejoin:miter;"/>
   </g>
   <g id="line2d_9">
    <path clip-path="url(#p0ec6e37f53)" d="M 79.753346 203.089041 
L 79.753346 121.445629 
" style="fill:none;stroke:#424242;stroke-linecap:round;stroke-width:2.7;"/>
   </g>
   <g id="line2d_10">
    <path clip-path="url(#p0ec6e37f53)" d="M 73.666198 203.089041 
L 85.840495 203.089041 
" style="fill:none;stroke:#424242;stroke-linecap:round;stroke-width:2.7;"/>
   </g>
   <g id="line2d_11">
    <path clip-path="url(#p0ec6e37f53)" d="M 73.666198 121.445629 
L 85.840495 121.445629 
" style="fill:none;stroke:#424242;stroke-linecap:round;stroke-width:2.7;"/>
   </g>
   <g id="line2d_12">
    <path clip-path="url(#p0ec6e37f53)" d="M 140.624831 247.583551 
L 140.624831 157.214643 
" style="fill:none;stroke:#424242;stroke-linecap:round;stroke-width:2.7;"/>
   </g>
   <g id="line2d_13">
    <path clip-path="url(#p0ec6e37f53)" d="M 134.537682 247.583551 
L 146.711979 247.583551 
" style="fill:none;stroke:#424242;stroke-linecap:round;stroke-width:2.7;"/>
   </g>
   <g id="line2d_14">
    <path clip-path="url(#p0ec6e37f53)" d="M 134.537682 157.214643 
L 146.711979 157.214643 
" style="fill:none;stroke:#424242;stroke-linecap:round;stroke-width:2.7;"/>
   </g>
   <g id="line2d_15">
    <path clip-path="url(#p0ec6e37f53)" d="M 201.496315 399.121774 
L 201.496315 376.724209 
" style="fill:none;stroke:#424242;stroke-linecap:round;stroke-width:2.7;"/>
   </g>
   <g id="line2d_16">
    <path clip-path="url(#p0ec6e37f53)" d="M 195.409167 399.121774 
L 207.583464 399.121774 
" style="fill:none;stroke:#424242;stroke-linecap:round;stroke-width:2.7;"/>
   </g>
   <g id="line2d_17">
    <path clip-path="url(#p0ec6e37f53)" d="M 195.409167 376.724209 
L 207.583464 376.724209 
" style="fill:none;stroke:#424242;stroke-linecap:round;stroke-width:2.7;"/>
   </g>
   <g id="line2d_18">
    <path clip-path="url(#p0ec6e37f53)" d="M 262.367799 514 
L 262.367799 514 
" style="fill:none;stroke:#424242;stroke-linecap:round;stroke-width:2.7;"/>
   </g>
   <g id="line2d_19">
    <path clip-path="url(#p0ec6e37f53)" d="M 256.280651 514 
L 268.454948 514 
" style="fill:none;stroke:#424242;stroke-linecap:round;stroke-width:2.7;"/>
   </g>
   <g id="line2d_20">
    <path clip-path="url(#p0ec6e37f53)" d="M 256.280651 514 
L 268.454948 514 
" style="fill:none;stroke:#424242;stroke-linecap:round;stroke-width:2.7;"/>
   </g>
   <g id="line2d_21">
    <path clip-path="url(#p0ec6e37f53)" d="M 323.239284 506.423239 
L 323.239284 503.16495 
" style="fill:none;stroke:#424242;stroke-linecap:round;stroke-width:2.7;"/>
   </g>
   <g id="line2d_22">
    <path clip-path="url(#p0ec6e37f53)" d="M 317.152135 506.423239 
L 329.326432 506.423239 
" style="fill:none;stroke:#424242;stroke-linecap:round;stroke-width:2.7;"/>
   </g>
   <g id="line2d_23">
    <path clip-path="url(#p0ec6e37f53)" d="M 317.152135 503.16495 
L 329.326432 503.16495 
" style="fill:none;stroke:#424242;stroke-linecap:round;stroke-width:2.7;"/>
   </g>
   <g id="line2d_24">
    <path clip-path="url(#p0ec6e37f53)" d="M 384.110768 506.872272 
L 384.110768 502.818135 
" style="fill:none;stroke:#424242;stroke-linecap:round;stroke-width:2.7;"/>
   </g>
   <g id="line2d_25">
    <path clip-path="url(#p0ec6e37f53)" d="M 378.02362 506.872272 
L 390.197917 506.872272 
" style="fill:none;stroke:#424242;stroke-linecap:round;stroke-width:2.7;"/>
   </g>
   <g id="line2d_26">
    <path clip-path="url(#p0ec6e37f53)" d="M 378.02362 502.818135 
L 390.197917 502.818135 
" style="fill:none;stroke:#424242;stroke-linecap:round;stroke-width:2.7;"/>
   </g>
   <g id="line2d_27">
    <path clip-path="url(#p0ec6e37f53)" d="M 444.982253 389.973426 
L 444.982253 360.594881 
" style="fill:none;stroke:#424242;stroke-linecap:round;stroke-width:2.7;"/>
   </g>
   <g id="line2d_28">
    <path clip-path="url(#p0ec6e37f53)" d="M 438.895104 389.973426 
L 451.069401 389.973426 
" style="fill:none;stroke:#424242;stroke-linecap:round;stroke-width:2.7;"/>
   </g>
   <g id="line2d_29">
    <path clip-path="url(#p0ec6e37f53)" d="M 438.895104 360.594881 
L 451.069401 360.594881 
" style="fill:none;stroke:#424242;stroke-linecap:round;stroke-width:2.7;"/>
   </g>
   <g id="line2d_30">
    <path clip-path="url(#p0ec6e37f53)" d="M 505.853737 514 
L 505.853737 514 
" style="fill:none;stroke:#424242;stroke-linecap:round;stroke-width:2.7;"/>
   </g>
   <g id="line2d_31">
    <path clip-path="url(#p0ec6e37f53)" d="M 499.766589 514 
L 511.940885 514 
" style="fill:none;stroke:#424242;stroke-linecap:round;stroke-width:2.7;"/>
   </g>
   <g id="line2d_32">
    <path clip-path="url(#p0ec6e37f53)" d="M 499.766589 514 
L 511.940885 514 
" style="fill:none;stroke:#424242;stroke-linecap:round;stroke-width:2.7;"/>
   </g>
   <g id="line2d_33">
    <path clip-path="url(#p0ec6e37f53)" d="M 95.985742 207.38725 
L 95.985742 124.144062 
" style="fill:none;stroke:#424242;stroke-linecap:round;stroke-width:2.7;"/>
   </g>
   <g id="line2d_34">
    <path clip-path="url(#p0ec6e37f53)" d="M 89.898594 207.38725 
L 102.072891 207.38725 
" style="fill:none;stroke:#424242;stroke-linecap:round;stroke-width:2.7;"/>
   </g>
   <g id="line2d_35">
    <path clip-path="url(#p0ec6e37f53)" d="M 89.898594 124.144062 
L 102.072891 124.144062 
" style="fill:none;stroke:#424242;stroke-linecap:round;stroke-width:2.7;"/>
   </g>
   <g id="line2d_36">
    <path clip-path="url(#p0ec6e37f53)" d="M 156.857227 245.746147 
L 156.857227 158.434841 
" style="fill:none;stroke:#424242;stroke-linecap:round;stroke-width:2.7;"/>
   </g>
   <g id="line2d_37">
    <path clip-path="url(#p0ec6e37f53)" d="M 150.770078 245.746147 
L 162.944375 245.746147 
" style="fill:none;stroke:#424242;stroke-linecap:round;stroke-width:2.7;"/>
   </g>
   <g id="line2d_38">
    <path clip-path="url(#p0ec6e37f53)" d="M 150.770078 158.434841 
L 162.944375 158.434841 
" style="fill:none;stroke:#424242;stroke-linecap:round;stroke-width:2.7;"/>
   </g>
   <g id="line2d_39">
    <path clip-path="url(#p0ec6e37f53)" d="M 217.728711 400.090599 
L 217.728711 376.204791 
" style="fill:none;stroke:#424242;stroke-linecap:round;stroke-width:2.7;"/>
   </g>
   <g id="line2d_40">
    <path clip-path="url(#p0ec6e37f53)" d="M 211.641563 400.090599 
L 223.815859 400.090599 
" style="fill:none;stroke:#424242;stroke-linecap:round;stroke-width:2.7;"/>
   </g>
   <g id="line2d_41">
    <path clip-path="url(#p0ec6e37f53)" d="M 211.641563 376.204791 
L 223.815859 376.204791 
" style="fill:none;stroke:#424242;stroke-linecap:round;stroke-width:2.7;"/>
   </g>
   <g id="line2d_42">
    <path clip-path="url(#p0ec6e37f53)" d="M 278.600195 514 
L 278.600195 514 
" style="fill:none;stroke:#424242;stroke-linecap:round;stroke-width:2.7;"/>
   </g>
   <g id="line2d_43">
    <path clip-path="url(#p0ec6e37f53)" d="M 272.513047 514 
L 284.687344 514 
" style="fill:none;stroke:#424242;stroke-linecap:round;stroke-width:2.7;"/>
   </g>
   <g id="line2d_44">
    <path clip-path="url(#p0ec6e37f53)" d="M 272.513047 514 
L 284.687344 514 
" style="fill:none;stroke:#424242;stroke-linecap:round;stroke-width:2.7;"/>
   </g>
   <g id="line2d_45">
    <path clip-path="url(#p0ec6e37f53)" d="M 339.47168 506.160196 
L 339.47168 502.548261 
" style="fill:none;stroke:#424242;stroke-linecap:round;stroke-width:2.7;"/>
   </g>
   <g id="line2d_46">
    <path clip-path="url(#p0ec6e37f53)" d="M 333.384531 506.160196 
L 345.558828 506.160196 
" style="fill:none;stroke:#424242;stroke-linecap:round;stroke-width:2.7;"/>
   </g>
   <g id="line2d_47">
    <path clip-path="url(#p0ec6e37f53)" d="M 333.384531 502.548261 
L 345.558828 502.548261 
" style="fill:none;stroke:#424242;stroke-linecap:round;stroke-width:2.7;"/>
   </g>
   <g id="line2d_48">
    <path clip-path="url(#p0ec6e37f53)" d="M 400.343164 506.640554 
L 400.343164 502.795795 
" style="fill:none;stroke:#424242;stroke-linecap:round;stroke-width:2.7;"/>
   </g>
   <g id="line2d_49">
    <path clip-path="url(#p0ec6e37f53)" d="M 394.256016 506.640554 
L 406.430313 506.640554 
" style="fill:none;stroke:#424242;stroke-linecap:round;stroke-width:2.7;"/>
   </g>
   <g id="line2d_50">
    <path clip-path="url(#p0ec6e37f53)" d="M 394.256016 502.795795 
L 406.430313 502.795795 
" style="fill:none;stroke:#424242;stroke-linecap:round;stroke-width:2.7;"/>
   </g>
   <g id="line2d_51">
    <path clip-path="url(#p0ec6e37f53)" d="M 461.214648 388.654792 
L 461.214648 361.219864 
" style="fill:none;stroke:#424242;stroke-linecap:round;stroke-width:2.7;"/>
   </g>
   <g id="line2d_52">
    <path clip-path="url(#p0ec6e37f53)" d="M 455.1275 388.654792 
L 467.301797 388.654792 
" style="fill:none;stroke:#424242;stroke-linecap:round;stroke-width:2.7;"/>
   </g>
   <g id="line2d_53">
    <path clip-path="url(#p0ec6e37f53)" d="M 455.1275 361.219864 
L 467.301797 361.219864 
" style="fill:none;stroke:#424242;stroke-linecap:round;stroke-width:2.7;"/>
   </g>
   <g id="line2d_54">
    <path clip-path="url(#p0ec6e37f53)" d="M 522.086133 514 
L 522.086133 514 
" style="fill:none;stroke:#424242;stroke-linecap:round;stroke-width:2.7;"/>
   </g>
   <g id="line2d_55">
    <path clip-path="url(#p0ec6e37f53)" d="M 515.998984 514 
L 528.173281 514 
" style="fill:none;stroke:#424242;stroke-linecap:round;stroke-width:2.7;"/>
   </g>
   <g id="line2d_56">
    <path clip-path="url(#p0ec6e37f53)" d="M 515.998984 514 
L 528.173281 514 
" style="fill:none;stroke:#424242;stroke-linecap:round;stroke-width:2.7;"/>
   </g>
   <g id="line2d_57">
    <path clip-path="url(#p0ec6e37f53)" d="M 112.218138 96.273315 
L 112.218138 34.761905 
" style="fill:none;stroke:#424242;stroke-linecap:round;stroke-width:2.7;"/>
   </g>
   <g id="line2d_58">
    <path clip-path="url(#p0ec6e37f53)" d="M 106.13099 96.273315 
L 118.305286 96.273315 
" style="fill:none;stroke:#424242;stroke-linecap:round;stroke-width:2.7;"/>
   </g>
   <g id="line2d_59">
    <path clip-path="url(#p0ec6e37f53)" d="M 106.13099 34.761905 
L 118.305286 34.761905 
" style="fill:none;stroke:#424242;stroke-linecap:round;stroke-width:2.7;"/>
   </g>
   <g id="line2d_60">
    <path clip-path="url(#p0ec6e37f53)" d="M 173.089622 227.31511 
L 173.089622 150.833739 
" style="fill:none;stroke:#424242;stroke-linecap:round;stroke-width:2.7;"/>
   </g>
   <g id="line2d_61">
    <path clip-path="url(#p0ec6e37f53)" d="M 167.002474 227.31511 
L 179.176771 227.31511 
" style="fill:none;stroke:#424242;stroke-linecap:round;stroke-width:2.7;"/>
   </g>
   <g id="line2d_62">
    <path clip-path="url(#p0ec6e37f53)" d="M 167.002474 150.833739 
L 179.176771 150.833739 
" style="fill:none;stroke:#424242;stroke-linecap:round;stroke-width:2.7;"/>
   </g>
   <g id="line2d_63">
    <path clip-path="url(#p0ec6e37f53)" d="M 233.961107 502.289894 
L 233.961107 498.08506 
" style="fill:none;stroke:#424242;stroke-linecap:round;stroke-width:2.7;"/>
   </g>
   <g id="line2d_64">
    <path clip-path="url(#p0ec6e37f53)" d="M 227.873958 502.289894 
L 240.048255 502.289894 
" style="fill:none;stroke:#424242;stroke-linecap:round;stroke-width:2.7;"/>
   </g>
   <g id="line2d_65">
    <path clip-path="url(#p0ec6e37f53)" d="M 227.873958 498.08506 
L 240.048255 498.08506 
" style="fill:none;stroke:#424242;stroke-linecap:round;stroke-width:2.7;"/>
   </g>
   <g id="line2d_66">
    <path clip-path="url(#p0ec6e37f53)" d="M 294.832591 499.984535 
L 294.832591 495.501758 
" style="fill:none;stroke:#424242;stroke-linecap:round;stroke-width:2.7;"/>
   </g>
   <g id="line2d_67">
    <path clip-path="url(#p0ec6e37f53)" d="M 288.745443 499.984535 
L 300.91974 499.984535 
" style="fill:none;stroke:#424242;stroke-linecap:round;stroke-width:2.7;"/>
   </g>
   <g id="line2d_68">
    <path clip-path="url(#p0ec6e37f53)" d="M 288.745443 495.501758 
L 300.91974 495.501758 
" style="fill:none;stroke:#424242;stroke-linecap:round;stroke-width:2.7;"/>
   </g>
   <g id="line2d_69">
    <path clip-path="url(#p0ec6e37f53)" d="M 355.704076 509.649184 
L 355.704076 508.364637 
" style="fill:none;stroke:#424242;stroke-linecap:round;stroke-width:2.7;"/>
   </g>
   <g id="line2d_70">
    <path clip-path="url(#p0ec6e37f53)" d="M 349.616927 509.649184 
L 361.791224 509.649184 
" style="fill:none;stroke:#424242;stroke-linecap:round;stroke-width:2.7;"/>
   </g>
   <g id="line2d_71">
    <path clip-path="url(#p0ec6e37f53)" d="M 349.616927 508.364637 
L 361.791224 508.364637 
" style="fill:none;stroke:#424242;stroke-linecap:round;stroke-width:2.7;"/>
   </g>
   <g id="line2d_72">
    <path clip-path="url(#p0ec6e37f53)" d="M 416.57556 509.558456 
L 416.57556 508.247433 
" style="fill:none;stroke:#424242;stroke-linecap:round;stroke-width:2.7;"/>
   </g>
   <g id="line2d_73">
    <path clip-path="url(#p0ec6e37f53)" d="M 410.488411 509.558456 
L 422.662708 509.558456 
" style="fill:none;stroke:#424242;stroke-linecap:round;stroke-width:2.7;"/>
   </g>
   <g id="line2d_74">
    <path clip-path="url(#p0ec6e37f53)" d="M 410.488411 508.247433 
L 422.662708 508.247433 
" style="fill:none;stroke:#424242;stroke-linecap:round;stroke-width:2.7;"/>
   </g>
   <g id="line2d_75">
    <path clip-path="url(#p0ec6e37f53)" d="M 477.447044 509.608353 
L 477.447044 508.214852 
" style="fill:none;stroke:#424242;stroke-linecap:round;stroke-width:2.7;"/>
   </g>
   <g id="line2d_76">
    <path clip-path="url(#p0ec6e37f53)" d="M 471.359896 509.608353 
L 483.534193 509.608353 
" style="fill:none;stroke:#424242;stroke-linecap:round;stroke-width:2.7;"/>
   </g>
   <g id="line2d_77">
    <path clip-path="url(#p0ec6e37f53)" d="M 471.359896 508.214852 
L 483.534193 508.214852 
" style="fill:none;stroke:#424242;stroke-linecap:round;stroke-width:2.7;"/>
   </g>
   <g id="line2d_78">
    <path clip-path="url(#p0ec6e37f53)" d="M 538.318529 510.495008 
L 538.318529 509.311809 
" style="fill:none;stroke:#424242;stroke-linecap:round;stroke-width:2.7;"/>
   </g>
   <g id="line2d_79">
    <path clip-path="url(#p0ec6e37f53)" d="M 532.23138 510.495008 
L 544.405677 510.495008 
" style="fill:none;stroke:#424242;stroke-linecap:round;stroke-width:2.7;"/>
   </g>
   <g id="line2d_80">
    <path clip-path="url(#p0ec6e37f53)" d="M 532.23138 509.311809 
L 544.405677 509.311809 
" style="fill:none;stroke:#424242;stroke-linecap:round;stroke-width:2.7;"/>
   </g>
   <g id="patch_27">
    <path d="M 65.55 514 
L 65.55 10.8 
" style="fill:none;stroke:#ffffff;stroke-linecap:square;stroke-linejoin:miter;stroke-width:1.25;"/>
   </g>
   <g id="patch_28">
    <path d="M 552.521875 514 
L 552.521875 10.8 
" style="fill:none;stroke:#ffffff;stroke-linecap:square;stroke-linejoin:miter;stroke-width:1.25;"/>
   </g>
   <g id="patch_29">
    <path d="M 65.55 514 
L 552.521875 514 
" style="fill:none;stroke:#ffffff;stroke-linecap:square;stroke-linejoin:miter;stroke-width:1.25;"/>
   </g>
   <g id="patch_30">
    <path d="M 65.55 10.8 
L 552.521875 10.8 
" style="fill:none;stroke:#ffffff;stroke-linecap:square;stroke-linejoin:miter;stroke-width:1.25;"/>
   </g>
   <g id="legend_1">
    <g id="patch_31">
     <path d="M 394.4875 111.90625 
L 538.521875 111.90625 
Q 542.521875 111.90625 542.521875 107.90625 
L 542.521875 24.8 
Q 542.521875 20.8 538.521875 20.8 
L 394.4875 20.8 
Q 390.4875 20.8 390.4875 24.8 
L 390.4875 107.90625 
Q 390.4875 111.90625 394.4875 111.90625 
z
" style="fill:#eaeaf2;opacity:0.8;stroke:#cccccc;stroke-linejoin:miter;"/>
    </g>
    <g id="patch_32">
     <path d="M 398.4875 43.115625 
L 438.4875 43.115625 
L 438.4875 29.115625 
L 398.4875 29.115625 
z
" style="fill:#5875a4;stroke:#ffffff;stroke-linejoin:miter;"/>
    </g>
    <g id="text_19">
     <!-- kernel -->
     <g style="fill:#262626;" transform="translate(454.4875 43.115625)scale(0.2 -0.2)">
      <defs>
       <path d="M 425 0 
L 425 4581 
L 988 4581 
L 988 1969 
L 2319 3319 
L 3047 3319 
L 1778 2088 
L 3175 0 
L 2481 0 
L 1384 1697 
L 988 1316 
L 988 0 
L 425 0 
z
" id="ArialMT-6b" transform="scale(0.015625)"/>
      </defs>
      <use xlink:href="#ArialMT-6b"/>
      <use x="50" xlink:href="#ArialMT-65"/>
      <use x="105.615234" xlink:href="#ArialMT-72"/>
      <use x="138.916016" xlink:href="#ArialMT-6e"/>
      <use x="194.53125" xlink:href="#ArialMT-65"/>
      <use x="250.146484" xlink:href="#ArialMT-6c"/>
     </g>
    </g>
    <g id="patch_33">
     <path d="M 398.4875 71.40625 
L 438.4875 71.40625 
L 438.4875 57.40625 
L 398.4875 57.40625 
z
" style="fill:#cc8963;stroke:#ffffff;stroke-linejoin:miter;"/>
    </g>
    <g id="text_20">
     <!-- sampling -->
     <g style="fill:#262626;" transform="translate(454.4875 71.40625)scale(0.2 -0.2)">
      <defs>
       <path d="M 197 991 
L 753 1078 
Q 800 744 1014 566 
Q 1228 388 1613 388 
Q 2000 388 2187 545 
Q 2375 703 2375 916 
Q 2375 1106 2209 1216 
Q 2094 1291 1634 1406 
Q 1016 1563 777 1677 
Q 538 1791 414 1992 
Q 291 2194 291 2438 
Q 291 2659 392 2848 
Q 494 3038 669 3163 
Q 800 3259 1026 3326 
Q 1253 3394 1513 3394 
Q 1903 3394 2198 3281 
Q 2494 3169 2634 2976 
Q 2775 2784 2828 2463 
L 2278 2388 
Q 2241 2644 2061 2787 
Q 1881 2931 1553 2931 
Q 1166 2931 1000 2803 
Q 834 2675 834 2503 
Q 834 2394 903 2306 
Q 972 2216 1119 2156 
Q 1203 2125 1616 2013 
Q 2213 1853 2448 1751 
Q 2684 1650 2818 1456 
Q 2953 1263 2953 975 
Q 2953 694 2789 445 
Q 2625 197 2315 61 
Q 2006 -75 1616 -75 
Q 969 -75 630 194 
Q 291 463 197 991 
z
" id="ArialMT-73" transform="scale(0.015625)"/>
       <path d="M 422 -1272 
L 422 3319 
L 934 3319 
L 934 2888 
Q 1116 3141 1344 3267 
Q 1572 3394 1897 3394 
Q 2322 3394 2647 3175 
Q 2972 2956 3137 2557 
Q 3303 2159 3303 1684 
Q 3303 1175 3120 767 
Q 2938 359 2589 142 
Q 2241 -75 1856 -75 
Q 1575 -75 1351 44 
Q 1128 163 984 344 
L 984 -1272 
L 422 -1272 
z
M 931 1641 
Q 931 1000 1190 694 
Q 1450 388 1819 388 
Q 2194 388 2461 705 
Q 2728 1022 2728 1688 
Q 2728 2322 2467 2637 
Q 2206 2953 1844 2953 
Q 1484 2953 1207 2617 
Q 931 2281 931 1641 
z
" id="ArialMT-70" transform="scale(0.015625)"/>
       <path d="M 319 -275 
L 866 -356 
Q 900 -609 1056 -725 
Q 1266 -881 1628 -881 
Q 2019 -881 2231 -725 
Q 2444 -569 2519 -288 
Q 2563 -116 2559 434 
Q 2191 0 1641 0 
Q 956 0 581 494 
Q 206 988 206 1678 
Q 206 2153 378 2554 
Q 550 2956 876 3175 
Q 1203 3394 1644 3394 
Q 2231 3394 2613 2919 
L 2613 3319 
L 3131 3319 
L 3131 450 
Q 3131 -325 2973 -648 
Q 2816 -972 2473 -1159 
Q 2131 -1347 1631 -1347 
Q 1038 -1347 672 -1080 
Q 306 -813 319 -275 
z
M 784 1719 
Q 784 1066 1043 766 
Q 1303 466 1694 466 
Q 2081 466 2343 764 
Q 2606 1063 2606 1700 
Q 2606 2309 2336 2618 
Q 2066 2928 1684 2928 
Q 1309 2928 1046 2623 
Q 784 2319 784 1719 
z
" id="ArialMT-67" transform="scale(0.015625)"/>
      </defs>
      <use xlink:href="#ArialMT-73"/>
      <use x="50" xlink:href="#ArialMT-61"/>
      <use x="105.615234" xlink:href="#ArialMT-6d"/>
      <use x="188.916016" xlink:href="#ArialMT-70"/>
      <use x="244.53125" xlink:href="#ArialMT-6c"/>
      <use x="266.748047" xlink:href="#ArialMT-69"/>
      <use x="288.964844" xlink:href="#ArialMT-6e"/>
      <use x="344.580078" xlink:href="#ArialMT-67"/>
     </g>
    </g>
    <g id="patch_34">
     <path d="M 398.4875 99.93125 
L 438.4875 99.93125 
L 438.4875 85.93125 
L 398.4875 85.93125 
z
" style="fill:#5f9e6e;stroke:#ffffff;stroke-linejoin:miter;"/>
    </g>
    <g id="text_21">
     <!-- lime -->
     <g style="fill:#262626;" transform="translate(454.4875 99.93125)scale(0.2 -0.2)">
      <use xlink:href="#ArialMT-6c"/>
      <use x="22.216797" xlink:href="#ArialMT-69"/>
      <use x="44.433594" xlink:href="#ArialMT-6d"/>
      <use x="127.734375" xlink:href="#ArialMT-65"/>
     </g>
    </g>
   </g>
  </g>
 </g>
 <defs>
  <clipPath id="p0ec6e37f53">
   <rect height="503.2" width="486.971875" x="65.55" y="10.8"/>
  </clipPath>
 </defs>
</svg>
