<?xml version="1.0" encoding="utf-8" standalone="no"?>
<!DOCTYPE svg PUBLIC "-//W3C//DTD SVG 1.1//EN"
  "http://www.w3.org/Graphics/SVG/1.1/DTD/svg11.dtd">
<svg height="432pt" version="1.1" viewBox="0 0 1296 432" width="1296pt" xmlns="http://www.w3.org/2000/svg" xmlns:xlink="http://www.w3.org/1999/xlink">
 <metadata>
  <rdf:RDF xmlns:cc="http://creativecommons.org/ns#" xmlns:dc="http://purl.org/dc/elements/1.1/" xmlns:rdf="http://www.w3.org/1999/02/22-rdf-syntax-ns#">
   <cc:Work>
    <dc:type rdf:resource="http://purl.org/dc/dcmitype/StillImage"/>
    <dc:date>2021-10-08T01:41:22.538394</dc:date>
    <dc:format>image/svg+xml</dc:format>
    <dc:creator>
     <cc:Agent>
      <dc:title>Matplotlib v3.4.2, https://matplotlib.org/</dc:title>
     </cc:Agent>
    </dc:creator>
   </cc:Work>
  </rdf:RDF>
 </metadata>
 <defs>
  <style type="text/css">*{stroke-linecap:butt;stroke-linejoin:round;}</style>
 </defs>
 <g id="figure_1">
  <g id="patch_1">
   <path d="M 0 432 
L 1296 432 
L 1296 0 
L 0 0 
z
" style="fill:none;"/>
  </g>
  <g id="axes_1">
   <g id="patch_2">
    <path d="M 62.8 353.68 
L 428.4 353.68 
L 428.4 10.8 
L 62.8 10.8 
z
" style="fill:#eaeaf2;"/>
   </g>
   <g id="matplotlib.axis_1">
    <g id="xtick_1">
     <g id="line2d_1">
      <path clip-path="url(#pe28afda60d)" d="M 79.418182 353.68 
L 79.418182 10.8 
" style="fill:none;stroke:#ffffff;stroke-linecap:round;"/>
     </g>
     <g id="text_1">
      <!-- −2 -->
      <g style="fill:#262626;" transform="translate(71.437088 373.200938)scale(0.14 -0.14)">
       <defs>
        <path d="M 3381 1997 
L 356 1997 
L 356 2522 
L 3381 2522 
L 3381 1997 
z
" id="ArialMT-2212" transform="scale(0.015625)"/>
        <path d="M 3222 541 
L 3222 0 
L 194 0 
Q 188 203 259 391 
Q 375 700 629 1000 
Q 884 1300 1366 1694 
Q 2113 2306 2375 2664 
Q 2638 3022 2638 3341 
Q 2638 3675 2398 3904 
Q 2159 4134 1775 4134 
Q 1369 4134 1125 3890 
Q 881 3647 878 3216 
L 300 3275 
Q 359 3922 746 4261 
Q 1134 4600 1788 4600 
Q 2447 4600 2831 4234 
Q 3216 3869 3216 3328 
Q 3216 3053 3103 2787 
Q 2991 2522 2730 2228 
Q 2469 1934 1863 1422 
Q 1356 997 1212 845 
Q 1069 694 975 541 
L 3222 541 
z
" id="ArialMT-32" transform="scale(0.015625)"/>
       </defs>
       <use xlink:href="#ArialMT-2212"/>
       <use x="58.398438" xlink:href="#ArialMT-32"/>
      </g>
     </g>
    </g>
    <g id="xtick_2">
     <g id="line2d_2">
      <path clip-path="url(#pe28afda60d)" d="M 162.509091 353.68 
L 162.509091 10.8 
" style="fill:none;stroke:#ffffff;stroke-linecap:round;"/>
     </g>
     <g id="text_2">
      <!-- −1 -->
      <g style="fill:#262626;" transform="translate(154.527997 373.200938)scale(0.14 -0.14)">
       <defs>
        <path d="M 2384 0 
L 1822 0 
L 1822 3584 
Q 1619 3391 1289 3197 
Q 959 3003 697 2906 
L 697 3450 
Q 1169 3672 1522 3987 
Q 1875 4303 2022 4600 
L 2384 4600 
L 2384 0 
z
" id="ArialMT-31" transform="scale(0.015625)"/>
       </defs>
       <use xlink:href="#ArialMT-2212"/>
       <use x="58.398438" xlink:href="#ArialMT-31"/>
      </g>
     </g>
    </g>
    <g id="xtick_3">
     <g id="line2d_3">
      <path clip-path="url(#pe28afda60d)" d="M 245.6 353.68 
L 245.6 10.8 
" style="fill:none;stroke:#ffffff;stroke-linecap:round;"/>
     </g>
     <g id="text_3">
      <!-- 0 -->
      <g style="fill:#262626;" transform="translate(241.707344 373.200938)scale(0.14 -0.14)">
       <defs>
        <path d="M 266 2259 
Q 266 3072 433 3567 
Q 600 4063 929 4331 
Q 1259 4600 1759 4600 
Q 2128 4600 2406 4451 
Q 2684 4303 2865 4023 
Q 3047 3744 3150 3342 
Q 3253 2941 3253 2259 
Q 3253 1453 3087 958 
Q 2922 463 2592 192 
Q 2263 -78 1759 -78 
Q 1097 -78 719 397 
Q 266 969 266 2259 
z
M 844 2259 
Q 844 1131 1108 757 
Q 1372 384 1759 384 
Q 2147 384 2411 759 
Q 2675 1134 2675 2259 
Q 2675 3391 2411 3762 
Q 2147 4134 1753 4134 
Q 1366 4134 1134 3806 
Q 844 3388 844 2259 
z
" id="ArialMT-30" transform="scale(0.015625)"/>
       </defs>
       <use xlink:href="#ArialMT-30"/>
      </g>
     </g>
    </g>
    <g id="xtick_4">
     <g id="line2d_4">
      <path clip-path="url(#pe28afda60d)" d="M 328.690909 353.68 
L 328.690909 10.8 
" style="fill:none;stroke:#ffffff;stroke-linecap:round;"/>
     </g>
     <g id="text_4">
      <!-- 1 -->
      <g style="fill:#262626;" transform="translate(324.798253 373.200938)scale(0.14 -0.14)">
       <use xlink:href="#ArialMT-31"/>
      </g>
     </g>
    </g>
    <g id="xtick_5">
     <g id="line2d_5">
      <path clip-path="url(#pe28afda60d)" d="M 411.781818 353.68 
L 411.781818 10.8 
" style="fill:none;stroke:#ffffff;stroke-linecap:round;"/>
     </g>
     <g id="text_5">
      <!-- 2 -->
      <g style="fill:#262626;" transform="translate(407.889162 373.200938)scale(0.14 -0.14)">
       <use xlink:href="#ArialMT-32"/>
      </g>
     </g>
    </g>
    <g id="text_6">
     <!-- Position -->
     <g style="fill:#262626;" transform="translate(210.025 394.299062)scale(0.2 -0.2)">
      <defs>
       <path d="M 494 0 
L 494 4581 
L 2222 4581 
Q 2678 4581 2919 4538 
Q 3256 4481 3484 4323 
Q 3713 4166 3852 3881 
Q 3991 3597 3991 3256 
Q 3991 2672 3619 2267 
Q 3247 1863 2275 1863 
L 1100 1863 
L 1100 0 
L 494 0 
z
M 1100 2403 
L 2284 2403 
Q 2872 2403 3119 2622 
Q 3366 2841 3366 3238 
Q 3366 3525 3220 3729 
Q 3075 3934 2838 4000 
Q 2684 4041 2272 4041 
L 1100 4041 
L 1100 2403 
z
" id="ArialMT-50" transform="scale(0.015625)"/>
       <path d="M 213 1659 
Q 213 2581 725 3025 
Q 1153 3394 1769 3394 
Q 2453 3394 2887 2945 
Q 3322 2497 3322 1706 
Q 3322 1066 3130 698 
Q 2938 331 2570 128 
Q 2203 -75 1769 -75 
Q 1072 -75 642 372 
Q 213 819 213 1659 
z
M 791 1659 
Q 791 1022 1069 705 
Q 1347 388 1769 388 
Q 2188 388 2466 706 
Q 2744 1025 2744 1678 
Q 2744 2294 2464 2611 
Q 2184 2928 1769 2928 
Q 1347 2928 1069 2612 
Q 791 2297 791 1659 
z
" id="ArialMT-6f" transform="scale(0.015625)"/>
       <path d="M 197 991 
L 753 1078 
Q 800 744 1014 566 
Q 1228 388 1613 388 
Q 2000 388 2187 545 
Q 2375 703 2375 916 
Q 2375 1106 2209 1216 
Q 2094 1291 1634 1406 
Q 1016 1563 777 1677 
Q 538 1791 414 1992 
Q 291 2194 291 2438 
Q 291 2659 392 2848 
Q 494 3038 669 3163 
Q 800 3259 1026 3326 
Q 1253 3394 1513 3394 
Q 1903 3394 2198 3281 
Q 2494 3169 2634 2976 
Q 2775 2784 2828 2463 
L 2278 2388 
Q 2241 2644 2061 2787 
Q 1881 2931 1553 2931 
Q 1166 2931 1000 2803 
Q 834 2675 834 2503 
Q 834 2394 903 2306 
Q 972 2216 1119 2156 
Q 1203 2125 1616 2013 
Q 2213 1853 2448 1751 
Q 2684 1650 2818 1456 
Q 2953 1263 2953 975 
Q 2953 694 2789 445 
Q 2625 197 2315 61 
Q 2006 -75 1616 -75 
Q 969 -75 630 194 
Q 291 463 197 991 
z
" id="ArialMT-73" transform="scale(0.015625)"/>
       <path d="M 425 3934 
L 425 4581 
L 988 4581 
L 988 3934 
L 425 3934 
z
M 425 0 
L 425 3319 
L 988 3319 
L 988 0 
L 425 0 
z
" id="ArialMT-69" transform="scale(0.015625)"/>
       <path d="M 1650 503 
L 1731 6 
Q 1494 -44 1306 -44 
Q 1000 -44 831 53 
Q 663 150 594 308 
Q 525 466 525 972 
L 525 2881 
L 113 2881 
L 113 3319 
L 525 3319 
L 525 4141 
L 1084 4478 
L 1084 3319 
L 1650 3319 
L 1650 2881 
L 1084 2881 
L 1084 941 
Q 1084 700 1114 631 
Q 1144 563 1211 522 
Q 1278 481 1403 481 
Q 1497 481 1650 503 
z
" id="ArialMT-74" transform="scale(0.015625)"/>
       <path d="M 422 0 
L 422 3319 
L 928 3319 
L 928 2847 
Q 1294 3394 1984 3394 
Q 2284 3394 2536 3286 
Q 2788 3178 2913 3003 
Q 3038 2828 3088 2588 
Q 3119 2431 3119 2041 
L 3119 0 
L 2556 0 
L 2556 2019 
Q 2556 2363 2490 2533 
Q 2425 2703 2258 2804 
Q 2091 2906 1866 2906 
Q 1506 2906 1245 2678 
Q 984 2450 984 1813 
L 984 0 
L 422 0 
z
" id="ArialMT-6e" transform="scale(0.015625)"/>
      </defs>
      <use xlink:href="#ArialMT-50"/>
      <use x="66.699219" xlink:href="#ArialMT-6f"/>
      <use x="122.314453" xlink:href="#ArialMT-73"/>
      <use x="172.314453" xlink:href="#ArialMT-69"/>
      <use x="194.53125" xlink:href="#ArialMT-74"/>
      <use x="222.314453" xlink:href="#ArialMT-69"/>
      <use x="244.53125" xlink:href="#ArialMT-6f"/>
      <use x="300.146484" xlink:href="#ArialMT-6e"/>
     </g>
    </g>
   </g>
   <g id="matplotlib.axis_2">
    <g id="ytick_1">
     <g id="line2d_6">
      <path clip-path="url(#pe28afda60d)" d="M 62.8 303.47264 
L 428.4 303.47264 
" style="fill:none;stroke:#ffffff;stroke-linecap:round;"/>
     </g>
     <g id="text_7">
      <!-- 0.0 -->
      <g style="fill:#262626;" transform="translate(33.84 308.483109)scale(0.14 -0.14)">
       <defs>
        <path d="M 581 0 
L 581 641 
L 1222 641 
L 1222 0 
L 581 0 
z
" id="ArialMT-2e" transform="scale(0.015625)"/>
       </defs>
       <use xlink:href="#ArialMT-30"/>
       <use x="55.615234" xlink:href="#ArialMT-2e"/>
       <use x="83.398438" xlink:href="#ArialMT-30"/>
      </g>
     </g>
    </g>
    <g id="ytick_2">
     <g id="line2d_7">
      <path clip-path="url(#pe28afda60d)" d="M 62.8 234.200844 
L 428.4 234.200844 
" style="fill:none;stroke:#ffffff;stroke-linecap:round;"/>
     </g>
     <g id="text_8">
      <!-- 0.5 -->
      <g style="fill:#262626;" transform="translate(33.84 239.211313)scale(0.14 -0.14)">
       <defs>
        <path d="M 266 1200 
L 856 1250 
Q 922 819 1161 601 
Q 1400 384 1738 384 
Q 2144 384 2425 690 
Q 2706 997 2706 1503 
Q 2706 1984 2436 2262 
Q 2166 2541 1728 2541 
Q 1456 2541 1237 2417 
Q 1019 2294 894 2097 
L 366 2166 
L 809 4519 
L 3088 4519 
L 3088 3981 
L 1259 3981 
L 1013 2750 
Q 1425 3038 1878 3038 
Q 2478 3038 2890 2622 
Q 3303 2206 3303 1553 
Q 3303 931 2941 478 
Q 2500 -78 1738 -78 
Q 1113 -78 717 272 
Q 322 622 266 1200 
z
" id="ArialMT-35" transform="scale(0.015625)"/>
       </defs>
       <use xlink:href="#ArialMT-30"/>
       <use x="55.615234" xlink:href="#ArialMT-2e"/>
       <use x="83.398438" xlink:href="#ArialMT-35"/>
      </g>
     </g>
    </g>
    <g id="ytick_3">
     <g id="line2d_8">
      <path clip-path="url(#pe28afda60d)" d="M 62.8 164.929047 
L 428.4 164.929047 
" style="fill:none;stroke:#ffffff;stroke-linecap:round;"/>
     </g>
     <g id="text_9">
      <!-- 1.0 -->
      <g style="fill:#262626;" transform="translate(33.84 169.939516)scale(0.14 -0.14)">
       <use xlink:href="#ArialMT-31"/>
       <use x="55.615234" xlink:href="#ArialMT-2e"/>
       <use x="83.398438" xlink:href="#ArialMT-30"/>
      </g>
     </g>
    </g>
    <g id="ytick_4">
     <g id="line2d_9">
      <path clip-path="url(#pe28afda60d)" d="M 62.8 95.657251 
L 428.4 95.657251 
" style="fill:none;stroke:#ffffff;stroke-linecap:round;"/>
     </g>
     <g id="text_10">
      <!-- 1.5 -->
      <g style="fill:#262626;" transform="translate(33.84 100.66772)scale(0.14 -0.14)">
       <use xlink:href="#ArialMT-31"/>
       <use x="55.615234" xlink:href="#ArialMT-2e"/>
       <use x="83.398438" xlink:href="#ArialMT-35"/>
      </g>
     </g>
    </g>
    <g id="ytick_5">
     <g id="line2d_10">
      <path clip-path="url(#pe28afda60d)" d="M 62.8 26.385455 
L 428.4 26.385455 
" style="fill:none;stroke:#ffffff;stroke-linecap:round;"/>
     </g>
     <g id="text_11">
      <!-- 2.0 -->
      <g style="fill:#262626;" transform="translate(33.84 31.395923)scale(0.14 -0.14)">
       <use xlink:href="#ArialMT-32"/>
       <use x="55.615234" xlink:href="#ArialMT-2e"/>
       <use x="83.398438" xlink:href="#ArialMT-30"/>
      </g>
     </g>
    </g>
    <g id="text_12">
     <!-- Potential -->
     <g style="fill:#262626;" transform="translate(25.865 221.154063)rotate(-90)scale(0.2 -0.2)">
      <defs>
       <path d="M 2694 1069 
L 3275 997 
Q 3138 488 2766 206 
Q 2394 -75 1816 -75 
Q 1088 -75 661 373 
Q 234 822 234 1631 
Q 234 2469 665 2931 
Q 1097 3394 1784 3394 
Q 2450 3394 2872 2941 
Q 3294 2488 3294 1666 
Q 3294 1616 3291 1516 
L 816 1516 
Q 847 969 1125 678 
Q 1403 388 1819 388 
Q 2128 388 2347 550 
Q 2566 713 2694 1069 
z
M 847 1978 
L 2700 1978 
Q 2663 2397 2488 2606 
Q 2219 2931 1791 2931 
Q 1403 2931 1139 2672 
Q 875 2413 847 1978 
z
" id="ArialMT-65" transform="scale(0.015625)"/>
       <path d="M 2588 409 
Q 2275 144 1986 34 
Q 1697 -75 1366 -75 
Q 819 -75 525 192 
Q 231 459 231 875 
Q 231 1119 342 1320 
Q 453 1522 633 1644 
Q 813 1766 1038 1828 
Q 1203 1872 1538 1913 
Q 2219 1994 2541 2106 
Q 2544 2222 2544 2253 
Q 2544 2597 2384 2738 
Q 2169 2928 1744 2928 
Q 1347 2928 1158 2789 
Q 969 2650 878 2297 
L 328 2372 
Q 403 2725 575 2942 
Q 747 3159 1072 3276 
Q 1397 3394 1825 3394 
Q 2250 3394 2515 3294 
Q 2781 3194 2906 3042 
Q 3031 2891 3081 2659 
Q 3109 2516 3109 2141 
L 3109 1391 
Q 3109 606 3145 398 
Q 3181 191 3288 0 
L 2700 0 
Q 2613 175 2588 409 
z
M 2541 1666 
Q 2234 1541 1622 1453 
Q 1275 1403 1131 1340 
Q 988 1278 909 1158 
Q 831 1038 831 891 
Q 831 666 1001 516 
Q 1172 366 1500 366 
Q 1825 366 2078 508 
Q 2331 650 2450 897 
Q 2541 1088 2541 1459 
L 2541 1666 
z
" id="ArialMT-61" transform="scale(0.015625)"/>
       <path d="M 409 0 
L 409 4581 
L 972 4581 
L 972 0 
L 409 0 
z
" id="ArialMT-6c" transform="scale(0.015625)"/>
      </defs>
      <use xlink:href="#ArialMT-50"/>
      <use x="66.699219" xlink:href="#ArialMT-6f"/>
      <use x="122.314453" xlink:href="#ArialMT-74"/>
      <use x="150.097656" xlink:href="#ArialMT-65"/>
      <use x="205.712891" xlink:href="#ArialMT-6e"/>
      <use x="261.328125" xlink:href="#ArialMT-74"/>
      <use x="289.111328" xlink:href="#ArialMT-69"/>
      <use x="311.328125" xlink:href="#ArialMT-61"/>
      <use x="366.943359" xlink:href="#ArialMT-6c"/>
     </g>
    </g>
   </g>
   <g id="line2d_11">
    <path clip-path="url(#pe28afda60d)" d="M 79.418182 26.385455 
L 82.77539 58.746026 
L 86.132599 88.727088 
L 89.489807 116.434976 
L 92.847016 141.973809 
L 96.204224 165.445493 
L 99.561433 186.949717 
L 102.918641 206.583956 
L 106.275849 224.443467 
L 109.633058 240.621295 
L 112.990266 255.208268 
L 116.347475 268.292999 
L 119.704683 279.961885 
L 123.061892 290.299109 
L 126.4191 299.386637 
L 129.776309 307.304222 
L 133.133517 314.129398 
L 136.490725 319.937488 
L 139.847934 324.801597 
L 143.205142 328.792616 
L 146.562351 331.979218 
L 149.919559 334.427864 
L 153.276768 336.202799 
L 156.633976 337.366051 
L 159.991185 337.977433 
L 163.348393 338.094545 
L 166.705601 337.77277 
L 170.06281 337.065274 
L 173.420018 336.023012 
L 176.777227 334.694718 
L 180.134435 333.126916 
L 183.491644 331.363912 
L 186.848852 329.447797 
L 190.206061 327.418447 
L 193.563269 325.313521 
L 196.920478 323.168467 
L 200.277686 321.016512 
L 203.634894 318.888672 
L 206.992103 316.813746 
L 210.349311 314.818317 
L 213.70652 312.926755 
L 217.063728 311.161213 
L 220.420937 309.541628 
L 223.778145 308.085723 
L 227.135354 306.809005 
L 230.492562 305.724766 
L 233.84977 304.844083 
L 237.206979 304.175818 
L 240.564187 303.726615 
L 243.921396 303.500906 
L 247.278604 303.500906 
L 250.635813 303.726615 
L 253.993021 304.175818 
L 257.35023 304.844083 
L 260.707438 305.724766 
L 264.064646 306.809005 
L 267.421855 308.085723 
L 270.779063 309.541628 
L 274.136272 311.161213 
L 277.49348 312.926755 
L 280.850689 314.818317 
L 284.207897 316.813746 
L 287.565106 318.888672 
L 290.922314 321.016512 
L 294.279522 323.168467 
L 297.636731 325.313521 
L 300.993939 327.418447 
L 304.351148 329.447797 
L 307.708356 331.363912 
L 311.065565 333.126916 
L 314.422773 334.694718 
L 317.779982 336.023012 
L 321.13719 337.065274 
L 324.494399 337.77277 
L 327.851607 338.094545 
L 331.208815 337.977433 
L 334.566024 337.366051 
L 337.923232 336.202799 
L 341.280441 334.427864 
L 344.637649 331.979218 
L 347.994858 328.792616 
L 351.352066 324.801597 
L 354.709275 319.937488 
L 358.066483 314.129398 
L 361.423691 307.304222 
L 364.7809 299.386637 
L 368.138108 290.299109 
L 371.495317 279.961885 
L 374.852525 268.292999 
L 378.209734 255.208268 
L 381.566942 240.621295 
L 384.924151 224.443467 
L 388.281359 206.583956 
L 391.638567 186.949717 
L 394.995776 165.445493 
L 398.352984 141.973809 
L 401.710193 116.434976 
L 405.067401 88.727088 
L 408.42461 58.746026 
L 411.781818 26.385455 
" style="fill:none;stroke:#4c72b0;stroke-linecap:round;stroke-width:1.5;"/>
   </g>
   <g id="patch_3">
    <path d="M 62.8 353.68 
L 62.8 10.8 
" style="fill:none;stroke:#ffffff;stroke-linecap:square;stroke-linejoin:miter;stroke-width:1.25;"/>
   </g>
   <g id="patch_4">
    <path d="M 428.4 353.68 
L 428.4 10.8 
" style="fill:none;stroke:#ffffff;stroke-linecap:square;stroke-linejoin:miter;stroke-width:1.25;"/>
   </g>
   <g id="patch_5">
    <path d="M 62.8 353.68 
L 428.4 353.68 
" style="fill:none;stroke:#ffffff;stroke-linecap:square;stroke-linejoin:miter;stroke-width:1.25;"/>
   </g>
   <g id="patch_6">
    <path d="M 62.8 10.8 
L 428.4 10.8 
" style="fill:none;stroke:#ffffff;stroke-linecap:square;stroke-linejoin:miter;stroke-width:1.25;"/>
   </g>
  </g>
  <g id="axes_2">
   <g id="patch_7">
    <path d="M 491.2 353.68 
L 856.8 353.68 
L 856.8 10.8 
L 491.2 10.8 
z
" style="fill:#eaeaf2;"/>
   </g>
   <g id="matplotlib.axis_3">
    <g id="xtick_6">
     <g id="line2d_12">
      <path clip-path="url(#pafa91dbe64)" d="M 498.835381 353.68 
L 498.835381 10.8 
" style="fill:none;stroke:#ffffff;stroke-linecap:round;"/>
     </g>
     <g id="text_13">
      <!-- 0 -->
      <g style="fill:#262626;" transform="translate(494.942725 373.200938)scale(0.14 -0.14)">
       <use xlink:href="#ArialMT-30"/>
      </g>
     </g>
    </g>
    <g id="xtick_7">
     <g id="line2d_13">
      <path clip-path="url(#pafa91dbe64)" d="M 588.663391 353.68 
L 588.663391 10.8 
" style="fill:none;stroke:#ffffff;stroke-linecap:round;"/>
     </g>
     <g id="text_14">
      <!-- 10 -->
      <g style="fill:#262626;" transform="translate(580.878078 373.200938)scale(0.14 -0.14)">
       <use xlink:href="#ArialMT-31"/>
       <use x="55.615234" xlink:href="#ArialMT-30"/>
      </g>
     </g>
    </g>
    <g id="xtick_8">
     <g id="line2d_14">
      <path clip-path="url(#pafa91dbe64)" d="M 678.4914 353.68 
L 678.4914 10.8 
" style="fill:none;stroke:#ffffff;stroke-linecap:round;"/>
     </g>
     <g id="text_15">
      <!-- 20 -->
      <g style="fill:#262626;" transform="translate(670.706088 373.200938)scale(0.14 -0.14)">
       <use xlink:href="#ArialMT-32"/>
       <use x="55.615234" xlink:href="#ArialMT-30"/>
      </g>
     </g>
    </g>
    <g id="xtick_9">
     <g id="line2d_15">
      <path clip-path="url(#pafa91dbe64)" d="M 768.31941 353.68 
L 768.31941 10.8 
" style="fill:none;stroke:#ffffff;stroke-linecap:round;"/>
     </g>
     <g id="text_16">
      <!-- 30 -->
      <g style="fill:#262626;" transform="translate(760.534098 373.200938)scale(0.14 -0.14)">
       <defs>
        <path d="M 269 1209 
L 831 1284 
Q 928 806 1161 595 
Q 1394 384 1728 384 
Q 2125 384 2398 659 
Q 2672 934 2672 1341 
Q 2672 1728 2419 1979 
Q 2166 2231 1775 2231 
Q 1616 2231 1378 2169 
L 1441 2663 
Q 1497 2656 1531 2656 
Q 1891 2656 2178 2843 
Q 2466 3031 2466 3422 
Q 2466 3731 2256 3934 
Q 2047 4138 1716 4138 
Q 1388 4138 1169 3931 
Q 950 3725 888 3313 
L 325 3413 
Q 428 3978 793 4289 
Q 1159 4600 1703 4600 
Q 2078 4600 2393 4439 
Q 2709 4278 2876 4000 
Q 3044 3722 3044 3409 
Q 3044 3113 2884 2869 
Q 2725 2625 2413 2481 
Q 2819 2388 3044 2092 
Q 3269 1797 3269 1353 
Q 3269 753 2831 336 
Q 2394 -81 1725 -81 
Q 1122 -81 723 278 
Q 325 638 269 1209 
z
" id="ArialMT-33" transform="scale(0.015625)"/>
       </defs>
       <use xlink:href="#ArialMT-33"/>
       <use x="55.615234" xlink:href="#ArialMT-30"/>
      </g>
     </g>
    </g>
    <g id="text_17">
     <!-- Epochs -->
     <g style="fill:#262626;" transform="translate(640.646875 394.299062)scale(0.2 -0.2)">
      <defs>
       <path d="M 506 0 
L 506 4581 
L 3819 4581 
L 3819 4041 
L 1113 4041 
L 1113 2638 
L 3647 2638 
L 3647 2100 
L 1113 2100 
L 1113 541 
L 3925 541 
L 3925 0 
L 506 0 
z
" id="ArialMT-45" transform="scale(0.015625)"/>
       <path d="M 422 -1272 
L 422 3319 
L 934 3319 
L 934 2888 
Q 1116 3141 1344 3267 
Q 1572 3394 1897 3394 
Q 2322 3394 2647 3175 
Q 2972 2956 3137 2557 
Q 3303 2159 3303 1684 
Q 3303 1175 3120 767 
Q 2938 359 2589 142 
Q 2241 -75 1856 -75 
Q 1575 -75 1351 44 
Q 1128 163 984 344 
L 984 -1272 
L 422 -1272 
z
M 931 1641 
Q 931 1000 1190 694 
Q 1450 388 1819 388 
Q 2194 388 2461 705 
Q 2728 1022 2728 1688 
Q 2728 2322 2467 2637 
Q 2206 2953 1844 2953 
Q 1484 2953 1207 2617 
Q 931 2281 931 1641 
z
" id="ArialMT-70" transform="scale(0.015625)"/>
       <path d="M 2588 1216 
L 3141 1144 
Q 3050 572 2676 248 
Q 2303 -75 1759 -75 
Q 1078 -75 664 370 
Q 250 816 250 1647 
Q 250 2184 428 2587 
Q 606 2991 970 3192 
Q 1334 3394 1763 3394 
Q 2303 3394 2647 3120 
Q 2991 2847 3088 2344 
L 2541 2259 
Q 2463 2594 2264 2762 
Q 2066 2931 1784 2931 
Q 1359 2931 1093 2626 
Q 828 2322 828 1663 
Q 828 994 1084 691 
Q 1341 388 1753 388 
Q 2084 388 2306 591 
Q 2528 794 2588 1216 
z
" id="ArialMT-63" transform="scale(0.015625)"/>
       <path d="M 422 0 
L 422 4581 
L 984 4581 
L 984 2938 
Q 1378 3394 1978 3394 
Q 2347 3394 2619 3248 
Q 2891 3103 3008 2847 
Q 3125 2591 3125 2103 
L 3125 0 
L 2563 0 
L 2563 2103 
Q 2563 2525 2380 2717 
Q 2197 2909 1863 2909 
Q 1613 2909 1392 2779 
Q 1172 2650 1078 2428 
Q 984 2206 984 1816 
L 984 0 
L 422 0 
z
" id="ArialMT-68" transform="scale(0.015625)"/>
      </defs>
      <use xlink:href="#ArialMT-45"/>
      <use x="66.699219" xlink:href="#ArialMT-70"/>
      <use x="122.314453" xlink:href="#ArialMT-6f"/>
      <use x="177.929688" xlink:href="#ArialMT-63"/>
      <use x="227.929688" xlink:href="#ArialMT-68"/>
      <use x="283.544922" xlink:href="#ArialMT-73"/>
     </g>
    </g>
   </g>
   <g id="matplotlib.axis_4">
    <g id="ytick_6">
     <g id="line2d_16">
      <path clip-path="url(#pafa91dbe64)" d="M 491.2 346.773908 
L 856.8 346.773908 
" style="fill:none;stroke:#ffffff;stroke-linecap:round;"/>
     </g>
     <g id="text_18">
      <!-- 0.2 -->
      <g style="fill:#262626;" transform="translate(462.24 351.784377)scale(0.14 -0.14)">
       <use xlink:href="#ArialMT-30"/>
       <use x="55.615234" xlink:href="#ArialMT-2e"/>
       <use x="83.398438" xlink:href="#ArialMT-32"/>
      </g>
     </g>
    </g>
    <g id="ytick_7">
     <g id="line2d_17">
      <path clip-path="url(#pafa91dbe64)" d="M 491.2 298.171449 
L 856.8 298.171449 
" style="fill:none;stroke:#ffffff;stroke-linecap:round;"/>
     </g>
     <g id="text_19">
      <!-- 0.3 -->
      <g style="fill:#262626;" transform="translate(462.24 303.181918)scale(0.14 -0.14)">
       <use xlink:href="#ArialMT-30"/>
       <use x="55.615234" xlink:href="#ArialMT-2e"/>
       <use x="83.398438" xlink:href="#ArialMT-33"/>
      </g>
     </g>
    </g>
    <g id="ytick_8">
     <g id="line2d_18">
      <path clip-path="url(#pafa91dbe64)" d="M 491.2 249.56899 
L 856.8 249.56899 
" style="fill:none;stroke:#ffffff;stroke-linecap:round;"/>
     </g>
     <g id="text_20">
      <!-- 0.4 -->
      <g style="fill:#262626;" transform="translate(462.24 254.579459)scale(0.14 -0.14)">
       <defs>
        <path d="M 2069 0 
L 2069 1097 
L 81 1097 
L 81 1613 
L 2172 4581 
L 2631 4581 
L 2631 1613 
L 3250 1613 
L 3250 1097 
L 2631 1097 
L 2631 0 
L 2069 0 
z
M 2069 1613 
L 2069 3678 
L 634 1613 
L 2069 1613 
z
" id="ArialMT-34" transform="scale(0.015625)"/>
       </defs>
       <use xlink:href="#ArialMT-30"/>
       <use x="55.615234" xlink:href="#ArialMT-2e"/>
       <use x="83.398438" xlink:href="#ArialMT-34"/>
      </g>
     </g>
    </g>
    <g id="ytick_9">
     <g id="line2d_19">
      <path clip-path="url(#pafa91dbe64)" d="M 491.2 200.966531 
L 856.8 200.966531 
" style="fill:none;stroke:#ffffff;stroke-linecap:round;"/>
     </g>
     <g id="text_21">
      <!-- 0.5 -->
      <g style="fill:#262626;" transform="translate(462.24 205.977)scale(0.14 -0.14)">
       <use xlink:href="#ArialMT-30"/>
       <use x="55.615234" xlink:href="#ArialMT-2e"/>
       <use x="83.398438" xlink:href="#ArialMT-35"/>
      </g>
     </g>
    </g>
    <g id="ytick_10">
     <g id="line2d_20">
      <path clip-path="url(#pafa91dbe64)" d="M 491.2 152.364072 
L 856.8 152.364072 
" style="fill:none;stroke:#ffffff;stroke-linecap:round;"/>
     </g>
     <g id="text_22">
      <!-- 0.6 -->
      <g style="fill:#262626;" transform="translate(462.24 157.374541)scale(0.14 -0.14)">
       <defs>
        <path d="M 3184 3459 
L 2625 3416 
Q 2550 3747 2413 3897 
Q 2184 4138 1850 4138 
Q 1581 4138 1378 3988 
Q 1113 3794 959 3422 
Q 806 3050 800 2363 
Q 1003 2672 1297 2822 
Q 1591 2972 1913 2972 
Q 2475 2972 2870 2558 
Q 3266 2144 3266 1488 
Q 3266 1056 3080 686 
Q 2894 316 2569 119 
Q 2244 -78 1831 -78 
Q 1128 -78 684 439 
Q 241 956 241 2144 
Q 241 3472 731 4075 
Q 1159 4600 1884 4600 
Q 2425 4600 2770 4297 
Q 3116 3994 3184 3459 
z
M 888 1484 
Q 888 1194 1011 928 
Q 1134 663 1356 523 
Q 1578 384 1822 384 
Q 2178 384 2434 671 
Q 2691 959 2691 1453 
Q 2691 1928 2437 2201 
Q 2184 2475 1800 2475 
Q 1419 2475 1153 2201 
Q 888 1928 888 1484 
z
" id="ArialMT-36" transform="scale(0.015625)"/>
       </defs>
       <use xlink:href="#ArialMT-30"/>
       <use x="55.615234" xlink:href="#ArialMT-2e"/>
       <use x="83.398438" xlink:href="#ArialMT-36"/>
      </g>
     </g>
    </g>
    <g id="ytick_11">
     <g id="line2d_21">
      <path clip-path="url(#pafa91dbe64)" d="M 491.2 103.761613 
L 856.8 103.761613 
" style="fill:none;stroke:#ffffff;stroke-linecap:round;"/>
     </g>
     <g id="text_23">
      <!-- 0.7 -->
      <g style="fill:#262626;" transform="translate(462.24 108.772081)scale(0.14 -0.14)">
       <defs>
        <path d="M 303 3981 
L 303 4522 
L 3269 4522 
L 3269 4084 
Q 2831 3619 2401 2847 
Q 1972 2075 1738 1259 
Q 1569 684 1522 0 
L 944 0 
Q 953 541 1156 1306 
Q 1359 2072 1739 2783 
Q 2119 3494 2547 3981 
L 303 3981 
z
" id="ArialMT-37" transform="scale(0.015625)"/>
       </defs>
       <use xlink:href="#ArialMT-30"/>
       <use x="55.615234" xlink:href="#ArialMT-2e"/>
       <use x="83.398438" xlink:href="#ArialMT-37"/>
      </g>
     </g>
    </g>
    <g id="ytick_12">
     <g id="line2d_22">
      <path clip-path="url(#pafa91dbe64)" d="M 491.2 55.159154 
L 856.8 55.159154 
" style="fill:none;stroke:#ffffff;stroke-linecap:round;"/>
     </g>
     <g id="text_24">
      <!-- 0.8 -->
      <g style="fill:#262626;" transform="translate(462.24 60.169622)scale(0.14 -0.14)">
       <defs>
        <path d="M 1131 2484 
Q 781 2613 612 2850 
Q 444 3088 444 3419 
Q 444 3919 803 4259 
Q 1163 4600 1759 4600 
Q 2359 4600 2725 4251 
Q 3091 3903 3091 3403 
Q 3091 3084 2923 2848 
Q 2756 2613 2416 2484 
Q 2838 2347 3058 2040 
Q 3278 1734 3278 1309 
Q 3278 722 2862 322 
Q 2447 -78 1769 -78 
Q 1091 -78 675 323 
Q 259 725 259 1325 
Q 259 1772 486 2073 
Q 713 2375 1131 2484 
z
M 1019 3438 
Q 1019 3113 1228 2906 
Q 1438 2700 1772 2700 
Q 2097 2700 2305 2904 
Q 2513 3109 2513 3406 
Q 2513 3716 2298 3927 
Q 2084 4138 1766 4138 
Q 1444 4138 1231 3931 
Q 1019 3725 1019 3438 
z
M 838 1322 
Q 838 1081 952 856 
Q 1066 631 1291 507 
Q 1516 384 1775 384 
Q 2178 384 2440 643 
Q 2703 903 2703 1303 
Q 2703 1709 2433 1975 
Q 2163 2241 1756 2241 
Q 1359 2241 1098 1978 
Q 838 1716 838 1322 
z
" id="ArialMT-38" transform="scale(0.015625)"/>
       </defs>
       <use xlink:href="#ArialMT-30"/>
       <use x="55.615234" xlink:href="#ArialMT-2e"/>
       <use x="83.398438" xlink:href="#ArialMT-38"/>
      </g>
     </g>
    </g>
    <g id="text_25">
     <!-- Model Loss -->
     <g style="fill:#262626;" transform="translate(454.265 233.374375)rotate(-90)scale(0.2 -0.2)">
      <defs>
       <path d="M 475 0 
L 475 4581 
L 1388 4581 
L 2472 1338 
Q 2622 884 2691 659 
Q 2769 909 2934 1394 
L 4031 4581 
L 4847 4581 
L 4847 0 
L 4263 0 
L 4263 3834 
L 2931 0 
L 2384 0 
L 1059 3900 
L 1059 0 
L 475 0 
z
" id="ArialMT-4d" transform="scale(0.015625)"/>
       <path d="M 2575 0 
L 2575 419 
Q 2259 -75 1647 -75 
Q 1250 -75 917 144 
Q 584 363 401 755 
Q 219 1147 219 1656 
Q 219 2153 384 2558 
Q 550 2963 881 3178 
Q 1213 3394 1622 3394 
Q 1922 3394 2156 3267 
Q 2391 3141 2538 2938 
L 2538 4581 
L 3097 4581 
L 3097 0 
L 2575 0 
z
M 797 1656 
Q 797 1019 1065 703 
Q 1334 388 1700 388 
Q 2069 388 2326 689 
Q 2584 991 2584 1609 
Q 2584 2291 2321 2609 
Q 2059 2928 1675 2928 
Q 1300 2928 1048 2622 
Q 797 2316 797 1656 
z
" id="ArialMT-64" transform="scale(0.015625)"/>
       <path id="ArialMT-20" transform="scale(0.015625)"/>
       <path d="M 469 0 
L 469 4581 
L 1075 4581 
L 1075 541 
L 3331 541 
L 3331 0 
L 469 0 
z
" id="ArialMT-4c" transform="scale(0.015625)"/>
      </defs>
      <use xlink:href="#ArialMT-4d"/>
      <use x="83.300781" xlink:href="#ArialMT-6f"/>
      <use x="138.916016" xlink:href="#ArialMT-64"/>
      <use x="194.53125" xlink:href="#ArialMT-65"/>
      <use x="250.146484" xlink:href="#ArialMT-6c"/>
      <use x="272.363281" xlink:href="#ArialMT-20"/>
      <use x="300.146484" xlink:href="#ArialMT-4c"/>
      <use x="355.761719" xlink:href="#ArialMT-6f"/>
      <use x="411.376953" xlink:href="#ArialMT-73"/>
      <use x="461.376953" xlink:href="#ArialMT-73"/>
     </g>
    </g>
   </g>
   <g id="line2d_23">
    <path clip-path="url(#pafa91dbe64)" d="M 507.818182 88.375287 
L 516.800983 159.356038 
L 525.783784 194.297648 
L 534.766585 253.313011 
L 543.749386 298.249226 
L 552.732187 301.787119 
L 561.714988 308.704414 
L 570.697789 312.976955 
L 579.68059 308.930114 
L 588.663391 315.463044 
L 597.646192 319.529135 
" style="fill:none;stroke:#b1400d;stroke-dasharray:6,0;stroke-dashoffset:0;stroke-width:1.5;"/>
   </g>
   <g id="line2d_24">
    <path clip-path="url(#pafa91dbe64)" d="M 507.818182 118.049057 
L 516.800983 190.879384 
L 525.783784 230.3095 
L 534.766585 311.18342 
L 543.749386 324.471156 
L 552.732187 185.203192 
L 561.714988 333.905762 
L 570.697789 338.094545 
L 579.68059 335.047588 
L 588.663391 334.888677 
L 597.646192 337.062796 
" style="fill:none;stroke:#ffb482;stroke-dasharray:6,3;stroke-dashoffset:0;stroke-width:1.5;"/>
   </g>
   <g id="line2d_25">
    <path clip-path="url(#pafa91dbe64)" d="M 507.818182 26.385455 
L 516.800983 50.951846 
L 525.783784 57.612125 
L 534.766585 61.36597 
L 543.749386 64.035812 
L 552.732187 65.983506 
L 561.714988 67.57285 
L 570.697789 68.928644 
L 579.68059 70.381861 
L 588.663391 71.760916 
L 597.646192 73.162221 
L 606.628993 74.507063 
L 615.611794 75.546309 
L 624.594595 76.434856 
L 633.577396 77.255007 
L 642.560197 77.996708 
L 651.542998 78.753416 
L 660.525799 79.537789 
L 669.5086 80.213441 
L 678.4914 80.929591 
L 687.474201 81.885115 
L 696.457002 82.76138 
L 705.439803 83.337 
L 714.422604 83.783215 
L 723.405405 84.14788 
L 732.388206 84.483953 
L 741.371007 84.842362 
L 750.353808 85.155404 
L 759.336609 85.418707 
L 768.31941 85.662136 
L 777.302211 85.902234 
L 786.285012 86.075847 
L 795.267813 86.277995 
L 804.250614 86.620818 
L 813.233415 86.940262 
L 822.216216 87.180621 
L 831.199017 87.359709 
L 840.181818 87.537581 
" style="fill:none;stroke:#12711c;stroke-dasharray:6,0;stroke-dashoffset:0;stroke-width:1.5;"/>
   </g>
   <g id="line2d_26">
    <path clip-path="url(#pafa91dbe64)" d="M 507.818182 44.062304 
L 516.800983 54.179145 
L 525.783784 59.06091 
L 534.766585 62.293597 
L 543.749386 64.270463 
L 552.732187 66.188377 
L 561.714988 67.374092 
L 570.697789 68.249748 
L 579.68059 70.363813 
L 588.663391 71.9376 
L 597.646192 72.993764 
L 606.628993 74.6179 
L 615.611794 75.26522 
L 624.594595 75.744256 
L 633.577396 76.327583 
L 642.560197 77.665386 
L 651.542998 77.630072 
L 660.525799 78.670998 
L 669.5086 77.318913 
L 678.4914 80.664203 
L 687.474201 81.737314 
L 696.457002 81.135187 
L 705.439803 81.095933 
L 714.422604 83.217531 
L 723.405405 83.43396 
L 732.388206 82.980851 
L 741.371007 84.764174 
L 750.353808 84.180297 
L 759.336609 85.215632 
L 768.31941 83.40728 
L 777.302211 84.808815 
L 786.285012 85.519085 
L 795.267813 84.91325 
L 804.250614 86.132482 
L 813.233415 86.490369 
L 822.216216 85.09089 
L 831.199017 85.912083 
L 840.181818 85.610136 
" style="fill:none;stroke:#8de5a1;stroke-dasharray:6,3;stroke-dashoffset:0;stroke-width:1.5;"/>
   </g>
   <g id="patch_8">
    <path d="M 491.2 353.68 
L 491.2 10.8 
" style="fill:none;stroke:#ffffff;stroke-linecap:square;stroke-linejoin:miter;stroke-width:1.25;"/>
   </g>
   <g id="patch_9">
    <path d="M 856.8 353.68 
L 856.8 10.8 
" style="fill:none;stroke:#ffffff;stroke-linecap:square;stroke-linejoin:miter;stroke-width:1.25;"/>
   </g>
   <g id="patch_10">
    <path d="M 491.2 353.68 
L 856.8 353.68 
" style="fill:none;stroke:#ffffff;stroke-linecap:square;stroke-linejoin:miter;stroke-width:1.25;"/>
   </g>
   <g id="patch_11">
    <path d="M 491.2 10.8 
L 856.8 10.8 
" style="fill:none;stroke:#ffffff;stroke-linecap:square;stroke-linejoin:miter;stroke-width:1.25;"/>
   </g>
  </g>
  <g id="axes_3">
   <g id="patch_12">
    <path d="M 919.6 353.68 
L 1285.2 353.68 
L 1285.2 10.8 
L 919.6 10.8 
z
" style="fill:#eaeaf2;"/>
   </g>
   <g id="matplotlib.axis_5">
    <g id="xtick_10">
     <g id="line2d_27">
      <path clip-path="url(#p94d21a8b00)" d="M 934.467701 353.68 
L 934.467701 10.8 
" style="fill:none;stroke:#ffffff;stroke-linecap:round;"/>
     </g>
     <g id="text_26">
      <!-- 0.00 -->
      <g style="fill:#262626;" transform="translate(920.845045 373.200938)scale(0.14 -0.14)">
       <use xlink:href="#ArialMT-30"/>
       <use x="55.615234" xlink:href="#ArialMT-2e"/>
       <use x="83.398438" xlink:href="#ArialMT-30"/>
       <use x="139.013672" xlink:href="#ArialMT-30"/>
      </g>
     </g>
    </g>
    <g id="xtick_11">
     <g id="line2d_28">
      <path clip-path="url(#p94d21a8b00)" d="M 982.632225 353.68 
L 982.632225 10.8 
" style="fill:none;stroke:#ffffff;stroke-linecap:round;"/>
     </g>
     <g id="text_27">
      <!-- 0.25 -->
      <g style="fill:#262626;" transform="translate(969.009568 373.200938)scale(0.14 -0.14)">
       <use xlink:href="#ArialMT-30"/>
       <use x="55.615234" xlink:href="#ArialMT-2e"/>
       <use x="83.398438" xlink:href="#ArialMT-32"/>
       <use x="139.013672" xlink:href="#ArialMT-35"/>
      </g>
     </g>
    </g>
    <g id="xtick_12">
     <g id="line2d_29">
      <path clip-path="url(#p94d21a8b00)" d="M 1030.796748 353.68 
L 1030.796748 10.8 
" style="fill:none;stroke:#ffffff;stroke-linecap:round;"/>
     </g>
     <g id="text_28">
      <!-- 0.50 -->
      <g style="fill:#262626;" transform="translate(1017.174092 373.200938)scale(0.14 -0.14)">
       <use xlink:href="#ArialMT-30"/>
       <use x="55.615234" xlink:href="#ArialMT-2e"/>
       <use x="83.398438" xlink:href="#ArialMT-35"/>
       <use x="139.013672" xlink:href="#ArialMT-30"/>
      </g>
     </g>
    </g>
    <g id="xtick_13">
     <g id="line2d_30">
      <path clip-path="url(#p94d21a8b00)" d="M 1078.961271 353.68 
L 1078.961271 10.8 
" style="fill:none;stroke:#ffffff;stroke-linecap:round;"/>
     </g>
     <g id="text_29">
      <!-- 0.75 -->
      <g style="fill:#262626;" transform="translate(1065.338615 373.200938)scale(0.14 -0.14)">
       <use xlink:href="#ArialMT-30"/>
       <use x="55.615234" xlink:href="#ArialMT-2e"/>
       <use x="83.398438" xlink:href="#ArialMT-37"/>
       <use x="139.013672" xlink:href="#ArialMT-35"/>
      </g>
     </g>
    </g>
    <g id="xtick_14">
     <g id="line2d_31">
      <path clip-path="url(#p94d21a8b00)" d="M 1127.125794 353.68 
L 1127.125794 10.8 
" style="fill:none;stroke:#ffffff;stroke-linecap:round;"/>
     </g>
     <g id="text_30">
      <!-- 1.00 -->
      <g style="fill:#262626;" transform="translate(1113.503138 373.200938)scale(0.14 -0.14)">
       <use xlink:href="#ArialMT-31"/>
       <use x="55.615234" xlink:href="#ArialMT-2e"/>
       <use x="83.398438" xlink:href="#ArialMT-30"/>
       <use x="139.013672" xlink:href="#ArialMT-30"/>
      </g>
     </g>
    </g>
    <g id="xtick_15">
     <g id="line2d_32">
      <path clip-path="url(#p94d21a8b00)" d="M 1175.290318 353.68 
L 1175.290318 10.8 
" style="fill:none;stroke:#ffffff;stroke-linecap:round;"/>
     </g>
     <g id="text_31">
      <!-- 1.25 -->
      <g style="fill:#262626;" transform="translate(1161.667661 373.200938)scale(0.14 -0.14)">
       <use xlink:href="#ArialMT-31"/>
       <use x="55.615234" xlink:href="#ArialMT-2e"/>
       <use x="83.398438" xlink:href="#ArialMT-32"/>
       <use x="139.013672" xlink:href="#ArialMT-35"/>
      </g>
     </g>
    </g>
    <g id="xtick_16">
     <g id="line2d_33">
      <path clip-path="url(#p94d21a8b00)" d="M 1223.454841 353.68 
L 1223.454841 10.8 
" style="fill:none;stroke:#ffffff;stroke-linecap:round;"/>
     </g>
     <g id="text_32">
      <!-- 1.50 -->
      <g style="fill:#262626;" transform="translate(1209.832185 373.200938)scale(0.14 -0.14)">
       <use xlink:href="#ArialMT-31"/>
       <use x="55.615234" xlink:href="#ArialMT-2e"/>
       <use x="83.398438" xlink:href="#ArialMT-35"/>
       <use x="139.013672" xlink:href="#ArialMT-30"/>
      </g>
     </g>
    </g>
    <g id="xtick_17">
     <g id="line2d_34">
      <path clip-path="url(#p94d21a8b00)" d="M 1271.619364 353.68 
L 1271.619364 10.8 
" style="fill:none;stroke:#ffffff;stroke-linecap:round;"/>
     </g>
     <g id="text_33">
      <!-- 1.75 -->
      <g style="fill:#262626;" transform="translate(1257.996708 373.200938)scale(0.14 -0.14)">
       <use xlink:href="#ArialMT-31"/>
       <use x="55.615234" xlink:href="#ArialMT-2e"/>
       <use x="83.398438" xlink:href="#ArialMT-37"/>
       <use x="139.013672" xlink:href="#ArialMT-35"/>
      </g>
     </g>
    </g>
    <g id="text_34">
     <!-- Error   $\frac{||y_{pred}-y_{true}||}{||y_{true}||}$ -->
     <g style="fill:#262626;" transform="translate(1022.5 403.783437)scale(0.2 -0.2)">
      <defs>
       <path d="M 416 0 
L 416 3319 
L 922 3319 
L 922 2816 
Q 1116 3169 1280 3281 
Q 1444 3394 1641 3394 
Q 1925 3394 2219 3213 
L 2025 2691 
Q 1819 2813 1613 2813 
Q 1428 2813 1281 2702 
Q 1134 2591 1072 2394 
Q 978 2094 978 1738 
L 978 0 
L 416 0 
z
" id="ArialMT-72" transform="scale(0.015625)"/>
       <path d="M 1344 4891 
L 1344 -1509 
L 813 -1509 
L 813 4891 
L 1344 4891 
z
" id="DejaVuSans-7c" transform="scale(0.015625)"/>
       <path d="M 1588 -325 
Q 1188 -997 936 -1164 
Q 684 -1331 294 -1331 
L -159 -1331 
L -63 -850 
L 269 -850 
Q 509 -850 678 -719 
Q 847 -588 1056 -206 
L 1234 128 
L 459 3500 
L 1069 3500 
L 1650 819 
L 3256 3500 
L 3859 3500 
L 1588 -325 
z
" id="DejaVuSans-Oblique-79" transform="scale(0.015625)"/>
       <path d="M 3175 2156 
Q 3175 2616 2975 2859 
Q 2775 3103 2400 3103 
Q 2144 3103 1911 2972 
Q 1678 2841 1497 2591 
Q 1319 2344 1212 1994 
Q 1106 1644 1106 1300 
Q 1106 863 1306 627 
Q 1506 391 1875 391 
Q 2147 391 2380 519 
Q 2613 647 2778 891 
Q 2956 1147 3065 1494 
Q 3175 1841 3175 2156 
z
M 1394 2969 
Q 1625 3272 1939 3428 
Q 2253 3584 2638 3584 
Q 3175 3584 3472 3232 
Q 3769 2881 3769 2247 
Q 3769 1728 3584 1258 
Q 3400 788 3053 416 
Q 2822 169 2531 39 
Q 2241 -91 1919 -91 
Q 1547 -91 1294 64 
Q 1041 219 916 525 
L 556 -1331 
L -19 -1331 
L 922 3500 
L 1497 3500 
L 1394 2969 
z
" id="DejaVuSans-Oblique-70" transform="scale(0.015625)"/>
       <path d="M 2853 2969 
Q 2766 3016 2653 3041 
Q 2541 3066 2413 3066 
Q 1953 3066 1609 2717 
Q 1266 2369 1153 1784 
L 800 0 
L 225 0 
L 909 3500 
L 1484 3500 
L 1375 2956 
Q 1603 3259 1920 3421 
Q 2238 3584 2597 3584 
Q 2691 3584 2781 3573 
Q 2872 3563 2963 3538 
L 2853 2969 
z
" id="DejaVuSans-Oblique-72" transform="scale(0.015625)"/>
       <path d="M 3078 2063 
Q 3088 2113 3092 2166 
Q 3097 2219 3097 2272 
Q 3097 2653 2873 2875 
Q 2650 3097 2266 3097 
Q 1838 3097 1509 2826 
Q 1181 2556 1013 2059 
L 3078 2063 
z
M 3578 1613 
L 903 1613 
Q 884 1494 878 1425 
Q 872 1356 872 1306 
Q 872 872 1139 634 
Q 1406 397 1894 397 
Q 2269 397 2603 481 
Q 2938 566 3225 728 
L 3116 159 
Q 2806 34 2476 -28 
Q 2147 -91 1806 -91 
Q 1078 -91 686 257 
Q 294 606 294 1247 
Q 294 1794 489 2264 
Q 684 2734 1063 3103 
Q 1306 3334 1642 3459 
Q 1978 3584 2356 3584 
Q 2950 3584 3301 3228 
Q 3653 2872 3653 2272 
Q 3653 2128 3634 1964 
Q 3616 1800 3578 1613 
z
" id="DejaVuSans-Oblique-65" transform="scale(0.015625)"/>
       <path d="M 2675 525 
Q 2444 222 2128 65 
Q 1813 -91 1428 -91 
Q 903 -91 598 267 
Q 294 625 294 1247 
Q 294 1766 478 2236 
Q 663 2706 1013 3078 
Q 1244 3325 1534 3454 
Q 1825 3584 2144 3584 
Q 2481 3584 2739 3421 
Q 2997 3259 3138 2956 
L 3513 4863 
L 4091 4863 
L 3144 0 
L 2566 0 
L 2675 525 
z
M 891 1350 
Q 891 897 1095 644 
Q 1300 391 1663 391 
Q 1931 391 2161 520 
Q 2391 650 2566 903 
Q 2750 1166 2856 1509 
Q 2963 1853 2963 2188 
Q 2963 2622 2758 2865 
Q 2553 3109 2194 3109 
Q 1922 3109 1687 2981 
Q 1453 2853 1288 2613 
Q 1106 2353 998 2009 
Q 891 1666 891 1350 
z
" id="DejaVuSans-Oblique-64" transform="scale(0.015625)"/>
       <path d="M 678 2272 
L 4684 2272 
L 4684 1741 
L 678 1741 
L 678 2272 
z
" id="DejaVuSans-2212" transform="scale(0.015625)"/>
       <path d="M 2706 3500 
L 2619 3053 
L 1472 3053 
L 1100 1153 
Q 1081 1047 1072 975 
Q 1063 903 1063 863 
Q 1063 663 1183 572 
Q 1303 481 1569 481 
L 2150 481 
L 2053 0 
L 1503 0 
Q 991 0 739 200 
Q 488 400 488 806 
Q 488 878 497 964 
Q 506 1050 525 1153 
L 897 3053 
L 409 3053 
L 500 3500 
L 978 3500 
L 1172 4494 
L 1747 4494 
L 1556 3500 
L 2706 3500 
z
" id="DejaVuSans-Oblique-74" transform="scale(0.015625)"/>
       <path d="M 428 1388 
L 838 3500 
L 1416 3500 
L 1006 1409 
Q 975 1256 961 1147 
Q 947 1038 947 966 
Q 947 700 1109 554 
Q 1272 409 1569 409 
Q 2031 409 2368 721 
Q 2706 1034 2809 1563 
L 3194 3500 
L 3769 3500 
L 3091 0 
L 2516 0 
L 2631 550 
Q 2388 244 2052 76 
Q 1716 -91 1338 -91 
Q 878 -91 622 161 
Q 366 413 366 863 
Q 366 956 381 1097 
Q 397 1238 428 1388 
z
" id="DejaVuSans-Oblique-75" transform="scale(0.015625)"/>
      </defs>
      <use transform="translate(0 0.032969)" xlink:href="#ArialMT-45"/>
      <use transform="translate(66.699219 0.032969)" xlink:href="#ArialMT-72"/>
      <use transform="translate(100 0.032969)" xlink:href="#ArialMT-72"/>
      <use transform="translate(133.300781 0.032969)" xlink:href="#ArialMT-6f"/>
      <use transform="translate(188.916016 0.032969)" xlink:href="#ArialMT-72"/>
      <use transform="translate(222.216797 0.032969)" xlink:href="#ArialMT-20"/>
      <use transform="translate(250 0.032969)" xlink:href="#ArialMT-20"/>
      <use transform="translate(277.783203 0.032969)" xlink:href="#ArialMT-20"/>
      <use transform="translate(305.566406 65.504688)scale(0.7)" xlink:href="#DejaVuSans-7c"/>
      <use transform="translate(329.150391 65.504688)scale(0.7)" xlink:href="#DejaVuSans-7c"/>
      <use transform="translate(352.734375 65.504688)scale(0.7)" xlink:href="#DejaVuSans-Oblique-79"/>
      <use transform="translate(394.160156 54.020313)scale(0.49)" xlink:href="#DejaVuSans-Oblique-70"/>
      <use transform="translate(425.263672 54.020313)scale(0.49)" xlink:href="#DejaVuSans-Oblique-72"/>
      <use transform="translate(445.40918 54.020313)scale(0.49)" xlink:href="#DejaVuSans-Oblique-65"/>
      <use transform="translate(475.555664 54.020313)scale(0.49)" xlink:href="#DejaVuSans-Oblique-64"/>
      <use transform="translate(522.210938 65.504688)scale(0.7)" xlink:href="#DejaVuSans-2212"/>
      <use transform="translate(594.500977 65.504688)scale(0.7)" xlink:href="#DejaVuSans-Oblique-79"/>
      <use transform="translate(635.926758 54.020313)scale(0.49)" xlink:href="#DejaVuSans-Oblique-74"/>
      <use transform="translate(655.13916 54.020313)scale(0.49)" xlink:href="#DejaVuSans-Oblique-72"/>
      <use transform="translate(675.284668 54.020313)scale(0.49)" xlink:href="#DejaVuSans-Oblique-75"/>
      <use transform="translate(706.340332 54.020313)scale(0.49)" xlink:href="#DejaVuSans-Oblique-65"/>
      <use transform="translate(738.400879 65.504688)scale(0.7)" xlink:href="#DejaVuSans-7c"/>
      <use transform="translate(761.984863 65.504688)scale(0.7)" xlink:href="#DejaVuSans-7c"/>
      <use transform="translate(426.566406 -40.915469)scale(0.7)" xlink:href="#DejaVuSans-7c"/>
      <use transform="translate(450.150391 -40.915469)scale(0.7)" xlink:href="#DejaVuSans-7c"/>
      <use transform="translate(473.734375 -40.915469)scale(0.7)" xlink:href="#DejaVuSans-Oblique-79"/>
      <use transform="translate(515.160156 -52.399844)scale(0.49)" xlink:href="#DejaVuSans-Oblique-74"/>
      <use transform="translate(534.372559 -52.399844)scale(0.49)" xlink:href="#DejaVuSans-Oblique-72"/>
      <use transform="translate(554.518066 -52.399844)scale(0.49)" xlink:href="#DejaVuSans-Oblique-75"/>
      <use transform="translate(585.57373 -52.399844)scale(0.49)" xlink:href="#DejaVuSans-Oblique-65"/>
      <use transform="translate(617.634277 -40.915469)scale(0.7)" xlink:href="#DejaVuSans-7c"/>
      <use transform="translate(641.218262 -40.915469)scale(0.7)" xlink:href="#DejaVuSans-7c"/>
      <path d="M 305.566406 18.829844 
L 305.566406 25.079844 
L 785.568848 25.079844 
L 785.568848 18.829844 
L 305.566406 18.829844 
z
"/>
     </g>
    </g>
   </g>
   <g id="matplotlib.axis_6">
    <g id="ytick_13">
     <g id="line2d_35">
      <path clip-path="url(#p94d21a8b00)" d="M 919.6 353.68 
L 1285.2 353.68 
" style="fill:none;stroke:#ffffff;stroke-linecap:round;"/>
     </g>
     <g id="text_35">
      <!-- 0.0 -->
      <g style="fill:#262626;" transform="translate(890.64 358.690469)scale(0.14 -0.14)">
       <use xlink:href="#ArialMT-30"/>
       <use x="55.615234" xlink:href="#ArialMT-2e"/>
       <use x="83.398438" xlink:href="#ArialMT-30"/>
      </g>
     </g>
    </g>
    <g id="ytick_14">
     <g id="line2d_36">
      <path clip-path="url(#p94d21a8b00)" d="M 919.6 283.400248 
L 1285.2 283.400248 
" style="fill:none;stroke:#ffffff;stroke-linecap:round;"/>
     </g>
     <g id="text_36">
      <!-- 0.1 -->
      <g style="fill:#262626;" transform="translate(890.64 288.410717)scale(0.14 -0.14)">
       <use xlink:href="#ArialMT-30"/>
       <use x="55.615234" xlink:href="#ArialMT-2e"/>
       <use x="83.398438" xlink:href="#ArialMT-31"/>
      </g>
     </g>
    </g>
    <g id="ytick_15">
     <g id="line2d_37">
      <path clip-path="url(#p94d21a8b00)" d="M 919.6 213.120497 
L 1285.2 213.120497 
" style="fill:none;stroke:#ffffff;stroke-linecap:round;"/>
     </g>
     <g id="text_37">
      <!-- 0.2 -->
      <g style="fill:#262626;" transform="translate(890.64 218.130966)scale(0.14 -0.14)">
       <use xlink:href="#ArialMT-30"/>
       <use x="55.615234" xlink:href="#ArialMT-2e"/>
       <use x="83.398438" xlink:href="#ArialMT-32"/>
      </g>
     </g>
    </g>
    <g id="ytick_16">
     <g id="line2d_38">
      <path clip-path="url(#p94d21a8b00)" d="M 919.6 142.840745 
L 1285.2 142.840745 
" style="fill:none;stroke:#ffffff;stroke-linecap:round;"/>
     </g>
     <g id="text_38">
      <!-- 0.3 -->
      <g style="fill:#262626;" transform="translate(890.64 147.851214)scale(0.14 -0.14)">
       <use xlink:href="#ArialMT-30"/>
       <use x="55.615234" xlink:href="#ArialMT-2e"/>
       <use x="83.398438" xlink:href="#ArialMT-33"/>
      </g>
     </g>
    </g>
    <g id="ytick_17">
     <g id="line2d_39">
      <path clip-path="url(#p94d21a8b00)" d="M 919.6 72.560994 
L 1285.2 72.560994 
" style="fill:none;stroke:#ffffff;stroke-linecap:round;"/>
     </g>
     <g id="text_39">
      <!-- 0.4 -->
      <g style="fill:#262626;" transform="translate(890.64 77.571463)scale(0.14 -0.14)">
       <use xlink:href="#ArialMT-30"/>
       <use x="55.615234" xlink:href="#ArialMT-2e"/>
       <use x="83.398438" xlink:href="#ArialMT-34"/>
      </g>
     </g>
    </g>
    <g id="text_40">
     <!-- Probability -->
     <g style="fill:#262626;" transform="translate(882.430625 228.9275)rotate(-90)scale(0.2 -0.2)">
      <defs>
       <path d="M 941 0 
L 419 0 
L 419 4581 
L 981 4581 
L 981 2947 
Q 1338 3394 1891 3394 
Q 2197 3394 2470 3270 
Q 2744 3147 2920 2923 
Q 3097 2700 3197 2384 
Q 3297 2069 3297 1709 
Q 3297 856 2875 390 
Q 2453 -75 1863 -75 
Q 1275 -75 941 416 
L 941 0 
z
M 934 1684 
Q 934 1088 1097 822 
Q 1363 388 1816 388 
Q 2184 388 2453 708 
Q 2722 1028 2722 1663 
Q 2722 2313 2464 2622 
Q 2206 2931 1841 2931 
Q 1472 2931 1203 2611 
Q 934 2291 934 1684 
z
" id="ArialMT-62" transform="scale(0.015625)"/>
       <path d="M 397 -1278 
L 334 -750 
Q 519 -800 656 -800 
Q 844 -800 956 -737 
Q 1069 -675 1141 -563 
Q 1194 -478 1313 -144 
Q 1328 -97 1363 -6 
L 103 3319 
L 709 3319 
L 1400 1397 
Q 1534 1031 1641 628 
Q 1738 1016 1872 1384 
L 2581 3319 
L 3144 3319 
L 1881 -56 
Q 1678 -603 1566 -809 
Q 1416 -1088 1222 -1217 
Q 1028 -1347 759 -1347 
Q 597 -1347 397 -1278 
z
" id="ArialMT-79" transform="scale(0.015625)"/>
      </defs>
      <use xlink:href="#ArialMT-50"/>
      <use x="66.699219" xlink:href="#ArialMT-72"/>
      <use x="100" xlink:href="#ArialMT-6f"/>
      <use x="155.615234" xlink:href="#ArialMT-62"/>
      <use x="211.230469" xlink:href="#ArialMT-61"/>
      <use x="266.845703" xlink:href="#ArialMT-62"/>
      <use x="322.460938" xlink:href="#ArialMT-69"/>
      <use x="344.677734" xlink:href="#ArialMT-6c"/>
      <use x="366.894531" xlink:href="#ArialMT-69"/>
      <use x="389.111328" xlink:href="#ArialMT-74"/>
      <use x="416.894531" xlink:href="#ArialMT-79"/>
     </g>
    </g>
   </g>
   <g id="patch_13">
    <path clip-path="url(#p94d21a8b00)" d="M 936.218182 353.68 
L 955.483991 353.68 
L 955.483991 105.216232 
L 936.218182 105.216232 
z
" style="fill:#b1400d;fill-opacity:0.75;stroke:#ffffff;stroke-linejoin:miter;"/>
   </g>
   <g id="patch_14">
    <path clip-path="url(#p94d21a8b00)" d="M 955.483991 353.68 
L 974.7498 353.68 
L 974.7498 218.799669 
L 955.483991 218.799669 
z
" style="fill:#b1400d;fill-opacity:0.75;stroke:#ffffff;stroke-linejoin:miter;"/>
   </g>
   <g id="patch_15">
    <path clip-path="url(#p94d21a8b00)" d="M 974.7498 353.68 
L 994.01561 353.68 
L 994.01561 311.086211 
L 974.7498 311.086211 
z
" style="fill:#b1400d;fill-opacity:0.75;stroke:#ffffff;stroke-linejoin:miter;"/>
   </g>
   <g id="patch_16">
    <path clip-path="url(#p94d21a8b00)" d="M 994.01561 353.68 
L 1013.281419 353.68 
L 1013.281419 282.690352 
L 994.01561 282.690352 
z
" style="fill:#b1400d;fill-opacity:0.75;stroke:#ffffff;stroke-linejoin:miter;"/>
   </g>
   <g id="patch_17">
    <path clip-path="url(#p94d21a8b00)" d="M 1013.281419 353.68 
L 1032.547228 353.68 
L 1032.547228 296.888282 
L 1013.281419 296.888282 
z
" style="fill:#b1400d;fill-opacity:0.75;stroke:#ffffff;stroke-linejoin:miter;"/>
   </g>
   <g id="patch_18">
    <path clip-path="url(#p94d21a8b00)" d="M 1032.547228 353.68 
L 1051.813038 353.68 
L 1051.813038 318.185176 
L 1032.547228 318.185176 
z
" style="fill:#b1400d;fill-opacity:0.75;stroke:#ffffff;stroke-linejoin:miter;"/>
   </g>
   <g id="patch_19">
    <path clip-path="url(#p94d21a8b00)" d="M 1051.813038 353.68 
L 1071.078847 353.68 
L 1071.078847 311.086211 
L 1051.813038 311.086211 
z
" style="fill:#b1400d;fill-opacity:0.75;stroke:#ffffff;stroke-linejoin:miter;"/>
   </g>
   <g id="patch_20">
    <path clip-path="url(#p94d21a8b00)" d="M 1071.078847 353.68 
L 1090.344656 353.68 
L 1090.344656 325.284141 
L 1071.078847 325.284141 
z
" style="fill:#b1400d;fill-opacity:0.75;stroke:#ffffff;stroke-linejoin:miter;"/>
   </g>
   <g id="patch_21">
    <path clip-path="url(#p94d21a8b00)" d="M 1090.344656 353.68 
L 1109.610466 353.68 
L 1109.610466 325.284141 
L 1090.344656 325.284141 
z
" style="fill:#b1400d;fill-opacity:0.75;stroke:#ffffff;stroke-linejoin:miter;"/>
   </g>
   <g id="patch_22">
    <path clip-path="url(#p94d21a8b00)" d="M 1109.610466 353.68 
L 1128.876275 353.68 
L 1128.876275 339.48207 
L 1109.610466 339.48207 
z
" style="fill:#b1400d;fill-opacity:0.75;stroke:#ffffff;stroke-linejoin:miter;"/>
   </g>
   <g id="patch_23">
    <path clip-path="url(#p94d21a8b00)" d="M 941.06306 353.68 
L 960.328869 353.68 
L 960.328869 289.789317 
L 941.06306 289.789317 
z
" style="fill:#12711c;fill-opacity:0.75;stroke:#ffffff;stroke-linejoin:miter;"/>
   </g>
   <g id="patch_24">
    <path clip-path="url(#p94d21a8b00)" d="M 960.328869 353.68 
L 979.594679 353.68 
L 979.594679 282.690352 
L 960.328869 282.690352 
z
" style="fill:#12711c;fill-opacity:0.75;stroke:#ffffff;stroke-linejoin:miter;"/>
   </g>
   <g id="patch_25">
    <path clip-path="url(#p94d21a8b00)" d="M 979.594679 353.68 
L 998.860488 353.68 
L 998.860488 275.591387 
L 979.594679 275.591387 
z
" style="fill:#12711c;fill-opacity:0.75;stroke:#ffffff;stroke-linejoin:miter;"/>
   </g>
   <g id="patch_26">
    <path clip-path="url(#p94d21a8b00)" d="M 998.860488 353.68 
L 1018.126297 353.68 
L 1018.126297 325.284141 
L 998.860488 325.284141 
z
" style="fill:#12711c;fill-opacity:0.75;stroke:#ffffff;stroke-linejoin:miter;"/>
   </g>
   <g id="patch_27">
    <path clip-path="url(#p94d21a8b00)" d="M 1018.126297 353.68 
L 1037.392106 353.68 
L 1037.392106 339.48207 
L 1018.126297 339.48207 
z
" style="fill:#12711c;fill-opacity:0.75;stroke:#ffffff;stroke-linejoin:miter;"/>
   </g>
   <g id="patch_28">
    <path clip-path="url(#p94d21a8b00)" d="M 1037.392106 353.68 
L 1056.657916 353.68 
L 1056.657916 318.185176 
L 1037.392106 318.185176 
z
" style="fill:#12711c;fill-opacity:0.75;stroke:#ffffff;stroke-linejoin:miter;"/>
   </g>
   <g id="patch_29">
    <path clip-path="url(#p94d21a8b00)" d="M 1056.657916 353.68 
L 1075.923725 353.68 
L 1075.923725 339.48207 
L 1056.657916 339.48207 
z
" style="fill:#12711c;fill-opacity:0.75;stroke:#ffffff;stroke-linejoin:miter;"/>
   </g>
   <g id="patch_30">
    <path clip-path="url(#p94d21a8b00)" d="M 1075.923725 353.68 
L 1095.189534 353.68 
L 1095.189534 339.48207 
L 1075.923725 339.48207 
z
" style="fill:#12711c;fill-opacity:0.75;stroke:#ffffff;stroke-linejoin:miter;"/>
   </g>
   <g id="patch_31">
    <path clip-path="url(#p94d21a8b00)" d="M 1095.189534 353.68 
L 1114.455344 353.68 
L 1114.455344 303.987246 
L 1095.189534 303.987246 
z
" style="fill:#12711c;fill-opacity:0.75;stroke:#ffffff;stroke-linejoin:miter;"/>
   </g>
   <g id="patch_32">
    <path clip-path="url(#p94d21a8b00)" d="M 1114.455344 353.68 
L 1133.721153 353.68 
L 1133.721153 27.127619 
L 1114.455344 27.127619 
z
" style="fill:#12711c;fill-opacity:0.75;stroke:#ffffff;stroke-linejoin:miter;"/>
   </g>
   <g id="patch_33">
    <path clip-path="url(#p94d21a8b00)" d="M 1133.721153 353.68 
L 1152.986962 353.68 
L 1152.986962 353.68 
L 1133.721153 353.68 
z
" style="fill:#12711c;fill-opacity:0.75;stroke:#ffffff;stroke-linejoin:miter;"/>
   </g>
   <g id="patch_34">
    <path clip-path="url(#p94d21a8b00)" d="M 1152.986962 353.68 
L 1172.252772 353.68 
L 1172.252772 353.68 
L 1152.986962 353.68 
z
" style="fill:#12711c;fill-opacity:0.75;stroke:#ffffff;stroke-linejoin:miter;"/>
   </g>
   <g id="patch_35">
    <path clip-path="url(#p94d21a8b00)" d="M 1172.252772 353.68 
L 1191.518581 353.68 
L 1191.518581 353.68 
L 1172.252772 353.68 
z
" style="fill:#12711c;fill-opacity:0.75;stroke:#ffffff;stroke-linejoin:miter;"/>
   </g>
   <g id="patch_36">
    <path clip-path="url(#p94d21a8b00)" d="M 1191.518581 353.68 
L 1210.78439 353.68 
L 1210.78439 353.68 
L 1191.518581 353.68 
z
" style="fill:#12711c;fill-opacity:0.75;stroke:#ffffff;stroke-linejoin:miter;"/>
   </g>
   <g id="patch_37">
    <path clip-path="url(#p94d21a8b00)" d="M 1210.78439 353.68 
L 1230.0502 353.68 
L 1230.0502 353.68 
L 1210.78439 353.68 
z
" style="fill:#12711c;fill-opacity:0.75;stroke:#ffffff;stroke-linejoin:miter;"/>
   </g>
   <g id="patch_38">
    <path clip-path="url(#p94d21a8b00)" d="M 1230.0502 353.68 
L 1249.316009 353.68 
L 1249.316009 353.68 
L 1230.0502 353.68 
z
" style="fill:#12711c;fill-opacity:0.75;stroke:#ffffff;stroke-linejoin:miter;"/>
   </g>
   <g id="patch_39">
    <path clip-path="url(#p94d21a8b00)" d="M 1249.316009 353.68 
L 1268.581818 353.68 
L 1268.581818 346.581035 
L 1249.316009 346.581035 
z
" style="fill:#12711c;fill-opacity:0.75;stroke:#ffffff;stroke-linejoin:miter;"/>
   </g>
   <g id="patch_40">
    <path d="M 919.6 353.68 
L 919.6 10.8 
" style="fill:none;stroke:#ffffff;stroke-linecap:square;stroke-linejoin:miter;stroke-width:1.25;"/>
   </g>
   <g id="patch_41">
    <path d="M 1285.2 353.68 
L 1285.2 10.8 
" style="fill:none;stroke:#ffffff;stroke-linecap:square;stroke-linejoin:miter;stroke-width:1.25;"/>
   </g>
   <g id="patch_42">
    <path d="M 919.6 353.68 
L 1285.2 353.68 
" style="fill:none;stroke:#ffffff;stroke-linecap:square;stroke-linejoin:miter;stroke-width:1.25;"/>
   </g>
   <g id="patch_43">
    <path d="M 919.6 10.8 
L 1285.2 10.8 
" style="fill:none;stroke:#ffffff;stroke-linecap:square;stroke-linejoin:miter;stroke-width:1.25;"/>
   </g>
  </g>
  <g id="legend_1">
   <g id="patch_44">
    <path d="M 500.664375 -12 
L 795.335625 -12 
Q 800.135625 -12 800.135625 -16.8 
L 800.135625 -48.34875 
Q 800.135625 -53.14875 795.335625 -53.14875 
L 500.664375 -53.14875 
Q 495.864375 -53.14875 495.864375 -48.34875 
L 495.864375 -16.8 
Q 495.864375 -12 500.664375 -12 
z
" style="fill:#eaeaf2;opacity:0.8;stroke:#cccccc;stroke-linejoin:miter;"/>
   </g>
   <g id="patch_45">
    <path d="M 505.464375 -26.37 
L 553.464375 -26.37 
L 553.464375 -43.17 
L 505.464375 -43.17 
z
" style="fill:#b1400d;fill-opacity:0.75;stroke:#ffffff;stroke-linejoin:miter;"/>
   </g>
   <g id="text_41">
    <!-- DNN -->
    <g style="fill:#262626;" transform="translate(572.664375 -26.37)scale(0.24 -0.24)">
     <defs>
      <path d="M 494 0 
L 494 4581 
L 2072 4581 
Q 2606 4581 2888 4516 
Q 3281 4425 3559 4188 
Q 3922 3881 4101 3404 
Q 4281 2928 4281 2316 
Q 4281 1794 4159 1391 
Q 4038 988 3847 723 
Q 3656 459 3429 307 
Q 3203 156 2883 78 
Q 2563 0 2147 0 
L 494 0 
z
M 1100 541 
L 2078 541 
Q 2531 541 2789 625 
Q 3047 709 3200 863 
Q 3416 1078 3536 1442 
Q 3656 1806 3656 2325 
Q 3656 3044 3420 3430 
Q 3184 3816 2847 3947 
Q 2603 4041 2063 4041 
L 1100 4041 
L 1100 541 
z
" id="ArialMT-44" transform="scale(0.015625)"/>
      <path d="M 488 0 
L 488 4581 
L 1109 4581 
L 3516 984 
L 3516 4581 
L 4097 4581 
L 4097 0 
L 3475 0 
L 1069 3600 
L 1069 0 
L 488 0 
z
" id="ArialMT-4e" transform="scale(0.015625)"/>
     </defs>
     <use xlink:href="#ArialMT-44"/>
     <use x="72.216797" xlink:href="#ArialMT-4e"/>
     <use x="144.433594" xlink:href="#ArialMT-4e"/>
    </g>
   </g>
   <g id="patch_46">
    <path d="M 672.661875 -26.37 
L 720.661875 -26.37 
L 720.661875 -43.17 
L 672.661875 -43.17 
z
" style="fill:#12711c;fill-opacity:0.75;stroke:#ffffff;stroke-linejoin:miter;"/>
   </g>
   <g id="text_42">
    <!-- SNN -->
    <g style="fill:#262626;" transform="translate(739.861875 -26.37)scale(0.24 -0.24)">
     <defs>
      <path d="M 288 1472 
L 859 1522 
Q 900 1178 1048 958 
Q 1197 738 1509 602 
Q 1822 466 2213 466 
Q 2559 466 2825 569 
Q 3091 672 3220 851 
Q 3350 1031 3350 1244 
Q 3350 1459 3225 1620 
Q 3100 1781 2813 1891 
Q 2628 1963 1997 2114 
Q 1366 2266 1113 2400 
Q 784 2572 623 2826 
Q 463 3081 463 3397 
Q 463 3744 659 4045 
Q 856 4347 1234 4503 
Q 1613 4659 2075 4659 
Q 2584 4659 2973 4495 
Q 3363 4331 3572 4012 
Q 3781 3694 3797 3291 
L 3216 3247 
Q 3169 3681 2898 3903 
Q 2628 4125 2100 4125 
Q 1550 4125 1298 3923 
Q 1047 3722 1047 3438 
Q 1047 3191 1225 3031 
Q 1400 2872 2139 2705 
Q 2878 2538 3153 2413 
Q 3553 2228 3743 1945 
Q 3934 1663 3934 1294 
Q 3934 928 3725 604 
Q 3516 281 3123 101 
Q 2731 -78 2241 -78 
Q 1619 -78 1198 103 
Q 778 284 539 648 
Q 300 1013 288 1472 
z
" id="ArialMT-53" transform="scale(0.015625)"/>
     </defs>
     <use xlink:href="#ArialMT-53"/>
     <use x="66.699219" xlink:href="#ArialMT-4e"/>
     <use x="138.916016" xlink:href="#ArialMT-4e"/>
    </g>
   </g>
  </g>
 </g>
 <defs>
  <clipPath id="pe28afda60d">
   <rect height="342.88" width="365.6" x="62.8" y="10.8"/>
  </clipPath>
  <clipPath id="pafa91dbe64">
   <rect height="342.88" width="365.6" x="491.2" y="10.8"/>
  </clipPath>
  <clipPath id="p94d21a8b00">
   <rect height="342.88" width="365.6" x="919.6" y="10.8"/>
  </clipPath>
 </defs>
</svg>
