<?xml version="1.0" encoding="utf-8" standalone="no"?>
<!DOCTYPE svg PUBLIC "-//W3C//DTD SVG 1.1//EN"
  "http://www.w3.org/Graphics/SVG/1.1/DTD/svg11.dtd">
<svg height="432pt" version="1.1" viewBox="0 0 1296 432" width="1296pt" xmlns="http://www.w3.org/2000/svg" xmlns:xlink="http://www.w3.org/1999/xlink">
 <metadata>
  <rdf:RDF xmlns:cc="http://creativecommons.org/ns#" xmlns:dc="http://purl.org/dc/elements/1.1/" xmlns:rdf="http://www.w3.org/1999/02/22-rdf-syntax-ns#">
   <cc:Work>
    <dc:type rdf:resource="http://purl.org/dc/dcmitype/StillImage"/>
    <dc:date>2021-09-29T21:50:46.020823</dc:date>
    <dc:format>image/svg+xml</dc:format>
    <dc:creator>
     <cc:Agent>
      <dc:title>Matplotlib v3.4.2, https://matplotlib.org/</dc:title>
     </cc:Agent>
    </dc:creator>
   </cc:Work>
  </rdf:RDF>
 </metadata>
 <defs>
  <style type="text/css">*{stroke-linecap:butt;stroke-linejoin:round;}</style>
 </defs>
 <g id="figure_1">
  <g id="patch_1">
   <path d="M 0 432 
L 1296 432 
L 1296 0 
L 0 0 
z
" style="fill:none;"/>
  </g>
  <g id="axes_1">
   <g id="patch_2">
    <path d="M 49.675 387.7 
L 428.285417 387.7 
L 428.285417 36.30625 
L 49.675 36.30625 
z
" style="fill:#eaeaf2;"/>
   </g>
   <g id="matplotlib.axis_1">
    <g id="xtick_1">
     <g id="line2d_1">
      <path clip-path="url(#p07d4867f40)" d="M 66.884564 387.7 
L 66.884564 36.30625 
" style="fill:none;stroke:#ffffff;stroke-linecap:round;"/>
     </g>
     <g id="text_1">
      <!-- −2.0 -->
      <g style="fill:#262626;" transform="translate(56.027221 405.073594)scale(0.11 -0.11)">
       <defs>
        <path d="M 3381 1997 
L 356 1997 
L 356 2522 
L 3381 2522 
L 3381 1997 
z
" id="ArialMT-2212" transform="scale(0.015625)"/>
        <path d="M 3222 541 
L 3222 0 
L 194 0 
Q 188 203 259 391 
Q 375 700 629 1000 
Q 884 1300 1366 1694 
Q 2113 2306 2375 2664 
Q 2638 3022 2638 3341 
Q 2638 3675 2398 3904 
Q 2159 4134 1775 4134 
Q 1369 4134 1125 3890 
Q 881 3647 878 3216 
L 300 3275 
Q 359 3922 746 4261 
Q 1134 4600 1788 4600 
Q 2447 4600 2831 4234 
Q 3216 3869 3216 3328 
Q 3216 3053 3103 2787 
Q 2991 2522 2730 2228 
Q 2469 1934 1863 1422 
Q 1356 997 1212 845 
Q 1069 694 975 541 
L 3222 541 
z
" id="ArialMT-32" transform="scale(0.015625)"/>
        <path d="M 581 0 
L 581 641 
L 1222 641 
L 1222 0 
L 581 0 
z
" id="ArialMT-2e" transform="scale(0.015625)"/>
        <path d="M 266 2259 
Q 266 3072 433 3567 
Q 600 4063 929 4331 
Q 1259 4600 1759 4600 
Q 2128 4600 2406 4451 
Q 2684 4303 2865 4023 
Q 3047 3744 3150 3342 
Q 3253 2941 3253 2259 
Q 3253 1453 3087 958 
Q 2922 463 2592 192 
Q 2263 -78 1759 -78 
Q 1097 -78 719 397 
Q 266 969 266 2259 
z
M 844 2259 
Q 844 1131 1108 757 
Q 1372 384 1759 384 
Q 2147 384 2411 759 
Q 2675 1134 2675 2259 
Q 2675 3391 2411 3762 
Q 2147 4134 1753 4134 
Q 1366 4134 1134 3806 
Q 844 3388 844 2259 
z
" id="ArialMT-30" transform="scale(0.015625)"/>
       </defs>
       <use xlink:href="#ArialMT-2212"/>
       <use x="58.398438" xlink:href="#ArialMT-32"/>
       <use x="114.013672" xlink:href="#ArialMT-2e"/>
       <use x="141.796875" xlink:href="#ArialMT-30"/>
      </g>
     </g>
    </g>
    <g id="xtick_2">
     <g id="line2d_2">
      <path clip-path="url(#p07d4867f40)" d="M 109.908475 387.7 
L 109.908475 36.30625 
" style="fill:none;stroke:#ffffff;stroke-linecap:round;"/>
     </g>
     <g id="text_2">
      <!-- −1.5 -->
      <g style="fill:#262626;" transform="translate(99.051132 405.073594)scale(0.11 -0.11)">
       <defs>
        <path d="M 2384 0 
L 1822 0 
L 1822 3584 
Q 1619 3391 1289 3197 
Q 959 3003 697 2906 
L 697 3450 
Q 1169 3672 1522 3987 
Q 1875 4303 2022 4600 
L 2384 4600 
L 2384 0 
z
" id="ArialMT-31" transform="scale(0.015625)"/>
        <path d="M 266 1200 
L 856 1250 
Q 922 819 1161 601 
Q 1400 384 1738 384 
Q 2144 384 2425 690 
Q 2706 997 2706 1503 
Q 2706 1984 2436 2262 
Q 2166 2541 1728 2541 
Q 1456 2541 1237 2417 
Q 1019 2294 894 2097 
L 366 2166 
L 809 4519 
L 3088 4519 
L 3088 3981 
L 1259 3981 
L 1013 2750 
Q 1425 3038 1878 3038 
Q 2478 3038 2890 2622 
Q 3303 2206 3303 1553 
Q 3303 931 2941 478 
Q 2500 -78 1738 -78 
Q 1113 -78 717 272 
Q 322 622 266 1200 
z
" id="ArialMT-35" transform="scale(0.015625)"/>
       </defs>
       <use xlink:href="#ArialMT-2212"/>
       <use x="58.398438" xlink:href="#ArialMT-31"/>
       <use x="114.013672" xlink:href="#ArialMT-2e"/>
       <use x="141.796875" xlink:href="#ArialMT-35"/>
      </g>
     </g>
    </g>
    <g id="xtick_3">
     <g id="line2d_3">
      <path clip-path="url(#p07d4867f40)" d="M 152.932386 387.7 
L 152.932386 36.30625 
" style="fill:none;stroke:#ffffff;stroke-linecap:round;"/>
     </g>
     <g id="text_3">
      <!-- −1.0 -->
      <g style="fill:#262626;" transform="translate(142.075043 405.073594)scale(0.11 -0.11)">
       <use xlink:href="#ArialMT-2212"/>
       <use x="58.398438" xlink:href="#ArialMT-31"/>
       <use x="114.013672" xlink:href="#ArialMT-2e"/>
       <use x="141.796875" xlink:href="#ArialMT-30"/>
      </g>
     </g>
    </g>
    <g id="xtick_4">
     <g id="line2d_4">
      <path clip-path="url(#p07d4867f40)" d="M 195.956297 387.7 
L 195.956297 36.30625 
" style="fill:none;stroke:#ffffff;stroke-linecap:round;"/>
     </g>
     <g id="text_4">
      <!-- −0.5 -->
      <g style="fill:#262626;" transform="translate(185.098954 405.073594)scale(0.11 -0.11)">
       <use xlink:href="#ArialMT-2212"/>
       <use x="58.398438" xlink:href="#ArialMT-30"/>
       <use x="114.013672" xlink:href="#ArialMT-2e"/>
       <use x="141.796875" xlink:href="#ArialMT-35"/>
      </g>
     </g>
    </g>
    <g id="xtick_5">
     <g id="line2d_5">
      <path clip-path="url(#p07d4867f40)" d="M 238.980208 387.7 
L 238.980208 36.30625 
" style="fill:none;stroke:#ffffff;stroke-linecap:round;"/>
     </g>
     <g id="text_5">
      <!-- 0.0 -->
      <g style="fill:#262626;" transform="translate(231.335208 405.073594)scale(0.11 -0.11)">
       <use xlink:href="#ArialMT-30"/>
       <use x="55.615234" xlink:href="#ArialMT-2e"/>
       <use x="83.398438" xlink:href="#ArialMT-30"/>
      </g>
     </g>
    </g>
    <g id="xtick_6">
     <g id="line2d_6">
      <path clip-path="url(#p07d4867f40)" d="M 282.004119 387.7 
L 282.004119 36.30625 
" style="fill:none;stroke:#ffffff;stroke-linecap:round;"/>
     </g>
     <g id="text_6">
      <!-- 0.5 -->
      <g style="fill:#262626;" transform="translate(274.359119 405.073594)scale(0.11 -0.11)">
       <use xlink:href="#ArialMT-30"/>
       <use x="55.615234" xlink:href="#ArialMT-2e"/>
       <use x="83.398438" xlink:href="#ArialMT-35"/>
      </g>
     </g>
    </g>
    <g id="xtick_7">
     <g id="line2d_7">
      <path clip-path="url(#p07d4867f40)" d="M 325.02803 387.7 
L 325.02803 36.30625 
" style="fill:none;stroke:#ffffff;stroke-linecap:round;"/>
     </g>
     <g id="text_7">
      <!-- 1.0 -->
      <g style="fill:#262626;" transform="translate(317.38303 405.073594)scale(0.11 -0.11)">
       <use xlink:href="#ArialMT-31"/>
       <use x="55.615234" xlink:href="#ArialMT-2e"/>
       <use x="83.398438" xlink:href="#ArialMT-30"/>
      </g>
     </g>
    </g>
    <g id="xtick_8">
     <g id="line2d_8">
      <path clip-path="url(#p07d4867f40)" d="M 368.051941 387.7 
L 368.051941 36.30625 
" style="fill:none;stroke:#ffffff;stroke-linecap:round;"/>
     </g>
     <g id="text_8">
      <!-- 1.5 -->
      <g style="fill:#262626;" transform="translate(360.406941 405.073594)scale(0.11 -0.11)">
       <use xlink:href="#ArialMT-31"/>
       <use x="55.615234" xlink:href="#ArialMT-2e"/>
       <use x="83.398438" xlink:href="#ArialMT-35"/>
      </g>
     </g>
    </g>
    <g id="xtick_9">
     <g id="line2d_9">
      <path clip-path="url(#p07d4867f40)" d="M 411.075852 387.7 
L 411.075852 36.30625 
" style="fill:none;stroke:#ffffff;stroke-linecap:round;"/>
     </g>
     <g id="text_9">
      <!-- 2.0 -->
      <g style="fill:#262626;" transform="translate(403.430852 405.073594)scale(0.11 -0.11)">
       <use xlink:href="#ArialMT-32"/>
       <use x="55.615234" xlink:href="#ArialMT-2e"/>
       <use x="83.398438" xlink:href="#ArialMT-30"/>
      </g>
     </g>
    </g>
    <g id="text_10">
     <!-- Position -->
     <g style="fill:#262626;" transform="translate(217.635208 419.849219)scale(0.12 -0.12)">
      <defs>
       <path d="M 494 0 
L 494 4581 
L 2222 4581 
Q 2678 4581 2919 4538 
Q 3256 4481 3484 4323 
Q 3713 4166 3852 3881 
Q 3991 3597 3991 3256 
Q 3991 2672 3619 2267 
Q 3247 1863 2275 1863 
L 1100 1863 
L 1100 0 
L 494 0 
z
M 1100 2403 
L 2284 2403 
Q 2872 2403 3119 2622 
Q 3366 2841 3366 3238 
Q 3366 3525 3220 3729 
Q 3075 3934 2838 4000 
Q 2684 4041 2272 4041 
L 1100 4041 
L 1100 2403 
z
" id="ArialMT-50" transform="scale(0.015625)"/>
       <path d="M 213 1659 
Q 213 2581 725 3025 
Q 1153 3394 1769 3394 
Q 2453 3394 2887 2945 
Q 3322 2497 3322 1706 
Q 3322 1066 3130 698 
Q 2938 331 2570 128 
Q 2203 -75 1769 -75 
Q 1072 -75 642 372 
Q 213 819 213 1659 
z
M 791 1659 
Q 791 1022 1069 705 
Q 1347 388 1769 388 
Q 2188 388 2466 706 
Q 2744 1025 2744 1678 
Q 2744 2294 2464 2611 
Q 2184 2928 1769 2928 
Q 1347 2928 1069 2612 
Q 791 2297 791 1659 
z
" id="ArialMT-6f" transform="scale(0.015625)"/>
       <path d="M 197 991 
L 753 1078 
Q 800 744 1014 566 
Q 1228 388 1613 388 
Q 2000 388 2187 545 
Q 2375 703 2375 916 
Q 2375 1106 2209 1216 
Q 2094 1291 1634 1406 
Q 1016 1563 777 1677 
Q 538 1791 414 1992 
Q 291 2194 291 2438 
Q 291 2659 392 2848 
Q 494 3038 669 3163 
Q 800 3259 1026 3326 
Q 1253 3394 1513 3394 
Q 1903 3394 2198 3281 
Q 2494 3169 2634 2976 
Q 2775 2784 2828 2463 
L 2278 2388 
Q 2241 2644 2061 2787 
Q 1881 2931 1553 2931 
Q 1166 2931 1000 2803 
Q 834 2675 834 2503 
Q 834 2394 903 2306 
Q 972 2216 1119 2156 
Q 1203 2125 1616 2013 
Q 2213 1853 2448 1751 
Q 2684 1650 2818 1456 
Q 2953 1263 2953 975 
Q 2953 694 2789 445 
Q 2625 197 2315 61 
Q 2006 -75 1616 -75 
Q 969 -75 630 194 
Q 291 463 197 991 
z
" id="ArialMT-73" transform="scale(0.015625)"/>
       <path d="M 425 3934 
L 425 4581 
L 988 4581 
L 988 3934 
L 425 3934 
z
M 425 0 
L 425 3319 
L 988 3319 
L 988 0 
L 425 0 
z
" id="ArialMT-69" transform="scale(0.015625)"/>
       <path d="M 1650 503 
L 1731 6 
Q 1494 -44 1306 -44 
Q 1000 -44 831 53 
Q 663 150 594 308 
Q 525 466 525 972 
L 525 2881 
L 113 2881 
L 113 3319 
L 525 3319 
L 525 4141 
L 1084 4478 
L 1084 3319 
L 1650 3319 
L 1650 2881 
L 1084 2881 
L 1084 941 
Q 1084 700 1114 631 
Q 1144 563 1211 522 
Q 1278 481 1403 481 
Q 1497 481 1650 503 
z
" id="ArialMT-74" transform="scale(0.015625)"/>
       <path d="M 422 0 
L 422 3319 
L 928 3319 
L 928 2847 
Q 1294 3394 1984 3394 
Q 2284 3394 2536 3286 
Q 2788 3178 2913 3003 
Q 3038 2828 3088 2588 
Q 3119 2431 3119 2041 
L 3119 0 
L 2556 0 
L 2556 2019 
Q 2556 2363 2490 2533 
Q 2425 2703 2258 2804 
Q 2091 2906 1866 2906 
Q 1506 2906 1245 2678 
Q 984 2450 984 1813 
L 984 0 
L 422 0 
z
" id="ArialMT-6e" transform="scale(0.015625)"/>
      </defs>
      <use xlink:href="#ArialMT-50"/>
      <use x="66.699219" xlink:href="#ArialMT-6f"/>
      <use x="122.314453" xlink:href="#ArialMT-73"/>
      <use x="172.314453" xlink:href="#ArialMT-69"/>
      <use x="194.53125" xlink:href="#ArialMT-74"/>
      <use x="222.314453" xlink:href="#ArialMT-69"/>
      <use x="244.53125" xlink:href="#ArialMT-6f"/>
      <use x="300.146484" xlink:href="#ArialMT-6e"/>
     </g>
    </g>
   </g>
   <g id="matplotlib.axis_2">
    <g id="ytick_1">
     <g id="line2d_10">
      <path clip-path="url(#p07d4867f40)" d="M 49.675 336.245986 
L 428.285417 336.245986 
" style="fill:none;stroke:#ffffff;stroke-linecap:round;"/>
     </g>
     <g id="text_11">
      <!-- 0.0 -->
      <g style="fill:#262626;" transform="translate(24.885 340.182783)scale(0.11 -0.11)">
       <use xlink:href="#ArialMT-30"/>
       <use x="55.615234" xlink:href="#ArialMT-2e"/>
       <use x="83.398438" xlink:href="#ArialMT-30"/>
      </g>
     </g>
    </g>
    <g id="ytick_2">
     <g id="line2d_11">
      <path clip-path="url(#p07d4867f40)" d="M 49.675 265.254163 
L 428.285417 265.254163 
" style="fill:none;stroke:#ffffff;stroke-linecap:round;"/>
     </g>
     <g id="text_12">
      <!-- 0.5 -->
      <g style="fill:#262626;" transform="translate(24.885 269.19096)scale(0.11 -0.11)">
       <use xlink:href="#ArialMT-30"/>
       <use x="55.615234" xlink:href="#ArialMT-2e"/>
       <use x="83.398438" xlink:href="#ArialMT-35"/>
      </g>
     </g>
    </g>
    <g id="ytick_3">
     <g id="line2d_12">
      <path clip-path="url(#p07d4867f40)" d="M 49.675 194.26234 
L 428.285417 194.26234 
" style="fill:none;stroke:#ffffff;stroke-linecap:round;"/>
     </g>
     <g id="text_13">
      <!-- 1.0 -->
      <g style="fill:#262626;" transform="translate(24.885 198.199136)scale(0.11 -0.11)">
       <use xlink:href="#ArialMT-31"/>
       <use x="55.615234" xlink:href="#ArialMT-2e"/>
       <use x="83.398438" xlink:href="#ArialMT-30"/>
      </g>
     </g>
    </g>
    <g id="ytick_4">
     <g id="line2d_13">
      <path clip-path="url(#p07d4867f40)" d="M 49.675 123.270516 
L 428.285417 123.270516 
" style="fill:none;stroke:#ffffff;stroke-linecap:round;"/>
     </g>
     <g id="text_14">
      <!-- 1.5 -->
      <g style="fill:#262626;" transform="translate(24.885 127.207313)scale(0.11 -0.11)">
       <use xlink:href="#ArialMT-31"/>
       <use x="55.615234" xlink:href="#ArialMT-2e"/>
       <use x="83.398438" xlink:href="#ArialMT-35"/>
      </g>
     </g>
    </g>
    <g id="ytick_5">
     <g id="line2d_14">
      <path clip-path="url(#p07d4867f40)" d="M 49.675 52.278693 
L 428.285417 52.278693 
" style="fill:none;stroke:#ffffff;stroke-linecap:round;"/>
     </g>
     <g id="text_15">
      <!-- 2.0 -->
      <g style="fill:#262626;" transform="translate(24.885 56.21549)scale(0.11 -0.11)">
       <use xlink:href="#ArialMT-32"/>
       <use x="55.615234" xlink:href="#ArialMT-2e"/>
       <use x="83.398438" xlink:href="#ArialMT-30"/>
      </g>
     </g>
    </g>
    <g id="text_16">
     <!-- Potential -->
     <g style="fill:#262626;" transform="translate(18.5 235.351562)rotate(-90)scale(0.12 -0.12)">
      <defs>
       <path d="M 2694 1069 
L 3275 997 
Q 3138 488 2766 206 
Q 2394 -75 1816 -75 
Q 1088 -75 661 373 
Q 234 822 234 1631 
Q 234 2469 665 2931 
Q 1097 3394 1784 3394 
Q 2450 3394 2872 2941 
Q 3294 2488 3294 1666 
Q 3294 1616 3291 1516 
L 816 1516 
Q 847 969 1125 678 
Q 1403 388 1819 388 
Q 2128 388 2347 550 
Q 2566 713 2694 1069 
z
M 847 1978 
L 2700 1978 
Q 2663 2397 2488 2606 
Q 2219 2931 1791 2931 
Q 1403 2931 1139 2672 
Q 875 2413 847 1978 
z
" id="ArialMT-65" transform="scale(0.015625)"/>
       <path d="M 2588 409 
Q 2275 144 1986 34 
Q 1697 -75 1366 -75 
Q 819 -75 525 192 
Q 231 459 231 875 
Q 231 1119 342 1320 
Q 453 1522 633 1644 
Q 813 1766 1038 1828 
Q 1203 1872 1538 1913 
Q 2219 1994 2541 2106 
Q 2544 2222 2544 2253 
Q 2544 2597 2384 2738 
Q 2169 2928 1744 2928 
Q 1347 2928 1158 2789 
Q 969 2650 878 2297 
L 328 2372 
Q 403 2725 575 2942 
Q 747 3159 1072 3276 
Q 1397 3394 1825 3394 
Q 2250 3394 2515 3294 
Q 2781 3194 2906 3042 
Q 3031 2891 3081 2659 
Q 3109 2516 3109 2141 
L 3109 1391 
Q 3109 606 3145 398 
Q 3181 191 3288 0 
L 2700 0 
Q 2613 175 2588 409 
z
M 2541 1666 
Q 2234 1541 1622 1453 
Q 1275 1403 1131 1340 
Q 988 1278 909 1158 
Q 831 1038 831 891 
Q 831 666 1001 516 
Q 1172 366 1500 366 
Q 1825 366 2078 508 
Q 2331 650 2450 897 
Q 2541 1088 2541 1459 
L 2541 1666 
z
" id="ArialMT-61" transform="scale(0.015625)"/>
       <path d="M 409 0 
L 409 4581 
L 972 4581 
L 972 0 
L 409 0 
z
" id="ArialMT-6c" transform="scale(0.015625)"/>
      </defs>
      <use xlink:href="#ArialMT-50"/>
      <use x="66.699219" xlink:href="#ArialMT-6f"/>
      <use x="122.314453" xlink:href="#ArialMT-74"/>
      <use x="150.097656" xlink:href="#ArialMT-65"/>
      <use x="205.712891" xlink:href="#ArialMT-6e"/>
      <use x="261.328125" xlink:href="#ArialMT-74"/>
      <use x="289.111328" xlink:href="#ArialMT-69"/>
      <use x="311.328125" xlink:href="#ArialMT-61"/>
      <use x="366.943359" xlink:href="#ArialMT-6c"/>
     </g>
    </g>
   </g>
   <g id="line2d_15">
    <path clip-path="url(#p07d4867f40)" d="M 66.884564 52.278693 
L 70.361244 85.442782 
L 73.837924 116.168277 
L 77.314603 144.564154 
L 80.791283 170.73712 
L 84.267963 194.791608 
L 87.744642 216.829785 
L 91.221322 236.951544 
L 94.698002 255.254509 
L 98.174681 271.834035 
L 101.651361 286.783204 
L 105.128041 300.19283 
L 108.604721 312.151456 
L 112.0814 322.745354 
L 115.55808 332.058527 
L 119.03476 340.172706 
L 122.511439 347.167352 
L 125.988119 353.119658 
L 129.464799 358.104543 
L 132.941478 362.194659 
L 136.418158 365.460385 
L 139.894838 367.969832 
L 143.371517 369.788838 
L 146.848197 370.980973 
L 150.324877 371.607537 
L 153.801556 371.727557 
L 157.278236 371.397792 
L 160.754916 370.672729 
L 164.231595 369.604587 
L 167.708275 368.243312 
L 171.184955 366.636581 
L 174.661634 364.829801 
L 178.138314 362.866109 
L 181.614994 360.786369 
L 185.091673 358.629178 
L 188.568353 356.430862 
L 192.045033 354.225474 
L 195.521712 352.044799 
L 198.998392 349.918352 
L 202.475072 347.873377 
L 205.951751 345.934848 
L 209.428431 344.125467 
L 212.905111 342.465667 
L 216.38179 340.973612 
L 219.85847 339.665193 
L 223.33515 338.554032 
L 226.811829 337.651482 
L 230.288509 336.966623 
L 233.765189 336.506267 
L 237.241868 336.274953 
L 240.718548 336.274953 
L 244.195228 336.506267 
L 247.671908 336.966623 
L 251.148587 337.651482 
L 254.625267 338.554032 
L 258.101947 339.665193 
L 261.578626 340.973612 
L 265.055306 342.465667 
L 268.531986 344.125467 
L 272.008665 345.934848 
L 275.485345 347.873377 
L 278.962025 349.918352 
L 282.438704 352.044799 
L 285.915384 354.225474 
L 289.392064 356.430862 
L 292.868743 358.629178 
L 296.345423 360.786369 
L 299.822103 362.866109 
L 303.298782 364.829801 
L 306.775462 366.636581 
L 310.252142 368.243312 
L 313.728821 369.604587 
L 317.205501 370.672729 
L 320.682181 371.397792 
L 324.15886 371.727557 
L 327.63554 371.607537 
L 331.11222 370.980973 
L 334.588899 369.788838 
L 338.065579 367.969832 
L 341.542259 365.460385 
L 345.018938 362.194659 
L 348.495618 358.104543 
L 351.972298 353.119658 
L 355.448977 347.167352 
L 358.925657 340.172706 
L 362.402337 332.058527 
L 365.879016 322.745354 
L 369.355696 312.151456 
L 372.832376 300.19283 
L 376.309056 286.783204 
L 379.785735 271.834035 
L 383.262415 255.254509 
L 386.739095 236.951544 
L 390.215774 216.829785 
L 393.692454 194.791608 
L 397.169134 170.73712 
L 400.645813 144.564154 
L 404.122493 116.168277 
L 407.599173 85.442782 
L 411.075852 52.278693 
" style="fill:none;stroke:#4c72b0;stroke-linecap:round;stroke-width:1.5;"/>
   </g>
   <g id="patch_3">
    <path d="M 49.675 387.7 
L 49.675 36.30625 
" style="fill:none;stroke:#ffffff;stroke-linecap:square;stroke-linejoin:miter;stroke-width:1.25;"/>
   </g>
   <g id="patch_4">
    <path d="M 428.285417 387.7 
L 428.285417 36.30625 
" style="fill:none;stroke:#ffffff;stroke-linecap:square;stroke-linejoin:miter;stroke-width:1.25;"/>
   </g>
   <g id="patch_5">
    <path d="M 49.675 387.7 
L 428.285417 387.7 
" style="fill:none;stroke:#ffffff;stroke-linecap:square;stroke-linejoin:miter;stroke-width:1.25;"/>
   </g>
   <g id="patch_6">
    <path d="M 49.675 36.30625 
L 428.285417 36.30625 
" style="fill:none;stroke:#ffffff;stroke-linecap:square;stroke-linejoin:miter;stroke-width:1.25;"/>
   </g>
   <g id="text_17">
    <!-- Potential Energy of the System -->
    <g style="fill:#262626;" transform="translate(142.878958 30.30625)scale(0.14 -0.14)">
     <defs>
      <path id="ArialMT-20" transform="scale(0.015625)"/>
      <path d="M 506 0 
L 506 4581 
L 3819 4581 
L 3819 4041 
L 1113 4041 
L 1113 2638 
L 3647 2638 
L 3647 2100 
L 1113 2100 
L 1113 541 
L 3925 541 
L 3925 0 
L 506 0 
z
" id="ArialMT-45" transform="scale(0.015625)"/>
      <path d="M 416 0 
L 416 3319 
L 922 3319 
L 922 2816 
Q 1116 3169 1280 3281 
Q 1444 3394 1641 3394 
Q 1925 3394 2219 3213 
L 2025 2691 
Q 1819 2813 1613 2813 
Q 1428 2813 1281 2702 
Q 1134 2591 1072 2394 
Q 978 2094 978 1738 
L 978 0 
L 416 0 
z
" id="ArialMT-72" transform="scale(0.015625)"/>
      <path d="M 319 -275 
L 866 -356 
Q 900 -609 1056 -725 
Q 1266 -881 1628 -881 
Q 2019 -881 2231 -725 
Q 2444 -569 2519 -288 
Q 2563 -116 2559 434 
Q 2191 0 1641 0 
Q 956 0 581 494 
Q 206 988 206 1678 
Q 206 2153 378 2554 
Q 550 2956 876 3175 
Q 1203 3394 1644 3394 
Q 2231 3394 2613 2919 
L 2613 3319 
L 3131 3319 
L 3131 450 
Q 3131 -325 2973 -648 
Q 2816 -972 2473 -1159 
Q 2131 -1347 1631 -1347 
Q 1038 -1347 672 -1080 
Q 306 -813 319 -275 
z
M 784 1719 
Q 784 1066 1043 766 
Q 1303 466 1694 466 
Q 2081 466 2343 764 
Q 2606 1063 2606 1700 
Q 2606 2309 2336 2618 
Q 2066 2928 1684 2928 
Q 1309 2928 1046 2623 
Q 784 2319 784 1719 
z
" id="ArialMT-67" transform="scale(0.015625)"/>
      <path d="M 397 -1278 
L 334 -750 
Q 519 -800 656 -800 
Q 844 -800 956 -737 
Q 1069 -675 1141 -563 
Q 1194 -478 1313 -144 
Q 1328 -97 1363 -6 
L 103 3319 
L 709 3319 
L 1400 1397 
Q 1534 1031 1641 628 
Q 1738 1016 1872 1384 
L 2581 3319 
L 3144 3319 
L 1881 -56 
Q 1678 -603 1566 -809 
Q 1416 -1088 1222 -1217 
Q 1028 -1347 759 -1347 
Q 597 -1347 397 -1278 
z
" id="ArialMT-79" transform="scale(0.015625)"/>
      <path d="M 556 0 
L 556 2881 
L 59 2881 
L 59 3319 
L 556 3319 
L 556 3672 
Q 556 4006 616 4169 
Q 697 4388 901 4523 
Q 1106 4659 1475 4659 
Q 1713 4659 2000 4603 
L 1916 4113 
Q 1741 4144 1584 4144 
Q 1328 4144 1222 4034 
Q 1116 3925 1116 3625 
L 1116 3319 
L 1763 3319 
L 1763 2881 
L 1116 2881 
L 1116 0 
L 556 0 
z
" id="ArialMT-66" transform="scale(0.015625)"/>
      <path d="M 422 0 
L 422 4581 
L 984 4581 
L 984 2938 
Q 1378 3394 1978 3394 
Q 2347 3394 2619 3248 
Q 2891 3103 3008 2847 
Q 3125 2591 3125 2103 
L 3125 0 
L 2563 0 
L 2563 2103 
Q 2563 2525 2380 2717 
Q 2197 2909 1863 2909 
Q 1613 2909 1392 2779 
Q 1172 2650 1078 2428 
Q 984 2206 984 1816 
L 984 0 
L 422 0 
z
" id="ArialMT-68" transform="scale(0.015625)"/>
      <path d="M 288 1472 
L 859 1522 
Q 900 1178 1048 958 
Q 1197 738 1509 602 
Q 1822 466 2213 466 
Q 2559 466 2825 569 
Q 3091 672 3220 851 
Q 3350 1031 3350 1244 
Q 3350 1459 3225 1620 
Q 3100 1781 2813 1891 
Q 2628 1963 1997 2114 
Q 1366 2266 1113 2400 
Q 784 2572 623 2826 
Q 463 3081 463 3397 
Q 463 3744 659 4045 
Q 856 4347 1234 4503 
Q 1613 4659 2075 4659 
Q 2584 4659 2973 4495 
Q 3363 4331 3572 4012 
Q 3781 3694 3797 3291 
L 3216 3247 
Q 3169 3681 2898 3903 
Q 2628 4125 2100 4125 
Q 1550 4125 1298 3923 
Q 1047 3722 1047 3438 
Q 1047 3191 1225 3031 
Q 1400 2872 2139 2705 
Q 2878 2538 3153 2413 
Q 3553 2228 3743 1945 
Q 3934 1663 3934 1294 
Q 3934 928 3725 604 
Q 3516 281 3123 101 
Q 2731 -78 2241 -78 
Q 1619 -78 1198 103 
Q 778 284 539 648 
Q 300 1013 288 1472 
z
" id="ArialMT-53" transform="scale(0.015625)"/>
      <path d="M 422 0 
L 422 3319 
L 925 3319 
L 925 2853 
Q 1081 3097 1340 3245 
Q 1600 3394 1931 3394 
Q 2300 3394 2536 3241 
Q 2772 3088 2869 2813 
Q 3263 3394 3894 3394 
Q 4388 3394 4653 3120 
Q 4919 2847 4919 2278 
L 4919 0 
L 4359 0 
L 4359 2091 
Q 4359 2428 4304 2576 
Q 4250 2725 4106 2815 
Q 3963 2906 3769 2906 
Q 3419 2906 3187 2673 
Q 2956 2441 2956 1928 
L 2956 0 
L 2394 0 
L 2394 2156 
Q 2394 2531 2256 2718 
Q 2119 2906 1806 2906 
Q 1569 2906 1367 2781 
Q 1166 2656 1075 2415 
Q 984 2175 984 1722 
L 984 0 
L 422 0 
z
" id="ArialMT-6d" transform="scale(0.015625)"/>
     </defs>
     <use xlink:href="#ArialMT-50"/>
     <use x="66.699219" xlink:href="#ArialMT-6f"/>
     <use x="122.314453" xlink:href="#ArialMT-74"/>
     <use x="150.097656" xlink:href="#ArialMT-65"/>
     <use x="205.712891" xlink:href="#ArialMT-6e"/>
     <use x="261.328125" xlink:href="#ArialMT-74"/>
     <use x="289.111328" xlink:href="#ArialMT-69"/>
     <use x="311.328125" xlink:href="#ArialMT-61"/>
     <use x="366.943359" xlink:href="#ArialMT-6c"/>
     <use x="389.160156" xlink:href="#ArialMT-20"/>
     <use x="416.943359" xlink:href="#ArialMT-45"/>
     <use x="483.642578" xlink:href="#ArialMT-6e"/>
     <use x="539.257812" xlink:href="#ArialMT-65"/>
     <use x="594.873047" xlink:href="#ArialMT-72"/>
     <use x="628.173828" xlink:href="#ArialMT-67"/>
     <use x="683.789062" xlink:href="#ArialMT-79"/>
     <use x="733.789062" xlink:href="#ArialMT-20"/>
     <use x="761.572266" xlink:href="#ArialMT-6f"/>
     <use x="817.1875" xlink:href="#ArialMT-66"/>
     <use x="844.970703" xlink:href="#ArialMT-20"/>
     <use x="872.753906" xlink:href="#ArialMT-74"/>
     <use x="900.537109" xlink:href="#ArialMT-68"/>
     <use x="956.152344" xlink:href="#ArialMT-65"/>
     <use x="1011.767578" xlink:href="#ArialMT-20"/>
     <use x="1039.550781" xlink:href="#ArialMT-53"/>
     <use x="1106.25" xlink:href="#ArialMT-79"/>
     <use x="1156.25" xlink:href="#ArialMT-73"/>
     <use x="1206.25" xlink:href="#ArialMT-74"/>
     <use x="1234.033203" xlink:href="#ArialMT-65"/>
     <use x="1289.648438" xlink:href="#ArialMT-6d"/>
    </g>
   </g>
  </g>
  <g id="axes_2">
   <g id="patch_7">
    <path d="M 478.132292 387.7 
L 856.742708 387.7 
L 856.742708 36.30625 
L 478.132292 36.30625 
z
" style="fill:#eaeaf2;"/>
   </g>
   <g id="matplotlib.axis_3">
    <g id="xtick_10">
     <g id="line2d_16">
      <path clip-path="url(#p800857026f)" d="M 486.039389 387.7 
L 486.039389 36.30625 
" style="fill:none;stroke:#ffffff;stroke-linecap:round;"/>
     </g>
     <g id="text_18">
      <!-- 0 -->
      <g style="fill:#262626;" transform="translate(482.980873 405.073594)scale(0.11 -0.11)">
       <use xlink:href="#ArialMT-30"/>
      </g>
     </g>
    </g>
    <g id="xtick_11">
     <g id="line2d_17">
      <path clip-path="url(#p800857026f)" d="M 532.551725 387.7 
L 532.551725 36.30625 
" style="fill:none;stroke:#ffffff;stroke-linecap:round;"/>
     </g>
     <g id="text_19">
      <!-- 5 -->
      <g style="fill:#262626;" transform="translate(529.493209 405.073594)scale(0.11 -0.11)">
       <use xlink:href="#ArialMT-35"/>
      </g>
     </g>
    </g>
    <g id="xtick_12">
     <g id="line2d_18">
      <path clip-path="url(#p800857026f)" d="M 579.064061 387.7 
L 579.064061 36.30625 
" style="fill:none;stroke:#ffffff;stroke-linecap:round;"/>
     </g>
     <g id="text_20">
      <!-- 10 -->
      <g style="fill:#262626;" transform="translate(572.94703 405.073594)scale(0.11 -0.11)">
       <use xlink:href="#ArialMT-31"/>
       <use x="55.615234" xlink:href="#ArialMT-30"/>
      </g>
     </g>
    </g>
    <g id="xtick_13">
     <g id="line2d_19">
      <path clip-path="url(#p800857026f)" d="M 625.576397 387.7 
L 625.576397 36.30625 
" style="fill:none;stroke:#ffffff;stroke-linecap:round;"/>
     </g>
     <g id="text_21">
      <!-- 15 -->
      <g style="fill:#262626;" transform="translate(619.459366 405.073594)scale(0.11 -0.11)">
       <use xlink:href="#ArialMT-31"/>
       <use x="55.615234" xlink:href="#ArialMT-35"/>
      </g>
     </g>
    </g>
    <g id="xtick_14">
     <g id="line2d_20">
      <path clip-path="url(#p800857026f)" d="M 672.088734 387.7 
L 672.088734 36.30625 
" style="fill:none;stroke:#ffffff;stroke-linecap:round;"/>
     </g>
     <g id="text_22">
      <!-- 20 -->
      <g style="fill:#262626;" transform="translate(665.971702 405.073594)scale(0.11 -0.11)">
       <use xlink:href="#ArialMT-32"/>
       <use x="55.615234" xlink:href="#ArialMT-30"/>
      </g>
     </g>
    </g>
    <g id="xtick_15">
     <g id="line2d_21">
      <path clip-path="url(#p800857026f)" d="M 718.60107 387.7 
L 718.60107 36.30625 
" style="fill:none;stroke:#ffffff;stroke-linecap:round;"/>
     </g>
     <g id="text_23">
      <!-- 25 -->
      <g style="fill:#262626;" transform="translate(712.484039 405.073594)scale(0.11 -0.11)">
       <use xlink:href="#ArialMT-32"/>
       <use x="55.615234" xlink:href="#ArialMT-35"/>
      </g>
     </g>
    </g>
    <g id="xtick_16">
     <g id="line2d_22">
      <path clip-path="url(#p800857026f)" d="M 765.113406 387.7 
L 765.113406 36.30625 
" style="fill:none;stroke:#ffffff;stroke-linecap:round;"/>
     </g>
     <g id="text_24">
      <!-- 30 -->
      <g style="fill:#262626;" transform="translate(758.996375 405.073594)scale(0.11 -0.11)">
       <defs>
        <path d="M 269 1209 
L 831 1284 
Q 928 806 1161 595 
Q 1394 384 1728 384 
Q 2125 384 2398 659 
Q 2672 934 2672 1341 
Q 2672 1728 2419 1979 
Q 2166 2231 1775 2231 
Q 1616 2231 1378 2169 
L 1441 2663 
Q 1497 2656 1531 2656 
Q 1891 2656 2178 2843 
Q 2466 3031 2466 3422 
Q 2466 3731 2256 3934 
Q 2047 4138 1716 4138 
Q 1388 4138 1169 3931 
Q 950 3725 888 3313 
L 325 3413 
Q 428 3978 793 4289 
Q 1159 4600 1703 4600 
Q 2078 4600 2393 4439 
Q 2709 4278 2876 4000 
Q 3044 3722 3044 3409 
Q 3044 3113 2884 2869 
Q 2725 2625 2413 2481 
Q 2819 2388 3044 2092 
Q 3269 1797 3269 1353 
Q 3269 753 2831 336 
Q 2394 -81 1725 -81 
Q 1122 -81 723 278 
Q 325 638 269 1209 
z
" id="ArialMT-33" transform="scale(0.015625)"/>
       </defs>
       <use xlink:href="#ArialMT-33"/>
       <use x="55.615234" xlink:href="#ArialMT-30"/>
      </g>
     </g>
    </g>
    <g id="xtick_17">
     <g id="line2d_23">
      <path clip-path="url(#p800857026f)" d="M 811.625742 387.7 
L 811.625742 36.30625 
" style="fill:none;stroke:#ffffff;stroke-linecap:round;"/>
     </g>
     <g id="text_25">
      <!-- 35 -->
      <g style="fill:#262626;" transform="translate(805.508711 405.073594)scale(0.11 -0.11)">
       <use xlink:href="#ArialMT-33"/>
       <use x="55.615234" xlink:href="#ArialMT-35"/>
      </g>
     </g>
    </g>
    <g id="text_26">
     <!-- Epochs -->
     <g style="fill:#262626;" transform="translate(647.425625 419.849219)scale(0.12 -0.12)">
      <defs>
       <path d="M 422 -1272 
L 422 3319 
L 934 3319 
L 934 2888 
Q 1116 3141 1344 3267 
Q 1572 3394 1897 3394 
Q 2322 3394 2647 3175 
Q 2972 2956 3137 2557 
Q 3303 2159 3303 1684 
Q 3303 1175 3120 767 
Q 2938 359 2589 142 
Q 2241 -75 1856 -75 
Q 1575 -75 1351 44 
Q 1128 163 984 344 
L 984 -1272 
L 422 -1272 
z
M 931 1641 
Q 931 1000 1190 694 
Q 1450 388 1819 388 
Q 2194 388 2461 705 
Q 2728 1022 2728 1688 
Q 2728 2322 2467 2637 
Q 2206 2953 1844 2953 
Q 1484 2953 1207 2617 
Q 931 2281 931 1641 
z
" id="ArialMT-70" transform="scale(0.015625)"/>
       <path d="M 2588 1216 
L 3141 1144 
Q 3050 572 2676 248 
Q 2303 -75 1759 -75 
Q 1078 -75 664 370 
Q 250 816 250 1647 
Q 250 2184 428 2587 
Q 606 2991 970 3192 
Q 1334 3394 1763 3394 
Q 2303 3394 2647 3120 
Q 2991 2847 3088 2344 
L 2541 2259 
Q 2463 2594 2264 2762 
Q 2066 2931 1784 2931 
Q 1359 2931 1093 2626 
Q 828 2322 828 1663 
Q 828 994 1084 691 
Q 1341 388 1753 388 
Q 2084 388 2306 591 
Q 2528 794 2588 1216 
z
" id="ArialMT-63" transform="scale(0.015625)"/>
      </defs>
      <use xlink:href="#ArialMT-45"/>
      <use x="66.699219" xlink:href="#ArialMT-70"/>
      <use x="122.314453" xlink:href="#ArialMT-6f"/>
      <use x="177.929688" xlink:href="#ArialMT-63"/>
      <use x="227.929688" xlink:href="#ArialMT-68"/>
      <use x="283.544922" xlink:href="#ArialMT-73"/>
     </g>
    </g>
   </g>
   <g id="matplotlib.axis_4">
    <g id="ytick_6">
     <g id="line2d_24">
      <path clip-path="url(#p800857026f)" d="M 478.132292 380.622429 
L 856.742708 380.622429 
" style="fill:none;stroke:#ffffff;stroke-linecap:round;"/>
     </g>
     <g id="text_27">
      <!-- 0.2 -->
      <g style="fill:#262626;" transform="translate(453.342292 384.559226)scale(0.11 -0.11)">
       <use xlink:href="#ArialMT-30"/>
       <use x="55.615234" xlink:href="#ArialMT-2e"/>
       <use x="83.398438" xlink:href="#ArialMT-32"/>
      </g>
     </g>
    </g>
    <g id="ytick_7">
     <g id="line2d_25">
      <path clip-path="url(#p800857026f)" d="M 478.132292 330.813165 
L 856.742708 330.813165 
" style="fill:none;stroke:#ffffff;stroke-linecap:round;"/>
     </g>
     <g id="text_28">
      <!-- 0.3 -->
      <g style="fill:#262626;" transform="translate(453.342292 334.749962)scale(0.11 -0.11)">
       <use xlink:href="#ArialMT-30"/>
       <use x="55.615234" xlink:href="#ArialMT-2e"/>
       <use x="83.398438" xlink:href="#ArialMT-33"/>
      </g>
     </g>
    </g>
    <g id="ytick_8">
     <g id="line2d_26">
      <path clip-path="url(#p800857026f)" d="M 478.132292 281.003902 
L 856.742708 281.003902 
" style="fill:none;stroke:#ffffff;stroke-linecap:round;"/>
     </g>
     <g id="text_29">
      <!-- 0.4 -->
      <g style="fill:#262626;" transform="translate(453.342292 284.940698)scale(0.11 -0.11)">
       <defs>
        <path d="M 2069 0 
L 2069 1097 
L 81 1097 
L 81 1613 
L 2172 4581 
L 2631 4581 
L 2631 1613 
L 3250 1613 
L 3250 1097 
L 2631 1097 
L 2631 0 
L 2069 0 
z
M 2069 1613 
L 2069 3678 
L 634 1613 
L 2069 1613 
z
" id="ArialMT-34" transform="scale(0.015625)"/>
       </defs>
       <use xlink:href="#ArialMT-30"/>
       <use x="55.615234" xlink:href="#ArialMT-2e"/>
       <use x="83.398438" xlink:href="#ArialMT-34"/>
      </g>
     </g>
    </g>
    <g id="ytick_9">
     <g id="line2d_27">
      <path clip-path="url(#p800857026f)" d="M 478.132292 231.194638 
L 856.742708 231.194638 
" style="fill:none;stroke:#ffffff;stroke-linecap:round;"/>
     </g>
     <g id="text_30">
      <!-- 0.5 -->
      <g style="fill:#262626;" transform="translate(453.342292 235.131435)scale(0.11 -0.11)">
       <use xlink:href="#ArialMT-30"/>
       <use x="55.615234" xlink:href="#ArialMT-2e"/>
       <use x="83.398438" xlink:href="#ArialMT-35"/>
      </g>
     </g>
    </g>
    <g id="ytick_10">
     <g id="line2d_28">
      <path clip-path="url(#p800857026f)" d="M 478.132292 181.385374 
L 856.742708 181.385374 
" style="fill:none;stroke:#ffffff;stroke-linecap:round;"/>
     </g>
     <g id="text_31">
      <!-- 0.6 -->
      <g style="fill:#262626;" transform="translate(453.342292 185.322171)scale(0.11 -0.11)">
       <defs>
        <path d="M 3184 3459 
L 2625 3416 
Q 2550 3747 2413 3897 
Q 2184 4138 1850 4138 
Q 1581 4138 1378 3988 
Q 1113 3794 959 3422 
Q 806 3050 800 2363 
Q 1003 2672 1297 2822 
Q 1591 2972 1913 2972 
Q 2475 2972 2870 2558 
Q 3266 2144 3266 1488 
Q 3266 1056 3080 686 
Q 2894 316 2569 119 
Q 2244 -78 1831 -78 
Q 1128 -78 684 439 
Q 241 956 241 2144 
Q 241 3472 731 4075 
Q 1159 4600 1884 4600 
Q 2425 4600 2770 4297 
Q 3116 3994 3184 3459 
z
M 888 1484 
Q 888 1194 1011 928 
Q 1134 663 1356 523 
Q 1578 384 1822 384 
Q 2178 384 2434 671 
Q 2691 959 2691 1453 
Q 2691 1928 2437 2201 
Q 2184 2475 1800 2475 
Q 1419 2475 1153 2201 
Q 888 1928 888 1484 
z
" id="ArialMT-36" transform="scale(0.015625)"/>
       </defs>
       <use xlink:href="#ArialMT-30"/>
       <use x="55.615234" xlink:href="#ArialMT-2e"/>
       <use x="83.398438" xlink:href="#ArialMT-36"/>
      </g>
     </g>
    </g>
    <g id="ytick_11">
     <g id="line2d_29">
      <path clip-path="url(#p800857026f)" d="M 478.132292 131.57611 
L 856.742708 131.57611 
" style="fill:none;stroke:#ffffff;stroke-linecap:round;"/>
     </g>
     <g id="text_32">
      <!-- 0.7 -->
      <g style="fill:#262626;" transform="translate(453.342292 135.512907)scale(0.11 -0.11)">
       <defs>
        <path d="M 303 3981 
L 303 4522 
L 3269 4522 
L 3269 4084 
Q 2831 3619 2401 2847 
Q 1972 2075 1738 1259 
Q 1569 684 1522 0 
L 944 0 
Q 953 541 1156 1306 
Q 1359 2072 1739 2783 
Q 2119 3494 2547 3981 
L 303 3981 
z
" id="ArialMT-37" transform="scale(0.015625)"/>
       </defs>
       <use xlink:href="#ArialMT-30"/>
       <use x="55.615234" xlink:href="#ArialMT-2e"/>
       <use x="83.398438" xlink:href="#ArialMT-37"/>
      </g>
     </g>
    </g>
    <g id="ytick_12">
     <g id="line2d_30">
      <path clip-path="url(#p800857026f)" d="M 478.132292 81.766847 
L 856.742708 81.766847 
" style="fill:none;stroke:#ffffff;stroke-linecap:round;"/>
     </g>
     <g id="text_33">
      <!-- 0.8 -->
      <g style="fill:#262626;" transform="translate(453.342292 85.703643)scale(0.11 -0.11)">
       <defs>
        <path d="M 1131 2484 
Q 781 2613 612 2850 
Q 444 3088 444 3419 
Q 444 3919 803 4259 
Q 1163 4600 1759 4600 
Q 2359 4600 2725 4251 
Q 3091 3903 3091 3403 
Q 3091 3084 2923 2848 
Q 2756 2613 2416 2484 
Q 2838 2347 3058 2040 
Q 3278 1734 3278 1309 
Q 3278 722 2862 322 
Q 2447 -78 1769 -78 
Q 1091 -78 675 323 
Q 259 725 259 1325 
Q 259 1772 486 2073 
Q 713 2375 1131 2484 
z
M 1019 3438 
Q 1019 3113 1228 2906 
Q 1438 2700 1772 2700 
Q 2097 2700 2305 2904 
Q 2513 3109 2513 3406 
Q 2513 3716 2298 3927 
Q 2084 4138 1766 4138 
Q 1444 4138 1231 3931 
Q 1019 3725 1019 3438 
z
M 838 1322 
Q 838 1081 952 856 
Q 1066 631 1291 507 
Q 1516 384 1775 384 
Q 2178 384 2440 643 
Q 2703 903 2703 1303 
Q 2703 1709 2433 1975 
Q 2163 2241 1756 2241 
Q 1359 2241 1098 1978 
Q 838 1716 838 1322 
z
" id="ArialMT-38" transform="scale(0.015625)"/>
       </defs>
       <use xlink:href="#ArialMT-30"/>
       <use x="55.615234" xlink:href="#ArialMT-2e"/>
       <use x="83.398438" xlink:href="#ArialMT-38"/>
      </g>
     </g>
    </g>
    <g id="text_34">
     <!-- Model Loss -->
     <g style="fill:#262626;" transform="translate(446.957292 242.68375)rotate(-90)scale(0.12 -0.12)">
      <defs>
       <path d="M 475 0 
L 475 4581 
L 1388 4581 
L 2472 1338 
Q 2622 884 2691 659 
Q 2769 909 2934 1394 
L 4031 4581 
L 4847 4581 
L 4847 0 
L 4263 0 
L 4263 3834 
L 2931 0 
L 2384 0 
L 1059 3900 
L 1059 0 
L 475 0 
z
" id="ArialMT-4d" transform="scale(0.015625)"/>
       <path d="M 2575 0 
L 2575 419 
Q 2259 -75 1647 -75 
Q 1250 -75 917 144 
Q 584 363 401 755 
Q 219 1147 219 1656 
Q 219 2153 384 2558 
Q 550 2963 881 3178 
Q 1213 3394 1622 3394 
Q 1922 3394 2156 3267 
Q 2391 3141 2538 2938 
L 2538 4581 
L 3097 4581 
L 3097 0 
L 2575 0 
z
M 797 1656 
Q 797 1019 1065 703 
Q 1334 388 1700 388 
Q 2069 388 2326 689 
Q 2584 991 2584 1609 
Q 2584 2291 2321 2609 
Q 2059 2928 1675 2928 
Q 1300 2928 1048 2622 
Q 797 2316 797 1656 
z
" id="ArialMT-64" transform="scale(0.015625)"/>
       <path d="M 469 0 
L 469 4581 
L 1075 4581 
L 1075 541 
L 3331 541 
L 3331 0 
L 469 0 
z
" id="ArialMT-4c" transform="scale(0.015625)"/>
      </defs>
      <use xlink:href="#ArialMT-4d"/>
      <use x="83.300781" xlink:href="#ArialMT-6f"/>
      <use x="138.916016" xlink:href="#ArialMT-64"/>
      <use x="194.53125" xlink:href="#ArialMT-65"/>
      <use x="250.146484" xlink:href="#ArialMT-6c"/>
      <use x="272.363281" xlink:href="#ArialMT-20"/>
      <use x="300.146484" xlink:href="#ArialMT-4c"/>
      <use x="355.761719" xlink:href="#ArialMT-6f"/>
      <use x="411.376953" xlink:href="#ArialMT-73"/>
      <use x="461.376953" xlink:href="#ArialMT-73"/>
     </g>
    </g>
   </g>
   <g id="line2d_31">
    <path clip-path="url(#p800857026f)" d="M 495.341856 115.80774 
L 504.644323 188.550952 
L 513.946791 224.360166 
L 523.249258 284.840887 
L 532.551725 330.892873 
L 541.854192 334.518613 
L 551.15666 341.607665 
L 560.459127 345.986293 
L 569.761594 341.838969 
L 579.064061 348.534113 
L 588.366528 352.701165 
" style="fill:none;stroke:#4c72b0;stroke-linecap:round;stroke-width:1.5;"/>
   </g>
   <g id="line2d_32">
    <path clip-path="url(#p800857026f)" d="M 495.341856 146.218313 
L 504.644323 220.857026 
L 513.946791 261.266197 
L 523.249258 344.148225 
L 532.551725 357.765897 
L 541.854192 215.039894 
L 551.15666 367.434766 
L 560.459127 371.727557 
L 569.761594 368.604943 
L 579.064061 368.442086 
L 588.366528 370.670189 
" style="fill:none;stroke:#dd8452;stroke-linecap:round;stroke-width:1.5;"/>
   </g>
   <g id="line2d_33">
    <path clip-path="url(#p800857026f)" d="M 495.341856 52.278693 
L 504.644323 77.455071 
L 513.946791 84.280726 
L 523.249258 88.127779 
L 532.551725 90.863913 
L 541.854192 92.859969 
L 551.15666 94.488777 
L 560.459127 95.878235 
L 569.761594 97.367535 
L 579.064061 98.780833 
L 588.366528 100.216932 
L 597.668996 101.595167 
L 606.971463 102.660217 
L 616.27393 103.570827 
L 625.576397 104.411342 
L 634.878865 105.17146 
L 644.181332 105.946957 
L 653.483799 106.750806 
L 662.786266 107.443234 
L 672.088734 108.177167 
L 681.391201 109.156417 
L 690.693668 110.054439 
L 699.996135 110.644352 
L 709.298603 111.101646 
L 718.60107 111.475367 
L 727.903537 111.819785 
L 737.206004 112.187092 
L 746.508472 112.507908 
L 755.810939 112.777748 
L 765.113406 113.027221 
L 774.415873 113.273281 
L 783.71834 113.451205 
L 793.020808 113.658372 
L 802.323275 114.009707 
L 811.625742 114.337084 
L 820.928209 114.58341 
L 830.230677 114.766946 
L 839.533144 114.949234 
" style="fill:none;stroke:#55a868;stroke-linecap:round;stroke-width:1.5;"/>
   </g>
   <g id="line2d_34">
    <path clip-path="url(#p800857026f)" d="M 495.341856 70.394461 
L 504.644323 80.762504 
L 513.946791 85.765484 
L 523.249258 89.078439 
L 532.551725 91.104391 
L 541.854192 93.069927 
L 551.15666 94.285083 
L 560.459127 95.182481 
L 569.761594 97.349039 
L 579.064061 98.961904 
L 588.366528 100.044292 
L 597.668996 101.708756 
L 606.971463 102.372148 
L 616.27393 102.86308 
L 625.576397 103.46089 
L 634.878865 104.831911 
L 644.181332 104.795721 
L 653.483799 105.862493 
L 662.786266 104.476835 
L 672.088734 107.90519 
L 681.391201 109.004946 
L 690.693668 108.387867 
L 699.996135 108.347639 
L 709.298603 110.521916 
L 718.60107 110.74372 
L 727.903537 110.27936 
L 737.206004 112.106963 
L 746.508472 111.508588 
L 755.810939 112.56963 
L 765.113406 110.716377 
L 774.415873 112.152713 
L 783.71834 112.880619 
L 793.020808 112.25974 
L 802.323275 113.509246 
L 811.625742 113.876019 
L 820.928209 112.441791 
L 830.230677 113.283375 
L 839.533144 112.97393 
" style="fill:none;stroke:#c44e52;stroke-linecap:round;stroke-width:1.5;"/>
   </g>
   <g id="patch_8">
    <path d="M 478.132292 387.7 
L 478.132292 36.30625 
" style="fill:none;stroke:#ffffff;stroke-linecap:square;stroke-linejoin:miter;stroke-width:1.25;"/>
   </g>
   <g id="patch_9">
    <path d="M 856.742708 387.7 
L 856.742708 36.30625 
" style="fill:none;stroke:#ffffff;stroke-linecap:square;stroke-linejoin:miter;stroke-width:1.25;"/>
   </g>
   <g id="patch_10">
    <path d="M 478.132292 387.7 
L 856.742708 387.7 
" style="fill:none;stroke:#ffffff;stroke-linecap:square;stroke-linejoin:miter;stroke-width:1.25;"/>
   </g>
   <g id="patch_11">
    <path d="M 478.132292 36.30625 
L 856.742708 36.30625 
" style="fill:none;stroke:#ffffff;stroke-linecap:square;stroke-linejoin:miter;stroke-width:1.25;"/>
   </g>
   <g id="text_35">
    <!-- Model Loss by Epoch -->
    <g style="fill:#262626;" transform="translate(600.514219 30.30625)scale(0.14 -0.14)">
     <defs>
      <path d="M 941 0 
L 419 0 
L 419 4581 
L 981 4581 
L 981 2947 
Q 1338 3394 1891 3394 
Q 2197 3394 2470 3270 
Q 2744 3147 2920 2923 
Q 3097 2700 3197 2384 
Q 3297 2069 3297 1709 
Q 3297 856 2875 390 
Q 2453 -75 1863 -75 
Q 1275 -75 941 416 
L 941 0 
z
M 934 1684 
Q 934 1088 1097 822 
Q 1363 388 1816 388 
Q 2184 388 2453 708 
Q 2722 1028 2722 1663 
Q 2722 2313 2464 2622 
Q 2206 2931 1841 2931 
Q 1472 2931 1203 2611 
Q 934 2291 934 1684 
z
" id="ArialMT-62" transform="scale(0.015625)"/>
     </defs>
     <use xlink:href="#ArialMT-4d"/>
     <use x="83.300781" xlink:href="#ArialMT-6f"/>
     <use x="138.916016" xlink:href="#ArialMT-64"/>
     <use x="194.53125" xlink:href="#ArialMT-65"/>
     <use x="250.146484" xlink:href="#ArialMT-6c"/>
     <use x="272.363281" xlink:href="#ArialMT-20"/>
     <use x="300.146484" xlink:href="#ArialMT-4c"/>
     <use x="355.761719" xlink:href="#ArialMT-6f"/>
     <use x="411.376953" xlink:href="#ArialMT-73"/>
     <use x="461.376953" xlink:href="#ArialMT-73"/>
     <use x="511.376953" xlink:href="#ArialMT-20"/>
     <use x="539.160156" xlink:href="#ArialMT-62"/>
     <use x="594.775391" xlink:href="#ArialMT-79"/>
     <use x="644.775391" xlink:href="#ArialMT-20"/>
     <use x="672.558594" xlink:href="#ArialMT-45"/>
     <use x="739.257812" xlink:href="#ArialMT-70"/>
     <use x="794.873047" xlink:href="#ArialMT-6f"/>
     <use x="850.488281" xlink:href="#ArialMT-63"/>
     <use x="900.488281" xlink:href="#ArialMT-68"/>
    </g>
   </g>
   <g id="legend_1">
    <g id="patch_12">
     <path d="M 719.885521 108.139688 
L 849.042708 108.139688 
Q 851.242708 108.139688 851.242708 105.939688 
L 851.242708 44.00625 
Q 851.242708 41.80625 849.042708 41.80625 
L 719.885521 41.80625 
Q 717.685521 41.80625 717.685521 44.00625 
L 717.685521 105.939688 
Q 717.685521 108.139688 719.885521 108.139688 
z
" style="fill:#eaeaf2;opacity:0.8;stroke:#cccccc;stroke-linejoin:miter;"/>
    </g>
    <g id="line2d_35">
     <path d="M 722.085521 50.363906 
L 744.085521 50.363906 
" style="fill:none;stroke:#4c72b0;stroke-linecap:round;stroke-width:1.5;"/>
    </g>
    <g id="line2d_36"/>
    <g id="text_36">
     <!-- Complex Training -->
     <g style="fill:#262626;" transform="translate(752.885521 54.213906)scale(0.11 -0.11)">
      <defs>
       <path d="M 3763 1606 
L 4369 1453 
Q 4178 706 3683 314 
Q 3188 -78 2472 -78 
Q 1731 -78 1267 223 
Q 803 525 561 1097 
Q 319 1669 319 2325 
Q 319 3041 592 3573 
Q 866 4106 1370 4382 
Q 1875 4659 2481 4659 
Q 3169 4659 3637 4309 
Q 4106 3959 4291 3325 
L 3694 3184 
Q 3534 3684 3231 3912 
Q 2928 4141 2469 4141 
Q 1941 4141 1586 3887 
Q 1231 3634 1087 3207 
Q 944 2781 944 2328 
Q 944 1744 1114 1308 
Q 1284 872 1643 656 
Q 2003 441 2422 441 
Q 2931 441 3284 734 
Q 3638 1028 3763 1606 
z
" id="ArialMT-43" transform="scale(0.015625)"/>
       <path d="M 47 0 
L 1259 1725 
L 138 3319 
L 841 3319 
L 1350 2541 
Q 1494 2319 1581 2169 
Q 1719 2375 1834 2534 
L 2394 3319 
L 3066 3319 
L 1919 1756 
L 3153 0 
L 2463 0 
L 1781 1031 
L 1600 1309 
L 728 0 
L 47 0 
z
" id="ArialMT-78" transform="scale(0.015625)"/>
       <path d="M 1659 0 
L 1659 4041 
L 150 4041 
L 150 4581 
L 3781 4581 
L 3781 4041 
L 2266 4041 
L 2266 0 
L 1659 0 
z
" id="ArialMT-54" transform="scale(0.015625)"/>
      </defs>
      <use xlink:href="#ArialMT-43"/>
      <use x="72.216797" xlink:href="#ArialMT-6f"/>
      <use x="127.832031" xlink:href="#ArialMT-6d"/>
      <use x="211.132812" xlink:href="#ArialMT-70"/>
      <use x="266.748047" xlink:href="#ArialMT-6c"/>
      <use x="288.964844" xlink:href="#ArialMT-65"/>
      <use x="344.580078" xlink:href="#ArialMT-78"/>
      <use x="394.580078" xlink:href="#ArialMT-20"/>
      <use x="420.613281" xlink:href="#ArialMT-54"/>
      <use x="477.947266" xlink:href="#ArialMT-72"/>
      <use x="511.248047" xlink:href="#ArialMT-61"/>
      <use x="566.863281" xlink:href="#ArialMT-69"/>
      <use x="589.080078" xlink:href="#ArialMT-6e"/>
      <use x="644.695312" xlink:href="#ArialMT-69"/>
      <use x="666.912109" xlink:href="#ArialMT-6e"/>
      <use x="722.527344" xlink:href="#ArialMT-67"/>
     </g>
    </g>
    <g id="line2d_37">
     <path d="M 722.085521 66.186719 
L 744.085521 66.186719 
" style="fill:none;stroke:#dd8452;stroke-linecap:round;stroke-width:1.5;"/>
    </g>
    <g id="line2d_38"/>
    <g id="text_37">
     <!-- Complex Validation -->
     <g style="fill:#262626;" transform="translate(752.885521 70.036719)scale(0.11 -0.11)">
      <defs>
       <path d="M 1803 0 
L 28 4581 
L 684 4581 
L 1875 1253 
Q 2019 853 2116 503 
Q 2222 878 2363 1253 
L 3600 4581 
L 4219 4581 
L 2425 0 
L 1803 0 
z
" id="ArialMT-56" transform="scale(0.015625)"/>
      </defs>
      <use xlink:href="#ArialMT-43"/>
      <use x="72.216797" xlink:href="#ArialMT-6f"/>
      <use x="127.832031" xlink:href="#ArialMT-6d"/>
      <use x="211.132812" xlink:href="#ArialMT-70"/>
      <use x="266.748047" xlink:href="#ArialMT-6c"/>
      <use x="288.964844" xlink:href="#ArialMT-65"/>
      <use x="344.580078" xlink:href="#ArialMT-78"/>
      <use x="394.580078" xlink:href="#ArialMT-20"/>
      <use x="422.363281" xlink:href="#ArialMT-56"/>
      <use x="481.6875" xlink:href="#ArialMT-61"/>
      <use x="537.302734" xlink:href="#ArialMT-6c"/>
      <use x="559.519531" xlink:href="#ArialMT-69"/>
      <use x="581.736328" xlink:href="#ArialMT-64"/>
      <use x="637.351562" xlink:href="#ArialMT-61"/>
      <use x="692.966797" xlink:href="#ArialMT-74"/>
      <use x="720.75" xlink:href="#ArialMT-69"/>
      <use x="742.966797" xlink:href="#ArialMT-6f"/>
      <use x="798.582031" xlink:href="#ArialMT-6e"/>
     </g>
    </g>
    <g id="line2d_39">
     <path d="M 722.085521 81.880625 
L 744.085521 81.880625 
" style="fill:none;stroke:#55a868;stroke-linecap:round;stroke-width:1.5;"/>
    </g>
    <g id="line2d_40"/>
    <g id="text_38">
     <!-- Simple Training -->
     <g style="fill:#262626;" transform="translate(752.885521 85.730625)scale(0.11 -0.11)">
      <use xlink:href="#ArialMT-53"/>
      <use x="66.699219" xlink:href="#ArialMT-69"/>
      <use x="88.916016" xlink:href="#ArialMT-6d"/>
      <use x="172.216797" xlink:href="#ArialMT-70"/>
      <use x="227.832031" xlink:href="#ArialMT-6c"/>
      <use x="250.048828" xlink:href="#ArialMT-65"/>
      <use x="305.664062" xlink:href="#ArialMT-20"/>
      <use x="331.697266" xlink:href="#ArialMT-54"/>
      <use x="389.03125" xlink:href="#ArialMT-72"/>
      <use x="422.332031" xlink:href="#ArialMT-61"/>
      <use x="477.947266" xlink:href="#ArialMT-69"/>
      <use x="500.164062" xlink:href="#ArialMT-6e"/>
      <use x="555.779297" xlink:href="#ArialMT-69"/>
      <use x="577.996094" xlink:href="#ArialMT-6e"/>
      <use x="633.611328" xlink:href="#ArialMT-67"/>
     </g>
    </g>
    <g id="line2d_41">
     <path d="M 722.085521 97.703438 
L 744.085521 97.703438 
" style="fill:none;stroke:#c44e52;stroke-linecap:round;stroke-width:1.5;"/>
    </g>
    <g id="line2d_42"/>
    <g id="text_39">
     <!-- Simple Validation -->
     <g style="fill:#262626;" transform="translate(752.885521 101.553438)scale(0.11 -0.11)">
      <use xlink:href="#ArialMT-53"/>
      <use x="66.699219" xlink:href="#ArialMT-69"/>
      <use x="88.916016" xlink:href="#ArialMT-6d"/>
      <use x="172.216797" xlink:href="#ArialMT-70"/>
      <use x="227.832031" xlink:href="#ArialMT-6c"/>
      <use x="250.048828" xlink:href="#ArialMT-65"/>
      <use x="305.664062" xlink:href="#ArialMT-20"/>
      <use x="333.447266" xlink:href="#ArialMT-56"/>
      <use x="392.771484" xlink:href="#ArialMT-61"/>
      <use x="448.386719" xlink:href="#ArialMT-6c"/>
      <use x="470.603516" xlink:href="#ArialMT-69"/>
      <use x="492.820312" xlink:href="#ArialMT-64"/>
      <use x="548.435547" xlink:href="#ArialMT-61"/>
      <use x="604.050781" xlink:href="#ArialMT-74"/>
      <use x="631.833984" xlink:href="#ArialMT-69"/>
      <use x="654.050781" xlink:href="#ArialMT-6f"/>
      <use x="709.666016" xlink:href="#ArialMT-6e"/>
     </g>
    </g>
   </g>
  </g>
  <g id="axes_3">
   <g id="patch_13">
    <path d="M 906.589583 387.7 
L 1285.2 387.7 
L 1285.2 36.30625 
L 906.589583 36.30625 
z
" style="fill:#eaeaf2;"/>
   </g>
   <g id="matplotlib.axis_5">
    <g id="xtick_18">
     <g id="line2d_43">
      <path clip-path="url(#p1ef9185a23)" d="M 921.986374 387.7 
L 921.986374 36.30625 
" style="fill:none;stroke:#ffffff;stroke-linecap:round;"/>
     </g>
     <g id="text_40">
      <!-- 0.00 -->
      <g style="fill:#262626;" transform="translate(911.282858 405.073594)scale(0.11 -0.11)">
       <use xlink:href="#ArialMT-30"/>
       <use x="55.615234" xlink:href="#ArialMT-2e"/>
       <use x="83.398438" xlink:href="#ArialMT-30"/>
       <use x="139.013672" xlink:href="#ArialMT-30"/>
      </g>
     </g>
    </g>
    <g id="xtick_19">
     <g id="line2d_44">
      <path clip-path="url(#p1ef9185a23)" d="M 971.864903 387.7 
L 971.864903 36.30625 
" style="fill:none;stroke:#ffffff;stroke-linecap:round;"/>
     </g>
     <g id="text_41">
      <!-- 0.25 -->
      <g style="fill:#262626;" transform="translate(961.161387 405.073594)scale(0.11 -0.11)">
       <use xlink:href="#ArialMT-30"/>
       <use x="55.615234" xlink:href="#ArialMT-2e"/>
       <use x="83.398438" xlink:href="#ArialMT-32"/>
       <use x="139.013672" xlink:href="#ArialMT-35"/>
      </g>
     </g>
    </g>
    <g id="xtick_20">
     <g id="line2d_45">
      <path clip-path="url(#p1ef9185a23)" d="M 1021.743432 387.7 
L 1021.743432 36.30625 
" style="fill:none;stroke:#ffffff;stroke-linecap:round;"/>
     </g>
     <g id="text_42">
      <!-- 0.50 -->
      <g style="fill:#262626;" transform="translate(1011.039916 405.073594)scale(0.11 -0.11)">
       <use xlink:href="#ArialMT-30"/>
       <use x="55.615234" xlink:href="#ArialMT-2e"/>
       <use x="83.398438" xlink:href="#ArialMT-35"/>
       <use x="139.013672" xlink:href="#ArialMT-30"/>
      </g>
     </g>
    </g>
    <g id="xtick_21">
     <g id="line2d_46">
      <path clip-path="url(#p1ef9185a23)" d="M 1071.621961 387.7 
L 1071.621961 36.30625 
" style="fill:none;stroke:#ffffff;stroke-linecap:round;"/>
     </g>
     <g id="text_43">
      <!-- 0.75 -->
      <g style="fill:#262626;" transform="translate(1060.918445 405.073594)scale(0.11 -0.11)">
       <use xlink:href="#ArialMT-30"/>
       <use x="55.615234" xlink:href="#ArialMT-2e"/>
       <use x="83.398438" xlink:href="#ArialMT-37"/>
       <use x="139.013672" xlink:href="#ArialMT-35"/>
      </g>
     </g>
    </g>
    <g id="xtick_22">
     <g id="line2d_47">
      <path clip-path="url(#p1ef9185a23)" d="M 1121.50049 387.7 
L 1121.50049 36.30625 
" style="fill:none;stroke:#ffffff;stroke-linecap:round;"/>
     </g>
     <g id="text_44">
      <!-- 1.00 -->
      <g style="fill:#262626;" transform="translate(1110.796974 405.073594)scale(0.11 -0.11)">
       <use xlink:href="#ArialMT-31"/>
       <use x="55.615234" xlink:href="#ArialMT-2e"/>
       <use x="83.398438" xlink:href="#ArialMT-30"/>
       <use x="139.013672" xlink:href="#ArialMT-30"/>
      </g>
     </g>
    </g>
    <g id="xtick_23">
     <g id="line2d_48">
      <path clip-path="url(#p1ef9185a23)" d="M 1171.379019 387.7 
L 1171.379019 36.30625 
" style="fill:none;stroke:#ffffff;stroke-linecap:round;"/>
     </g>
     <g id="text_45">
      <!-- 1.25 -->
      <g style="fill:#262626;" transform="translate(1160.675504 405.073594)scale(0.11 -0.11)">
       <use xlink:href="#ArialMT-31"/>
       <use x="55.615234" xlink:href="#ArialMT-2e"/>
       <use x="83.398438" xlink:href="#ArialMT-32"/>
       <use x="139.013672" xlink:href="#ArialMT-35"/>
      </g>
     </g>
    </g>
    <g id="xtick_24">
     <g id="line2d_49">
      <path clip-path="url(#p1ef9185a23)" d="M 1221.257548 387.7 
L 1221.257548 36.30625 
" style="fill:none;stroke:#ffffff;stroke-linecap:round;"/>
     </g>
     <g id="text_46">
      <!-- 1.50 -->
      <g style="fill:#262626;" transform="translate(1210.554033 405.073594)scale(0.11 -0.11)">
       <use xlink:href="#ArialMT-31"/>
       <use x="55.615234" xlink:href="#ArialMT-2e"/>
       <use x="83.398438" xlink:href="#ArialMT-35"/>
       <use x="139.013672" xlink:href="#ArialMT-30"/>
      </g>
     </g>
    </g>
    <g id="xtick_25">
     <g id="line2d_50">
      <path clip-path="url(#p1ef9185a23)" d="M 1271.136077 387.7 
L 1271.136077 36.30625 
" style="fill:none;stroke:#ffffff;stroke-linecap:round;"/>
     </g>
     <g id="text_47">
      <!-- 1.75 -->
      <g style="fill:#262626;" transform="translate(1260.432562 405.073594)scale(0.11 -0.11)">
       <use xlink:href="#ArialMT-31"/>
       <use x="55.615234" xlink:href="#ArialMT-2e"/>
       <use x="83.398438" xlink:href="#ArialMT-37"/>
       <use x="139.013672" xlink:href="#ArialMT-35"/>
      </g>
     </g>
    </g>
    <g id="text_48">
     <!-- Error -->
     <g style="fill:#262626;" transform="translate(1082.562604 419.849219)scale(0.12 -0.12)">
      <use xlink:href="#ArialMT-45"/>
      <use x="66.699219" xlink:href="#ArialMT-72"/>
      <use x="100" xlink:href="#ArialMT-72"/>
      <use x="133.300781" xlink:href="#ArialMT-6f"/>
      <use x="188.916016" xlink:href="#ArialMT-72"/>
     </g>
    </g>
   </g>
   <g id="matplotlib.axis_6">
    <g id="ytick_13">
     <g id="line2d_51">
      <path clip-path="url(#p1ef9185a23)" d="M 906.589583 387.7 
L 1285.2 387.7 
" style="fill:none;stroke:#ffffff;stroke-linecap:round;"/>
     </g>
     <g id="text_49">
      <!-- 0.0 -->
      <g style="fill:#262626;" transform="translate(881.799583 391.636797)scale(0.11 -0.11)">
       <use xlink:href="#ArialMT-30"/>
       <use x="55.615234" xlink:href="#ArialMT-2e"/>
       <use x="83.398438" xlink:href="#ArialMT-30"/>
      </g>
     </g>
    </g>
    <g id="ytick_14">
     <g id="line2d_52">
      <path clip-path="url(#p1ef9185a23)" d="M 906.589583 315.675194 
L 1285.2 315.675194 
" style="fill:none;stroke:#ffffff;stroke-linecap:round;"/>
     </g>
     <g id="text_50">
      <!-- 0.1 -->
      <g style="fill:#262626;" transform="translate(881.799583 319.611991)scale(0.11 -0.11)">
       <use xlink:href="#ArialMT-30"/>
       <use x="55.615234" xlink:href="#ArialMT-2e"/>
       <use x="83.398438" xlink:href="#ArialMT-31"/>
      </g>
     </g>
    </g>
    <g id="ytick_15">
     <g id="line2d_53">
      <path clip-path="url(#p1ef9185a23)" d="M 906.589583 243.650388 
L 1285.2 243.650388 
" style="fill:none;stroke:#ffffff;stroke-linecap:round;"/>
     </g>
     <g id="text_51">
      <!-- 0.2 -->
      <g style="fill:#262626;" transform="translate(881.799583 247.587185)scale(0.11 -0.11)">
       <use xlink:href="#ArialMT-30"/>
       <use x="55.615234" xlink:href="#ArialMT-2e"/>
       <use x="83.398438" xlink:href="#ArialMT-32"/>
      </g>
     </g>
    </g>
    <g id="ytick_16">
     <g id="line2d_54">
      <path clip-path="url(#p1ef9185a23)" d="M 906.589583 171.625582 
L 1285.2 171.625582 
" style="fill:none;stroke:#ffffff;stroke-linecap:round;"/>
     </g>
     <g id="text_52">
      <!-- 0.3 -->
      <g style="fill:#262626;" transform="translate(881.799583 175.562379)scale(0.11 -0.11)">
       <use xlink:href="#ArialMT-30"/>
       <use x="55.615234" xlink:href="#ArialMT-2e"/>
       <use x="83.398438" xlink:href="#ArialMT-33"/>
      </g>
     </g>
    </g>
    <g id="ytick_17">
     <g id="line2d_55">
      <path clip-path="url(#p1ef9185a23)" d="M 906.589583 99.600776 
L 1285.2 99.600776 
" style="fill:none;stroke:#ffffff;stroke-linecap:round;"/>
     </g>
     <g id="text_53">
      <!-- 0.4 -->
      <g style="fill:#262626;" transform="translate(881.799583 103.537573)scale(0.11 -0.11)">
       <use xlink:href="#ArialMT-30"/>
       <use x="55.615234" xlink:href="#ArialMT-2e"/>
       <use x="83.398438" xlink:href="#ArialMT-34"/>
      </g>
     </g>
    </g>
    <g id="text_54">
     <!-- Probability -->
     <g style="fill:#262626;" transform="translate(875.273958 240.015625)rotate(-90)scale(0.12 -0.12)">
      <use xlink:href="#ArialMT-50"/>
      <use x="66.699219" xlink:href="#ArialMT-72"/>
      <use x="100" xlink:href="#ArialMT-6f"/>
      <use x="155.615234" xlink:href="#ArialMT-62"/>
      <use x="211.230469" xlink:href="#ArialMT-61"/>
      <use x="266.845703" xlink:href="#ArialMT-62"/>
      <use x="322.460938" xlink:href="#ArialMT-69"/>
      <use x="344.677734" xlink:href="#ArialMT-6c"/>
      <use x="366.894531" xlink:href="#ArialMT-69"/>
      <use x="389.111328" xlink:href="#ArialMT-74"/>
      <use x="416.894531" xlink:href="#ArialMT-79"/>
     </g>
    </g>
   </g>
   <g id="patch_14">
    <path clip-path="url(#p1ef9185a23)" d="M 923.799148 387.7 
L 943.750559 387.7 
L 943.750559 133.066848 
L 923.799148 133.066848 
z
" style="fill:#0000ff;fill-opacity:0.75;stroke:#ffffff;stroke-linejoin:miter;"/>
   </g>
   <g id="patch_15">
    <path clip-path="url(#p1ef9185a23)" d="M 943.750559 387.7 
L 963.701971 387.7 
L 963.701971 249.470575 
L 943.750559 249.470575 
z
" style="fill:#0000ff;fill-opacity:0.75;stroke:#ffffff;stroke-linejoin:miter;"/>
   </g>
   <g id="patch_16">
    <path clip-path="url(#p1ef9185a23)" d="M 963.701971 387.7 
L 983.653383 387.7 
L 983.653383 344.048602 
L 963.701971 344.048602 
z
" style="fill:#0000ff;fill-opacity:0.75;stroke:#ffffff;stroke-linejoin:miter;"/>
   </g>
   <g id="patch_17">
    <path clip-path="url(#p1ef9185a23)" d="M 983.653383 387.7 
L 1003.604794 387.7 
L 1003.604794 314.947671 
L 983.653383 314.947671 
z
" style="fill:#0000ff;fill-opacity:0.75;stroke:#ffffff;stroke-linejoin:miter;"/>
   </g>
   <g id="patch_18">
    <path clip-path="url(#p1ef9185a23)" d="M 1003.604794 387.7 
L 1023.556206 387.7 
L 1023.556206 329.498137 
L 1003.604794 329.498137 
z
" style="fill:#0000ff;fill-opacity:0.75;stroke:#ffffff;stroke-linejoin:miter;"/>
   </g>
   <g id="patch_19">
    <path clip-path="url(#p1ef9185a23)" d="M 1023.556206 387.7 
L 1043.507617 387.7 
L 1043.507617 351.323835 
L 1023.556206 351.323835 
z
" style="fill:#0000ff;fill-opacity:0.75;stroke:#ffffff;stroke-linejoin:miter;"/>
   </g>
   <g id="patch_20">
    <path clip-path="url(#p1ef9185a23)" d="M 1043.507617 387.7 
L 1063.459029 387.7 
L 1063.459029 344.048602 
L 1043.507617 344.048602 
z
" style="fill:#0000ff;fill-opacity:0.75;stroke:#ffffff;stroke-linejoin:miter;"/>
   </g>
   <g id="patch_21">
    <path clip-path="url(#p1ef9185a23)" d="M 1063.459029 387.7 
L 1083.410441 387.7 
L 1083.410441 358.599068 
L 1063.459029 358.599068 
z
" style="fill:#0000ff;fill-opacity:0.75;stroke:#ffffff;stroke-linejoin:miter;"/>
   </g>
   <g id="patch_22">
    <path clip-path="url(#p1ef9185a23)" d="M 1083.410441 387.7 
L 1103.361852 387.7 
L 1103.361852 358.599068 
L 1083.410441 358.599068 
z
" style="fill:#0000ff;fill-opacity:0.75;stroke:#ffffff;stroke-linejoin:miter;"/>
   </g>
   <g id="patch_23">
    <path clip-path="url(#p1ef9185a23)" d="M 1103.361852 387.7 
L 1123.313264 387.7 
L 1123.313264 373.149534 
L 1103.361852 373.149534 
z
" style="fill:#0000ff;fill-opacity:0.75;stroke:#ffffff;stroke-linejoin:miter;"/>
   </g>
   <g id="patch_24">
    <path clip-path="url(#p1ef9185a23)" d="M 928.816438 387.7 
L 948.76785 387.7 
L 948.76785 322.222904 
L 928.816438 322.222904 
z
" style="fill:#008000;fill-opacity:0.75;stroke:#ffffff;stroke-linejoin:miter;"/>
   </g>
   <g id="patch_25">
    <path clip-path="url(#p1ef9185a23)" d="M 948.76785 387.7 
L 968.719261 387.7 
L 968.719261 314.947671 
L 948.76785 314.947671 
z
" style="fill:#008000;fill-opacity:0.75;stroke:#ffffff;stroke-linejoin:miter;"/>
   </g>
   <g id="patch_26">
    <path clip-path="url(#p1ef9185a23)" d="M 968.719261 387.7 
L 988.670673 387.7 
L 988.670673 307.672438 
L 968.719261 307.672438 
z
" style="fill:#008000;fill-opacity:0.75;stroke:#ffffff;stroke-linejoin:miter;"/>
   </g>
   <g id="patch_27">
    <path clip-path="url(#p1ef9185a23)" d="M 988.670673 387.7 
L 1008.622084 387.7 
L 1008.622084 358.599068 
L 988.670673 358.599068 
z
" style="fill:#008000;fill-opacity:0.75;stroke:#ffffff;stroke-linejoin:miter;"/>
   </g>
   <g id="patch_28">
    <path clip-path="url(#p1ef9185a23)" d="M 1008.622084 387.7 
L 1028.573496 387.7 
L 1028.573496 373.149534 
L 1008.622084 373.149534 
z
" style="fill:#008000;fill-opacity:0.75;stroke:#ffffff;stroke-linejoin:miter;"/>
   </g>
   <g id="patch_29">
    <path clip-path="url(#p1ef9185a23)" d="M 1028.573496 387.7 
L 1048.524908 387.7 
L 1048.524908 351.323835 
L 1028.573496 351.323835 
z
" style="fill:#008000;fill-opacity:0.75;stroke:#ffffff;stroke-linejoin:miter;"/>
   </g>
   <g id="patch_30">
    <path clip-path="url(#p1ef9185a23)" d="M 1048.524908 387.7 
L 1068.476319 387.7 
L 1068.476319 373.149534 
L 1048.524908 373.149534 
z
" style="fill:#008000;fill-opacity:0.75;stroke:#ffffff;stroke-linejoin:miter;"/>
   </g>
   <g id="patch_31">
    <path clip-path="url(#p1ef9185a23)" d="M 1068.476319 387.7 
L 1088.427731 387.7 
L 1088.427731 373.149534 
L 1068.476319 373.149534 
z
" style="fill:#008000;fill-opacity:0.75;stroke:#ffffff;stroke-linejoin:miter;"/>
   </g>
   <g id="patch_32">
    <path clip-path="url(#p1ef9185a23)" d="M 1088.427731 387.7 
L 1108.379143 387.7 
L 1108.379143 336.77337 
L 1088.427731 336.77337 
z
" style="fill:#008000;fill-opacity:0.75;stroke:#ffffff;stroke-linejoin:miter;"/>
   </g>
   <g id="patch_33">
    <path clip-path="url(#p1ef9185a23)" d="M 1108.379143 387.7 
L 1128.330554 387.7 
L 1128.330554 53.039286 
L 1108.379143 53.039286 
z
" style="fill:#008000;fill-opacity:0.75;stroke:#ffffff;stroke-linejoin:miter;"/>
   </g>
   <g id="patch_34">
    <path clip-path="url(#p1ef9185a23)" d="M 1128.330554 387.7 
L 1148.281966 387.7 
L 1148.281966 387.7 
L 1128.330554 387.7 
z
" style="fill:#008000;fill-opacity:0.75;stroke:#ffffff;stroke-linejoin:miter;"/>
   </g>
   <g id="patch_35">
    <path clip-path="url(#p1ef9185a23)" d="M 1148.281966 387.7 
L 1168.233377 387.7 
L 1168.233377 387.7 
L 1148.281966 387.7 
z
" style="fill:#008000;fill-opacity:0.75;stroke:#ffffff;stroke-linejoin:miter;"/>
   </g>
   <g id="patch_36">
    <path clip-path="url(#p1ef9185a23)" d="M 1168.233377 387.7 
L 1188.184789 387.7 
L 1188.184789 387.7 
L 1168.233377 387.7 
z
" style="fill:#008000;fill-opacity:0.75;stroke:#ffffff;stroke-linejoin:miter;"/>
   </g>
   <g id="patch_37">
    <path clip-path="url(#p1ef9185a23)" d="M 1188.184789 387.7 
L 1208.136201 387.7 
L 1208.136201 387.7 
L 1188.184789 387.7 
z
" style="fill:#008000;fill-opacity:0.75;stroke:#ffffff;stroke-linejoin:miter;"/>
   </g>
   <g id="patch_38">
    <path clip-path="url(#p1ef9185a23)" d="M 1208.136201 387.7 
L 1228.087612 387.7 
L 1228.087612 387.7 
L 1208.136201 387.7 
z
" style="fill:#008000;fill-opacity:0.75;stroke:#ffffff;stroke-linejoin:miter;"/>
   </g>
   <g id="patch_39">
    <path clip-path="url(#p1ef9185a23)" d="M 1228.087612 387.7 
L 1248.039024 387.7 
L 1248.039024 387.7 
L 1228.087612 387.7 
z
" style="fill:#008000;fill-opacity:0.75;stroke:#ffffff;stroke-linejoin:miter;"/>
   </g>
   <g id="patch_40">
    <path clip-path="url(#p1ef9185a23)" d="M 1248.039024 387.7 
L 1267.990436 387.7 
L 1267.990436 380.424767 
L 1248.039024 380.424767 
z
" style="fill:#008000;fill-opacity:0.75;stroke:#ffffff;stroke-linejoin:miter;"/>
   </g>
   <g id="patch_41">
    <path d="M 906.589583 387.7 
L 906.589583 36.30625 
" style="fill:none;stroke:#ffffff;stroke-linecap:square;stroke-linejoin:miter;stroke-width:1.25;"/>
   </g>
   <g id="patch_42">
    <path d="M 1285.2 387.7 
L 1285.2 36.30625 
" style="fill:none;stroke:#ffffff;stroke-linecap:square;stroke-linejoin:miter;stroke-width:1.25;"/>
   </g>
   <g id="patch_43">
    <path d="M 906.589583 387.7 
L 1285.2 387.7 
" style="fill:none;stroke:#ffffff;stroke-linecap:square;stroke-linejoin:miter;stroke-width:1.25;"/>
   </g>
   <g id="patch_44">
    <path d="M 906.589583 36.30625 
L 1285.2 36.30625 
" style="fill:none;stroke:#ffffff;stroke-linecap:square;stroke-linejoin:miter;stroke-width:1.25;"/>
   </g>
   <g id="text_55">
    <!-- Error Plot $\frac{||y_{pred}-y_{true}||}{||y_{true}||}$ -->
    <g style="fill:#262626;" transform="translate(1029.884792 30.30625)scale(0.14 -0.14)">
     <defs>
      <path d="M 1344 4891 
L 1344 -1509 
L 813 -1509 
L 813 4891 
L 1344 4891 
z
" id="DejaVuSans-7c" transform="scale(0.015625)"/>
      <path d="M 1588 -325 
Q 1188 -997 936 -1164 
Q 684 -1331 294 -1331 
L -159 -1331 
L -63 -850 
L 269 -850 
Q 509 -850 678 -719 
Q 847 -588 1056 -206 
L 1234 128 
L 459 3500 
L 1069 3500 
L 1650 819 
L 3256 3500 
L 3859 3500 
L 1588 -325 
z
" id="DejaVuSans-Oblique-79" transform="scale(0.015625)"/>
      <path d="M 3175 2156 
Q 3175 2616 2975 2859 
Q 2775 3103 2400 3103 
Q 2144 3103 1911 2972 
Q 1678 2841 1497 2591 
Q 1319 2344 1212 1994 
Q 1106 1644 1106 1300 
Q 1106 863 1306 627 
Q 1506 391 1875 391 
Q 2147 391 2380 519 
Q 2613 647 2778 891 
Q 2956 1147 3065 1494 
Q 3175 1841 3175 2156 
z
M 1394 2969 
Q 1625 3272 1939 3428 
Q 2253 3584 2638 3584 
Q 3175 3584 3472 3232 
Q 3769 2881 3769 2247 
Q 3769 1728 3584 1258 
Q 3400 788 3053 416 
Q 2822 169 2531 39 
Q 2241 -91 1919 -91 
Q 1547 -91 1294 64 
Q 1041 219 916 525 
L 556 -1331 
L -19 -1331 
L 922 3500 
L 1497 3500 
L 1394 2969 
z
" id="DejaVuSans-Oblique-70" transform="scale(0.015625)"/>
      <path d="M 2853 2969 
Q 2766 3016 2653 3041 
Q 2541 3066 2413 3066 
Q 1953 3066 1609 2717 
Q 1266 2369 1153 1784 
L 800 0 
L 225 0 
L 909 3500 
L 1484 3500 
L 1375 2956 
Q 1603 3259 1920 3421 
Q 2238 3584 2597 3584 
Q 2691 3584 2781 3573 
Q 2872 3563 2963 3538 
L 2853 2969 
z
" id="DejaVuSans-Oblique-72" transform="scale(0.015625)"/>
      <path d="M 3078 2063 
Q 3088 2113 3092 2166 
Q 3097 2219 3097 2272 
Q 3097 2653 2873 2875 
Q 2650 3097 2266 3097 
Q 1838 3097 1509 2826 
Q 1181 2556 1013 2059 
L 3078 2063 
z
M 3578 1613 
L 903 1613 
Q 884 1494 878 1425 
Q 872 1356 872 1306 
Q 872 872 1139 634 
Q 1406 397 1894 397 
Q 2269 397 2603 481 
Q 2938 566 3225 728 
L 3116 159 
Q 2806 34 2476 -28 
Q 2147 -91 1806 -91 
Q 1078 -91 686 257 
Q 294 606 294 1247 
Q 294 1794 489 2264 
Q 684 2734 1063 3103 
Q 1306 3334 1642 3459 
Q 1978 3584 2356 3584 
Q 2950 3584 3301 3228 
Q 3653 2872 3653 2272 
Q 3653 2128 3634 1964 
Q 3616 1800 3578 1613 
z
" id="DejaVuSans-Oblique-65" transform="scale(0.015625)"/>
      <path d="M 2675 525 
Q 2444 222 2128 65 
Q 1813 -91 1428 -91 
Q 903 -91 598 267 
Q 294 625 294 1247 
Q 294 1766 478 2236 
Q 663 2706 1013 3078 
Q 1244 3325 1534 3454 
Q 1825 3584 2144 3584 
Q 2481 3584 2739 3421 
Q 2997 3259 3138 2956 
L 3513 4863 
L 4091 4863 
L 3144 0 
L 2566 0 
L 2675 525 
z
M 891 1350 
Q 891 897 1095 644 
Q 1300 391 1663 391 
Q 1931 391 2161 520 
Q 2391 650 2566 903 
Q 2750 1166 2856 1509 
Q 2963 1853 2963 2188 
Q 2963 2622 2758 2865 
Q 2553 3109 2194 3109 
Q 1922 3109 1687 2981 
Q 1453 2853 1288 2613 
Q 1106 2353 998 2009 
Q 891 1666 891 1350 
z
" id="DejaVuSans-Oblique-64" transform="scale(0.015625)"/>
      <path d="M 678 2272 
L 4684 2272 
L 4684 1741 
L 678 1741 
L 678 2272 
z
" id="DejaVuSans-2212" transform="scale(0.015625)"/>
      <path d="M 2706 3500 
L 2619 3053 
L 1472 3053 
L 1100 1153 
Q 1081 1047 1072 975 
Q 1063 903 1063 863 
Q 1063 663 1183 572 
Q 1303 481 1569 481 
L 2150 481 
L 2053 0 
L 1503 0 
Q 991 0 739 200 
Q 488 400 488 806 
Q 488 878 497 964 
Q 506 1050 525 1153 
L 897 3053 
L 409 3053 
L 500 3500 
L 978 3500 
L 1172 4494 
L 1747 4494 
L 1556 3500 
L 2706 3500 
z
" id="DejaVuSans-Oblique-74" transform="scale(0.015625)"/>
      <path d="M 428 1388 
L 838 3500 
L 1416 3500 
L 1006 1409 
Q 975 1256 961 1147 
Q 947 1038 947 966 
Q 947 700 1109 554 
Q 1272 409 1569 409 
Q 2031 409 2368 721 
Q 2706 1034 2809 1563 
L 3194 3500 
L 3769 3500 
L 3091 0 
L 2516 0 
L 2631 550 
Q 2388 244 2052 76 
Q 1716 -91 1338 -91 
Q 878 -91 622 161 
Q 366 413 366 863 
Q 366 956 381 1097 
Q 397 1238 428 1388 
z
" id="DejaVuSans-Oblique-75" transform="scale(0.015625)"/>
     </defs>
     <use transform="translate(0 0.032969)" xlink:href="#ArialMT-45"/>
     <use transform="translate(66.699219 0.032969)" xlink:href="#ArialMT-72"/>
     <use transform="translate(100 0.032969)" xlink:href="#ArialMT-72"/>
     <use transform="translate(133.300781 0.032969)" xlink:href="#ArialMT-6f"/>
     <use transform="translate(188.916016 0.032969)" xlink:href="#ArialMT-72"/>
     <use transform="translate(222.216797 0.032969)" xlink:href="#ArialMT-20"/>
     <use transform="translate(250 0.032969)" xlink:href="#ArialMT-50"/>
     <use transform="translate(316.699219 0.032969)" xlink:href="#ArialMT-6c"/>
     <use transform="translate(338.916016 0.032969)" xlink:href="#ArialMT-6f"/>
     <use transform="translate(394.53125 0.032969)" xlink:href="#ArialMT-74"/>
     <use transform="translate(422.314453 0.032969)" xlink:href="#ArialMT-20"/>
     <use transform="translate(450.097656 65.504688)scale(0.7)" xlink:href="#DejaVuSans-7c"/>
     <use transform="translate(473.681641 65.504688)scale(0.7)" xlink:href="#DejaVuSans-7c"/>
     <use transform="translate(497.265625 65.504688)scale(0.7)" xlink:href="#DejaVuSans-Oblique-79"/>
     <use transform="translate(538.691406 54.020313)scale(0.49)" xlink:href="#DejaVuSans-Oblique-70"/>
     <use transform="translate(569.794922 54.020313)scale(0.49)" xlink:href="#DejaVuSans-Oblique-72"/>
     <use transform="translate(589.94043 54.020313)scale(0.49)" xlink:href="#DejaVuSans-Oblique-65"/>
     <use transform="translate(620.086914 54.020313)scale(0.49)" xlink:href="#DejaVuSans-Oblique-64"/>
     <use transform="translate(666.742188 65.504688)scale(0.7)" xlink:href="#DejaVuSans-2212"/>
     <use transform="translate(739.032227 65.504688)scale(0.7)" xlink:href="#DejaVuSans-Oblique-79"/>
     <use transform="translate(780.458008 54.020313)scale(0.49)" xlink:href="#DejaVuSans-Oblique-74"/>
     <use transform="translate(799.67041 54.020313)scale(0.49)" xlink:href="#DejaVuSans-Oblique-72"/>
     <use transform="translate(819.815918 54.020313)scale(0.49)" xlink:href="#DejaVuSans-Oblique-75"/>
     <use transform="translate(850.871582 54.020313)scale(0.49)" xlink:href="#DejaVuSans-Oblique-65"/>
     <use transform="translate(882.932129 65.504688)scale(0.7)" xlink:href="#DejaVuSans-7c"/>
     <use transform="translate(906.516113 65.504688)scale(0.7)" xlink:href="#DejaVuSans-7c"/>
     <use transform="translate(571.097656 -40.915469)scale(0.7)" xlink:href="#DejaVuSans-7c"/>
     <use transform="translate(594.681641 -40.915469)scale(0.7)" xlink:href="#DejaVuSans-7c"/>
     <use transform="translate(618.265625 -40.915469)scale(0.7)" xlink:href="#DejaVuSans-Oblique-79"/>
     <use transform="translate(659.691406 -52.399844)scale(0.49)" xlink:href="#DejaVuSans-Oblique-74"/>
     <use transform="translate(678.903809 -52.399844)scale(0.49)" xlink:href="#DejaVuSans-Oblique-72"/>
     <use transform="translate(699.049316 -52.399844)scale(0.49)" xlink:href="#DejaVuSans-Oblique-75"/>
     <use transform="translate(730.10498 -52.399844)scale(0.49)" xlink:href="#DejaVuSans-Oblique-65"/>
     <use transform="translate(762.165527 -40.915469)scale(0.7)" xlink:href="#DejaVuSans-7c"/>
     <use transform="translate(785.749512 -40.915469)scale(0.7)" xlink:href="#DejaVuSans-7c"/>
     <path d="M 450.097656 18.829844 
L 450.097656 25.079844 
L 930.100098 25.079844 
L 930.100098 18.829844 
L 450.097656 18.829844 
z
"/>
    </g>
   </g>
   <g id="legend_2">
    <g id="patch_45">
     <path d="M 1198.898125 76.494063 
L 1277.5 76.494063 
Q 1279.7 76.494063 1279.7 74.294063 
L 1279.7 44.00625 
Q 1279.7 41.80625 1277.5 41.80625 
L 1198.898125 41.80625 
Q 1196.698125 41.80625 1196.698125 44.00625 
L 1196.698125 74.294063 
Q 1196.698125 76.494063 1198.898125 76.494063 
z
" style="fill:#eaeaf2;opacity:0.8;stroke:#cccccc;stroke-linejoin:miter;"/>
    </g>
    <g id="patch_46">
     <path d="M 1201.098125 54.213906 
L 1223.098125 54.213906 
L 1223.098125 46.513906 
L 1201.098125 46.513906 
z
" style="fill:#0000ff;fill-opacity:0.75;stroke:#ffffff;stroke-linejoin:miter;"/>
    </g>
    <g id="text_56">
     <!-- Complex -->
     <g style="fill:#262626;" transform="translate(1231.898125 54.213906)scale(0.11 -0.11)">
      <use xlink:href="#ArialMT-43"/>
      <use x="72.216797" xlink:href="#ArialMT-6f"/>
      <use x="127.832031" xlink:href="#ArialMT-6d"/>
      <use x="211.132812" xlink:href="#ArialMT-70"/>
      <use x="266.748047" xlink:href="#ArialMT-6c"/>
      <use x="288.964844" xlink:href="#ArialMT-65"/>
      <use x="344.580078" xlink:href="#ArialMT-78"/>
     </g>
    </g>
    <g id="patch_47">
     <path d="M 1201.098125 69.907813 
L 1223.098125 69.907813 
L 1223.098125 62.207813 
L 1201.098125 62.207813 
z
" style="fill:#008000;fill-opacity:0.75;stroke:#ffffff;stroke-linejoin:miter;"/>
    </g>
    <g id="text_57">
     <!-- Simple -->
     <g style="fill:#262626;" transform="translate(1231.898125 69.907813)scale(0.11 -0.11)">
      <use xlink:href="#ArialMT-53"/>
      <use x="66.699219" xlink:href="#ArialMT-69"/>
      <use x="88.916016" xlink:href="#ArialMT-6d"/>
      <use x="172.216797" xlink:href="#ArialMT-70"/>
      <use x="227.832031" xlink:href="#ArialMT-6c"/>
      <use x="250.048828" xlink:href="#ArialMT-65"/>
     </g>
    </g>
   </g>
  </g>
 </g>
 <defs>
  <clipPath id="p07d4867f40">
   <rect height="351.39375" width="378.610417" x="49.675" y="36.30625"/>
  </clipPath>
  <clipPath id="p800857026f">
   <rect height="351.39375" width="378.610417" x="478.132292" y="36.30625"/>
  </clipPath>
  <clipPath id="p1ef9185a23">
   <rect height="351.39375" width="378.610417" x="906.589583" y="36.30625"/>
  </clipPath>
 </defs>
</svg>
