<?xml version="1.0" encoding="utf-8" standalone="no"?>
<!DOCTYPE svg PUBLIC "-//W3C//DTD SVG 1.1//EN"
  "http://www.w3.org/Graphics/SVG/1.1/DTD/svg11.dtd">
<svg height="432pt" version="1.1" viewBox="0 0 1296 432" width="1296pt" xmlns="http://www.w3.org/2000/svg" xmlns:xlink="http://www.w3.org/1999/xlink">
 <metadata>
  <rdf:RDF xmlns:cc="http://creativecommons.org/ns#" xmlns:dc="http://purl.org/dc/elements/1.1/" xmlns:rdf="http://www.w3.org/1999/02/22-rdf-syntax-ns#">
   <cc:Work>
    <dc:type rdf:resource="http://purl.org/dc/dcmitype/StillImage"/>
    <dc:date>2021-09-30T15:42:18.928668</dc:date>
    <dc:format>image/svg+xml</dc:format>
    <dc:creator>
     <cc:Agent>
      <dc:title>Matplotlib v3.4.2, https://matplotlib.org/</dc:title>
     </cc:Agent>
    </dc:creator>
   </cc:Work>
  </rdf:RDF>
 </metadata>
 <defs>
  <style type="text/css">*{stroke-linecap:butt;stroke-linejoin:round;}</style>
 </defs>
 <g id="figure_1">
  <g id="patch_1">
   <path d="M 0 432 
L 1296 432 
L 1296 0 
L 0 0 
z
" style="fill:none;"/>
  </g>
  <g id="axes_1">
   <g id="patch_2">
    <path d="M 49.675 387.7 
L 422.513422 387.7 
L 422.513422 36.30625 
L 49.675 36.30625 
z
" style="fill:#eaeaf2;"/>
   </g>
   <g id="matplotlib.axis_1">
    <g id="xtick_1">
     <g id="line2d_1">
      <path clip-path="url(#pb0236c3ff6)" d="M 66.622201 387.7 
L 66.622201 36.30625 
" style="fill:none;stroke:#ffffff;stroke-linecap:round;"/>
     </g>
     <g id="text_1">
      <!-- −2.0 -->
      <g style="fill:#262626;" transform="translate(55.764857 405.073594)scale(0.11 -0.11)">
       <defs>
        <path d="M 3381 1997 
L 356 1997 
L 356 2522 
L 3381 2522 
L 3381 1997 
z
" id="ArialMT-2212" transform="scale(0.015625)"/>
        <path d="M 3222 541 
L 3222 0 
L 194 0 
Q 188 203 259 391 
Q 375 700 629 1000 
Q 884 1300 1366 1694 
Q 2113 2306 2375 2664 
Q 2638 3022 2638 3341 
Q 2638 3675 2398 3904 
Q 2159 4134 1775 4134 
Q 1369 4134 1125 3890 
Q 881 3647 878 3216 
L 300 3275 
Q 359 3922 746 4261 
Q 1134 4600 1788 4600 
Q 2447 4600 2831 4234 
Q 3216 3869 3216 3328 
Q 3216 3053 3103 2787 
Q 2991 2522 2730 2228 
Q 2469 1934 1863 1422 
Q 1356 997 1212 845 
Q 1069 694 975 541 
L 3222 541 
z
" id="ArialMT-32" transform="scale(0.015625)"/>
        <path d="M 581 0 
L 581 641 
L 1222 641 
L 1222 0 
L 581 0 
z
" id="ArialMT-2e" transform="scale(0.015625)"/>
        <path d="M 266 2259 
Q 266 3072 433 3567 
Q 600 4063 929 4331 
Q 1259 4600 1759 4600 
Q 2128 4600 2406 4451 
Q 2684 4303 2865 4023 
Q 3047 3744 3150 3342 
Q 3253 2941 3253 2259 
Q 3253 1453 3087 958 
Q 2922 463 2592 192 
Q 2263 -78 1759 -78 
Q 1097 -78 719 397 
Q 266 969 266 2259 
z
M 844 2259 
Q 844 1131 1108 757 
Q 1372 384 1759 384 
Q 2147 384 2411 759 
Q 2675 1134 2675 2259 
Q 2675 3391 2411 3762 
Q 2147 4134 1753 4134 
Q 1366 4134 1134 3806 
Q 844 3388 844 2259 
z
" id="ArialMT-30" transform="scale(0.015625)"/>
       </defs>
       <use xlink:href="#ArialMT-2212"/>
       <use x="58.398438" xlink:href="#ArialMT-32"/>
       <use x="114.013672" xlink:href="#ArialMT-2e"/>
       <use x="141.796875" xlink:href="#ArialMT-30"/>
      </g>
     </g>
    </g>
    <g id="xtick_2">
     <g id="line2d_2">
      <path clip-path="url(#pb0236c3ff6)" d="M 108.990204 387.7 
L 108.990204 36.30625 
" style="fill:none;stroke:#ffffff;stroke-linecap:round;"/>
     </g>
     <g id="text_2">
      <!-- −1.5 -->
      <g style="fill:#262626;" transform="translate(98.13286 405.073594)scale(0.11 -0.11)">
       <defs>
        <path d="M 2384 0 
L 1822 0 
L 1822 3584 
Q 1619 3391 1289 3197 
Q 959 3003 697 2906 
L 697 3450 
Q 1169 3672 1522 3987 
Q 1875 4303 2022 4600 
L 2384 4600 
L 2384 0 
z
" id="ArialMT-31" transform="scale(0.015625)"/>
        <path d="M 266 1200 
L 856 1250 
Q 922 819 1161 601 
Q 1400 384 1738 384 
Q 2144 384 2425 690 
Q 2706 997 2706 1503 
Q 2706 1984 2436 2262 
Q 2166 2541 1728 2541 
Q 1456 2541 1237 2417 
Q 1019 2294 894 2097 
L 366 2166 
L 809 4519 
L 3088 4519 
L 3088 3981 
L 1259 3981 
L 1013 2750 
Q 1425 3038 1878 3038 
Q 2478 3038 2890 2622 
Q 3303 2206 3303 1553 
Q 3303 931 2941 478 
Q 2500 -78 1738 -78 
Q 1113 -78 717 272 
Q 322 622 266 1200 
z
" id="ArialMT-35" transform="scale(0.015625)"/>
       </defs>
       <use xlink:href="#ArialMT-2212"/>
       <use x="58.398438" xlink:href="#ArialMT-31"/>
       <use x="114.013672" xlink:href="#ArialMT-2e"/>
       <use x="141.796875" xlink:href="#ArialMT-35"/>
      </g>
     </g>
    </g>
    <g id="xtick_3">
     <g id="line2d_3">
      <path clip-path="url(#pb0236c3ff6)" d="M 151.358206 387.7 
L 151.358206 36.30625 
" style="fill:none;stroke:#ffffff;stroke-linecap:round;"/>
     </g>
     <g id="text_3">
      <!-- −1.0 -->
      <g style="fill:#262626;" transform="translate(140.500862 405.073594)scale(0.11 -0.11)">
       <use xlink:href="#ArialMT-2212"/>
       <use x="58.398438" xlink:href="#ArialMT-31"/>
       <use x="114.013672" xlink:href="#ArialMT-2e"/>
       <use x="141.796875" xlink:href="#ArialMT-30"/>
      </g>
     </g>
    </g>
    <g id="xtick_4">
     <g id="line2d_4">
      <path clip-path="url(#pb0236c3ff6)" d="M 193.726209 387.7 
L 193.726209 36.30625 
" style="fill:none;stroke:#ffffff;stroke-linecap:round;"/>
     </g>
     <g id="text_4">
      <!-- −0.5 -->
      <g style="fill:#262626;" transform="translate(182.868865 405.073594)scale(0.11 -0.11)">
       <use xlink:href="#ArialMT-2212"/>
       <use x="58.398438" xlink:href="#ArialMT-30"/>
       <use x="114.013672" xlink:href="#ArialMT-2e"/>
       <use x="141.796875" xlink:href="#ArialMT-35"/>
      </g>
     </g>
    </g>
    <g id="xtick_5">
     <g id="line2d_5">
      <path clip-path="url(#pb0236c3ff6)" d="M 236.094211 387.7 
L 236.094211 36.30625 
" style="fill:none;stroke:#ffffff;stroke-linecap:round;"/>
     </g>
     <g id="text_5">
      <!-- 0.0 -->
      <g style="fill:#262626;" transform="translate(228.449211 405.073594)scale(0.11 -0.11)">
       <use xlink:href="#ArialMT-30"/>
       <use x="55.615234" xlink:href="#ArialMT-2e"/>
       <use x="83.398438" xlink:href="#ArialMT-30"/>
      </g>
     </g>
    </g>
    <g id="xtick_6">
     <g id="line2d_6">
      <path clip-path="url(#pb0236c3ff6)" d="M 278.462214 387.7 
L 278.462214 36.30625 
" style="fill:none;stroke:#ffffff;stroke-linecap:round;"/>
     </g>
     <g id="text_6">
      <!-- 0.5 -->
      <g style="fill:#262626;" transform="translate(270.817214 405.073594)scale(0.11 -0.11)">
       <use xlink:href="#ArialMT-30"/>
       <use x="55.615234" xlink:href="#ArialMT-2e"/>
       <use x="83.398438" xlink:href="#ArialMT-35"/>
      </g>
     </g>
    </g>
    <g id="xtick_7">
     <g id="line2d_7">
      <path clip-path="url(#pb0236c3ff6)" d="M 320.830216 387.7 
L 320.830216 36.30625 
" style="fill:none;stroke:#ffffff;stroke-linecap:round;"/>
     </g>
     <g id="text_7">
      <!-- 1.0 -->
      <g style="fill:#262626;" transform="translate(313.185216 405.073594)scale(0.11 -0.11)">
       <use xlink:href="#ArialMT-31"/>
       <use x="55.615234" xlink:href="#ArialMT-2e"/>
       <use x="83.398438" xlink:href="#ArialMT-30"/>
      </g>
     </g>
    </g>
    <g id="xtick_8">
     <g id="line2d_8">
      <path clip-path="url(#pb0236c3ff6)" d="M 363.198219 387.7 
L 363.198219 36.30625 
" style="fill:none;stroke:#ffffff;stroke-linecap:round;"/>
     </g>
     <g id="text_8">
      <!-- 1.5 -->
      <g style="fill:#262626;" transform="translate(355.553219 405.073594)scale(0.11 -0.11)">
       <use xlink:href="#ArialMT-31"/>
       <use x="55.615234" xlink:href="#ArialMT-2e"/>
       <use x="83.398438" xlink:href="#ArialMT-35"/>
      </g>
     </g>
    </g>
    <g id="xtick_9">
     <g id="line2d_9">
      <path clip-path="url(#pb0236c3ff6)" d="M 405.566221 387.7 
L 405.566221 36.30625 
" style="fill:none;stroke:#ffffff;stroke-linecap:round;"/>
     </g>
     <g id="text_9">
      <!-- 2.0 -->
      <g style="fill:#262626;" transform="translate(397.921221 405.073594)scale(0.11 -0.11)">
       <use xlink:href="#ArialMT-32"/>
       <use x="55.615234" xlink:href="#ArialMT-2e"/>
       <use x="83.398438" xlink:href="#ArialMT-30"/>
      </g>
     </g>
    </g>
    <g id="text_10">
     <!-- Position -->
     <g style="fill:#262626;" transform="translate(214.749211 419.849219)scale(0.12 -0.12)">
      <defs>
       <path d="M 494 0 
L 494 4581 
L 2222 4581 
Q 2678 4581 2919 4538 
Q 3256 4481 3484 4323 
Q 3713 4166 3852 3881 
Q 3991 3597 3991 3256 
Q 3991 2672 3619 2267 
Q 3247 1863 2275 1863 
L 1100 1863 
L 1100 0 
L 494 0 
z
M 1100 2403 
L 2284 2403 
Q 2872 2403 3119 2622 
Q 3366 2841 3366 3238 
Q 3366 3525 3220 3729 
Q 3075 3934 2838 4000 
Q 2684 4041 2272 4041 
L 1100 4041 
L 1100 2403 
z
" id="ArialMT-50" transform="scale(0.015625)"/>
       <path d="M 213 1659 
Q 213 2581 725 3025 
Q 1153 3394 1769 3394 
Q 2453 3394 2887 2945 
Q 3322 2497 3322 1706 
Q 3322 1066 3130 698 
Q 2938 331 2570 128 
Q 2203 -75 1769 -75 
Q 1072 -75 642 372 
Q 213 819 213 1659 
z
M 791 1659 
Q 791 1022 1069 705 
Q 1347 388 1769 388 
Q 2188 388 2466 706 
Q 2744 1025 2744 1678 
Q 2744 2294 2464 2611 
Q 2184 2928 1769 2928 
Q 1347 2928 1069 2612 
Q 791 2297 791 1659 
z
" id="ArialMT-6f" transform="scale(0.015625)"/>
       <path d="M 197 991 
L 753 1078 
Q 800 744 1014 566 
Q 1228 388 1613 388 
Q 2000 388 2187 545 
Q 2375 703 2375 916 
Q 2375 1106 2209 1216 
Q 2094 1291 1634 1406 
Q 1016 1563 777 1677 
Q 538 1791 414 1992 
Q 291 2194 291 2438 
Q 291 2659 392 2848 
Q 494 3038 669 3163 
Q 800 3259 1026 3326 
Q 1253 3394 1513 3394 
Q 1903 3394 2198 3281 
Q 2494 3169 2634 2976 
Q 2775 2784 2828 2463 
L 2278 2388 
Q 2241 2644 2061 2787 
Q 1881 2931 1553 2931 
Q 1166 2931 1000 2803 
Q 834 2675 834 2503 
Q 834 2394 903 2306 
Q 972 2216 1119 2156 
Q 1203 2125 1616 2013 
Q 2213 1853 2448 1751 
Q 2684 1650 2818 1456 
Q 2953 1263 2953 975 
Q 2953 694 2789 445 
Q 2625 197 2315 61 
Q 2006 -75 1616 -75 
Q 969 -75 630 194 
Q 291 463 197 991 
z
" id="ArialMT-73" transform="scale(0.015625)"/>
       <path d="M 425 3934 
L 425 4581 
L 988 4581 
L 988 3934 
L 425 3934 
z
M 425 0 
L 425 3319 
L 988 3319 
L 988 0 
L 425 0 
z
" id="ArialMT-69" transform="scale(0.015625)"/>
       <path d="M 1650 503 
L 1731 6 
Q 1494 -44 1306 -44 
Q 1000 -44 831 53 
Q 663 150 594 308 
Q 525 466 525 972 
L 525 2881 
L 113 2881 
L 113 3319 
L 525 3319 
L 525 4141 
L 1084 4478 
L 1084 3319 
L 1650 3319 
L 1650 2881 
L 1084 2881 
L 1084 941 
Q 1084 700 1114 631 
Q 1144 563 1211 522 
Q 1278 481 1403 481 
Q 1497 481 1650 503 
z
" id="ArialMT-74" transform="scale(0.015625)"/>
       <path d="M 422 0 
L 422 3319 
L 928 3319 
L 928 2847 
Q 1294 3394 1984 3394 
Q 2284 3394 2536 3286 
Q 2788 3178 2913 3003 
Q 3038 2828 3088 2588 
Q 3119 2431 3119 2041 
L 3119 0 
L 2556 0 
L 2556 2019 
Q 2556 2363 2490 2533 
Q 2425 2703 2258 2804 
Q 2091 2906 1866 2906 
Q 1506 2906 1245 2678 
Q 984 2450 984 1813 
L 984 0 
L 422 0 
z
" id="ArialMT-6e" transform="scale(0.015625)"/>
      </defs>
      <use xlink:href="#ArialMT-50"/>
      <use x="66.699219" xlink:href="#ArialMT-6f"/>
      <use x="122.314453" xlink:href="#ArialMT-73"/>
      <use x="172.314453" xlink:href="#ArialMT-69"/>
      <use x="194.53125" xlink:href="#ArialMT-74"/>
      <use x="222.314453" xlink:href="#ArialMT-69"/>
      <use x="244.53125" xlink:href="#ArialMT-6f"/>
      <use x="300.146484" xlink:href="#ArialMT-6e"/>
     </g>
    </g>
   </g>
   <g id="matplotlib.axis_2">
    <g id="ytick_1">
     <g id="line2d_10">
      <path clip-path="url(#pb0236c3ff6)" d="M 49.675 336.245986 
L 422.513422 336.245986 
" style="fill:none;stroke:#ffffff;stroke-linecap:round;"/>
     </g>
     <g id="text_11">
      <!-- 0.0 -->
      <g style="fill:#262626;" transform="translate(24.885 340.182783)scale(0.11 -0.11)">
       <use xlink:href="#ArialMT-30"/>
       <use x="55.615234" xlink:href="#ArialMT-2e"/>
       <use x="83.398438" xlink:href="#ArialMT-30"/>
      </g>
     </g>
    </g>
    <g id="ytick_2">
     <g id="line2d_11">
      <path clip-path="url(#pb0236c3ff6)" d="M 49.675 265.254163 
L 422.513422 265.254163 
" style="fill:none;stroke:#ffffff;stroke-linecap:round;"/>
     </g>
     <g id="text_12">
      <!-- 0.5 -->
      <g style="fill:#262626;" transform="translate(24.885 269.19096)scale(0.11 -0.11)">
       <use xlink:href="#ArialMT-30"/>
       <use x="55.615234" xlink:href="#ArialMT-2e"/>
       <use x="83.398438" xlink:href="#ArialMT-35"/>
      </g>
     </g>
    </g>
    <g id="ytick_3">
     <g id="line2d_12">
      <path clip-path="url(#pb0236c3ff6)" d="M 49.675 194.26234 
L 422.513422 194.26234 
" style="fill:none;stroke:#ffffff;stroke-linecap:round;"/>
     </g>
     <g id="text_13">
      <!-- 1.0 -->
      <g style="fill:#262626;" transform="translate(24.885 198.199136)scale(0.11 -0.11)">
       <use xlink:href="#ArialMT-31"/>
       <use x="55.615234" xlink:href="#ArialMT-2e"/>
       <use x="83.398438" xlink:href="#ArialMT-30"/>
      </g>
     </g>
    </g>
    <g id="ytick_4">
     <g id="line2d_13">
      <path clip-path="url(#pb0236c3ff6)" d="M 49.675 123.270516 
L 422.513422 123.270516 
" style="fill:none;stroke:#ffffff;stroke-linecap:round;"/>
     </g>
     <g id="text_14">
      <!-- 1.5 -->
      <g style="fill:#262626;" transform="translate(24.885 127.207313)scale(0.11 -0.11)">
       <use xlink:href="#ArialMT-31"/>
       <use x="55.615234" xlink:href="#ArialMT-2e"/>
       <use x="83.398438" xlink:href="#ArialMT-35"/>
      </g>
     </g>
    </g>
    <g id="ytick_5">
     <g id="line2d_14">
      <path clip-path="url(#pb0236c3ff6)" d="M 49.675 52.278693 
L 422.513422 52.278693 
" style="fill:none;stroke:#ffffff;stroke-linecap:round;"/>
     </g>
     <g id="text_15">
      <!-- 2.0 -->
      <g style="fill:#262626;" transform="translate(24.885 56.21549)scale(0.11 -0.11)">
       <use xlink:href="#ArialMT-32"/>
       <use x="55.615234" xlink:href="#ArialMT-2e"/>
       <use x="83.398438" xlink:href="#ArialMT-30"/>
      </g>
     </g>
    </g>
    <g id="text_16">
     <!-- Potential -->
     <g style="fill:#262626;" transform="translate(18.5 235.351562)rotate(-90)scale(0.12 -0.12)">
      <defs>
       <path d="M 2694 1069 
L 3275 997 
Q 3138 488 2766 206 
Q 2394 -75 1816 -75 
Q 1088 -75 661 373 
Q 234 822 234 1631 
Q 234 2469 665 2931 
Q 1097 3394 1784 3394 
Q 2450 3394 2872 2941 
Q 3294 2488 3294 1666 
Q 3294 1616 3291 1516 
L 816 1516 
Q 847 969 1125 678 
Q 1403 388 1819 388 
Q 2128 388 2347 550 
Q 2566 713 2694 1069 
z
M 847 1978 
L 2700 1978 
Q 2663 2397 2488 2606 
Q 2219 2931 1791 2931 
Q 1403 2931 1139 2672 
Q 875 2413 847 1978 
z
" id="ArialMT-65" transform="scale(0.015625)"/>
       <path d="M 2588 409 
Q 2275 144 1986 34 
Q 1697 -75 1366 -75 
Q 819 -75 525 192 
Q 231 459 231 875 
Q 231 1119 342 1320 
Q 453 1522 633 1644 
Q 813 1766 1038 1828 
Q 1203 1872 1538 1913 
Q 2219 1994 2541 2106 
Q 2544 2222 2544 2253 
Q 2544 2597 2384 2738 
Q 2169 2928 1744 2928 
Q 1347 2928 1158 2789 
Q 969 2650 878 2297 
L 328 2372 
Q 403 2725 575 2942 
Q 747 3159 1072 3276 
Q 1397 3394 1825 3394 
Q 2250 3394 2515 3294 
Q 2781 3194 2906 3042 
Q 3031 2891 3081 2659 
Q 3109 2516 3109 2141 
L 3109 1391 
Q 3109 606 3145 398 
Q 3181 191 3288 0 
L 2700 0 
Q 2613 175 2588 409 
z
M 2541 1666 
Q 2234 1541 1622 1453 
Q 1275 1403 1131 1340 
Q 988 1278 909 1158 
Q 831 1038 831 891 
Q 831 666 1001 516 
Q 1172 366 1500 366 
Q 1825 366 2078 508 
Q 2331 650 2450 897 
Q 2541 1088 2541 1459 
L 2541 1666 
z
" id="ArialMT-61" transform="scale(0.015625)"/>
       <path d="M 409 0 
L 409 4581 
L 972 4581 
L 972 0 
L 409 0 
z
" id="ArialMT-6c" transform="scale(0.015625)"/>
      </defs>
      <use xlink:href="#ArialMT-50"/>
      <use x="66.699219" xlink:href="#ArialMT-6f"/>
      <use x="122.314453" xlink:href="#ArialMT-74"/>
      <use x="150.097656" xlink:href="#ArialMT-65"/>
      <use x="205.712891" xlink:href="#ArialMT-6e"/>
      <use x="261.328125" xlink:href="#ArialMT-74"/>
      <use x="289.111328" xlink:href="#ArialMT-69"/>
      <use x="311.328125" xlink:href="#ArialMT-61"/>
      <use x="366.943359" xlink:href="#ArialMT-6c"/>
     </g>
    </g>
   </g>
   <g id="line2d_15">
    <path clip-path="url(#pb0236c3ff6)" d="M 66.622201 52.278693 
L 70.045878 85.442782 
L 73.469555 116.168277 
L 76.893232 144.564154 
L 80.316909 170.73712 
L 83.740586 194.791608 
L 87.164263 216.829785 
L 90.58794 236.951544 
L 94.011617 255.254509 
L 97.435294 271.834035 
L 100.858971 286.783204 
L 104.282648 300.19283 
L 107.706325 312.151456 
L 111.130002 322.745354 
L 114.553679 332.058527 
L 117.977356 340.172706 
L 121.401033 347.167352 
L 124.82471 353.119658 
L 128.248386 358.104543 
L 131.672063 362.194659 
L 135.09574 365.460385 
L 138.519417 367.969832 
L 141.943094 369.788838 
L 145.366771 370.980973 
L 148.790448 371.607537 
L 152.214125 371.727557 
L 155.637802 371.397792 
L 159.061479 370.672729 
L 162.485156 369.604587 
L 165.908833 368.243312 
L 169.33251 366.636581 
L 172.756187 364.829801 
L 176.179864 362.866109 
L 179.603541 360.786369 
L 183.027218 358.629178 
L 186.450895 356.430862 
L 189.874572 354.225474 
L 193.298249 352.044799 
L 196.721926 349.918352 
L 200.145603 347.873377 
L 203.56928 345.934848 
L 206.992957 344.125467 
L 210.416634 342.465667 
L 213.840311 340.973612 
L 217.263988 339.665193 
L 220.687665 338.554032 
L 224.111342 337.651482 
L 227.535019 336.966623 
L 230.958696 336.506267 
L 234.382373 336.274953 
L 237.80605 336.274953 
L 241.229727 336.506267 
L 244.653403 336.966623 
L 248.07708 337.651482 
L 251.500757 338.554032 
L 254.924434 339.665193 
L 258.348111 340.973612 
L 261.771788 342.465667 
L 265.195465 344.125467 
L 268.619142 345.934848 
L 272.042819 347.873377 
L 275.466496 349.918352 
L 278.890173 352.044799 
L 282.31385 354.225474 
L 285.737527 356.430862 
L 289.161204 358.629178 
L 292.584881 360.786369 
L 296.008558 362.866109 
L 299.432235 364.829801 
L 302.855912 366.636581 
L 306.279589 368.243312 
L 309.703266 369.604587 
L 313.126943 370.672729 
L 316.55062 371.397792 
L 319.974297 371.727557 
L 323.397974 371.607537 
L 326.821651 370.980973 
L 330.245328 369.788838 
L 333.669005 367.969832 
L 337.092682 365.460385 
L 340.516359 362.194659 
L 343.940036 358.104543 
L 347.363713 353.119658 
L 350.78739 347.167352 
L 354.211067 340.172706 
L 357.634744 332.058527 
L 361.05842 322.745354 
L 364.482097 312.151456 
L 367.905774 300.19283 
L 371.329451 286.783204 
L 374.753128 271.834035 
L 378.176805 255.254509 
L 381.600482 236.951544 
L 385.024159 216.829785 
L 388.447836 194.791608 
L 391.871513 170.73712 
L 395.29519 144.564154 
L 398.718867 116.168277 
L 402.142544 85.442782 
L 405.566221 52.278693 
" style="fill:none;stroke:#4c72b0;stroke-linecap:round;stroke-width:1.5;"/>
   </g>
   <g id="patch_3">
    <path d="M 49.675 387.7 
L 49.675 36.30625 
" style="fill:none;stroke:#ffffff;stroke-linecap:square;stroke-linejoin:miter;stroke-width:1.25;"/>
   </g>
   <g id="patch_4">
    <path d="M 422.513422 387.7 
L 422.513422 36.30625 
" style="fill:none;stroke:#ffffff;stroke-linecap:square;stroke-linejoin:miter;stroke-width:1.25;"/>
   </g>
   <g id="patch_5">
    <path d="M 49.675 387.7 
L 422.513422 387.7 
" style="fill:none;stroke:#ffffff;stroke-linecap:square;stroke-linejoin:miter;stroke-width:1.25;"/>
   </g>
   <g id="patch_6">
    <path d="M 49.675 36.30625 
L 422.513422 36.30625 
" style="fill:none;stroke:#ffffff;stroke-linecap:square;stroke-linejoin:miter;stroke-width:1.25;"/>
   </g>
   <g id="text_17">
    <!-- Potential Energy of the System -->
    <g style="fill:#262626;" transform="translate(139.992961 30.30625)scale(0.14 -0.14)">
     <defs>
      <path id="ArialMT-20" transform="scale(0.015625)"/>
      <path d="M 506 0 
L 506 4581 
L 3819 4581 
L 3819 4041 
L 1113 4041 
L 1113 2638 
L 3647 2638 
L 3647 2100 
L 1113 2100 
L 1113 541 
L 3925 541 
L 3925 0 
L 506 0 
z
" id="ArialMT-45" transform="scale(0.015625)"/>
      <path d="M 416 0 
L 416 3319 
L 922 3319 
L 922 2816 
Q 1116 3169 1280 3281 
Q 1444 3394 1641 3394 
Q 1925 3394 2219 3213 
L 2025 2691 
Q 1819 2813 1613 2813 
Q 1428 2813 1281 2702 
Q 1134 2591 1072 2394 
Q 978 2094 978 1738 
L 978 0 
L 416 0 
z
" id="ArialMT-72" transform="scale(0.015625)"/>
      <path d="M 319 -275 
L 866 -356 
Q 900 -609 1056 -725 
Q 1266 -881 1628 -881 
Q 2019 -881 2231 -725 
Q 2444 -569 2519 -288 
Q 2563 -116 2559 434 
Q 2191 0 1641 0 
Q 956 0 581 494 
Q 206 988 206 1678 
Q 206 2153 378 2554 
Q 550 2956 876 3175 
Q 1203 3394 1644 3394 
Q 2231 3394 2613 2919 
L 2613 3319 
L 3131 3319 
L 3131 450 
Q 3131 -325 2973 -648 
Q 2816 -972 2473 -1159 
Q 2131 -1347 1631 -1347 
Q 1038 -1347 672 -1080 
Q 306 -813 319 -275 
z
M 784 1719 
Q 784 1066 1043 766 
Q 1303 466 1694 466 
Q 2081 466 2343 764 
Q 2606 1063 2606 1700 
Q 2606 2309 2336 2618 
Q 2066 2928 1684 2928 
Q 1309 2928 1046 2623 
Q 784 2319 784 1719 
z
" id="ArialMT-67" transform="scale(0.015625)"/>
      <path d="M 397 -1278 
L 334 -750 
Q 519 -800 656 -800 
Q 844 -800 956 -737 
Q 1069 -675 1141 -563 
Q 1194 -478 1313 -144 
Q 1328 -97 1363 -6 
L 103 3319 
L 709 3319 
L 1400 1397 
Q 1534 1031 1641 628 
Q 1738 1016 1872 1384 
L 2581 3319 
L 3144 3319 
L 1881 -56 
Q 1678 -603 1566 -809 
Q 1416 -1088 1222 -1217 
Q 1028 -1347 759 -1347 
Q 597 -1347 397 -1278 
z
" id="ArialMT-79" transform="scale(0.015625)"/>
      <path d="M 556 0 
L 556 2881 
L 59 2881 
L 59 3319 
L 556 3319 
L 556 3672 
Q 556 4006 616 4169 
Q 697 4388 901 4523 
Q 1106 4659 1475 4659 
Q 1713 4659 2000 4603 
L 1916 4113 
Q 1741 4144 1584 4144 
Q 1328 4144 1222 4034 
Q 1116 3925 1116 3625 
L 1116 3319 
L 1763 3319 
L 1763 2881 
L 1116 2881 
L 1116 0 
L 556 0 
z
" id="ArialMT-66" transform="scale(0.015625)"/>
      <path d="M 422 0 
L 422 4581 
L 984 4581 
L 984 2938 
Q 1378 3394 1978 3394 
Q 2347 3394 2619 3248 
Q 2891 3103 3008 2847 
Q 3125 2591 3125 2103 
L 3125 0 
L 2563 0 
L 2563 2103 
Q 2563 2525 2380 2717 
Q 2197 2909 1863 2909 
Q 1613 2909 1392 2779 
Q 1172 2650 1078 2428 
Q 984 2206 984 1816 
L 984 0 
L 422 0 
z
" id="ArialMT-68" transform="scale(0.015625)"/>
      <path d="M 288 1472 
L 859 1522 
Q 900 1178 1048 958 
Q 1197 738 1509 602 
Q 1822 466 2213 466 
Q 2559 466 2825 569 
Q 3091 672 3220 851 
Q 3350 1031 3350 1244 
Q 3350 1459 3225 1620 
Q 3100 1781 2813 1891 
Q 2628 1963 1997 2114 
Q 1366 2266 1113 2400 
Q 784 2572 623 2826 
Q 463 3081 463 3397 
Q 463 3744 659 4045 
Q 856 4347 1234 4503 
Q 1613 4659 2075 4659 
Q 2584 4659 2973 4495 
Q 3363 4331 3572 4012 
Q 3781 3694 3797 3291 
L 3216 3247 
Q 3169 3681 2898 3903 
Q 2628 4125 2100 4125 
Q 1550 4125 1298 3923 
Q 1047 3722 1047 3438 
Q 1047 3191 1225 3031 
Q 1400 2872 2139 2705 
Q 2878 2538 3153 2413 
Q 3553 2228 3743 1945 
Q 3934 1663 3934 1294 
Q 3934 928 3725 604 
Q 3516 281 3123 101 
Q 2731 -78 2241 -78 
Q 1619 -78 1198 103 
Q 778 284 539 648 
Q 300 1013 288 1472 
z
" id="ArialMT-53" transform="scale(0.015625)"/>
      <path d="M 422 0 
L 422 3319 
L 925 3319 
L 925 2853 
Q 1081 3097 1340 3245 
Q 1600 3394 1931 3394 
Q 2300 3394 2536 3241 
Q 2772 3088 2869 2813 
Q 3263 3394 3894 3394 
Q 4388 3394 4653 3120 
Q 4919 2847 4919 2278 
L 4919 0 
L 4359 0 
L 4359 2091 
Q 4359 2428 4304 2576 
Q 4250 2725 4106 2815 
Q 3963 2906 3769 2906 
Q 3419 2906 3187 2673 
Q 2956 2441 2956 1928 
L 2956 0 
L 2394 0 
L 2394 2156 
Q 2394 2531 2256 2718 
Q 2119 2906 1806 2906 
Q 1569 2906 1367 2781 
Q 1166 2656 1075 2415 
Q 984 2175 984 1722 
L 984 0 
L 422 0 
z
" id="ArialMT-6d" transform="scale(0.015625)"/>
     </defs>
     <use xlink:href="#ArialMT-50"/>
     <use x="66.699219" xlink:href="#ArialMT-6f"/>
     <use x="122.314453" xlink:href="#ArialMT-74"/>
     <use x="150.097656" xlink:href="#ArialMT-65"/>
     <use x="205.712891" xlink:href="#ArialMT-6e"/>
     <use x="261.328125" xlink:href="#ArialMT-74"/>
     <use x="289.111328" xlink:href="#ArialMT-69"/>
     <use x="311.328125" xlink:href="#ArialMT-61"/>
     <use x="366.943359" xlink:href="#ArialMT-6c"/>
     <use x="389.160156" xlink:href="#ArialMT-20"/>
     <use x="416.943359" xlink:href="#ArialMT-45"/>
     <use x="483.642578" xlink:href="#ArialMT-6e"/>
     <use x="539.257812" xlink:href="#ArialMT-65"/>
     <use x="594.873047" xlink:href="#ArialMT-72"/>
     <use x="628.173828" xlink:href="#ArialMT-67"/>
     <use x="683.789062" xlink:href="#ArialMT-79"/>
     <use x="733.789062" xlink:href="#ArialMT-20"/>
     <use x="761.572266" xlink:href="#ArialMT-6f"/>
     <use x="817.1875" xlink:href="#ArialMT-66"/>
     <use x="844.970703" xlink:href="#ArialMT-20"/>
     <use x="872.753906" xlink:href="#ArialMT-74"/>
     <use x="900.537109" xlink:href="#ArialMT-68"/>
     <use x="956.152344" xlink:href="#ArialMT-65"/>
     <use x="1011.767578" xlink:href="#ArialMT-20"/>
     <use x="1039.550781" xlink:href="#ArialMT-53"/>
     <use x="1106.25" xlink:href="#ArialMT-79"/>
     <use x="1156.25" xlink:href="#ArialMT-73"/>
     <use x="1206.25" xlink:href="#ArialMT-74"/>
     <use x="1234.033203" xlink:href="#ArialMT-65"/>
     <use x="1289.648438" xlink:href="#ArialMT-6d"/>
    </g>
   </g>
  </g>
  <g id="axes_2">
   <g id="patch_7">
    <path d="M 478.438422 387.7 
L 851.276844 387.7 
L 851.276844 36.30625 
L 478.438422 36.30625 
z
" style="fill:#eaeaf2;"/>
   </g>
   <g id="matplotlib.axis_3">
    <g id="xtick_10">
     <g id="line2d_16">
      <path clip-path="url(#pc4409520e9)" d="M 482.349315 387.7 
L 482.349315 36.30625 
" style="fill:none;stroke:#ffffff;stroke-linecap:round;"/>
     </g>
     <g id="text_18">
      <!-- 0 -->
      <g style="fill:#262626;" transform="translate(479.290799 405.073594)scale(0.11 -0.11)">
       <use xlink:href="#ArialMT-30"/>
      </g>
     </g>
    </g>
    <g id="xtick_11">
     <g id="line2d_17">
      <path clip-path="url(#pc4409520e9)" d="M 547.530857 387.7 
L 547.530857 36.30625 
" style="fill:none;stroke:#ffffff;stroke-linecap:round;"/>
     </g>
     <g id="text_19">
      <!-- 5 -->
      <g style="fill:#262626;" transform="translate(544.472341 405.073594)scale(0.11 -0.11)">
       <use xlink:href="#ArialMT-35"/>
      </g>
     </g>
    </g>
    <g id="xtick_12">
     <g id="line2d_18">
      <path clip-path="url(#pc4409520e9)" d="M 612.712399 387.7 
L 612.712399 36.30625 
" style="fill:none;stroke:#ffffff;stroke-linecap:round;"/>
     </g>
     <g id="text_20">
      <!-- 10 -->
      <g style="fill:#262626;" transform="translate(606.595368 405.073594)scale(0.11 -0.11)">
       <use xlink:href="#ArialMT-31"/>
       <use x="55.615234" xlink:href="#ArialMT-30"/>
      </g>
     </g>
    </g>
    <g id="xtick_13">
     <g id="line2d_19">
      <path clip-path="url(#pc4409520e9)" d="M 677.893942 387.7 
L 677.893942 36.30625 
" style="fill:none;stroke:#ffffff;stroke-linecap:round;"/>
     </g>
     <g id="text_21">
      <!-- 15 -->
      <g style="fill:#262626;" transform="translate(671.77691 405.073594)scale(0.11 -0.11)">
       <use xlink:href="#ArialMT-31"/>
       <use x="55.615234" xlink:href="#ArialMT-35"/>
      </g>
     </g>
    </g>
    <g id="xtick_14">
     <g id="line2d_20">
      <path clip-path="url(#pc4409520e9)" d="M 743.075484 387.7 
L 743.075484 36.30625 
" style="fill:none;stroke:#ffffff;stroke-linecap:round;"/>
     </g>
     <g id="text_22">
      <!-- 20 -->
      <g style="fill:#262626;" transform="translate(736.958453 405.073594)scale(0.11 -0.11)">
       <use xlink:href="#ArialMT-32"/>
       <use x="55.615234" xlink:href="#ArialMT-30"/>
      </g>
     </g>
    </g>
    <g id="xtick_15">
     <g id="line2d_21">
      <path clip-path="url(#pc4409520e9)" d="M 808.257026 387.7 
L 808.257026 36.30625 
" style="fill:none;stroke:#ffffff;stroke-linecap:round;"/>
     </g>
     <g id="text_23">
      <!-- 25 -->
      <g style="fill:#262626;" transform="translate(802.139995 405.073594)scale(0.11 -0.11)">
       <use xlink:href="#ArialMT-32"/>
       <use x="55.615234" xlink:href="#ArialMT-35"/>
      </g>
     </g>
    </g>
    <g id="text_24">
     <!-- Epochs -->
     <g style="fill:#262626;" transform="translate(644.845758 419.849219)scale(0.12 -0.12)">
      <defs>
       <path d="M 422 -1272 
L 422 3319 
L 934 3319 
L 934 2888 
Q 1116 3141 1344 3267 
Q 1572 3394 1897 3394 
Q 2322 3394 2647 3175 
Q 2972 2956 3137 2557 
Q 3303 2159 3303 1684 
Q 3303 1175 3120 767 
Q 2938 359 2589 142 
Q 2241 -75 1856 -75 
Q 1575 -75 1351 44 
Q 1128 163 984 344 
L 984 -1272 
L 422 -1272 
z
M 931 1641 
Q 931 1000 1190 694 
Q 1450 388 1819 388 
Q 2194 388 2461 705 
Q 2728 1022 2728 1688 
Q 2728 2322 2467 2637 
Q 2206 2953 1844 2953 
Q 1484 2953 1207 2617 
Q 931 2281 931 1641 
z
" id="ArialMT-70" transform="scale(0.015625)"/>
       <path d="M 2588 1216 
L 3141 1144 
Q 3050 572 2676 248 
Q 2303 -75 1759 -75 
Q 1078 -75 664 370 
Q 250 816 250 1647 
Q 250 2184 428 2587 
Q 606 2991 970 3192 
Q 1334 3394 1763 3394 
Q 2303 3394 2647 3120 
Q 2991 2847 3088 2344 
L 2541 2259 
Q 2463 2594 2264 2762 
Q 2066 2931 1784 2931 
Q 1359 2931 1093 2626 
Q 828 2322 828 1663 
Q 828 994 1084 691 
Q 1341 388 1753 388 
Q 2084 388 2306 591 
Q 2528 794 2588 1216 
z
" id="ArialMT-63" transform="scale(0.015625)"/>
      </defs>
      <use xlink:href="#ArialMT-45"/>
      <use x="66.699219" xlink:href="#ArialMT-70"/>
      <use x="122.314453" xlink:href="#ArialMT-6f"/>
      <use x="177.929688" xlink:href="#ArialMT-63"/>
      <use x="227.929688" xlink:href="#ArialMT-68"/>
      <use x="283.544922" xlink:href="#ArialMT-73"/>
     </g>
    </g>
   </g>
   <g id="matplotlib.axis_4">
    <g id="ytick_6">
     <g id="line2d_22">
      <path clip-path="url(#pc4409520e9)" d="M 478.438422 358.573235 
L 851.276844 358.573235 
" style="fill:none;stroke:#ffffff;stroke-linecap:round;"/>
     </g>
     <g id="text_25">
      <!-- 0.30 -->
      <g style="fill:#262626;" transform="translate(447.531391 362.510032)scale(0.11 -0.11)">
       <defs>
        <path d="M 269 1209 
L 831 1284 
Q 928 806 1161 595 
Q 1394 384 1728 384 
Q 2125 384 2398 659 
Q 2672 934 2672 1341 
Q 2672 1728 2419 1979 
Q 2166 2231 1775 2231 
Q 1616 2231 1378 2169 
L 1441 2663 
Q 1497 2656 1531 2656 
Q 1891 2656 2178 2843 
Q 2466 3031 2466 3422 
Q 2466 3731 2256 3934 
Q 2047 4138 1716 4138 
Q 1388 4138 1169 3931 
Q 950 3725 888 3313 
L 325 3413 
Q 428 3978 793 4289 
Q 1159 4600 1703 4600 
Q 2078 4600 2393 4439 
Q 2709 4278 2876 4000 
Q 3044 3722 3044 3409 
Q 3044 3113 2884 2869 
Q 2725 2625 2413 2481 
Q 2819 2388 3044 2092 
Q 3269 1797 3269 1353 
Q 3269 753 2831 336 
Q 2394 -81 1725 -81 
Q 1122 -81 723 278 
Q 325 638 269 1209 
z
" id="ArialMT-33" transform="scale(0.015625)"/>
       </defs>
       <use xlink:href="#ArialMT-30"/>
       <use x="55.615234" xlink:href="#ArialMT-2e"/>
       <use x="83.398438" xlink:href="#ArialMT-33"/>
       <use x="139.013672" xlink:href="#ArialMT-30"/>
      </g>
     </g>
    </g>
    <g id="ytick_7">
     <g id="line2d_23">
      <path clip-path="url(#pc4409520e9)" d="M 478.438422 291.416493 
L 851.276844 291.416493 
" style="fill:none;stroke:#ffffff;stroke-linecap:round;"/>
     </g>
     <g id="text_26">
      <!-- 0.35 -->
      <g style="fill:#262626;" transform="translate(447.531391 295.35329)scale(0.11 -0.11)">
       <use xlink:href="#ArialMT-30"/>
       <use x="55.615234" xlink:href="#ArialMT-2e"/>
       <use x="83.398438" xlink:href="#ArialMT-33"/>
       <use x="139.013672" xlink:href="#ArialMT-35"/>
      </g>
     </g>
    </g>
    <g id="ytick_8">
     <g id="line2d_24">
      <path clip-path="url(#pc4409520e9)" d="M 478.438422 224.259751 
L 851.276844 224.259751 
" style="fill:none;stroke:#ffffff;stroke-linecap:round;"/>
     </g>
     <g id="text_27">
      <!-- 0.40 -->
      <g style="fill:#262626;" transform="translate(447.531391 228.196548)scale(0.11 -0.11)">
       <defs>
        <path d="M 2069 0 
L 2069 1097 
L 81 1097 
L 81 1613 
L 2172 4581 
L 2631 4581 
L 2631 1613 
L 3250 1613 
L 3250 1097 
L 2631 1097 
L 2631 0 
L 2069 0 
z
M 2069 1613 
L 2069 3678 
L 634 1613 
L 2069 1613 
z
" id="ArialMT-34" transform="scale(0.015625)"/>
       </defs>
       <use xlink:href="#ArialMT-30"/>
       <use x="55.615234" xlink:href="#ArialMT-2e"/>
       <use x="83.398438" xlink:href="#ArialMT-34"/>
       <use x="139.013672" xlink:href="#ArialMT-30"/>
      </g>
     </g>
    </g>
    <g id="ytick_9">
     <g id="line2d_25">
      <path clip-path="url(#pc4409520e9)" d="M 478.438422 157.103009 
L 851.276844 157.103009 
" style="fill:none;stroke:#ffffff;stroke-linecap:round;"/>
     </g>
     <g id="text_28">
      <!-- 0.45 -->
      <g style="fill:#262626;" transform="translate(447.531391 161.039806)scale(0.11 -0.11)">
       <use xlink:href="#ArialMT-30"/>
       <use x="55.615234" xlink:href="#ArialMT-2e"/>
       <use x="83.398438" xlink:href="#ArialMT-34"/>
       <use x="139.013672" xlink:href="#ArialMT-35"/>
      </g>
     </g>
    </g>
    <g id="ytick_10">
     <g id="line2d_26">
      <path clip-path="url(#pc4409520e9)" d="M 478.438422 89.946267 
L 851.276844 89.946267 
" style="fill:none;stroke:#ffffff;stroke-linecap:round;"/>
     </g>
     <g id="text_29">
      <!-- 0.50 -->
      <g style="fill:#262626;" transform="translate(447.531391 93.883064)scale(0.11 -0.11)">
       <use xlink:href="#ArialMT-30"/>
       <use x="55.615234" xlink:href="#ArialMT-2e"/>
       <use x="83.398438" xlink:href="#ArialMT-35"/>
       <use x="139.013672" xlink:href="#ArialMT-30"/>
      </g>
     </g>
    </g>
    <g id="text_30">
     <!-- Model Loss -->
     <g style="fill:#262626;" transform="translate(441.146391 242.68375)rotate(-90)scale(0.12 -0.12)">
      <defs>
       <path d="M 475 0 
L 475 4581 
L 1388 4581 
L 2472 1338 
Q 2622 884 2691 659 
Q 2769 909 2934 1394 
L 4031 4581 
L 4847 4581 
L 4847 0 
L 4263 0 
L 4263 3834 
L 2931 0 
L 2384 0 
L 1059 3900 
L 1059 0 
L 475 0 
z
" id="ArialMT-4d" transform="scale(0.015625)"/>
       <path d="M 2575 0 
L 2575 419 
Q 2259 -75 1647 -75 
Q 1250 -75 917 144 
Q 584 363 401 755 
Q 219 1147 219 1656 
Q 219 2153 384 2558 
Q 550 2963 881 3178 
Q 1213 3394 1622 3394 
Q 1922 3394 2156 3267 
Q 2391 3141 2538 2938 
L 2538 4581 
L 3097 4581 
L 3097 0 
L 2575 0 
z
M 797 1656 
Q 797 1019 1065 703 
Q 1334 388 1700 388 
Q 2069 388 2326 689 
Q 2584 991 2584 1609 
Q 2584 2291 2321 2609 
Q 2059 2928 1675 2928 
Q 1300 2928 1048 2622 
Q 797 2316 797 1656 
z
" id="ArialMT-64" transform="scale(0.015625)"/>
       <path d="M 469 0 
L 469 4581 
L 1075 4581 
L 1075 541 
L 3331 541 
L 3331 0 
L 469 0 
z
" id="ArialMT-4c" transform="scale(0.015625)"/>
      </defs>
      <use xlink:href="#ArialMT-4d"/>
      <use x="83.300781" xlink:href="#ArialMT-6f"/>
      <use x="138.916016" xlink:href="#ArialMT-64"/>
      <use x="194.53125" xlink:href="#ArialMT-65"/>
      <use x="250.146484" xlink:href="#ArialMT-6c"/>
      <use x="272.363281" xlink:href="#ArialMT-20"/>
      <use x="300.146484" xlink:href="#ArialMT-4c"/>
      <use x="355.761719" xlink:href="#ArialMT-6f"/>
      <use x="411.376953" xlink:href="#ArialMT-73"/>
      <use x="461.376953" xlink:href="#ArialMT-73"/>
     </g>
    </g>
   </g>
   <g id="line2d_27">
    <path clip-path="url(#pc4409520e9)" d="M 495.385623 162.802569 
L 508.421932 232.497496 
L 521.45824 258.557715 
L 534.494549 274.544753 
L 547.530857 289.070989 
L 560.567165 302.798535 
L 573.603474 312.8477 
L 586.639782 320.792004 
L 599.676091 329.882765 
L 612.712399 335.788415 
L 625.748708 340.363116 
L 638.785016 343.808212 
L 651.821325 347.074381 
L 664.857633 349.930257 
L 677.893942 352.264081 
L 690.93025 354.573928 
L 703.966559 357.020952 
L 717.002867 359.314227 
L 730.039176 361.158782 
L 743.075484 362.543169 
L 756.111792 364.931352 
L 769.148101 367.1314 
L 782.184409 368.915512 
L 795.220718 369.983273 
L 808.257026 371.727557 
" style="fill:none;stroke:#4c72b0;stroke-linecap:round;stroke-width:1.5;"/>
   </g>
   <g id="line2d_28">
    <path clip-path="url(#pc4409520e9)" d="M 495.385623 207.842078 
L 508.421932 229.243936 
L 521.45824 253.92177 
L 534.494549 269.178407 
L 547.530857 293.00003 
L 560.567165 294.649126 
L 573.603474 302.260472 
L 586.639782 321.736997 
L 599.676091 335.308032 
L 612.712399 327.009556 
L 625.748708 345.419281 
L 638.785016 343.994305 
L 651.821325 338.402438 
L 664.857633 349.031896 
L 677.893942 329.032879 
L 690.93025 349.824862 
L 703.966559 363.960459 
L 717.002867 312.649919 
L 730.039176 354.696535 
L 743.075484 368.897739 
L 756.111792 362.251681 
L 769.148101 371.396521 
L 782.184409 356.31705 
L 795.220718 324.902654 
L 808.257026 342.234891 
" style="fill:none;stroke:#dd8452;stroke-linecap:round;stroke-width:1.5;"/>
   </g>
   <g id="line2d_29">
    <path clip-path="url(#pc4409520e9)" d="M 495.385623 52.278693 
L 508.421932 95.370334 
L 521.45824 110.830156 
L 534.494549 118.902111 
L 547.530857 123.650496 
L 560.567165 127.03671 
L 573.603474 129.545459 
L 586.639782 131.856146 
L 599.676091 133.775234 
L 612.712399 135.413562 
L 625.748708 136.89786 
L 638.785016 138.093873 
L 651.821325 139.156551 
L 664.857633 140.016884 
L 677.893942 140.738959 
L 690.93025 141.419244 
L 703.966559 142.116661 
L 717.002867 142.787379 
L 730.039176 143.662643 
L 743.075484 144.201307 
L 756.111792 144.673804 
L 769.148101 145.195736 
L 782.184409 145.651141 
L 795.220718 146.132284 
L 808.257026 146.610385 
L 821.293335 147.036088 
L 834.329643 147.449783 
" style="fill:none;stroke:#55a868;stroke-linecap:round;stroke-width:1.5;"/>
   </g>
   <g id="line2d_30">
    <path clip-path="url(#pc4409520e9)" d="M 495.385623 81.679814 
L 508.421932 103.486561 
L 521.45824 115.789892 
L 534.494549 122.795607 
L 547.530857 125.932843 
L 560.567165 127.674685 
L 573.603474 121.596872 
L 586.639782 131.863671 
L 599.676091 134.304772 
L 612.712399 134.856205 
L 625.748708 132.883639 
L 638.785016 132.440283 
L 651.821325 138.950804 
L 664.857633 138.167766 
L 677.893942 141.559824 
L 690.93025 141.028005 
L 703.966559 142.027638 
L 717.002867 133.594145 
L 730.039176 143.779126 
L 743.075484 144.252023 
L 756.111792 144.413739 
L 769.148101 138.068655 
L 782.184409 143.887684 
L 795.220718 147.325415 
L 808.257026 142.532357 
L 821.293335 147.059665 
L 834.329643 143.866549 
" style="fill:none;stroke:#c44e52;stroke-linecap:round;stroke-width:1.5;"/>
   </g>
   <g id="patch_8">
    <path d="M 478.438422 387.7 
L 478.438422 36.30625 
" style="fill:none;stroke:#ffffff;stroke-linecap:square;stroke-linejoin:miter;stroke-width:1.25;"/>
   </g>
   <g id="patch_9">
    <path d="M 851.276844 387.7 
L 851.276844 36.30625 
" style="fill:none;stroke:#ffffff;stroke-linecap:square;stroke-linejoin:miter;stroke-width:1.25;"/>
   </g>
   <g id="patch_10">
    <path d="M 478.438422 387.7 
L 851.276844 387.7 
" style="fill:none;stroke:#ffffff;stroke-linecap:square;stroke-linejoin:miter;stroke-width:1.25;"/>
   </g>
   <g id="patch_11">
    <path d="M 478.438422 36.30625 
L 851.276844 36.30625 
" style="fill:none;stroke:#ffffff;stroke-linecap:square;stroke-linejoin:miter;stroke-width:1.25;"/>
   </g>
   <g id="text_31">
    <!-- Model Loss by Epoch -->
    <g style="fill:#262626;" transform="translate(597.934352 30.30625)scale(0.14 -0.14)">
     <defs>
      <path d="M 941 0 
L 419 0 
L 419 4581 
L 981 4581 
L 981 2947 
Q 1338 3394 1891 3394 
Q 2197 3394 2470 3270 
Q 2744 3147 2920 2923 
Q 3097 2700 3197 2384 
Q 3297 2069 3297 1709 
Q 3297 856 2875 390 
Q 2453 -75 1863 -75 
Q 1275 -75 941 416 
L 941 0 
z
M 934 1684 
Q 934 1088 1097 822 
Q 1363 388 1816 388 
Q 2184 388 2453 708 
Q 2722 1028 2722 1663 
Q 2722 2313 2464 2622 
Q 2206 2931 1841 2931 
Q 1472 2931 1203 2611 
Q 934 2291 934 1684 
z
" id="ArialMT-62" transform="scale(0.015625)"/>
     </defs>
     <use xlink:href="#ArialMT-4d"/>
     <use x="83.300781" xlink:href="#ArialMT-6f"/>
     <use x="138.916016" xlink:href="#ArialMT-64"/>
     <use x="194.53125" xlink:href="#ArialMT-65"/>
     <use x="250.146484" xlink:href="#ArialMT-6c"/>
     <use x="272.363281" xlink:href="#ArialMT-20"/>
     <use x="300.146484" xlink:href="#ArialMT-4c"/>
     <use x="355.761719" xlink:href="#ArialMT-6f"/>
     <use x="411.376953" xlink:href="#ArialMT-73"/>
     <use x="461.376953" xlink:href="#ArialMT-73"/>
     <use x="511.376953" xlink:href="#ArialMT-20"/>
     <use x="539.160156" xlink:href="#ArialMT-62"/>
     <use x="594.775391" xlink:href="#ArialMT-79"/>
     <use x="644.775391" xlink:href="#ArialMT-20"/>
     <use x="672.558594" xlink:href="#ArialMT-45"/>
     <use x="739.257812" xlink:href="#ArialMT-70"/>
     <use x="794.873047" xlink:href="#ArialMT-6f"/>
     <use x="850.488281" xlink:href="#ArialMT-63"/>
     <use x="900.488281" xlink:href="#ArialMT-68"/>
    </g>
   </g>
   <g id="legend_1">
    <g id="patch_12">
     <path d="M 714.419657 108.139688 
L 843.576844 108.139688 
Q 845.776844 108.139688 845.776844 105.939688 
L 845.776844 44.00625 
Q 845.776844 41.80625 843.576844 41.80625 
L 714.419657 41.80625 
Q 712.219657 41.80625 712.219657 44.00625 
L 712.219657 105.939688 
Q 712.219657 108.139688 714.419657 108.139688 
z
" style="fill:#eaeaf2;opacity:0.8;stroke:#cccccc;stroke-linejoin:miter;"/>
    </g>
    <g id="line2d_31">
     <path d="M 716.619657 50.363906 
L 738.619657 50.363906 
" style="fill:none;stroke:#4c72b0;stroke-linecap:round;stroke-width:1.5;"/>
    </g>
    <g id="line2d_32"/>
    <g id="text_32">
     <!-- Complex Training -->
     <g style="fill:#262626;" transform="translate(747.419657 54.213906)scale(0.11 -0.11)">
      <defs>
       <path d="M 3763 1606 
L 4369 1453 
Q 4178 706 3683 314 
Q 3188 -78 2472 -78 
Q 1731 -78 1267 223 
Q 803 525 561 1097 
Q 319 1669 319 2325 
Q 319 3041 592 3573 
Q 866 4106 1370 4382 
Q 1875 4659 2481 4659 
Q 3169 4659 3637 4309 
Q 4106 3959 4291 3325 
L 3694 3184 
Q 3534 3684 3231 3912 
Q 2928 4141 2469 4141 
Q 1941 4141 1586 3887 
Q 1231 3634 1087 3207 
Q 944 2781 944 2328 
Q 944 1744 1114 1308 
Q 1284 872 1643 656 
Q 2003 441 2422 441 
Q 2931 441 3284 734 
Q 3638 1028 3763 1606 
z
" id="ArialMT-43" transform="scale(0.015625)"/>
       <path d="M 47 0 
L 1259 1725 
L 138 3319 
L 841 3319 
L 1350 2541 
Q 1494 2319 1581 2169 
Q 1719 2375 1834 2534 
L 2394 3319 
L 3066 3319 
L 1919 1756 
L 3153 0 
L 2463 0 
L 1781 1031 
L 1600 1309 
L 728 0 
L 47 0 
z
" id="ArialMT-78" transform="scale(0.015625)"/>
       <path d="M 1659 0 
L 1659 4041 
L 150 4041 
L 150 4581 
L 3781 4581 
L 3781 4041 
L 2266 4041 
L 2266 0 
L 1659 0 
z
" id="ArialMT-54" transform="scale(0.015625)"/>
      </defs>
      <use xlink:href="#ArialMT-43"/>
      <use x="72.216797" xlink:href="#ArialMT-6f"/>
      <use x="127.832031" xlink:href="#ArialMT-6d"/>
      <use x="211.132812" xlink:href="#ArialMT-70"/>
      <use x="266.748047" xlink:href="#ArialMT-6c"/>
      <use x="288.964844" xlink:href="#ArialMT-65"/>
      <use x="344.580078" xlink:href="#ArialMT-78"/>
      <use x="394.580078" xlink:href="#ArialMT-20"/>
      <use x="420.613281" xlink:href="#ArialMT-54"/>
      <use x="477.947266" xlink:href="#ArialMT-72"/>
      <use x="511.248047" xlink:href="#ArialMT-61"/>
      <use x="566.863281" xlink:href="#ArialMT-69"/>
      <use x="589.080078" xlink:href="#ArialMT-6e"/>
      <use x="644.695312" xlink:href="#ArialMT-69"/>
      <use x="666.912109" xlink:href="#ArialMT-6e"/>
      <use x="722.527344" xlink:href="#ArialMT-67"/>
     </g>
    </g>
    <g id="line2d_33">
     <path d="M 716.619657 66.186719 
L 738.619657 66.186719 
" style="fill:none;stroke:#dd8452;stroke-linecap:round;stroke-width:1.5;"/>
    </g>
    <g id="line2d_34"/>
    <g id="text_33">
     <!-- Complex Validation -->
     <g style="fill:#262626;" transform="translate(747.419657 70.036719)scale(0.11 -0.11)">
      <defs>
       <path d="M 1803 0 
L 28 4581 
L 684 4581 
L 1875 1253 
Q 2019 853 2116 503 
Q 2222 878 2363 1253 
L 3600 4581 
L 4219 4581 
L 2425 0 
L 1803 0 
z
" id="ArialMT-56" transform="scale(0.015625)"/>
      </defs>
      <use xlink:href="#ArialMT-43"/>
      <use x="72.216797" xlink:href="#ArialMT-6f"/>
      <use x="127.832031" xlink:href="#ArialMT-6d"/>
      <use x="211.132812" xlink:href="#ArialMT-70"/>
      <use x="266.748047" xlink:href="#ArialMT-6c"/>
      <use x="288.964844" xlink:href="#ArialMT-65"/>
      <use x="344.580078" xlink:href="#ArialMT-78"/>
      <use x="394.580078" xlink:href="#ArialMT-20"/>
      <use x="422.363281" xlink:href="#ArialMT-56"/>
      <use x="481.6875" xlink:href="#ArialMT-61"/>
      <use x="537.302734" xlink:href="#ArialMT-6c"/>
      <use x="559.519531" xlink:href="#ArialMT-69"/>
      <use x="581.736328" xlink:href="#ArialMT-64"/>
      <use x="637.351562" xlink:href="#ArialMT-61"/>
      <use x="692.966797" xlink:href="#ArialMT-74"/>
      <use x="720.75" xlink:href="#ArialMT-69"/>
      <use x="742.966797" xlink:href="#ArialMT-6f"/>
      <use x="798.582031" xlink:href="#ArialMT-6e"/>
     </g>
    </g>
    <g id="line2d_35">
     <path d="M 716.619657 81.880625 
L 738.619657 81.880625 
" style="fill:none;stroke:#55a868;stroke-linecap:round;stroke-width:1.5;"/>
    </g>
    <g id="line2d_36"/>
    <g id="text_34">
     <!-- Simple Training -->
     <g style="fill:#262626;" transform="translate(747.419657 85.730625)scale(0.11 -0.11)">
      <use xlink:href="#ArialMT-53"/>
      <use x="66.699219" xlink:href="#ArialMT-69"/>
      <use x="88.916016" xlink:href="#ArialMT-6d"/>
      <use x="172.216797" xlink:href="#ArialMT-70"/>
      <use x="227.832031" xlink:href="#ArialMT-6c"/>
      <use x="250.048828" xlink:href="#ArialMT-65"/>
      <use x="305.664062" xlink:href="#ArialMT-20"/>
      <use x="331.697266" xlink:href="#ArialMT-54"/>
      <use x="389.03125" xlink:href="#ArialMT-72"/>
      <use x="422.332031" xlink:href="#ArialMT-61"/>
      <use x="477.947266" xlink:href="#ArialMT-69"/>
      <use x="500.164062" xlink:href="#ArialMT-6e"/>
      <use x="555.779297" xlink:href="#ArialMT-69"/>
      <use x="577.996094" xlink:href="#ArialMT-6e"/>
      <use x="633.611328" xlink:href="#ArialMT-67"/>
     </g>
    </g>
    <g id="line2d_37">
     <path d="M 716.619657 97.703438 
L 738.619657 97.703438 
" style="fill:none;stroke:#c44e52;stroke-linecap:round;stroke-width:1.5;"/>
    </g>
    <g id="line2d_38"/>
    <g id="text_35">
     <!-- Simple Validation -->
     <g style="fill:#262626;" transform="translate(747.419657 101.553438)scale(0.11 -0.11)">
      <use xlink:href="#ArialMT-53"/>
      <use x="66.699219" xlink:href="#ArialMT-69"/>
      <use x="88.916016" xlink:href="#ArialMT-6d"/>
      <use x="172.216797" xlink:href="#ArialMT-70"/>
      <use x="227.832031" xlink:href="#ArialMT-6c"/>
      <use x="250.048828" xlink:href="#ArialMT-65"/>
      <use x="305.664062" xlink:href="#ArialMT-20"/>
      <use x="333.447266" xlink:href="#ArialMT-56"/>
      <use x="392.771484" xlink:href="#ArialMT-61"/>
      <use x="448.386719" xlink:href="#ArialMT-6c"/>
      <use x="470.603516" xlink:href="#ArialMT-69"/>
      <use x="492.820312" xlink:href="#ArialMT-64"/>
      <use x="548.435547" xlink:href="#ArialMT-61"/>
      <use x="604.050781" xlink:href="#ArialMT-74"/>
      <use x="631.833984" xlink:href="#ArialMT-69"/>
      <use x="654.050781" xlink:href="#ArialMT-6f"/>
      <use x="709.666016" xlink:href="#ArialMT-6e"/>
     </g>
    </g>
   </g>
  </g>
  <g id="axes_3">
   <g id="patch_13">
    <path d="M 907.201844 387.7 
L 1280.040266 387.7 
L 1280.040266 36.30625 
L 907.201844 36.30625 
z
" style="fill:#eaeaf2;"/>
   </g>
   <g id="matplotlib.axis_5">
    <g id="xtick_16">
     <g id="line2d_39">
      <path clip-path="url(#pa7c1a36794)" d="M 923.862172 387.7 
L 923.862172 36.30625 
" style="fill:none;stroke:#ffffff;stroke-linecap:round;"/>
     </g>
     <g id="text_36">
      <!-- 0.0 -->
      <g style="fill:#262626;" transform="translate(916.217172 405.073594)scale(0.11 -0.11)">
       <use xlink:href="#ArialMT-30"/>
       <use x="55.615234" xlink:href="#ArialMT-2e"/>
       <use x="83.398438" xlink:href="#ArialMT-30"/>
      </g>
     </g>
    </g>
    <g id="xtick_17">
     <g id="line2d_40">
      <path clip-path="url(#pa7c1a36794)" d="M 994.47551 387.7 
L 994.47551 36.30625 
" style="fill:none;stroke:#ffffff;stroke-linecap:round;"/>
     </g>
     <g id="text_37">
      <!-- 0.5 -->
      <g style="fill:#262626;" transform="translate(986.83051 405.073594)scale(0.11 -0.11)">
       <use xlink:href="#ArialMT-30"/>
       <use x="55.615234" xlink:href="#ArialMT-2e"/>
       <use x="83.398438" xlink:href="#ArialMT-35"/>
      </g>
     </g>
    </g>
    <g id="xtick_18">
     <g id="line2d_41">
      <path clip-path="url(#pa7c1a36794)" d="M 1065.088848 387.7 
L 1065.088848 36.30625 
" style="fill:none;stroke:#ffffff;stroke-linecap:round;"/>
     </g>
     <g id="text_38">
      <!-- 1.0 -->
      <g style="fill:#262626;" transform="translate(1057.443848 405.073594)scale(0.11 -0.11)">
       <use xlink:href="#ArialMT-31"/>
       <use x="55.615234" xlink:href="#ArialMT-2e"/>
       <use x="83.398438" xlink:href="#ArialMT-30"/>
      </g>
     </g>
    </g>
    <g id="xtick_19">
     <g id="line2d_42">
      <path clip-path="url(#pa7c1a36794)" d="M 1135.702185 387.7 
L 1135.702185 36.30625 
" style="fill:none;stroke:#ffffff;stroke-linecap:round;"/>
     </g>
     <g id="text_39">
      <!-- 1.5 -->
      <g style="fill:#262626;" transform="translate(1128.057185 405.073594)scale(0.11 -0.11)">
       <use xlink:href="#ArialMT-31"/>
       <use x="55.615234" xlink:href="#ArialMT-2e"/>
       <use x="83.398438" xlink:href="#ArialMT-35"/>
      </g>
     </g>
    </g>
    <g id="xtick_20">
     <g id="line2d_43">
      <path clip-path="url(#pa7c1a36794)" d="M 1206.315523 387.7 
L 1206.315523 36.30625 
" style="fill:none;stroke:#ffffff;stroke-linecap:round;"/>
     </g>
     <g id="text_40">
      <!-- 2.0 -->
      <g style="fill:#262626;" transform="translate(1198.670523 405.073594)scale(0.11 -0.11)">
       <use xlink:href="#ArialMT-32"/>
       <use x="55.615234" xlink:href="#ArialMT-2e"/>
       <use x="83.398438" xlink:href="#ArialMT-30"/>
      </g>
     </g>
    </g>
    <g id="xtick_21">
     <g id="line2d_44">
      <path clip-path="url(#pa7c1a36794)" d="M 1276.92886 387.7 
L 1276.92886 36.30625 
" style="fill:none;stroke:#ffffff;stroke-linecap:round;"/>
     </g>
     <g id="text_41">
      <!-- 2.5 -->
      <g style="fill:#262626;" transform="translate(1269.28386 405.073594)scale(0.11 -0.11)">
       <use xlink:href="#ArialMT-32"/>
       <use x="55.615234" xlink:href="#ArialMT-2e"/>
       <use x="83.398438" xlink:href="#ArialMT-35"/>
      </g>
     </g>
    </g>
    <g id="text_42">
     <!-- Error -->
     <g style="fill:#262626;" transform="translate(1080.288868 419.849219)scale(0.12 -0.12)">
      <use xlink:href="#ArialMT-45"/>
      <use x="66.699219" xlink:href="#ArialMT-72"/>
      <use x="100" xlink:href="#ArialMT-72"/>
      <use x="133.300781" xlink:href="#ArialMT-6f"/>
      <use x="188.916016" xlink:href="#ArialMT-72"/>
     </g>
    </g>
   </g>
   <g id="matplotlib.axis_6">
    <g id="ytick_11">
     <g id="line2d_45">
      <path clip-path="url(#pa7c1a36794)" d="M 907.201844 387.7 
L 1280.040266 387.7 
" style="fill:none;stroke:#ffffff;stroke-linecap:round;"/>
     </g>
     <g id="text_43">
      <!-- 0.0 -->
      <g style="fill:#262626;" transform="translate(882.411844 391.636797)scale(0.11 -0.11)">
       <use xlink:href="#ArialMT-30"/>
       <use x="55.615234" xlink:href="#ArialMT-2e"/>
       <use x="83.398438" xlink:href="#ArialMT-30"/>
      </g>
     </g>
    </g>
    <g id="ytick_12">
     <g id="line2d_46">
      <path clip-path="url(#pa7c1a36794)" d="M 907.201844 309.871927 
L 1280.040266 309.871927 
" style="fill:none;stroke:#ffffff;stroke-linecap:round;"/>
     </g>
     <g id="text_44">
      <!-- 0.1 -->
      <g style="fill:#262626;" transform="translate(882.411844 313.808724)scale(0.11 -0.11)">
       <use xlink:href="#ArialMT-30"/>
       <use x="55.615234" xlink:href="#ArialMT-2e"/>
       <use x="83.398438" xlink:href="#ArialMT-31"/>
      </g>
     </g>
    </g>
    <g id="ytick_13">
     <g id="line2d_47">
      <path clip-path="url(#pa7c1a36794)" d="M 907.201844 232.043854 
L 1280.040266 232.043854 
" style="fill:none;stroke:#ffffff;stroke-linecap:round;"/>
     </g>
     <g id="text_45">
      <!-- 0.2 -->
      <g style="fill:#262626;" transform="translate(882.411844 235.980651)scale(0.11 -0.11)">
       <use xlink:href="#ArialMT-30"/>
       <use x="55.615234" xlink:href="#ArialMT-2e"/>
       <use x="83.398438" xlink:href="#ArialMT-32"/>
      </g>
     </g>
    </g>
    <g id="ytick_14">
     <g id="line2d_48">
      <path clip-path="url(#pa7c1a36794)" d="M 907.201844 154.215781 
L 1280.040266 154.215781 
" style="fill:none;stroke:#ffffff;stroke-linecap:round;"/>
     </g>
     <g id="text_46">
      <!-- 0.3 -->
      <g style="fill:#262626;" transform="translate(882.411844 158.152578)scale(0.11 -0.11)">
       <use xlink:href="#ArialMT-30"/>
       <use x="55.615234" xlink:href="#ArialMT-2e"/>
       <use x="83.398438" xlink:href="#ArialMT-33"/>
      </g>
     </g>
    </g>
    <g id="ytick_15">
     <g id="line2d_49">
      <path clip-path="url(#pa7c1a36794)" d="M 907.201844 76.387708 
L 1280.040266 76.387708 
" style="fill:none;stroke:#ffffff;stroke-linecap:round;"/>
     </g>
     <g id="text_47">
      <!-- 0.4 -->
      <g style="fill:#262626;" transform="translate(882.411844 80.324505)scale(0.11 -0.11)">
       <use xlink:href="#ArialMT-30"/>
       <use x="55.615234" xlink:href="#ArialMT-2e"/>
       <use x="83.398438" xlink:href="#ArialMT-34"/>
      </g>
     </g>
    </g>
    <g id="text_48">
     <!-- Probability -->
     <g style="fill:#262626;" transform="translate(875.886219 240.015625)rotate(-90)scale(0.12 -0.12)">
      <use xlink:href="#ArialMT-50"/>
      <use x="66.699219" xlink:href="#ArialMT-72"/>
      <use x="100" xlink:href="#ArialMT-6f"/>
      <use x="155.615234" xlink:href="#ArialMT-62"/>
      <use x="211.230469" xlink:href="#ArialMT-61"/>
      <use x="266.845703" xlink:href="#ArialMT-62"/>
      <use x="322.460938" xlink:href="#ArialMT-69"/>
      <use x="344.677734" xlink:href="#ArialMT-6c"/>
      <use x="366.894531" xlink:href="#ArialMT-69"/>
      <use x="389.111328" xlink:href="#ArialMT-74"/>
      <use x="416.894531" xlink:href="#ArialMT-79"/>
     </g>
    </g>
   </g>
   <g id="patch_14">
    <path clip-path="url(#pa7c1a36794)" d="M 924.149045 387.7 
L 938.271713 387.7 
L 938.271713 293.362942 
L 924.149045 293.362942 
z
" style="fill:#0000ff;fill-opacity:0.75;stroke:#ffffff;stroke-linejoin:miter;"/>
   </g>
   <g id="patch_15">
    <path clip-path="url(#pa7c1a36794)" d="M 938.271713 387.7 
L 952.39438 387.7 
L 952.39438 277.640099 
L 938.271713 277.640099 
z
" style="fill:#0000ff;fill-opacity:0.75;stroke:#ffffff;stroke-linejoin:miter;"/>
   </g>
   <g id="patch_16">
    <path clip-path="url(#pa7c1a36794)" d="M 952.39438 387.7 
L 966.517048 387.7 
L 966.517048 261.917256 
L 952.39438 261.917256 
z
" style="fill:#0000ff;fill-opacity:0.75;stroke:#ffffff;stroke-linejoin:miter;"/>
   </g>
   <g id="patch_17">
    <path clip-path="url(#pa7c1a36794)" d="M 966.517048 387.7 
L 980.639715 387.7 
L 980.639715 316.947206 
L 966.517048 316.947206 
z
" style="fill:#0000ff;fill-opacity:0.75;stroke:#ffffff;stroke-linejoin:miter;"/>
   </g>
   <g id="patch_18">
    <path clip-path="url(#pa7c1a36794)" d="M 980.639715 387.7 
L 994.762383 387.7 
L 994.762383 324.808628 
L 980.639715 324.808628 
z
" style="fill:#0000ff;fill-opacity:0.75;stroke:#ffffff;stroke-linejoin:miter;"/>
   </g>
   <g id="patch_19">
    <path clip-path="url(#pa7c1a36794)" d="M 994.762383 387.7 
L 1008.88505 387.7 
L 1008.88505 324.808628 
L 994.762383 324.808628 
z
" style="fill:#0000ff;fill-opacity:0.75;stroke:#ffffff;stroke-linejoin:miter;"/>
   </g>
   <g id="patch_20">
    <path clip-path="url(#pa7c1a36794)" d="M 1008.88505 387.7 
L 1023.007718 387.7 
L 1023.007718 324.808628 
L 1008.88505 324.808628 
z
" style="fill:#0000ff;fill-opacity:0.75;stroke:#ffffff;stroke-linejoin:miter;"/>
   </g>
   <g id="patch_21">
    <path clip-path="url(#pa7c1a36794)" d="M 1023.007718 387.7 
L 1037.130385 387.7 
L 1037.130385 332.670049 
L 1023.007718 332.670049 
z
" style="fill:#0000ff;fill-opacity:0.75;stroke:#ffffff;stroke-linejoin:miter;"/>
   </g>
   <g id="patch_22">
    <path clip-path="url(#pa7c1a36794)" d="M 1037.130385 387.7 
L 1051.253053 387.7 
L 1051.253053 340.531471 
L 1037.130385 340.531471 
z
" style="fill:#0000ff;fill-opacity:0.75;stroke:#ffffff;stroke-linejoin:miter;"/>
   </g>
   <g id="patch_23">
    <path clip-path="url(#pa7c1a36794)" d="M 1051.253053 387.7 
L 1065.37572 387.7 
L 1065.37572 332.670049 
L 1051.253053 332.670049 
z
" style="fill:#0000ff;fill-opacity:0.75;stroke:#ffffff;stroke-linejoin:miter;"/>
   </g>
   <g id="patch_24">
    <path clip-path="url(#pa7c1a36794)" d="M 1065.37572 387.7 
L 1079.498388 387.7 
L 1079.498388 387.7 
L 1065.37572 387.7 
z
" style="fill:#0000ff;fill-opacity:0.75;stroke:#ffffff;stroke-linejoin:miter;"/>
   </g>
   <g id="patch_25">
    <path clip-path="url(#pa7c1a36794)" d="M 1079.498388 387.7 
L 1093.621055 387.7 
L 1093.621055 379.838578 
L 1079.498388 379.838578 
z
" style="fill:#0000ff;fill-opacity:0.75;stroke:#ffffff;stroke-linejoin:miter;"/>
   </g>
   <g id="patch_26">
    <path clip-path="url(#pa7c1a36794)" d="M 1093.621055 387.7 
L 1107.743723 387.7 
L 1107.743723 379.838578 
L 1093.621055 379.838578 
z
" style="fill:#0000ff;fill-opacity:0.75;stroke:#ffffff;stroke-linejoin:miter;"/>
   </g>
   <g id="patch_27">
    <path clip-path="url(#pa7c1a36794)" d="M 1107.743723 387.7 
L 1121.86639 387.7 
L 1121.86639 379.838578 
L 1107.743723 379.838578 
z
" style="fill:#0000ff;fill-opacity:0.75;stroke:#ffffff;stroke-linejoin:miter;"/>
   </g>
   <g id="patch_28">
    <path clip-path="url(#pa7c1a36794)" d="M 1121.86639 387.7 
L 1135.989058 387.7 
L 1135.989058 387.7 
L 1121.86639 387.7 
z
" style="fill:#0000ff;fill-opacity:0.75;stroke:#ffffff;stroke-linejoin:miter;"/>
   </g>
   <g id="patch_29">
    <path clip-path="url(#pa7c1a36794)" d="M 1135.989058 387.7 
L 1150.111725 387.7 
L 1150.111725 387.7 
L 1135.989058 387.7 
z
" style="fill:#0000ff;fill-opacity:0.75;stroke:#ffffff;stroke-linejoin:miter;"/>
   </g>
   <g id="patch_30">
    <path clip-path="url(#pa7c1a36794)" d="M 1150.111725 387.7 
L 1164.234393 387.7 
L 1164.234393 387.7 
L 1150.111725 387.7 
z
" style="fill:#0000ff;fill-opacity:0.75;stroke:#ffffff;stroke-linejoin:miter;"/>
   </g>
   <g id="patch_31">
    <path clip-path="url(#pa7c1a36794)" d="M 1164.234393 387.7 
L 1178.35706 387.7 
L 1178.35706 387.7 
L 1164.234393 387.7 
z
" style="fill:#0000ff;fill-opacity:0.75;stroke:#ffffff;stroke-linejoin:miter;"/>
   </g>
   <g id="patch_32">
    <path clip-path="url(#pa7c1a36794)" d="M 1178.35706 387.7 
L 1192.479728 387.7 
L 1192.479728 387.7 
L 1178.35706 387.7 
z
" style="fill:#0000ff;fill-opacity:0.75;stroke:#ffffff;stroke-linejoin:miter;"/>
   </g>
   <g id="patch_33">
    <path clip-path="url(#pa7c1a36794)" d="M 1192.479728 387.7 
L 1206.602395 387.7 
L 1206.602395 387.7 
L 1192.479728 387.7 
z
" style="fill:#0000ff;fill-opacity:0.75;stroke:#ffffff;stroke-linejoin:miter;"/>
   </g>
   <g id="patch_34">
    <path clip-path="url(#pa7c1a36794)" d="M 1206.602395 387.7 
L 1220.725063 387.7 
L 1220.725063 387.7 
L 1206.602395 387.7 
z
" style="fill:#0000ff;fill-opacity:0.75;stroke:#ffffff;stroke-linejoin:miter;"/>
   </g>
   <g id="patch_35">
    <path clip-path="url(#pa7c1a36794)" d="M 1220.725063 387.7 
L 1234.84773 387.7 
L 1234.84773 387.7 
L 1220.725063 387.7 
z
" style="fill:#0000ff;fill-opacity:0.75;stroke:#ffffff;stroke-linejoin:miter;"/>
   </g>
   <g id="patch_36">
    <path clip-path="url(#pa7c1a36794)" d="M 1234.84773 387.7 
L 1248.970398 387.7 
L 1248.970398 387.7 
L 1234.84773 387.7 
z
" style="fill:#0000ff;fill-opacity:0.75;stroke:#ffffff;stroke-linejoin:miter;"/>
   </g>
   <g id="patch_37">
    <path clip-path="url(#pa7c1a36794)" d="M 1248.970398 387.7 
L 1263.093065 387.7 
L 1263.093065 379.838578 
L 1248.970398 379.838578 
z
" style="fill:#0000ff;fill-opacity:0.75;stroke:#ffffff;stroke-linejoin:miter;"/>
   </g>
   <g id="patch_38">
    <path clip-path="url(#pa7c1a36794)" d="M 924.578153 387.7 
L 938.70082 387.7 
L 938.70082 356.568771 
L 924.578153 356.568771 
z
" style="fill:#008000;fill-opacity:0.75;stroke:#ffffff;stroke-linejoin:miter;"/>
   </g>
   <g id="patch_39">
    <path clip-path="url(#pa7c1a36794)" d="M 938.70082 387.7 
L 952.823488 387.7 
L 952.823488 372.134385 
L 938.70082 372.134385 
z
" style="fill:#008000;fill-opacity:0.75;stroke:#ffffff;stroke-linejoin:miter;"/>
   </g>
   <g id="patch_40">
    <path clip-path="url(#pa7c1a36794)" d="M 952.823488 387.7 
L 966.946155 387.7 
L 966.946155 364.351578 
L 952.823488 364.351578 
z
" style="fill:#008000;fill-opacity:0.75;stroke:#ffffff;stroke-linejoin:miter;"/>
   </g>
   <g id="patch_41">
    <path clip-path="url(#pa7c1a36794)" d="M 966.946155 387.7 
L 981.068823 387.7 
L 981.068823 356.568771 
L 966.946155 356.568771 
z
" style="fill:#008000;fill-opacity:0.75;stroke:#ffffff;stroke-linejoin:miter;"/>
   </g>
   <g id="patch_42">
    <path clip-path="url(#pa7c1a36794)" d="M 981.068823 387.7 
L 995.19149 387.7 
L 995.19149 364.351578 
L 981.068823 364.351578 
z
" style="fill:#008000;fill-opacity:0.75;stroke:#ffffff;stroke-linejoin:miter;"/>
   </g>
   <g id="patch_43">
    <path clip-path="url(#pa7c1a36794)" d="M 995.19149 387.7 
L 1009.314158 387.7 
L 1009.314158 364.351578 
L 995.19149 364.351578 
z
" style="fill:#008000;fill-opacity:0.75;stroke:#ffffff;stroke-linejoin:miter;"/>
   </g>
   <g id="patch_44">
    <path clip-path="url(#pa7c1a36794)" d="M 1009.314158 387.7 
L 1023.436825 387.7 
L 1023.436825 372.134385 
L 1009.314158 372.134385 
z
" style="fill:#008000;fill-opacity:0.75;stroke:#ffffff;stroke-linejoin:miter;"/>
   </g>
   <g id="patch_45">
    <path clip-path="url(#pa7c1a36794)" d="M 1023.436825 387.7 
L 1037.559493 387.7 
L 1037.559493 325.437542 
L 1023.436825 325.437542 
z
" style="fill:#008000;fill-opacity:0.75;stroke:#ffffff;stroke-linejoin:miter;"/>
   </g>
   <g id="patch_46">
    <path clip-path="url(#pa7c1a36794)" d="M 1037.559493 387.7 
L 1051.68216 387.7 
L 1051.68216 169.781395 
L 1037.559493 169.781395 
z
" style="fill:#008000;fill-opacity:0.75;stroke:#ffffff;stroke-linejoin:miter;"/>
   </g>
   <g id="patch_47">
    <path clip-path="url(#pa7c1a36794)" d="M 1051.68216 387.7 
L 1065.804828 387.7 
L 1065.804828 53.039286 
L 1051.68216 53.039286 
z
" style="fill:#008000;fill-opacity:0.75;stroke:#ffffff;stroke-linejoin:miter;"/>
   </g>
   <g id="patch_48">
    <path d="M 907.201844 387.7 
L 907.201844 36.30625 
" style="fill:none;stroke:#ffffff;stroke-linecap:square;stroke-linejoin:miter;stroke-width:1.25;"/>
   </g>
   <g id="patch_49">
    <path d="M 1280.040266 387.7 
L 1280.040266 36.30625 
" style="fill:none;stroke:#ffffff;stroke-linecap:square;stroke-linejoin:miter;stroke-width:1.25;"/>
   </g>
   <g id="patch_50">
    <path d="M 907.201844 387.7 
L 1280.040266 387.7 
" style="fill:none;stroke:#ffffff;stroke-linecap:square;stroke-linejoin:miter;stroke-width:1.25;"/>
   </g>
   <g id="patch_51">
    <path d="M 907.201844 36.30625 
L 1280.040266 36.30625 
" style="fill:none;stroke:#ffffff;stroke-linecap:square;stroke-linejoin:miter;stroke-width:1.25;"/>
   </g>
   <g id="text_49">
    <!-- Error Plot $\frac{||y_{pred}-y_{true}||}{||y_{true}||}$ -->
    <g style="fill:#262626;" transform="translate(1027.611055 30.30625)scale(0.14 -0.14)">
     <defs>
      <path d="M 1344 4891 
L 1344 -1509 
L 813 -1509 
L 813 4891 
L 1344 4891 
z
" id="DejaVuSans-7c" transform="scale(0.015625)"/>
      <path d="M 1588 -325 
Q 1188 -997 936 -1164 
Q 684 -1331 294 -1331 
L -159 -1331 
L -63 -850 
L 269 -850 
Q 509 -850 678 -719 
Q 847 -588 1056 -206 
L 1234 128 
L 459 3500 
L 1069 3500 
L 1650 819 
L 3256 3500 
L 3859 3500 
L 1588 -325 
z
" id="DejaVuSans-Oblique-79" transform="scale(0.015625)"/>
      <path d="M 3175 2156 
Q 3175 2616 2975 2859 
Q 2775 3103 2400 3103 
Q 2144 3103 1911 2972 
Q 1678 2841 1497 2591 
Q 1319 2344 1212 1994 
Q 1106 1644 1106 1300 
Q 1106 863 1306 627 
Q 1506 391 1875 391 
Q 2147 391 2380 519 
Q 2613 647 2778 891 
Q 2956 1147 3065 1494 
Q 3175 1841 3175 2156 
z
M 1394 2969 
Q 1625 3272 1939 3428 
Q 2253 3584 2638 3584 
Q 3175 3584 3472 3232 
Q 3769 2881 3769 2247 
Q 3769 1728 3584 1258 
Q 3400 788 3053 416 
Q 2822 169 2531 39 
Q 2241 -91 1919 -91 
Q 1547 -91 1294 64 
Q 1041 219 916 525 
L 556 -1331 
L -19 -1331 
L 922 3500 
L 1497 3500 
L 1394 2969 
z
" id="DejaVuSans-Oblique-70" transform="scale(0.015625)"/>
      <path d="M 2853 2969 
Q 2766 3016 2653 3041 
Q 2541 3066 2413 3066 
Q 1953 3066 1609 2717 
Q 1266 2369 1153 1784 
L 800 0 
L 225 0 
L 909 3500 
L 1484 3500 
L 1375 2956 
Q 1603 3259 1920 3421 
Q 2238 3584 2597 3584 
Q 2691 3584 2781 3573 
Q 2872 3563 2963 3538 
L 2853 2969 
z
" id="DejaVuSans-Oblique-72" transform="scale(0.015625)"/>
      <path d="M 3078 2063 
Q 3088 2113 3092 2166 
Q 3097 2219 3097 2272 
Q 3097 2653 2873 2875 
Q 2650 3097 2266 3097 
Q 1838 3097 1509 2826 
Q 1181 2556 1013 2059 
L 3078 2063 
z
M 3578 1613 
L 903 1613 
Q 884 1494 878 1425 
Q 872 1356 872 1306 
Q 872 872 1139 634 
Q 1406 397 1894 397 
Q 2269 397 2603 481 
Q 2938 566 3225 728 
L 3116 159 
Q 2806 34 2476 -28 
Q 2147 -91 1806 -91 
Q 1078 -91 686 257 
Q 294 606 294 1247 
Q 294 1794 489 2264 
Q 684 2734 1063 3103 
Q 1306 3334 1642 3459 
Q 1978 3584 2356 3584 
Q 2950 3584 3301 3228 
Q 3653 2872 3653 2272 
Q 3653 2128 3634 1964 
Q 3616 1800 3578 1613 
z
" id="DejaVuSans-Oblique-65" transform="scale(0.015625)"/>
      <path d="M 2675 525 
Q 2444 222 2128 65 
Q 1813 -91 1428 -91 
Q 903 -91 598 267 
Q 294 625 294 1247 
Q 294 1766 478 2236 
Q 663 2706 1013 3078 
Q 1244 3325 1534 3454 
Q 1825 3584 2144 3584 
Q 2481 3584 2739 3421 
Q 2997 3259 3138 2956 
L 3513 4863 
L 4091 4863 
L 3144 0 
L 2566 0 
L 2675 525 
z
M 891 1350 
Q 891 897 1095 644 
Q 1300 391 1663 391 
Q 1931 391 2161 520 
Q 2391 650 2566 903 
Q 2750 1166 2856 1509 
Q 2963 1853 2963 2188 
Q 2963 2622 2758 2865 
Q 2553 3109 2194 3109 
Q 1922 3109 1687 2981 
Q 1453 2853 1288 2613 
Q 1106 2353 998 2009 
Q 891 1666 891 1350 
z
" id="DejaVuSans-Oblique-64" transform="scale(0.015625)"/>
      <path d="M 678 2272 
L 4684 2272 
L 4684 1741 
L 678 1741 
L 678 2272 
z
" id="DejaVuSans-2212" transform="scale(0.015625)"/>
      <path d="M 2706 3500 
L 2619 3053 
L 1472 3053 
L 1100 1153 
Q 1081 1047 1072 975 
Q 1063 903 1063 863 
Q 1063 663 1183 572 
Q 1303 481 1569 481 
L 2150 481 
L 2053 0 
L 1503 0 
Q 991 0 739 200 
Q 488 400 488 806 
Q 488 878 497 964 
Q 506 1050 525 1153 
L 897 3053 
L 409 3053 
L 500 3500 
L 978 3500 
L 1172 4494 
L 1747 4494 
L 1556 3500 
L 2706 3500 
z
" id="DejaVuSans-Oblique-74" transform="scale(0.015625)"/>
      <path d="M 428 1388 
L 838 3500 
L 1416 3500 
L 1006 1409 
Q 975 1256 961 1147 
Q 947 1038 947 966 
Q 947 700 1109 554 
Q 1272 409 1569 409 
Q 2031 409 2368 721 
Q 2706 1034 2809 1563 
L 3194 3500 
L 3769 3500 
L 3091 0 
L 2516 0 
L 2631 550 
Q 2388 244 2052 76 
Q 1716 -91 1338 -91 
Q 878 -91 622 161 
Q 366 413 366 863 
Q 366 956 381 1097 
Q 397 1238 428 1388 
z
" id="DejaVuSans-Oblique-75" transform="scale(0.015625)"/>
     </defs>
     <use transform="translate(0 0.032969)" xlink:href="#ArialMT-45"/>
     <use transform="translate(66.699219 0.032969)" xlink:href="#ArialMT-72"/>
     <use transform="translate(100 0.032969)" xlink:href="#ArialMT-72"/>
     <use transform="translate(133.300781 0.032969)" xlink:href="#ArialMT-6f"/>
     <use transform="translate(188.916016 0.032969)" xlink:href="#ArialMT-72"/>
     <use transform="translate(222.216797 0.032969)" xlink:href="#ArialMT-20"/>
     <use transform="translate(250 0.032969)" xlink:href="#ArialMT-50"/>
     <use transform="translate(316.699219 0.032969)" xlink:href="#ArialMT-6c"/>
     <use transform="translate(338.916016 0.032969)" xlink:href="#ArialMT-6f"/>
     <use transform="translate(394.53125 0.032969)" xlink:href="#ArialMT-74"/>
     <use transform="translate(422.314453 0.032969)" xlink:href="#ArialMT-20"/>
     <use transform="translate(450.097656 65.504688)scale(0.7)" xlink:href="#DejaVuSans-7c"/>
     <use transform="translate(473.681641 65.504688)scale(0.7)" xlink:href="#DejaVuSans-7c"/>
     <use transform="translate(497.265625 65.504688)scale(0.7)" xlink:href="#DejaVuSans-Oblique-79"/>
     <use transform="translate(538.691406 54.020313)scale(0.49)" xlink:href="#DejaVuSans-Oblique-70"/>
     <use transform="translate(569.794922 54.020313)scale(0.49)" xlink:href="#DejaVuSans-Oblique-72"/>
     <use transform="translate(589.94043 54.020313)scale(0.49)" xlink:href="#DejaVuSans-Oblique-65"/>
     <use transform="translate(620.086914 54.020313)scale(0.49)" xlink:href="#DejaVuSans-Oblique-64"/>
     <use transform="translate(666.742188 65.504688)scale(0.7)" xlink:href="#DejaVuSans-2212"/>
     <use transform="translate(739.032227 65.504688)scale(0.7)" xlink:href="#DejaVuSans-Oblique-79"/>
     <use transform="translate(780.458008 54.020313)scale(0.49)" xlink:href="#DejaVuSans-Oblique-74"/>
     <use transform="translate(799.67041 54.020313)scale(0.49)" xlink:href="#DejaVuSans-Oblique-72"/>
     <use transform="translate(819.815918 54.020313)scale(0.49)" xlink:href="#DejaVuSans-Oblique-75"/>
     <use transform="translate(850.871582 54.020313)scale(0.49)" xlink:href="#DejaVuSans-Oblique-65"/>
     <use transform="translate(882.932129 65.504688)scale(0.7)" xlink:href="#DejaVuSans-7c"/>
     <use transform="translate(906.516113 65.504688)scale(0.7)" xlink:href="#DejaVuSans-7c"/>
     <use transform="translate(571.097656 -40.915469)scale(0.7)" xlink:href="#DejaVuSans-7c"/>
     <use transform="translate(594.681641 -40.915469)scale(0.7)" xlink:href="#DejaVuSans-7c"/>
     <use transform="translate(618.265625 -40.915469)scale(0.7)" xlink:href="#DejaVuSans-Oblique-79"/>
     <use transform="translate(659.691406 -52.399844)scale(0.49)" xlink:href="#DejaVuSans-Oblique-74"/>
     <use transform="translate(678.903809 -52.399844)scale(0.49)" xlink:href="#DejaVuSans-Oblique-72"/>
     <use transform="translate(699.049316 -52.399844)scale(0.49)" xlink:href="#DejaVuSans-Oblique-75"/>
     <use transform="translate(730.10498 -52.399844)scale(0.49)" xlink:href="#DejaVuSans-Oblique-65"/>
     <use transform="translate(762.165527 -40.915469)scale(0.7)" xlink:href="#DejaVuSans-7c"/>
     <use transform="translate(785.749512 -40.915469)scale(0.7)" xlink:href="#DejaVuSans-7c"/>
     <path d="M 450.097656 18.829844 
L 450.097656 25.079844 
L 930.100098 25.079844 
L 930.100098 18.829844 
L 450.097656 18.829844 
z
"/>
    </g>
   </g>
   <g id="legend_2">
    <g id="patch_52">
     <path d="M 1193.738391 76.494063 
L 1272.340266 76.494063 
Q 1274.540266 76.494063 1274.540266 74.294063 
L 1274.540266 44.00625 
Q 1274.540266 41.80625 1272.340266 41.80625 
L 1193.738391 41.80625 
Q 1191.538391 41.80625 1191.538391 44.00625 
L 1191.538391 74.294063 
Q 1191.538391 76.494063 1193.738391 76.494063 
z
" style="fill:#eaeaf2;opacity:0.8;stroke:#cccccc;stroke-linejoin:miter;"/>
    </g>
    <g id="patch_53">
     <path d="M 1195.938391 54.213906 
L 1217.938391 54.213906 
L 1217.938391 46.513906 
L 1195.938391 46.513906 
z
" style="fill:#0000ff;fill-opacity:0.75;stroke:#ffffff;stroke-linejoin:miter;"/>
    </g>
    <g id="text_50">
     <!-- Complex -->
     <g style="fill:#262626;" transform="translate(1226.738391 54.213906)scale(0.11 -0.11)">
      <use xlink:href="#ArialMT-43"/>
      <use x="72.216797" xlink:href="#ArialMT-6f"/>
      <use x="127.832031" xlink:href="#ArialMT-6d"/>
      <use x="211.132812" xlink:href="#ArialMT-70"/>
      <use x="266.748047" xlink:href="#ArialMT-6c"/>
      <use x="288.964844" xlink:href="#ArialMT-65"/>
      <use x="344.580078" xlink:href="#ArialMT-78"/>
     </g>
    </g>
    <g id="patch_54">
     <path d="M 1195.938391 69.907813 
L 1217.938391 69.907813 
L 1217.938391 62.207813 
L 1195.938391 62.207813 
z
" style="fill:#008000;fill-opacity:0.75;stroke:#ffffff;stroke-linejoin:miter;"/>
    </g>
    <g id="text_51">
     <!-- Simple -->
     <g style="fill:#262626;" transform="translate(1226.738391 69.907813)scale(0.11 -0.11)">
      <use xlink:href="#ArialMT-53"/>
      <use x="66.699219" xlink:href="#ArialMT-69"/>
      <use x="88.916016" xlink:href="#ArialMT-6d"/>
      <use x="172.216797" xlink:href="#ArialMT-70"/>
      <use x="227.832031" xlink:href="#ArialMT-6c"/>
      <use x="250.048828" xlink:href="#ArialMT-65"/>
     </g>
    </g>
   </g>
  </g>
 </g>
 <defs>
  <clipPath id="pb0236c3ff6">
   <rect height="351.39375" width="372.838422" x="49.675" y="36.30625"/>
  </clipPath>
  <clipPath id="pc4409520e9">
   <rect height="351.39375" width="372.838422" x="478.438422" y="36.30625"/>
  </clipPath>
  <clipPath id="pa7c1a36794">
   <rect height="351.39375" width="372.838422" x="907.201844" y="36.30625"/>
  </clipPath>
 </defs>
</svg>
