<?xml version="1.0" encoding="utf-8" standalone="no"?>
<!DOCTYPE svg PUBLIC "-//W3C//DTD SVG 1.1//EN"
  "http://www.w3.org/Graphics/SVG/1.1/DTD/svg11.dtd">
<svg height="422.062656pt" version="1.1" viewBox="0 0 429.615625 422.062656" width="429.615625pt" xmlns="http://www.w3.org/2000/svg" xmlns:xlink="http://www.w3.org/1999/xlink">
 <metadata>
  <rdf:RDF xmlns:cc="http://creativecommons.org/ns#" xmlns:dc="http://purl.org/dc/elements/1.1/" xmlns:rdf="http://www.w3.org/1999/02/22-rdf-syntax-ns#">
   <cc:Work>
    <dc:type rdf:resource="http://purl.org/dc/dcmitype/StillImage"/>
    <dc:date>2021-11-20T17:13:06.332124</dc:date>
    <dc:format>image/svg+xml</dc:format>
    <dc:creator>
     <cc:Agent>
      <dc:title>Matplotlib v3.4.2, https://matplotlib.org/</dc:title>
     </cc:Agent>
    </dc:creator>
   </cc:Work>
  </rdf:RDF>
 </metadata>
 <defs>
  <style type="text/css">*{stroke-linecap:butt;stroke-linejoin:round;}</style>
 </defs>
 <g id="figure_1">
  <g id="patch_1">
   <path d="M 0 422.062656 
L 429.615625 422.062656 
L 429.615625 0 
L 0 0 
z
" style="fill:none;"/>
  </g>
  <g id="axes_1">
   <g id="patch_2">
    <path d="M 70.285625 366.610469 
L 412.685625 366.610469 
L 412.685625 12.210469 
L 70.285625 12.210469 
z
" style="fill:#eaeaf2;"/>
   </g>
   <g id="matplotlib.axis_1">
    <g id="xtick_1">
     <g id="line2d_1">
      <path clip-path="url(#p6eca84eb22)" d="M 70.285625 366.610469 
L 70.285625 12.210469 
" style="fill:none;stroke:#ffffff;stroke-linecap:round;"/>
     </g>
     <g id="text_1">
      <!-- −2.0 -->
      <g style="fill:#262626;" transform="translate(56.467188 386.131406)scale(0.14 -0.14)">
       <defs>
        <path d="M 3381 1997 
L 356 1997 
L 356 2522 
L 3381 2522 
L 3381 1997 
z
" id="ArialMT-2212" transform="scale(0.015625)"/>
        <path d="M 3222 541 
L 3222 0 
L 194 0 
Q 188 203 259 391 
Q 375 700 629 1000 
Q 884 1300 1366 1694 
Q 2113 2306 2375 2664 
Q 2638 3022 2638 3341 
Q 2638 3675 2398 3904 
Q 2159 4134 1775 4134 
Q 1369 4134 1125 3890 
Q 881 3647 878 3216 
L 300 3275 
Q 359 3922 746 4261 
Q 1134 4600 1788 4600 
Q 2447 4600 2831 4234 
Q 3216 3869 3216 3328 
Q 3216 3053 3103 2787 
Q 2991 2522 2730 2228 
Q 2469 1934 1863 1422 
Q 1356 997 1212 845 
Q 1069 694 975 541 
L 3222 541 
z
" id="ArialMT-32" transform="scale(0.015625)"/>
        <path d="M 581 0 
L 581 641 
L 1222 641 
L 1222 0 
L 581 0 
z
" id="ArialMT-2e" transform="scale(0.015625)"/>
        <path d="M 266 2259 
Q 266 3072 433 3567 
Q 600 4063 929 4331 
Q 1259 4600 1759 4600 
Q 2128 4600 2406 4451 
Q 2684 4303 2865 4023 
Q 3047 3744 3150 3342 
Q 3253 2941 3253 2259 
Q 3253 1453 3087 958 
Q 2922 463 2592 192 
Q 2263 -78 1759 -78 
Q 1097 -78 719 397 
Q 266 969 266 2259 
z
M 844 2259 
Q 844 1131 1108 757 
Q 1372 384 1759 384 
Q 2147 384 2411 759 
Q 2675 1134 2675 2259 
Q 2675 3391 2411 3762 
Q 2147 4134 1753 4134 
Q 1366 4134 1134 3806 
Q 844 3388 844 2259 
z
" id="ArialMT-30" transform="scale(0.015625)"/>
       </defs>
       <use xlink:href="#ArialMT-2212"/>
       <use x="58.398438" xlink:href="#ArialMT-32"/>
       <use x="114.013672" xlink:href="#ArialMT-2e"/>
       <use x="141.796875" xlink:href="#ArialMT-30"/>
      </g>
     </g>
    </g>
    <g id="xtick_2">
     <g id="line2d_2">
      <path clip-path="url(#p6eca84eb22)" d="M 113.085625 366.610469 
L 113.085625 12.210469 
" style="fill:none;stroke:#ffffff;stroke-linecap:round;"/>
     </g>
     <g id="text_2">
      <!-- −1.5 -->
      <g style="fill:#262626;" transform="translate(99.267188 386.131406)scale(0.14 -0.14)">
       <defs>
        <path d="M 2384 0 
L 1822 0 
L 1822 3584 
Q 1619 3391 1289 3197 
Q 959 3003 697 2906 
L 697 3450 
Q 1169 3672 1522 3987 
Q 1875 4303 2022 4600 
L 2384 4600 
L 2384 0 
z
" id="ArialMT-31" transform="scale(0.015625)"/>
        <path d="M 266 1200 
L 856 1250 
Q 922 819 1161 601 
Q 1400 384 1738 384 
Q 2144 384 2425 690 
Q 2706 997 2706 1503 
Q 2706 1984 2436 2262 
Q 2166 2541 1728 2541 
Q 1456 2541 1237 2417 
Q 1019 2294 894 2097 
L 366 2166 
L 809 4519 
L 3088 4519 
L 3088 3981 
L 1259 3981 
L 1013 2750 
Q 1425 3038 1878 3038 
Q 2478 3038 2890 2622 
Q 3303 2206 3303 1553 
Q 3303 931 2941 478 
Q 2500 -78 1738 -78 
Q 1113 -78 717 272 
Q 322 622 266 1200 
z
" id="ArialMT-35" transform="scale(0.015625)"/>
       </defs>
       <use xlink:href="#ArialMT-2212"/>
       <use x="58.398438" xlink:href="#ArialMT-31"/>
       <use x="114.013672" xlink:href="#ArialMT-2e"/>
       <use x="141.796875" xlink:href="#ArialMT-35"/>
      </g>
     </g>
    </g>
    <g id="xtick_3">
     <g id="line2d_3">
      <path clip-path="url(#p6eca84eb22)" d="M 155.885625 366.610469 
L 155.885625 12.210469 
" style="fill:none;stroke:#ffffff;stroke-linecap:round;"/>
     </g>
     <g id="text_3">
      <!-- −1.0 -->
      <g style="fill:#262626;" transform="translate(142.067188 386.131406)scale(0.14 -0.14)">
       <use xlink:href="#ArialMT-2212"/>
       <use x="58.398438" xlink:href="#ArialMT-31"/>
       <use x="114.013672" xlink:href="#ArialMT-2e"/>
       <use x="141.796875" xlink:href="#ArialMT-30"/>
      </g>
     </g>
    </g>
    <g id="xtick_4">
     <g id="line2d_4">
      <path clip-path="url(#p6eca84eb22)" d="M 198.685625 366.610469 
L 198.685625 12.210469 
" style="fill:none;stroke:#ffffff;stroke-linecap:round;"/>
     </g>
     <g id="text_4">
      <!-- −0.5 -->
      <g style="fill:#262626;" transform="translate(184.867188 386.131406)scale(0.14 -0.14)">
       <use xlink:href="#ArialMT-2212"/>
       <use x="58.398438" xlink:href="#ArialMT-30"/>
       <use x="114.013672" xlink:href="#ArialMT-2e"/>
       <use x="141.796875" xlink:href="#ArialMT-35"/>
      </g>
     </g>
    </g>
    <g id="xtick_5">
     <g id="line2d_5">
      <path clip-path="url(#p6eca84eb22)" d="M 241.485625 366.610469 
L 241.485625 12.210469 
" style="fill:none;stroke:#ffffff;stroke-linecap:round;"/>
     </g>
     <g id="text_5">
      <!-- 0.0 -->
      <g style="fill:#262626;" transform="translate(231.755625 386.131406)scale(0.14 -0.14)">
       <use xlink:href="#ArialMT-30"/>
       <use x="55.615234" xlink:href="#ArialMT-2e"/>
       <use x="83.398438" xlink:href="#ArialMT-30"/>
      </g>
     </g>
    </g>
    <g id="xtick_6">
     <g id="line2d_6">
      <path clip-path="url(#p6eca84eb22)" d="M 284.285625 366.610469 
L 284.285625 12.210469 
" style="fill:none;stroke:#ffffff;stroke-linecap:round;"/>
     </g>
     <g id="text_6">
      <!-- 0.5 -->
      <g style="fill:#262626;" transform="translate(274.555625 386.131406)scale(0.14 -0.14)">
       <use xlink:href="#ArialMT-30"/>
       <use x="55.615234" xlink:href="#ArialMT-2e"/>
       <use x="83.398438" xlink:href="#ArialMT-35"/>
      </g>
     </g>
    </g>
    <g id="xtick_7">
     <g id="line2d_7">
      <path clip-path="url(#p6eca84eb22)" d="M 327.085625 366.610469 
L 327.085625 12.210469 
" style="fill:none;stroke:#ffffff;stroke-linecap:round;"/>
     </g>
     <g id="text_7">
      <!-- 1.0 -->
      <g style="fill:#262626;" transform="translate(317.355625 386.131406)scale(0.14 -0.14)">
       <use xlink:href="#ArialMT-31"/>
       <use x="55.615234" xlink:href="#ArialMT-2e"/>
       <use x="83.398438" xlink:href="#ArialMT-30"/>
      </g>
     </g>
    </g>
    <g id="xtick_8">
     <g id="line2d_8">
      <path clip-path="url(#p6eca84eb22)" d="M 369.885625 366.610469 
L 369.885625 12.210469 
" style="fill:none;stroke:#ffffff;stroke-linecap:round;"/>
     </g>
     <g id="text_8">
      <!-- 1.5 -->
      <g style="fill:#262626;" transform="translate(360.155625 386.131406)scale(0.14 -0.14)">
       <use xlink:href="#ArialMT-31"/>
       <use x="55.615234" xlink:href="#ArialMT-2e"/>
       <use x="83.398438" xlink:href="#ArialMT-35"/>
      </g>
     </g>
    </g>
    <g id="xtick_9">
     <g id="line2d_9">
      <path clip-path="url(#p6eca84eb22)" d="M 412.685625 366.610469 
L 412.685625 12.210469 
" style="fill:none;stroke:#ffffff;stroke-linecap:round;"/>
     </g>
     <g id="text_9">
      <!-- 2.0 -->
      <g style="fill:#262626;" transform="translate(402.955625 386.131406)scale(0.14 -0.14)">
       <use xlink:href="#ArialMT-32"/>
       <use x="55.615234" xlink:href="#ArialMT-2e"/>
       <use x="83.398438" xlink:href="#ArialMT-30"/>
      </g>
     </g>
    </g>
    <g id="text_10">
     <!-- x -->
     <g style="fill:#262626;" transform="translate(235.485625 410.092656)scale(0.24 -0.24)">
      <defs>
       <path d="M 47 0 
L 1259 1725 
L 138 3319 
L 841 3319 
L 1350 2541 
Q 1494 2319 1581 2169 
Q 1719 2375 1834 2534 
L 2394 3319 
L 3066 3319 
L 1919 1756 
L 3153 0 
L 2463 0 
L 1781 1031 
L 1600 1309 
L 728 0 
L 47 0 
z
" id="ArialMT-78" transform="scale(0.015625)"/>
      </defs>
      <use xlink:href="#ArialMT-78"/>
     </g>
    </g>
   </g>
   <g id="matplotlib.axis_2">
    <g id="ytick_1">
     <g id="line2d_10">
      <path clip-path="url(#p6eca84eb22)" d="M 70.285625 366.610469 
L 412.685625 366.610469 
" style="fill:none;stroke:#ffffff;stroke-linecap:round;"/>
     </g>
     <g id="text_11">
      <!-- −2.0 -->
      <g style="fill:#262626;" transform="translate(33.14875 371.620937)scale(0.14 -0.14)">
       <use xlink:href="#ArialMT-2212"/>
       <use x="58.398438" xlink:href="#ArialMT-32"/>
       <use x="114.013672" xlink:href="#ArialMT-2e"/>
       <use x="141.796875" xlink:href="#ArialMT-30"/>
      </g>
     </g>
    </g>
    <g id="ytick_2">
     <g id="line2d_11">
      <path clip-path="url(#p6eca84eb22)" d="M 70.285625 322.310469 
L 412.685625 322.310469 
" style="fill:none;stroke:#ffffff;stroke-linecap:round;"/>
     </g>
     <g id="text_12">
      <!-- −1.5 -->
      <g style="fill:#262626;" transform="translate(33.14875 327.320937)scale(0.14 -0.14)">
       <use xlink:href="#ArialMT-2212"/>
       <use x="58.398438" xlink:href="#ArialMT-31"/>
       <use x="114.013672" xlink:href="#ArialMT-2e"/>
       <use x="141.796875" xlink:href="#ArialMT-35"/>
      </g>
     </g>
    </g>
    <g id="ytick_3">
     <g id="line2d_12">
      <path clip-path="url(#p6eca84eb22)" d="M 70.285625 278.010469 
L 412.685625 278.010469 
" style="fill:none;stroke:#ffffff;stroke-linecap:round;"/>
     </g>
     <g id="text_13">
      <!-- −1.0 -->
      <g style="fill:#262626;" transform="translate(33.14875 283.020937)scale(0.14 -0.14)">
       <use xlink:href="#ArialMT-2212"/>
       <use x="58.398438" xlink:href="#ArialMT-31"/>
       <use x="114.013672" xlink:href="#ArialMT-2e"/>
       <use x="141.796875" xlink:href="#ArialMT-30"/>
      </g>
     </g>
    </g>
    <g id="ytick_4">
     <g id="line2d_13">
      <path clip-path="url(#p6eca84eb22)" d="M 70.285625 233.710469 
L 412.685625 233.710469 
" style="fill:none;stroke:#ffffff;stroke-linecap:round;"/>
     </g>
     <g id="text_14">
      <!-- −0.5 -->
      <g style="fill:#262626;" transform="translate(33.14875 238.720937)scale(0.14 -0.14)">
       <use xlink:href="#ArialMT-2212"/>
       <use x="58.398438" xlink:href="#ArialMT-30"/>
       <use x="114.013672" xlink:href="#ArialMT-2e"/>
       <use x="141.796875" xlink:href="#ArialMT-35"/>
      </g>
     </g>
    </g>
    <g id="ytick_5">
     <g id="line2d_14">
      <path clip-path="url(#p6eca84eb22)" d="M 70.285625 189.410469 
L 412.685625 189.410469 
" style="fill:none;stroke:#ffffff;stroke-linecap:round;"/>
     </g>
     <g id="text_15">
      <!-- 0.0 -->
      <g style="fill:#262626;" transform="translate(41.325625 194.420937)scale(0.14 -0.14)">
       <use xlink:href="#ArialMT-30"/>
       <use x="55.615234" xlink:href="#ArialMT-2e"/>
       <use x="83.398438" xlink:href="#ArialMT-30"/>
      </g>
     </g>
    </g>
    <g id="ytick_6">
     <g id="line2d_15">
      <path clip-path="url(#p6eca84eb22)" d="M 70.285625 145.110469 
L 412.685625 145.110469 
" style="fill:none;stroke:#ffffff;stroke-linecap:round;"/>
     </g>
     <g id="text_16">
      <!-- 0.5 -->
      <g style="fill:#262626;" transform="translate(41.325625 150.120937)scale(0.14 -0.14)">
       <use xlink:href="#ArialMT-30"/>
       <use x="55.615234" xlink:href="#ArialMT-2e"/>
       <use x="83.398438" xlink:href="#ArialMT-35"/>
      </g>
     </g>
    </g>
    <g id="ytick_7">
     <g id="line2d_16">
      <path clip-path="url(#p6eca84eb22)" d="M 70.285625 100.810469 
L 412.685625 100.810469 
" style="fill:none;stroke:#ffffff;stroke-linecap:round;"/>
     </g>
     <g id="text_17">
      <!-- 1.0 -->
      <g style="fill:#262626;" transform="translate(41.325625 105.820937)scale(0.14 -0.14)">
       <use xlink:href="#ArialMT-31"/>
       <use x="55.615234" xlink:href="#ArialMT-2e"/>
       <use x="83.398438" xlink:href="#ArialMT-30"/>
      </g>
     </g>
    </g>
    <g id="ytick_8">
     <g id="line2d_17">
      <path clip-path="url(#p6eca84eb22)" d="M 70.285625 56.510469 
L 412.685625 56.510469 
" style="fill:none;stroke:#ffffff;stroke-linecap:round;"/>
     </g>
     <g id="text_18">
      <!-- 1.5 -->
      <g style="fill:#262626;" transform="translate(41.325625 61.520937)scale(0.14 -0.14)">
       <use xlink:href="#ArialMT-31"/>
       <use x="55.615234" xlink:href="#ArialMT-2e"/>
       <use x="83.398438" xlink:href="#ArialMT-35"/>
      </g>
     </g>
    </g>
    <g id="ytick_9">
     <g id="line2d_18">
      <path clip-path="url(#p6eca84eb22)" d="M 70.285625 12.210469 
L 412.685625 12.210469 
" style="fill:none;stroke:#ffffff;stroke-linecap:round;"/>
     </g>
     <g id="text_19">
      <!-- 2.0 -->
      <g style="fill:#262626;" transform="translate(41.325625 17.220937)scale(0.14 -0.14)">
       <use xlink:href="#ArialMT-32"/>
       <use x="55.615234" xlink:href="#ArialMT-2e"/>
       <use x="83.398438" xlink:href="#ArialMT-30"/>
      </g>
     </g>
    </g>
    <g id="text_20">
     <!-- Potential -->
     <g style="fill:#262626;" transform="translate(24.37875 236.107344)rotate(-90)scale(0.24 -0.24)">
      <defs>
       <path d="M 494 0 
L 494 4581 
L 2222 4581 
Q 2678 4581 2919 4538 
Q 3256 4481 3484 4323 
Q 3713 4166 3852 3881 
Q 3991 3597 3991 3256 
Q 3991 2672 3619 2267 
Q 3247 1863 2275 1863 
L 1100 1863 
L 1100 0 
L 494 0 
z
M 1100 2403 
L 2284 2403 
Q 2872 2403 3119 2622 
Q 3366 2841 3366 3238 
Q 3366 3525 3220 3729 
Q 3075 3934 2838 4000 
Q 2684 4041 2272 4041 
L 1100 4041 
L 1100 2403 
z
" id="ArialMT-50" transform="scale(0.015625)"/>
       <path d="M 213 1659 
Q 213 2581 725 3025 
Q 1153 3394 1769 3394 
Q 2453 3394 2887 2945 
Q 3322 2497 3322 1706 
Q 3322 1066 3130 698 
Q 2938 331 2570 128 
Q 2203 -75 1769 -75 
Q 1072 -75 642 372 
Q 213 819 213 1659 
z
M 791 1659 
Q 791 1022 1069 705 
Q 1347 388 1769 388 
Q 2188 388 2466 706 
Q 2744 1025 2744 1678 
Q 2744 2294 2464 2611 
Q 2184 2928 1769 2928 
Q 1347 2928 1069 2612 
Q 791 2297 791 1659 
z
" id="ArialMT-6f" transform="scale(0.015625)"/>
       <path d="M 1650 503 
L 1731 6 
Q 1494 -44 1306 -44 
Q 1000 -44 831 53 
Q 663 150 594 308 
Q 525 466 525 972 
L 525 2881 
L 113 2881 
L 113 3319 
L 525 3319 
L 525 4141 
L 1084 4478 
L 1084 3319 
L 1650 3319 
L 1650 2881 
L 1084 2881 
L 1084 941 
Q 1084 700 1114 631 
Q 1144 563 1211 522 
Q 1278 481 1403 481 
Q 1497 481 1650 503 
z
" id="ArialMT-74" transform="scale(0.015625)"/>
       <path d="M 2694 1069 
L 3275 997 
Q 3138 488 2766 206 
Q 2394 -75 1816 -75 
Q 1088 -75 661 373 
Q 234 822 234 1631 
Q 234 2469 665 2931 
Q 1097 3394 1784 3394 
Q 2450 3394 2872 2941 
Q 3294 2488 3294 1666 
Q 3294 1616 3291 1516 
L 816 1516 
Q 847 969 1125 678 
Q 1403 388 1819 388 
Q 2128 388 2347 550 
Q 2566 713 2694 1069 
z
M 847 1978 
L 2700 1978 
Q 2663 2397 2488 2606 
Q 2219 2931 1791 2931 
Q 1403 2931 1139 2672 
Q 875 2413 847 1978 
z
" id="ArialMT-65" transform="scale(0.015625)"/>
       <path d="M 422 0 
L 422 3319 
L 928 3319 
L 928 2847 
Q 1294 3394 1984 3394 
Q 2284 3394 2536 3286 
Q 2788 3178 2913 3003 
Q 3038 2828 3088 2588 
Q 3119 2431 3119 2041 
L 3119 0 
L 2556 0 
L 2556 2019 
Q 2556 2363 2490 2533 
Q 2425 2703 2258 2804 
Q 2091 2906 1866 2906 
Q 1506 2906 1245 2678 
Q 984 2450 984 1813 
L 984 0 
L 422 0 
z
" id="ArialMT-6e" transform="scale(0.015625)"/>
       <path d="M 425 3934 
L 425 4581 
L 988 4581 
L 988 3934 
L 425 3934 
z
M 425 0 
L 425 3319 
L 988 3319 
L 988 0 
L 425 0 
z
" id="ArialMT-69" transform="scale(0.015625)"/>
       <path d="M 2588 409 
Q 2275 144 1986 34 
Q 1697 -75 1366 -75 
Q 819 -75 525 192 
Q 231 459 231 875 
Q 231 1119 342 1320 
Q 453 1522 633 1644 
Q 813 1766 1038 1828 
Q 1203 1872 1538 1913 
Q 2219 1994 2541 2106 
Q 2544 2222 2544 2253 
Q 2544 2597 2384 2738 
Q 2169 2928 1744 2928 
Q 1347 2928 1158 2789 
Q 969 2650 878 2297 
L 328 2372 
Q 403 2725 575 2942 
Q 747 3159 1072 3276 
Q 1397 3394 1825 3394 
Q 2250 3394 2515 3294 
Q 2781 3194 2906 3042 
Q 3031 2891 3081 2659 
Q 3109 2516 3109 2141 
L 3109 1391 
Q 3109 606 3145 398 
Q 3181 191 3288 0 
L 2700 0 
Q 2613 175 2588 409 
z
M 2541 1666 
Q 2234 1541 1622 1453 
Q 1275 1403 1131 1340 
Q 988 1278 909 1158 
Q 831 1038 831 891 
Q 831 666 1001 516 
Q 1172 366 1500 366 
Q 1825 366 2078 508 
Q 2331 650 2450 897 
Q 2541 1088 2541 1459 
L 2541 1666 
z
" id="ArialMT-61" transform="scale(0.015625)"/>
       <path d="M 409 0 
L 409 4581 
L 972 4581 
L 972 0 
L 409 0 
z
" id="ArialMT-6c" transform="scale(0.015625)"/>
      </defs>
      <use xlink:href="#ArialMT-50"/>
      <use x="66.699219" xlink:href="#ArialMT-6f"/>
      <use x="122.314453" xlink:href="#ArialMT-74"/>
      <use x="150.097656" xlink:href="#ArialMT-65"/>
      <use x="205.712891" xlink:href="#ArialMT-6e"/>
      <use x="261.328125" xlink:href="#ArialMT-74"/>
      <use x="289.111328" xlink:href="#ArialMT-69"/>
      <use x="311.328125" xlink:href="#ArialMT-61"/>
      <use x="366.943359" xlink:href="#ArialMT-6c"/>
     </g>
    </g>
   </g>
   <g id="line2d_19">
    <path clip-path="url(#p6eca84eb22)" d="M 70.285625 12.210469 
L 73.744211 32.905375 
L 77.202797 52.078561 
L 80.661383 69.798029 
L 84.119968 86.130366 
L 87.578554 101.140741 
L 91.03714 114.892905 
L 94.495726 127.449195 
L 97.954312 138.87053 
L 101.412898 149.216411 
L 104.871484 158.544925 
L 108.330069 166.91274 
L 111.788655 174.375108 
L 115.247241 180.985865 
L 118.705827 186.797429 
L 122.164413 191.860803 
L 125.622999 196.225571 
L 129.081585 199.939902 
L 132.54017 203.050548 
L 135.998756 205.602844 
L 139.457342 207.640707 
L 142.915928 209.206641 
L 146.374514 210.341729 
L 149.8331 211.08564 
L 153.291686 211.476626 
L 156.750271 211.55152 
L 160.208857 211.345741 
L 163.667443 210.893291 
L 167.126029 210.226754 
L 170.584615 209.377297 
L 174.043201 208.374672 
L 177.501787 207.247213 
L 180.960372 206.021839 
L 184.418958 204.724049 
L 187.877544 203.377928 
L 191.33613 202.006145 
L 194.794716 200.629948 
L 198.253302 199.269174 
L 201.711888 197.942238 
L 205.170473 196.666142 
L 208.629059 195.456469 
L 212.087645 194.327387 
L 215.546231 193.291646 
L 219.004817 192.360581 
L 222.463403 191.544107 
L 225.921989 190.850726 
L 229.380574 190.28752 
L 232.83916 189.860158 
L 236.297746 189.572888 
L 239.756332 189.428545 
L 243.214918 189.428545 
L 246.673504 189.572888 
L 250.13209 189.860158 
L 253.590676 190.28752 
L 257.049261 190.850726 
L 260.507847 191.544107 
L 263.966433 192.360581 
L 267.425019 193.291646 
L 270.883605 194.327387 
L 274.342191 195.456469 
L 277.800777 196.666142 
L 281.259362 197.942238 
L 284.717948 199.269174 
L 288.176534 200.629948 
L 291.63512 202.006145 
L 295.093706 203.377928 
L 298.552292 204.724049 
L 302.010878 206.021839 
L 305.469463 207.247213 
L 308.928049 208.374672 
L 312.386635 209.377297 
L 315.845221 210.226754 
L 319.303807 210.893291 
L 322.762393 211.345741 
L 326.220979 211.55152 
L 329.679564 211.476626 
L 333.13815 211.08564 
L 336.596736 210.341729 
L 340.055322 209.206641 
L 343.513908 207.640707 
L 346.972494 205.602844 
L 350.43108 203.050548 
L 353.889665 199.939902 
L 357.348251 196.225571 
L 360.806837 191.860803 
L 364.265423 186.797429 
L 367.724009 180.985865 
L 371.182595 174.375108 
L 374.641181 166.91274 
L 378.099766 158.544925 
L 381.558352 149.216411 
L 385.016938 138.87053 
L 388.475524 127.449195 
L 391.93411 114.892905 
L 395.392696 101.140741 
L 398.851282 86.130366 
L 402.309867 69.798029 
L 405.768453 52.078561 
L 409.227039 32.905375 
L 412.685625 12.210469 
" style="fill:none;stroke:#4c72b0;stroke-linecap:round;stroke-width:1.5;"/>
   </g>
   <g id="line2d_20">
    <path clip-path="url(#p6eca84eb22)" d="M 70.285625 12.210469 
L 73.744211 32.905375 
L 77.202797 52.078561 
L 80.661383 69.798029 
L 84.119968 86.130366 
L 87.578554 101.140741 
L 91.03714 114.892905 
L 94.495726 127.449195 
L 97.954312 138.87053 
L 101.412898 149.216411 
L 104.871484 158.544925 
L 108.330069 166.91274 
L 111.788655 174.375108 
L 115.247241 180.985865 
L 118.705827 186.797429 
L 122.164413 191.860803 
L 125.622999 196.225571 
L 129.081585 199.939902 
L 132.54017 203.050548 
L 135.998756 205.602844 
L 139.457342 207.640707 
L 142.915928 209.206641 
L 146.374514 210.341729 
L 149.8331 211.08564 
L 153.291686 211.476626 
L 156.750271 211.55152 
L 160.208857 211.345741 
L 163.667443 210.893291 
L 167.126029 210.226754 
L 170.584615 209.377297 
L 174.043201 208.374672 
L 177.501787 207.247213 
L 180.960372 206.021839 
L 184.418958 204.724049 
L 187.877544 203.377928 
L 191.33613 202.006145 
L 194.794716 200.629948 
L 198.253302 199.269174 
L 201.711888 197.942238 
L 205.170473 196.666142 
L 208.629059 195.456469 
L 212.087645 194.327387 
L 215.546231 193.291646 
L 219.004817 192.360581 
L 222.463403 191.544107 
L 225.921989 190.850726 
L 229.380574 190.28752 
L 232.83916 189.860158 
L 236.297746 189.572888 
L 239.756332 189.428545 
L 243.214918 189.428545 
L 246.673504 189.572888 
L 250.13209 189.860158 
L 253.590676 190.28752 
L 257.049261 190.850726 
L 260.507847 191.544107 
L 263.966433 192.360581 
L 267.425019 193.291646 
L 270.883605 194.327387 
L 274.342191 195.456469 
L 277.800777 196.666142 
L 281.259362 197.942238 
L 284.717948 199.269174 
L 288.176534 200.629948 
L 291.63512 202.006145 
L 295.093706 203.377928 
L 298.552292 204.724049 
L 302.010878 206.021839 
L 305.469463 207.247213 
L 308.928049 208.374672 
L 312.386635 209.377297 
L 315.845221 210.226754 
L 319.303807 210.893291 
L 322.762393 211.345741 
L 326.220979 211.55152 
L 329.679564 211.476626 
L 333.13815 211.08564 
L 336.596736 210.341729 
L 340.055322 209.206641 
L 343.513908 207.640707 
L 346.972494 205.602844 
L 350.43108 203.050548 
L 353.889665 199.939902 
L 357.348251 196.225571 
L 360.806837 191.860803 
L 364.265423 186.797429 
L 367.724009 180.985865 
L 371.182595 174.375108 
L 374.641181 166.91274 
L 378.099766 158.544925 
L 381.558352 149.216411 
L 385.016938 138.87053 
L 388.475524 127.449195 
L 391.93411 114.892905 
L 395.392696 101.140741 
L 398.851282 86.130366 
L 402.309867 69.798029 
L 405.768453 52.078561 
L 409.227039 32.905375 
L 412.685625 12.210469 
" style="fill:none;stroke:#dd8452;stroke-linecap:round;stroke-width:1.5;"/>
   </g>
   <g id="line2d_21">
    <path clip-path="url(#p6eca84eb22)" d="M 70.285625 12.210469 
L 73.744211 32.905375 
L 77.202797 52.078561 
L 80.661383 69.798029 
L 84.119968 86.130366 
L 87.578554 101.140741 
L 91.03714 114.892905 
L 94.495726 127.449195 
L 97.954312 138.87053 
L 101.412898 149.216411 
L 104.871484 158.544925 
L 108.330069 166.91274 
L 111.788655 174.375108 
L 115.247241 180.985865 
L 118.705827 186.797429 
L 122.164413 191.860803 
L 125.622999 196.225571 
L 129.081585 199.939902 
L 132.54017 203.050548 
L 135.998756 205.602844 
L 139.457342 207.640707 
L 142.915928 209.206641 
L 146.374514 210.341729 
L 149.8331 211.08564 
L 153.291686 211.476626 
L 156.750271 211.55152 
L 160.208857 211.345741 
L 163.667443 210.893291 
L 167.126029 210.226754 
L 170.584615 209.377297 
L 174.043201 208.374672 
L 177.501787 207.247213 
L 180.960372 206.021839 
L 184.418958 204.724049 
L 187.877544 203.377928 
L 191.33613 202.006145 
L 194.794716 200.629948 
L 198.253302 199.269174 
L 201.711888 197.942238 
L 205.170473 196.666142 
L 208.629059 195.456469 
L 212.087645 194.327387 
L 215.546231 193.291646 
L 219.004817 192.360581 
L 222.463403 191.544107 
L 225.921989 190.850726 
L 229.380574 190.28752 
L 232.83916 189.860158 
L 236.297746 189.572888 
L 239.756332 189.428545 
L 243.214918 189.428545 
L 246.673504 189.572888 
L 250.13209 189.860158 
L 253.590676 190.28752 
L 257.049261 190.850726 
L 260.507847 191.544107 
L 263.966433 192.360581 
L 267.425019 193.291646 
L 270.883605 194.327387 
L 274.342191 195.456469 
L 277.800777 196.666142 
L 281.259362 197.942238 
L 284.717948 199.269174 
L 288.176534 200.629948 
L 291.63512 202.006145 
L 295.093706 203.377928 
L 298.552292 204.724049 
L 302.010878 206.021839 
L 305.469463 207.247213 
L 308.928049 208.374672 
L 312.386635 209.377297 
L 315.845221 210.226754 
L 319.303807 210.893291 
L 322.762393 211.345741 
L 326.220979 211.55152 
L 329.679564 211.476626 
L 333.13815 211.08564 
L 336.596736 210.341729 
L 340.055322 209.206641 
L 343.513908 207.640707 
L 346.972494 205.602844 
L 350.43108 203.050548 
L 353.889665 199.939902 
L 357.348251 196.225571 
L 360.806837 191.860803 
L 364.265423 186.797429 
L 367.724009 180.985865 
L 371.182595 174.375108 
L 374.641181 166.91274 
L 378.099766 158.544925 
L 381.558352 149.216411 
L 385.016938 138.87053 
L 388.475524 127.449195 
L 391.93411 114.892905 
L 395.392696 101.140741 
L 398.851282 86.130366 
L 402.309867 69.798029 
L 405.768453 52.078561 
L 409.227039 32.905375 
L 412.685625 12.210469 
" style="fill:none;stroke:#55a868;stroke-linecap:round;stroke-width:1.5;"/>
   </g>
   <g id="line2d_22">
    <path clip-path="url(#p6eca84eb22)" d="M 70.285625 12.210469 
L 73.744211 32.905375 
L 77.202797 52.078561 
L 80.661383 69.798029 
L 84.119968 86.130366 
L 87.578554 101.140741 
L 91.03714 114.892905 
L 94.495726 127.449195 
L 97.954312 138.87053 
L 101.412898 149.216411 
L 104.871484 158.544925 
L 108.330069 166.91274 
L 111.788655 174.375108 
L 115.247241 180.985865 
L 118.705827 186.797429 
L 122.164413 191.860803 
L 125.622999 196.225571 
L 129.081585 199.939902 
L 132.54017 203.050548 
L 135.998756 205.602844 
L 139.457342 207.640707 
L 142.915928 209.206641 
L 146.374514 210.341729 
L 149.8331 211.08564 
L 153.291686 211.476626 
L 156.750271 211.55152 
L 160.208857 211.345741 
L 163.667443 210.893291 
L 167.126029 210.226754 
L 170.584615 209.377297 
L 174.043201 208.374672 
L 177.501787 207.247213 
L 180.960372 206.021839 
L 184.418958 204.724049 
L 187.877544 203.377928 
L 191.33613 202.006145 
L 194.794716 200.629948 
L 198.253302 199.269174 
L 201.711888 197.942238 
L 205.170473 196.666142 
L 208.629059 195.456469 
L 212.087645 194.327387 
L 215.546231 193.291646 
L 219.004817 192.360581 
L 222.463403 191.544107 
L 225.921989 190.850726 
L 229.380574 190.28752 
L 232.83916 189.860158 
L 236.297746 189.572888 
L 239.756332 189.428545 
L 243.214918 189.428545 
L 246.673504 189.572888 
L 250.13209 189.860158 
L 253.590676 190.28752 
L 257.049261 190.850726 
L 260.507847 191.544107 
L 263.966433 192.360581 
L 267.425019 193.291646 
L 270.883605 194.327387 
L 274.342191 195.456469 
L 277.800777 196.666142 
L 281.259362 197.942238 
L 284.717948 199.269174 
L 288.176534 200.629948 
L 291.63512 202.006145 
L 295.093706 203.377928 
L 298.552292 204.724049 
L 302.010878 206.021839 
L 305.469463 207.247213 
L 308.928049 208.374672 
L 312.386635 209.377297 
L 315.845221 210.226754 
L 319.303807 210.893291 
L 322.762393 211.345741 
L 326.220979 211.55152 
L 329.679564 211.476626 
L 333.13815 211.08564 
L 336.596736 210.341729 
L 340.055322 209.206641 
L 343.513908 207.640707 
L 346.972494 205.602844 
L 350.43108 203.050548 
L 353.889665 199.939902 
L 357.348251 196.225571 
L 360.806837 191.860803 
L 364.265423 186.797429 
L 367.724009 180.985865 
L 371.182595 174.375108 
L 374.641181 166.91274 
L 378.099766 158.544925 
L 381.558352 149.216411 
L 385.016938 138.87053 
L 388.475524 127.449195 
L 391.93411 114.892905 
L 395.392696 101.140741 
L 398.851282 86.130366 
L 402.309867 69.798029 
L 405.768453 52.078561 
L 409.227039 32.905375 
L 412.685625 12.210469 
" style="fill:none;stroke:#c44e52;stroke-linecap:round;stroke-width:1.5;"/>
   </g>
   <g id="line2d_23">
    <path clip-path="url(#p6eca84eb22)" d="M 70.285625 12.210469 
L 73.744211 32.905375 
L 77.202797 52.078561 
L 80.661383 69.798029 
L 84.119968 86.130366 
L 87.578554 101.140741 
L 91.03714 114.892905 
L 94.495726 127.449195 
L 97.954312 138.87053 
L 101.412898 149.216411 
L 104.871484 158.544925 
L 108.330069 166.91274 
L 111.788655 174.375108 
L 115.247241 180.985865 
L 118.705827 186.797429 
L 122.164413 191.860803 
L 125.622999 196.225571 
L 129.081585 199.939902 
L 132.54017 203.050548 
L 135.998756 205.602844 
L 139.457342 207.640707 
L 142.915928 209.206641 
L 146.374514 210.341729 
L 149.8331 211.08564 
L 153.291686 211.476626 
L 156.750271 211.55152 
L 160.208857 211.345741 
L 163.667443 210.893291 
L 167.126029 210.226754 
L 170.584615 209.377297 
L 174.043201 208.374672 
L 177.501787 207.247213 
L 180.960372 206.021839 
L 184.418958 204.724049 
L 187.877544 203.377928 
L 191.33613 202.006145 
L 194.794716 200.629948 
L 198.253302 199.269174 
L 201.711888 197.942238 
L 205.170473 196.666142 
L 208.629059 195.456469 
L 212.087645 194.327387 
L 215.546231 193.291646 
L 219.004817 192.360581 
L 222.463403 191.544107 
L 225.921989 190.850726 
L 229.380574 190.28752 
L 232.83916 189.860158 
L 236.297746 189.572888 
L 239.756332 189.428545 
L 243.214918 189.428545 
L 246.673504 189.572888 
L 250.13209 189.860158 
L 253.590676 190.28752 
L 257.049261 190.850726 
L 260.507847 191.544107 
L 263.966433 192.360581 
L 267.425019 193.291646 
L 270.883605 194.327387 
L 274.342191 195.456469 
L 277.800777 196.666142 
L 281.259362 197.942238 
L 284.717948 199.269174 
L 288.176534 200.629948 
L 291.63512 202.006145 
L 295.093706 203.377928 
L 298.552292 204.724049 
L 302.010878 206.021839 
L 305.469463 207.247213 
L 308.928049 208.374672 
L 312.386635 209.377297 
L 315.845221 210.226754 
L 319.303807 210.893291 
L 322.762393 211.345741 
L 326.220979 211.55152 
L 329.679564 211.476626 
L 333.13815 211.08564 
L 336.596736 210.341729 
L 340.055322 209.206641 
L 343.513908 207.640707 
L 346.972494 205.602844 
L 350.43108 203.050548 
L 353.889665 199.939902 
L 357.348251 196.225571 
L 360.806837 191.860803 
L 364.265423 186.797429 
L 367.724009 180.985865 
L 371.182595 174.375108 
L 374.641181 166.91274 
L 378.099766 158.544925 
L 381.558352 149.216411 
L 385.016938 138.87053 
L 388.475524 127.449195 
L 391.93411 114.892905 
L 395.392696 101.140741 
L 398.851282 86.130366 
L 402.309867 69.798029 
L 405.768453 52.078561 
L 409.227039 32.905375 
L 412.685625 12.210469 
" style="fill:none;stroke:#8172b3;stroke-linecap:round;stroke-width:1.5;"/>
   </g>
   <g id="line2d_24">
    <path clip-path="url(#p6eca84eb22)" d="M 70.285625 12.210469 
L 73.744211 32.905375 
L 77.202797 52.078561 
L 80.661383 69.798029 
L 84.119968 86.130366 
L 87.578554 101.140741 
L 91.03714 114.892905 
L 94.495726 127.449195 
L 97.954312 138.87053 
L 101.412898 149.216411 
L 104.871484 158.544925 
L 108.330069 166.91274 
L 111.788655 174.375108 
L 115.247241 180.985865 
L 118.705827 186.797429 
L 122.164413 191.860803 
L 125.622999 196.225571 
L 129.081585 199.939902 
L 132.54017 203.050548 
L 135.998756 205.602844 
L 139.457342 207.640707 
L 142.915928 209.206641 
L 146.374514 210.341729 
L 149.8331 211.08564 
L 153.291686 211.476626 
L 156.750271 211.55152 
L 160.208857 211.345741 
L 163.667443 210.893291 
L 167.126029 210.226754 
L 170.584615 209.377297 
L 174.043201 208.374672 
L 177.501787 207.247213 
L 180.960372 206.021839 
L 184.418958 204.724049 
L 187.877544 203.377928 
L 191.33613 202.006145 
L 194.794716 200.629948 
L 198.253302 199.269174 
L 201.711888 197.942238 
L 205.170473 196.666142 
L 208.629059 195.456469 
L 212.087645 194.327387 
L 215.546231 193.291646 
L 219.004817 192.360581 
L 222.463403 191.544107 
L 225.921989 190.850726 
L 229.380574 190.28752 
L 232.83916 189.860158 
L 236.297746 189.572888 
L 239.756332 189.428545 
L 243.214918 189.428545 
L 246.673504 189.572888 
L 250.13209 189.860158 
L 253.590676 190.28752 
L 257.049261 190.850726 
L 260.507847 191.544107 
L 263.966433 192.360581 
L 267.425019 193.291646 
L 270.883605 194.327387 
L 274.342191 195.456469 
L 277.800777 196.666142 
L 281.259362 197.942238 
L 284.717948 199.269174 
L 288.176534 200.629948 
L 291.63512 202.006145 
L 295.093706 203.377928 
L 298.552292 204.724049 
L 302.010878 206.021839 
L 305.469463 207.247213 
L 308.928049 208.374672 
L 312.386635 209.377297 
L 315.845221 210.226754 
L 319.303807 210.893291 
L 322.762393 211.345741 
L 326.220979 211.55152 
L 329.679564 211.476626 
L 333.13815 211.08564 
L 336.596736 210.341729 
L 340.055322 209.206641 
L 343.513908 207.640707 
L 346.972494 205.602844 
L 350.43108 203.050548 
L 353.889665 199.939902 
L 357.348251 196.225571 
L 360.806837 191.860803 
L 364.265423 186.797429 
L 367.724009 180.985865 
L 371.182595 174.375108 
L 374.641181 166.91274 
L 378.099766 158.544925 
L 381.558352 149.216411 
L 385.016938 138.87053 
L 388.475524 127.449195 
L 391.93411 114.892905 
L 395.392696 101.140741 
L 398.851282 86.130366 
L 402.309867 69.798029 
L 405.768453 52.078561 
L 409.227039 32.905375 
L 412.685625 12.210469 
" style="fill:none;stroke:#937860;stroke-linecap:round;stroke-width:1.5;"/>
   </g>
   <g id="patch_3">
    <path d="M 70.285625 366.610469 
L 70.285625 12.210469 
" style="fill:none;stroke:#ffffff;stroke-linecap:square;stroke-linejoin:miter;stroke-width:1.25;"/>
   </g>
   <g id="patch_4">
    <path d="M 412.685625 366.610469 
L 412.685625 12.210469 
" style="fill:none;stroke:#ffffff;stroke-linecap:square;stroke-linejoin:miter;stroke-width:1.25;"/>
   </g>
   <g id="patch_5">
    <path d="M 70.285625 366.610469 
L 412.685625 366.610469 
" style="fill:none;stroke:#ffffff;stroke-linecap:square;stroke-linejoin:miter;stroke-width:1.25;"/>
   </g>
   <g id="patch_6">
    <path d="M 70.285625 12.210469 
L 412.685625 12.210469 
" style="fill:none;stroke:#ffffff;stroke-linecap:square;stroke-linejoin:miter;stroke-width:1.25;"/>
   </g>
  </g>
 </g>
 <defs>
  <clipPath id="p6eca84eb22">
   <rect height="354.4" width="342.4" x="70.285625" y="12.210469"/>
  </clipPath>
 </defs>
</svg>
